G75*
%MOIN*%
%OFA0B0*%
%FSLAX25Y25*%
%IPPOS*%
%LPD*%
%AMOC8*
5,1,8,0,0,1.08239X$1,22.5*
%
%ADD10C,0.13398*%
%ADD11C,0.01421*%
%ADD12R,0.05131X0.04737*%
%ADD13R,0.07800X0.10800*%
%ADD14C,0.32296*%
%ADD15C,0.00500*%
%ADD16R,0.07099X0.07887*%
%ADD17R,0.04737X0.05131*%
%ADD18R,0.05524X0.02965*%
%ADD19R,0.05131X0.07493*%
%ADD20R,0.05800X0.03300*%
%ADD21R,0.04737X0.06706*%
%ADD22R,0.06706X0.04737*%
%ADD23R,0.04737X0.04737*%
%ADD24R,0.02965X0.05524*%
%ADD25C,0.03950*%
%ADD26R,0.07400X0.07400*%
%ADD27C,0.07400*%
%ADD28C,0.06800*%
%ADD29R,0.13398X0.17335*%
%ADD30R,0.09461X0.03162*%
%ADD31R,0.05328X0.04737*%
%ADD32C,0.04400*%
%ADD33R,0.01981X0.02769*%
%ADD34R,0.02769X0.01981*%
D10*
X0013780Y0261811D03*
X0104331Y0261811D03*
D11*
X0011985Y0239847D02*
X0011985Y0236531D01*
X0008669Y0236531D01*
X0008669Y0239847D01*
X0011985Y0239847D01*
X0011985Y0237951D02*
X0008669Y0237951D01*
X0008669Y0239371D02*
X0011985Y0239371D01*
X0018890Y0239847D02*
X0018890Y0236531D01*
X0015574Y0236531D01*
X0015574Y0239847D01*
X0018890Y0239847D01*
X0018890Y0237951D02*
X0015574Y0237951D01*
X0015574Y0239371D02*
X0018890Y0239371D01*
X0011985Y0249689D02*
X0011985Y0246373D01*
X0008669Y0246373D01*
X0008669Y0249689D01*
X0011985Y0249689D01*
X0011985Y0247793D02*
X0008669Y0247793D01*
X0008669Y0249213D02*
X0011985Y0249213D01*
X0018890Y0249689D02*
X0018890Y0246373D01*
X0015574Y0246373D01*
X0015574Y0249689D01*
X0018890Y0249689D01*
X0018890Y0247793D02*
X0015574Y0247793D01*
X0015574Y0249213D02*
X0018890Y0249213D01*
D12*
X0029528Y0241535D03*
X0029528Y0234843D03*
X0037402Y0241535D03*
X0037402Y0234843D03*
X0107677Y0232283D03*
X0100984Y0232283D03*
X0091142Y0125000D03*
X0097835Y0125000D03*
X0039764Y0102362D03*
X0033071Y0102362D03*
X0064567Y0102362D03*
X0071260Y0102362D03*
X0084252Y0179134D03*
X0090945Y0179134D03*
X0086220Y0240157D03*
X0092913Y0240157D03*
X0021654Y0187106D03*
X0021654Y0193799D03*
X0084252Y0171260D03*
X0090945Y0171260D03*
X0037402Y0187106D03*
X0037402Y0193799D03*
X0098327Y0094488D03*
X0091634Y0094488D03*
X0098327Y0086122D03*
X0091634Y0086122D03*
X0103445Y0094488D03*
X0110138Y0094488D03*
D13*
X0015748Y0054331D03*
X0102362Y0054331D03*
X0015748Y0042126D03*
X0102362Y0042126D03*
D14*
X0059055Y0048228D03*
D15*
X0059055Y0087598D02*
X0055118Y0087598D01*
X0047244Y0085630D01*
X0041339Y0083661D01*
X0035433Y0079724D01*
X0031102Y0076181D01*
X0027559Y0071850D01*
X0023622Y0065945D01*
X0021654Y0060039D01*
X0021654Y0048228D01*
X0059055Y0048228D01*
X0059055Y0087598D01*
X0059055Y0048356D02*
X0021654Y0048356D01*
X0021654Y0048854D02*
X0059055Y0048854D01*
X0059055Y0049353D02*
X0021654Y0049353D01*
X0021654Y0049851D02*
X0059055Y0049851D01*
X0059055Y0050350D02*
X0021654Y0050350D01*
X0021654Y0050848D02*
X0059055Y0050848D01*
X0059055Y0051347D02*
X0021654Y0051347D01*
X0021654Y0051845D02*
X0059055Y0051845D01*
X0059055Y0052344D02*
X0021654Y0052344D01*
X0021654Y0052842D02*
X0059055Y0052842D01*
X0059055Y0053341D02*
X0021654Y0053341D01*
X0021654Y0053839D02*
X0059055Y0053839D01*
X0059055Y0054338D02*
X0021654Y0054338D01*
X0021654Y0054836D02*
X0059055Y0054836D01*
X0059055Y0055335D02*
X0021654Y0055335D01*
X0021654Y0055833D02*
X0059055Y0055833D01*
X0059055Y0056332D02*
X0021654Y0056332D01*
X0021654Y0056830D02*
X0059055Y0056830D01*
X0059055Y0057329D02*
X0021654Y0057329D01*
X0021654Y0057827D02*
X0059055Y0057827D01*
X0059055Y0058326D02*
X0021654Y0058326D01*
X0021654Y0058824D02*
X0059055Y0058824D01*
X0059055Y0059323D02*
X0021654Y0059323D01*
X0021654Y0059821D02*
X0059055Y0059821D01*
X0059055Y0060320D02*
X0021747Y0060320D01*
X0021913Y0060818D02*
X0059055Y0060818D01*
X0059055Y0061317D02*
X0022079Y0061317D01*
X0022246Y0061815D02*
X0059055Y0061815D01*
X0059055Y0062314D02*
X0022412Y0062314D01*
X0022578Y0062812D02*
X0059055Y0062812D01*
X0059055Y0063311D02*
X0022744Y0063311D01*
X0022910Y0063809D02*
X0059055Y0063809D01*
X0059055Y0064308D02*
X0023076Y0064308D01*
X0023243Y0064806D02*
X0059055Y0064806D01*
X0059055Y0065305D02*
X0023409Y0065305D01*
X0023575Y0065803D02*
X0059055Y0065803D01*
X0059055Y0066302D02*
X0023860Y0066302D01*
X0024192Y0066801D02*
X0059055Y0066801D01*
X0059055Y0067299D02*
X0024525Y0067299D01*
X0024857Y0067798D02*
X0059055Y0067798D01*
X0059055Y0068296D02*
X0025189Y0068296D01*
X0025522Y0068795D02*
X0059055Y0068795D01*
X0059055Y0069293D02*
X0025854Y0069293D01*
X0026187Y0069792D02*
X0059055Y0069792D01*
X0059055Y0070290D02*
X0026519Y0070290D01*
X0026851Y0070789D02*
X0059055Y0070789D01*
X0059055Y0071287D02*
X0027184Y0071287D01*
X0027516Y0071786D02*
X0059055Y0071786D01*
X0059055Y0072284D02*
X0027914Y0072284D01*
X0028322Y0072783D02*
X0059055Y0072783D01*
X0059055Y0073281D02*
X0028730Y0073281D01*
X0029138Y0073780D02*
X0059055Y0073780D01*
X0059055Y0074278D02*
X0029545Y0074278D01*
X0029953Y0074777D02*
X0059055Y0074777D01*
X0059055Y0075275D02*
X0030361Y0075275D01*
X0030769Y0075774D02*
X0059055Y0075774D01*
X0059055Y0076272D02*
X0031214Y0076272D01*
X0031823Y0076771D02*
X0059055Y0076771D01*
X0059055Y0077269D02*
X0032432Y0077269D01*
X0033042Y0077768D02*
X0059055Y0077768D01*
X0059055Y0078266D02*
X0033651Y0078266D01*
X0034260Y0078765D02*
X0059055Y0078765D01*
X0059055Y0079263D02*
X0034870Y0079263D01*
X0035489Y0079762D02*
X0059055Y0079762D01*
X0059055Y0080260D02*
X0036237Y0080260D01*
X0036985Y0080759D02*
X0059055Y0080759D01*
X0059055Y0081257D02*
X0037732Y0081257D01*
X0038480Y0081756D02*
X0059055Y0081756D01*
X0059055Y0082254D02*
X0039228Y0082254D01*
X0039976Y0082753D02*
X0059055Y0082753D01*
X0059055Y0083251D02*
X0040724Y0083251D01*
X0041604Y0083750D02*
X0059055Y0083750D01*
X0059055Y0084248D02*
X0043100Y0084248D01*
X0044595Y0084747D02*
X0059055Y0084747D01*
X0059055Y0085245D02*
X0046091Y0085245D01*
X0047700Y0085744D02*
X0059055Y0085744D01*
X0059055Y0086242D02*
X0049694Y0086242D01*
X0051688Y0086741D02*
X0059055Y0086741D01*
X0059055Y0087239D02*
X0053682Y0087239D01*
X0059055Y0008858D02*
X0062992Y0008858D01*
X0070866Y0010827D01*
X0076772Y0012795D01*
X0082677Y0016732D01*
X0087008Y0020276D01*
X0090551Y0024606D01*
X0094488Y0030512D01*
X0096457Y0036417D01*
X0096457Y0048228D01*
X0059055Y0048228D01*
X0059055Y0008858D01*
X0059055Y0008973D02*
X0063452Y0008973D01*
X0065446Y0009472D02*
X0059055Y0009472D01*
X0059055Y0009970D02*
X0067440Y0009970D01*
X0069434Y0010469D02*
X0059055Y0010469D01*
X0059055Y0010967D02*
X0071288Y0010967D01*
X0072783Y0011466D02*
X0059055Y0011466D01*
X0059055Y0011964D02*
X0074279Y0011964D01*
X0075774Y0012463D02*
X0059055Y0012463D01*
X0059055Y0012961D02*
X0077021Y0012961D01*
X0077768Y0013460D02*
X0059055Y0013460D01*
X0059055Y0013958D02*
X0078516Y0013958D01*
X0079264Y0014457D02*
X0059055Y0014457D01*
X0059055Y0014955D02*
X0080012Y0014955D01*
X0080760Y0015454D02*
X0059055Y0015454D01*
X0059055Y0015952D02*
X0081507Y0015952D01*
X0082255Y0016451D02*
X0059055Y0016451D01*
X0059055Y0016949D02*
X0082943Y0016949D01*
X0083552Y0017448D02*
X0059055Y0017448D01*
X0059055Y0017946D02*
X0084161Y0017946D01*
X0084770Y0018445D02*
X0059055Y0018445D01*
X0059055Y0018943D02*
X0085380Y0018943D01*
X0085989Y0019442D02*
X0059055Y0019442D01*
X0059055Y0019940D02*
X0086598Y0019940D01*
X0087142Y0020439D02*
X0059055Y0020439D01*
X0059055Y0020937D02*
X0087549Y0020937D01*
X0087957Y0021436D02*
X0059055Y0021436D01*
X0059055Y0021934D02*
X0088365Y0021934D01*
X0088773Y0022433D02*
X0059055Y0022433D01*
X0059055Y0022932D02*
X0089181Y0022932D01*
X0089589Y0023430D02*
X0059055Y0023430D01*
X0059055Y0023929D02*
X0089997Y0023929D01*
X0090405Y0024427D02*
X0059055Y0024427D01*
X0059055Y0024926D02*
X0090764Y0024926D01*
X0091096Y0025424D02*
X0059055Y0025424D01*
X0059055Y0025923D02*
X0091429Y0025923D01*
X0091761Y0026421D02*
X0059055Y0026421D01*
X0059055Y0026920D02*
X0092093Y0026920D01*
X0092426Y0027418D02*
X0059055Y0027418D01*
X0059055Y0027917D02*
X0092758Y0027917D01*
X0093090Y0028415D02*
X0059055Y0028415D01*
X0059055Y0028914D02*
X0093423Y0028914D01*
X0093755Y0029412D02*
X0059055Y0029412D01*
X0059055Y0029911D02*
X0094087Y0029911D01*
X0094420Y0030409D02*
X0059055Y0030409D01*
X0059055Y0030908D02*
X0094620Y0030908D01*
X0094786Y0031406D02*
X0059055Y0031406D01*
X0059055Y0031905D02*
X0094952Y0031905D01*
X0095119Y0032403D02*
X0059055Y0032403D01*
X0059055Y0032902D02*
X0095285Y0032902D01*
X0095451Y0033400D02*
X0059055Y0033400D01*
X0059055Y0033899D02*
X0095617Y0033899D01*
X0095783Y0034397D02*
X0059055Y0034397D01*
X0059055Y0034896D02*
X0095950Y0034896D01*
X0096116Y0035394D02*
X0059055Y0035394D01*
X0059055Y0035893D02*
X0096282Y0035893D01*
X0096448Y0036391D02*
X0059055Y0036391D01*
X0059055Y0036890D02*
X0096457Y0036890D01*
X0096457Y0037388D02*
X0059055Y0037388D01*
X0059055Y0037887D02*
X0096457Y0037887D01*
X0096457Y0038385D02*
X0059055Y0038385D01*
X0059055Y0038884D02*
X0096457Y0038884D01*
X0096457Y0039382D02*
X0059055Y0039382D01*
X0059055Y0039881D02*
X0096457Y0039881D01*
X0096457Y0040379D02*
X0059055Y0040379D01*
X0059055Y0040878D02*
X0096457Y0040878D01*
X0096457Y0041376D02*
X0059055Y0041376D01*
X0059055Y0041875D02*
X0096457Y0041875D01*
X0096457Y0042373D02*
X0059055Y0042373D01*
X0059055Y0042872D02*
X0096457Y0042872D01*
X0096457Y0043370D02*
X0059055Y0043370D01*
X0059055Y0043869D02*
X0096457Y0043869D01*
X0096457Y0044368D02*
X0059055Y0044368D01*
X0059055Y0044866D02*
X0096457Y0044866D01*
X0096457Y0045365D02*
X0059055Y0045365D01*
X0059055Y0045863D02*
X0096457Y0045863D01*
X0096457Y0046362D02*
X0059055Y0046362D01*
X0059055Y0046860D02*
X0096457Y0046860D01*
X0096457Y0047359D02*
X0059055Y0047359D01*
X0059055Y0047857D02*
X0096457Y0047857D01*
X0096457Y0048228D02*
X0096457Y0060039D01*
X0094488Y0065945D01*
X0090551Y0071850D01*
X0087008Y0076181D01*
X0082677Y0079724D01*
X0076772Y0083661D01*
X0070866Y0085630D01*
X0062992Y0087598D01*
X0059055Y0087598D01*
X0059055Y0048228D01*
X0096457Y0048228D01*
X0096457Y0048356D02*
X0059055Y0048356D01*
X0059055Y0048854D02*
X0096457Y0048854D01*
X0096457Y0049353D02*
X0059055Y0049353D01*
X0059055Y0049851D02*
X0096457Y0049851D01*
X0096457Y0050350D02*
X0059055Y0050350D01*
X0059055Y0050848D02*
X0096457Y0050848D01*
X0096457Y0051347D02*
X0059055Y0051347D01*
X0059055Y0051845D02*
X0096457Y0051845D01*
X0096457Y0052344D02*
X0059055Y0052344D01*
X0059055Y0052842D02*
X0096457Y0052842D01*
X0096457Y0053341D02*
X0059055Y0053341D01*
X0059055Y0053839D02*
X0096457Y0053839D01*
X0096457Y0054338D02*
X0059055Y0054338D01*
X0059055Y0054836D02*
X0096457Y0054836D01*
X0096457Y0055335D02*
X0059055Y0055335D01*
X0059055Y0055833D02*
X0096457Y0055833D01*
X0096457Y0056332D02*
X0059055Y0056332D01*
X0059055Y0056830D02*
X0096457Y0056830D01*
X0096457Y0057329D02*
X0059055Y0057329D01*
X0059055Y0057827D02*
X0096457Y0057827D01*
X0096457Y0058326D02*
X0059055Y0058326D01*
X0059055Y0058824D02*
X0096457Y0058824D01*
X0096457Y0059323D02*
X0059055Y0059323D01*
X0059055Y0059821D02*
X0096457Y0059821D01*
X0096363Y0060320D02*
X0059055Y0060320D01*
X0059055Y0060818D02*
X0096197Y0060818D01*
X0096031Y0061317D02*
X0059055Y0061317D01*
X0059055Y0061815D02*
X0095865Y0061815D01*
X0095699Y0062314D02*
X0059055Y0062314D01*
X0059055Y0062812D02*
X0095532Y0062812D01*
X0095366Y0063311D02*
X0059055Y0063311D01*
X0059055Y0063809D02*
X0095200Y0063809D01*
X0095034Y0064308D02*
X0059055Y0064308D01*
X0059055Y0064806D02*
X0094868Y0064806D01*
X0094701Y0065305D02*
X0059055Y0065305D01*
X0059055Y0065803D02*
X0094535Y0065803D01*
X0094250Y0066302D02*
X0059055Y0066302D01*
X0059055Y0066801D02*
X0093918Y0066801D01*
X0093585Y0067299D02*
X0059055Y0067299D01*
X0059055Y0067798D02*
X0093253Y0067798D01*
X0092921Y0068296D02*
X0059055Y0068296D01*
X0059055Y0068795D02*
X0092588Y0068795D01*
X0092256Y0069293D02*
X0059055Y0069293D01*
X0059055Y0069792D02*
X0091924Y0069792D01*
X0091591Y0070290D02*
X0059055Y0070290D01*
X0059055Y0070789D02*
X0091259Y0070789D01*
X0090927Y0071287D02*
X0059055Y0071287D01*
X0059055Y0071786D02*
X0090594Y0071786D01*
X0090196Y0072284D02*
X0059055Y0072284D01*
X0059055Y0072783D02*
X0089788Y0072783D01*
X0089381Y0073281D02*
X0059055Y0073281D01*
X0059055Y0073780D02*
X0088973Y0073780D01*
X0088565Y0074278D02*
X0059055Y0074278D01*
X0059055Y0074777D02*
X0088157Y0074777D01*
X0087749Y0075275D02*
X0059055Y0075275D01*
X0059055Y0075774D02*
X0087341Y0075774D01*
X0086896Y0076272D02*
X0059055Y0076272D01*
X0059055Y0076771D02*
X0086287Y0076771D01*
X0085678Y0077269D02*
X0059055Y0077269D01*
X0059055Y0077768D02*
X0085069Y0077768D01*
X0084459Y0078266D02*
X0059055Y0078266D01*
X0059055Y0078765D02*
X0083850Y0078765D01*
X0083241Y0079263D02*
X0059055Y0079263D01*
X0059055Y0079762D02*
X0082621Y0079762D01*
X0081873Y0080260D02*
X0059055Y0080260D01*
X0059055Y0080759D02*
X0081126Y0080759D01*
X0080378Y0081257D02*
X0059055Y0081257D01*
X0059055Y0081756D02*
X0079630Y0081756D01*
X0078882Y0082254D02*
X0059055Y0082254D01*
X0059055Y0082753D02*
X0078134Y0082753D01*
X0077387Y0083251D02*
X0059055Y0083251D01*
X0059055Y0083750D02*
X0076506Y0083750D01*
X0075011Y0084248D02*
X0059055Y0084248D01*
X0059055Y0084747D02*
X0073515Y0084747D01*
X0072020Y0085245D02*
X0059055Y0085245D01*
X0059055Y0085744D02*
X0070410Y0085744D01*
X0068416Y0086242D02*
X0059055Y0086242D01*
X0059055Y0086741D02*
X0066422Y0086741D01*
X0064428Y0087239D02*
X0059055Y0087239D01*
X0021654Y0048228D02*
X0021654Y0036417D01*
X0023622Y0030512D01*
X0027559Y0024606D01*
X0031102Y0020276D01*
X0035433Y0016732D01*
X0041339Y0012795D01*
X0047244Y0010827D01*
X0055118Y0008858D01*
X0059055Y0008858D01*
X0059055Y0048228D01*
X0021654Y0048228D01*
X0054658Y0008973D02*
X0059055Y0008973D01*
X0059055Y0009472D02*
X0052664Y0009472D01*
X0050670Y0009970D02*
X0059055Y0009970D01*
X0059055Y0010469D02*
X0048676Y0010469D01*
X0046823Y0010967D02*
X0059055Y0010967D01*
X0059055Y0011466D02*
X0045327Y0011466D01*
X0043832Y0011964D02*
X0059055Y0011964D01*
X0059055Y0012463D02*
X0042336Y0012463D01*
X0041090Y0012961D02*
X0059055Y0012961D01*
X0059055Y0013460D02*
X0040342Y0013460D01*
X0039594Y0013958D02*
X0059055Y0013958D01*
X0059055Y0014457D02*
X0038846Y0014457D01*
X0038098Y0014955D02*
X0059055Y0014955D01*
X0059055Y0015454D02*
X0037351Y0015454D01*
X0036603Y0015952D02*
X0059055Y0015952D01*
X0059055Y0016451D02*
X0035855Y0016451D01*
X0035168Y0016949D02*
X0059055Y0016949D01*
X0059055Y0017448D02*
X0034558Y0017448D01*
X0033949Y0017946D02*
X0059055Y0017946D01*
X0059055Y0018445D02*
X0033340Y0018445D01*
X0032731Y0018943D02*
X0059055Y0018943D01*
X0059055Y0019442D02*
X0032121Y0019442D01*
X0031512Y0019940D02*
X0059055Y0019940D01*
X0059055Y0020439D02*
X0030969Y0020439D01*
X0030561Y0020937D02*
X0059055Y0020937D01*
X0059055Y0021436D02*
X0030153Y0021436D01*
X0029745Y0021934D02*
X0059055Y0021934D01*
X0059055Y0022433D02*
X0029337Y0022433D01*
X0028929Y0022932D02*
X0059055Y0022932D01*
X0059055Y0023430D02*
X0028521Y0023430D01*
X0028114Y0023929D02*
X0059055Y0023929D01*
X0059055Y0024427D02*
X0027706Y0024427D01*
X0027346Y0024926D02*
X0059055Y0024926D01*
X0059055Y0025424D02*
X0027014Y0025424D01*
X0026682Y0025923D02*
X0059055Y0025923D01*
X0059055Y0026421D02*
X0026349Y0026421D01*
X0026017Y0026920D02*
X0059055Y0026920D01*
X0059055Y0027418D02*
X0025684Y0027418D01*
X0025352Y0027917D02*
X0059055Y0027917D01*
X0059055Y0028415D02*
X0025020Y0028415D01*
X0024687Y0028914D02*
X0059055Y0028914D01*
X0059055Y0029412D02*
X0024355Y0029412D01*
X0024023Y0029911D02*
X0059055Y0029911D01*
X0059055Y0030409D02*
X0023690Y0030409D01*
X0023490Y0030908D02*
X0059055Y0030908D01*
X0059055Y0031406D02*
X0023324Y0031406D01*
X0023158Y0031905D02*
X0059055Y0031905D01*
X0059055Y0032403D02*
X0022992Y0032403D01*
X0022825Y0032902D02*
X0059055Y0032902D01*
X0059055Y0033400D02*
X0022659Y0033400D01*
X0022493Y0033899D02*
X0059055Y0033899D01*
X0059055Y0034397D02*
X0022327Y0034397D01*
X0022161Y0034896D02*
X0059055Y0034896D01*
X0059055Y0035394D02*
X0021995Y0035394D01*
X0021828Y0035893D02*
X0059055Y0035893D01*
X0059055Y0036391D02*
X0021662Y0036391D01*
X0021654Y0036890D02*
X0059055Y0036890D01*
X0059055Y0037388D02*
X0021654Y0037388D01*
X0021654Y0037887D02*
X0059055Y0037887D01*
X0059055Y0038385D02*
X0021654Y0038385D01*
X0021654Y0038884D02*
X0059055Y0038884D01*
X0059055Y0039382D02*
X0021654Y0039382D01*
X0021654Y0039881D02*
X0059055Y0039881D01*
X0059055Y0040379D02*
X0021654Y0040379D01*
X0021654Y0040878D02*
X0059055Y0040878D01*
X0059055Y0041376D02*
X0021654Y0041376D01*
X0021654Y0041875D02*
X0059055Y0041875D01*
X0059055Y0042373D02*
X0021654Y0042373D01*
X0021654Y0042872D02*
X0059055Y0042872D01*
X0059055Y0043370D02*
X0021654Y0043370D01*
X0021654Y0043869D02*
X0059055Y0043869D01*
X0059055Y0044368D02*
X0021654Y0044368D01*
X0021654Y0044866D02*
X0059055Y0044866D01*
X0059055Y0045365D02*
X0021654Y0045365D01*
X0021654Y0045863D02*
X0059055Y0045863D01*
X0059055Y0046362D02*
X0021654Y0046362D01*
X0021654Y0046860D02*
X0059055Y0046860D01*
X0059055Y0047359D02*
X0021654Y0047359D01*
X0021654Y0047857D02*
X0059055Y0047857D01*
D16*
X0085039Y0163386D03*
X0096063Y0163386D03*
D17*
X0082677Y0201378D03*
X0082677Y0208071D03*
X0092520Y0201378D03*
X0092520Y0208071D03*
X0100984Y0187008D03*
X0107677Y0187008D03*
X0045276Y0234843D03*
X0045276Y0241535D03*
X0100984Y0194882D03*
X0107677Y0194882D03*
X0107677Y0240157D03*
X0100984Y0240157D03*
X0107677Y0224409D03*
X0100984Y0224409D03*
X0029528Y0193799D03*
X0029528Y0187106D03*
X0081693Y0124606D03*
X0081693Y0131299D03*
D18*
X0082480Y0194685D03*
X0082480Y0190945D03*
X0082480Y0187205D03*
X0092717Y0187205D03*
X0092717Y0194685D03*
D19*
X0057087Y0102362D03*
X0047244Y0102362D03*
D20*
X0082677Y0226625D03*
X0082677Y0223425D03*
X0082677Y0220225D03*
D21*
X0007874Y0111220D03*
X0013780Y0111220D03*
X0019685Y0111220D03*
X0025591Y0111220D03*
X0031496Y0111220D03*
X0037402Y0111220D03*
X0043307Y0111220D03*
X0049213Y0111220D03*
X0055118Y0111220D03*
X0061024Y0111220D03*
X0061024Y0176181D03*
X0055118Y0176181D03*
X0049213Y0176181D03*
X0043307Y0176181D03*
X0037402Y0176181D03*
X0031496Y0176181D03*
X0025591Y0176181D03*
D22*
X0069882Y0120079D03*
X0069882Y0125984D03*
X0069882Y0131890D03*
X0069882Y0137795D03*
X0069882Y0143701D03*
X0069882Y0149606D03*
X0069882Y0155512D03*
X0069882Y0161417D03*
X0069882Y0167323D03*
D23*
X0061024Y0120079D03*
X0061024Y0167323D03*
D24*
X0100591Y0205512D03*
X0104331Y0205512D03*
X0108071Y0205512D03*
X0108071Y0215748D03*
X0100591Y0215748D03*
D25*
X0063898Y0241535D03*
X0063898Y0234843D03*
X0054213Y0241535D03*
X0054213Y0234843D03*
D26*
X0009764Y0226535D03*
D27*
X0019764Y0226535D03*
X0009764Y0216535D03*
X0019764Y0216535D03*
X0009764Y0206535D03*
X0019764Y0206535D03*
D28*
X0078740Y0244094D03*
X0092028Y0232283D03*
X0102854Y0175689D03*
D29*
G36*
X0013126Y0071986D02*
X0002427Y0080049D01*
X0012858Y0093892D01*
X0023557Y0085829D01*
X0013126Y0071986D01*
G37*
G36*
X0105252Y0002564D02*
X0094553Y0010627D01*
X0104984Y0024470D01*
X0115683Y0016407D01*
X0105252Y0002564D01*
G37*
D30*
X0110630Y0137264D03*
X0090157Y0137264D03*
X0110630Y0132264D03*
X0110630Y0142264D03*
X0110630Y0147264D03*
X0090157Y0132264D03*
X0090157Y0142264D03*
X0090157Y0147264D03*
D31*
X0070177Y0198819D03*
X0070177Y0208661D03*
X0070177Y0218504D03*
X0047933Y0198819D03*
X0047933Y0208661D03*
X0047933Y0218504D03*
D32*
X0059055Y0202756D03*
X0059055Y0214567D03*
D33*
X0101870Y0106841D03*
X0099902Y0106841D03*
X0097933Y0106841D03*
X0095965Y0106841D03*
X0095965Y0100837D03*
X0097933Y0100837D03*
X0099902Y0100837D03*
X0101870Y0100837D03*
D34*
X0095915Y0104823D03*
X0101919Y0102854D03*
X0101919Y0104823D03*
X0095915Y0102854D03*
M02*
