G75*
%MOIN*%
%OFA0B0*%
%FSLAX25Y25*%
%IPPOS*%
%LPD*%
%AMOC8*
5,1,8,0,0,1.08239X$1,22.5*
%
%ADD10R,0.00100X0.01100*%
%ADD11R,0.00100X0.01200*%
%ADD12R,0.00100X0.01300*%
%ADD13R,0.00100X0.01400*%
%ADD14R,0.00100X0.01500*%
%ADD15R,0.00100X0.01000*%
%ADD16R,0.00100X0.00400*%
%ADD17R,0.00100X0.00200*%
%ADD18R,0.00100X0.00800*%
%ADD19R,0.00100X0.00900*%
%ADD20R,0.00100X0.19900*%
%ADD21R,0.00100X0.02800*%
%ADD22R,0.00100X0.11400*%
%ADD23R,0.00100X0.01700*%
%ADD24R,0.00100X0.01600*%
%ADD25R,0.00100X0.02900*%
%ADD26R,0.00100X0.04200*%
%ADD27R,0.00100X0.04100*%
%ADD28R,0.00100X0.02000*%
%ADD29R,0.00100X0.01800*%
%ADD30R,0.00100X0.02500*%
%ADD31R,0.00100X0.02400*%
%ADD32R,0.00100X0.02200*%
%ADD33R,0.00100X0.02600*%
%ADD34R,0.00100X0.02300*%
%ADD35R,0.00100X0.02700*%
%ADD36R,0.00100X0.00700*%
%ADD37R,0.00100X0.02100*%
%ADD38R,0.00100X0.01900*%
%ADD39R,0.00100X0.04000*%
%ADD40R,0.00100X0.00600*%
%ADD41R,0.00100X0.00100*%
%ADD42R,0.00100X0.19700*%
%ADD43R,0.00100X0.11300*%
%ADD44R,0.00100X0.11000*%
%ADD45R,0.00100X0.19800*%
%ADD46R,0.00100X0.14300*%
%ADD47R,0.00100X0.14200*%
%ADD48C,0.00600*%
%ADD49R,0.00200X0.00800*%
%ADD50R,0.00200X0.01000*%
%ADD51R,0.00200X0.01200*%
%ADD52R,0.00200X0.01400*%
%ADD53R,0.00200X0.01600*%
%ADD54R,0.00200X0.00600*%
%ADD55R,0.00200X0.02000*%
%ADD56R,0.00200X0.01800*%
%ADD57R,0.00200X0.02800*%
%ADD58R,0.00200X0.02400*%
%ADD59R,0.00200X0.02600*%
%ADD60R,0.00200X0.03400*%
%ADD61R,0.00200X0.03000*%
%ADD62R,0.00200X0.03600*%
%ADD63R,0.00200X0.03200*%
%ADD64R,0.00200X0.04000*%
%ADD65R,0.00200X0.00400*%
%ADD66R,0.00200X0.00200*%
%ADD67R,0.00200X0.03800*%
%ADD68R,0.00200X0.02200*%
%ADD69R,0.00200X0.04200*%
%ADD70R,0.00200X0.06400*%
%ADD71R,0.00200X0.06600*%
%ADD72R,0.00200X0.06200*%
%ADD73R,0.00200X0.06000*%
%ADD74R,0.00200X0.05600*%
%ADD75R,0.00200X0.04600*%
%ADD76R,0.00200X0.04400*%
%ADD77R,0.00200X0.05000*%
%ADD78R,0.00200X0.05200*%
%ADD79R,0.00200X0.04800*%
%ADD80C,0.01200*%
%ADD81C,0.01600*%
%ADD82C,0.00800*%
%ADD83C,0.00500*%
%ADD84C,0.01000*%
D10*
X0114058Y0135377D03*
X0113058Y0134777D03*
X0112958Y0134777D03*
X0112858Y0134777D03*
X0112758Y0128377D03*
X0112577Y0179264D03*
X0111358Y0125377D03*
X0111258Y0123877D03*
X0111258Y0126877D03*
X0111258Y0131177D03*
X0111258Y0136977D03*
X0111258Y0138577D03*
X0108677Y0178064D03*
X0108558Y0135277D03*
X0108177Y0171664D03*
X0107958Y0134177D03*
X0107958Y0135677D03*
X0107977Y0174264D03*
X0107558Y0128177D03*
X0107577Y0171564D03*
X0106758Y0131177D03*
X0106758Y0138577D03*
X0106777Y0181764D03*
X0106658Y0123877D03*
X0106658Y0132677D03*
X0106658Y0137077D03*
X0106677Y0174264D03*
X0106677Y0175864D03*
X0106677Y0180264D03*
X0106058Y0124277D03*
X0106058Y0129977D03*
X0106077Y0175364D03*
X0104477Y0177064D03*
X0102677Y0181764D03*
X0102677Y0183364D03*
D11*
X0113958Y0135327D03*
X0113258Y0120427D03*
X0113158Y0129427D03*
X0113158Y0138027D03*
X0113177Y0178114D03*
X0112777Y0180714D03*
X0112658Y0137027D03*
X0112658Y0138527D03*
X0112677Y0177714D03*
X0112258Y0117127D03*
X0112158Y0129727D03*
X0112177Y0182014D03*
X0111258Y0132627D03*
X0111277Y0179214D03*
X0110758Y0125827D03*
X0108558Y0127927D03*
X0108577Y0175314D03*
X0108158Y0126827D03*
X0108177Y0170214D03*
X0106658Y0125327D03*
X0106658Y0138527D03*
X0106677Y0183314D03*
X0106158Y0131627D03*
X0104377Y0177114D03*
X0103977Y0177214D03*
X0102077Y0180614D03*
X0102077Y0182214D03*
D12*
X0113858Y0135277D03*
X0113258Y0117677D03*
X0113177Y0181764D03*
X0112758Y0134777D03*
X0112658Y0134777D03*
X0112677Y0179164D03*
X0111658Y0128477D03*
X0111558Y0118277D03*
X0110758Y0124177D03*
X0110758Y0131577D03*
X0110758Y0138077D03*
X0110658Y0120477D03*
X0108577Y0171264D03*
X0106158Y0124277D03*
X0106158Y0129977D03*
X0106158Y0137377D03*
X0106177Y0175364D03*
X0106177Y0182264D03*
X0106077Y0178064D03*
X0104277Y0177164D03*
X0104177Y0177164D03*
X0104077Y0177164D03*
D13*
X0113758Y0135227D03*
X0113658Y0135227D03*
X0112558Y0134827D03*
X0112058Y0129527D03*
X0112077Y0181814D03*
X0111677Y0180814D03*
X0111258Y0125327D03*
X0110858Y0125827D03*
X0110777Y0178114D03*
X0110658Y0117727D03*
X0110658Y0129027D03*
X0110677Y0181314D03*
X0108458Y0127927D03*
X0108477Y0171314D03*
X0107458Y0128027D03*
X0106658Y0131127D03*
X0106677Y0181714D03*
X0106258Y0131627D03*
X0106277Y0182214D03*
X0106177Y0180614D03*
X0102177Y0180614D03*
X0102177Y0182214D03*
D14*
X0113558Y0135177D03*
X0113058Y0129477D03*
X0113058Y0138077D03*
X0112458Y0134777D03*
X0112358Y0134777D03*
X0110858Y0124177D03*
X0110858Y0131577D03*
X0108577Y0178064D03*
X0108458Y0135277D03*
X0108477Y0175364D03*
X0107477Y0171364D03*
X0107058Y0126977D03*
X0107077Y0170364D03*
X0106258Y0124277D03*
X0106258Y0129977D03*
X0106277Y0180564D03*
X0106058Y0127477D03*
X0106077Y0170864D03*
D15*
X0113458Y0134927D03*
X0113358Y0134827D03*
X0113258Y0129427D03*
X0113277Y0178114D03*
X0112758Y0118427D03*
X0112758Y0129827D03*
X0112777Y0182214D03*
X0112658Y0119727D03*
X0112677Y0180614D03*
X0112558Y0136927D03*
X0112558Y0138627D03*
X0112577Y0177614D03*
X0112458Y0136927D03*
X0112477Y0177514D03*
X0112477Y0179314D03*
X0112358Y0138727D03*
X0112377Y0179314D03*
X0112277Y0182214D03*
X0111577Y0180614D03*
X0111458Y0132727D03*
X0111477Y0179314D03*
X0111358Y0126927D03*
X0111358Y0131127D03*
X0111358Y0132727D03*
X0111358Y0136927D03*
X0111358Y0138627D03*
X0111377Y0179314D03*
X0111258Y0121227D03*
X0111277Y0177614D03*
X0111158Y0128327D03*
X0111158Y0129727D03*
X0110758Y0135727D03*
X0110658Y0124227D03*
X0110658Y0125827D03*
X0110658Y0131527D03*
X0110658Y0138027D03*
X0110677Y0178114D03*
X0108577Y0172914D03*
X0108158Y0128327D03*
X0108058Y0126727D03*
X0108077Y0170114D03*
X0108077Y0177314D03*
X0108077Y0178814D03*
X0107958Y0126727D03*
X0107977Y0175914D03*
X0107858Y0134127D03*
X0107877Y0174214D03*
X0107677Y0171714D03*
X0107677Y0176014D03*
X0106958Y0126727D03*
X0106977Y0170114D03*
X0106977Y0176014D03*
X0106858Y0138627D03*
X0106877Y0183414D03*
X0106758Y0123827D03*
X0106758Y0125427D03*
X0106758Y0132727D03*
X0106777Y0174214D03*
X0106777Y0175914D03*
X0106777Y0183414D03*
X0106658Y0129627D03*
X0106577Y0177414D03*
X0106577Y0178814D03*
X0106058Y0131627D03*
X0106058Y0137427D03*
X0106077Y0180614D03*
X0106077Y0182214D03*
X0105977Y0170814D03*
X0105077Y0172914D03*
X0104577Y0177014D03*
X0102777Y0183414D03*
X0102677Y0180214D03*
X0101977Y0180614D03*
D16*
X0113358Y0117727D03*
X0113358Y0120427D03*
X0101877Y0180614D03*
X0101877Y0182214D03*
D17*
X0113358Y0138027D03*
D18*
X0113258Y0122527D03*
X0113258Y0123727D03*
X0113258Y0125427D03*
X0113258Y0127027D03*
X0113258Y0128127D03*
X0113258Y0131027D03*
X0113258Y0132827D03*
X0113258Y0136827D03*
X0113277Y0179314D03*
X0113277Y0180514D03*
X0113277Y0183414D03*
X0113158Y0122527D03*
X0113158Y0123727D03*
X0113158Y0127027D03*
X0113158Y0136827D03*
X0113177Y0180514D03*
X0113058Y0122527D03*
X0113058Y0123727D03*
X0113058Y0127027D03*
X0113058Y0128227D03*
X0113058Y0136827D03*
X0112958Y0122527D03*
X0112958Y0123727D03*
X0112958Y0127027D03*
X0112858Y0122527D03*
X0112858Y0123727D03*
X0112858Y0127027D03*
X0112758Y0122527D03*
X0112758Y0123727D03*
X0112758Y0127027D03*
X0112658Y0116927D03*
X0112658Y0122527D03*
X0112658Y0123727D03*
X0112658Y0127027D03*
X0112658Y0129927D03*
X0112558Y0116927D03*
X0112558Y0122527D03*
X0112558Y0123727D03*
X0112558Y0127027D03*
X0112558Y0129927D03*
X0112577Y0182314D03*
X0112458Y0116927D03*
X0112458Y0118627D03*
X0112458Y0122527D03*
X0112458Y0123727D03*
X0112458Y0127027D03*
X0112458Y0128227D03*
X0112458Y0129927D03*
X0112477Y0182314D03*
X0112358Y0122527D03*
X0112358Y0123727D03*
X0112358Y0127027D03*
X0112358Y0128227D03*
X0112358Y0129927D03*
X0112258Y0122527D03*
X0112258Y0123727D03*
X0112258Y0127027D03*
X0112258Y0128227D03*
X0112158Y0122527D03*
X0112158Y0123727D03*
X0112158Y0127027D03*
X0112158Y0128227D03*
X0112158Y0134327D03*
X0112158Y0135227D03*
X0112158Y0136827D03*
X0112058Y0122527D03*
X0112058Y0123727D03*
X0112058Y0127027D03*
X0112058Y0128227D03*
X0112058Y0134327D03*
X0112058Y0135227D03*
X0112058Y0136827D03*
X0112077Y0177414D03*
X0111958Y0122527D03*
X0111958Y0123727D03*
X0111958Y0127027D03*
X0111958Y0135327D03*
X0111958Y0136827D03*
X0111977Y0177414D03*
X0111858Y0122527D03*
X0111858Y0123727D03*
X0111858Y0127027D03*
X0111858Y0134227D03*
X0111858Y0135327D03*
X0111858Y0136827D03*
X0111877Y0177414D03*
X0111758Y0122527D03*
X0111758Y0123727D03*
X0111758Y0127027D03*
X0111758Y0134227D03*
X0111758Y0136827D03*
X0111658Y0122527D03*
X0111658Y0123727D03*
X0111658Y0127027D03*
X0111658Y0134227D03*
X0111658Y0135427D03*
X0111558Y0122527D03*
X0111558Y0123727D03*
X0111558Y0127027D03*
X0111558Y0134127D03*
X0111558Y0135427D03*
X0111458Y0122527D03*
X0111458Y0128227D03*
X0111458Y0134127D03*
X0111358Y0116927D03*
X0111358Y0118527D03*
X0111358Y0122527D03*
X0111358Y0128227D03*
X0111358Y0129827D03*
X0111358Y0134127D03*
X0111377Y0182214D03*
X0111258Y0116927D03*
X0111258Y0118527D03*
X0111258Y0122527D03*
X0111258Y0134027D03*
X0111277Y0182114D03*
X0111158Y0117027D03*
X0111158Y0122527D03*
X0111158Y0134027D03*
X0111058Y0122527D03*
X0110958Y0122527D03*
X0110858Y0122527D03*
X0110858Y0127027D03*
X0110858Y0132827D03*
X0110858Y0133927D03*
X0110758Y0122527D03*
X0110758Y0127027D03*
X0110758Y0132827D03*
X0110758Y0136827D03*
X0110658Y0122527D03*
X0110658Y0127027D03*
X0110658Y0132827D03*
X0110558Y0117727D03*
X0110558Y0129027D03*
X0110158Y0122527D03*
X0110058Y0122527D03*
X0109958Y0122527D03*
X0109858Y0122527D03*
X0109758Y0122527D03*
X0109658Y0122527D03*
X0109558Y0122527D03*
X0109558Y0136827D03*
X0109577Y0179314D03*
X0109577Y0183414D03*
X0108658Y0123727D03*
X0108658Y0126627D03*
X0108658Y0129527D03*
X0108658Y0132827D03*
X0108658Y0134027D03*
X0108658Y0136927D03*
X0108658Y0138627D03*
X0108677Y0170014D03*
X0108677Y0172914D03*
X0108677Y0174114D03*
X0108677Y0180114D03*
X0108677Y0181814D03*
X0108677Y0183414D03*
X0108558Y0126627D03*
X0108558Y0129527D03*
X0108558Y0132827D03*
X0108558Y0134027D03*
X0108577Y0170014D03*
X0108458Y0123727D03*
X0108458Y0129527D03*
X0108458Y0132827D03*
X0108458Y0134027D03*
X0108458Y0136927D03*
X0108477Y0172914D03*
X0108477Y0174114D03*
X0108358Y0123727D03*
X0108358Y0129527D03*
X0108358Y0132827D03*
X0108358Y0136927D03*
X0108377Y0172914D03*
X0108258Y0123727D03*
X0108258Y0129527D03*
X0108258Y0132827D03*
X0108258Y0136927D03*
X0108277Y0172914D03*
X0108158Y0123727D03*
X0108158Y0129527D03*
X0108158Y0132827D03*
X0108158Y0136927D03*
X0108177Y0172914D03*
X0108058Y0123727D03*
X0108058Y0129527D03*
X0108058Y0132827D03*
X0108058Y0136927D03*
X0108077Y0172914D03*
X0107958Y0123727D03*
X0107958Y0128427D03*
X0107958Y0129527D03*
X0107958Y0132827D03*
X0107958Y0136927D03*
X0107977Y0172914D03*
X0107858Y0123727D03*
X0107858Y0128427D03*
X0107858Y0129527D03*
X0107858Y0132827D03*
X0107858Y0136927D03*
X0107877Y0171814D03*
X0107877Y0172914D03*
X0107758Y0123727D03*
X0107758Y0129527D03*
X0107758Y0132827D03*
X0107758Y0136927D03*
X0107777Y0172914D03*
X0107658Y0123727D03*
X0107658Y0129527D03*
X0107658Y0132827D03*
X0107658Y0136927D03*
X0107677Y0172914D03*
X0107677Y0179014D03*
X0107558Y0123727D03*
X0107558Y0129527D03*
X0107558Y0132827D03*
X0107558Y0136927D03*
X0107577Y0172914D03*
X0107577Y0174114D03*
X0107577Y0179014D03*
X0107458Y0123727D03*
X0107458Y0129527D03*
X0107458Y0132827D03*
X0107458Y0134027D03*
X0107458Y0136927D03*
X0107477Y0172914D03*
X0107477Y0174114D03*
X0107358Y0123727D03*
X0107358Y0129527D03*
X0107358Y0132827D03*
X0107358Y0136927D03*
X0107377Y0172914D03*
X0107377Y0174114D03*
X0107258Y0123727D03*
X0107258Y0129527D03*
X0107258Y0132827D03*
X0107258Y0136927D03*
X0107277Y0172914D03*
X0107277Y0174114D03*
X0107158Y0123727D03*
X0107158Y0129527D03*
X0107158Y0132827D03*
X0107158Y0136927D03*
X0107177Y0172914D03*
X0107177Y0174114D03*
X0107058Y0123727D03*
X0107058Y0129527D03*
X0107058Y0132827D03*
X0107058Y0136927D03*
X0107077Y0172914D03*
X0107077Y0174114D03*
X0107077Y0180114D03*
X0106958Y0129527D03*
X0106958Y0136927D03*
X0106977Y0172914D03*
X0106977Y0179014D03*
X0106858Y0129527D03*
X0106877Y0172914D03*
X0106877Y0177214D03*
X0106758Y0128327D03*
X0106777Y0172914D03*
X0106658Y0126727D03*
X0106677Y0170114D03*
X0106677Y0172914D03*
X0106577Y0172914D03*
X0106477Y0172914D03*
X0106377Y0172914D03*
X0106258Y0125527D03*
X0106258Y0132827D03*
X0106277Y0172914D03*
X0106158Y0125527D03*
X0106158Y0132827D03*
X0106177Y0172914D03*
X0106177Y0174114D03*
X0106058Y0132827D03*
X0106077Y0172914D03*
X0106077Y0174114D03*
X0105977Y0174114D03*
X0105977Y0175314D03*
X0105977Y0178114D03*
X0105877Y0174114D03*
X0105777Y0174114D03*
X0105677Y0174114D03*
X0105577Y0172914D03*
X0105577Y0174114D03*
X0105477Y0172914D03*
X0105477Y0174114D03*
X0105377Y0172914D03*
X0105377Y0174114D03*
X0105277Y0172914D03*
X0105277Y0174114D03*
X0105177Y0172914D03*
X0105177Y0174114D03*
X0104977Y0172914D03*
X0104977Y0174114D03*
X0104577Y0180114D03*
X0104577Y0183414D03*
X0103877Y0177414D03*
X0103777Y0177414D03*
X0103677Y0177414D03*
X0103577Y0177414D03*
X0103477Y0177414D03*
X0103377Y0177414D03*
X0103277Y0177414D03*
X0103177Y0177414D03*
X0103077Y0177414D03*
X0102977Y0177414D03*
X0102877Y0177414D03*
X0102777Y0177414D03*
X0102677Y0177414D03*
X0102577Y0177414D03*
X0101977Y0183414D03*
X0101877Y0177414D03*
X0101777Y0177414D03*
X0101677Y0177414D03*
X0101577Y0177414D03*
X0101577Y0178914D03*
X0101477Y0177414D03*
X0101377Y0177414D03*
X0101277Y0177414D03*
X0101177Y0177414D03*
X0101077Y0177414D03*
D19*
X0113258Y0134777D03*
X0113258Y0138077D03*
X0113277Y0181764D03*
X0113158Y0125377D03*
X0113158Y0128177D03*
X0113158Y0131077D03*
X0113158Y0132777D03*
X0113158Y0134777D03*
X0113177Y0179364D03*
X0113177Y0183464D03*
X0113058Y0125377D03*
X0113058Y0131077D03*
X0113058Y0132777D03*
X0113077Y0183464D03*
X0112958Y0125377D03*
X0112958Y0131077D03*
X0112958Y0132777D03*
X0112977Y0183464D03*
X0112858Y0125377D03*
X0112858Y0131077D03*
X0112858Y0132777D03*
X0112877Y0183464D03*
X0112758Y0116977D03*
X0112758Y0125377D03*
X0112758Y0131077D03*
X0112758Y0132777D03*
X0112777Y0183464D03*
X0112658Y0118477D03*
X0112658Y0121177D03*
X0112658Y0125377D03*
X0112658Y0128277D03*
X0112658Y0131077D03*
X0112658Y0132777D03*
X0112677Y0182264D03*
X0112677Y0183464D03*
X0112558Y0118577D03*
X0112558Y0119677D03*
X0112558Y0121277D03*
X0112558Y0125377D03*
X0112558Y0128277D03*
X0112558Y0131077D03*
X0112558Y0132777D03*
X0112577Y0180564D03*
X0112577Y0183464D03*
X0112458Y0119577D03*
X0112458Y0121277D03*
X0112458Y0125377D03*
X0112458Y0131077D03*
X0112458Y0132777D03*
X0112458Y0138677D03*
X0112477Y0180564D03*
X0112477Y0183464D03*
X0112358Y0116977D03*
X0112358Y0119577D03*
X0112358Y0121377D03*
X0112358Y0125377D03*
X0112358Y0131077D03*
X0112358Y0132777D03*
X0112358Y0136877D03*
X0112377Y0177464D03*
X0112377Y0180564D03*
X0112377Y0182264D03*
X0112377Y0183464D03*
X0112258Y0121377D03*
X0112258Y0125377D03*
X0112258Y0129877D03*
X0112258Y0131077D03*
X0112258Y0132777D03*
X0112258Y0136877D03*
X0112258Y0138777D03*
X0112277Y0177464D03*
X0112277Y0179364D03*
X0112277Y0180564D03*
X0112277Y0183464D03*
X0112158Y0121377D03*
X0112158Y0125377D03*
X0112158Y0131077D03*
X0112158Y0132777D03*
X0112158Y0138777D03*
X0112177Y0177464D03*
X0112177Y0179364D03*
X0112177Y0180564D03*
X0112177Y0183464D03*
X0112058Y0121377D03*
X0112058Y0125377D03*
X0112058Y0131077D03*
X0112058Y0132777D03*
X0112058Y0138777D03*
X0112077Y0179364D03*
X0112077Y0180564D03*
X0112077Y0183464D03*
X0111958Y0121377D03*
X0111958Y0125377D03*
X0111958Y0131077D03*
X0111958Y0132777D03*
X0111958Y0134277D03*
X0111958Y0138777D03*
X0111977Y0179364D03*
X0111977Y0183464D03*
X0111858Y0121377D03*
X0111858Y0125377D03*
X0111858Y0131077D03*
X0111858Y0132777D03*
X0111858Y0138777D03*
X0111877Y0179364D03*
X0111877Y0183464D03*
X0111758Y0121377D03*
X0111758Y0125377D03*
X0111758Y0131077D03*
X0111758Y0132777D03*
X0111758Y0135377D03*
X0111758Y0138777D03*
X0111777Y0177464D03*
X0111777Y0179364D03*
X0111777Y0183464D03*
X0111658Y0121377D03*
X0111658Y0125377D03*
X0111658Y0131077D03*
X0111658Y0132777D03*
X0111658Y0136877D03*
X0111658Y0138777D03*
X0111677Y0177464D03*
X0111677Y0179364D03*
X0111677Y0183464D03*
X0111558Y0121377D03*
X0111558Y0125377D03*
X0111558Y0128277D03*
X0111558Y0131077D03*
X0111558Y0132777D03*
X0111558Y0136877D03*
X0111558Y0138777D03*
X0111577Y0177464D03*
X0111577Y0179364D03*
X0111577Y0183464D03*
X0111458Y0118477D03*
X0111458Y0119577D03*
X0111458Y0121377D03*
X0111458Y0123777D03*
X0111458Y0125377D03*
X0111458Y0126977D03*
X0111458Y0131077D03*
X0111458Y0135477D03*
X0111458Y0136877D03*
X0111458Y0138677D03*
X0111477Y0177464D03*
X0111477Y0180564D03*
X0111477Y0183464D03*
X0111358Y0119677D03*
X0111358Y0121277D03*
X0111358Y0123777D03*
X0111358Y0135477D03*
X0111377Y0177564D03*
X0111377Y0180564D03*
X0111377Y0183464D03*
X0111258Y0119677D03*
X0111258Y0128277D03*
X0111258Y0129777D03*
X0111258Y0135577D03*
X0111277Y0180564D03*
X0111277Y0183464D03*
X0111158Y0118477D03*
X0111158Y0135577D03*
X0111177Y0180664D03*
X0111177Y0182064D03*
X0111177Y0183464D03*
X0111058Y0133977D03*
X0111058Y0135577D03*
X0111077Y0183464D03*
X0110958Y0133977D03*
X0110958Y0135677D03*
X0110977Y0183464D03*
X0110858Y0135677D03*
X0110877Y0183464D03*
X0110758Y0133877D03*
X0110777Y0179364D03*
X0110777Y0183464D03*
X0110658Y0133877D03*
X0110658Y0135777D03*
X0110658Y0136877D03*
X0110677Y0179364D03*
X0110677Y0183464D03*
X0110558Y0136877D03*
X0110577Y0179364D03*
X0110577Y0181364D03*
X0110577Y0183464D03*
X0110458Y0136877D03*
X0110477Y0179364D03*
X0110477Y0183464D03*
X0110358Y0136877D03*
X0110377Y0179364D03*
X0110377Y0183464D03*
X0110258Y0136877D03*
X0110277Y0179364D03*
X0110277Y0183464D03*
X0110158Y0136877D03*
X0110177Y0179364D03*
X0110177Y0183464D03*
X0110058Y0136877D03*
X0110077Y0179364D03*
X0110077Y0183464D03*
X0109958Y0136877D03*
X0109977Y0179364D03*
X0109977Y0183464D03*
X0109858Y0136877D03*
X0109877Y0179364D03*
X0109877Y0183464D03*
X0109758Y0136877D03*
X0109777Y0179364D03*
X0109777Y0183464D03*
X0109658Y0136877D03*
X0109677Y0179364D03*
X0109677Y0183464D03*
X0108658Y0127877D03*
X0108658Y0135277D03*
X0108677Y0171264D03*
X0108677Y0175364D03*
X0108558Y0123777D03*
X0108558Y0125477D03*
X0108558Y0131177D03*
X0108558Y0136877D03*
X0108558Y0138677D03*
X0108577Y0174064D03*
X0108577Y0180164D03*
X0108577Y0181764D03*
X0108577Y0183464D03*
X0108458Y0125477D03*
X0108458Y0126677D03*
X0108458Y0131177D03*
X0108458Y0138677D03*
X0108477Y0170064D03*
X0108477Y0180164D03*
X0108477Y0181764D03*
X0108477Y0183464D03*
X0108358Y0125477D03*
X0108358Y0131177D03*
X0108358Y0138677D03*
X0108377Y0180164D03*
X0108377Y0181764D03*
X0108377Y0183464D03*
X0108258Y0125477D03*
X0108258Y0131177D03*
X0108258Y0138677D03*
X0108277Y0180164D03*
X0108277Y0181764D03*
X0108277Y0183464D03*
X0108158Y0125477D03*
X0108158Y0131177D03*
X0108158Y0138677D03*
X0108177Y0180164D03*
X0108177Y0181764D03*
X0108177Y0183464D03*
X0108058Y0125477D03*
X0108058Y0128377D03*
X0108058Y0131177D03*
X0108058Y0138677D03*
X0108077Y0171764D03*
X0108077Y0180164D03*
X0108077Y0181764D03*
X0108077Y0183464D03*
X0107958Y0125477D03*
X0107958Y0131177D03*
X0107958Y0138677D03*
X0107977Y0170064D03*
X0107977Y0171764D03*
X0107977Y0177164D03*
X0107977Y0178864D03*
X0107977Y0180164D03*
X0107977Y0181764D03*
X0107977Y0183464D03*
X0107858Y0125477D03*
X0107858Y0126677D03*
X0107858Y0131177D03*
X0107858Y0135777D03*
X0107858Y0138677D03*
X0107877Y0170064D03*
X0107877Y0175964D03*
X0107877Y0178964D03*
X0107877Y0180164D03*
X0107877Y0181764D03*
X0107877Y0183464D03*
X0107758Y0125477D03*
X0107758Y0126677D03*
X0107758Y0128377D03*
X0107758Y0131177D03*
X0107758Y0134077D03*
X0107758Y0135777D03*
X0107758Y0138677D03*
X0107777Y0170064D03*
X0107777Y0171764D03*
X0107777Y0174164D03*
X0107777Y0175964D03*
X0107777Y0178964D03*
X0107777Y0180164D03*
X0107777Y0181764D03*
X0107777Y0183464D03*
X0107658Y0125477D03*
X0107658Y0126677D03*
X0107658Y0128377D03*
X0107658Y0131177D03*
X0107658Y0134077D03*
X0107658Y0135777D03*
X0107658Y0138677D03*
X0107677Y0170064D03*
X0107677Y0174164D03*
X0107677Y0180164D03*
X0107677Y0181764D03*
X0107677Y0183464D03*
X0107558Y0125477D03*
X0107558Y0126677D03*
X0107558Y0131177D03*
X0107558Y0134077D03*
X0107558Y0135777D03*
X0107558Y0138677D03*
X0107577Y0170064D03*
X0107577Y0176064D03*
X0107577Y0180164D03*
X0107577Y0181764D03*
X0107577Y0183464D03*
X0107458Y0125477D03*
X0107458Y0126677D03*
X0107458Y0131177D03*
X0107458Y0135777D03*
X0107458Y0138677D03*
X0107477Y0170064D03*
X0107477Y0176064D03*
X0107477Y0180164D03*
X0107477Y0181764D03*
X0107477Y0183464D03*
X0107358Y0125477D03*
X0107358Y0131177D03*
X0107358Y0134077D03*
X0107358Y0135777D03*
X0107358Y0138677D03*
X0107377Y0176064D03*
X0107377Y0180164D03*
X0107377Y0181764D03*
X0107377Y0183464D03*
X0107258Y0125477D03*
X0107258Y0131177D03*
X0107258Y0134077D03*
X0107258Y0135777D03*
X0107258Y0138677D03*
X0107277Y0176064D03*
X0107277Y0180164D03*
X0107277Y0181764D03*
X0107277Y0183464D03*
X0107158Y0125477D03*
X0107158Y0131177D03*
X0107158Y0134077D03*
X0107158Y0135777D03*
X0107158Y0138677D03*
X0107177Y0176064D03*
X0107177Y0180164D03*
X0107177Y0181764D03*
X0107177Y0183464D03*
X0107058Y0125477D03*
X0107058Y0131177D03*
X0107058Y0134077D03*
X0107058Y0135777D03*
X0107058Y0138677D03*
X0107077Y0176064D03*
X0107077Y0181764D03*
X0107077Y0183464D03*
X0106958Y0123777D03*
X0106958Y0125477D03*
X0106958Y0131177D03*
X0106958Y0132777D03*
X0106958Y0134077D03*
X0106958Y0135777D03*
X0106958Y0138677D03*
X0106977Y0174164D03*
X0106977Y0177164D03*
X0106977Y0180164D03*
X0106977Y0181764D03*
X0106977Y0183464D03*
X0106858Y0123777D03*
X0106858Y0125477D03*
X0106858Y0126677D03*
X0106858Y0131177D03*
X0106858Y0132777D03*
X0106858Y0134077D03*
X0106858Y0135777D03*
X0106858Y0136977D03*
X0106877Y0170064D03*
X0106877Y0174164D03*
X0106877Y0175964D03*
X0106877Y0178964D03*
X0106877Y0180164D03*
X0106877Y0181764D03*
X0106758Y0126677D03*
X0106758Y0129577D03*
X0106758Y0134077D03*
X0106758Y0135777D03*
X0106758Y0136977D03*
X0106777Y0170064D03*
X0106777Y0171664D03*
X0106777Y0177264D03*
X0106777Y0178964D03*
X0106777Y0180164D03*
X0106658Y0128277D03*
X0106658Y0134077D03*
X0106658Y0135777D03*
X0106677Y0171664D03*
X0106677Y0177264D03*
X0106677Y0178864D03*
X0106558Y0126777D03*
X0106558Y0128177D03*
X0106558Y0134077D03*
X0106558Y0135777D03*
X0106577Y0170164D03*
X0106577Y0171564D03*
X0106458Y0134077D03*
X0106458Y0135777D03*
X0106358Y0134077D03*
X0106358Y0135777D03*
X0106258Y0134077D03*
X0106258Y0135777D03*
X0106277Y0183464D03*
X0106158Y0134077D03*
X0106158Y0135777D03*
X0106158Y0138677D03*
X0106177Y0183464D03*
X0106058Y0125477D03*
X0106058Y0134077D03*
X0106058Y0135777D03*
X0106058Y0138677D03*
X0106077Y0183464D03*
X0105958Y0127477D03*
X0105958Y0138677D03*
X0105858Y0138677D03*
X0105758Y0138677D03*
X0105658Y0138677D03*
X0105558Y0138677D03*
X0105458Y0138677D03*
X0105358Y0138677D03*
X0105258Y0138677D03*
X0105158Y0138677D03*
X0105058Y0138677D03*
X0105077Y0174064D03*
X0104958Y0138677D03*
X0104577Y0178864D03*
X0104577Y0181764D03*
X0104477Y0178864D03*
X0104477Y0180164D03*
X0104477Y0181764D03*
X0104477Y0183464D03*
X0104377Y0178864D03*
X0104377Y0180164D03*
X0104377Y0181764D03*
X0104377Y0183464D03*
X0104277Y0178864D03*
X0104277Y0180164D03*
X0104277Y0181764D03*
X0104277Y0183464D03*
X0104177Y0178864D03*
X0104177Y0180164D03*
X0104177Y0181764D03*
X0104177Y0183464D03*
X0104077Y0178864D03*
X0104077Y0180164D03*
X0104077Y0181764D03*
X0104077Y0183464D03*
X0103977Y0178864D03*
X0103977Y0180164D03*
X0103977Y0181764D03*
X0103977Y0183464D03*
X0103877Y0178864D03*
X0103877Y0180164D03*
X0103877Y0181764D03*
X0103877Y0183464D03*
X0103777Y0178864D03*
X0103777Y0180164D03*
X0103777Y0181764D03*
X0103777Y0183464D03*
X0103677Y0178864D03*
X0103677Y0180164D03*
X0103677Y0181764D03*
X0103677Y0183464D03*
X0103577Y0178864D03*
X0103577Y0180164D03*
X0103577Y0181764D03*
X0103577Y0183464D03*
X0103477Y0178864D03*
X0103477Y0180164D03*
X0103477Y0181764D03*
X0103477Y0183464D03*
X0103377Y0178864D03*
X0103377Y0180164D03*
X0103377Y0181764D03*
X0103377Y0183464D03*
X0103277Y0178864D03*
X0103277Y0180164D03*
X0103277Y0181764D03*
X0103277Y0183464D03*
X0103177Y0178864D03*
X0103177Y0180164D03*
X0103177Y0181764D03*
X0103177Y0183464D03*
X0103077Y0178864D03*
X0103077Y0180164D03*
X0103077Y0181764D03*
X0103077Y0183464D03*
X0102977Y0178864D03*
X0102977Y0180164D03*
X0102977Y0181764D03*
X0102977Y0183464D03*
X0102877Y0178864D03*
X0102877Y0180164D03*
X0102877Y0181764D03*
X0102877Y0183464D03*
X0102777Y0178864D03*
X0102777Y0180164D03*
X0102777Y0181764D03*
X0102677Y0178864D03*
X0102577Y0178864D03*
X0102477Y0178864D03*
X0102377Y0178864D03*
X0102277Y0178864D03*
X0102177Y0178864D03*
X0102177Y0183464D03*
X0102077Y0178864D03*
X0102077Y0183464D03*
X0101977Y0178864D03*
X0101977Y0182264D03*
X0101477Y0178864D03*
X0101377Y0178864D03*
X0101277Y0178864D03*
X0101177Y0178864D03*
X0101077Y0178864D03*
X0100977Y0178864D03*
D20*
X0113258Y0151877D03*
X0113158Y0151877D03*
X0113058Y0151877D03*
X0112958Y0151877D03*
X0112858Y0151877D03*
X0112758Y0151877D03*
X0112658Y0151877D03*
X0112558Y0151877D03*
X0112458Y0151877D03*
X0112358Y0151877D03*
X0112258Y0151877D03*
X0112158Y0151877D03*
X0112058Y0151877D03*
X0111958Y0151877D03*
X0111858Y0151877D03*
X0111758Y0151877D03*
X0111658Y0151877D03*
X0111558Y0151877D03*
X0111458Y0151877D03*
X0111358Y0151877D03*
X0111258Y0151877D03*
X0111158Y0151877D03*
X0111058Y0151877D03*
X0110958Y0151877D03*
X0110858Y0151877D03*
X0110758Y0151877D03*
X0110658Y0151877D03*
X0110558Y0151877D03*
X0110458Y0151877D03*
X0107558Y0151877D03*
X0107458Y0151877D03*
X0107358Y0151877D03*
X0107258Y0151877D03*
X0107158Y0151877D03*
X0107058Y0151877D03*
X0106958Y0151877D03*
X0106858Y0151877D03*
X0106758Y0151877D03*
X0106658Y0151877D03*
X0106558Y0151877D03*
X0106458Y0151877D03*
X0106358Y0151877D03*
X0106258Y0151877D03*
X0106158Y0151877D03*
X0106058Y0151877D03*
X0105958Y0151877D03*
X0105858Y0151877D03*
X0105758Y0151877D03*
X0105658Y0151877D03*
X0105558Y0151877D03*
X0105458Y0151877D03*
X0105358Y0151877D03*
X0105258Y0151877D03*
X0105158Y0151877D03*
X0105058Y0151877D03*
X0104958Y0151877D03*
X0104858Y0151877D03*
X0101858Y0151877D03*
X0101758Y0151877D03*
X0101658Y0151877D03*
X0101558Y0151877D03*
X0101458Y0151877D03*
X0101358Y0151877D03*
X0101258Y0151877D03*
X0101158Y0151877D03*
X0101058Y0151877D03*
X0100958Y0151877D03*
X0100858Y0151877D03*
X0100758Y0151877D03*
X0100658Y0151877D03*
X0100558Y0151877D03*
X0100458Y0151877D03*
X0100358Y0151877D03*
X0100258Y0151877D03*
X0100158Y0151877D03*
X0100058Y0151877D03*
X0099958Y0151877D03*
X0099858Y0151877D03*
X0099758Y0151877D03*
X0099658Y0151877D03*
X0099558Y0151877D03*
X0099458Y0151877D03*
X0099358Y0151877D03*
X0099258Y0151877D03*
X0099158Y0151877D03*
D21*
X0113277Y0188114D03*
X0107477Y0178114D03*
X0107377Y0178114D03*
X0107277Y0178114D03*
X0107177Y0178114D03*
X0104877Y0188114D03*
X0098958Y0143327D03*
X0098858Y0143327D03*
X0098758Y0143327D03*
X0098658Y0143327D03*
X0098558Y0143327D03*
X0098458Y0143327D03*
X0098358Y0143327D03*
X0098258Y0143327D03*
X0098158Y0143327D03*
X0098058Y0143327D03*
X0097958Y0143327D03*
X0097858Y0143327D03*
X0097758Y0143327D03*
X0097658Y0143327D03*
X0097558Y0143327D03*
X0097458Y0143327D03*
X0097358Y0143327D03*
X0097258Y0143327D03*
X0097158Y0143327D03*
X0097058Y0143327D03*
X0096958Y0143327D03*
X0096858Y0143327D03*
X0096758Y0143327D03*
X0096658Y0143327D03*
X0096558Y0143327D03*
X0096458Y0143327D03*
X0096358Y0143327D03*
X0096377Y0196614D03*
X0098958Y0160414D03*
X0098858Y0160414D03*
X0098758Y0160414D03*
X0098658Y0160414D03*
X0098558Y0160414D03*
X0098458Y0160414D03*
X0098358Y0160414D03*
X0098258Y0160414D03*
X0098158Y0160414D03*
X0098058Y0160414D03*
X0097958Y0160414D03*
X0097858Y0160414D03*
X0097758Y0160414D03*
X0097658Y0160414D03*
X0097558Y0160414D03*
X0097458Y0160414D03*
X0097358Y0160414D03*
X0097258Y0160414D03*
X0097158Y0160414D03*
X0097058Y0160414D03*
X0096958Y0160414D03*
X0096858Y0160414D03*
X0096758Y0160414D03*
X0096658Y0160414D03*
X0096558Y0160414D03*
X0096458Y0160414D03*
X0096358Y0160414D03*
D22*
X0113277Y0200914D03*
X0113177Y0200914D03*
X0113077Y0200914D03*
X0112977Y0200914D03*
X0112877Y0200914D03*
X0112777Y0200914D03*
X0112677Y0200914D03*
X0112577Y0200914D03*
X0112477Y0200914D03*
X0112377Y0200914D03*
X0112277Y0200914D03*
X0112177Y0200914D03*
X0112077Y0200914D03*
X0111977Y0200914D03*
X0111877Y0200914D03*
X0111777Y0200914D03*
X0111677Y0200914D03*
X0111577Y0200914D03*
X0111477Y0200914D03*
X0111377Y0200914D03*
X0111277Y0200914D03*
X0111177Y0200914D03*
X0111077Y0200914D03*
X0110977Y0200914D03*
X0110877Y0200914D03*
X0110777Y0200914D03*
X0110677Y0200914D03*
X0110577Y0200914D03*
X0110477Y0200914D03*
X0104677Y0192414D03*
X0104577Y0192414D03*
X0104477Y0192414D03*
X0104377Y0192414D03*
X0104277Y0192414D03*
X0104177Y0192414D03*
X0104077Y0192414D03*
X0103977Y0192414D03*
X0103877Y0192414D03*
X0103777Y0192414D03*
X0103677Y0192414D03*
X0103577Y0192414D03*
X0103477Y0192414D03*
X0103377Y0192414D03*
X0103277Y0192414D03*
X0103177Y0192414D03*
X0103077Y0192414D03*
X0102977Y0192414D03*
X0102877Y0192414D03*
X0102777Y0192414D03*
X0102677Y0192414D03*
X0102577Y0192414D03*
X0102477Y0192414D03*
X0102377Y0192414D03*
X0102277Y0192414D03*
X0102177Y0192414D03*
X0102077Y0192414D03*
X0101977Y0192414D03*
X0096177Y0200914D03*
X0096077Y0200914D03*
X0095977Y0200914D03*
X0095877Y0200914D03*
X0095777Y0200914D03*
X0095677Y0200914D03*
X0095577Y0200914D03*
X0095477Y0200914D03*
X0095377Y0200914D03*
X0095277Y0200914D03*
X0095177Y0200914D03*
X0095077Y0200914D03*
X0094977Y0200914D03*
X0094877Y0200914D03*
X0094777Y0200914D03*
X0094677Y0200914D03*
X0094577Y0200914D03*
X0094477Y0200914D03*
X0094377Y0200914D03*
X0094277Y0200914D03*
X0094177Y0200914D03*
X0094077Y0200914D03*
X0093977Y0200914D03*
X0093877Y0200914D03*
X0093777Y0200914D03*
X0093677Y0200914D03*
X0093577Y0200914D03*
X0093477Y0200914D03*
D23*
X0113158Y0117677D03*
X0112258Y0134777D03*
X0112158Y0117377D03*
X0110758Y0117777D03*
X0110758Y0128977D03*
X0110777Y0181364D03*
X0106158Y0127477D03*
X0106177Y0178064D03*
X0102477Y0177364D03*
X0102377Y0177364D03*
X0102277Y0177364D03*
X0102177Y0177364D03*
X0102077Y0177364D03*
X0101977Y0177364D03*
D24*
X0113158Y0120427D03*
X0110758Y0120427D03*
X0102277Y0180614D03*
D25*
X0113177Y0188164D03*
X0113077Y0188164D03*
X0112977Y0188164D03*
X0112877Y0188164D03*
X0112777Y0188164D03*
X0112677Y0188164D03*
X0112577Y0188164D03*
X0112477Y0188164D03*
X0112377Y0188164D03*
X0112277Y0188164D03*
X0112177Y0188164D03*
X0112077Y0188164D03*
X0111977Y0188164D03*
X0111877Y0188164D03*
X0111777Y0188164D03*
X0111677Y0188164D03*
X0111577Y0188164D03*
X0111477Y0188164D03*
X0111377Y0188164D03*
X0111277Y0188164D03*
X0111177Y0188164D03*
X0111077Y0188164D03*
X0110977Y0188164D03*
X0110877Y0188164D03*
X0110777Y0188164D03*
X0110677Y0188164D03*
X0110577Y0188164D03*
X0110477Y0188164D03*
X0110358Y0151877D03*
X0110377Y0188164D03*
X0110377Y0205164D03*
X0110258Y0151877D03*
X0110277Y0188164D03*
X0110277Y0205164D03*
X0110158Y0151877D03*
X0110177Y0188164D03*
X0110177Y0205164D03*
X0110058Y0151877D03*
X0110077Y0188164D03*
X0110077Y0205164D03*
X0109958Y0151877D03*
X0109977Y0188164D03*
X0109977Y0205164D03*
X0109858Y0151877D03*
X0109877Y0188164D03*
X0109877Y0205164D03*
X0109758Y0151877D03*
X0109777Y0188164D03*
X0109777Y0205164D03*
X0109658Y0151877D03*
X0109677Y0188164D03*
X0109677Y0205164D03*
X0109558Y0151877D03*
X0109577Y0188164D03*
X0109577Y0205164D03*
X0109458Y0151877D03*
X0109477Y0188164D03*
X0109477Y0205164D03*
X0109358Y0151877D03*
X0109377Y0188164D03*
X0109377Y0205164D03*
X0109258Y0151877D03*
X0109277Y0188164D03*
X0109277Y0205164D03*
X0109158Y0151877D03*
X0109177Y0188164D03*
X0109177Y0205164D03*
X0109058Y0151877D03*
X0109077Y0188164D03*
X0109077Y0205164D03*
X0108958Y0151877D03*
X0108977Y0188164D03*
X0108977Y0205164D03*
X0108858Y0151877D03*
X0108877Y0188164D03*
X0108877Y0205164D03*
X0108758Y0151877D03*
X0108777Y0188164D03*
X0108777Y0205164D03*
X0108658Y0151877D03*
X0108677Y0188164D03*
X0108677Y0205164D03*
X0108558Y0151877D03*
X0108577Y0188164D03*
X0108577Y0205164D03*
X0108458Y0151877D03*
X0108477Y0188164D03*
X0108477Y0205164D03*
X0108358Y0151877D03*
X0108377Y0188164D03*
X0108377Y0205164D03*
X0108258Y0151877D03*
X0108277Y0188164D03*
X0108277Y0205164D03*
X0108158Y0151877D03*
X0108177Y0188164D03*
X0108177Y0205164D03*
X0108058Y0151877D03*
X0108077Y0188164D03*
X0108077Y0205164D03*
X0107958Y0151877D03*
X0107977Y0188164D03*
X0107977Y0205164D03*
X0107858Y0151877D03*
X0107877Y0188164D03*
X0107877Y0205164D03*
X0107758Y0151877D03*
X0107777Y0188164D03*
X0107777Y0205164D03*
X0107658Y0151877D03*
X0107677Y0188164D03*
X0107677Y0205164D03*
X0107577Y0188164D03*
X0107577Y0205164D03*
X0107477Y0188164D03*
X0107477Y0205164D03*
X0107377Y0188164D03*
X0107377Y0205164D03*
X0107277Y0188164D03*
X0107277Y0205164D03*
X0107177Y0188164D03*
X0107177Y0205164D03*
X0107077Y0188164D03*
X0107077Y0205164D03*
X0106977Y0188164D03*
X0106977Y0205164D03*
X0106877Y0188164D03*
X0106877Y0205164D03*
X0106777Y0188164D03*
X0106777Y0205164D03*
X0106677Y0188164D03*
X0106677Y0205164D03*
X0106577Y0188164D03*
X0106577Y0205164D03*
X0106477Y0188164D03*
X0106477Y0205164D03*
X0106377Y0188164D03*
X0106377Y0205164D03*
X0106277Y0188164D03*
X0106277Y0205164D03*
X0106177Y0188164D03*
X0106177Y0205164D03*
X0106077Y0188164D03*
X0106077Y0205164D03*
X0105977Y0188164D03*
X0105977Y0205164D03*
X0105877Y0188164D03*
X0105877Y0205164D03*
X0105777Y0188164D03*
X0105777Y0205164D03*
X0105677Y0188164D03*
X0105677Y0205164D03*
X0105577Y0188164D03*
X0105577Y0205164D03*
X0105477Y0188164D03*
X0105477Y0205164D03*
X0105377Y0188164D03*
X0105377Y0205164D03*
X0105277Y0188164D03*
X0105277Y0205164D03*
X0105177Y0188164D03*
X0105177Y0205164D03*
X0105077Y0188164D03*
X0105077Y0205164D03*
X0104977Y0188164D03*
X0104977Y0205164D03*
X0104877Y0205164D03*
X0104777Y0205164D03*
X0104677Y0205164D03*
X0104577Y0205164D03*
X0104477Y0205164D03*
X0104377Y0205164D03*
X0104277Y0205164D03*
X0104177Y0205164D03*
X0104077Y0205164D03*
X0103977Y0205164D03*
X0103877Y0205164D03*
X0103777Y0205164D03*
X0103677Y0205164D03*
X0103577Y0205164D03*
X0103477Y0205164D03*
X0103377Y0205164D03*
X0103277Y0205164D03*
X0103177Y0205164D03*
X0103077Y0205164D03*
X0102977Y0205164D03*
X0102877Y0205164D03*
X0102777Y0205164D03*
X0102677Y0205164D03*
X0102577Y0205164D03*
X0102477Y0205164D03*
X0102377Y0205164D03*
X0102277Y0205164D03*
X0102177Y0205164D03*
X0102077Y0205164D03*
X0101977Y0205164D03*
X0101877Y0196664D03*
X0101777Y0196664D03*
X0101677Y0196664D03*
X0101577Y0196664D03*
X0101477Y0196664D03*
X0101377Y0196664D03*
X0101277Y0196664D03*
X0101177Y0196664D03*
X0101077Y0196664D03*
X0100977Y0196664D03*
X0100877Y0196664D03*
X0100777Y0196664D03*
X0100677Y0196664D03*
X0100577Y0196664D03*
X0100477Y0196664D03*
X0100377Y0196664D03*
X0100277Y0196664D03*
X0100177Y0196664D03*
X0100077Y0196664D03*
X0099977Y0196664D03*
X0099877Y0196664D03*
X0099777Y0196664D03*
X0099677Y0196664D03*
X0099577Y0196664D03*
X0099477Y0196664D03*
X0099377Y0196664D03*
X0099277Y0196664D03*
X0099177Y0196664D03*
X0099058Y0143377D03*
X0099077Y0196664D03*
X0098977Y0196664D03*
X0098877Y0196664D03*
X0098777Y0196664D03*
X0098677Y0196664D03*
X0098577Y0196664D03*
X0098477Y0196664D03*
X0098377Y0196664D03*
X0098277Y0196664D03*
X0098177Y0196664D03*
X0098077Y0196664D03*
X0097977Y0196664D03*
X0097877Y0196664D03*
X0097777Y0196664D03*
X0097677Y0196664D03*
X0097577Y0196664D03*
X0097477Y0196664D03*
X0097377Y0196664D03*
X0097277Y0196664D03*
X0097177Y0196664D03*
X0097077Y0196664D03*
X0096977Y0196664D03*
X0096877Y0196664D03*
X0096777Y0196664D03*
X0096677Y0196664D03*
X0096577Y0196664D03*
X0096477Y0196664D03*
X0099058Y0160385D03*
D26*
X0113177Y0221814D03*
X0113177Y0235514D03*
X0113077Y0221814D03*
X0113077Y0235514D03*
X0113077Y0249114D03*
X0112977Y0221814D03*
X0112977Y0235514D03*
X0112977Y0249114D03*
X0112877Y0221814D03*
X0112877Y0235514D03*
X0112877Y0249114D03*
X0112777Y0221814D03*
X0112777Y0235514D03*
X0112777Y0249114D03*
X0112677Y0221814D03*
X0112677Y0235514D03*
X0112677Y0249114D03*
X0112577Y0221814D03*
X0112577Y0235514D03*
X0112577Y0249114D03*
X0112477Y0221814D03*
X0112477Y0235514D03*
X0112477Y0249114D03*
X0112377Y0221814D03*
X0112377Y0235514D03*
X0112377Y0249114D03*
X0112277Y0221814D03*
X0112277Y0235514D03*
X0112277Y0249114D03*
X0112177Y0221814D03*
X0112177Y0235514D03*
X0112177Y0249114D03*
X0112077Y0221814D03*
X0112077Y0235514D03*
X0112077Y0249114D03*
X0111977Y0221814D03*
X0111977Y0235514D03*
X0111977Y0249114D03*
X0111877Y0221814D03*
X0111877Y0235514D03*
X0111877Y0249114D03*
X0111777Y0221814D03*
X0111777Y0235514D03*
X0111777Y0249114D03*
X0111677Y0221814D03*
X0111677Y0235514D03*
X0111677Y0249114D03*
X0111577Y0221814D03*
X0111577Y0235514D03*
X0111577Y0249114D03*
X0111477Y0221814D03*
X0111477Y0235514D03*
X0111477Y0249114D03*
X0111377Y0221814D03*
X0111377Y0235514D03*
X0111377Y0249114D03*
X0111277Y0221814D03*
X0111277Y0235514D03*
X0111277Y0249114D03*
X0111177Y0221814D03*
X0111177Y0235514D03*
X0111177Y0249114D03*
X0111077Y0221814D03*
X0111077Y0235514D03*
X0111077Y0249114D03*
X0110977Y0221814D03*
X0110977Y0235514D03*
X0110977Y0249114D03*
X0110877Y0221814D03*
X0110877Y0235514D03*
X0110877Y0249114D03*
X0110777Y0221814D03*
X0110777Y0235514D03*
X0110777Y0249114D03*
X0110677Y0221814D03*
X0110677Y0235514D03*
X0110677Y0249114D03*
X0110577Y0221814D03*
X0110577Y0235514D03*
X0110577Y0249114D03*
X0110477Y0221814D03*
X0110477Y0235514D03*
X0110477Y0249114D03*
X0110377Y0221814D03*
X0110377Y0235514D03*
X0110377Y0249114D03*
X0110277Y0221814D03*
X0110277Y0235514D03*
X0110277Y0249114D03*
X0110177Y0221814D03*
X0110177Y0235514D03*
X0110177Y0249114D03*
X0110077Y0221814D03*
X0110077Y0235514D03*
X0110077Y0249114D03*
X0109977Y0221814D03*
X0109977Y0235514D03*
X0109977Y0249114D03*
X0109877Y0221814D03*
X0109877Y0235514D03*
X0109877Y0249114D03*
X0109777Y0221814D03*
X0109777Y0235514D03*
X0109777Y0249114D03*
X0109677Y0221814D03*
X0109677Y0235514D03*
X0109677Y0249114D03*
X0109577Y0221814D03*
X0109577Y0235514D03*
X0109577Y0249114D03*
X0109477Y0221814D03*
X0109477Y0235514D03*
X0109477Y0249114D03*
X0109377Y0221814D03*
X0109377Y0235514D03*
X0109377Y0249114D03*
X0109277Y0221814D03*
X0109277Y0235514D03*
X0109277Y0249114D03*
X0109177Y0221814D03*
X0109177Y0235514D03*
X0109177Y0249114D03*
X0109077Y0221814D03*
X0109077Y0235514D03*
X0109077Y0249114D03*
X0108977Y0221814D03*
X0108977Y0235514D03*
X0108977Y0249114D03*
X0108877Y0221814D03*
X0108877Y0235514D03*
X0108877Y0249114D03*
X0108777Y0221814D03*
X0108777Y0235514D03*
X0108777Y0249114D03*
X0108677Y0221814D03*
X0108677Y0235514D03*
X0108677Y0249114D03*
X0108577Y0221814D03*
X0108577Y0235514D03*
X0108577Y0249114D03*
X0108477Y0221814D03*
X0108477Y0235514D03*
X0108477Y0249114D03*
X0108377Y0221814D03*
X0108377Y0235514D03*
X0108377Y0249114D03*
X0108277Y0221814D03*
X0108277Y0235514D03*
X0108277Y0249114D03*
X0108177Y0221814D03*
X0108177Y0235514D03*
X0108177Y0249114D03*
X0108077Y0221814D03*
X0108077Y0235514D03*
X0108077Y0249114D03*
X0107977Y0221814D03*
X0107977Y0235514D03*
X0107977Y0249114D03*
X0107877Y0221814D03*
X0107877Y0235514D03*
X0107877Y0249114D03*
X0107777Y0221814D03*
X0107777Y0235514D03*
X0107777Y0249114D03*
X0107677Y0221814D03*
X0107677Y0235514D03*
X0107677Y0249114D03*
X0107577Y0221814D03*
X0107577Y0235514D03*
X0107577Y0249114D03*
X0107477Y0221814D03*
X0107477Y0235514D03*
X0107477Y0249114D03*
X0107377Y0221814D03*
X0107377Y0235514D03*
X0107377Y0249114D03*
X0107277Y0221814D03*
X0107277Y0235514D03*
X0107277Y0249114D03*
X0107177Y0221814D03*
X0107177Y0235514D03*
X0107177Y0249114D03*
X0107077Y0221814D03*
X0107077Y0235514D03*
X0107077Y0249114D03*
X0106977Y0221814D03*
X0106977Y0235514D03*
X0106977Y0249114D03*
X0106877Y0221814D03*
X0106877Y0235514D03*
X0106877Y0249114D03*
X0106777Y0221814D03*
X0106777Y0235514D03*
X0106777Y0242314D03*
X0106777Y0249114D03*
X0106677Y0221814D03*
X0106677Y0235514D03*
X0106677Y0242314D03*
X0106677Y0249114D03*
X0106577Y0181814D03*
X0106577Y0221814D03*
X0106577Y0235514D03*
X0106577Y0242314D03*
X0106577Y0249114D03*
X0106477Y0181814D03*
X0106477Y0221814D03*
X0106477Y0235514D03*
X0106477Y0242314D03*
X0106477Y0249114D03*
X0106377Y0221814D03*
X0106377Y0235514D03*
X0106377Y0242314D03*
X0106377Y0249114D03*
X0106277Y0221814D03*
X0106277Y0235514D03*
X0106277Y0242314D03*
X0106277Y0249114D03*
X0106177Y0221814D03*
X0106177Y0235514D03*
X0106177Y0242314D03*
X0106177Y0249114D03*
X0106077Y0221814D03*
X0106077Y0235514D03*
X0106077Y0242314D03*
X0106077Y0249114D03*
X0105977Y0221814D03*
X0105977Y0235514D03*
X0105977Y0242314D03*
X0105977Y0249114D03*
X0105877Y0221814D03*
X0105877Y0235514D03*
X0105877Y0242314D03*
X0105877Y0249114D03*
X0105777Y0221814D03*
X0105777Y0235514D03*
X0105777Y0242314D03*
X0105777Y0249114D03*
X0105677Y0221814D03*
X0105677Y0235514D03*
X0105677Y0242314D03*
X0105677Y0249114D03*
X0105577Y0221814D03*
X0105577Y0235514D03*
X0105577Y0242314D03*
X0105577Y0249114D03*
X0105477Y0221814D03*
X0105477Y0235514D03*
X0105477Y0242314D03*
X0105477Y0249114D03*
X0105377Y0221814D03*
X0105377Y0235514D03*
X0105377Y0242314D03*
X0105377Y0249114D03*
X0105277Y0221814D03*
X0105277Y0235514D03*
X0105277Y0242314D03*
X0105277Y0249114D03*
X0105177Y0221814D03*
X0105177Y0235514D03*
X0105177Y0242314D03*
X0105177Y0249114D03*
X0105077Y0221814D03*
X0105077Y0235514D03*
X0105077Y0242314D03*
X0105077Y0249114D03*
X0104977Y0221814D03*
X0104977Y0235514D03*
X0104977Y0242314D03*
X0104977Y0249114D03*
X0104877Y0221814D03*
X0104877Y0235514D03*
X0104877Y0242314D03*
X0104877Y0249114D03*
X0104777Y0221814D03*
X0104777Y0235514D03*
X0104777Y0242314D03*
X0104777Y0249114D03*
X0104677Y0221814D03*
X0104677Y0235514D03*
X0104677Y0242314D03*
X0104677Y0249114D03*
X0104577Y0221814D03*
X0104577Y0235514D03*
X0104577Y0242314D03*
X0104577Y0249114D03*
X0104477Y0221814D03*
X0104477Y0235514D03*
X0104477Y0242314D03*
X0104477Y0249114D03*
X0104377Y0221814D03*
X0104377Y0235514D03*
X0104377Y0242314D03*
X0104377Y0249114D03*
X0104277Y0221814D03*
X0104277Y0235514D03*
X0104277Y0242314D03*
X0104277Y0249114D03*
X0104177Y0221814D03*
X0104177Y0235514D03*
X0104177Y0242314D03*
X0104177Y0249114D03*
X0104077Y0221814D03*
X0104077Y0235514D03*
X0104077Y0242314D03*
X0104077Y0249114D03*
X0103977Y0221814D03*
X0103977Y0235514D03*
X0103977Y0242314D03*
X0103977Y0249114D03*
X0103877Y0221814D03*
X0103877Y0235514D03*
X0103877Y0242314D03*
X0103877Y0249114D03*
X0103777Y0221814D03*
X0103777Y0235514D03*
X0103777Y0242314D03*
X0103777Y0249114D03*
X0103677Y0221814D03*
X0103677Y0235514D03*
X0103677Y0242314D03*
X0103677Y0249114D03*
X0103577Y0221814D03*
X0103577Y0235514D03*
X0103577Y0242314D03*
X0103577Y0249114D03*
X0103477Y0221814D03*
X0103477Y0235514D03*
X0103477Y0242314D03*
X0103477Y0249114D03*
X0103377Y0221814D03*
X0103377Y0235514D03*
X0103377Y0242314D03*
X0103377Y0249114D03*
X0103277Y0221814D03*
X0103277Y0235514D03*
X0103277Y0242314D03*
X0103277Y0249114D03*
X0103177Y0221814D03*
X0103177Y0235514D03*
X0103177Y0242314D03*
X0103177Y0249114D03*
X0103077Y0221814D03*
X0103077Y0235514D03*
X0103077Y0242314D03*
X0103077Y0249114D03*
X0102977Y0221814D03*
X0102977Y0235514D03*
X0102977Y0242314D03*
X0102977Y0249114D03*
X0102877Y0221814D03*
X0102877Y0235514D03*
X0102877Y0242314D03*
X0102877Y0249114D03*
X0102777Y0221814D03*
X0102777Y0235514D03*
X0102777Y0242314D03*
X0102777Y0249114D03*
X0102677Y0221814D03*
X0102677Y0235514D03*
X0102677Y0242314D03*
X0102677Y0249114D03*
X0102577Y0181814D03*
X0102577Y0221814D03*
X0102577Y0235514D03*
X0102577Y0242314D03*
X0102577Y0249114D03*
X0102477Y0181814D03*
X0102477Y0221814D03*
X0102477Y0235514D03*
X0102477Y0242314D03*
X0102477Y0249114D03*
X0102377Y0221814D03*
X0102377Y0235514D03*
X0102377Y0242314D03*
X0102377Y0249114D03*
X0102277Y0221814D03*
X0102277Y0235514D03*
X0102277Y0242314D03*
X0102277Y0249114D03*
X0102177Y0221814D03*
X0102177Y0235514D03*
X0102177Y0242314D03*
X0102177Y0249114D03*
X0102077Y0221814D03*
X0102077Y0235514D03*
X0102077Y0242314D03*
X0102077Y0249114D03*
X0101977Y0221814D03*
X0101977Y0235514D03*
X0101977Y0242314D03*
X0101977Y0249114D03*
X0101877Y0221814D03*
X0101877Y0235514D03*
X0101877Y0242314D03*
X0101877Y0249114D03*
X0101777Y0221814D03*
X0101777Y0235514D03*
X0101777Y0242314D03*
X0101777Y0249114D03*
X0101677Y0221814D03*
X0101677Y0235514D03*
X0101677Y0242314D03*
X0101677Y0249114D03*
X0101577Y0221814D03*
X0101577Y0235514D03*
X0101577Y0242314D03*
X0101577Y0249114D03*
X0101477Y0221814D03*
X0101477Y0235514D03*
X0101477Y0242314D03*
X0101477Y0249114D03*
X0101377Y0221814D03*
X0101377Y0235514D03*
X0101377Y0242314D03*
X0101377Y0249114D03*
X0101277Y0221814D03*
X0101277Y0235514D03*
X0101277Y0242314D03*
X0101277Y0249114D03*
X0101177Y0221814D03*
X0101177Y0235514D03*
X0101177Y0242314D03*
X0101177Y0249114D03*
X0101077Y0221814D03*
X0101077Y0235514D03*
X0101077Y0242314D03*
X0101077Y0249114D03*
X0100977Y0221814D03*
X0100977Y0235514D03*
X0100977Y0242314D03*
X0100977Y0249114D03*
X0100877Y0221814D03*
X0100877Y0235514D03*
X0100877Y0242314D03*
X0100877Y0249114D03*
X0100777Y0221814D03*
X0100777Y0235514D03*
X0100777Y0242314D03*
X0100777Y0249114D03*
X0100677Y0221814D03*
X0100677Y0235514D03*
X0100677Y0242314D03*
X0100677Y0249114D03*
X0100577Y0221814D03*
X0100577Y0235514D03*
X0100577Y0242314D03*
X0100577Y0249114D03*
X0100477Y0221814D03*
X0100477Y0235514D03*
X0100477Y0242314D03*
X0100477Y0249114D03*
X0100377Y0221814D03*
X0100377Y0235514D03*
X0100377Y0242314D03*
X0100377Y0249114D03*
X0100277Y0221814D03*
X0100277Y0235514D03*
X0100277Y0242314D03*
X0100277Y0249114D03*
X0100177Y0221814D03*
X0100177Y0235514D03*
X0100177Y0242314D03*
X0100177Y0249114D03*
X0100077Y0221814D03*
X0100077Y0235514D03*
X0100077Y0242314D03*
X0100077Y0249114D03*
X0099977Y0221814D03*
X0099977Y0235514D03*
X0099977Y0242314D03*
X0099977Y0249114D03*
X0099877Y0221814D03*
X0099877Y0235514D03*
X0099877Y0242314D03*
X0099877Y0249114D03*
X0099777Y0235514D03*
X0099777Y0242314D03*
X0099777Y0249114D03*
X0099677Y0235514D03*
X0099677Y0242314D03*
X0099677Y0249114D03*
X0099577Y0235514D03*
X0099577Y0242314D03*
X0099577Y0249114D03*
X0099477Y0235514D03*
X0099477Y0242314D03*
X0099477Y0249114D03*
X0099377Y0235514D03*
X0099377Y0242314D03*
X0099377Y0249114D03*
X0099277Y0235514D03*
X0099277Y0242314D03*
X0099277Y0249114D03*
X0099177Y0235514D03*
X0099177Y0242314D03*
X0099177Y0249114D03*
X0099077Y0235514D03*
X0099077Y0242314D03*
X0099077Y0249114D03*
X0098977Y0235514D03*
X0098977Y0242314D03*
X0098977Y0249114D03*
X0098877Y0235514D03*
X0098877Y0242314D03*
X0098877Y0249114D03*
X0098777Y0235514D03*
X0098777Y0242314D03*
X0098777Y0249114D03*
X0098677Y0235514D03*
X0098677Y0242314D03*
X0098677Y0249114D03*
X0098577Y0235514D03*
X0098577Y0242314D03*
X0098577Y0249114D03*
X0098477Y0235514D03*
X0098477Y0242314D03*
X0098477Y0249114D03*
X0098377Y0235514D03*
X0098377Y0242314D03*
X0098377Y0249114D03*
X0098277Y0235514D03*
X0098277Y0242314D03*
X0098277Y0249114D03*
X0098177Y0235514D03*
X0098177Y0242314D03*
X0098177Y0249114D03*
X0098077Y0235514D03*
X0098077Y0242314D03*
X0098077Y0249114D03*
X0097977Y0235514D03*
X0097977Y0242314D03*
X0097977Y0249114D03*
X0097877Y0235514D03*
X0097877Y0242314D03*
X0097877Y0249114D03*
X0097777Y0235514D03*
X0097777Y0242314D03*
X0097777Y0249114D03*
X0097677Y0235514D03*
X0097677Y0242314D03*
X0097677Y0249114D03*
X0097577Y0235514D03*
X0097577Y0242314D03*
X0097577Y0249114D03*
X0097477Y0235514D03*
X0097477Y0242314D03*
X0097477Y0249114D03*
X0097377Y0235514D03*
X0097377Y0242314D03*
X0097377Y0249114D03*
X0097277Y0228714D03*
X0097277Y0235514D03*
X0097277Y0242314D03*
X0097277Y0249114D03*
X0097177Y0235514D03*
X0097177Y0242314D03*
X0097177Y0249114D03*
X0097077Y0235514D03*
X0097077Y0242314D03*
X0097077Y0249114D03*
X0096977Y0235514D03*
X0096977Y0242314D03*
X0096977Y0249114D03*
X0096877Y0235514D03*
X0096877Y0242314D03*
X0096877Y0249114D03*
X0096777Y0235514D03*
X0096777Y0242314D03*
X0096777Y0249114D03*
X0096677Y0235514D03*
X0096677Y0242314D03*
X0096677Y0249114D03*
X0096577Y0235514D03*
X0096577Y0242314D03*
X0096577Y0249114D03*
X0096477Y0235514D03*
X0096477Y0242314D03*
X0096477Y0249114D03*
X0096377Y0235514D03*
X0096377Y0242314D03*
X0096377Y0249114D03*
X0096277Y0235514D03*
X0096277Y0242314D03*
X0096277Y0249114D03*
X0096177Y0235514D03*
X0096177Y0242314D03*
X0096177Y0249114D03*
X0096077Y0235514D03*
X0096077Y0242314D03*
X0096077Y0249114D03*
X0095977Y0235514D03*
X0095977Y0242314D03*
X0095977Y0249114D03*
X0095877Y0235514D03*
X0095877Y0242314D03*
X0095877Y0249114D03*
X0095777Y0235514D03*
X0095777Y0242314D03*
X0095777Y0249114D03*
X0095677Y0235514D03*
X0095677Y0242314D03*
X0095677Y0249114D03*
X0095577Y0235514D03*
X0095577Y0242314D03*
X0095577Y0249114D03*
X0095477Y0235514D03*
X0095477Y0242314D03*
X0095477Y0249114D03*
X0095377Y0235514D03*
X0095377Y0242314D03*
X0095377Y0249114D03*
X0095277Y0235514D03*
X0095277Y0242314D03*
X0095277Y0249114D03*
X0095177Y0235514D03*
X0095177Y0242314D03*
X0095177Y0249114D03*
X0095077Y0235514D03*
X0095077Y0242314D03*
X0095077Y0249114D03*
X0094977Y0235514D03*
X0094977Y0242314D03*
X0094977Y0249114D03*
X0094877Y0235514D03*
X0094877Y0242314D03*
X0094877Y0249114D03*
X0094777Y0235514D03*
X0094777Y0242314D03*
X0094777Y0249114D03*
X0094677Y0235514D03*
X0094677Y0242314D03*
X0094677Y0249114D03*
X0094577Y0235514D03*
X0094577Y0242314D03*
X0094577Y0249114D03*
X0094477Y0235514D03*
X0094477Y0242314D03*
X0094477Y0249114D03*
X0094377Y0235514D03*
X0094377Y0242314D03*
X0094377Y0249114D03*
X0094277Y0235514D03*
X0094277Y0242314D03*
X0094277Y0249114D03*
X0094177Y0235514D03*
X0094177Y0242314D03*
X0094177Y0249114D03*
X0094077Y0235514D03*
X0094077Y0242314D03*
X0094077Y0249114D03*
X0093977Y0235514D03*
X0093977Y0242314D03*
X0093977Y0249114D03*
X0093877Y0235514D03*
X0093877Y0242314D03*
X0093877Y0249114D03*
X0093777Y0235514D03*
X0093777Y0242314D03*
X0093777Y0249114D03*
X0093677Y0235514D03*
X0093677Y0242314D03*
X0093677Y0249114D03*
X0093577Y0235514D03*
X0093577Y0242314D03*
X0093577Y0249114D03*
X0093477Y0242314D03*
D27*
X0113177Y0228764D03*
X0113177Y0249164D03*
X0113077Y0228764D03*
X0112977Y0228764D03*
X0112877Y0228764D03*
X0112777Y0228764D03*
X0112677Y0228764D03*
X0112577Y0228764D03*
X0112477Y0228764D03*
X0112377Y0228764D03*
X0112277Y0228764D03*
X0112177Y0228764D03*
X0112077Y0228764D03*
X0111977Y0228764D03*
X0111877Y0228764D03*
X0111777Y0228764D03*
X0111677Y0228764D03*
X0111577Y0228764D03*
X0111477Y0228764D03*
X0111377Y0228764D03*
X0111277Y0228764D03*
X0111158Y0125377D03*
X0111177Y0228764D03*
X0111058Y0125377D03*
X0111077Y0228764D03*
X0110977Y0228764D03*
X0110877Y0228764D03*
X0110777Y0228764D03*
X0110677Y0228764D03*
X0110577Y0228764D03*
X0110477Y0228764D03*
X0110377Y0228764D03*
X0110277Y0228764D03*
X0110177Y0228764D03*
X0110077Y0228764D03*
X0109977Y0228764D03*
X0109877Y0228764D03*
X0109777Y0228764D03*
X0109677Y0228764D03*
X0109577Y0228764D03*
X0109477Y0228764D03*
X0109377Y0228764D03*
X0109277Y0228764D03*
X0109177Y0228764D03*
X0109077Y0228764D03*
X0108977Y0228764D03*
X0108877Y0228764D03*
X0108777Y0228764D03*
X0108677Y0228764D03*
X0108577Y0228764D03*
X0108477Y0228764D03*
X0108377Y0228764D03*
X0108277Y0228764D03*
X0108177Y0228764D03*
X0108077Y0228764D03*
X0107977Y0228764D03*
X0107877Y0228764D03*
X0107777Y0228764D03*
X0107677Y0228764D03*
X0107577Y0228764D03*
X0107477Y0228764D03*
X0107377Y0228764D03*
X0107277Y0228764D03*
X0107177Y0228764D03*
X0107077Y0228764D03*
X0106977Y0228764D03*
X0106877Y0228764D03*
X0106877Y0242364D03*
X0106777Y0228764D03*
X0106677Y0228764D03*
X0106558Y0131177D03*
X0106577Y0228764D03*
X0106458Y0131177D03*
X0106477Y0228764D03*
X0106377Y0181864D03*
X0106377Y0228764D03*
X0106277Y0228764D03*
X0106177Y0228764D03*
X0106077Y0228764D03*
X0105977Y0228764D03*
X0105877Y0228764D03*
X0105777Y0228764D03*
X0105677Y0228764D03*
X0105577Y0228764D03*
X0105477Y0228764D03*
X0105377Y0228764D03*
X0105277Y0228764D03*
X0105177Y0228764D03*
X0105077Y0228764D03*
X0104977Y0228764D03*
X0104877Y0228764D03*
X0104777Y0228764D03*
X0104677Y0228764D03*
X0104577Y0228764D03*
X0104477Y0228764D03*
X0104377Y0228764D03*
X0104277Y0228764D03*
X0104177Y0228764D03*
X0104077Y0228764D03*
X0103977Y0228764D03*
X0103877Y0228764D03*
X0103777Y0228764D03*
X0103677Y0228764D03*
X0103577Y0228764D03*
X0103477Y0228764D03*
X0103377Y0228764D03*
X0103277Y0228764D03*
X0103177Y0228764D03*
X0103077Y0228764D03*
X0102977Y0228764D03*
X0102877Y0228764D03*
X0102777Y0228764D03*
X0102677Y0228764D03*
X0102577Y0228764D03*
X0102477Y0228764D03*
X0102377Y0181864D03*
X0102377Y0228764D03*
X0102277Y0228764D03*
X0102177Y0228764D03*
X0102077Y0228764D03*
X0101977Y0228764D03*
X0101877Y0228764D03*
X0101777Y0228764D03*
X0101677Y0228764D03*
X0101577Y0228764D03*
X0101477Y0228764D03*
X0101377Y0228764D03*
X0101277Y0228764D03*
X0101177Y0228764D03*
X0101077Y0228764D03*
X0100977Y0228764D03*
X0100877Y0228764D03*
X0100777Y0228764D03*
X0100677Y0228764D03*
X0100577Y0228764D03*
X0100477Y0228764D03*
X0100377Y0228764D03*
X0100277Y0228764D03*
X0100177Y0228764D03*
X0100077Y0228764D03*
X0099977Y0228764D03*
X0099877Y0228764D03*
X0097177Y0228764D03*
X0097077Y0228764D03*
X0096977Y0228764D03*
X0096877Y0228764D03*
X0096777Y0228764D03*
X0096677Y0228764D03*
X0096577Y0228764D03*
X0096477Y0228764D03*
X0096377Y0228764D03*
X0096277Y0228764D03*
X0096177Y0228764D03*
X0096077Y0228764D03*
X0095977Y0228764D03*
X0095877Y0228764D03*
X0095777Y0228764D03*
X0095677Y0228764D03*
X0095577Y0228764D03*
X0095477Y0228764D03*
X0095377Y0228764D03*
X0095277Y0228764D03*
X0095177Y0228764D03*
X0095077Y0228764D03*
X0094977Y0228764D03*
X0094877Y0228764D03*
X0094777Y0228764D03*
X0094677Y0228764D03*
X0094577Y0228764D03*
X0094477Y0228764D03*
X0094377Y0228764D03*
X0094277Y0228764D03*
X0094177Y0228764D03*
X0094077Y0228764D03*
X0093977Y0228764D03*
X0093877Y0228764D03*
X0093777Y0228764D03*
X0093677Y0228764D03*
X0093577Y0228764D03*
X0093477Y0228764D03*
X0093477Y0235564D03*
X0093477Y0249164D03*
D28*
X0113058Y0117727D03*
X0112958Y0120427D03*
X0112058Y0117527D03*
X0111758Y0117827D03*
X0110858Y0117727D03*
X0110858Y0129027D03*
X0110877Y0181314D03*
X0107158Y0127227D03*
X0107177Y0170614D03*
X0106277Y0170814D03*
D29*
X0113058Y0120427D03*
X0111658Y0118027D03*
X0108477Y0178014D03*
X0106177Y0170814D03*
D30*
X0113077Y0178564D03*
X0112958Y0137677D03*
X0112977Y0181364D03*
X0112858Y0129077D03*
X0112877Y0181364D03*
X0111058Y0131977D03*
X0110958Y0131977D03*
X0110958Y0137677D03*
X0110877Y0178564D03*
X0108358Y0127477D03*
X0108377Y0170864D03*
X0108377Y0174964D03*
X0108258Y0127477D03*
X0108258Y0134877D03*
X0108277Y0170864D03*
X0108277Y0174964D03*
X0108158Y0134877D03*
X0106458Y0124677D03*
X0106358Y0124677D03*
X0106358Y0137877D03*
X0106377Y0174964D03*
X0106258Y0137877D03*
D31*
X0113077Y0181314D03*
X0112958Y0129027D03*
X0112758Y0120427D03*
X0111977Y0181314D03*
X0110858Y0137627D03*
X0108358Y0134827D03*
X0108177Y0178014D03*
X0107358Y0127427D03*
X0107377Y0170814D03*
X0106277Y0174914D03*
X0102277Y0182714D03*
D32*
X0112958Y0117727D03*
X0112858Y0120427D03*
X0111877Y0181214D03*
X0111058Y0117727D03*
X0111058Y0120427D03*
X0111058Y0129027D03*
X0110958Y0129027D03*
X0108277Y0178014D03*
X0107258Y0127327D03*
X0107277Y0170714D03*
X0106477Y0178114D03*
D33*
X0112977Y0178514D03*
X0112858Y0137727D03*
X0112877Y0178514D03*
X0112758Y0137727D03*
X0111158Y0131927D03*
X0111158Y0137727D03*
X0111058Y0137727D03*
X0111077Y0178514D03*
X0110977Y0178514D03*
X0108177Y0175014D03*
X0108058Y0134927D03*
X0108077Y0175014D03*
X0106558Y0124627D03*
X0106558Y0137827D03*
X0106577Y0175014D03*
X0106458Y0137827D03*
X0106477Y0175014D03*
D34*
X0112858Y0117677D03*
X0111958Y0128977D03*
X0111158Y0120477D03*
X0111077Y0181364D03*
X0106458Y0127477D03*
X0106477Y0170864D03*
D35*
X0112777Y0178464D03*
X0111177Y0178464D03*
X0107077Y0178064D03*
D36*
X0112258Y0119577D03*
X0110558Y0120477D03*
X0108658Y0125477D03*
X0108658Y0131177D03*
X0105958Y0124277D03*
X0105958Y0129977D03*
X0105977Y0180564D03*
D37*
X0111958Y0117677D03*
X0111858Y0117777D03*
X0111858Y0128877D03*
X0110958Y0117777D03*
X0110958Y0120477D03*
X0110977Y0181364D03*
X0108377Y0178064D03*
X0106358Y0127477D03*
X0106377Y0170864D03*
X0106377Y0178064D03*
X0106258Y0127477D03*
D38*
X0111758Y0128777D03*
X0111777Y0181064D03*
X0110858Y0120477D03*
X0106277Y0178064D03*
D39*
X0110958Y0125427D03*
X0106358Y0131227D03*
X0099777Y0221814D03*
D40*
X0110558Y0124227D03*
X0110558Y0125827D03*
X0110558Y0131527D03*
X0110558Y0138027D03*
X0110577Y0178114D03*
X0105958Y0131627D03*
X0105958Y0137427D03*
X0105977Y0182214D03*
D41*
X0108777Y0175264D03*
D42*
X0104758Y0151877D03*
D43*
X0104777Y0192364D03*
X0096277Y0200864D03*
D44*
X0097277Y0218414D03*
X0097177Y0218414D03*
X0097077Y0218414D03*
X0096977Y0218414D03*
X0096877Y0218414D03*
X0096777Y0218414D03*
X0096677Y0218414D03*
X0096577Y0218414D03*
X0096477Y0218414D03*
X0096377Y0218414D03*
X0096277Y0218414D03*
X0096177Y0218414D03*
X0096077Y0218414D03*
X0095977Y0218414D03*
X0095877Y0218414D03*
X0095777Y0218414D03*
X0095677Y0218414D03*
X0095577Y0218414D03*
X0095477Y0218414D03*
X0095377Y0218414D03*
X0095277Y0218414D03*
X0095177Y0218414D03*
X0095077Y0218414D03*
X0094977Y0218414D03*
X0094877Y0218414D03*
X0094777Y0218414D03*
X0094677Y0218414D03*
X0094577Y0218414D03*
X0094477Y0218414D03*
X0094377Y0218414D03*
X0094277Y0218414D03*
X0094177Y0218414D03*
X0094077Y0218414D03*
X0093977Y0218414D03*
X0093877Y0218414D03*
X0093777Y0218414D03*
X0093677Y0218414D03*
X0093577Y0218414D03*
X0093477Y0218414D03*
D45*
X0096258Y0151827D03*
D46*
X0096158Y0151877D03*
X0096058Y0151877D03*
X0095958Y0151877D03*
X0095858Y0151877D03*
X0095758Y0151877D03*
X0095658Y0151877D03*
X0095558Y0151877D03*
X0095458Y0151877D03*
X0095358Y0151877D03*
X0095258Y0151877D03*
X0095158Y0151877D03*
X0095058Y0151877D03*
X0094958Y0151877D03*
X0094858Y0151877D03*
X0094758Y0151877D03*
X0094658Y0151877D03*
X0094558Y0151877D03*
X0094458Y0151877D03*
X0094358Y0151877D03*
X0094258Y0151877D03*
X0094158Y0151877D03*
X0094058Y0151877D03*
X0093958Y0151877D03*
X0093858Y0151877D03*
X0093758Y0151877D03*
X0093658Y0151877D03*
X0093558Y0151877D03*
D47*
X0093458Y0151827D03*
D48*
X0025640Y0109777D02*
X0025640Y0108643D01*
X0025073Y0108076D01*
X0022804Y0108076D01*
X0022237Y0108643D01*
X0022237Y0109777D01*
X0022804Y0110344D01*
X0025073Y0110344D01*
X0025640Y0109777D01*
X0024506Y0111759D02*
X0022237Y0111759D01*
X0023371Y0111759D02*
X0024506Y0112893D01*
X0024506Y0113460D01*
X0022237Y0116529D02*
X0022237Y0115395D01*
X0022804Y0114828D01*
X0023938Y0114828D01*
X0024506Y0115395D01*
X0024506Y0116529D01*
X0023938Y0117097D01*
X0023371Y0117097D01*
X0023371Y0114828D01*
X0022237Y0118511D02*
X0024506Y0118511D01*
X0024506Y0120213D01*
X0023938Y0120780D01*
X0022237Y0120780D01*
X0025640Y0125877D02*
X0022237Y0125877D01*
X0022237Y0128146D01*
X0022237Y0131262D02*
X0022237Y0130128D01*
X0022804Y0129561D01*
X0023938Y0129561D01*
X0024506Y0130128D01*
X0024506Y0131262D01*
X0023938Y0131829D01*
X0023371Y0131829D01*
X0023371Y0129561D01*
X0025640Y0135512D02*
X0022237Y0135512D01*
X0022237Y0133811D01*
X0022804Y0133244D01*
X0023938Y0133244D01*
X0024506Y0133811D01*
X0024506Y0135512D01*
X0022237Y0138628D02*
X0022237Y0137494D01*
X0022804Y0136927D01*
X0023938Y0136927D01*
X0024506Y0137494D01*
X0024506Y0138628D01*
X0023938Y0139195D01*
X0023371Y0139195D01*
X0023371Y0136927D01*
X0022237Y0140610D02*
X0024506Y0140610D01*
X0023371Y0140610D02*
X0024506Y0141744D01*
X0024506Y0142311D01*
X0022237Y0143679D02*
X0024506Y0143679D01*
X0024506Y0144246D01*
X0023938Y0144814D01*
X0022237Y0144814D01*
X0023938Y0144814D02*
X0024506Y0145381D01*
X0023938Y0145948D01*
X0022237Y0145948D01*
X0024506Y0147930D02*
X0024506Y0149064D01*
X0023938Y0149631D01*
X0022237Y0149631D01*
X0022237Y0147930D01*
X0022804Y0147362D01*
X0023371Y0147930D01*
X0023371Y0149631D01*
X0022237Y0151046D02*
X0024506Y0151046D01*
X0024506Y0152747D01*
X0023938Y0153314D01*
X0022237Y0153314D01*
X0016237Y0108076D02*
X0018506Y0108076D01*
X0019640Y0109210D01*
X0018506Y0110344D01*
X0016237Y0110344D01*
X0017938Y0110344D02*
X0017938Y0108076D01*
X0016237Y0111759D02*
X0018506Y0111759D01*
X0018506Y0113460D01*
X0017938Y0114027D01*
X0016237Y0114027D01*
X0015103Y0116576D02*
X0015103Y0117143D01*
X0015670Y0117710D01*
X0018506Y0117710D01*
X0018506Y0116009D01*
X0017938Y0115442D01*
X0016804Y0115442D01*
X0016237Y0116009D01*
X0016237Y0117710D01*
X0018506Y0119125D02*
X0016804Y0119125D01*
X0016237Y0119692D01*
X0016237Y0121394D01*
X0018506Y0121394D01*
X0016237Y0122808D02*
X0016237Y0124510D01*
X0016804Y0125077D01*
X0017371Y0124510D01*
X0017371Y0123375D01*
X0017938Y0122808D01*
X0018506Y0123375D01*
X0018506Y0125077D01*
X0016237Y0130174D02*
X0019640Y0130174D01*
X0018506Y0131309D01*
X0019640Y0132443D01*
X0016237Y0132443D01*
X0018506Y0134425D02*
X0018506Y0135559D01*
X0017938Y0136126D01*
X0016237Y0136126D01*
X0016237Y0134425D01*
X0016804Y0133858D01*
X0017371Y0134425D01*
X0017371Y0136126D01*
X0018506Y0139809D02*
X0018506Y0138108D01*
X0017938Y0137541D01*
X0016804Y0137541D01*
X0016237Y0138108D01*
X0016237Y0139809D01*
X0016237Y0141224D02*
X0019640Y0141224D01*
X0018506Y0142358D01*
X0019640Y0143492D01*
X0016237Y0143492D01*
X0018506Y0144907D02*
X0016804Y0144907D01*
X0016237Y0145474D01*
X0016237Y0147176D01*
X0018506Y0147176D01*
X0019640Y0148590D02*
X0019640Y0149157D01*
X0016237Y0149157D01*
X0016237Y0148590D02*
X0016237Y0149724D01*
X0019640Y0151046D02*
X0019640Y0151613D01*
X0016237Y0151613D01*
X0016237Y0151046D02*
X0016237Y0152180D01*
X0016237Y0155202D02*
X0016237Y0154068D01*
X0016804Y0153501D01*
X0017938Y0153501D01*
X0018506Y0154068D01*
X0018506Y0155202D01*
X0017938Y0155770D01*
X0017371Y0155770D01*
X0017371Y0153501D01*
X0016237Y0157184D02*
X0018506Y0157184D01*
X0018506Y0158886D01*
X0017938Y0159453D01*
X0016237Y0159453D01*
X0010237Y0108076D02*
X0013640Y0108076D01*
X0012506Y0109210D01*
X0013640Y0110344D01*
X0010237Y0110344D01*
X0010237Y0111759D02*
X0010237Y0112893D01*
X0010237Y0112326D02*
X0013640Y0112326D01*
X0013640Y0111759D02*
X0013640Y0112893D01*
X0013640Y0115348D02*
X0010237Y0115348D01*
X0013640Y0114214D02*
X0013640Y0116483D01*
X0010237Y0121580D02*
X0013640Y0121580D01*
X0012506Y0122715D01*
X0013640Y0123849D01*
X0010237Y0123849D01*
X0010237Y0126965D02*
X0010237Y0125831D01*
X0010804Y0125264D01*
X0011938Y0125264D01*
X0012506Y0125831D01*
X0012506Y0126965D01*
X0011938Y0127532D01*
X0011371Y0127532D01*
X0011371Y0125264D01*
X0013640Y0131215D02*
X0010237Y0131215D01*
X0010237Y0129514D01*
X0010804Y0128947D01*
X0011938Y0128947D01*
X0012506Y0129514D01*
X0012506Y0131215D01*
X0012506Y0132630D02*
X0012506Y0133197D01*
X0010237Y0133197D01*
X0010237Y0132630D02*
X0010237Y0133764D01*
X0013640Y0133197D02*
X0014207Y0133197D01*
X0012506Y0135652D02*
X0012506Y0136787D01*
X0011938Y0137354D01*
X0010237Y0137354D01*
X0010237Y0135652D01*
X0010804Y0135085D01*
X0011371Y0135652D01*
X0011371Y0137354D01*
X0013640Y0142452D02*
X0010237Y0142452D01*
X0010237Y0144720D01*
X0012506Y0146702D02*
X0012506Y0147836D01*
X0011938Y0148403D01*
X0010237Y0148403D01*
X0010237Y0146702D01*
X0010804Y0146135D01*
X0011371Y0146702D01*
X0011371Y0148403D01*
X0013640Y0149818D02*
X0010237Y0149818D01*
X0010237Y0151519D01*
X0010804Y0152086D01*
X0011938Y0152086D01*
X0012506Y0151519D01*
X0012506Y0149818D01*
X0004237Y0108643D02*
X0004237Y0109777D01*
X0004804Y0110344D01*
X0005938Y0110344D01*
X0006506Y0109777D01*
X0006506Y0108643D01*
X0005938Y0108076D01*
X0004804Y0108076D01*
X0004237Y0108643D01*
X0004237Y0111759D02*
X0006506Y0111759D01*
X0005371Y0111759D02*
X0006506Y0112893D01*
X0006506Y0113460D01*
X0004237Y0116529D02*
X0004237Y0115395D01*
X0004804Y0114828D01*
X0005938Y0114828D01*
X0006506Y0115395D01*
X0006506Y0116529D01*
X0005938Y0117097D01*
X0005371Y0117097D01*
X0005371Y0114828D01*
X0004237Y0118511D02*
X0006506Y0118511D01*
X0006506Y0120213D01*
X0005938Y0120780D01*
X0004237Y0120780D01*
X0007640Y0122194D02*
X0007640Y0122761D01*
X0004237Y0122761D01*
X0004237Y0122194D02*
X0004237Y0123329D01*
X0004237Y0126351D02*
X0004237Y0125217D01*
X0004804Y0124650D01*
X0005938Y0124650D01*
X0006506Y0125217D01*
X0006506Y0126351D01*
X0005938Y0126918D01*
X0005371Y0126918D01*
X0005371Y0124650D01*
X0007640Y0130601D02*
X0004237Y0130601D01*
X0004237Y0128900D01*
X0004804Y0128333D01*
X0005938Y0128333D01*
X0006506Y0128900D01*
X0006506Y0130601D01*
X0004804Y0134285D02*
X0004237Y0133717D01*
X0004237Y0132583D01*
X0004804Y0132016D01*
X0007073Y0132016D01*
X0007640Y0132583D01*
X0007640Y0133717D01*
X0007073Y0134285D01*
X0005938Y0134285D01*
X0005371Y0133717D01*
X0005371Y0132583D01*
X0006506Y0132583D01*
X0006506Y0133717D01*
X0005371Y0133717D01*
X0004237Y0135699D02*
X0006506Y0135699D01*
X0006506Y0136266D01*
X0005938Y0136833D01*
X0004237Y0136833D01*
X0005938Y0136833D02*
X0006506Y0137401D01*
X0005938Y0137968D01*
X0004237Y0137968D01*
X0004237Y0141084D02*
X0004237Y0139949D01*
X0004804Y0139382D01*
X0005938Y0139382D01*
X0006506Y0139949D01*
X0006506Y0141084D01*
X0005938Y0141651D01*
X0005371Y0141651D01*
X0005371Y0139382D01*
X0007640Y0145334D02*
X0004237Y0145334D01*
X0004237Y0143633D01*
X0004804Y0143065D01*
X0005938Y0143065D01*
X0006506Y0143633D01*
X0006506Y0145334D01*
X0006506Y0146749D02*
X0006506Y0147316D01*
X0004237Y0147316D01*
X0004237Y0146749D02*
X0004237Y0147883D01*
X0007640Y0147316D02*
X0008207Y0147316D01*
X0006506Y0149771D02*
X0006506Y0150905D01*
X0005938Y0151473D01*
X0004237Y0151473D01*
X0004237Y0149771D01*
X0004804Y0149204D01*
X0005371Y0149771D01*
X0005371Y0151473D01*
X0004237Y0152887D02*
X0004804Y0152887D01*
X0004804Y0153454D01*
X0004237Y0153454D01*
X0004237Y0152887D01*
X0004237Y0154729D02*
X0006506Y0154729D01*
X0006506Y0155296D01*
X0005938Y0155863D01*
X0004237Y0155863D01*
X0005938Y0155863D02*
X0006506Y0156430D01*
X0005938Y0156997D01*
X0004237Y0156997D01*
X0006506Y0158412D02*
X0006506Y0158979D01*
X0004237Y0158979D01*
X0004237Y0158412D02*
X0004237Y0159546D01*
X0007640Y0158979D02*
X0008207Y0158979D01*
X0007073Y0161434D02*
X0004804Y0161434D01*
X0004237Y0162002D01*
X0006506Y0162002D02*
X0006506Y0160867D01*
X0004237Y0163323D02*
X0004804Y0163323D01*
X0004804Y0163890D01*
X0004237Y0163890D01*
X0004237Y0163323D01*
X0004237Y0166866D02*
X0004237Y0165731D01*
X0004804Y0165164D01*
X0005938Y0165164D01*
X0006506Y0165731D01*
X0006506Y0166866D01*
X0005938Y0167433D01*
X0005371Y0167433D01*
X0005371Y0165164D01*
X0007640Y0171116D02*
X0004237Y0171116D01*
X0004237Y0169415D01*
X0004804Y0168847D01*
X0005938Y0168847D01*
X0006506Y0169415D01*
X0006506Y0171116D01*
X0006506Y0172531D02*
X0004804Y0172531D01*
X0004237Y0173098D01*
X0004237Y0174799D01*
X0006506Y0174799D01*
X0040246Y0215734D02*
X0040814Y0216301D01*
X0041948Y0216301D01*
X0042515Y0215734D01*
X0042515Y0213466D01*
X0041948Y0212898D01*
X0040814Y0212898D01*
X0040246Y0213466D01*
X0038832Y0216301D02*
X0038832Y0212898D01*
X0036563Y0212898D01*
X0035149Y0212898D02*
X0035149Y0216301D01*
X0035149Y0214033D02*
X0032880Y0216301D01*
X0034582Y0214600D02*
X0032880Y0212898D01*
X0052850Y0222207D02*
X0052850Y0219938D01*
X0051715Y0218804D01*
X0050581Y0219938D01*
X0050581Y0222207D01*
X0046898Y0221640D02*
X0047465Y0222207D01*
X0048599Y0222207D01*
X0049166Y0221640D01*
X0049166Y0219371D01*
X0048599Y0218804D01*
X0047465Y0218804D01*
X0046898Y0219371D01*
X0043215Y0221640D02*
X0043782Y0222207D01*
X0044916Y0222207D01*
X0045483Y0221640D01*
X0045483Y0219371D01*
X0044916Y0218804D01*
X0043782Y0218804D01*
X0043215Y0219371D01*
X0038920Y0218804D02*
X0038920Y0222207D01*
X0040054Y0222207D02*
X0037786Y0222207D01*
X0036371Y0222207D02*
X0034103Y0218804D01*
X0036371Y0218804D02*
X0034103Y0222207D01*
X0051373Y0212898D02*
X0051373Y0216301D01*
X0049672Y0216301D01*
X0049105Y0215734D01*
X0049105Y0214600D01*
X0049672Y0214033D01*
X0051373Y0214033D01*
X0050239Y0214033D02*
X0049105Y0212898D01*
X0045421Y0212898D02*
X0047690Y0216301D01*
X0045421Y0216301D02*
X0047690Y0212898D01*
X0050581Y0209829D02*
X0051148Y0210396D01*
X0052282Y0210396D01*
X0052850Y0209829D01*
X0052850Y0207560D01*
X0052282Y0206993D01*
X0051148Y0206993D01*
X0050581Y0207560D01*
X0050581Y0208694D01*
X0051715Y0208694D01*
X0049166Y0206993D02*
X0049166Y0210396D01*
X0046898Y0206993D01*
X0046898Y0210396D01*
X0045483Y0210396D02*
X0045483Y0206993D01*
X0043782Y0206993D01*
X0043215Y0207560D01*
X0043215Y0209829D01*
X0043782Y0210396D01*
X0045483Y0210396D01*
X0040054Y0206993D02*
X0038920Y0206993D01*
X0039487Y0206993D02*
X0039487Y0210396D01*
X0040054Y0210396D02*
X0038920Y0210396D01*
X0035897Y0210396D02*
X0037032Y0210396D01*
X0037599Y0209829D01*
X0037599Y0207560D01*
X0037032Y0206993D01*
X0035897Y0206993D01*
X0035330Y0207560D01*
X0035330Y0209829D01*
X0035897Y0210396D01*
D49*
X0089816Y0238102D03*
X0087416Y0219302D03*
X0087416Y0200302D03*
X0086016Y0220702D03*
X0083616Y0246102D03*
X0083616Y0244702D03*
X0083016Y0212302D03*
X0082816Y0230502D03*
X0082816Y0229302D03*
X0082016Y0212302D03*
X0078616Y0214502D03*
X0078616Y0193102D03*
X0078616Y0187902D03*
X0078016Y0247302D03*
X0078016Y0243502D03*
X0077816Y0247302D03*
X0077816Y0243502D03*
X0077616Y0247302D03*
X0077616Y0243502D03*
X0077616Y0195902D03*
X0077416Y0247302D03*
X0077416Y0243502D03*
X0077216Y0247302D03*
X0077216Y0243502D03*
X0077216Y0231702D03*
X0077216Y0227902D03*
X0077016Y0247302D03*
X0077016Y0243502D03*
X0077016Y0231702D03*
X0077016Y0227902D03*
X0076816Y0247302D03*
X0076816Y0243502D03*
X0076816Y0231702D03*
X0076816Y0227902D03*
X0076616Y0247302D03*
X0076616Y0243502D03*
X0076616Y0231702D03*
X0076616Y0227902D03*
X0076416Y0247302D03*
X0076416Y0243502D03*
X0076416Y0231702D03*
X0076416Y0227902D03*
X0076216Y0247302D03*
X0076216Y0243502D03*
X0076216Y0231702D03*
X0076216Y0227902D03*
X0076016Y0247302D03*
X0076016Y0243502D03*
X0076016Y0231702D03*
X0076016Y0227902D03*
X0075816Y0247302D03*
X0075816Y0243502D03*
X0075816Y0231702D03*
X0075816Y0227902D03*
X0075616Y0247302D03*
X0075616Y0243502D03*
X0075616Y0231702D03*
X0075616Y0227902D03*
X0075416Y0247302D03*
X0075416Y0243502D03*
X0075416Y0241102D03*
X0075416Y0231702D03*
X0075416Y0227902D03*
X0075216Y0247302D03*
X0075216Y0243502D03*
X0075216Y0241102D03*
X0075216Y0231702D03*
X0075216Y0227902D03*
X0075016Y0247302D03*
X0075016Y0243502D03*
X0075016Y0241102D03*
X0075016Y0231702D03*
X0075016Y0227902D03*
X0074816Y0247302D03*
X0074816Y0243502D03*
X0074816Y0241102D03*
X0074816Y0231702D03*
X0074816Y0227902D03*
X0074816Y0191102D03*
X0074816Y0184702D03*
X0074616Y0247302D03*
X0074616Y0243502D03*
X0074616Y0241102D03*
X0074616Y0231702D03*
X0074616Y0227902D03*
X0074416Y0247302D03*
X0074416Y0243502D03*
X0074416Y0241102D03*
X0074416Y0231702D03*
X0074416Y0227902D03*
X0074216Y0247302D03*
X0074216Y0243502D03*
X0074216Y0241102D03*
X0074216Y0231702D03*
X0074216Y0227902D03*
X0074016Y0241102D03*
X0074016Y0231702D03*
X0074016Y0227902D03*
X0073816Y0241102D03*
X0073816Y0231702D03*
X0073816Y0227902D03*
X0073616Y0241102D03*
X0073616Y0231702D03*
X0073616Y0227902D03*
X0073416Y0241102D03*
X0073416Y0231702D03*
X0073416Y0227902D03*
X0073216Y0241102D03*
X0073016Y0241102D03*
X0072816Y0241102D03*
X0072016Y0241102D03*
X0071816Y0241102D03*
X0071616Y0241102D03*
X0071416Y0241102D03*
X0071416Y0229902D03*
X0071216Y0241102D03*
X0070616Y0231502D03*
X0070416Y0231502D03*
X0070216Y0231502D03*
X0069416Y0228902D03*
X0069416Y0218302D03*
X0069216Y0228902D03*
X0068816Y0245502D03*
X0068616Y0245502D03*
X0068616Y0228902D03*
X0068416Y0228902D03*
X0068216Y0245102D03*
X0068216Y0228902D03*
X0067616Y0244102D03*
X0067416Y0243902D03*
X0067216Y0243502D03*
X0066816Y0240502D03*
X0066216Y0230702D03*
X0065416Y0240502D03*
X0065416Y0233302D03*
X0065416Y0229102D03*
X0065016Y0241302D03*
X0064816Y0240902D03*
X0064216Y0231902D03*
X0063816Y0232502D03*
X0063616Y0232902D03*
D50*
X0089816Y0236202D03*
X0087216Y0212202D03*
X0087216Y0206002D03*
X0087216Y0203402D03*
X0087016Y0212202D03*
X0087016Y0206002D03*
X0087016Y0203402D03*
X0086816Y0212202D03*
X0086816Y0206002D03*
X0086816Y0203402D03*
X0086616Y0212202D03*
X0086616Y0206002D03*
X0086616Y0203402D03*
X0086416Y0212202D03*
X0086416Y0208202D03*
X0086416Y0206002D03*
X0086416Y0203402D03*
X0086416Y0195602D03*
X0086216Y0212202D03*
X0086216Y0206002D03*
X0086216Y0203402D03*
X0086016Y0212202D03*
X0086016Y0210402D03*
X0086016Y0206002D03*
X0086016Y0203402D03*
X0085816Y0216402D03*
X0085816Y0212202D03*
X0085816Y0206002D03*
X0085816Y0203402D03*
X0085616Y0216402D03*
X0085616Y0212202D03*
X0085616Y0206002D03*
X0085616Y0203402D03*
X0085616Y0201802D03*
X0085416Y0216402D03*
X0085416Y0212202D03*
X0085416Y0206002D03*
X0085416Y0203402D03*
X0085416Y0201802D03*
X0085216Y0216402D03*
X0085216Y0212202D03*
X0085216Y0206002D03*
X0085216Y0203402D03*
X0085216Y0201802D03*
X0085016Y0216402D03*
X0085016Y0212202D03*
X0085016Y0206002D03*
X0085016Y0203402D03*
X0085016Y0201802D03*
X0084816Y0212202D03*
X0084816Y0210402D03*
X0084816Y0206002D03*
X0084816Y0197802D03*
X0084816Y0195002D03*
X0084616Y0212202D03*
X0084616Y0210402D03*
X0084416Y0214202D03*
X0084416Y0212202D03*
X0084416Y0199402D03*
X0084216Y0212202D03*
X0084016Y0212202D03*
X0083816Y0212202D03*
X0083616Y0212202D03*
X0083616Y0206002D03*
X0083416Y0246002D03*
X0083416Y0244602D03*
X0083216Y0246002D03*
X0083216Y0244602D03*
X0083016Y0246002D03*
X0083016Y0244602D03*
X0082816Y0246002D03*
X0082816Y0244602D03*
X0082616Y0246002D03*
X0082616Y0244602D03*
X0082616Y0230602D03*
X0082616Y0229202D03*
X0082416Y0246002D03*
X0082416Y0244602D03*
X0082416Y0229202D03*
X0082216Y0246002D03*
X0082216Y0244602D03*
X0082216Y0229202D03*
X0082016Y0246002D03*
X0082016Y0244602D03*
X0082016Y0239802D03*
X0082016Y0234402D03*
X0082016Y0229202D03*
X0081816Y0246002D03*
X0081816Y0244602D03*
X0081816Y0229202D03*
X0081616Y0246002D03*
X0081616Y0244602D03*
X0081616Y0229202D03*
X0081416Y0246002D03*
X0081416Y0244602D03*
X0081416Y0229202D03*
X0081216Y0246002D03*
X0081216Y0244602D03*
X0081216Y0229202D03*
X0081016Y0246002D03*
X0081016Y0244602D03*
X0081016Y0229202D03*
X0080816Y0246002D03*
X0080816Y0244602D03*
X0080816Y0229202D03*
X0080616Y0246002D03*
X0080616Y0244602D03*
X0080616Y0229202D03*
X0080416Y0246002D03*
X0080416Y0244602D03*
X0080416Y0229202D03*
X0080216Y0246002D03*
X0080216Y0244602D03*
X0080216Y0229202D03*
X0080016Y0246002D03*
X0080016Y0244602D03*
X0080016Y0229202D03*
X0079816Y0246002D03*
X0079816Y0244602D03*
X0079816Y0229202D03*
X0079616Y0246002D03*
X0079616Y0244602D03*
X0079616Y0229202D03*
X0079416Y0246002D03*
X0079416Y0244602D03*
X0079416Y0229202D03*
X0079216Y0246002D03*
X0079216Y0244602D03*
X0079216Y0229202D03*
X0079016Y0246002D03*
X0079016Y0244602D03*
X0079016Y0229202D03*
X0078816Y0246002D03*
X0078816Y0244602D03*
X0078816Y0229202D03*
X0078616Y0246002D03*
X0078616Y0244602D03*
X0078616Y0229202D03*
X0078616Y0218602D03*
X0078616Y0201202D03*
X0078416Y0246002D03*
X0078416Y0244602D03*
X0078416Y0229202D03*
X0078416Y0208602D03*
X0078416Y0206802D03*
X0078416Y0204202D03*
X0078416Y0191002D03*
X0078416Y0184802D03*
X0078416Y0182202D03*
X0078216Y0246002D03*
X0078216Y0244602D03*
X0078216Y0229202D03*
X0078216Y0208602D03*
X0078216Y0206802D03*
X0078216Y0204202D03*
X0078216Y0191002D03*
X0078216Y0184802D03*
X0078216Y0182202D03*
X0078016Y0246002D03*
X0078016Y0244602D03*
X0078016Y0229202D03*
X0078016Y0208602D03*
X0078016Y0206802D03*
X0078016Y0204202D03*
X0078016Y0191002D03*
X0078016Y0184802D03*
X0078016Y0182202D03*
X0077816Y0229202D03*
X0077816Y0208602D03*
X0077816Y0206802D03*
X0077816Y0204202D03*
X0077816Y0191002D03*
X0077816Y0184802D03*
X0077816Y0182202D03*
X0077616Y0229202D03*
X0077616Y0208602D03*
X0077616Y0206802D03*
X0077616Y0204202D03*
X0077616Y0193802D03*
X0077616Y0191002D03*
X0077616Y0184802D03*
X0077616Y0182202D03*
X0077416Y0229202D03*
X0077416Y0217402D03*
X0077416Y0208602D03*
X0077416Y0206802D03*
X0077416Y0204202D03*
X0077416Y0193802D03*
X0077416Y0191002D03*
X0077416Y0184802D03*
X0077416Y0182202D03*
X0077216Y0229202D03*
X0077216Y0215802D03*
X0077216Y0208602D03*
X0077216Y0206802D03*
X0077216Y0204202D03*
X0077216Y0202602D03*
X0077216Y0193802D03*
X0077216Y0191002D03*
X0077216Y0184802D03*
X0077216Y0182202D03*
X0077016Y0215802D03*
X0077016Y0213002D03*
X0077016Y0208602D03*
X0077016Y0206802D03*
X0077016Y0204202D03*
X0077016Y0193802D03*
X0077016Y0191002D03*
X0077016Y0189402D03*
X0077016Y0184802D03*
X0077016Y0182202D03*
X0076816Y0215802D03*
X0076816Y0213002D03*
X0076816Y0208602D03*
X0076816Y0206802D03*
X0076816Y0204202D03*
X0076816Y0193802D03*
X0076816Y0191002D03*
X0076816Y0189402D03*
X0076816Y0184802D03*
X0076816Y0182202D03*
X0076616Y0215802D03*
X0076616Y0213002D03*
X0076616Y0208602D03*
X0076616Y0206802D03*
X0076616Y0204202D03*
X0076616Y0193802D03*
X0076616Y0191002D03*
X0076616Y0189402D03*
X0076616Y0184802D03*
X0076616Y0182202D03*
X0076416Y0215802D03*
X0076416Y0213002D03*
X0076416Y0208602D03*
X0076416Y0206802D03*
X0076416Y0193802D03*
X0076416Y0191002D03*
X0076416Y0189402D03*
X0076416Y0184802D03*
X0076416Y0182202D03*
X0076216Y0215802D03*
X0076216Y0213002D03*
X0076216Y0206802D03*
X0076216Y0199802D03*
X0076216Y0193802D03*
X0076216Y0191002D03*
X0076216Y0182202D03*
X0076016Y0193802D03*
X0076016Y0191002D03*
X0075816Y0193802D03*
X0075816Y0191002D03*
X0075616Y0191002D03*
X0075416Y0191002D03*
X0075216Y0191002D03*
X0075016Y0206802D03*
X0075016Y0191002D03*
X0075016Y0184802D03*
X0074816Y0217402D03*
X0074816Y0211202D03*
X0074816Y0206802D03*
X0074416Y0193802D03*
X0074216Y0193802D03*
X0074216Y0191202D03*
X0074016Y0240002D03*
X0074016Y0193802D03*
X0073816Y0240002D03*
X0073816Y0193802D03*
X0073616Y0240002D03*
X0073416Y0240002D03*
X0073416Y0191202D03*
X0073216Y0240002D03*
X0073016Y0240002D03*
X0072816Y0240002D03*
X0072216Y0245402D03*
X0072016Y0240002D03*
X0072016Y0232602D03*
X0071816Y0240002D03*
X0071816Y0232602D03*
X0071616Y0240002D03*
X0071616Y0232602D03*
X0071416Y0240002D03*
X0071016Y0237202D03*
X0070616Y0232602D03*
X0070416Y0245402D03*
X0070416Y0232602D03*
X0070216Y0232602D03*
X0070016Y0232602D03*
X0070016Y0231402D03*
X0069816Y0232602D03*
X0069816Y0231402D03*
X0069816Y0213802D03*
X0069616Y0232602D03*
X0069616Y0213802D03*
X0069416Y0232602D03*
X0069416Y0213802D03*
X0069216Y0245602D03*
X0069216Y0232602D03*
X0069216Y0218202D03*
X0069216Y0213802D03*
X0069016Y0245602D03*
X0069016Y0232602D03*
X0069016Y0228802D03*
X0069016Y0213802D03*
X0068816Y0232602D03*
X0068816Y0213802D03*
X0068616Y0232602D03*
X0068616Y0213802D03*
X0068416Y0232602D03*
X0068416Y0213802D03*
X0068216Y0232602D03*
X0068216Y0213802D03*
X0068016Y0213802D03*
X0067816Y0244402D03*
X0067816Y0213802D03*
X0067616Y0213802D03*
X0067416Y0213802D03*
X0067216Y0213802D03*
X0067016Y0243202D03*
X0067016Y0213802D03*
X0066816Y0213802D03*
X0066616Y0242202D03*
X0066616Y0213802D03*
X0066416Y0213802D03*
X0066216Y0213802D03*
X0066016Y0213802D03*
X0065816Y0213802D03*
X0065616Y0228802D03*
X0065616Y0213802D03*
X0065416Y0213802D03*
X0065216Y0213802D03*
X0065016Y0213802D03*
X0063816Y0237802D03*
X0063616Y0237602D03*
X0063416Y0242402D03*
X0063416Y0237202D03*
X0063416Y0233202D03*
X0062416Y0233002D03*
D51*
X0089616Y0238102D03*
X0086216Y0210302D03*
X0086016Y0218102D03*
X0086016Y0216302D03*
X0086016Y0201702D03*
X0086016Y0197702D03*
X0085816Y0218102D03*
X0085816Y0201702D03*
X0085816Y0197702D03*
X0085616Y0218102D03*
X0085016Y0210502D03*
X0085016Y0207702D03*
X0085016Y0197702D03*
X0085016Y0195102D03*
X0084816Y0216302D03*
X0084816Y0207702D03*
X0084816Y0203502D03*
X0084816Y0201702D03*
X0084616Y0207902D03*
X0084616Y0205902D03*
X0084616Y0203502D03*
X0084616Y0197702D03*
X0084616Y0195102D03*
X0084416Y0207902D03*
X0083616Y0220702D03*
X0083416Y0220502D03*
X0082816Y0212302D03*
X0082416Y0230502D03*
X0082216Y0230502D03*
X0082216Y0212302D03*
X0082016Y0230502D03*
X0081816Y0239702D03*
X0081816Y0234502D03*
X0081816Y0230502D03*
X0081616Y0239702D03*
X0081616Y0234502D03*
X0081616Y0230502D03*
X0081416Y0239702D03*
X0081416Y0234502D03*
X0081416Y0230502D03*
X0081216Y0239702D03*
X0081216Y0234502D03*
X0081216Y0230502D03*
X0081016Y0239702D03*
X0081016Y0234502D03*
X0081016Y0230502D03*
X0080816Y0239702D03*
X0080816Y0234502D03*
X0080816Y0230502D03*
X0080616Y0239702D03*
X0080616Y0234502D03*
X0080616Y0230502D03*
X0080416Y0239702D03*
X0080416Y0234502D03*
X0080416Y0230502D03*
X0080216Y0239702D03*
X0080216Y0234502D03*
X0080216Y0230502D03*
X0080016Y0239702D03*
X0080016Y0234502D03*
X0080016Y0230502D03*
X0079816Y0239702D03*
X0079816Y0234502D03*
X0079816Y0230502D03*
X0079616Y0239702D03*
X0079616Y0234502D03*
X0079616Y0230502D03*
X0079416Y0239702D03*
X0079416Y0234502D03*
X0079416Y0230502D03*
X0079216Y0239702D03*
X0079216Y0234502D03*
X0079216Y0230502D03*
X0079016Y0239702D03*
X0079016Y0234502D03*
X0079016Y0230502D03*
X0078816Y0239702D03*
X0078816Y0234502D03*
X0078816Y0230502D03*
X0078616Y0239702D03*
X0078616Y0234502D03*
X0078616Y0230502D03*
X0078416Y0239702D03*
X0078416Y0234502D03*
X0078416Y0230502D03*
X0078416Y0211302D03*
X0078216Y0239702D03*
X0078216Y0234502D03*
X0078216Y0230502D03*
X0078216Y0211302D03*
X0078016Y0239702D03*
X0078016Y0234502D03*
X0078016Y0230502D03*
X0078016Y0211302D03*
X0077816Y0239702D03*
X0077816Y0234502D03*
X0077816Y0230502D03*
X0077816Y0211302D03*
X0077616Y0239702D03*
X0077616Y0234502D03*
X0077616Y0230502D03*
X0077616Y0211302D03*
X0077616Y0202302D03*
X0077416Y0239702D03*
X0077416Y0234502D03*
X0077416Y0230502D03*
X0077416Y0215702D03*
X0077416Y0213102D03*
X0077416Y0211302D03*
X0077416Y0202502D03*
X0077416Y0198102D03*
X0077216Y0239702D03*
X0077216Y0234502D03*
X0077216Y0230502D03*
X0077216Y0220502D03*
X0077216Y0213102D03*
X0077216Y0211302D03*
X0077216Y0198302D03*
X0077216Y0189302D03*
X0077216Y0186502D03*
X0077016Y0239702D03*
X0077016Y0234502D03*
X0077016Y0211302D03*
X0077016Y0198302D03*
X0077016Y0186502D03*
X0076816Y0239702D03*
X0076816Y0234502D03*
X0076816Y0220702D03*
X0076816Y0211302D03*
X0076816Y0198302D03*
X0076816Y0186502D03*
X0076616Y0239702D03*
X0076616Y0234502D03*
X0076616Y0220702D03*
X0076616Y0211302D03*
X0076616Y0198302D03*
X0076616Y0186502D03*
X0076416Y0239702D03*
X0076416Y0234502D03*
X0076416Y0211302D03*
X0076416Y0204302D03*
X0076416Y0198302D03*
X0076416Y0186502D03*
X0076216Y0220902D03*
X0076216Y0211302D03*
X0076216Y0208702D03*
X0076216Y0204302D03*
X0076216Y0202502D03*
X0076216Y0198302D03*
X0076216Y0189302D03*
X0076216Y0186502D03*
X0076216Y0184702D03*
X0076016Y0220902D03*
X0076016Y0215702D03*
X0076016Y0213102D03*
X0076016Y0208702D03*
X0076016Y0206702D03*
X0076016Y0204302D03*
X0076016Y0202502D03*
X0076016Y0199902D03*
X0076016Y0198102D03*
X0076016Y0189302D03*
X0076016Y0184702D03*
X0076016Y0182302D03*
X0075816Y0208702D03*
X0075816Y0204302D03*
X0075816Y0202302D03*
X0075816Y0200102D03*
X0075816Y0186702D03*
X0075816Y0182302D03*
X0075616Y0220702D03*
X0075616Y0193902D03*
X0075416Y0220702D03*
X0075016Y0211302D03*
X0074816Y0209502D03*
X0074816Y0205102D03*
X0074816Y0183102D03*
X0074616Y0193902D03*
X0074016Y0191102D03*
X0073816Y0191102D03*
X0073616Y0218702D03*
X0073616Y0191102D03*
X0071816Y0234902D03*
X0071216Y0231302D03*
X0069816Y0220502D03*
X0069816Y0215902D03*
X0069816Y0210702D03*
X0069616Y0231302D03*
X0069616Y0229902D03*
X0069616Y0220502D03*
X0069616Y0215902D03*
X0069616Y0210702D03*
X0069416Y0220502D03*
X0069416Y0215902D03*
X0069416Y0210702D03*
X0069216Y0220502D03*
X0069216Y0215902D03*
X0069216Y0210702D03*
X0069016Y0220502D03*
X0069016Y0218302D03*
X0069016Y0215902D03*
X0069016Y0210702D03*
X0068816Y0228702D03*
X0068816Y0220502D03*
X0068816Y0215902D03*
X0068816Y0210702D03*
X0068616Y0220502D03*
X0068616Y0215902D03*
X0068616Y0210702D03*
X0068416Y0220502D03*
X0068416Y0215902D03*
X0068416Y0210702D03*
X0068216Y0220502D03*
X0068216Y0215902D03*
X0068216Y0210702D03*
X0068016Y0220502D03*
X0068016Y0215902D03*
X0068016Y0210702D03*
X0067816Y0220502D03*
X0067816Y0215902D03*
X0067816Y0210702D03*
X0067616Y0220502D03*
X0067616Y0215902D03*
X0067616Y0210702D03*
X0067416Y0220502D03*
X0067416Y0217502D03*
X0067416Y0215902D03*
X0067416Y0210702D03*
X0067216Y0220502D03*
X0067216Y0219102D03*
X0067216Y0215902D03*
X0067216Y0210702D03*
X0067016Y0210702D03*
X0066816Y0210702D03*
X0066616Y0240502D03*
X0066616Y0210702D03*
X0066416Y0210702D03*
X0066216Y0210702D03*
X0065616Y0240502D03*
X0064616Y0240502D03*
X0064416Y0239902D03*
X0064416Y0235302D03*
X0064416Y0230702D03*
D52*
X0089616Y0236202D03*
X0089416Y0236202D03*
X0089216Y0236202D03*
X0089016Y0236202D03*
X0088816Y0236202D03*
X0088616Y0236202D03*
X0088416Y0236202D03*
X0088216Y0236202D03*
X0088016Y0236202D03*
X0087816Y0236202D03*
X0087616Y0236202D03*
X0087416Y0236202D03*
X0087216Y0236202D03*
X0087016Y0236202D03*
X0086816Y0236202D03*
X0086616Y0236202D03*
X0086416Y0236202D03*
X0086416Y0197402D03*
X0086216Y0236202D03*
X0086216Y0220602D03*
X0086216Y0218202D03*
X0086216Y0216202D03*
X0086216Y0201602D03*
X0086216Y0197602D03*
X0086016Y0236202D03*
X0085816Y0236202D03*
X0085816Y0210402D03*
X0085616Y0236202D03*
X0085416Y0236202D03*
X0085216Y0236202D03*
X0085016Y0236202D03*
X0084816Y0236202D03*
X0084616Y0236202D03*
X0084616Y0216202D03*
X0084616Y0201602D03*
X0084416Y0236202D03*
X0084416Y0210202D03*
X0084416Y0205802D03*
X0084416Y0203602D03*
X0084416Y0201402D03*
X0084416Y0197402D03*
X0084216Y0236202D03*
X0084016Y0236202D03*
X0083816Y0236202D03*
X0083816Y0220602D03*
X0083616Y0236202D03*
X0083616Y0204402D03*
X0083416Y0236202D03*
X0083216Y0236202D03*
X0083016Y0236202D03*
X0082816Y0236202D03*
X0082616Y0236202D03*
X0082616Y0212202D03*
X0082416Y0236202D03*
X0082416Y0212202D03*
X0082216Y0236202D03*
X0082016Y0236202D03*
X0081816Y0236202D03*
X0081616Y0236202D03*
X0077616Y0215602D03*
X0077616Y0213202D03*
X0077616Y0198002D03*
X0077616Y0186802D03*
X0077416Y0189202D03*
X0077416Y0186602D03*
X0077016Y0220602D03*
X0076416Y0220802D03*
X0076016Y0211202D03*
X0076016Y0186602D03*
X0075816Y0220802D03*
X0075816Y0215602D03*
X0075816Y0213202D03*
X0075816Y0211202D03*
X0075816Y0206602D03*
X0075816Y0198002D03*
X0075816Y0189202D03*
X0075816Y0184602D03*
X0075616Y0209002D03*
X0075616Y0204602D03*
X0075616Y0182402D03*
X0075216Y0220602D03*
X0075016Y0220402D03*
X0074816Y0214402D03*
X0074816Y0196802D03*
X0073616Y0237202D03*
X0072016Y0245402D03*
X0071416Y0231202D03*
X0071216Y0232802D03*
X0071216Y0229802D03*
X0069416Y0231202D03*
X0068816Y0218202D03*
X0067416Y0219002D03*
X0067216Y0217402D03*
X0066016Y0230802D03*
X0066016Y0210602D03*
X0065816Y0240402D03*
X0065616Y0239002D03*
X0065016Y0216202D03*
X0064616Y0235002D03*
X0063216Y0236602D03*
D53*
X0089416Y0238102D03*
X0089216Y0238102D03*
X0089016Y0238102D03*
X0088816Y0238102D03*
X0088616Y0238102D03*
X0088416Y0238102D03*
X0088216Y0238102D03*
X0088016Y0238102D03*
X0087816Y0238102D03*
X0087616Y0238102D03*
X0087416Y0238102D03*
X0087216Y0238102D03*
X0087216Y0214902D03*
X0087216Y0200302D03*
X0087016Y0238102D03*
X0086816Y0238102D03*
X0086616Y0238102D03*
X0086416Y0238102D03*
X0086416Y0210102D03*
X0086216Y0238102D03*
X0086016Y0238102D03*
X0085816Y0238102D03*
X0085616Y0238102D03*
X0085416Y0238102D03*
X0085416Y0218302D03*
X0085216Y0238102D03*
X0085016Y0238102D03*
X0084816Y0238102D03*
X0084616Y0238102D03*
X0084416Y0238102D03*
X0084416Y0216102D03*
X0084416Y0195302D03*
X0084216Y0238102D03*
X0084016Y0238102D03*
X0084016Y0220502D03*
X0083816Y0238102D03*
X0083616Y0238102D03*
X0083416Y0238102D03*
X0083216Y0238102D03*
X0083216Y0220302D03*
X0083216Y0218502D03*
X0083016Y0238102D03*
X0082816Y0238102D03*
X0082616Y0238102D03*
X0082416Y0238102D03*
X0082216Y0238102D03*
X0082016Y0238102D03*
X0081816Y0238102D03*
X0078416Y0193102D03*
X0077616Y0189102D03*
X0077416Y0220302D03*
X0075616Y0206502D03*
X0074816Y0220302D03*
X0074816Y0201102D03*
X0074816Y0187902D03*
X0071816Y0245302D03*
X0071616Y0234502D03*
X0071216Y0237102D03*
X0070616Y0245302D03*
X0069816Y0229902D03*
X0068616Y0218302D03*
X0068016Y0244702D03*
X0066816Y0242902D03*
X0066216Y0240502D03*
X0066016Y0240502D03*
X0065416Y0238302D03*
X0065016Y0220302D03*
X0064616Y0230702D03*
D54*
X0087416Y0215002D03*
X0087416Y0212202D03*
X0087416Y0209002D03*
X0087416Y0206002D03*
X0087416Y0203602D03*
X0087416Y0196402D03*
X0086216Y0214002D03*
X0086216Y0199402D03*
X0083416Y0218202D03*
X0082216Y0239802D03*
X0082216Y0234402D03*
X0078616Y0196802D03*
X0078216Y0247202D03*
X0077616Y0200202D03*
X0077416Y0228002D03*
X0075816Y0195802D03*
X0075616Y0241002D03*
X0074416Y0191202D03*
X0072216Y0232602D03*
X0071416Y0239002D03*
X0071416Y0228802D03*
X0071216Y0242002D03*
X0071016Y0242002D03*
X0070816Y0242002D03*
X0070616Y0242002D03*
X0070416Y0242002D03*
X0070216Y0242002D03*
X0070216Y0237002D03*
X0070016Y0242002D03*
X0070016Y0237002D03*
X0069816Y0242002D03*
X0069816Y0237002D03*
X0069616Y0242002D03*
X0069616Y0228802D03*
X0069416Y0242002D03*
X0069216Y0242002D03*
X0069016Y0242002D03*
X0068816Y0242002D03*
X0068616Y0242002D03*
X0068416Y0242002D03*
X0068016Y0227602D03*
X0067616Y0227402D03*
X0067016Y0236402D03*
X0066816Y0236402D03*
X0066816Y0227402D03*
X0066416Y0227602D03*
X0066216Y0232402D03*
X0066016Y0232602D03*
X0066016Y0228202D03*
X0065816Y0239202D03*
X0065816Y0232802D03*
X0065816Y0228402D03*
X0065616Y0242002D03*
X0065416Y0241802D03*
X0065216Y0241602D03*
X0065216Y0239602D03*
X0065216Y0233602D03*
X0064816Y0239202D03*
X0064616Y0244002D03*
X0064616Y0239002D03*
X0064416Y0238802D03*
X0064016Y0243402D03*
X0064016Y0241402D03*
X0064016Y0235202D03*
X0064016Y0232202D03*
X0063816Y0243202D03*
X0063816Y0241602D03*
X0063816Y0231202D03*
X0063016Y0232002D03*
X0062816Y0235202D03*
X0062816Y0234002D03*
X0062816Y0232202D03*
D55*
X0087216Y0219302D03*
X0084216Y0220102D03*
X0083616Y0209102D03*
X0083616Y0200302D03*
X0078416Y0201102D03*
X0078416Y0196902D03*
X0077816Y0193302D03*
X0075016Y0183102D03*
X0073416Y0237102D03*
X0072616Y0240502D03*
X0072016Y0243302D03*
X0071616Y0245302D03*
X0071416Y0245302D03*
X0071416Y0237102D03*
X0071216Y0245302D03*
X0071016Y0245302D03*
X0070816Y0232102D03*
X0070616Y0229902D03*
X0070416Y0229902D03*
X0070216Y0229902D03*
X0068216Y0218302D03*
X0067016Y0240502D03*
X0066016Y0220102D03*
X0065816Y0220102D03*
X0065616Y0230702D03*
X0065616Y0220102D03*
X0065616Y0216302D03*
X0065416Y0230702D03*
X0065416Y0216302D03*
X0065216Y0230702D03*
X0065016Y0230702D03*
D56*
X0087216Y0209002D03*
X0087216Y0196402D03*
X0083616Y0215002D03*
X0083616Y0196402D03*
X0081616Y0238002D03*
X0078216Y0193202D03*
X0075616Y0211002D03*
X0075616Y0184402D03*
X0075016Y0209602D03*
X0075016Y0205202D03*
X0071216Y0239602D03*
X0071016Y0229802D03*
X0070816Y0245402D03*
X0070816Y0229802D03*
X0070016Y0229802D03*
X0069216Y0231002D03*
X0068416Y0218202D03*
X0065816Y0230802D03*
X0065416Y0220202D03*
X0065216Y0220202D03*
X0065216Y0216202D03*
X0064816Y0230802D03*
X0063616Y0242402D03*
X0063216Y0234002D03*
X0062616Y0233002D03*
D57*
X0087016Y0219302D03*
X0084816Y0219302D03*
X0084616Y0219502D03*
X0084016Y0209102D03*
X0083816Y0200302D03*
X0078216Y0214502D03*
X0078216Y0196902D03*
X0078216Y0187902D03*
X0075216Y0196702D03*
X0075216Y0187902D03*
X0072816Y0237102D03*
X0072616Y0237102D03*
X0072416Y0237102D03*
X0072216Y0237102D03*
X0072016Y0237102D03*
X0071016Y0240102D03*
X0070816Y0240102D03*
X0070616Y0240102D03*
X0070416Y0240102D03*
X0070216Y0240102D03*
X0070016Y0240102D03*
X0069816Y0240102D03*
X0069616Y0240102D03*
X0069416Y0240102D03*
X0069216Y0240102D03*
X0069016Y0240102D03*
X0068816Y0240102D03*
X0068616Y0240102D03*
X0068416Y0240102D03*
X0067216Y0240502D03*
D58*
X0087016Y0214902D03*
X0087016Y0200302D03*
X0087016Y0196302D03*
X0085216Y0218702D03*
X0083816Y0209102D03*
X0077816Y0245302D03*
X0077616Y0245302D03*
X0077416Y0245302D03*
X0077216Y0245302D03*
X0077016Y0245302D03*
X0077016Y0229902D03*
X0076816Y0245302D03*
X0076816Y0229902D03*
X0076616Y0245302D03*
X0076616Y0229902D03*
X0076416Y0245302D03*
X0076416Y0229902D03*
X0076216Y0245302D03*
X0076216Y0229902D03*
X0076016Y0245302D03*
X0076016Y0229902D03*
X0075816Y0245302D03*
X0075816Y0229902D03*
X0075616Y0245302D03*
X0075616Y0229902D03*
X0075416Y0245302D03*
X0075416Y0229902D03*
X0075216Y0245302D03*
X0075216Y0229902D03*
X0075016Y0245302D03*
X0075016Y0229902D03*
X0075016Y0187902D03*
X0074816Y0245302D03*
X0074816Y0229902D03*
X0074616Y0245302D03*
X0074616Y0229902D03*
X0074416Y0245302D03*
X0074416Y0229902D03*
X0074216Y0245302D03*
X0074216Y0229902D03*
X0074016Y0229902D03*
X0073816Y0229902D03*
X0073616Y0229902D03*
X0073416Y0229902D03*
X0073216Y0237102D03*
X0073016Y0237102D03*
X0071616Y0237102D03*
X0069016Y0230702D03*
X0068816Y0230702D03*
X0068616Y0230702D03*
X0068416Y0230702D03*
X0068216Y0230702D03*
X0067816Y0218302D03*
X0066816Y0219902D03*
X0066616Y0219902D03*
X0066616Y0216502D03*
X0066416Y0216502D03*
D59*
X0087016Y0209002D03*
X0085016Y0219002D03*
X0084416Y0219802D03*
X0083816Y0215002D03*
X0083816Y0196402D03*
X0078416Y0218802D03*
X0078216Y0201202D03*
X0075416Y0193602D03*
X0075216Y0201202D03*
X0075216Y0193602D03*
X0075016Y0193602D03*
X0073816Y0218802D03*
X0071816Y0237202D03*
X0067616Y0218202D03*
X0067016Y0219802D03*
X0067016Y0216602D03*
X0066816Y0216602D03*
X0066416Y0241002D03*
X0065216Y0236802D03*
X0063016Y0235202D03*
D60*
X0086816Y0219402D03*
X0084216Y0215002D03*
X0084216Y0204802D03*
X0084216Y0196402D03*
X0081416Y0237202D03*
X0081216Y0237202D03*
X0081016Y0237202D03*
X0080816Y0237202D03*
X0080616Y0237202D03*
X0080416Y0237202D03*
X0080216Y0237202D03*
X0080016Y0237202D03*
X0079816Y0237202D03*
X0079616Y0237202D03*
X0079416Y0237202D03*
X0079216Y0237202D03*
X0079016Y0237202D03*
X0078816Y0237202D03*
X0078616Y0237202D03*
X0078416Y0237202D03*
X0078216Y0237202D03*
X0078016Y0237202D03*
X0077816Y0237202D03*
X0077816Y0214402D03*
X0077816Y0188002D03*
X0077616Y0237202D03*
X0077416Y0237202D03*
X0077216Y0237202D03*
X0077016Y0237202D03*
X0076816Y0237202D03*
X0076616Y0237202D03*
X0075616Y0214402D03*
X0075616Y0201202D03*
X0075416Y0205602D03*
X0075416Y0183602D03*
X0075216Y0210202D03*
X0075216Y0183602D03*
X0072616Y0245402D03*
X0071816Y0229802D03*
X0067416Y0240402D03*
X0066616Y0230802D03*
D61*
X0086816Y0215002D03*
X0086816Y0209002D03*
X0086816Y0200402D03*
X0086816Y0196402D03*
X0086616Y0196402D03*
X0084016Y0200402D03*
X0084016Y0196402D03*
X0083816Y0205002D03*
X0082616Y0219202D03*
X0078216Y0218802D03*
X0078016Y0201202D03*
X0077816Y0201402D03*
X0075616Y0197002D03*
X0075416Y0201202D03*
X0075216Y0214402D03*
X0064016Y0237602D03*
D62*
X0086616Y0219502D03*
X0083016Y0219302D03*
X0076416Y0237102D03*
X0075616Y0187902D03*
X0075416Y0210102D03*
X0068216Y0240502D03*
X0068016Y0240502D03*
X0067816Y0240502D03*
X0067616Y0240502D03*
D63*
X0086616Y0214902D03*
X0086616Y0209102D03*
X0086616Y0200302D03*
X0086416Y0215102D03*
X0086416Y0200502D03*
X0084216Y0209102D03*
X0084216Y0200502D03*
X0084016Y0214902D03*
X0084016Y0204902D03*
X0082816Y0219302D03*
X0078016Y0214502D03*
X0078016Y0196902D03*
X0078016Y0187902D03*
X0077816Y0196902D03*
X0075416Y0214502D03*
X0075416Y0196902D03*
X0075416Y0187902D03*
X0075216Y0205702D03*
X0074016Y0218702D03*
D64*
X0086416Y0219502D03*
X0085616Y0209102D03*
X0085416Y0209102D03*
X0085416Y0196302D03*
X0085216Y0209102D03*
X0085216Y0196302D03*
X0077816Y0218702D03*
X0074416Y0218702D03*
X0072016Y0229902D03*
X0066816Y0230702D03*
X0065616Y0210502D03*
X0065416Y0210502D03*
X0065216Y0210502D03*
D65*
X0086216Y0208102D03*
X0086216Y0195502D03*
X0086016Y0213902D03*
X0086016Y0199302D03*
X0084616Y0213902D03*
X0084616Y0199302D03*
X0078216Y0243502D03*
X0077616Y0192502D03*
X0077416Y0231702D03*
X0077416Y0195902D03*
X0077216Y0217302D03*
X0075016Y0217302D03*
X0073216Y0191102D03*
X0071816Y0244102D03*
X0071416Y0241902D03*
X0071216Y0228702D03*
X0070616Y0237102D03*
X0070416Y0237102D03*
X0070016Y0244902D03*
X0069816Y0245502D03*
X0069816Y0244902D03*
X0069816Y0228702D03*
X0069616Y0246102D03*
X0069616Y0245502D03*
X0069616Y0244902D03*
X0069616Y0236902D03*
X0069416Y0246102D03*
X0069416Y0245502D03*
X0069416Y0244702D03*
X0069416Y0236902D03*
X0069416Y0229902D03*
X0069216Y0244702D03*
X0069216Y0236902D03*
X0069016Y0244702D03*
X0069016Y0236902D03*
X0068816Y0244502D03*
X0068816Y0236902D03*
X0068616Y0244502D03*
X0068616Y0228102D03*
X0068416Y0245302D03*
X0068416Y0244302D03*
X0068416Y0236702D03*
X0068416Y0227902D03*
X0068216Y0244302D03*
X0068216Y0236702D03*
X0068216Y0227702D03*
X0068016Y0236702D03*
X0067816Y0245302D03*
X0067816Y0236702D03*
X0067816Y0227502D03*
X0067616Y0236502D03*
X0067416Y0245102D03*
X0067416Y0236502D03*
X0067416Y0227302D03*
X0067216Y0245102D03*
X0067216Y0236502D03*
X0067216Y0227302D03*
X0067016Y0245102D03*
X0067016Y0227302D03*
X0066616Y0244902D03*
X0066616Y0243102D03*
X0066616Y0236302D03*
X0066616Y0227502D03*
X0066416Y0244902D03*
X0066416Y0242902D03*
X0066416Y0236302D03*
X0066416Y0232102D03*
X0066216Y0244902D03*
X0066216Y0242702D03*
X0066216Y0227902D03*
X0066016Y0244702D03*
X0066016Y0242502D03*
X0066016Y0236102D03*
X0065816Y0244702D03*
X0065816Y0242302D03*
X0065816Y0236102D03*
X0065616Y0244502D03*
X0065616Y0235902D03*
X0065616Y0233102D03*
X0065416Y0244502D03*
X0065416Y0239702D03*
X0065416Y0235902D03*
X0065016Y0244302D03*
X0065016Y0240502D03*
X0065016Y0239302D03*
X0064816Y0244102D03*
X0064416Y0243902D03*
X0064416Y0240902D03*
X0064416Y0231702D03*
X0064216Y0243702D03*
X0064216Y0241102D03*
X0064016Y0231102D03*
X0063816Y0235102D03*
X0063616Y0234902D03*
X0063616Y0231302D03*
X0063416Y0234702D03*
X0063416Y0231502D03*
X0063216Y0231702D03*
D66*
X0085816Y0220802D03*
X0083816Y0246002D03*
X0083816Y0244602D03*
X0083616Y0218202D03*
X0083016Y0229202D03*
X0077216Y0195802D03*
X0076016Y0195802D03*
X0075816Y0241002D03*
X0075216Y0217402D03*
X0071616Y0231802D03*
X0071016Y0228602D03*
X0070816Y0228602D03*
X0070616Y0228602D03*
X0070416Y0228602D03*
X0070216Y0246202D03*
X0070216Y0244802D03*
X0070216Y0228602D03*
X0070016Y0246202D03*
X0070016Y0245402D03*
X0070016Y0228602D03*
X0069816Y0246202D03*
X0068616Y0236802D03*
X0067616Y0245202D03*
X0066816Y0245002D03*
X0066216Y0241602D03*
X0066216Y0236202D03*
X0065216Y0244402D03*
X0065216Y0229402D03*
D67*
X0085616Y0196402D03*
X0078016Y0218802D03*
X0077016Y0201202D03*
X0076816Y0201202D03*
X0076616Y0201202D03*
X0076416Y0201202D03*
X0074216Y0218802D03*
X0065816Y0210602D03*
X0065016Y0210602D03*
D68*
X0082416Y0219402D03*
X0078416Y0214402D03*
X0078416Y0188002D03*
X0078016Y0193202D03*
X0075016Y0214402D03*
X0075016Y0201202D03*
X0075016Y0196802D03*
X0074816Y0193602D03*
X0071416Y0233202D03*
X0071016Y0232002D03*
X0068016Y0218202D03*
X0066416Y0220002D03*
X0066216Y0220002D03*
X0066216Y0216402D03*
X0066016Y0216402D03*
X0065816Y0216402D03*
D69*
X0077616Y0218802D03*
X0074616Y0218802D03*
X0072816Y0245402D03*
X0072416Y0240802D03*
X0064816Y0234002D03*
D70*
X0076216Y0237102D03*
X0076016Y0237102D03*
X0075816Y0237102D03*
X0075616Y0237102D03*
X0075016Y0237302D03*
X0074816Y0237302D03*
D71*
X0075416Y0237202D03*
X0075216Y0237202D03*
D72*
X0074616Y0237402D03*
D73*
X0074416Y0237502D03*
D74*
X0074216Y0237702D03*
D75*
X0074016Y0245402D03*
X0073816Y0245402D03*
X0073616Y0245402D03*
X0073416Y0245402D03*
X0073216Y0245402D03*
X0073216Y0229802D03*
X0073016Y0229802D03*
X0072816Y0229802D03*
X0072616Y0229802D03*
X0072416Y0229802D03*
X0068016Y0230802D03*
X0067816Y0230802D03*
X0067616Y0230802D03*
X0067416Y0230802D03*
X0067216Y0230802D03*
D76*
X0073016Y0245302D03*
X0072216Y0229902D03*
X0067016Y0230702D03*
D77*
X0072216Y0241202D03*
D78*
X0065016Y0234502D03*
D79*
X0064216Y0237502D03*
D80*
X0044724Y0111582D02*
X0044724Y0109447D01*
X0043657Y0108380D01*
X0039386Y0108380D01*
X0038319Y0109447D01*
X0038319Y0111582D01*
X0039386Y0112650D01*
X0043657Y0112650D01*
X0044724Y0111582D01*
X0036184Y0115377D02*
X0042589Y0115377D01*
X0042589Y0118580D01*
X0041522Y0119648D01*
X0039386Y0119648D01*
X0038319Y0118580D01*
X0038319Y0115377D01*
X0038319Y0125578D02*
X0038319Y0123443D01*
X0039386Y0122375D01*
X0041522Y0122375D01*
X0042589Y0123443D01*
X0042589Y0125578D01*
X0041522Y0126646D01*
X0040454Y0126646D01*
X0040454Y0122375D01*
X0038319Y0129373D02*
X0042589Y0129373D01*
X0042589Y0132576D01*
X0041522Y0133644D01*
X0038319Y0133644D01*
X0038319Y0136371D02*
X0044724Y0136371D01*
X0044724Y0139574D01*
X0043657Y0140642D01*
X0042589Y0140642D01*
X0041522Y0139574D01*
X0040454Y0140642D01*
X0039386Y0140642D01*
X0038319Y0139574D01*
X0038319Y0136371D01*
X0041522Y0136371D02*
X0041522Y0139574D01*
X0042589Y0144437D02*
X0042589Y0146572D01*
X0041522Y0147640D01*
X0038319Y0147640D01*
X0038319Y0144437D01*
X0039386Y0143369D01*
X0040454Y0144437D01*
X0040454Y0147640D01*
X0044724Y0154638D02*
X0038319Y0154638D01*
X0038319Y0151435D01*
X0039386Y0150367D01*
X0041522Y0150367D01*
X0042589Y0151435D01*
X0042589Y0154638D01*
X0036184Y0159500D02*
X0036184Y0160568D01*
X0037251Y0161636D01*
X0042589Y0161636D01*
X0042589Y0158433D01*
X0041522Y0157365D01*
X0039386Y0157365D01*
X0038319Y0158433D01*
X0038319Y0161636D01*
X0038319Y0167566D02*
X0038319Y0165431D01*
X0039386Y0164363D01*
X0041522Y0164363D01*
X0042589Y0165431D01*
X0042589Y0167566D01*
X0041522Y0168634D01*
X0040454Y0168634D01*
X0040454Y0164363D01*
X0029544Y0133478D02*
X0033814Y0133478D01*
X0034882Y0134546D01*
X0034882Y0136681D01*
X0033814Y0137748D01*
X0029544Y0137748D01*
X0028476Y0136681D01*
X0028476Y0134546D01*
X0029544Y0133478D01*
X0033814Y0137748D01*
X0033814Y0140476D02*
X0034882Y0141543D01*
X0034882Y0143679D01*
X0033814Y0144746D01*
X0032747Y0144746D01*
X0031679Y0143679D01*
X0031679Y0142611D01*
X0031679Y0143679D02*
X0030612Y0144746D01*
X0029544Y0144746D01*
X0028476Y0143679D01*
X0028476Y0141543D01*
X0029544Y0140476D01*
X0032747Y0147474D02*
X0028476Y0149609D01*
X0032747Y0151744D01*
X0034882Y0158742D02*
X0034882Y0154472D01*
X0031679Y0154472D01*
X0032747Y0156607D01*
X0032747Y0157675D01*
X0031679Y0158742D01*
X0029544Y0158742D01*
X0028476Y0157675D01*
X0028476Y0155539D01*
X0029544Y0154472D01*
X0029078Y0094633D02*
X0033767Y0091099D01*
X0029656Y0090521D02*
X0033189Y0095211D01*
X0109560Y0032753D02*
X0114249Y0029219D01*
X0059055Y0111220D02*
X0059055Y0115157D01*
D81*
X0088583Y0077165D02*
X0100591Y0066535D01*
X0029528Y0077165D02*
X0017520Y0066535D01*
X0017520Y0027815D02*
X0024055Y0020728D01*
X0094055Y0020728D02*
X0100591Y0027815D01*
X0017520Y0060827D02*
X0017520Y0066535D01*
X0100591Y0066535D02*
X0100591Y0060827D01*
X0100591Y0035630D02*
X0100591Y0027815D01*
X0017520Y0027815D02*
X0017520Y0035630D01*
X0091555Y0023228D02*
X0094055Y0020728D01*
X0026555Y0023228D02*
X0024055Y0020728D01*
D82*
X0008315Y0069210D02*
X0005171Y0071579D01*
X0011459Y0066840D02*
X0014604Y0064471D01*
X0005171Y0071579D02*
X0007540Y0074723D01*
X0019387Y0090445D02*
X0021756Y0093589D01*
X0024901Y0091219D01*
X0028045Y0088850D02*
X0031189Y0086481D01*
X0098723Y0006012D02*
X0096354Y0002868D01*
X0093210Y0005237D01*
X0090065Y0007607D02*
X0086921Y0009976D01*
X0110570Y0021733D02*
X0112939Y0024878D01*
X0109795Y0027247D01*
X0106651Y0029616D02*
X0103507Y0031986D01*
X0052856Y0092337D02*
X0049712Y0094706D01*
X0056000Y0089968D02*
X0059145Y0087598D01*
X0096875Y0059166D02*
X0100020Y0056797D01*
X0103164Y0054427D02*
X0106308Y0052058D01*
X0014604Y0064471D02*
X0014252Y0063486D01*
X0013921Y0062494D01*
X0013613Y0061494D01*
X0013327Y0060488D01*
X0012452Y0056651D02*
X0012273Y0055621D01*
X0012117Y0054587D01*
X0011984Y0053549D01*
X0011873Y0052509D01*
X0011665Y0048579D02*
X0011665Y0047533D01*
X0011687Y0046487D01*
X0011733Y0045442D01*
X0011802Y0044399D01*
X0083444Y0007651D02*
X0084332Y0008203D01*
X0085208Y0008775D01*
X0086071Y0009366D01*
X0086921Y0009976D01*
X0079997Y0005752D02*
X0079056Y0005296D01*
X0078105Y0004861D01*
X0077144Y0004447D01*
X0076175Y0004054D01*
X0072454Y0002771D02*
X0071449Y0002482D01*
X0070437Y0002216D01*
X0069420Y0001972D01*
X0068398Y0001750D01*
X0031189Y0086480D02*
X0032039Y0087090D01*
X0032902Y0087681D01*
X0033778Y0088253D01*
X0034666Y0088805D01*
X0038113Y0090704D02*
X0039054Y0091160D01*
X0040005Y0091595D01*
X0040966Y0092009D01*
X0041935Y0092402D01*
X0045656Y0093685D02*
X0046661Y0093974D01*
X0047673Y0094240D01*
X0048690Y0094484D01*
X0049712Y0094706D01*
X0104783Y0035969D02*
X0104497Y0034963D01*
X0104189Y0033963D01*
X0103858Y0032971D01*
X0103506Y0031986D01*
X0105658Y0039806D02*
X0105837Y0040836D01*
X0105993Y0041870D01*
X0106126Y0042908D01*
X0106237Y0043948D01*
X0106445Y0047878D02*
X0106445Y0048924D01*
X0106423Y0049970D01*
X0106377Y0051015D01*
X0106308Y0052058D01*
X0014946Y0042029D02*
X0011802Y0044399D01*
X0018091Y0039660D02*
X0021235Y0037291D01*
X0065254Y0004120D02*
X0068398Y0001750D01*
X0062110Y0006489D02*
X0058966Y0008858D01*
X0060728Y0110236D02*
X0060728Y0116142D01*
X0057382Y0116142D02*
X0057382Y0110236D01*
X0067805Y0143327D02*
X0069055Y0143327D01*
X0069055Y0128327D01*
X0067805Y0128327D01*
X0050305Y0128327D02*
X0049055Y0128327D01*
X0049055Y0143327D01*
X0050305Y0143327D01*
D83*
X0071600Y0117126D02*
X0071600Y0116675D01*
X0070700Y0115774D01*
X0069799Y0116675D01*
X0069799Y0117126D01*
X0070700Y0115774D02*
X0070700Y0114423D01*
X0066852Y0114423D02*
X0068654Y0114423D01*
X0066852Y0116225D01*
X0066852Y0116675D01*
X0067303Y0117126D01*
X0068203Y0117126D01*
X0068654Y0116675D01*
X0060980Y0100966D02*
X0061430Y0101417D01*
X0062331Y0101417D01*
X0062781Y0100966D01*
X0062781Y0099165D01*
X0062331Y0098715D01*
X0061430Y0098715D01*
X0060980Y0099165D01*
X0059835Y0100516D02*
X0058934Y0101417D01*
X0058934Y0098715D01*
X0059835Y0098715D02*
X0058033Y0098715D01*
X0056888Y0100966D02*
X0056438Y0101417D01*
X0055537Y0101417D01*
X0055087Y0100966D01*
X0055087Y0100516D01*
X0055537Y0100066D01*
X0055988Y0100066D01*
X0055537Y0100066D02*
X0055087Y0099615D01*
X0055087Y0099165D01*
X0055537Y0098715D01*
X0056438Y0098715D01*
X0056888Y0099165D01*
X0062781Y0096914D02*
X0061881Y0097815D01*
X0061881Y0095112D01*
X0062781Y0095112D02*
X0060980Y0095112D01*
X0058033Y0095112D02*
X0059835Y0095112D01*
X0058033Y0096914D01*
X0058033Y0097364D01*
X0058484Y0097815D01*
X0059385Y0097815D01*
X0059835Y0097364D01*
X0056888Y0094211D02*
X0056888Y0096914D01*
X0055537Y0096914D01*
X0055087Y0096463D01*
X0055087Y0095563D01*
X0055537Y0095112D01*
X0056888Y0095112D01*
X0069640Y0162652D02*
X0072342Y0162652D01*
X0072342Y0164003D01*
X0071892Y0164453D01*
X0070991Y0164453D01*
X0070541Y0164003D01*
X0070541Y0162652D01*
X0070541Y0163552D02*
X0069640Y0164453D01*
X0070090Y0165598D02*
X0069640Y0166048D01*
X0069640Y0166949D01*
X0070090Y0167400D01*
X0071892Y0167400D01*
X0072342Y0166949D01*
X0072342Y0166048D01*
X0071892Y0165598D01*
X0071441Y0165598D01*
X0070991Y0166048D01*
X0070991Y0167400D01*
X0067386Y0152770D02*
X0068287Y0153670D01*
X0065585Y0153670D01*
X0065585Y0152770D02*
X0065585Y0154571D01*
X0065585Y0155716D02*
X0068287Y0155716D01*
X0065585Y0157067D02*
X0066485Y0155716D01*
X0067386Y0157067D01*
X0069640Y0151825D02*
X0072342Y0151825D01*
X0072342Y0153176D01*
X0071892Y0153626D01*
X0070991Y0153626D01*
X0070541Y0153176D01*
X0070541Y0151825D01*
X0070541Y0152726D02*
X0069640Y0153626D01*
X0071441Y0154771D02*
X0072342Y0155672D01*
X0069640Y0155672D01*
X0069640Y0154771D02*
X0069640Y0156573D01*
X0070090Y0157718D02*
X0071892Y0157718D01*
X0072342Y0158168D01*
X0072342Y0159069D01*
X0071892Y0159519D01*
X0070090Y0159519D01*
X0069640Y0159069D01*
X0069640Y0158168D01*
X0070090Y0157718D01*
X0071892Y0159519D01*
X0067386Y0161628D02*
X0068287Y0162529D01*
X0065585Y0162529D01*
X0065585Y0163429D02*
X0065585Y0161628D01*
X0065585Y0164574D02*
X0068287Y0164574D01*
X0065585Y0165926D02*
X0066485Y0164574D01*
X0067386Y0165926D01*
X0066055Y0132827D02*
X0066057Y0132890D01*
X0066063Y0132952D01*
X0066073Y0133014D01*
X0066086Y0133076D01*
X0066104Y0133136D01*
X0066125Y0133195D01*
X0066150Y0133253D01*
X0066179Y0133309D01*
X0066211Y0133363D01*
X0066246Y0133415D01*
X0066284Y0133464D01*
X0066326Y0133512D01*
X0066370Y0133556D01*
X0066418Y0133598D01*
X0066467Y0133636D01*
X0066519Y0133671D01*
X0066573Y0133703D01*
X0066629Y0133732D01*
X0066687Y0133757D01*
X0066746Y0133778D01*
X0066806Y0133796D01*
X0066868Y0133809D01*
X0066930Y0133819D01*
X0066992Y0133825D01*
X0067055Y0133827D01*
X0067118Y0133825D01*
X0067180Y0133819D01*
X0067242Y0133809D01*
X0067304Y0133796D01*
X0067364Y0133778D01*
X0067423Y0133757D01*
X0067481Y0133732D01*
X0067537Y0133703D01*
X0067591Y0133671D01*
X0067643Y0133636D01*
X0067692Y0133598D01*
X0067740Y0133556D01*
X0067784Y0133512D01*
X0067826Y0133464D01*
X0067864Y0133415D01*
X0067899Y0133363D01*
X0067931Y0133309D01*
X0067960Y0133253D01*
X0067985Y0133195D01*
X0068006Y0133136D01*
X0068024Y0133076D01*
X0068037Y0133014D01*
X0068047Y0132952D01*
X0068053Y0132890D01*
X0068055Y0132827D01*
X0068053Y0132764D01*
X0068047Y0132702D01*
X0068037Y0132640D01*
X0068024Y0132578D01*
X0068006Y0132518D01*
X0067985Y0132459D01*
X0067960Y0132401D01*
X0067931Y0132345D01*
X0067899Y0132291D01*
X0067864Y0132239D01*
X0067826Y0132190D01*
X0067784Y0132142D01*
X0067740Y0132098D01*
X0067692Y0132056D01*
X0067643Y0132018D01*
X0067591Y0131983D01*
X0067537Y0131951D01*
X0067481Y0131922D01*
X0067423Y0131897D01*
X0067364Y0131876D01*
X0067304Y0131858D01*
X0067242Y0131845D01*
X0067180Y0131835D01*
X0067118Y0131829D01*
X0067055Y0131827D01*
X0066992Y0131829D01*
X0066930Y0131835D01*
X0066868Y0131845D01*
X0066806Y0131858D01*
X0066746Y0131876D01*
X0066687Y0131897D01*
X0066629Y0131922D01*
X0066573Y0131951D01*
X0066519Y0131983D01*
X0066467Y0132018D01*
X0066418Y0132056D01*
X0066370Y0132098D01*
X0066326Y0132142D01*
X0066284Y0132190D01*
X0066246Y0132239D01*
X0066211Y0132291D01*
X0066179Y0132345D01*
X0066150Y0132401D01*
X0066125Y0132459D01*
X0066104Y0132518D01*
X0066086Y0132578D01*
X0066073Y0132640D01*
X0066063Y0132702D01*
X0066057Y0132764D01*
X0066055Y0132827D01*
X0077263Y0138537D02*
X0075011Y0138537D01*
X0074561Y0138988D01*
X0074561Y0139889D01*
X0075011Y0140339D01*
X0077263Y0140339D01*
X0074561Y0142835D02*
X0077263Y0142835D01*
X0075912Y0141484D01*
X0075912Y0143285D01*
X0070624Y0125250D02*
X0073326Y0125250D01*
X0073326Y0126601D01*
X0072876Y0127052D01*
X0071975Y0127052D01*
X0071525Y0126601D01*
X0071525Y0125250D01*
X0072876Y0129998D02*
X0073326Y0129548D01*
X0073326Y0128647D01*
X0072876Y0128197D01*
X0071074Y0128197D01*
X0070624Y0128647D01*
X0070624Y0129548D01*
X0071074Y0129998D01*
X0070624Y0131143D02*
X0073326Y0131143D01*
X0073326Y0132945D01*
X0071975Y0132044D02*
X0071975Y0131143D01*
X0072876Y0134090D02*
X0073326Y0134540D01*
X0073326Y0135441D01*
X0072876Y0135891D01*
X0072426Y0135891D01*
X0071975Y0135441D01*
X0071525Y0135891D01*
X0071074Y0135891D01*
X0070624Y0135441D01*
X0070624Y0134540D01*
X0071074Y0134090D01*
X0071525Y0134090D01*
X0071975Y0134540D01*
X0072426Y0134090D01*
X0072876Y0134090D01*
X0071975Y0134540D02*
X0071975Y0135441D01*
X0073326Y0138838D02*
X0073326Y0137036D01*
X0071975Y0137036D01*
X0072426Y0137937D01*
X0072426Y0138387D01*
X0071975Y0138838D01*
X0071074Y0138838D01*
X0070624Y0138387D01*
X0070624Y0137486D01*
X0071074Y0137036D01*
X0070624Y0141784D02*
X0070624Y0139983D01*
X0072426Y0141784D01*
X0072876Y0141784D01*
X0073326Y0141334D01*
X0073326Y0140433D01*
X0072876Y0139983D01*
X0073326Y0144731D02*
X0072876Y0143830D01*
X0071975Y0142929D01*
X0071074Y0142929D01*
X0070624Y0143379D01*
X0070624Y0144280D01*
X0071074Y0144731D01*
X0071525Y0144731D01*
X0071975Y0144280D01*
X0071975Y0142929D01*
X0072876Y0145876D02*
X0073326Y0146326D01*
X0073326Y0147227D01*
X0072876Y0147677D01*
X0072426Y0147677D01*
X0071975Y0147227D01*
X0071975Y0146776D01*
X0071975Y0147227D02*
X0071525Y0147677D01*
X0071074Y0147677D01*
X0070624Y0147227D01*
X0070624Y0146326D01*
X0071074Y0145876D01*
D84*
X0059055Y0105581D02*
X0059055Y0103081D01*
X0059055Y0163120D02*
X0059055Y0165620D01*
X0059055Y0156762D02*
X0059055Y0154262D01*
X0068055Y0130827D02*
X0050055Y0130827D01*
M02*
