G75*
%MOIN*%
%OFA0B0*%
%FSLAX25Y25*%
%IPPOS*%
%LPD*%
%AMOC8*
5,1,8,0,0,1.08239X$1,22.5*
%
%ADD10C,0.01181*%
%ADD11R,0.04331X0.03937*%
%ADD12R,0.07000X0.10000*%
%ADD13R,0.16000X0.24000*%
%ADD14R,0.15748X0.15748*%
%ADD15R,0.06299X0.07087*%
%ADD16R,0.03937X0.04331*%
%ADD17R,0.04724X0.02165*%
%ADD18R,0.04331X0.06693*%
%ADD19R,0.03937X0.05906*%
%ADD20R,0.05906X0.03937*%
%ADD21R,0.03937X0.03937*%
%ADD22R,0.02165X0.04724*%
%ADD23C,0.03150*%
%ADD24R,0.05906X0.05118*%
%ADD25R,0.09843X0.04724*%
%ADD26R,0.08661X0.02362*%
D10*
X0032079Y0264177D02*
X0032079Y0266933D01*
X0032079Y0264177D02*
X0029323Y0264177D01*
X0029323Y0266933D01*
X0032079Y0266933D01*
X0032079Y0265357D02*
X0029323Y0265357D01*
X0029323Y0266537D02*
X0032079Y0266537D01*
X0038985Y0266933D02*
X0038985Y0264177D01*
X0036229Y0264177D01*
X0036229Y0266933D01*
X0038985Y0266933D01*
X0038985Y0265357D02*
X0036229Y0265357D01*
X0036229Y0266537D02*
X0038985Y0266537D01*
X0038985Y0274020D02*
X0038985Y0276776D01*
X0038985Y0274020D02*
X0036229Y0274020D01*
X0036229Y0276776D01*
X0038985Y0276776D01*
X0038985Y0275200D02*
X0036229Y0275200D01*
X0036229Y0276380D02*
X0038985Y0276380D01*
X0032079Y0276776D02*
X0032079Y0274020D01*
X0029323Y0274020D01*
X0029323Y0276776D01*
X0032079Y0276776D01*
X0032079Y0275200D02*
X0029323Y0275200D01*
X0029323Y0276380D02*
X0032079Y0276380D01*
D11*
X0049902Y0268902D03*
X0049902Y0262209D03*
X0057776Y0262209D03*
X0057776Y0268902D03*
X0057776Y0221165D03*
X0057776Y0214472D03*
X0042028Y0214472D03*
X0042028Y0221165D03*
X0053445Y0129728D03*
X0060138Y0129728D03*
X0084941Y0129728D03*
X0091634Y0129728D03*
X0111516Y0152366D03*
X0118209Y0152366D03*
X0111319Y0198626D03*
X0111319Y0206500D03*
X0104626Y0206500D03*
X0104626Y0198626D03*
X0121359Y0259650D03*
X0128052Y0259650D03*
X0113288Y0267524D03*
X0106595Y0267524D03*
D12*
X0036122Y0069492D03*
X0036122Y0081697D03*
X0122737Y0081697D03*
X0122737Y0069492D03*
D13*
X0126430Y0075594D03*
X0032430Y0075594D03*
D14*
X0079430Y0075594D03*
D15*
X0105414Y0190752D03*
X0116437Y0190752D03*
D16*
X0121359Y0214374D03*
X0121359Y0222248D03*
X0128052Y0222248D03*
X0128052Y0214374D03*
X0112894Y0228744D03*
X0112894Y0235437D03*
X0121359Y0251776D03*
X0128052Y0251776D03*
X0128052Y0267524D03*
X0121359Y0267524D03*
X0103052Y0235437D03*
X0103052Y0228744D03*
X0065650Y0262209D03*
X0065650Y0268902D03*
X0049902Y0221165D03*
X0049902Y0214472D03*
X0102067Y0158665D03*
X0102067Y0151972D03*
D17*
X0102855Y0214571D03*
X0102855Y0218311D03*
X0102855Y0222051D03*
X0113091Y0222051D03*
X0113091Y0214571D03*
D18*
X0077461Y0129728D03*
X0067619Y0129728D03*
D19*
X0069587Y0138587D03*
X0063682Y0138587D03*
X0057776Y0138587D03*
X0051870Y0138587D03*
X0045965Y0138587D03*
X0040059Y0138587D03*
X0034154Y0138587D03*
X0028248Y0138587D03*
X0045965Y0203547D03*
X0051870Y0203547D03*
X0057776Y0203547D03*
X0063682Y0203547D03*
X0069587Y0203547D03*
X0075493Y0203547D03*
X0081398Y0203547D03*
X0081398Y0138587D03*
X0075493Y0138587D03*
D20*
X0090256Y0147445D03*
X0090256Y0153350D03*
X0090256Y0159256D03*
X0090256Y0165161D03*
X0090256Y0171067D03*
X0090256Y0176972D03*
X0090256Y0182878D03*
X0090256Y0188783D03*
X0090256Y0194689D03*
D21*
X0081398Y0194689D03*
X0081398Y0147445D03*
D22*
X0120965Y0232878D03*
X0124705Y0232878D03*
X0128445Y0232878D03*
X0128445Y0243114D03*
X0120965Y0243114D03*
D23*
X0084272Y0262209D03*
X0084272Y0268902D03*
X0074587Y0268902D03*
X0074587Y0262209D03*
D24*
X0101280Y0137602D03*
X0101280Y0119886D03*
X0132382Y0119886D03*
X0132382Y0137602D03*
D25*
X0090256Y0226185D03*
X0090256Y0236028D03*
X0090256Y0245870D03*
X0068603Y0245870D03*
X0068603Y0236028D03*
X0068603Y0226185D03*
D26*
X0110532Y0174630D03*
X0110532Y0169630D03*
X0110532Y0164630D03*
X0110532Y0159630D03*
X0131004Y0159630D03*
X0131004Y0164630D03*
X0131004Y0169630D03*
X0131004Y0174630D03*
M02*
