G75*
%MOIN*%
%OFA0B0*%
%FSLAX25Y25*%
%IPPOS*%
%LPD*%
%AMOC8*
5,1,8,0,0,1.08239X$1,22.5*
%
%ADD10C,0.00600*%
%ADD11C,0.00900*%
%ADD12C,0.00500*%
%ADD13C,0.00800*%
%ADD14C,0.01000*%
%ADD15C,0.01600*%
%ADD16C,0.01200*%
%ADD17C,0.01181*%
D10*
X0028558Y0212213D02*
X0029125Y0212213D01*
X0029692Y0212781D01*
X0029692Y0213915D01*
X0030259Y0214482D01*
X0030826Y0214482D01*
X0031393Y0213915D01*
X0031393Y0212781D01*
X0030826Y0212213D01*
X0031393Y0215897D02*
X0030259Y0217031D01*
X0031393Y0218165D01*
X0027990Y0218165D01*
X0027990Y0219580D02*
X0027990Y0221281D01*
X0028558Y0221848D01*
X0030826Y0221848D01*
X0031393Y0221281D01*
X0031393Y0219580D01*
X0027990Y0219580D01*
X0027990Y0223263D02*
X0027990Y0224397D01*
X0027990Y0223830D02*
X0031393Y0223830D01*
X0031393Y0223263D02*
X0031393Y0224397D01*
X0030826Y0225718D02*
X0031393Y0226285D01*
X0031393Y0227420D01*
X0030826Y0227987D01*
X0028558Y0227987D01*
X0027990Y0227420D01*
X0027990Y0226285D01*
X0028558Y0225718D01*
X0030826Y0225718D01*
X0031393Y0215897D02*
X0027990Y0215897D01*
X0028558Y0214482D02*
X0027990Y0213915D01*
X0027990Y0212781D01*
X0028558Y0212213D01*
X0046265Y0229021D02*
X0046832Y0228454D01*
X0047966Y0228454D01*
X0048534Y0229021D01*
X0048534Y0230155D01*
X0047399Y0230155D01*
X0046265Y0231289D02*
X0046265Y0229021D01*
X0046265Y0231289D02*
X0046832Y0231856D01*
X0047966Y0231856D01*
X0048534Y0231289D01*
X0049948Y0231856D02*
X0049948Y0228454D01*
X0052217Y0228454D02*
X0052217Y0231856D01*
X0053631Y0231856D02*
X0055333Y0231856D01*
X0055900Y0231289D01*
X0055900Y0229021D01*
X0055333Y0228454D01*
X0053631Y0228454D01*
X0053631Y0231856D01*
X0049948Y0231856D02*
X0052217Y0228454D01*
X0052217Y0242233D02*
X0049948Y0245636D01*
X0048534Y0245069D02*
X0048534Y0243935D01*
X0047966Y0243367D01*
X0046265Y0243367D01*
X0046265Y0242233D02*
X0046265Y0245636D01*
X0047966Y0245636D01*
X0048534Y0245069D01*
X0047399Y0243367D02*
X0048534Y0242233D01*
X0049948Y0242233D02*
X0052217Y0245636D01*
X0051650Y0251091D02*
X0050515Y0251091D01*
X0049948Y0251658D01*
X0049948Y0253927D01*
X0050515Y0254494D01*
X0051650Y0254494D01*
X0052217Y0253927D01*
X0053631Y0253927D02*
X0053631Y0251658D01*
X0054198Y0251091D01*
X0055333Y0251091D01*
X0055900Y0251658D01*
X0055900Y0253927D02*
X0055333Y0254494D01*
X0054198Y0254494D01*
X0053631Y0253927D01*
X0052217Y0251658D02*
X0051650Y0251091D01*
X0048534Y0252226D02*
X0048534Y0254494D01*
X0048534Y0252226D02*
X0047399Y0251091D01*
X0046265Y0252226D01*
X0046265Y0254494D01*
X0028520Y0260837D02*
X0024510Y0261640D01*
X0023509Y0260639D02*
X0021905Y0259035D01*
X0022707Y0259837D02*
X0025113Y0257431D01*
X0026916Y0259233D02*
X0026114Y0263244D01*
X0099052Y0255791D02*
X0099052Y0245791D01*
X0099054Y0245731D01*
X0099059Y0245670D01*
X0099068Y0245611D01*
X0099081Y0245552D01*
X0099097Y0245493D01*
X0099117Y0245436D01*
X0099140Y0245381D01*
X0099167Y0245326D01*
X0099196Y0245274D01*
X0099229Y0245223D01*
X0099265Y0245174D01*
X0099303Y0245128D01*
X0099345Y0245084D01*
X0099389Y0245042D01*
X0099435Y0245004D01*
X0099484Y0244968D01*
X0099535Y0244935D01*
X0099587Y0244906D01*
X0099642Y0244879D01*
X0099697Y0244856D01*
X0099754Y0244836D01*
X0099813Y0244820D01*
X0099872Y0244807D01*
X0099931Y0244798D01*
X0099992Y0244793D01*
X0100052Y0244791D01*
X0106052Y0244791D01*
X0106112Y0244793D01*
X0106173Y0244798D01*
X0106232Y0244807D01*
X0106291Y0244820D01*
X0106350Y0244836D01*
X0106407Y0244856D01*
X0106462Y0244879D01*
X0106517Y0244906D01*
X0106569Y0244935D01*
X0106620Y0244968D01*
X0106669Y0245004D01*
X0106715Y0245042D01*
X0106759Y0245084D01*
X0106801Y0245128D01*
X0106839Y0245174D01*
X0106875Y0245223D01*
X0106908Y0245274D01*
X0106937Y0245326D01*
X0106964Y0245381D01*
X0106987Y0245436D01*
X0107007Y0245493D01*
X0107023Y0245552D01*
X0107036Y0245611D01*
X0107045Y0245670D01*
X0107050Y0245731D01*
X0107052Y0245791D01*
X0107052Y0255791D01*
X0107050Y0255851D01*
X0107045Y0255912D01*
X0107036Y0255971D01*
X0107023Y0256030D01*
X0107007Y0256089D01*
X0106987Y0256146D01*
X0106964Y0256201D01*
X0106937Y0256256D01*
X0106908Y0256308D01*
X0106875Y0256359D01*
X0106839Y0256408D01*
X0106801Y0256454D01*
X0106759Y0256498D01*
X0106715Y0256540D01*
X0106669Y0256578D01*
X0106620Y0256614D01*
X0106569Y0256647D01*
X0106517Y0256676D01*
X0106462Y0256703D01*
X0106407Y0256726D01*
X0106350Y0256746D01*
X0106291Y0256762D01*
X0106232Y0256775D01*
X0106173Y0256784D01*
X0106112Y0256789D01*
X0106052Y0256791D01*
X0100052Y0256791D01*
X0099992Y0256789D01*
X0099931Y0256784D01*
X0099872Y0256775D01*
X0099813Y0256762D01*
X0099754Y0256746D01*
X0099697Y0256726D01*
X0099642Y0256703D01*
X0099587Y0256676D01*
X0099535Y0256647D01*
X0099484Y0256614D01*
X0099435Y0256578D01*
X0099389Y0256540D01*
X0099345Y0256498D01*
X0099303Y0256454D01*
X0099265Y0256408D01*
X0099229Y0256359D01*
X0099196Y0256308D01*
X0099167Y0256256D01*
X0099140Y0256201D01*
X0099117Y0256146D01*
X0099097Y0256089D01*
X0099081Y0256030D01*
X0099068Y0255971D01*
X0099059Y0255912D01*
X0099054Y0255851D01*
X0099052Y0255791D01*
X0104784Y0223909D02*
X0104784Y0223539D01*
X0104784Y0223909D02*
X0111162Y0223909D01*
X0111162Y0223539D01*
X0111162Y0220366D02*
X0111162Y0216256D01*
X0111162Y0213083D02*
X0111162Y0212713D01*
X0104784Y0212713D01*
X0104784Y0213083D01*
X0104784Y0216256D02*
X0104784Y0216626D01*
X0104784Y0219996D02*
X0104784Y0220366D01*
X0119107Y0234807D02*
X0119477Y0234807D01*
X0119107Y0234807D02*
X0119107Y0241185D01*
X0119477Y0241185D01*
X0122650Y0241185D02*
X0126760Y0241185D01*
X0129933Y0241185D02*
X0130304Y0241185D01*
X0130304Y0234807D01*
X0129933Y0234807D01*
X0126760Y0234807D02*
X0126390Y0234807D01*
X0123020Y0234807D02*
X0122650Y0234807D01*
D11*
X0097030Y0251733D02*
X0097030Y0256437D01*
X0093894Y0256437D02*
X0093894Y0251733D01*
X0091874Y0252517D02*
X0091874Y0255653D01*
X0091090Y0256437D01*
X0089522Y0256437D01*
X0088738Y0255653D01*
X0088738Y0252517D01*
X0089522Y0251733D01*
X0091090Y0251733D01*
X0091874Y0252517D01*
X0093894Y0256437D02*
X0097030Y0251733D01*
X0086439Y0216083D02*
X0083303Y0216083D01*
X0083303Y0211379D01*
X0083303Y0213731D02*
X0084871Y0213731D01*
X0081282Y0216083D02*
X0078146Y0216083D01*
X0078146Y0211379D01*
X0078146Y0213731D02*
X0079714Y0213731D01*
X0076126Y0212163D02*
X0076126Y0215299D01*
X0075342Y0216083D01*
X0073774Y0216083D01*
X0072990Y0215299D01*
X0072990Y0212163D01*
X0073774Y0211379D01*
X0075342Y0211379D01*
X0076126Y0212163D01*
D12*
X0072540Y0218311D02*
X0086319Y0218311D01*
X0086319Y0222248D01*
X0083367Y0229138D02*
X0075493Y0229138D01*
X0075493Y0242917D01*
X0083367Y0242917D01*
X0083367Y0229138D01*
X0082382Y0236028D02*
X0076477Y0236028D01*
X0076477Y0241933D01*
X0082382Y0241933D01*
X0082382Y0236028D01*
X0086319Y0249807D02*
X0086319Y0253744D01*
X0072540Y0253744D01*
X0072540Y0249807D01*
X0072748Y0254486D02*
X0072298Y0254937D01*
X0072748Y0254486D02*
X0073649Y0254486D01*
X0074099Y0254937D01*
X0074099Y0255387D01*
X0073649Y0255837D01*
X0072748Y0255837D01*
X0072298Y0256288D01*
X0072298Y0256738D01*
X0072748Y0257189D01*
X0073649Y0257189D01*
X0074099Y0256738D01*
X0075244Y0256288D02*
X0076145Y0257189D01*
X0076145Y0254486D01*
X0075244Y0254486D02*
X0077046Y0254486D01*
X0075099Y0259256D02*
X0071556Y0259256D01*
X0071556Y0261618D01*
X0072028Y0259650D02*
X0072028Y0271461D01*
X0086831Y0271461D01*
X0086831Y0259650D01*
X0072028Y0259650D01*
X0067695Y0257764D02*
X0067695Y0255963D01*
X0066344Y0255963D01*
X0065894Y0256413D01*
X0065894Y0257764D01*
X0064749Y0255963D02*
X0062947Y0255963D01*
X0063848Y0255963D02*
X0063848Y0258665D01*
X0062947Y0257764D01*
X0059863Y0257764D02*
X0058512Y0256863D01*
X0059863Y0255963D01*
X0058512Y0255963D02*
X0058512Y0258665D01*
X0056466Y0258665D02*
X0056466Y0255963D01*
X0055565Y0255963D02*
X0057367Y0255963D01*
X0055565Y0257764D02*
X0056466Y0258665D01*
X0051989Y0257764D02*
X0050638Y0256863D01*
X0051989Y0255963D01*
X0050638Y0255963D02*
X0050638Y0258665D01*
X0048592Y0258665D02*
X0048592Y0255963D01*
X0047691Y0255963D02*
X0049493Y0255963D01*
X0047691Y0257764D02*
X0048592Y0258665D01*
X0045138Y0256402D02*
X0042638Y0258902D01*
X0027638Y0258902D01*
X0025138Y0256402D01*
X0025138Y0231402D01*
X0027638Y0228902D01*
X0042638Y0228902D01*
X0045138Y0231402D01*
X0045138Y0256402D01*
X0045550Y0264821D02*
X0043748Y0264821D01*
X0045550Y0266622D01*
X0045550Y0267073D01*
X0045099Y0267523D01*
X0044198Y0267523D01*
X0043748Y0267073D01*
X0042603Y0267073D02*
X0042153Y0267523D01*
X0040802Y0267523D01*
X0040802Y0264821D01*
X0042153Y0264821D01*
X0042603Y0265271D01*
X0042603Y0267073D01*
X0042153Y0273679D02*
X0040802Y0273679D01*
X0040802Y0276381D01*
X0042153Y0276381D01*
X0042603Y0275931D01*
X0042603Y0274130D01*
X0042153Y0273679D01*
X0043748Y0273679D02*
X0045550Y0273679D01*
X0044649Y0273679D02*
X0044649Y0276381D01*
X0043748Y0275481D01*
X0047691Y0274905D02*
X0047691Y0272203D01*
X0047691Y0273104D02*
X0049042Y0273104D01*
X0049493Y0273554D01*
X0049493Y0274455D01*
X0049042Y0274905D01*
X0047691Y0274905D01*
X0048592Y0273104D02*
X0049493Y0272203D01*
X0050638Y0272653D02*
X0051088Y0272203D01*
X0051989Y0272203D01*
X0052439Y0272653D01*
X0052439Y0273104D01*
X0051989Y0273554D01*
X0051539Y0273554D01*
X0051989Y0273554D02*
X0052439Y0274004D01*
X0052439Y0274455D01*
X0051989Y0274905D01*
X0051088Y0274905D01*
X0050638Y0274455D01*
X0055565Y0274905D02*
X0055565Y0272203D01*
X0055565Y0273104D02*
X0056917Y0273104D01*
X0057367Y0273554D01*
X0057367Y0274455D01*
X0056917Y0274905D01*
X0055565Y0274905D01*
X0056466Y0273104D02*
X0057367Y0272203D01*
X0058512Y0272203D02*
X0060313Y0274004D01*
X0060313Y0274455D01*
X0059863Y0274905D01*
X0058962Y0274905D01*
X0058512Y0274455D01*
X0058512Y0272203D02*
X0060313Y0272203D01*
X0062947Y0272653D02*
X0063398Y0272203D01*
X0064298Y0272203D01*
X0064749Y0272653D01*
X0065894Y0272653D02*
X0066344Y0272203D01*
X0067245Y0272203D01*
X0067695Y0272653D01*
X0067695Y0274455D01*
X0067245Y0274905D01*
X0066344Y0274905D01*
X0065894Y0274455D01*
X0065894Y0274004D01*
X0066344Y0273554D01*
X0067695Y0273554D01*
X0064749Y0274455D02*
X0064298Y0274905D01*
X0063398Y0274905D01*
X0062947Y0274455D01*
X0062947Y0272653D01*
X0071556Y0271854D02*
X0071556Y0269492D01*
X0071556Y0271854D02*
X0075099Y0271854D01*
X0080990Y0265555D02*
X0080992Y0265629D01*
X0080998Y0265703D01*
X0081008Y0265776D01*
X0081021Y0265849D01*
X0081039Y0265921D01*
X0081060Y0265992D01*
X0081086Y0266062D01*
X0081114Y0266130D01*
X0081147Y0266197D01*
X0081183Y0266262D01*
X0081222Y0266324D01*
X0081265Y0266385D01*
X0081310Y0266443D01*
X0081359Y0266499D01*
X0081411Y0266552D01*
X0081465Y0266603D01*
X0081522Y0266650D01*
X0081582Y0266694D01*
X0081644Y0266735D01*
X0081708Y0266773D01*
X0081773Y0266807D01*
X0081841Y0266837D01*
X0081910Y0266864D01*
X0081980Y0266888D01*
X0082052Y0266907D01*
X0082124Y0266923D01*
X0082197Y0266935D01*
X0082271Y0266943D01*
X0082345Y0266947D01*
X0082419Y0266947D01*
X0082493Y0266943D01*
X0082567Y0266935D01*
X0082640Y0266923D01*
X0082712Y0266907D01*
X0082784Y0266888D01*
X0082854Y0266864D01*
X0082923Y0266837D01*
X0082991Y0266807D01*
X0083056Y0266773D01*
X0083120Y0266735D01*
X0083182Y0266694D01*
X0083242Y0266650D01*
X0083299Y0266603D01*
X0083353Y0266552D01*
X0083405Y0266499D01*
X0083454Y0266443D01*
X0083499Y0266385D01*
X0083542Y0266324D01*
X0083581Y0266262D01*
X0083617Y0266197D01*
X0083650Y0266130D01*
X0083678Y0266062D01*
X0083704Y0265992D01*
X0083725Y0265921D01*
X0083743Y0265849D01*
X0083756Y0265776D01*
X0083766Y0265703D01*
X0083772Y0265629D01*
X0083774Y0265555D01*
X0083772Y0265481D01*
X0083766Y0265407D01*
X0083756Y0265334D01*
X0083743Y0265261D01*
X0083725Y0265189D01*
X0083704Y0265118D01*
X0083678Y0265048D01*
X0083650Y0264980D01*
X0083617Y0264913D01*
X0083581Y0264848D01*
X0083542Y0264786D01*
X0083499Y0264725D01*
X0083454Y0264667D01*
X0083405Y0264611D01*
X0083353Y0264558D01*
X0083299Y0264507D01*
X0083242Y0264460D01*
X0083182Y0264416D01*
X0083120Y0264375D01*
X0083056Y0264337D01*
X0082991Y0264303D01*
X0082923Y0264273D01*
X0082854Y0264246D01*
X0082784Y0264222D01*
X0082712Y0264203D01*
X0082640Y0264187D01*
X0082567Y0264175D01*
X0082493Y0264167D01*
X0082419Y0264163D01*
X0082345Y0264163D01*
X0082271Y0264167D01*
X0082197Y0264175D01*
X0082124Y0264187D01*
X0082052Y0264203D01*
X0081980Y0264222D01*
X0081910Y0264246D01*
X0081841Y0264273D01*
X0081773Y0264303D01*
X0081708Y0264337D01*
X0081644Y0264375D01*
X0081582Y0264416D01*
X0081522Y0264460D01*
X0081465Y0264507D01*
X0081411Y0264558D01*
X0081359Y0264611D01*
X0081310Y0264667D01*
X0081265Y0264725D01*
X0081222Y0264786D01*
X0081183Y0264848D01*
X0081147Y0264913D01*
X0081114Y0264980D01*
X0081086Y0265048D01*
X0081060Y0265118D01*
X0081039Y0265189D01*
X0081021Y0265261D01*
X0081008Y0265334D01*
X0080998Y0265407D01*
X0080992Y0265481D01*
X0080990Y0265555D01*
X0083760Y0259256D02*
X0087304Y0259256D01*
X0087304Y0261618D01*
X0085729Y0258272D02*
X0082776Y0258272D01*
X0089030Y0260392D02*
X0089030Y0263094D01*
X0089931Y0262193D01*
X0090831Y0263094D01*
X0090831Y0260392D01*
X0091976Y0260392D02*
X0091976Y0263094D01*
X0092427Y0261743D02*
X0093778Y0260392D01*
X0094923Y0260392D02*
X0096725Y0260392D01*
X0095824Y0260392D02*
X0095824Y0263094D01*
X0094923Y0262193D01*
X0093778Y0263094D02*
X0091976Y0261292D01*
X0087304Y0269492D02*
X0087304Y0271854D01*
X0083760Y0271854D01*
X0090014Y0275156D02*
X0090014Y0277858D01*
X0090915Y0276957D01*
X0091816Y0277858D01*
X0091816Y0275156D01*
X0092961Y0274705D02*
X0094762Y0274705D01*
X0095907Y0275156D02*
X0095907Y0277858D01*
X0097258Y0277858D01*
X0097709Y0277407D01*
X0097709Y0276507D01*
X0097258Y0276056D01*
X0095907Y0276056D01*
X0096808Y0276056D02*
X0097709Y0275156D01*
X0098854Y0275156D02*
X0098854Y0276957D01*
X0099755Y0277858D01*
X0100655Y0276957D01*
X0100655Y0275156D01*
X0101800Y0275156D02*
X0101800Y0277858D01*
X0100655Y0276507D02*
X0098854Y0276507D01*
X0101800Y0275156D02*
X0102701Y0276056D01*
X0103602Y0275156D01*
X0103602Y0277858D01*
X0107731Y0277407D02*
X0107731Y0275606D01*
X0108181Y0275156D01*
X0109082Y0275156D01*
X0109532Y0275606D01*
X0110677Y0275156D02*
X0112479Y0275156D01*
X0111578Y0275156D02*
X0111578Y0277858D01*
X0110677Y0276957D01*
X0109532Y0277407D02*
X0109082Y0277858D01*
X0108181Y0277858D01*
X0107731Y0277407D01*
X0111584Y0273921D02*
X0110683Y0273020D01*
X0111584Y0273921D02*
X0111584Y0271219D01*
X0110683Y0271219D02*
X0112485Y0271219D01*
X0113630Y0271669D02*
X0114080Y0271219D01*
X0115432Y0271219D01*
X0115432Y0273020D01*
X0113630Y0273020D02*
X0113630Y0271669D01*
X0114074Y0275156D02*
X0113624Y0275606D01*
X0115425Y0277407D01*
X0115425Y0275606D01*
X0114975Y0275156D01*
X0114074Y0275156D01*
X0113624Y0275606D02*
X0113624Y0277407D01*
X0114074Y0277858D01*
X0114975Y0277858D01*
X0115425Y0277407D01*
X0121036Y0272322D02*
X0122387Y0272322D01*
X0122837Y0271872D01*
X0122837Y0271422D01*
X0122387Y0270971D01*
X0121486Y0270971D01*
X0121036Y0271422D01*
X0121036Y0272322D01*
X0121937Y0273223D01*
X0122837Y0273674D01*
X0123982Y0273674D02*
X0123982Y0270971D01*
X0123982Y0271872D02*
X0125333Y0270971D01*
X0126438Y0271422D02*
X0126438Y0271872D01*
X0126888Y0272322D01*
X0127789Y0272322D01*
X0128239Y0271872D01*
X0128239Y0271422D01*
X0127789Y0270971D01*
X0126888Y0270971D01*
X0126438Y0271422D01*
X0126888Y0272322D02*
X0126438Y0272773D01*
X0126438Y0273223D01*
X0126888Y0273674D01*
X0127789Y0273674D01*
X0128239Y0273223D01*
X0128239Y0272773D01*
X0127789Y0272322D01*
X0125333Y0272773D02*
X0123982Y0271872D01*
X0131350Y0269623D02*
X0132702Y0268272D01*
X0132702Y0270074D01*
X0134053Y0269623D02*
X0131350Y0269623D01*
X0131801Y0267127D02*
X0132702Y0267127D01*
X0133152Y0266677D01*
X0133152Y0265325D01*
X0134053Y0265325D02*
X0131350Y0265325D01*
X0131350Y0266677D01*
X0131801Y0267127D01*
X0133152Y0266226D02*
X0134053Y0267127D01*
X0134053Y0263184D02*
X0134053Y0261382D01*
X0134053Y0262283D02*
X0131350Y0262283D01*
X0132251Y0261382D01*
X0134053Y0260237D02*
X0134053Y0258436D01*
X0134053Y0259336D02*
X0131350Y0259336D01*
X0132251Y0258436D01*
X0131801Y0257291D02*
X0131350Y0256840D01*
X0131350Y0255940D01*
X0131801Y0255489D01*
X0133602Y0255489D01*
X0134053Y0255940D01*
X0134053Y0256840D01*
X0133602Y0257291D01*
X0131801Y0253833D02*
X0133602Y0252032D01*
X0134053Y0252032D01*
X0134053Y0250887D02*
X0133152Y0249986D01*
X0133152Y0250436D02*
X0133152Y0249085D01*
X0134053Y0249085D02*
X0131350Y0249085D01*
X0131350Y0250436D01*
X0131801Y0250887D01*
X0132702Y0250887D01*
X0133152Y0250436D01*
X0131350Y0252032D02*
X0131350Y0253833D01*
X0131801Y0253833D01*
X0131801Y0240054D02*
X0132251Y0240054D01*
X0132702Y0239603D01*
X0133152Y0240054D01*
X0133602Y0240054D01*
X0134053Y0239603D01*
X0134053Y0238703D01*
X0133602Y0238252D01*
X0133602Y0237107D02*
X0131350Y0237107D01*
X0131801Y0238252D02*
X0131350Y0238703D01*
X0131350Y0239603D01*
X0131801Y0240054D01*
X0132702Y0239603D02*
X0132702Y0239153D01*
X0133602Y0237107D02*
X0134053Y0236657D01*
X0134053Y0235756D01*
X0133602Y0235306D01*
X0131350Y0235306D01*
X0131595Y0224785D02*
X0132046Y0223885D01*
X0132947Y0222984D01*
X0132947Y0224335D01*
X0133397Y0224785D01*
X0133847Y0224785D01*
X0134298Y0224335D01*
X0134298Y0223434D01*
X0133847Y0222984D01*
X0132947Y0222984D01*
X0132947Y0221839D02*
X0133397Y0221389D01*
X0133397Y0220037D01*
X0134298Y0220037D02*
X0131595Y0220037D01*
X0131595Y0221389D01*
X0132046Y0221839D01*
X0132947Y0221839D01*
X0133397Y0220938D02*
X0134298Y0221839D01*
X0133847Y0216911D02*
X0132947Y0216911D01*
X0132496Y0216461D01*
X0132496Y0216011D01*
X0132947Y0215110D01*
X0131595Y0215110D01*
X0131595Y0216911D01*
X0132046Y0213965D02*
X0131595Y0213515D01*
X0131595Y0212163D01*
X0134298Y0212163D01*
X0133397Y0212163D02*
X0133397Y0213515D01*
X0132947Y0213965D01*
X0132046Y0213965D01*
X0133397Y0213064D02*
X0134298Y0213965D01*
X0133847Y0215110D02*
X0134298Y0215560D01*
X0134298Y0216461D01*
X0133847Y0216911D01*
X0129418Y0208034D02*
X0129869Y0207584D01*
X0129869Y0206683D01*
X0129418Y0206233D01*
X0127617Y0206233D01*
X0127166Y0206683D01*
X0127166Y0207584D01*
X0127617Y0208034D01*
X0127617Y0205088D02*
X0127166Y0204638D01*
X0127166Y0203737D01*
X0127617Y0203286D01*
X0129418Y0203286D01*
X0129869Y0203737D01*
X0129869Y0204638D01*
X0129418Y0205088D01*
X0128968Y0202141D02*
X0127166Y0202141D01*
X0127166Y0200340D02*
X0128968Y0200340D01*
X0129869Y0201241D01*
X0128968Y0202141D01*
X0130319Y0199195D02*
X0130319Y0197393D01*
X0129869Y0196248D02*
X0127166Y0196248D01*
X0128067Y0195348D01*
X0127166Y0194447D01*
X0129869Y0194447D01*
X0119534Y0195881D02*
X0119083Y0195431D01*
X0117282Y0197233D01*
X0119083Y0197233D01*
X0119534Y0196782D01*
X0119534Y0195881D01*
X0119083Y0195431D02*
X0117282Y0195431D01*
X0116832Y0195881D01*
X0116832Y0196782D01*
X0117282Y0197233D01*
X0117732Y0198378D02*
X0119083Y0198378D01*
X0119534Y0198828D01*
X0119534Y0200179D01*
X0117732Y0200179D01*
X0117732Y0201324D02*
X0116832Y0202225D01*
X0119534Y0202225D01*
X0119534Y0201324D02*
X0119534Y0203126D01*
X0117191Y0203716D02*
X0116741Y0203266D01*
X0114939Y0205067D01*
X0116741Y0205067D01*
X0117191Y0204617D01*
X0117191Y0203716D01*
X0116741Y0203266D02*
X0114939Y0203266D01*
X0114489Y0203716D01*
X0114489Y0204617D01*
X0114939Y0205067D01*
X0115390Y0206212D02*
X0116741Y0206212D01*
X0117191Y0206663D01*
X0117191Y0208014D01*
X0115390Y0208014D01*
X0115390Y0209159D02*
X0114489Y0210060D01*
X0117191Y0210060D01*
X0117191Y0210960D02*
X0117191Y0209159D01*
X0116748Y0213640D02*
X0115847Y0214541D01*
X0118550Y0214541D01*
X0118550Y0215441D02*
X0118550Y0213640D01*
X0118099Y0216586D02*
X0116298Y0218388D01*
X0118099Y0218388D01*
X0118550Y0217937D01*
X0118550Y0217037D01*
X0118099Y0216586D01*
X0116298Y0216586D01*
X0115847Y0217037D01*
X0115847Y0217937D01*
X0116298Y0218388D01*
X0116298Y0219533D02*
X0115847Y0219983D01*
X0115847Y0220884D01*
X0116298Y0221334D01*
X0118099Y0219533D01*
X0118550Y0219983D01*
X0118550Y0220884D01*
X0118099Y0221334D01*
X0116298Y0221334D01*
X0115847Y0222479D02*
X0118550Y0222479D01*
X0117649Y0222479D02*
X0116748Y0223830D01*
X0117649Y0222479D02*
X0118550Y0223830D01*
X0118099Y0225943D02*
X0116298Y0225943D01*
X0115847Y0226393D01*
X0115847Y0227294D01*
X0116298Y0227744D01*
X0116298Y0228889D02*
X0115847Y0229340D01*
X0115847Y0230241D01*
X0116298Y0230691D01*
X0116748Y0230691D01*
X0117198Y0230241D01*
X0117198Y0229340D01*
X0116748Y0228889D01*
X0116298Y0228889D01*
X0117198Y0229340D02*
X0117649Y0228889D01*
X0118099Y0228889D01*
X0118550Y0229340D01*
X0118550Y0230241D01*
X0118099Y0230691D01*
X0117649Y0230691D01*
X0117198Y0230241D01*
X0118099Y0227744D02*
X0118550Y0227294D01*
X0118550Y0226393D01*
X0118099Y0225943D01*
X0118099Y0219533D02*
X0116298Y0219533D01*
X0116748Y0233325D02*
X0115847Y0234226D01*
X0118550Y0234226D01*
X0118550Y0235126D02*
X0118550Y0233325D01*
X0118099Y0236271D02*
X0116298Y0236271D01*
X0115847Y0236722D01*
X0115847Y0237622D01*
X0116298Y0238073D01*
X0118099Y0236271D01*
X0118550Y0236722D01*
X0118550Y0237622D01*
X0118099Y0238073D01*
X0116298Y0238073D01*
X0116748Y0239218D02*
X0118099Y0239218D01*
X0118550Y0239668D01*
X0118550Y0241019D01*
X0116748Y0241019D01*
X0116503Y0243191D02*
X0115602Y0244092D01*
X0118305Y0244092D01*
X0118305Y0243191D02*
X0118305Y0244993D01*
X0117854Y0246138D02*
X0116053Y0247939D01*
X0117854Y0247939D01*
X0118305Y0247489D01*
X0118305Y0246588D01*
X0117854Y0246138D01*
X0116053Y0246138D01*
X0115602Y0246588D01*
X0115602Y0247489D01*
X0116053Y0247939D01*
X0116053Y0249084D02*
X0115602Y0249535D01*
X0115602Y0250435D01*
X0116053Y0250886D01*
X0117854Y0249084D01*
X0118305Y0249535D01*
X0118305Y0250435D01*
X0117854Y0250886D01*
X0116053Y0250886D01*
X0115602Y0252031D02*
X0118305Y0252031D01*
X0117404Y0252031D02*
X0116503Y0253382D01*
X0117404Y0252031D02*
X0118305Y0253382D01*
X0116954Y0255981D02*
X0116954Y0257783D01*
X0116503Y0258928D02*
X0116503Y0260279D01*
X0116954Y0260729D01*
X0118305Y0260729D01*
X0118305Y0261874D02*
X0117854Y0261874D01*
X0116053Y0263676D01*
X0115602Y0263676D01*
X0115602Y0261874D01*
X0116503Y0258928D02*
X0118305Y0258928D01*
X0118305Y0257332D02*
X0115602Y0257332D01*
X0116954Y0255981D01*
X0117854Y0249084D02*
X0116053Y0249084D01*
X0111248Y0246818D02*
X0111248Y0245016D01*
X0110798Y0243871D02*
X0108095Y0243871D01*
X0108996Y0242970D01*
X0108095Y0242070D01*
X0110798Y0242070D01*
X0108707Y0238073D02*
X0106906Y0238073D01*
X0108707Y0238073D02*
X0108707Y0236722D01*
X0108257Y0236271D01*
X0106906Y0236271D01*
X0108707Y0235126D02*
X0108707Y0233325D01*
X0108707Y0234226D02*
X0106005Y0234226D01*
X0106906Y0233325D01*
X0107806Y0230691D02*
X0107356Y0230241D01*
X0107356Y0228889D01*
X0108257Y0228889D01*
X0108707Y0229340D01*
X0108707Y0230241D01*
X0108257Y0230691D01*
X0107806Y0230691D01*
X0106455Y0229790D02*
X0107356Y0228889D01*
X0106455Y0229790D02*
X0106005Y0230691D01*
X0106455Y0227744D02*
X0106005Y0227294D01*
X0106005Y0226393D01*
X0106455Y0225943D01*
X0108257Y0225943D01*
X0108707Y0226393D01*
X0108707Y0227294D01*
X0108257Y0227744D01*
X0099604Y0222829D02*
X0099604Y0221028D01*
X0097802Y0222829D01*
X0097352Y0222829D01*
X0096902Y0222379D01*
X0096902Y0221478D01*
X0097352Y0221028D01*
X0096902Y0219883D02*
X0099154Y0219883D01*
X0099604Y0219433D01*
X0099604Y0218532D01*
X0099154Y0218081D01*
X0096902Y0218081D01*
X0096862Y0207484D02*
X0096412Y0207033D01*
X0096412Y0205232D01*
X0096862Y0204781D01*
X0097763Y0204781D01*
X0098213Y0205232D01*
X0099358Y0205232D02*
X0099358Y0204781D01*
X0099358Y0205232D02*
X0101160Y0207033D01*
X0101160Y0207484D01*
X0099358Y0207484D01*
X0098213Y0207033D02*
X0097763Y0207484D01*
X0096862Y0207484D01*
X0096823Y0200141D02*
X0096372Y0199691D01*
X0096372Y0197889D01*
X0096823Y0197439D01*
X0097724Y0197439D01*
X0098174Y0197889D01*
X0099319Y0197439D02*
X0101121Y0199241D01*
X0101121Y0199691D01*
X0100670Y0200141D01*
X0099769Y0200141D01*
X0099319Y0199691D01*
X0098174Y0199691D02*
X0097724Y0200141D01*
X0096823Y0200141D01*
X0099319Y0197439D02*
X0101121Y0197439D01*
X0100259Y0193704D02*
X0099358Y0192804D01*
X0098213Y0193254D02*
X0097763Y0193704D01*
X0096862Y0193704D01*
X0096412Y0193254D01*
X0096412Y0191452D01*
X0096862Y0191002D01*
X0097763Y0191002D01*
X0098213Y0191452D01*
X0099358Y0191002D02*
X0101160Y0191002D01*
X0100259Y0191002D02*
X0100259Y0193704D01*
X0107155Y0185830D02*
X0106254Y0184929D01*
X0107155Y0185830D02*
X0107155Y0183128D01*
X0106254Y0183128D02*
X0108056Y0183128D01*
X0109201Y0183578D02*
X0111002Y0185380D01*
X0111002Y0183578D01*
X0110552Y0183128D01*
X0109651Y0183128D01*
X0109201Y0183578D01*
X0109201Y0185380D01*
X0109651Y0185830D01*
X0110552Y0185830D01*
X0111002Y0185380D01*
X0112147Y0185380D02*
X0112598Y0185830D01*
X0113499Y0185830D01*
X0113949Y0185380D01*
X0112147Y0183578D01*
X0112598Y0183128D01*
X0113499Y0183128D01*
X0113949Y0183578D01*
X0113949Y0185380D01*
X0115094Y0184929D02*
X0115094Y0183578D01*
X0115544Y0183128D01*
X0116895Y0183128D01*
X0116895Y0184929D01*
X0117484Y0180909D02*
X0117484Y0178207D01*
X0118384Y0178207D02*
X0116583Y0178207D01*
X0115438Y0178657D02*
X0115438Y0180909D01*
X0116583Y0180008D02*
X0117484Y0180909D01*
X0115438Y0178657D02*
X0114987Y0178207D01*
X0114087Y0178207D01*
X0113636Y0178657D01*
X0113636Y0180909D01*
X0112147Y0183578D02*
X0112147Y0185380D01*
X0101443Y0169622D02*
X0101443Y0167820D01*
X0101443Y0168721D02*
X0098741Y0168721D01*
X0099642Y0167820D01*
X0099642Y0166675D02*
X0101443Y0166675D01*
X0101443Y0165324D01*
X0100993Y0164874D01*
X0099642Y0164874D01*
X0099191Y0163729D02*
X0100993Y0161927D01*
X0101443Y0162378D01*
X0101443Y0163278D01*
X0100993Y0163729D01*
X0099191Y0163729D01*
X0098741Y0163278D01*
X0098741Y0162378D01*
X0099191Y0161927D01*
X0100993Y0161927D01*
X0102188Y0148468D02*
X0101287Y0147567D01*
X0100142Y0148018D02*
X0099692Y0148468D01*
X0098791Y0148468D01*
X0098341Y0148018D01*
X0098341Y0146216D01*
X0098791Y0145766D01*
X0099692Y0145766D01*
X0100142Y0146216D01*
X0101287Y0145766D02*
X0103089Y0145766D01*
X0102188Y0145766D02*
X0102188Y0148468D01*
X0104234Y0147117D02*
X0106036Y0147117D01*
X0105585Y0148468D02*
X0104234Y0147117D01*
X0105585Y0145766D02*
X0105585Y0148468D01*
X0105020Y0140555D02*
X0105020Y0116933D01*
X0128642Y0116933D01*
X0128642Y0140555D01*
X0105020Y0140555D01*
X0110768Y0146092D02*
X0111218Y0145642D01*
X0112119Y0145642D01*
X0112569Y0146092D01*
X0113714Y0146092D02*
X0114165Y0145642D01*
X0115066Y0145642D01*
X0115516Y0146092D01*
X0115516Y0146993D01*
X0115066Y0147443D01*
X0114615Y0147443D01*
X0113714Y0146993D01*
X0113714Y0148344D01*
X0115516Y0148344D01*
X0112569Y0147894D02*
X0112119Y0148344D01*
X0111218Y0148344D01*
X0110768Y0147894D01*
X0110768Y0146092D01*
X0109941Y0128744D02*
X0109943Y0128913D01*
X0109949Y0129082D01*
X0109960Y0129251D01*
X0109974Y0129419D01*
X0109993Y0129587D01*
X0110016Y0129755D01*
X0110042Y0129922D01*
X0110073Y0130088D01*
X0110108Y0130254D01*
X0110147Y0130418D01*
X0110191Y0130582D01*
X0110238Y0130744D01*
X0110289Y0130905D01*
X0110344Y0131065D01*
X0110403Y0131224D01*
X0110465Y0131381D01*
X0110532Y0131536D01*
X0110603Y0131690D01*
X0110677Y0131842D01*
X0110755Y0131992D01*
X0110836Y0132140D01*
X0110921Y0132286D01*
X0111010Y0132430D01*
X0111102Y0132572D01*
X0111198Y0132711D01*
X0111297Y0132848D01*
X0111399Y0132983D01*
X0111505Y0133115D01*
X0111614Y0133244D01*
X0111726Y0133371D01*
X0111841Y0133495D01*
X0111959Y0133616D01*
X0112080Y0133734D01*
X0112204Y0133849D01*
X0112331Y0133961D01*
X0112460Y0134070D01*
X0112592Y0134176D01*
X0112727Y0134278D01*
X0112864Y0134377D01*
X0113003Y0134473D01*
X0113145Y0134565D01*
X0113289Y0134654D01*
X0113435Y0134739D01*
X0113583Y0134820D01*
X0113733Y0134898D01*
X0113885Y0134972D01*
X0114039Y0135043D01*
X0114194Y0135110D01*
X0114351Y0135172D01*
X0114510Y0135231D01*
X0114670Y0135286D01*
X0114831Y0135337D01*
X0114993Y0135384D01*
X0115157Y0135428D01*
X0115321Y0135467D01*
X0115487Y0135502D01*
X0115653Y0135533D01*
X0115820Y0135559D01*
X0115988Y0135582D01*
X0116156Y0135601D01*
X0116324Y0135615D01*
X0116493Y0135626D01*
X0116662Y0135632D01*
X0116831Y0135634D01*
X0117000Y0135632D01*
X0117169Y0135626D01*
X0117338Y0135615D01*
X0117506Y0135601D01*
X0117674Y0135582D01*
X0117842Y0135559D01*
X0118009Y0135533D01*
X0118175Y0135502D01*
X0118341Y0135467D01*
X0118505Y0135428D01*
X0118669Y0135384D01*
X0118831Y0135337D01*
X0118992Y0135286D01*
X0119152Y0135231D01*
X0119311Y0135172D01*
X0119468Y0135110D01*
X0119623Y0135043D01*
X0119777Y0134972D01*
X0119929Y0134898D01*
X0120079Y0134820D01*
X0120227Y0134739D01*
X0120373Y0134654D01*
X0120517Y0134565D01*
X0120659Y0134473D01*
X0120798Y0134377D01*
X0120935Y0134278D01*
X0121070Y0134176D01*
X0121202Y0134070D01*
X0121331Y0133961D01*
X0121458Y0133849D01*
X0121582Y0133734D01*
X0121703Y0133616D01*
X0121821Y0133495D01*
X0121936Y0133371D01*
X0122048Y0133244D01*
X0122157Y0133115D01*
X0122263Y0132983D01*
X0122365Y0132848D01*
X0122464Y0132711D01*
X0122560Y0132572D01*
X0122652Y0132430D01*
X0122741Y0132286D01*
X0122826Y0132140D01*
X0122907Y0131992D01*
X0122985Y0131842D01*
X0123059Y0131690D01*
X0123130Y0131536D01*
X0123197Y0131381D01*
X0123259Y0131224D01*
X0123318Y0131065D01*
X0123373Y0130905D01*
X0123424Y0130744D01*
X0123471Y0130582D01*
X0123515Y0130418D01*
X0123554Y0130254D01*
X0123589Y0130088D01*
X0123620Y0129922D01*
X0123646Y0129755D01*
X0123669Y0129587D01*
X0123688Y0129419D01*
X0123702Y0129251D01*
X0123713Y0129082D01*
X0123719Y0128913D01*
X0123721Y0128744D01*
X0123719Y0128575D01*
X0123713Y0128406D01*
X0123702Y0128237D01*
X0123688Y0128069D01*
X0123669Y0127901D01*
X0123646Y0127733D01*
X0123620Y0127566D01*
X0123589Y0127400D01*
X0123554Y0127234D01*
X0123515Y0127070D01*
X0123471Y0126906D01*
X0123424Y0126744D01*
X0123373Y0126583D01*
X0123318Y0126423D01*
X0123259Y0126264D01*
X0123197Y0126107D01*
X0123130Y0125952D01*
X0123059Y0125798D01*
X0122985Y0125646D01*
X0122907Y0125496D01*
X0122826Y0125348D01*
X0122741Y0125202D01*
X0122652Y0125058D01*
X0122560Y0124916D01*
X0122464Y0124777D01*
X0122365Y0124640D01*
X0122263Y0124505D01*
X0122157Y0124373D01*
X0122048Y0124244D01*
X0121936Y0124117D01*
X0121821Y0123993D01*
X0121703Y0123872D01*
X0121582Y0123754D01*
X0121458Y0123639D01*
X0121331Y0123527D01*
X0121202Y0123418D01*
X0121070Y0123312D01*
X0120935Y0123210D01*
X0120798Y0123111D01*
X0120659Y0123015D01*
X0120517Y0122923D01*
X0120373Y0122834D01*
X0120227Y0122749D01*
X0120079Y0122668D01*
X0119929Y0122590D01*
X0119777Y0122516D01*
X0119623Y0122445D01*
X0119468Y0122378D01*
X0119311Y0122316D01*
X0119152Y0122257D01*
X0118992Y0122202D01*
X0118831Y0122151D01*
X0118669Y0122104D01*
X0118505Y0122060D01*
X0118341Y0122021D01*
X0118175Y0121986D01*
X0118009Y0121955D01*
X0117842Y0121929D01*
X0117674Y0121906D01*
X0117506Y0121887D01*
X0117338Y0121873D01*
X0117169Y0121862D01*
X0117000Y0121856D01*
X0116831Y0121854D01*
X0116662Y0121856D01*
X0116493Y0121862D01*
X0116324Y0121873D01*
X0116156Y0121887D01*
X0115988Y0121906D01*
X0115820Y0121929D01*
X0115653Y0121955D01*
X0115487Y0121986D01*
X0115321Y0122021D01*
X0115157Y0122060D01*
X0114993Y0122104D01*
X0114831Y0122151D01*
X0114670Y0122202D01*
X0114510Y0122257D01*
X0114351Y0122316D01*
X0114194Y0122378D01*
X0114039Y0122445D01*
X0113885Y0122516D01*
X0113733Y0122590D01*
X0113583Y0122668D01*
X0113435Y0122749D01*
X0113289Y0122834D01*
X0113145Y0122923D01*
X0113003Y0123015D01*
X0112864Y0123111D01*
X0112727Y0123210D01*
X0112592Y0123312D01*
X0112460Y0123418D01*
X0112331Y0123527D01*
X0112204Y0123639D01*
X0112080Y0123754D01*
X0111959Y0123872D01*
X0111841Y0123993D01*
X0111726Y0124117D01*
X0111614Y0124244D01*
X0111505Y0124373D01*
X0111399Y0124505D01*
X0111297Y0124640D01*
X0111198Y0124777D01*
X0111102Y0124916D01*
X0111010Y0125058D01*
X0110921Y0125202D01*
X0110836Y0125348D01*
X0110755Y0125496D01*
X0110677Y0125646D01*
X0110603Y0125798D01*
X0110532Y0125952D01*
X0110465Y0126107D01*
X0110403Y0126264D01*
X0110344Y0126423D01*
X0110289Y0126583D01*
X0110238Y0126744D01*
X0110191Y0126906D01*
X0110147Y0127070D01*
X0110108Y0127234D01*
X0110073Y0127400D01*
X0110042Y0127566D01*
X0110016Y0127733D01*
X0109993Y0127901D01*
X0109974Y0128069D01*
X0109960Y0128237D01*
X0109949Y0128406D01*
X0109943Y0128575D01*
X0109941Y0128744D01*
X0121529Y0150893D02*
X0123330Y0150893D01*
X0122430Y0150893D02*
X0122430Y0153595D01*
X0121529Y0152694D01*
X0124475Y0153144D02*
X0124475Y0151343D01*
X0126277Y0153144D01*
X0126277Y0151343D01*
X0125827Y0150893D01*
X0124926Y0150893D01*
X0124475Y0151343D01*
X0124475Y0153144D02*
X0124926Y0153595D01*
X0125827Y0153595D01*
X0126277Y0153144D01*
X0127422Y0152694D02*
X0127422Y0151343D01*
X0127872Y0150893D01*
X0129224Y0150893D01*
X0129224Y0152694D01*
X0122768Y0159130D02*
X0122770Y0159193D01*
X0122776Y0159255D01*
X0122786Y0159317D01*
X0122799Y0159379D01*
X0122817Y0159439D01*
X0122838Y0159498D01*
X0122863Y0159556D01*
X0122892Y0159612D01*
X0122924Y0159666D01*
X0122959Y0159718D01*
X0122997Y0159767D01*
X0123039Y0159815D01*
X0123083Y0159859D01*
X0123131Y0159901D01*
X0123180Y0159939D01*
X0123232Y0159974D01*
X0123286Y0160006D01*
X0123342Y0160035D01*
X0123400Y0160060D01*
X0123459Y0160081D01*
X0123519Y0160099D01*
X0123581Y0160112D01*
X0123643Y0160122D01*
X0123705Y0160128D01*
X0123768Y0160130D01*
X0123831Y0160128D01*
X0123893Y0160122D01*
X0123955Y0160112D01*
X0124017Y0160099D01*
X0124077Y0160081D01*
X0124136Y0160060D01*
X0124194Y0160035D01*
X0124250Y0160006D01*
X0124304Y0159974D01*
X0124356Y0159939D01*
X0124405Y0159901D01*
X0124453Y0159859D01*
X0124497Y0159815D01*
X0124539Y0159767D01*
X0124577Y0159718D01*
X0124612Y0159666D01*
X0124644Y0159612D01*
X0124673Y0159556D01*
X0124698Y0159498D01*
X0124719Y0159439D01*
X0124737Y0159379D01*
X0124750Y0159317D01*
X0124760Y0159255D01*
X0124766Y0159193D01*
X0124768Y0159130D01*
X0124766Y0159067D01*
X0124760Y0159005D01*
X0124750Y0158943D01*
X0124737Y0158881D01*
X0124719Y0158821D01*
X0124698Y0158762D01*
X0124673Y0158704D01*
X0124644Y0158648D01*
X0124612Y0158594D01*
X0124577Y0158542D01*
X0124539Y0158493D01*
X0124497Y0158445D01*
X0124453Y0158401D01*
X0124405Y0158359D01*
X0124356Y0158321D01*
X0124304Y0158286D01*
X0124250Y0158254D01*
X0124194Y0158225D01*
X0124136Y0158200D01*
X0124077Y0158179D01*
X0124017Y0158161D01*
X0123955Y0158148D01*
X0123893Y0158138D01*
X0123831Y0158132D01*
X0123768Y0158130D01*
X0123705Y0158132D01*
X0123643Y0158138D01*
X0123581Y0158148D01*
X0123519Y0158161D01*
X0123459Y0158179D01*
X0123400Y0158200D01*
X0123342Y0158225D01*
X0123286Y0158254D01*
X0123232Y0158286D01*
X0123180Y0158321D01*
X0123131Y0158359D01*
X0123083Y0158401D01*
X0123039Y0158445D01*
X0122997Y0158493D01*
X0122959Y0158542D01*
X0122924Y0158594D01*
X0122892Y0158648D01*
X0122863Y0158704D01*
X0122838Y0158762D01*
X0122817Y0158821D01*
X0122799Y0158881D01*
X0122786Y0158943D01*
X0122776Y0159005D01*
X0122770Y0159067D01*
X0122768Y0159130D01*
X0123449Y0114964D02*
X0122999Y0114514D01*
X0122999Y0114063D01*
X0123449Y0113613D01*
X0124350Y0113613D01*
X0124801Y0113163D01*
X0124801Y0112712D01*
X0124350Y0112262D01*
X0123449Y0112262D01*
X0122999Y0112712D01*
X0123449Y0114964D02*
X0124350Y0114964D01*
X0124801Y0114514D01*
X0125946Y0114514D02*
X0126396Y0114964D01*
X0127297Y0114964D01*
X0127747Y0114514D01*
X0127747Y0114063D01*
X0125946Y0112262D01*
X0127747Y0112262D01*
X0124853Y0105122D02*
X0124853Y0102419D01*
X0123952Y0102419D02*
X0125754Y0102419D01*
X0123952Y0104221D02*
X0124853Y0105122D01*
X0122807Y0105122D02*
X0121006Y0105122D01*
X0121906Y0105122D02*
X0121906Y0102419D01*
X0119861Y0102419D02*
X0119861Y0104221D01*
X0118960Y0105122D01*
X0118059Y0104221D01*
X0118059Y0102419D01*
X0116914Y0102870D02*
X0116464Y0102419D01*
X0115113Y0102419D01*
X0115113Y0105122D01*
X0116464Y0105122D01*
X0116914Y0104671D01*
X0116914Y0104221D01*
X0116464Y0103770D01*
X0115113Y0103770D01*
X0116464Y0103770D02*
X0116914Y0103320D01*
X0116914Y0102870D01*
X0118059Y0103770D02*
X0119861Y0103770D01*
X0096232Y0120586D02*
X0095782Y0120136D01*
X0094431Y0120136D01*
X0094431Y0119235D02*
X0094431Y0121937D01*
X0095782Y0121937D01*
X0096232Y0121487D01*
X0096232Y0120586D01*
X0093286Y0120136D02*
X0091484Y0120136D01*
X0093286Y0121937D01*
X0093286Y0122388D01*
X0092835Y0122838D01*
X0091935Y0122838D01*
X0091484Y0122388D01*
X0089439Y0122838D02*
X0089439Y0120136D01*
X0090339Y0120136D02*
X0088538Y0120136D01*
X0088538Y0121937D02*
X0089439Y0122838D01*
X0089889Y0124073D02*
X0090339Y0124523D01*
X0089889Y0124073D02*
X0088988Y0124073D01*
X0088538Y0124523D01*
X0088538Y0126325D01*
X0088988Y0126775D01*
X0089889Y0126775D01*
X0090339Y0126325D01*
X0091484Y0125424D02*
X0093286Y0125424D01*
X0092835Y0126775D02*
X0091484Y0125424D01*
X0092835Y0124073D02*
X0092835Y0126775D01*
X0068187Y0122596D02*
X0066386Y0122596D01*
X0067287Y0122596D02*
X0067287Y0125299D01*
X0066386Y0124398D01*
X0065241Y0124848D02*
X0065241Y0125299D01*
X0065241Y0124848D02*
X0064340Y0123948D01*
X0064340Y0122596D01*
X0064340Y0123948D02*
X0063439Y0124848D01*
X0063439Y0125299D01*
X0059815Y0121487D02*
X0059815Y0120586D01*
X0059365Y0120136D01*
X0058014Y0120136D01*
X0058014Y0119235D02*
X0058014Y0121937D01*
X0059365Y0121937D01*
X0059815Y0121487D01*
X0056869Y0121937D02*
X0056869Y0122388D01*
X0056418Y0122838D01*
X0055517Y0122838D01*
X0055067Y0122388D01*
X0055517Y0124073D02*
X0055067Y0124523D01*
X0055517Y0124073D02*
X0056418Y0124073D01*
X0056869Y0124523D01*
X0056869Y0124974D01*
X0056418Y0125424D01*
X0055968Y0125424D01*
X0056418Y0125424D02*
X0056869Y0125874D01*
X0056869Y0126325D01*
X0056418Y0126775D01*
X0055517Y0126775D01*
X0055067Y0126325D01*
X0053922Y0126325D02*
X0053472Y0126775D01*
X0052571Y0126775D01*
X0052120Y0126325D01*
X0052120Y0124523D01*
X0052571Y0124073D01*
X0053472Y0124073D01*
X0053922Y0124523D01*
X0053021Y0122838D02*
X0053021Y0120136D01*
X0052120Y0120136D02*
X0053922Y0120136D01*
X0055067Y0120136D02*
X0056869Y0121937D01*
X0056869Y0120136D02*
X0055067Y0120136D01*
X0053021Y0122838D02*
X0052120Y0121937D01*
X0036448Y0129456D02*
X0034646Y0129456D01*
X0035547Y0129456D02*
X0035547Y0132158D01*
X0034646Y0131257D01*
X0033501Y0131257D02*
X0033501Y0129456D01*
X0033501Y0130807D02*
X0031700Y0130807D01*
X0031700Y0131257D02*
X0031700Y0129456D01*
X0031700Y0131257D02*
X0032601Y0132158D01*
X0033501Y0131257D01*
X0035276Y0171067D02*
X0027776Y0171067D01*
X0027776Y0196067D01*
X0035276Y0196067D01*
X0035276Y0171067D01*
X0037849Y0208719D02*
X0039650Y0208719D01*
X0038750Y0208719D02*
X0038750Y0211421D01*
X0037849Y0210520D01*
X0040795Y0209619D02*
X0042146Y0210520D01*
X0040795Y0209619D02*
X0042146Y0208719D01*
X0040795Y0208719D02*
X0040795Y0211421D01*
X0044246Y0210070D02*
X0046048Y0210070D01*
X0047193Y0210520D02*
X0048544Y0210520D01*
X0048995Y0210070D01*
X0048995Y0208719D01*
X0050140Y0208719D02*
X0050140Y0209169D01*
X0051941Y0210970D01*
X0051941Y0211421D01*
X0050140Y0211421D01*
X0047193Y0210520D02*
X0047193Y0208719D01*
X0045598Y0208719D02*
X0045598Y0211421D01*
X0044246Y0210070D01*
X0043623Y0224467D02*
X0042722Y0224467D01*
X0042272Y0224917D01*
X0042272Y0225367D01*
X0042722Y0225818D01*
X0043623Y0225818D01*
X0044073Y0225367D01*
X0044073Y0224917D01*
X0043623Y0224467D01*
X0043623Y0225818D02*
X0044073Y0226268D01*
X0044073Y0226718D01*
X0043623Y0227169D01*
X0042722Y0227169D01*
X0042272Y0226718D01*
X0042272Y0226268D01*
X0042722Y0225818D01*
X0041127Y0225818D02*
X0040676Y0225367D01*
X0039325Y0225367D01*
X0039325Y0224467D02*
X0039325Y0227169D01*
X0040676Y0227169D01*
X0041127Y0226718D01*
X0041127Y0225818D01*
X0040226Y0225367D02*
X0041127Y0224467D01*
X0046215Y0224917D02*
X0046665Y0224467D01*
X0047566Y0224467D01*
X0048017Y0224917D01*
X0049161Y0224467D02*
X0050963Y0224467D01*
X0050062Y0224467D02*
X0050062Y0227169D01*
X0049161Y0226268D01*
X0048017Y0226718D02*
X0047566Y0227169D01*
X0046665Y0227169D01*
X0046215Y0226718D01*
X0046215Y0224917D01*
X0052108Y0224467D02*
X0053910Y0226268D01*
X0053910Y0226718D01*
X0053459Y0227169D01*
X0052558Y0227169D01*
X0052108Y0226718D01*
X0052108Y0224467D02*
X0053910Y0224467D01*
X0056057Y0224467D02*
X0056057Y0227169D01*
X0057409Y0227169D01*
X0057859Y0226718D01*
X0057859Y0225818D01*
X0057409Y0225367D01*
X0056057Y0225367D01*
X0056958Y0225367D02*
X0057859Y0224467D01*
X0059004Y0224467D02*
X0060806Y0224467D01*
X0059905Y0224467D02*
X0059905Y0227169D01*
X0059004Y0226268D01*
X0059004Y0211421D02*
X0059004Y0208719D01*
X0059004Y0209619D02*
X0060355Y0210520D01*
X0061459Y0210520D02*
X0061910Y0210070D01*
X0062811Y0210070D01*
X0063261Y0209619D01*
X0063261Y0209169D01*
X0062811Y0208719D01*
X0061910Y0208719D01*
X0061459Y0209169D01*
X0061459Y0209619D01*
X0061910Y0210070D01*
X0061459Y0210520D02*
X0061459Y0210970D01*
X0061910Y0211421D01*
X0062811Y0211421D01*
X0063261Y0210970D01*
X0063261Y0210520D01*
X0062811Y0210070D01*
X0060355Y0208719D02*
X0059004Y0209619D01*
X0057859Y0209619D02*
X0057409Y0210070D01*
X0056057Y0210070D01*
X0056057Y0209169D01*
X0056508Y0208719D01*
X0057409Y0208719D01*
X0057859Y0209169D01*
X0057859Y0209619D01*
X0056958Y0210970D02*
X0056057Y0210070D01*
X0056958Y0210970D02*
X0057859Y0211421D01*
X0072540Y0218311D02*
X0072540Y0222248D01*
X0101825Y0259407D02*
X0101825Y0262110D01*
X0102726Y0261209D01*
X0103627Y0262110D01*
X0103627Y0259407D01*
X0104772Y0258957D02*
X0106573Y0258957D01*
X0107718Y0259407D02*
X0107718Y0262110D01*
X0109520Y0262110D01*
X0108619Y0260759D02*
X0107718Y0260759D01*
X0108996Y0255657D02*
X0110798Y0255657D01*
X0109446Y0255657D02*
X0109446Y0253856D01*
X0108996Y0253856D02*
X0108095Y0254757D01*
X0108996Y0255657D01*
X0108996Y0253856D02*
X0110798Y0253856D01*
X0110798Y0252711D02*
X0108095Y0252711D01*
X0108095Y0250909D02*
X0110798Y0252711D01*
X0110798Y0250909D02*
X0108095Y0250909D01*
X0108095Y0249764D02*
X0108095Y0247963D01*
X0110798Y0247963D01*
X0110798Y0249764D01*
X0109446Y0248864D02*
X0109446Y0247963D01*
X0027833Y0264821D02*
X0026032Y0264821D01*
X0026032Y0267523D01*
X0024887Y0267523D02*
X0024887Y0267073D01*
X0023986Y0266172D01*
X0023986Y0264821D01*
X0023986Y0266172D02*
X0023085Y0267073D01*
X0023085Y0267523D01*
X0023535Y0273679D02*
X0024436Y0273679D01*
X0024887Y0274130D01*
X0024887Y0275030D01*
X0023986Y0275030D01*
X0023085Y0274130D02*
X0023535Y0273679D01*
X0023085Y0274130D02*
X0023085Y0275931D01*
X0023535Y0276381D01*
X0024436Y0276381D01*
X0024887Y0275931D01*
X0026032Y0276381D02*
X0026032Y0273679D01*
X0026032Y0274580D02*
X0027383Y0274580D01*
X0027833Y0275030D01*
X0027833Y0275931D01*
X0027383Y0276381D01*
X0026032Y0276381D01*
X0026932Y0274580D02*
X0027833Y0273679D01*
D13*
X0032177Y0071765D02*
X0035321Y0069395D01*
X0038465Y0067026D02*
X0041609Y0064657D01*
X0034978Y0091837D02*
X0031834Y0094207D01*
X0028690Y0096576D02*
X0025545Y0098945D01*
X0027915Y0102089D01*
X0039762Y0117811D02*
X0042131Y0120955D01*
X0045275Y0118586D01*
X0048419Y0116216D02*
X0051564Y0113847D01*
X0070086Y0122073D02*
X0073230Y0119703D01*
X0076375Y0117334D02*
X0079519Y0114964D01*
X0074213Y0126776D02*
X0074213Y0132681D01*
X0070867Y0132681D02*
X0070867Y0126776D01*
X0126682Y0079424D02*
X0126751Y0078381D01*
X0126797Y0077336D01*
X0126819Y0076290D01*
X0126819Y0075244D01*
X0126682Y0079424D02*
X0123538Y0081794D01*
X0120394Y0084163D02*
X0117250Y0086532D01*
X0123881Y0059352D02*
X0127025Y0056982D01*
X0130169Y0054613D02*
X0133314Y0052244D01*
X0130944Y0049099D01*
X0119098Y0033378D02*
X0116728Y0030234D01*
X0113584Y0032603D01*
X0110440Y0034973D02*
X0107295Y0037342D01*
X0088773Y0029116D02*
X0085629Y0031486D01*
X0082484Y0033855D02*
X0079340Y0036225D01*
X0032177Y0071765D02*
X0032108Y0072808D01*
X0032062Y0073853D01*
X0032040Y0074899D01*
X0032040Y0075945D01*
X0088773Y0029117D02*
X0089795Y0029339D01*
X0090812Y0029583D01*
X0091824Y0029849D01*
X0092829Y0030138D01*
X0032248Y0079875D02*
X0032359Y0080915D01*
X0032492Y0081953D01*
X0032648Y0082987D01*
X0032827Y0084017D01*
X0096550Y0031421D02*
X0097519Y0031814D01*
X0098480Y0032228D01*
X0099431Y0032663D01*
X0100372Y0033119D01*
X0033702Y0087854D02*
X0033988Y0088860D01*
X0034296Y0089860D01*
X0034627Y0090852D01*
X0034979Y0091837D01*
X0103819Y0035018D02*
X0104707Y0035570D01*
X0105583Y0036142D01*
X0106446Y0036733D01*
X0107296Y0037343D01*
X0062310Y0119768D02*
X0061341Y0119375D01*
X0060380Y0118961D01*
X0059429Y0118526D01*
X0058488Y0118070D01*
X0126611Y0071314D02*
X0126500Y0070274D01*
X0126367Y0069236D01*
X0126211Y0068202D01*
X0126032Y0067172D01*
X0070087Y0122072D02*
X0069065Y0121850D01*
X0068048Y0121606D01*
X0067036Y0121340D01*
X0066031Y0121051D01*
X0125157Y0063335D02*
X0124871Y0062329D01*
X0124563Y0061329D01*
X0124232Y0060337D01*
X0123880Y0059352D01*
X0055041Y0116171D02*
X0054153Y0115619D01*
X0053277Y0115047D01*
X0052414Y0114456D01*
X0051564Y0113846D01*
X0113268Y0157130D02*
X0128268Y0157130D01*
X0128268Y0158380D01*
X0128268Y0175880D02*
X0128268Y0177130D01*
X0113268Y0177130D01*
X0113268Y0175880D01*
X0113268Y0158380D02*
X0113268Y0157130D01*
X0037599Y0261126D02*
X0035630Y0261126D01*
X0035630Y0259650D01*
X0032678Y0261126D01*
X0030709Y0261126D01*
X0032678Y0261126D02*
X0032678Y0262602D01*
X0032678Y0261126D02*
X0032678Y0259650D01*
X0032678Y0261126D02*
X0035630Y0262602D01*
X0035630Y0261126D01*
X0035630Y0269492D02*
X0032678Y0270969D01*
X0030709Y0270969D01*
X0032678Y0270969D02*
X0032678Y0272445D01*
X0032678Y0270969D02*
X0032678Y0269492D01*
X0032678Y0270969D02*
X0035630Y0272445D01*
X0035630Y0270969D01*
X0037599Y0270969D01*
X0035630Y0270969D02*
X0035630Y0269492D01*
D14*
X0048652Y0265555D02*
X0051152Y0265555D01*
X0056526Y0265555D02*
X0059026Y0265555D01*
X0064400Y0265555D02*
X0066900Y0265555D01*
X0059026Y0217819D02*
X0056526Y0217819D01*
X0051152Y0217819D02*
X0048652Y0217819D01*
X0043278Y0217819D02*
X0040778Y0217819D01*
X0056792Y0130978D02*
X0056792Y0128478D01*
X0088288Y0128478D02*
X0088288Y0130978D01*
X0100817Y0155319D02*
X0103317Y0155319D01*
X0114863Y0153616D02*
X0114863Y0151116D01*
X0125768Y0158130D02*
X0125768Y0176130D01*
X0107973Y0197376D02*
X0107973Y0199876D01*
X0107973Y0205250D02*
X0107973Y0207750D01*
X0111644Y0232091D02*
X0114144Y0232091D01*
X0104302Y0232091D02*
X0101802Y0232091D01*
X0109941Y0266274D02*
X0109941Y0268774D01*
X0124705Y0268774D02*
X0124705Y0266274D01*
X0124705Y0260900D02*
X0124705Y0258400D01*
X0124705Y0253026D02*
X0124705Y0250526D01*
X0124705Y0223498D02*
X0124705Y0220998D01*
X0124705Y0215624D02*
X0124705Y0213124D01*
D15*
X0108957Y0104531D02*
X0120965Y0093902D01*
X0120965Y0088193D01*
X0120965Y0062996D02*
X0120965Y0055181D01*
X0114430Y0048094D01*
X0111930Y0050594D01*
X0049902Y0104531D02*
X0037894Y0093902D01*
X0037894Y0088193D01*
X0037894Y0062996D02*
X0037894Y0055181D01*
X0044430Y0048094D01*
X0046930Y0050594D01*
D16*
X0029548Y0089378D02*
X0024858Y0092911D01*
X0025436Y0088800D02*
X0028970Y0093489D01*
X0072540Y0127760D02*
X0072540Y0131697D01*
X0106525Y0032604D02*
X0111214Y0029070D01*
D17*
X0092028Y0136815D02*
X0084646Y0136815D01*
X0092028Y0136815D02*
X0092028Y0144197D01*
X0092028Y0197937D02*
X0092028Y0205319D01*
X0084646Y0205319D01*
X0031398Y0205319D02*
X0023524Y0205319D01*
X0023524Y0197445D01*
X0023524Y0144689D02*
X0023524Y0136815D01*
X0025000Y0136815D01*
M02*
