G75*
%MOIN*%
%OFA0B0*%
%FSLAX25Y25*%
%IPPOS*%
%LPD*%
%AMOC8*
5,1,8,0,0,1.08239X$1,22.5*
%
%ADD10R,0.07000X0.10000*%
%ADD11C,0.31496*%
%ADD12R,0.06600X0.06600*%
%ADD13C,0.06600*%
%ADD14R,0.12598X0.16535*%
%ADD15R,0.04331X0.06693*%
%ADD16R,0.04331X0.03937*%
%ADD17R,0.03937X0.04331*%
%ADD18R,0.02362X0.08661*%
%ADD19C,0.01600*%
%ADD20C,0.03169*%
%ADD21C,0.04000*%
%ADD22C,0.02400*%
%ADD23C,0.02000*%
%ADD24C,0.03562*%
%ADD25C,0.03200*%
D10*
X0036122Y0069492D03*
X0036122Y0081697D03*
X0122737Y0081697D03*
X0122737Y0069492D03*
D11*
X0079430Y0075594D03*
D12*
X0030138Y0253902D03*
D13*
X0030138Y0243902D03*
X0030138Y0233902D03*
X0040138Y0233902D03*
X0040138Y0243902D03*
X0040138Y0253902D03*
D14*
G36*
X0033422Y0099912D02*
X0023362Y0107494D01*
X0033312Y0120698D01*
X0043372Y0113116D01*
X0033422Y0099912D01*
G37*
G36*
X0125548Y0030491D02*
X0115488Y0038073D01*
X0125438Y0051277D01*
X0135498Y0043695D01*
X0125548Y0030491D01*
G37*
D15*
X0084351Y0140555D03*
X0074508Y0140555D03*
D16*
X0076083Y0131697D03*
X0082776Y0131697D03*
D17*
X0082776Y0182878D03*
X0082776Y0191736D03*
X0076083Y0191736D03*
X0076083Y0182878D03*
D18*
X0076930Y0173429D03*
X0081930Y0173429D03*
X0086930Y0173429D03*
X0086930Y0152957D03*
X0081930Y0152957D03*
X0076930Y0152957D03*
X0071930Y0152957D03*
X0071930Y0173429D03*
D19*
X0072048Y0168606D01*
X0069587Y0166146D01*
X0070806Y0162792D02*
X0070451Y0161934D01*
X0070451Y0160515D01*
X0070994Y0159205D01*
X0071111Y0159087D01*
X0070511Y0159087D01*
X0070054Y0158965D01*
X0069643Y0158728D01*
X0069308Y0158393D01*
X0069071Y0157982D01*
X0068948Y0157524D01*
X0068948Y0152957D01*
X0071929Y0152957D01*
X0071929Y0152957D01*
X0068948Y0152957D01*
X0068948Y0148389D01*
X0069071Y0147931D01*
X0069308Y0147521D01*
X0069643Y0147186D01*
X0070054Y0146949D01*
X0070511Y0146826D01*
X0071929Y0146826D01*
X0071929Y0152957D01*
X0071930Y0152957D01*
X0071930Y0146826D01*
X0073348Y0146826D01*
X0073805Y0146949D01*
X0074216Y0147186D01*
X0074301Y0147271D01*
X0074928Y0146645D01*
X0075890Y0146645D01*
X0075182Y0145937D01*
X0075079Y0145883D01*
X0071522Y0145883D01*
X0070362Y0144722D01*
X0070362Y0136388D01*
X0071522Y0135228D01*
X0073024Y0135228D01*
X0072813Y0135106D01*
X0072477Y0134771D01*
X0072240Y0134360D01*
X0072118Y0133902D01*
X0072118Y0131881D01*
X0075899Y0131881D01*
X0075899Y0131513D01*
X0072118Y0131513D01*
X0072118Y0129491D01*
X0072240Y0129034D01*
X0072477Y0128623D01*
X0072813Y0128288D01*
X0073223Y0128051D01*
X0073681Y0127928D01*
X0075899Y0127928D01*
X0075899Y0131513D01*
X0076267Y0131513D01*
X0076267Y0127928D01*
X0078485Y0127928D01*
X0078943Y0128051D01*
X0079288Y0128250D01*
X0079790Y0127747D01*
X0085762Y0127747D01*
X0086922Y0128908D01*
X0086922Y0134486D01*
X0086394Y0135015D01*
X0086432Y0135228D01*
X0087337Y0135228D01*
X0088497Y0136388D01*
X0088497Y0142182D01*
X0089261Y0143710D01*
X0089339Y0143788D01*
X0089525Y0144238D01*
X0089743Y0144674D01*
X0089751Y0144783D01*
X0089793Y0144883D01*
X0089793Y0145371D01*
X0089827Y0145857D01*
X0089793Y0145960D01*
X0089793Y0147506D01*
X0090092Y0147805D01*
X0090092Y0158108D01*
X0088931Y0159268D01*
X0084928Y0159268D01*
X0084430Y0158770D01*
X0083931Y0159268D01*
X0082182Y0159268D01*
X0088896Y0165983D01*
X0089301Y0166370D01*
X0089314Y0166401D01*
X0089339Y0166426D01*
X0089553Y0166943D01*
X0089779Y0167455D01*
X0089779Y0167489D01*
X0089793Y0167521D01*
X0089793Y0167979D01*
X0090092Y0168278D01*
X0090092Y0178580D01*
X0088931Y0179741D01*
X0086575Y0179741D01*
X0086726Y0179892D01*
X0086726Y0185864D01*
X0086309Y0186281D01*
X0086440Y0186598D01*
X0086440Y0188016D01*
X0086309Y0188333D01*
X0086726Y0188750D01*
X0086726Y0194722D01*
X0085565Y0195883D01*
X0079987Y0195883D01*
X0079430Y0195325D01*
X0078872Y0195883D01*
X0073294Y0195883D01*
X0072133Y0194722D01*
X0072133Y0192043D01*
X0069883Y0189841D01*
X0069867Y0189834D01*
X0069459Y0189426D01*
X0069047Y0189023D01*
X0069040Y0189008D01*
X0069028Y0188996D01*
X0068808Y0188463D01*
X0068581Y0187933D01*
X0068581Y0187916D01*
X0068574Y0187900D01*
X0068574Y0187324D01*
X0068568Y0186747D01*
X0068574Y0186731D01*
X0068574Y0179425D01*
X0068540Y0179321D01*
X0068574Y0178835D01*
X0068574Y0178348D01*
X0068616Y0178247D01*
X0068624Y0178138D01*
X0068767Y0177851D01*
X0068767Y0169665D01*
X0067567Y0169168D01*
X0066564Y0168165D01*
X0066022Y0166855D01*
X0066022Y0165436D01*
X0066564Y0164126D01*
X0067567Y0163123D01*
X0068878Y0162580D01*
X0070296Y0162580D01*
X0070806Y0162792D01*
X0070451Y0161641D02*
X0051699Y0161641D01*
X0051699Y0160043D02*
X0070647Y0160043D01*
X0069360Y0158444D02*
X0051699Y0158444D01*
X0051699Y0157942D02*
X0051699Y0180742D01*
X0085926Y0214969D01*
X0085926Y0214969D01*
X0086708Y0215751D01*
X0087132Y0216774D01*
X0087132Y0246915D01*
X0086708Y0247938D01*
X0085926Y0248720D01*
X0085456Y0249191D01*
X0085456Y0249532D01*
X0084913Y0250842D01*
X0083910Y0251845D01*
X0082599Y0252388D01*
X0081181Y0252388D01*
X0079871Y0251845D01*
X0078868Y0250842D01*
X0078325Y0249532D01*
X0078325Y0248114D01*
X0078868Y0246803D01*
X0079871Y0245800D01*
X0081181Y0245257D01*
X0081522Y0245257D01*
X0081570Y0245210D01*
X0081570Y0239450D01*
X0080221Y0240009D01*
X0078638Y0240009D01*
X0077289Y0239450D01*
X0077289Y0250360D01*
X0076866Y0251382D01*
X0076105Y0252143D01*
X0076105Y0252485D01*
X0075562Y0253795D01*
X0074559Y0254798D01*
X0073249Y0255341D01*
X0071831Y0255341D01*
X0070520Y0254798D01*
X0069587Y0253865D01*
X0068654Y0254798D01*
X0067343Y0255341D01*
X0065925Y0255341D01*
X0064615Y0254798D01*
X0063612Y0253795D01*
X0063069Y0252485D01*
X0063069Y0251066D01*
X0063612Y0249756D01*
X0064615Y0248753D01*
X0065925Y0248210D01*
X0066267Y0248210D01*
X0067790Y0246687D01*
X0067790Y0220080D01*
X0067549Y0219838D01*
X0067126Y0218819D01*
X0066704Y0219838D01*
X0065701Y0220841D01*
X0064391Y0221384D01*
X0062972Y0221384D01*
X0061662Y0220841D01*
X0061420Y0220600D01*
X0054991Y0220600D01*
X0048746Y0226845D01*
X0048746Y0237987D01*
X0048750Y0238531D01*
X0048746Y0238540D01*
X0048746Y0238549D01*
X0048538Y0239052D01*
X0048333Y0239556D01*
X0048326Y0239562D01*
X0048323Y0239571D01*
X0047938Y0239956D01*
X0045319Y0242610D01*
X0045419Y0242851D01*
X0045419Y0244952D01*
X0044615Y0246893D01*
X0043130Y0248379D01*
X0041867Y0248902D01*
X0043130Y0249424D01*
X0044615Y0250910D01*
X0045419Y0252851D01*
X0045419Y0254952D01*
X0044615Y0256893D01*
X0043130Y0258379D01*
X0041189Y0259183D01*
X0039088Y0259183D01*
X0037147Y0258379D01*
X0035661Y0256893D01*
X0035419Y0256309D01*
X0035419Y0258022D01*
X0034259Y0259183D01*
X0026018Y0259183D01*
X0024857Y0258022D01*
X0024857Y0252420D01*
X0023371Y0250874D01*
X0023371Y0291146D01*
X0023447Y0292296D01*
X0024042Y0294519D01*
X0025193Y0296511D01*
X0026820Y0298138D01*
X0028812Y0299289D01*
X0031035Y0299884D01*
X0032185Y0299960D01*
X0126674Y0299960D01*
X0127824Y0299884D01*
X0130047Y0299289D01*
X0132039Y0298138D01*
X0133666Y0296511D01*
X0134817Y0294519D01*
X0135412Y0292296D01*
X0135488Y0291146D01*
X0135488Y0045958D01*
X0132190Y0048442D01*
X0126613Y0041041D01*
X0125335Y0042004D01*
X0124372Y0040726D01*
X0118543Y0045119D01*
X0113906Y0038966D01*
X0113728Y0038526D01*
X0113671Y0038056D01*
X0113737Y0037586D01*
X0113922Y0037150D01*
X0114214Y0036777D01*
X0118795Y0033324D01*
X0124372Y0040726D01*
X0125650Y0039763D01*
X0120073Y0032362D01*
X0122725Y0030363D01*
X0093418Y0030363D01*
X0099491Y0032573D01*
X0106657Y0036710D01*
X0106657Y0036710D01*
X0112995Y0042029D01*
X0112995Y0042029D01*
X0118314Y0048367D01*
X0122451Y0055533D01*
X0124991Y0062511D01*
X0127057Y0062511D01*
X0128218Y0063672D01*
X0128218Y0075313D01*
X0127936Y0075594D01*
X0128218Y0075876D01*
X0128218Y0087517D01*
X0127057Y0088678D01*
X0118813Y0088678D01*
X0118771Y0088843D01*
X0118687Y0088894D01*
X0117167Y0093454D01*
X0117232Y0093780D01*
X0116885Y0094300D01*
X0116687Y0094893D01*
X0116390Y0095042D01*
X0113225Y0099789D01*
X0113238Y0099914D01*
X0112721Y0100545D01*
X0112269Y0101223D01*
X0112147Y0101248D01*
X0109535Y0104439D01*
X0109510Y0104689D01*
X0108968Y0105133D01*
X0108524Y0105675D01*
X0108274Y0105700D01*
X0105083Y0108311D01*
X0105058Y0108434D01*
X0104380Y0108886D01*
X0103749Y0109403D01*
X0103624Y0109390D01*
X0098877Y0112555D01*
X0098728Y0112852D01*
X0098135Y0113050D01*
X0097615Y0113397D01*
X0097290Y0113332D01*
X0092729Y0114852D01*
X0092678Y0114936D01*
X0091865Y0115140D01*
X0091069Y0115405D01*
X0090981Y0115361D01*
X0084507Y0116979D01*
X0084291Y0117196D01*
X0083641Y0117196D01*
X0083011Y0117353D01*
X0082749Y0117196D01*
X0076111Y0117196D01*
X0075848Y0117353D01*
X0075218Y0117196D01*
X0074568Y0117196D01*
X0074352Y0116979D01*
X0067878Y0115361D01*
X0067790Y0115405D01*
X0066994Y0115140D01*
X0066181Y0114936D01*
X0066130Y0114852D01*
X0061570Y0113332D01*
X0061244Y0113397D01*
X0060724Y0113050D01*
X0060131Y0112852D01*
X0059982Y0112555D01*
X0055235Y0109390D01*
X0055110Y0109403D01*
X0054479Y0108886D01*
X0053801Y0108434D01*
X0053776Y0108311D01*
X0050585Y0105700D01*
X0050335Y0105675D01*
X0049891Y0105133D01*
X0049349Y0104689D01*
X0049324Y0104439D01*
X0048004Y0102826D01*
X0047978Y0103270D01*
X0047978Y0109994D01*
X0047996Y0110737D01*
X0047978Y0110784D01*
X0047978Y0151765D01*
X0049193Y0151261D01*
X0050611Y0151261D01*
X0051922Y0151804D01*
X0052925Y0152807D01*
X0053467Y0154118D01*
X0053467Y0155536D01*
X0052925Y0156846D01*
X0068948Y0156846D01*
X0068948Y0155247D02*
X0053467Y0155247D01*
X0053273Y0153649D02*
X0068948Y0153649D01*
X0068948Y0152050D02*
X0052167Y0152050D01*
X0049902Y0154827D02*
X0048918Y0156795D01*
X0048918Y0181894D01*
X0084351Y0217327D01*
X0084351Y0246362D01*
X0081890Y0248823D01*
X0081570Y0244764D02*
X0077289Y0244764D01*
X0077289Y0246362D02*
X0079309Y0246362D01*
X0078388Y0247961D02*
X0077289Y0247961D01*
X0077289Y0249559D02*
X0078336Y0249559D01*
X0079183Y0251158D02*
X0076959Y0251158D01*
X0075993Y0252756D02*
X0135488Y0252756D01*
X0135488Y0251158D02*
X0084597Y0251158D01*
X0085444Y0249559D02*
X0135488Y0249559D01*
X0135488Y0247961D02*
X0086685Y0247961D01*
X0087132Y0246362D02*
X0135488Y0246362D01*
X0135488Y0244764D02*
X0087132Y0244764D01*
X0087132Y0243165D02*
X0135488Y0243165D01*
X0135488Y0241567D02*
X0087132Y0241567D01*
X0087132Y0239968D02*
X0135488Y0239968D01*
X0135488Y0238370D02*
X0087132Y0238370D01*
X0087132Y0236771D02*
X0135488Y0236771D01*
X0135488Y0235173D02*
X0087132Y0235173D01*
X0087132Y0233574D02*
X0135488Y0233574D01*
X0135488Y0231976D02*
X0087132Y0231976D01*
X0087132Y0230377D02*
X0135488Y0230377D01*
X0135488Y0228779D02*
X0087132Y0228779D01*
X0087132Y0227180D02*
X0135488Y0227180D01*
X0135488Y0225582D02*
X0087132Y0225582D01*
X0087132Y0223983D02*
X0135488Y0223983D01*
X0135488Y0222385D02*
X0087132Y0222385D01*
X0087132Y0220786D02*
X0135488Y0220786D01*
X0135488Y0219187D02*
X0087132Y0219187D01*
X0087132Y0217589D02*
X0135488Y0217589D01*
X0135488Y0215990D02*
X0086808Y0215990D01*
X0085349Y0214392D02*
X0135488Y0214392D01*
X0135488Y0212793D02*
X0083751Y0212793D01*
X0082152Y0211195D02*
X0135488Y0211195D01*
X0135488Y0209596D02*
X0080554Y0209596D01*
X0078955Y0207998D02*
X0135488Y0207998D01*
X0135488Y0206399D02*
X0077356Y0206399D01*
X0075758Y0204801D02*
X0135488Y0204801D01*
X0135488Y0203202D02*
X0074159Y0203202D01*
X0072561Y0201604D02*
X0135488Y0201604D01*
X0135488Y0200005D02*
X0070962Y0200005D01*
X0069364Y0198407D02*
X0135488Y0198407D01*
X0135488Y0196808D02*
X0067765Y0196808D01*
X0066167Y0195210D02*
X0072621Y0195210D01*
X0072133Y0193611D02*
X0064568Y0193611D01*
X0062970Y0192013D02*
X0072103Y0192013D01*
X0070469Y0190414D02*
X0061371Y0190414D01*
X0059773Y0188816D02*
X0068954Y0188816D01*
X0068573Y0187217D02*
X0058174Y0187217D01*
X0056576Y0185619D02*
X0068574Y0185619D01*
X0068574Y0184020D02*
X0054977Y0184020D01*
X0053379Y0182422D02*
X0068574Y0182422D01*
X0068574Y0180823D02*
X0051780Y0180823D01*
X0051699Y0179225D02*
X0068547Y0179225D01*
X0068767Y0177626D02*
X0051699Y0177626D01*
X0051699Y0176028D02*
X0068767Y0176028D01*
X0068767Y0174429D02*
X0051699Y0174429D01*
X0051699Y0172831D02*
X0068767Y0172831D01*
X0068767Y0171232D02*
X0051699Y0171232D01*
X0051699Y0169634D02*
X0068691Y0169634D01*
X0066511Y0168035D02*
X0051699Y0168035D01*
X0051699Y0166437D02*
X0066022Y0166437D01*
X0066270Y0164838D02*
X0051699Y0164838D01*
X0051699Y0163240D02*
X0067451Y0163240D01*
X0071930Y0173429D02*
X0072048Y0177957D01*
X0076969Y0177465D02*
X0076930Y0173429D01*
X0076969Y0167622D01*
X0078445Y0166146D01*
X0082956Y0160043D02*
X0135488Y0160043D01*
X0135488Y0161641D02*
X0105058Y0161641D01*
X0105071Y0161647D02*
X0106074Y0162650D01*
X0106617Y0163960D01*
X0106617Y0165378D01*
X0106074Y0166689D01*
X0105071Y0167692D01*
X0104144Y0168076D01*
X0101311Y0170908D01*
X0101311Y0186162D01*
X0101696Y0187090D01*
X0101696Y0188508D01*
X0101153Y0189819D01*
X0100150Y0190822D01*
X0098840Y0191365D01*
X0097421Y0191365D01*
X0096111Y0190822D01*
X0095108Y0189819D01*
X0094565Y0188508D01*
X0094565Y0187090D01*
X0094949Y0186162D01*
X0094949Y0168958D01*
X0095434Y0167789D01*
X0096328Y0166894D01*
X0099645Y0163577D01*
X0100029Y0162650D01*
X0101032Y0161647D01*
X0102342Y0161104D01*
X0103761Y0161104D01*
X0105071Y0161647D01*
X0106318Y0163240D02*
X0135488Y0163240D01*
X0135488Y0164838D02*
X0106617Y0164838D01*
X0106179Y0166437D02*
X0135488Y0166437D01*
X0135488Y0168035D02*
X0104242Y0168035D01*
X0102586Y0169634D02*
X0135488Y0169634D01*
X0135488Y0171232D02*
X0101311Y0171232D01*
X0101311Y0172831D02*
X0135488Y0172831D01*
X0135488Y0174429D02*
X0101311Y0174429D01*
X0101311Y0176028D02*
X0135488Y0176028D01*
X0135488Y0177626D02*
X0101311Y0177626D01*
X0101311Y0179225D02*
X0135488Y0179225D01*
X0135488Y0180823D02*
X0101311Y0180823D01*
X0101311Y0182422D02*
X0135488Y0182422D01*
X0135488Y0184020D02*
X0101311Y0184020D01*
X0101311Y0185619D02*
X0135488Y0185619D01*
X0135488Y0187217D02*
X0101696Y0187217D01*
X0101568Y0188816D02*
X0135488Y0188816D01*
X0135488Y0190414D02*
X0100557Y0190414D01*
X0095703Y0190414D02*
X0086726Y0190414D01*
X0086726Y0188816D02*
X0094692Y0188816D01*
X0094565Y0187217D02*
X0086440Y0187217D01*
X0086726Y0185619D02*
X0094949Y0185619D01*
X0094949Y0184020D02*
X0086726Y0184020D01*
X0086726Y0182422D02*
X0094949Y0182422D01*
X0094949Y0180823D02*
X0086726Y0180823D01*
X0089447Y0179225D02*
X0094949Y0179225D01*
X0094949Y0177626D02*
X0090092Y0177626D01*
X0090092Y0176028D02*
X0094949Y0176028D01*
X0094949Y0174429D02*
X0090092Y0174429D01*
X0090092Y0172831D02*
X0094949Y0172831D01*
X0094949Y0171232D02*
X0090092Y0171232D01*
X0090092Y0169634D02*
X0094949Y0169634D01*
X0095331Y0168035D02*
X0089849Y0168035D01*
X0089343Y0166437D02*
X0096785Y0166437D01*
X0098384Y0164838D02*
X0087751Y0164838D01*
X0086153Y0163240D02*
X0099785Y0163240D01*
X0101046Y0161641D02*
X0084554Y0161641D01*
X0089756Y0158444D02*
X0094390Y0158444D01*
X0094142Y0158341D02*
X0093139Y0157338D01*
X0092596Y0156028D01*
X0092596Y0154610D01*
X0093139Y0153299D01*
X0093381Y0153058D01*
X0093381Y0142816D01*
X0092647Y0142083D01*
X0092104Y0140772D01*
X0092104Y0139354D01*
X0092647Y0138043D01*
X0093650Y0137040D01*
X0094960Y0136498D01*
X0096379Y0136498D01*
X0097689Y0137040D01*
X0098692Y0138043D01*
X0099235Y0139354D01*
X0099235Y0140772D01*
X0098957Y0141444D01*
X0098943Y0141638D01*
X0098943Y0153058D01*
X0099184Y0153299D01*
X0099727Y0154610D01*
X0099727Y0156028D01*
X0099184Y0157338D01*
X0098181Y0158341D01*
X0096871Y0158884D01*
X0095453Y0158884D01*
X0094142Y0158341D01*
X0092935Y0156846D02*
X0090092Y0156846D01*
X0090092Y0155247D02*
X0092596Y0155247D01*
X0092995Y0153649D02*
X0090092Y0153649D01*
X0090092Y0152050D02*
X0093381Y0152050D01*
X0093381Y0150452D02*
X0090092Y0150452D01*
X0090092Y0148853D02*
X0093381Y0148853D01*
X0093381Y0147254D02*
X0089793Y0147254D01*
X0089813Y0145656D02*
X0093381Y0145656D01*
X0093381Y0144057D02*
X0089450Y0144057D01*
X0088636Y0142459D02*
X0093023Y0142459D01*
X0092141Y0140860D02*
X0088497Y0140860D01*
X0088497Y0139262D02*
X0092142Y0139262D01*
X0093027Y0137663D02*
X0088497Y0137663D01*
X0088174Y0136065D02*
X0135488Y0136065D01*
X0135488Y0137663D02*
X0098312Y0137663D01*
X0099197Y0139262D02*
X0135488Y0139262D01*
X0135488Y0140860D02*
X0099198Y0140860D01*
X0098943Y0142459D02*
X0135488Y0142459D01*
X0135488Y0144057D02*
X0098943Y0144057D01*
X0098943Y0145656D02*
X0135488Y0145656D01*
X0135488Y0147254D02*
X0098943Y0147254D01*
X0098943Y0148853D02*
X0135488Y0148853D01*
X0135488Y0150452D02*
X0098943Y0150452D01*
X0098943Y0152050D02*
X0135488Y0152050D01*
X0135488Y0153649D02*
X0099329Y0153649D01*
X0099727Y0155247D02*
X0135488Y0155247D01*
X0135488Y0156846D02*
X0099389Y0156846D01*
X0097934Y0158444D02*
X0135488Y0158444D01*
X0135488Y0134466D02*
X0086922Y0134466D01*
X0086922Y0132868D02*
X0135488Y0132868D01*
X0135488Y0131269D02*
X0086922Y0131269D01*
X0086922Y0129671D02*
X0135488Y0129671D01*
X0135488Y0128072D02*
X0086087Y0128072D01*
X0079465Y0128072D02*
X0078980Y0128072D01*
X0076267Y0128072D02*
X0075899Y0128072D01*
X0075899Y0129671D02*
X0076267Y0129671D01*
X0076267Y0131269D02*
X0075899Y0131269D01*
X0073186Y0128072D02*
X0047978Y0128072D01*
X0047978Y0126474D02*
X0135488Y0126474D01*
X0135488Y0124875D02*
X0047978Y0124875D01*
X0047978Y0123277D02*
X0135488Y0123277D01*
X0135488Y0121678D02*
X0047978Y0121678D01*
X0047978Y0120080D02*
X0135488Y0120080D01*
X0135488Y0118481D02*
X0047978Y0118481D01*
X0047978Y0116883D02*
X0073966Y0116883D01*
X0067428Y0115284D02*
X0047978Y0115284D01*
X0047978Y0113686D02*
X0062632Y0113686D01*
X0059280Y0112087D02*
X0047978Y0112087D01*
X0047990Y0110489D02*
X0056883Y0110489D01*
X0054484Y0108890D02*
X0047978Y0108890D01*
X0047978Y0107292D02*
X0052530Y0107292D01*
X0050514Y0105693D02*
X0047978Y0105693D01*
X0047978Y0104095D02*
X0049042Y0104095D01*
X0047978Y0129671D02*
X0072118Y0129671D01*
X0072118Y0131269D02*
X0047978Y0131269D01*
X0047978Y0132868D02*
X0072118Y0132868D01*
X0072302Y0134466D02*
X0047978Y0134466D01*
X0047978Y0136065D02*
X0070685Y0136065D01*
X0070362Y0137663D02*
X0047978Y0137663D01*
X0047978Y0139262D02*
X0070362Y0139262D01*
X0070362Y0140860D02*
X0047978Y0140860D01*
X0047978Y0142459D02*
X0070362Y0142459D01*
X0070362Y0144057D02*
X0047978Y0144057D01*
X0047978Y0145656D02*
X0071296Y0145656D01*
X0071929Y0147254D02*
X0071930Y0147254D01*
X0071929Y0148853D02*
X0071930Y0148853D01*
X0071929Y0150452D02*
X0071930Y0150452D01*
X0071929Y0152050D02*
X0071930Y0152050D01*
X0074285Y0147254D02*
X0074318Y0147254D01*
X0076930Y0152957D02*
X0076969Y0154335D01*
X0068948Y0150452D02*
X0047978Y0150452D01*
X0047978Y0148853D02*
X0068948Y0148853D01*
X0069574Y0147254D02*
X0047978Y0147254D01*
X0052925Y0156846D02*
X0051922Y0157849D01*
X0051699Y0157942D01*
X0047933Y0206500D02*
X0059252Y0206500D01*
X0067126Y0214374D01*
X0066974Y0219187D02*
X0067279Y0219187D01*
X0067790Y0220786D02*
X0065757Y0220786D01*
X0067790Y0222385D02*
X0053206Y0222385D01*
X0051608Y0223983D02*
X0067790Y0223983D01*
X0067790Y0225582D02*
X0050009Y0225582D01*
X0048746Y0227180D02*
X0067790Y0227180D01*
X0067790Y0228779D02*
X0048746Y0228779D01*
X0048746Y0230377D02*
X0067790Y0230377D01*
X0067790Y0231976D02*
X0048746Y0231976D01*
X0048746Y0233574D02*
X0067790Y0233574D01*
X0067790Y0235173D02*
X0048746Y0235173D01*
X0048746Y0236771D02*
X0067790Y0236771D01*
X0067790Y0238370D02*
X0048749Y0238370D01*
X0047926Y0239968D02*
X0067790Y0239968D01*
X0067790Y0241567D02*
X0046349Y0241567D01*
X0045419Y0243165D02*
X0067790Y0243165D01*
X0067790Y0244764D02*
X0045419Y0244764D01*
X0044835Y0246362D02*
X0067790Y0246362D01*
X0066516Y0247961D02*
X0043548Y0247961D01*
X0043264Y0249559D02*
X0063808Y0249559D01*
X0063069Y0251158D02*
X0044718Y0251158D01*
X0045380Y0252756D02*
X0063181Y0252756D01*
X0064171Y0254355D02*
X0045419Y0254355D01*
X0045005Y0255953D02*
X0135488Y0255953D01*
X0135488Y0254355D02*
X0075003Y0254355D01*
X0072540Y0251776D02*
X0074508Y0249807D01*
X0074508Y0221264D01*
X0070571Y0217819D02*
X0070571Y0247839D01*
X0066634Y0251776D01*
X0069097Y0254355D02*
X0070077Y0254355D01*
X0077289Y0243165D02*
X0081570Y0243165D01*
X0081570Y0241567D02*
X0077289Y0241567D01*
X0077289Y0239968D02*
X0078540Y0239968D01*
X0080319Y0239968D02*
X0081570Y0239968D01*
X0063682Y0217819D02*
X0053839Y0217819D01*
X0045965Y0225693D01*
X0045965Y0237996D01*
X0040138Y0243902D01*
X0036320Y0257552D02*
X0035419Y0257552D01*
X0034291Y0259150D02*
X0039010Y0259150D01*
X0041267Y0259150D02*
X0135488Y0259150D01*
X0135488Y0257552D02*
X0043957Y0257552D01*
X0035964Y0280078D02*
X0032344Y0280078D01*
X0029000Y0281463D01*
X0026440Y0284023D01*
X0025055Y0287367D01*
X0025055Y0290987D01*
X0026440Y0294331D01*
X0029000Y0296891D01*
X0032344Y0298276D01*
X0035964Y0298276D01*
X0039308Y0296891D01*
X0041868Y0294331D01*
X0043253Y0290987D01*
X0043253Y0287367D01*
X0041868Y0284023D01*
X0039308Y0281463D01*
X0035964Y0280078D01*
X0039374Y0281529D02*
X0052867Y0281529D01*
X0053371Y0280835D02*
X0053371Y0280835D01*
X0053371Y0280835D01*
X0055653Y0279178D01*
X0058334Y0278306D01*
X0100525Y0278306D01*
X0103207Y0279178D01*
X0105488Y0280835D01*
X0105488Y0280835D01*
X0105488Y0280835D01*
X0107146Y0283117D01*
X0108017Y0285799D01*
X0108017Y0288619D01*
X0107146Y0291301D01*
X0105488Y0293582D01*
X0105488Y0293582D01*
X0103207Y0295240D01*
X0103207Y0295240D01*
X0100525Y0296111D01*
X0058334Y0296111D01*
X0055653Y0295240D01*
X0055653Y0295240D01*
X0053371Y0293582D01*
X0051714Y0291301D01*
X0050842Y0288619D01*
X0050842Y0287805D01*
X0050842Y0285799D01*
X0051714Y0283117D01*
X0051714Y0283117D01*
X0053371Y0280835D01*
X0054616Y0279931D02*
X0023371Y0279931D01*
X0023371Y0281529D02*
X0028933Y0281529D01*
X0027335Y0283128D02*
X0023371Y0283128D01*
X0023371Y0284726D02*
X0026149Y0284726D01*
X0025486Y0286325D02*
X0023371Y0286325D01*
X0023371Y0287923D02*
X0025055Y0287923D01*
X0025055Y0289522D02*
X0023371Y0289522D01*
X0023371Y0291121D02*
X0025110Y0291121D01*
X0025772Y0292719D02*
X0023560Y0292719D01*
X0023988Y0294318D02*
X0026434Y0294318D01*
X0024849Y0295916D02*
X0028025Y0295916D01*
X0026196Y0297515D02*
X0030505Y0297515D01*
X0028508Y0299113D02*
X0130351Y0299113D01*
X0129859Y0296891D02*
X0126515Y0298276D01*
X0122895Y0298276D01*
X0119551Y0296891D01*
X0116991Y0294331D01*
X0115606Y0290987D01*
X0115606Y0287367D01*
X0116991Y0284023D01*
X0119551Y0281463D01*
X0122895Y0280078D01*
X0126515Y0280078D01*
X0129859Y0281463D01*
X0132419Y0284023D01*
X0133804Y0287367D01*
X0133804Y0290987D01*
X0132419Y0294331D01*
X0129859Y0296891D01*
X0130834Y0295916D02*
X0134010Y0295916D01*
X0134871Y0294318D02*
X0132425Y0294318D01*
X0133087Y0292719D02*
X0135299Y0292719D01*
X0135488Y0291121D02*
X0133749Y0291121D01*
X0133804Y0289522D02*
X0135488Y0289522D01*
X0135488Y0287923D02*
X0133804Y0287923D01*
X0133373Y0286325D02*
X0135488Y0286325D01*
X0135488Y0284726D02*
X0132710Y0284726D01*
X0131524Y0283128D02*
X0135488Y0283128D01*
X0135488Y0281529D02*
X0129926Y0281529D01*
X0135488Y0279931D02*
X0104243Y0279931D01*
X0103207Y0279178D02*
X0103207Y0279178D01*
X0100605Y0278332D02*
X0135488Y0278332D01*
X0135488Y0276734D02*
X0023371Y0276734D01*
X0023371Y0278332D02*
X0058254Y0278332D01*
X0055653Y0279178D02*
X0055653Y0279178D01*
X0051710Y0283128D02*
X0040973Y0283128D01*
X0042159Y0284726D02*
X0051191Y0284726D01*
X0050842Y0286325D02*
X0042821Y0286325D01*
X0043253Y0287923D02*
X0050842Y0287923D01*
X0051136Y0289522D02*
X0043253Y0289522D01*
X0043198Y0291121D02*
X0051655Y0291121D01*
X0052744Y0292719D02*
X0042536Y0292719D01*
X0041874Y0294318D02*
X0054383Y0294318D01*
X0053371Y0293582D02*
X0053371Y0293582D01*
X0053371Y0293582D01*
X0057734Y0295916D02*
X0040283Y0295916D01*
X0037803Y0297515D02*
X0121056Y0297515D01*
X0118576Y0295916D02*
X0101125Y0295916D01*
X0104476Y0294318D02*
X0116985Y0294318D01*
X0116323Y0292719D02*
X0106115Y0292719D01*
X0105488Y0293582D02*
X0105488Y0293582D01*
X0107146Y0291301D02*
X0107146Y0291301D01*
X0107204Y0291121D02*
X0115661Y0291121D01*
X0115606Y0289522D02*
X0107723Y0289522D01*
X0108017Y0287923D02*
X0115606Y0287923D01*
X0116038Y0286325D02*
X0108017Y0286325D01*
X0107669Y0284726D02*
X0116700Y0284726D01*
X0117886Y0283128D02*
X0107149Y0283128D01*
X0107146Y0283117D02*
X0107146Y0283117D01*
X0105992Y0281529D02*
X0119485Y0281529D01*
X0128354Y0297515D02*
X0132663Y0297515D01*
X0135488Y0275135D02*
X0023371Y0275135D01*
X0023371Y0273537D02*
X0135488Y0273537D01*
X0135488Y0271938D02*
X0023371Y0271938D01*
X0023371Y0270340D02*
X0135488Y0270340D01*
X0135488Y0268741D02*
X0023371Y0268741D01*
X0023371Y0267143D02*
X0135488Y0267143D01*
X0135488Y0265544D02*
X0023371Y0265544D01*
X0023371Y0263946D02*
X0135488Y0263946D01*
X0135488Y0262347D02*
X0023371Y0262347D01*
X0023371Y0260749D02*
X0135488Y0260749D01*
X0135488Y0195210D02*
X0086238Y0195210D01*
X0086726Y0193611D02*
X0135488Y0193611D01*
X0135488Y0192013D02*
X0086726Y0192013D01*
X0096162Y0155319D02*
X0096162Y0141539D01*
X0095670Y0140063D01*
X0084893Y0116883D02*
X0135488Y0116883D01*
X0135488Y0115284D02*
X0091431Y0115284D01*
X0096227Y0113686D02*
X0135488Y0113686D01*
X0135488Y0112087D02*
X0099579Y0112087D01*
X0101976Y0110489D02*
X0135488Y0110489D01*
X0135488Y0108890D02*
X0104375Y0108890D01*
X0106329Y0107292D02*
X0135488Y0107292D01*
X0135488Y0105693D02*
X0108345Y0105693D01*
X0109817Y0104095D02*
X0135488Y0104095D01*
X0135488Y0102496D02*
X0111125Y0102496D01*
X0112486Y0100898D02*
X0135488Y0100898D01*
X0135488Y0099299D02*
X0113552Y0099299D01*
X0114618Y0097701D02*
X0135488Y0097701D01*
X0135488Y0096102D02*
X0115683Y0096102D01*
X0116817Y0094504D02*
X0135488Y0094504D01*
X0135488Y0092905D02*
X0117350Y0092905D01*
X0117883Y0091307D02*
X0135488Y0091307D01*
X0135488Y0089708D02*
X0118415Y0089708D01*
X0127626Y0088110D02*
X0135488Y0088110D01*
X0135488Y0086511D02*
X0128218Y0086511D01*
X0128218Y0084913D02*
X0135488Y0084913D01*
X0135488Y0083314D02*
X0128218Y0083314D01*
X0128218Y0081716D02*
X0135488Y0081716D01*
X0135488Y0080117D02*
X0128218Y0080117D01*
X0128218Y0078519D02*
X0135488Y0078519D01*
X0135488Y0076920D02*
X0128218Y0076920D01*
X0128209Y0075321D02*
X0135488Y0075321D01*
X0135488Y0073723D02*
X0128218Y0073723D01*
X0128218Y0072124D02*
X0135488Y0072124D01*
X0135488Y0070526D02*
X0128218Y0070526D01*
X0128218Y0068927D02*
X0135488Y0068927D01*
X0135488Y0067329D02*
X0128218Y0067329D01*
X0128218Y0065730D02*
X0135488Y0065730D01*
X0135488Y0064132D02*
X0128218Y0064132D01*
X0127080Y0062533D02*
X0135488Y0062533D01*
X0135488Y0060935D02*
X0124417Y0060935D01*
X0123835Y0059336D02*
X0135488Y0059336D01*
X0135488Y0057738D02*
X0123253Y0057738D01*
X0122671Y0056139D02*
X0135488Y0056139D01*
X0135488Y0054541D02*
X0121878Y0054541D01*
X0120955Y0052942D02*
X0124753Y0052942D01*
X0124952Y0053027D02*
X0124516Y0052842D01*
X0124143Y0052550D01*
X0119506Y0046397D01*
X0125335Y0042004D01*
X0130913Y0049405D01*
X0126331Y0052857D01*
X0125892Y0053035D01*
X0125422Y0053093D01*
X0124952Y0053027D01*
X0126122Y0052942D02*
X0135488Y0052942D01*
X0135488Y0051344D02*
X0128340Y0051344D01*
X0129964Y0048147D02*
X0131968Y0048147D01*
X0132583Y0048147D02*
X0135488Y0048147D01*
X0135488Y0049745D02*
X0130461Y0049745D01*
X0130763Y0046548D02*
X0128760Y0046548D01*
X0129558Y0044950D02*
X0127555Y0044950D01*
X0128354Y0043351D02*
X0126350Y0043351D01*
X0125668Y0041753D02*
X0127149Y0041753D01*
X0126613Y0041041D02*
X0132442Y0036648D01*
X0135488Y0040690D01*
X0135488Y0039177D01*
X0135412Y0038027D01*
X0134817Y0035804D01*
X0133666Y0033811D01*
X0132039Y0032184D01*
X0130047Y0031034D01*
X0127824Y0030438D01*
X0127760Y0030434D01*
X0131479Y0035370D01*
X0125650Y0039763D01*
X0126613Y0041041D01*
X0125945Y0040154D02*
X0127790Y0040154D01*
X0127252Y0038556D02*
X0129911Y0038556D01*
X0129374Y0036957D02*
X0132032Y0036957D01*
X0132675Y0036957D02*
X0135126Y0036957D01*
X0135447Y0038556D02*
X0133880Y0038556D01*
X0135084Y0040154D02*
X0135488Y0040154D01*
X0134560Y0035359D02*
X0131471Y0035359D01*
X0130266Y0033760D02*
X0133615Y0033760D01*
X0132000Y0032162D02*
X0129062Y0032162D01*
X0128290Y0030563D02*
X0127857Y0030563D01*
X0124740Y0038556D02*
X0122737Y0038556D01*
X0123536Y0036957D02*
X0121532Y0036957D01*
X0122331Y0035359D02*
X0120328Y0035359D01*
X0121126Y0033760D02*
X0119123Y0033760D01*
X0118217Y0033760D02*
X0101547Y0033760D01*
X0099491Y0032573D02*
X0099491Y0032573D01*
X0098360Y0032162D02*
X0120338Y0032162D01*
X0122459Y0030563D02*
X0093968Y0030563D01*
X0104315Y0035359D02*
X0116095Y0035359D01*
X0114073Y0036957D02*
X0106951Y0036957D01*
X0108856Y0038556D02*
X0113740Y0038556D01*
X0114802Y0040154D02*
X0110761Y0040154D01*
X0112666Y0041753D02*
X0116006Y0041753D01*
X0117211Y0043351D02*
X0114105Y0043351D01*
X0115446Y0044950D02*
X0118415Y0044950D01*
X0118767Y0044950D02*
X0121426Y0044950D01*
X0120888Y0043351D02*
X0123547Y0043351D01*
X0123010Y0041753D02*
X0125146Y0041753D01*
X0125131Y0040154D02*
X0123941Y0040154D01*
X0120825Y0048147D02*
X0118129Y0048147D01*
X0118314Y0048367D02*
X0118314Y0048367D01*
X0119109Y0049745D02*
X0122029Y0049745D01*
X0123234Y0051344D02*
X0120032Y0051344D01*
X0119620Y0046548D02*
X0116787Y0046548D01*
X0134704Y0046548D02*
X0135488Y0046548D01*
X0053839Y0210437D02*
X0031693Y0232583D01*
X0030138Y0233902D01*
X0024311Y0230122D02*
X0047933Y0206500D01*
X0054805Y0220786D02*
X0061606Y0220786D01*
X0030138Y0253902D02*
X0024311Y0247839D01*
X0024311Y0230122D01*
X0023644Y0251158D02*
X0023371Y0251158D01*
X0023371Y0252756D02*
X0024857Y0252756D01*
X0024857Y0254355D02*
X0023371Y0254355D01*
X0023371Y0255953D02*
X0024857Y0255953D01*
X0024857Y0257552D02*
X0023371Y0257552D01*
X0023371Y0259150D02*
X0025985Y0259150D01*
D20*
X0030709Y0270476D03*
X0050394Y0238980D03*
X0050394Y0234059D03*
X0053839Y0210437D03*
X0050886Y0197642D03*
X0057284Y0183370D03*
X0060729Y0179925D03*
X0069587Y0166146D03*
X0074016Y0161224D03*
X0078445Y0166146D03*
X0082874Y0187307D03*
X0091241Y0199610D03*
X0088288Y0202563D03*
X0097146Y0215358D03*
X0100099Y0209453D03*
X0098130Y0187799D03*
X0103052Y0164669D03*
X0097146Y0162209D03*
X0096162Y0155319D03*
X0095670Y0140063D03*
X0094193Y0135142D03*
X0090748Y0138587D03*
X0096162Y0129728D03*
X0083605Y0119886D03*
X0079430Y0119886D03*
X0075254Y0119886D03*
X0065158Y0144492D03*
X0065158Y0149413D03*
X0049902Y0149413D03*
X0049902Y0154827D03*
X0049902Y0144492D03*
X0048918Y0129728D03*
X0043012Y0102169D03*
X0040059Y0099217D03*
X0037107Y0096264D03*
X0067126Y0214374D03*
X0063682Y0217819D03*
X0070571Y0217819D03*
X0074508Y0221264D03*
X0081890Y0248823D03*
X0079430Y0257189D03*
X0072540Y0251776D03*
X0066634Y0251776D03*
X0103052Y0239965D03*
X0112894Y0239965D03*
X0123229Y0227661D03*
X0115847Y0198626D03*
X0123721Y0195673D03*
X0123721Y0190752D03*
X0123721Y0174512D03*
X0118800Y0157287D03*
X0116831Y0119886D03*
X0132579Y0054925D03*
X0132579Y0050004D03*
D21*
X0122737Y0069492D02*
X0122737Y0075594D01*
X0122737Y0081697D01*
X0122737Y0075594D02*
X0122724Y0074548D01*
X0122686Y0073502D01*
X0122623Y0072457D01*
X0122535Y0071414D01*
X0122421Y0070374D01*
X0122283Y0069337D01*
X0122119Y0068303D01*
X0121930Y0067274D01*
X0121717Y0066249D01*
X0121479Y0065230D01*
X0121216Y0064217D01*
X0120929Y0063211D01*
X0120617Y0062211D01*
X0120282Y0061220D01*
X0119923Y0060237D01*
X0119540Y0059263D01*
X0119134Y0058299D01*
X0118704Y0057344D01*
X0118252Y0056401D01*
X0117776Y0055468D01*
X0117279Y0054548D01*
X0116759Y0053639D01*
X0116218Y0052743D01*
X0115655Y0051861D01*
X0115071Y0050993D01*
X0114466Y0050139D01*
X0113841Y0049300D01*
X0113195Y0048476D01*
X0112530Y0047668D01*
X0111846Y0046876D01*
X0111142Y0046101D01*
X0110420Y0045344D01*
X0109680Y0044604D01*
X0108923Y0043882D01*
X0108148Y0043178D01*
X0107356Y0042494D01*
X0106548Y0041829D01*
X0105724Y0041183D01*
X0104885Y0040558D01*
X0104031Y0039953D01*
X0103163Y0039369D01*
X0102281Y0038806D01*
X0101385Y0038265D01*
X0100476Y0037745D01*
X0099556Y0037248D01*
X0098623Y0036772D01*
X0097680Y0036320D01*
X0096725Y0035890D01*
X0095761Y0035484D01*
X0094787Y0035101D01*
X0093804Y0034742D01*
X0092813Y0034407D01*
X0091813Y0034095D01*
X0090807Y0033808D01*
X0089794Y0033545D01*
X0088775Y0033307D01*
X0087750Y0033094D01*
X0086721Y0032905D01*
X0085687Y0032741D01*
X0084650Y0032603D01*
X0083610Y0032489D01*
X0082567Y0032401D01*
X0081522Y0032338D01*
X0080476Y0032300D01*
X0079430Y0032287D01*
X0078384Y0032300D01*
X0077338Y0032338D01*
X0076293Y0032401D01*
X0075250Y0032489D01*
X0074210Y0032603D01*
X0073173Y0032741D01*
X0072139Y0032905D01*
X0071110Y0033094D01*
X0070085Y0033307D01*
X0069066Y0033545D01*
X0068053Y0033808D01*
X0067047Y0034095D01*
X0066047Y0034407D01*
X0065056Y0034742D01*
X0064073Y0035101D01*
X0063099Y0035484D01*
X0062135Y0035890D01*
X0061180Y0036320D01*
X0060237Y0036772D01*
X0059304Y0037248D01*
X0058384Y0037745D01*
X0057475Y0038265D01*
X0056579Y0038806D01*
X0055697Y0039369D01*
X0054829Y0039953D01*
X0053975Y0040558D01*
X0053136Y0041183D01*
X0052312Y0041829D01*
X0051504Y0042494D01*
X0050712Y0043178D01*
X0049937Y0043882D01*
X0049180Y0044604D01*
X0048440Y0045344D01*
X0047718Y0046101D01*
X0047014Y0046876D01*
X0046330Y0047668D01*
X0045665Y0048476D01*
X0045019Y0049300D01*
X0044394Y0050139D01*
X0043789Y0050993D01*
X0043205Y0051861D01*
X0042642Y0052743D01*
X0042101Y0053639D01*
X0041581Y0054548D01*
X0041084Y0055468D01*
X0040608Y0056401D01*
X0040156Y0057344D01*
X0039726Y0058299D01*
X0039320Y0059263D01*
X0038937Y0060237D01*
X0038578Y0061220D01*
X0038243Y0062211D01*
X0037931Y0063211D01*
X0037644Y0064217D01*
X0037381Y0065230D01*
X0037143Y0066249D01*
X0036930Y0067274D01*
X0036741Y0068303D01*
X0036577Y0069337D01*
X0036439Y0070374D01*
X0036325Y0071414D01*
X0036237Y0072457D01*
X0036174Y0073502D01*
X0036136Y0074548D01*
X0036123Y0075594D01*
X0036122Y0075594D02*
X0036122Y0069492D01*
X0036122Y0075594D02*
X0036122Y0081697D01*
X0036122Y0094295D01*
X0036122Y0096264D01*
X0043996Y0104138D01*
X0043996Y0102169D01*
X0036122Y0094295D01*
X0043996Y0103154D01*
X0043996Y0110043D01*
X0033366Y0110305D01*
X0033367Y0110305D01*
X0043013Y0110068D01*
X0043996Y0110043D02*
X0042028Y0110043D01*
X0043996Y0110043D02*
X0043996Y0183862D01*
X0054331Y0194197D01*
X0079430Y0219295D01*
X0079430Y0236028D01*
X0079430Y0119886D02*
X0079430Y0075594D01*
X0043996Y0103338D02*
X0043197Y0103338D01*
X0041167Y0099339D02*
X0039198Y0099339D01*
X0037168Y0095341D02*
X0036122Y0095341D01*
D22*
X0103052Y0164669D02*
X0098130Y0169591D01*
X0098130Y0187799D01*
D23*
X0086930Y0173429D02*
X0086811Y0168114D01*
X0076969Y0158272D01*
X0074016Y0161224D01*
X0076969Y0158272D02*
X0076969Y0154335D01*
X0081930Y0152957D02*
X0081890Y0148429D01*
X0076969Y0143508D01*
X0074508Y0140555D01*
X0084351Y0140555D02*
X0082776Y0131697D01*
X0084351Y0140555D02*
X0086811Y0145476D01*
X0086811Y0148921D01*
X0086930Y0152957D01*
X0076969Y0177465D02*
X0076969Y0180909D01*
X0076083Y0182878D01*
X0071556Y0178941D02*
X0071556Y0187307D01*
X0076083Y0191736D01*
X0071556Y0178941D02*
X0072048Y0177957D01*
X0082776Y0182878D02*
X0082874Y0187307D01*
X0082776Y0191736D01*
X0054331Y0194197D02*
X0050886Y0197642D01*
D24*
X0079430Y0236028D03*
D25*
X0043996Y0110305D02*
X0043996Y0110043D01*
M02*
