%
M48
M72
T01C0.01969
T02C0.02362
T03C0.03937
T04C0.12598
%
T01
X79430Y119886
X83605Y119886
X75254Y119886
X48918Y129728
X96162Y129728
X88288Y202563
X91241Y199610
X49902Y149413
X49902Y144492
X60729Y179925
X79430Y257189
X116831Y119886
X57284Y183370
X30709Y270476
X65158Y149413
X65158Y144492
X94193Y135142
X90748Y138587
X123229Y227661
X103052Y239965
X112894Y239965
X132579Y54925
X132579Y50004
X97146Y215358
X100099Y209453
X115847Y198626
X123721Y190752
X123721Y195673
X118800Y157287
X97146Y162209
X50394Y234059
X50394Y238980
X123721Y174512
X103052Y164669
X98130Y187799
X82874Y187307
X78445Y166146
X81890Y248823
X49902Y154827
X37107Y96264
X40059Y99217
X43012Y102169
X74016Y161224
X50886Y197642
X67126Y214374
X63682Y217819
X53839Y210437
X66634Y251776
X70571Y217819
X72540Y251776
X74508Y221264
X95670Y140063
X96162Y155319
X69587Y166146
T02
X79430Y236028
T03
X30138Y253902
X40138Y253902
X30138Y243902
X40138Y243902
X30138Y233902
X40138Y233902
T04
X34154Y289177
X124705Y289177
M30
