%
M48
M72
T01C0.0197
T02C0.0236
T03C0.0394
T04C0.1260
%
T01
X5906Y9252
X6323Y9252
X5488Y9252
X2854Y10236
X7579Y10236
X6791Y17520
X7087Y17224
X2953Y12205
X2953Y11713
X4035Y15256
X5906Y22982
X9646Y9252
X3691Y15600
X1033Y24311
X4478Y12205
X4478Y11713
X7382Y10778
X7037Y11122
X10285Y20030
X8268Y21260
X9252Y21260
X11220Y2756
X11220Y2264
X7677Y18799
X7972Y18209
X9547Y17126
X10335Y16339
X10335Y16831
X9843Y12992
X7677Y13484
X3002Y20669
X3002Y21161
X10335Y14715
X8268Y13730
X7776Y16043
X6250Y15994
X5807Y13878
X6152Y22146
X2953Y12746
X1673Y6890
X1969Y7185
X2264Y7480
X5364Y13386
X3051Y17028
X4675Y18701
X4331Y19045
X3346Y18307
X4626Y22441
X5020Y19045
X5217Y22441
X5413Y19390
X7530Y11270
X7579Y12795
X4921Y13878
T02
X5906Y20866
T03
X976Y22654
X1976Y22654
X976Y21654
X1976Y21654
X976Y20654
X1976Y20654
T04
X1378Y26181
X10433Y26181
M30
