G75*
%MOIN*%
%OFA0B0*%
%FSLAX25Y25*%
%IPPOS*%
%LPD*%
%AMOC8*
5,1,8,0,0,1.08239X$1,22.5*
%
%ADD10R,0.07000X0.10000*%
%ADD11C,0.31496*%
%ADD12R,0.06600X0.06600*%
%ADD13C,0.06600*%
%ADD14R,0.12598X0.16535*%
%ADD15R,0.04331X0.06693*%
%ADD16R,0.04331X0.03937*%
%ADD17R,0.03937X0.04331*%
%ADD18R,0.02362X0.08661*%
%ADD19C,0.01600*%
%ADD20C,0.03169*%
%ADD21C,0.04000*%
%ADD22C,0.02400*%
%ADD23C,0.02000*%
%ADD24C,0.03562*%
%ADD25C,0.03200*%
D10*
X0102362Y0054331D03*
X0015748Y0054331D03*
X0102362Y0042126D03*
X0015748Y0042126D03*
D11*
X0059055Y0048228D03*
D12*
X0009764Y0226535D03*
D13*
X0019764Y0226535D03*
X0009764Y0216535D03*
X0019764Y0216535D03*
X0009764Y0206535D03*
X0019764Y0206535D03*
D14*
G36*
X0013047Y0072546D02*
X0002987Y0080128D01*
X0012937Y0093332D01*
X0022997Y0085750D01*
X0013047Y0072546D01*
G37*
G36*
X0105173Y0003124D02*
X0095113Y0010706D01*
X0105063Y0023910D01*
X0115123Y0016328D01*
X0105173Y0003124D01*
G37*
D15*
X0063976Y0113189D03*
X0054134Y0113189D03*
D16*
X0062402Y0104331D03*
X0055709Y0104331D03*
D17*
X0062402Y0164370D03*
X0055709Y0164370D03*
X0062402Y0155512D03*
X0055709Y0155512D03*
D18*
X0061555Y0125591D03*
X0061555Y0146063D03*
X0066555Y0125591D03*
X0056555Y0125591D03*
X0051555Y0125591D03*
X0066555Y0146063D03*
X0056555Y0146063D03*
X0051555Y0146063D03*
D19*
X0022755Y0222058D02*
X0024241Y0223544D01*
X0025045Y0225485D01*
X0025045Y0227586D01*
X0024241Y0229527D01*
X0022755Y0231013D01*
X0020814Y0231817D01*
X0018713Y0231817D01*
X0016772Y0231013D01*
X0015287Y0229527D01*
X0015045Y0228943D01*
X0015045Y0230656D01*
X0013884Y0231817D01*
X0005643Y0231817D01*
X0004483Y0230656D01*
X0004483Y0225054D01*
X0002997Y0223508D01*
X0002997Y0263780D01*
X0003072Y0264930D01*
X0003668Y0267153D01*
X0004818Y0269145D01*
X0006445Y0270772D01*
X0008438Y0271923D01*
X0010661Y0272518D01*
X0011811Y0272594D01*
X0106299Y0272594D01*
X0107450Y0272518D01*
X0109672Y0271923D01*
X0111665Y0270772D01*
X0113292Y0269145D01*
X0114442Y0267153D01*
X0115038Y0264930D01*
X0115113Y0263780D01*
X0115113Y0018592D01*
X0111816Y0021076D01*
X0106239Y0013675D01*
X0104961Y0014638D01*
X0110538Y0022039D01*
X0105957Y0025491D01*
X0105518Y0025669D01*
X0105047Y0025727D01*
X0104578Y0025661D01*
X0104142Y0025476D01*
X0103768Y0025184D01*
X0099131Y0019030D01*
X0104961Y0014638D01*
X0103998Y0013360D01*
X0098168Y0017753D01*
X0093532Y0011599D01*
X0093354Y0011160D01*
X0093296Y0010690D01*
X0093362Y0010220D01*
X0093547Y0009784D01*
X0093839Y0009411D01*
X0098420Y0005958D01*
X0103998Y0013360D01*
X0105276Y0012397D01*
X0099698Y0004995D01*
X0102350Y0002997D01*
X0073044Y0002997D01*
X0079116Y0005207D01*
X0079116Y0005207D01*
X0086282Y0009344D01*
X0086282Y0009344D01*
X0092621Y0014663D01*
X0092621Y0014663D01*
X0097939Y0021001D01*
X0097939Y0021001D01*
X0102076Y0028167D01*
X0104616Y0035145D01*
X0106683Y0035145D01*
X0107843Y0036305D01*
X0107843Y0047947D01*
X0107562Y0048228D01*
X0107843Y0048510D01*
X0107843Y0060151D01*
X0106683Y0061312D01*
X0098438Y0061312D01*
X0098397Y0061477D01*
X0098312Y0061528D01*
X0096792Y0066088D01*
X0096857Y0066414D01*
X0096510Y0066934D01*
X0096313Y0067527D01*
X0096016Y0067675D01*
X0092851Y0072423D01*
X0092863Y0072548D01*
X0092347Y0073179D01*
X0091895Y0073857D01*
X0091772Y0073881D01*
X0089161Y0077073D01*
X0089136Y0077323D01*
X0088593Y0077767D01*
X0088149Y0078309D01*
X0087900Y0078334D01*
X0084708Y0080945D01*
X0084684Y0081068D01*
X0084006Y0081520D01*
X0083375Y0082036D01*
X0083250Y0082024D01*
X0078502Y0085189D01*
X0078354Y0085486D01*
X0077761Y0085684D01*
X0077240Y0086030D01*
X0076915Y0085965D01*
X0072355Y0087486D01*
X0072304Y0087570D01*
X0071490Y0087774D01*
X0070695Y0088039D01*
X0070607Y0087995D01*
X0064133Y0089613D01*
X0063916Y0089830D01*
X0063267Y0089830D01*
X0062637Y0089987D01*
X0062374Y0089830D01*
X0055736Y0089830D01*
X0055474Y0089987D01*
X0054843Y0089830D01*
X0054194Y0089830D01*
X0053977Y0089613D01*
X0047504Y0087995D01*
X0047415Y0088039D01*
X0046620Y0087774D01*
X0045806Y0087570D01*
X0045756Y0087486D01*
X0041195Y0085965D01*
X0040870Y0086030D01*
X0040350Y0085684D01*
X0039756Y0085486D01*
X0039608Y0085189D01*
X0034860Y0082024D01*
X0034735Y0082036D01*
X0034105Y0081520D01*
X0033427Y0081068D01*
X0033402Y0080945D01*
X0030211Y0078334D01*
X0029961Y0078309D01*
X0029517Y0077767D01*
X0028974Y0077323D01*
X0028949Y0077073D01*
X0027629Y0075460D01*
X0027603Y0075904D01*
X0027603Y0082628D01*
X0027621Y0083371D01*
X0027603Y0083418D01*
X0027603Y0124399D01*
X0028818Y0123895D01*
X0030237Y0123895D01*
X0031547Y0124438D01*
X0032550Y0125441D01*
X0033093Y0126751D01*
X0033093Y0128170D01*
X0032550Y0129480D01*
X0031547Y0130483D01*
X0031324Y0130575D01*
X0031324Y0153376D01*
X0065552Y0187603D01*
X0065552Y0187603D01*
X0066334Y0188385D01*
X0066757Y0189407D01*
X0066757Y0219549D01*
X0066334Y0220571D01*
X0065552Y0221354D01*
X0065081Y0221824D01*
X0065081Y0222166D01*
X0064538Y0223476D01*
X0063535Y0224479D01*
X0062225Y0225022D01*
X0060807Y0225022D01*
X0059496Y0224479D01*
X0058493Y0223476D01*
X0057950Y0222166D01*
X0057950Y0220747D01*
X0058493Y0219437D01*
X0059496Y0218434D01*
X0060807Y0217891D01*
X0061148Y0217891D01*
X0061195Y0217844D01*
X0061195Y0212084D01*
X0059847Y0212643D01*
X0058263Y0212643D01*
X0056915Y0212084D01*
X0056915Y0222994D01*
X0056492Y0224016D01*
X0055731Y0224777D01*
X0055731Y0225119D01*
X0055188Y0226429D01*
X0054185Y0227432D01*
X0052875Y0227975D01*
X0051456Y0227975D01*
X0050146Y0227432D01*
X0049213Y0226499D01*
X0048279Y0227432D01*
X0046969Y0227975D01*
X0045551Y0227975D01*
X0044240Y0227432D01*
X0043237Y0226429D01*
X0042694Y0225119D01*
X0042694Y0223700D01*
X0043237Y0222390D01*
X0044240Y0221387D01*
X0045551Y0220844D01*
X0045892Y0220844D01*
X0047416Y0219320D01*
X0047416Y0192714D01*
X0047174Y0192472D01*
X0046752Y0191453D01*
X0046330Y0192472D01*
X0045327Y0193475D01*
X0044016Y0194018D01*
X0042598Y0194018D01*
X0041287Y0193475D01*
X0041046Y0193234D01*
X0034617Y0193234D01*
X0028372Y0199479D01*
X0028372Y0210620D01*
X0028375Y0211164D01*
X0028372Y0211173D01*
X0028372Y0211183D01*
X0028163Y0211686D01*
X0027959Y0212189D01*
X0027952Y0212196D01*
X0027948Y0212205D01*
X0027564Y0212590D01*
X0024945Y0215244D01*
X0025045Y0215485D01*
X0025045Y0217586D01*
X0024241Y0219527D01*
X0022755Y0221013D01*
X0021493Y0221535D01*
X0022755Y0222058D01*
X0078861Y0111988D02*
X0078861Y0113406D01*
X0078582Y0114078D01*
X0078568Y0114272D01*
X0078568Y0125692D01*
X0078810Y0125933D01*
X0079353Y0127244D01*
X0079353Y0128662D01*
X0078810Y0129972D01*
X0077807Y0130975D01*
X0076497Y0131518D01*
X0075078Y0131518D01*
X0073768Y0130975D01*
X0072765Y0129972D01*
X0072222Y0128662D01*
X0072222Y0127244D01*
X0072765Y0125933D01*
X0073006Y0125692D01*
X0073006Y0115450D01*
X0072273Y0114716D01*
X0071730Y0113406D01*
X0071730Y0111988D01*
X0072273Y0110677D01*
X0073276Y0109674D01*
X0074586Y0109131D01*
X0076004Y0109131D01*
X0077315Y0109674D01*
X0078318Y0110677D01*
X0078861Y0111988D01*
X0030468Y0260439D02*
X0030468Y0258433D01*
X0031339Y0255751D01*
X0031339Y0255751D01*
X0032997Y0253469D01*
X0032997Y0253469D01*
X0032997Y0253469D01*
X0035278Y0251812D01*
X0035278Y0251812D01*
X0037960Y0250940D01*
X0080150Y0250940D01*
X0082832Y0251812D01*
X0082832Y0251812D01*
X0085114Y0253469D01*
X0085114Y0253469D01*
X0085114Y0253469D01*
X0086771Y0255751D01*
X0086771Y0255751D01*
X0087643Y0258433D01*
X0087643Y0261253D01*
X0086771Y0263934D01*
X0086771Y0263934D01*
X0085114Y0266216D01*
X0085114Y0266216D01*
X0085114Y0266216D01*
X0082832Y0267873D01*
X0082832Y0267873D01*
X0080150Y0268745D01*
X0037960Y0268745D01*
X0035278Y0267873D01*
X0035278Y0267873D01*
X0032997Y0266216D01*
X0032997Y0266216D01*
X0032997Y0266216D01*
X0031339Y0263934D01*
X0030468Y0261253D01*
X0030468Y0260439D01*
X0113430Y0260001D02*
X0113430Y0263621D01*
X0112045Y0266965D01*
X0109485Y0269525D01*
X0106141Y0270910D01*
X0102521Y0270910D01*
X0099176Y0269525D01*
X0096617Y0266965D01*
X0095231Y0263621D01*
X0095231Y0260001D01*
X0096617Y0256657D01*
X0099176Y0254097D01*
X0102521Y0252712D01*
X0106141Y0252712D01*
X0109485Y0254097D01*
X0112045Y0256657D01*
X0113430Y0260001D01*
X0022879Y0260001D02*
X0022879Y0263621D01*
X0021493Y0266965D01*
X0018934Y0269525D01*
X0015589Y0270910D01*
X0011970Y0270910D01*
X0008625Y0269525D01*
X0006066Y0266965D01*
X0004680Y0263621D01*
X0004680Y0260001D01*
X0006066Y0256657D01*
X0008625Y0254097D01*
X0011970Y0252712D01*
X0015589Y0252712D01*
X0018934Y0254097D01*
X0021493Y0256657D01*
X0022879Y0260001D01*
X0055524Y0100562D02*
X0055524Y0104146D01*
X0055893Y0104146D01*
X0055893Y0100562D01*
X0058111Y0100562D01*
X0058569Y0100685D01*
X0058913Y0100884D01*
X0059416Y0100381D01*
X0065388Y0100381D01*
X0066548Y0101542D01*
X0066548Y0107120D01*
X0066019Y0107649D01*
X0066057Y0107861D01*
X0066962Y0107861D01*
X0068123Y0109022D01*
X0068123Y0114816D01*
X0068887Y0116344D01*
X0068964Y0116422D01*
X0069151Y0116872D01*
X0069369Y0117307D01*
X0069376Y0117416D01*
X0069418Y0117517D01*
X0069418Y0118004D01*
X0069453Y0118490D01*
X0069418Y0118594D01*
X0069418Y0120140D01*
X0069717Y0120439D01*
X0069717Y0130742D01*
X0068557Y0131902D01*
X0064553Y0131902D01*
X0064055Y0131404D01*
X0063557Y0131902D01*
X0061807Y0131902D01*
X0068522Y0138617D01*
X0068926Y0139004D01*
X0068940Y0139035D01*
X0068964Y0139059D01*
X0069179Y0139577D01*
X0069404Y0140089D01*
X0069405Y0140123D01*
X0069418Y0140155D01*
X0069418Y0140612D01*
X0069717Y0140912D01*
X0069717Y0151214D01*
X0068557Y0152375D01*
X0066200Y0152375D01*
X0066351Y0152526D01*
X0066351Y0158498D01*
X0065934Y0158915D01*
X0066065Y0159232D01*
X0066065Y0160650D01*
X0065934Y0160967D01*
X0066351Y0161384D01*
X0066351Y0167356D01*
X0065191Y0168517D01*
X0059612Y0168517D01*
X0059055Y0167959D01*
X0058498Y0168517D01*
X0052920Y0168517D01*
X0051759Y0167356D01*
X0051759Y0164677D01*
X0049508Y0162475D01*
X0049492Y0162468D01*
X0049085Y0162060D01*
X0048673Y0161657D01*
X0048666Y0161642D01*
X0048654Y0161630D01*
X0048433Y0161097D01*
X0048207Y0160567D01*
X0048207Y0160550D01*
X0048200Y0160534D01*
X0048200Y0159957D01*
X0048194Y0159381D01*
X0048200Y0159365D01*
X0048200Y0152059D01*
X0048165Y0151955D01*
X0048200Y0151469D01*
X0048200Y0150982D01*
X0048242Y0150881D01*
X0048250Y0150772D01*
X0048393Y0150485D01*
X0048393Y0142299D01*
X0047193Y0141802D01*
X0046190Y0140799D01*
X0045647Y0139489D01*
X0045647Y0138070D01*
X0046190Y0136760D01*
X0047193Y0135757D01*
X0048503Y0135214D01*
X0049922Y0135214D01*
X0050432Y0135425D01*
X0050076Y0134567D01*
X0050076Y0133149D01*
X0050619Y0131839D01*
X0050737Y0131721D01*
X0050137Y0131721D01*
X0049679Y0131599D01*
X0049269Y0131362D01*
X0048934Y0131026D01*
X0048697Y0130616D01*
X0048574Y0130158D01*
X0048574Y0125591D01*
X0051555Y0125591D01*
X0051555Y0125590D01*
X0048574Y0125590D01*
X0048574Y0121023D01*
X0048697Y0120565D01*
X0048934Y0120155D01*
X0049269Y0119819D01*
X0049679Y0119583D01*
X0050137Y0119460D01*
X0051555Y0119460D01*
X0051555Y0125590D01*
X0051555Y0125590D01*
X0051555Y0119460D01*
X0052973Y0119460D01*
X0053431Y0119583D01*
X0053841Y0119819D01*
X0053927Y0119905D01*
X0054553Y0119279D01*
X0055516Y0119279D01*
X0054807Y0118570D01*
X0054705Y0118517D01*
X0051148Y0118517D01*
X0049987Y0117356D01*
X0049987Y0109022D01*
X0051148Y0107861D01*
X0052649Y0107861D01*
X0052438Y0107740D01*
X0052103Y0107404D01*
X0051866Y0106994D01*
X0051743Y0106536D01*
X0051743Y0104515D01*
X0055524Y0104515D01*
X0055524Y0104146D01*
X0051743Y0104146D01*
X0051743Y0102125D01*
X0051866Y0101667D01*
X0052103Y0101257D01*
X0052438Y0100922D01*
X0052849Y0100685D01*
X0053306Y0100562D01*
X0055524Y0100562D01*
X0086243Y0136594D02*
X0086243Y0138012D01*
X0085700Y0139323D01*
X0084697Y0140326D01*
X0083769Y0140710D01*
X0080937Y0143542D01*
X0080937Y0158796D01*
X0081321Y0159724D01*
X0081321Y0161142D01*
X0080778Y0162453D01*
X0079776Y0163456D01*
X0078465Y0163998D01*
X0077047Y0163998D01*
X0075736Y0163456D01*
X0074733Y0162453D01*
X0074191Y0161142D01*
X0074191Y0159724D01*
X0074575Y0158796D01*
X0074575Y0141592D01*
X0075059Y0140422D01*
X0075954Y0139528D01*
X0079270Y0136211D01*
X0079655Y0135284D01*
X0080658Y0134281D01*
X0081968Y0133738D01*
X0083386Y0133738D01*
X0084697Y0134281D01*
X0085700Y0135284D01*
X0086243Y0136594D01*
X0112068Y0009282D02*
X0115113Y0013324D01*
X0115113Y0011811D01*
X0115038Y0010661D01*
X0114442Y0008438D01*
X0113292Y0006445D01*
X0111665Y0004818D01*
X0109672Y0003668D01*
X0107450Y0003072D01*
X0107385Y0003068D01*
X0111105Y0008004D01*
X0105276Y0012397D01*
X0106239Y0013675D01*
X0112068Y0009282D01*
X0102085Y0003197D02*
X0073594Y0003197D01*
X0107483Y0003197D02*
X0107915Y0003197D01*
X0099963Y0004796D02*
X0077986Y0004796D01*
X0108687Y0004796D02*
X0111626Y0004796D01*
X0097842Y0006394D02*
X0081172Y0006394D01*
X0098749Y0006394D02*
X0100752Y0006394D01*
X0109892Y0006394D02*
X0113241Y0006394D01*
X0095721Y0007993D02*
X0083941Y0007993D01*
X0099953Y0007993D02*
X0101957Y0007993D01*
X0111096Y0007993D02*
X0114185Y0007993D01*
X0093698Y0009591D02*
X0086576Y0009591D01*
X0101158Y0009591D02*
X0103161Y0009591D01*
X0108999Y0009591D02*
X0111658Y0009591D01*
X0112301Y0009591D02*
X0114751Y0009591D01*
X0093366Y0011190D02*
X0088481Y0011190D01*
X0102362Y0011190D02*
X0104366Y0011190D01*
X0106878Y0011190D02*
X0109536Y0011190D01*
X0113505Y0011190D02*
X0115073Y0011190D01*
X0094427Y0012788D02*
X0090386Y0012788D01*
X0103567Y0012788D02*
X0104757Y0012788D01*
X0105570Y0012788D02*
X0107415Y0012788D01*
X0114710Y0012788D02*
X0115113Y0012788D01*
X0095632Y0014387D02*
X0092291Y0014387D01*
X0102635Y0014387D02*
X0104771Y0014387D01*
X0105294Y0014387D02*
X0106775Y0014387D01*
X0096836Y0015985D02*
X0093730Y0015985D01*
X0100514Y0015985D02*
X0103173Y0015985D01*
X0105976Y0015985D02*
X0107979Y0015985D01*
X0098041Y0017584D02*
X0095071Y0017584D01*
X0098393Y0017584D02*
X0101051Y0017584D01*
X0107181Y0017584D02*
X0109184Y0017584D01*
X0099246Y0019182D02*
X0096413Y0019182D01*
X0108385Y0019182D02*
X0110389Y0019182D01*
X0114330Y0019182D02*
X0115113Y0019182D01*
X0100450Y0020781D02*
X0097754Y0020781D01*
X0109590Y0020781D02*
X0111593Y0020781D01*
X0112208Y0020781D02*
X0115113Y0020781D01*
X0101655Y0022379D02*
X0098735Y0022379D01*
X0110087Y0022379D02*
X0115113Y0022379D01*
X0102859Y0023978D02*
X0099658Y0023978D01*
X0107966Y0023978D02*
X0115113Y0023978D01*
X0104379Y0025576D02*
X0100581Y0025576D01*
X0105747Y0025576D02*
X0115113Y0025576D01*
X0115113Y0027175D02*
X0101503Y0027175D01*
X0102297Y0028773D02*
X0115113Y0028773D01*
X0115113Y0030372D02*
X0102879Y0030372D01*
X0103461Y0031970D02*
X0115113Y0031970D01*
X0115113Y0033569D02*
X0104042Y0033569D01*
X0106705Y0035167D02*
X0115113Y0035167D01*
X0115113Y0036766D02*
X0107843Y0036766D01*
X0107843Y0038364D02*
X0115113Y0038364D01*
X0115113Y0039963D02*
X0107843Y0039963D01*
X0107843Y0041561D02*
X0115113Y0041561D01*
X0115113Y0043160D02*
X0107843Y0043160D01*
X0107843Y0044758D02*
X0115113Y0044758D01*
X0115113Y0046357D02*
X0107843Y0046357D01*
X0107835Y0047955D02*
X0115113Y0047955D01*
X0115113Y0049554D02*
X0107843Y0049554D01*
X0107843Y0051152D02*
X0115113Y0051152D01*
X0115113Y0052751D02*
X0107843Y0052751D01*
X0107843Y0054349D02*
X0115113Y0054349D01*
X0115113Y0055948D02*
X0107843Y0055948D01*
X0107843Y0057546D02*
X0115113Y0057546D01*
X0115113Y0059145D02*
X0107843Y0059145D01*
X0107251Y0060743D02*
X0115113Y0060743D01*
X0115113Y0062342D02*
X0098041Y0062342D01*
X0097508Y0063940D02*
X0115113Y0063940D01*
X0115113Y0065539D02*
X0096975Y0065539D01*
X0096442Y0067137D02*
X0115113Y0067137D01*
X0115113Y0068736D02*
X0095309Y0068736D01*
X0094243Y0070334D02*
X0115113Y0070334D01*
X0115113Y0071933D02*
X0093178Y0071933D01*
X0092112Y0073532D02*
X0115113Y0073532D01*
X0115113Y0075130D02*
X0090751Y0075130D01*
X0028668Y0076729D02*
X0027603Y0076729D01*
X0089443Y0076729D02*
X0115113Y0076729D01*
X0030140Y0078327D02*
X0027603Y0078327D01*
X0087971Y0078327D02*
X0115113Y0078327D01*
X0032156Y0079926D02*
X0027603Y0079926D01*
X0085955Y0079926D02*
X0115113Y0079926D01*
X0034109Y0081524D02*
X0027603Y0081524D01*
X0084001Y0081524D02*
X0115113Y0081524D01*
X0036508Y0083123D02*
X0027615Y0083123D01*
X0081602Y0083123D02*
X0115113Y0083123D01*
X0038906Y0084721D02*
X0027603Y0084721D01*
X0079204Y0084721D02*
X0115113Y0084721D01*
X0042258Y0086320D02*
X0027603Y0086320D01*
X0075852Y0086320D02*
X0115113Y0086320D01*
X0047053Y0087918D02*
X0027603Y0087918D01*
X0071057Y0087918D02*
X0115113Y0087918D01*
X0053592Y0089517D02*
X0027603Y0089517D01*
X0064518Y0089517D02*
X0115113Y0089517D01*
X0115113Y0091115D02*
X0027603Y0091115D01*
X0027603Y0092714D02*
X0115113Y0092714D01*
X0115113Y0094312D02*
X0027603Y0094312D01*
X0027603Y0095911D02*
X0115113Y0095911D01*
X0115113Y0097509D02*
X0027603Y0097509D01*
X0027603Y0099108D02*
X0115113Y0099108D01*
X0052812Y0100706D02*
X0027603Y0100706D01*
X0055524Y0100706D02*
X0055893Y0100706D01*
X0058606Y0100706D02*
X0059091Y0100706D01*
X0065713Y0100706D02*
X0115113Y0100706D01*
X0051743Y0102305D02*
X0027603Y0102305D01*
X0055524Y0102305D02*
X0055893Y0102305D01*
X0066548Y0102305D02*
X0115113Y0102305D01*
X0051743Y0103903D02*
X0027603Y0103903D01*
X0055524Y0103903D02*
X0055893Y0103903D01*
X0066548Y0103903D02*
X0115113Y0103903D01*
X0051743Y0105502D02*
X0027603Y0105502D01*
X0066548Y0105502D02*
X0115113Y0105502D01*
X0051927Y0107100D02*
X0027603Y0107100D01*
X0066548Y0107100D02*
X0115113Y0107100D01*
X0050311Y0108699D02*
X0027603Y0108699D01*
X0067800Y0108699D02*
X0115113Y0108699D01*
X0049987Y0110297D02*
X0027603Y0110297D01*
X0068123Y0110297D02*
X0072653Y0110297D01*
X0077938Y0110297D02*
X0115113Y0110297D01*
X0049987Y0111896D02*
X0027603Y0111896D01*
X0068123Y0111896D02*
X0071768Y0111896D01*
X0078823Y0111896D02*
X0115113Y0111896D01*
X0049987Y0113494D02*
X0027603Y0113494D01*
X0068123Y0113494D02*
X0071766Y0113494D01*
X0078824Y0113494D02*
X0115113Y0113494D01*
X0049987Y0115093D02*
X0027603Y0115093D01*
X0068261Y0115093D02*
X0072649Y0115093D01*
X0078568Y0115093D02*
X0115113Y0115093D01*
X0049987Y0116691D02*
X0027603Y0116691D01*
X0069076Y0116691D02*
X0073006Y0116691D01*
X0078568Y0116691D02*
X0115113Y0116691D01*
X0050921Y0118290D02*
X0027603Y0118290D01*
X0069438Y0118290D02*
X0073006Y0118290D01*
X0078568Y0118290D02*
X0115113Y0118290D01*
X0049200Y0119888D02*
X0027603Y0119888D01*
X0051555Y0119888D02*
X0051555Y0119888D01*
X0053910Y0119888D02*
X0053944Y0119888D01*
X0069418Y0119888D02*
X0073006Y0119888D01*
X0078568Y0119888D02*
X0115113Y0119888D01*
X0048574Y0121487D02*
X0027603Y0121487D01*
X0051555Y0121487D02*
X0051555Y0121487D01*
X0069717Y0121487D02*
X0073006Y0121487D01*
X0078568Y0121487D02*
X0115113Y0121487D01*
X0048574Y0123085D02*
X0027603Y0123085D01*
X0051555Y0123085D02*
X0051555Y0123085D01*
X0069717Y0123085D02*
X0073006Y0123085D01*
X0078568Y0123085D02*
X0115113Y0123085D01*
X0048574Y0124684D02*
X0031793Y0124684D01*
X0051555Y0124684D02*
X0051555Y0124684D01*
X0069717Y0124684D02*
X0073006Y0124684D01*
X0078568Y0124684D02*
X0115113Y0124684D01*
X0048574Y0126282D02*
X0032899Y0126282D01*
X0069717Y0126282D02*
X0072620Y0126282D01*
X0078955Y0126282D02*
X0115113Y0126282D01*
X0048574Y0127881D02*
X0033093Y0127881D01*
X0069717Y0127881D02*
X0072222Y0127881D01*
X0079353Y0127881D02*
X0115113Y0127881D01*
X0048574Y0129479D02*
X0032550Y0129479D01*
X0069717Y0129479D02*
X0072561Y0129479D01*
X0079014Y0129479D02*
X0115113Y0129479D01*
X0048985Y0131078D02*
X0031324Y0131078D01*
X0069381Y0131078D02*
X0074016Y0131078D01*
X0077559Y0131078D02*
X0115113Y0131078D01*
X0050272Y0132676D02*
X0031324Y0132676D01*
X0062581Y0132676D02*
X0115113Y0132676D01*
X0050076Y0134275D02*
X0031324Y0134275D01*
X0064180Y0134275D02*
X0080671Y0134275D01*
X0084683Y0134275D02*
X0115113Y0134275D01*
X0047076Y0135873D02*
X0031324Y0135873D01*
X0065778Y0135873D02*
X0079410Y0135873D01*
X0085944Y0135873D02*
X0115113Y0135873D01*
X0045895Y0137472D02*
X0031324Y0137472D01*
X0067377Y0137472D02*
X0078010Y0137472D01*
X0086243Y0137472D02*
X0115113Y0137472D01*
X0045647Y0139070D02*
X0031324Y0139070D01*
X0068969Y0139070D02*
X0076411Y0139070D01*
X0085804Y0139070D02*
X0115113Y0139070D01*
X0046136Y0140669D02*
X0031324Y0140669D01*
X0069475Y0140669D02*
X0074957Y0140669D01*
X0083868Y0140669D02*
X0115113Y0140669D01*
X0048317Y0142268D02*
X0031324Y0142268D01*
X0069717Y0142268D02*
X0074575Y0142268D01*
X0082212Y0142268D02*
X0115113Y0142268D01*
X0048393Y0143866D02*
X0031324Y0143866D01*
X0069717Y0143866D02*
X0074575Y0143866D01*
X0080937Y0143866D02*
X0115113Y0143866D01*
X0048393Y0145465D02*
X0031324Y0145465D01*
X0069717Y0145465D02*
X0074575Y0145465D01*
X0080937Y0145465D02*
X0115113Y0145465D01*
X0048393Y0147063D02*
X0031324Y0147063D01*
X0069717Y0147063D02*
X0074575Y0147063D01*
X0080937Y0147063D02*
X0115113Y0147063D01*
X0048393Y0148662D02*
X0031324Y0148662D01*
X0069717Y0148662D02*
X0074575Y0148662D01*
X0080937Y0148662D02*
X0115113Y0148662D01*
X0048393Y0150260D02*
X0031324Y0150260D01*
X0069717Y0150260D02*
X0074575Y0150260D01*
X0080937Y0150260D02*
X0115113Y0150260D01*
X0048172Y0151859D02*
X0031324Y0151859D01*
X0069073Y0151859D02*
X0074575Y0151859D01*
X0080937Y0151859D02*
X0115113Y0151859D01*
X0048200Y0153457D02*
X0031406Y0153457D01*
X0066351Y0153457D02*
X0074575Y0153457D01*
X0080937Y0153457D02*
X0115113Y0153457D01*
X0048200Y0155056D02*
X0033004Y0155056D01*
X0066351Y0155056D02*
X0074575Y0155056D01*
X0080937Y0155056D02*
X0115113Y0155056D01*
X0048200Y0156654D02*
X0034603Y0156654D01*
X0066351Y0156654D02*
X0074575Y0156654D01*
X0080937Y0156654D02*
X0115113Y0156654D01*
X0048200Y0158253D02*
X0036201Y0158253D01*
X0066351Y0158253D02*
X0074575Y0158253D01*
X0080937Y0158253D02*
X0115113Y0158253D01*
X0048199Y0159851D02*
X0037800Y0159851D01*
X0066065Y0159851D02*
X0074191Y0159851D01*
X0081321Y0159851D02*
X0115113Y0159851D01*
X0048579Y0161450D02*
X0039398Y0161450D01*
X0066351Y0161450D02*
X0074318Y0161450D01*
X0081194Y0161450D02*
X0115113Y0161450D01*
X0050094Y0163048D02*
X0040997Y0163048D01*
X0066351Y0163048D02*
X0075329Y0163048D01*
X0080183Y0163048D02*
X0115113Y0163048D01*
X0051728Y0164647D02*
X0042595Y0164647D01*
X0066351Y0164647D02*
X0115113Y0164647D01*
X0051759Y0166245D02*
X0044194Y0166245D01*
X0066351Y0166245D02*
X0115113Y0166245D01*
X0052247Y0167844D02*
X0045792Y0167844D01*
X0065864Y0167844D02*
X0115113Y0167844D01*
X0115113Y0169442D02*
X0047391Y0169442D01*
X0048990Y0171041D02*
X0115113Y0171041D01*
X0115113Y0172639D02*
X0050588Y0172639D01*
X0052187Y0174238D02*
X0115113Y0174238D01*
X0115113Y0175836D02*
X0053785Y0175836D01*
X0055384Y0177435D02*
X0115113Y0177435D01*
X0115113Y0179033D02*
X0056982Y0179033D01*
X0058581Y0180632D02*
X0115113Y0180632D01*
X0115113Y0182230D02*
X0060179Y0182230D01*
X0061778Y0183829D02*
X0115113Y0183829D01*
X0115113Y0185427D02*
X0063376Y0185427D01*
X0064975Y0187026D02*
X0115113Y0187026D01*
X0115113Y0188624D02*
X0066433Y0188624D01*
X0066757Y0190223D02*
X0115113Y0190223D01*
X0046905Y0191821D02*
X0046599Y0191821D01*
X0066757Y0191821D02*
X0115113Y0191821D01*
X0041232Y0193420D02*
X0034430Y0193420D01*
X0045382Y0193420D02*
X0047416Y0193420D01*
X0066757Y0193420D02*
X0115113Y0193420D01*
X0047416Y0195018D02*
X0032832Y0195018D01*
X0066757Y0195018D02*
X0115113Y0195018D01*
X0047416Y0196617D02*
X0031233Y0196617D01*
X0066757Y0196617D02*
X0115113Y0196617D01*
X0047416Y0198215D02*
X0029635Y0198215D01*
X0066757Y0198215D02*
X0115113Y0198215D01*
X0047416Y0199814D02*
X0028372Y0199814D01*
X0066757Y0199814D02*
X0115113Y0199814D01*
X0047416Y0201412D02*
X0028372Y0201412D01*
X0066757Y0201412D02*
X0115113Y0201412D01*
X0047416Y0203011D02*
X0028372Y0203011D01*
X0066757Y0203011D02*
X0115113Y0203011D01*
X0047416Y0204609D02*
X0028372Y0204609D01*
X0066757Y0204609D02*
X0115113Y0204609D01*
X0047416Y0206208D02*
X0028372Y0206208D01*
X0066757Y0206208D02*
X0115113Y0206208D01*
X0047416Y0207806D02*
X0028372Y0207806D01*
X0066757Y0207806D02*
X0115113Y0207806D01*
X0047416Y0209405D02*
X0028372Y0209405D01*
X0066757Y0209405D02*
X0115113Y0209405D01*
X0047416Y0211003D02*
X0028374Y0211003D01*
X0066757Y0211003D02*
X0115113Y0211003D01*
X0047416Y0212602D02*
X0027552Y0212602D01*
X0056915Y0212602D02*
X0058165Y0212602D01*
X0059945Y0212602D02*
X0061195Y0212602D01*
X0066757Y0212602D02*
X0115113Y0212602D01*
X0047416Y0214201D02*
X0025974Y0214201D01*
X0056915Y0214201D02*
X0061195Y0214201D01*
X0066757Y0214201D02*
X0115113Y0214201D01*
X0047416Y0215799D02*
X0025045Y0215799D01*
X0056915Y0215799D02*
X0061195Y0215799D01*
X0066757Y0215799D02*
X0115113Y0215799D01*
X0047416Y0217398D02*
X0025045Y0217398D01*
X0056915Y0217398D02*
X0061195Y0217398D01*
X0066757Y0217398D02*
X0115113Y0217398D01*
X0047416Y0218996D02*
X0024461Y0218996D01*
X0056915Y0218996D02*
X0058934Y0218996D01*
X0066757Y0218996D02*
X0115113Y0218996D01*
X0046142Y0220595D02*
X0023173Y0220595D01*
X0056915Y0220595D02*
X0058014Y0220595D01*
X0066311Y0220595D02*
X0115113Y0220595D01*
X0043434Y0222193D02*
X0022890Y0222193D01*
X0056915Y0222193D02*
X0057962Y0222193D01*
X0065070Y0222193D02*
X0115113Y0222193D01*
X0003270Y0223792D02*
X0002997Y0223792D01*
X0024343Y0223792D02*
X0042694Y0223792D01*
X0056585Y0223792D02*
X0058808Y0223792D01*
X0064223Y0223792D02*
X0115113Y0223792D01*
X0004483Y0225390D02*
X0002997Y0225390D01*
X0025006Y0225390D02*
X0042807Y0225390D01*
X0055618Y0225390D02*
X0115113Y0225390D01*
X0004483Y0226989D02*
X0002997Y0226989D01*
X0025045Y0226989D02*
X0043797Y0226989D01*
X0048723Y0226989D02*
X0049702Y0226989D01*
X0054628Y0226989D02*
X0115113Y0226989D01*
X0004483Y0228587D02*
X0002997Y0228587D01*
X0024630Y0228587D02*
X0115113Y0228587D01*
X0004483Y0230186D02*
X0002997Y0230186D01*
X0015045Y0230186D02*
X0015945Y0230186D01*
X0023582Y0230186D02*
X0115113Y0230186D01*
X0005611Y0231784D02*
X0002997Y0231784D01*
X0013917Y0231784D02*
X0018635Y0231784D01*
X0020892Y0231784D02*
X0115113Y0231784D01*
X0115113Y0233383D02*
X0002997Y0233383D01*
X0002997Y0234981D02*
X0115113Y0234981D01*
X0115113Y0236580D02*
X0002997Y0236580D01*
X0002997Y0238178D02*
X0115113Y0238178D01*
X0115113Y0239777D02*
X0002997Y0239777D01*
X0002997Y0241375D02*
X0115113Y0241375D01*
X0115113Y0242974D02*
X0002997Y0242974D01*
X0002997Y0244572D02*
X0115113Y0244572D01*
X0115113Y0246171D02*
X0002997Y0246171D01*
X0002997Y0247769D02*
X0115113Y0247769D01*
X0115113Y0249368D02*
X0002997Y0249368D01*
X0002997Y0250966D02*
X0037880Y0250966D01*
X0080231Y0250966D02*
X0115113Y0250966D01*
X0034241Y0252565D02*
X0002997Y0252565D01*
X0083869Y0252565D02*
X0115113Y0252565D01*
X0008559Y0254163D02*
X0002997Y0254163D01*
X0019000Y0254163D02*
X0032492Y0254163D01*
X0085618Y0254163D02*
X0099110Y0254163D01*
X0109551Y0254163D02*
X0115113Y0254163D01*
X0006961Y0255762D02*
X0002997Y0255762D01*
X0020599Y0255762D02*
X0031335Y0255762D01*
X0086775Y0255762D02*
X0097512Y0255762D01*
X0111150Y0255762D02*
X0115113Y0255762D01*
X0005774Y0257360D02*
X0002997Y0257360D01*
X0021785Y0257360D02*
X0030816Y0257360D01*
X0087294Y0257360D02*
X0096325Y0257360D01*
X0112336Y0257360D02*
X0115113Y0257360D01*
X0005112Y0258959D02*
X0002997Y0258959D01*
X0022447Y0258959D02*
X0030468Y0258959D01*
X0087643Y0258959D02*
X0095663Y0258959D01*
X0112998Y0258959D02*
X0115113Y0258959D01*
X0004680Y0260557D02*
X0002997Y0260557D01*
X0022879Y0260557D02*
X0030468Y0260557D01*
X0087643Y0260557D02*
X0095231Y0260557D01*
X0113430Y0260557D02*
X0115113Y0260557D01*
X0004680Y0262156D02*
X0002997Y0262156D01*
X0022879Y0262156D02*
X0030761Y0262156D01*
X0087349Y0262156D02*
X0095231Y0262156D01*
X0113430Y0262156D02*
X0115113Y0262156D01*
X0004736Y0263754D02*
X0002997Y0263754D01*
X0022823Y0263754D02*
X0031281Y0263754D01*
X0086830Y0263754D02*
X0095287Y0263754D01*
X0113375Y0263754D02*
X0115113Y0263754D01*
X0005398Y0265353D02*
X0003186Y0265353D01*
X0022161Y0265353D02*
X0032370Y0265353D01*
X0085741Y0265353D02*
X0095949Y0265353D01*
X0112713Y0265353D02*
X0114925Y0265353D01*
X0006060Y0266951D02*
X0003614Y0266951D01*
X0021499Y0266951D02*
X0034009Y0266951D01*
X0084101Y0266951D02*
X0096611Y0266951D01*
X0112050Y0266951D02*
X0114496Y0266951D01*
X0007650Y0268550D02*
X0004475Y0268550D01*
X0019909Y0268550D02*
X0037360Y0268550D01*
X0080750Y0268550D02*
X0098201Y0268550D01*
X0110460Y0268550D02*
X0113636Y0268550D01*
X0010130Y0270148D02*
X0005821Y0270148D01*
X0017429Y0270148D02*
X0100682Y0270148D01*
X0107980Y0270148D02*
X0112289Y0270148D01*
X0109977Y0271747D02*
X0008133Y0271747D01*
X0056594Y0150098D02*
X0056555Y0146063D01*
X0056594Y0140256D01*
X0058071Y0138780D01*
X0028543Y0154528D02*
X0063976Y0189961D01*
X0061516Y0221457D02*
X0063976Y0218996D01*
X0063976Y0189961D01*
X0028543Y0154528D02*
X0028543Y0129429D01*
X0029528Y0127461D01*
X0056594Y0126969D02*
X0056555Y0125591D01*
X0009764Y0226535D02*
X0003937Y0220472D01*
X0003937Y0202756D01*
X0027559Y0179134D01*
X0038878Y0179134D01*
X0046752Y0187008D01*
X0019764Y0216535D02*
X0025591Y0210630D01*
X0025591Y0198327D01*
X0033465Y0190453D01*
X0043307Y0190453D01*
X0009764Y0206535D02*
X0011319Y0205217D01*
X0033465Y0183071D01*
X0050197Y0190453D02*
X0050197Y0220472D01*
X0046260Y0224409D01*
X0054134Y0193898D02*
X0054134Y0222441D01*
X0052165Y0224409D01*
X0075295Y0112697D02*
X0075787Y0114173D01*
X0075787Y0127953D01*
X0051673Y0150591D02*
X0051555Y0146063D01*
X0051673Y0141240D01*
X0049213Y0138780D01*
D20*
X0059055Y0092520D03*
X0063231Y0092520D03*
X0054879Y0092520D03*
X0028543Y0102362D03*
X0075787Y0102362D03*
X0067913Y0175197D03*
X0070866Y0172244D03*
X0029528Y0122047D03*
X0029528Y0117126D03*
X0040354Y0152559D03*
X0059055Y0229823D03*
X0096457Y0092520D03*
X0036909Y0156004D03*
X0010335Y0243110D03*
X0044783Y0122047D03*
X0044783Y0117126D03*
X0073819Y0107776D03*
X0070374Y0111220D03*
X0102854Y0200295D03*
X0082677Y0212598D03*
X0092520Y0212598D03*
X0112205Y0027559D03*
X0112205Y0022638D03*
X0076772Y0187992D03*
X0079724Y0182087D03*
X0095472Y0171260D03*
X0103346Y0163386D03*
X0103346Y0168307D03*
X0098425Y0129921D03*
X0076772Y0134843D03*
X0030020Y0206693D03*
X0030020Y0211614D03*
X0103346Y0147146D03*
X0082677Y0137303D03*
X0077756Y0160433D03*
X0062500Y0159941D03*
X0058071Y0138780D03*
X0061516Y0221457D03*
X0029528Y0127461D03*
X0016732Y0068898D03*
X0019685Y0071850D03*
X0022638Y0074803D03*
X0053642Y0133858D03*
X0030512Y0170276D03*
X0046752Y0187008D03*
X0043307Y0190453D03*
X0033465Y0183071D03*
X0046260Y0224409D03*
X0050197Y0190453D03*
X0052165Y0224409D03*
X0054134Y0193898D03*
X0075295Y0112697D03*
X0075787Y0127953D03*
X0049213Y0138780D03*
D21*
X0059055Y0092520D02*
X0059055Y0048228D01*
X0059055Y0208661D02*
X0059055Y0191929D01*
X0033957Y0166831D01*
X0023622Y0156496D01*
X0023622Y0082677D01*
X0023622Y0075787D01*
X0015748Y0066929D01*
X0015748Y0054331D01*
X0015748Y0048228D01*
X0015761Y0047182D01*
X0015799Y0046136D01*
X0015862Y0045091D01*
X0015950Y0044048D01*
X0016064Y0043008D01*
X0016202Y0041971D01*
X0016366Y0040937D01*
X0016555Y0039908D01*
X0016768Y0038883D01*
X0017006Y0037864D01*
X0017269Y0036851D01*
X0017556Y0035845D01*
X0017868Y0034845D01*
X0018203Y0033854D01*
X0018562Y0032871D01*
X0018945Y0031897D01*
X0019351Y0030933D01*
X0019781Y0029978D01*
X0020233Y0029035D01*
X0020709Y0028102D01*
X0021206Y0027182D01*
X0021726Y0026273D01*
X0022267Y0025377D01*
X0022830Y0024495D01*
X0023414Y0023627D01*
X0024019Y0022773D01*
X0024644Y0021934D01*
X0025290Y0021110D01*
X0025955Y0020302D01*
X0026639Y0019510D01*
X0027343Y0018735D01*
X0028065Y0017978D01*
X0028805Y0017238D01*
X0029562Y0016516D01*
X0030337Y0015812D01*
X0031129Y0015128D01*
X0031937Y0014463D01*
X0032761Y0013817D01*
X0033600Y0013192D01*
X0034454Y0012587D01*
X0035322Y0012003D01*
X0036204Y0011440D01*
X0037100Y0010899D01*
X0038009Y0010379D01*
X0038929Y0009882D01*
X0039862Y0009406D01*
X0040805Y0008954D01*
X0041760Y0008524D01*
X0042724Y0008118D01*
X0043698Y0007735D01*
X0044681Y0007376D01*
X0045672Y0007041D01*
X0046672Y0006729D01*
X0047678Y0006442D01*
X0048691Y0006179D01*
X0049710Y0005941D01*
X0050735Y0005728D01*
X0051764Y0005539D01*
X0052798Y0005375D01*
X0053835Y0005237D01*
X0054875Y0005123D01*
X0055918Y0005035D01*
X0056963Y0004972D01*
X0058009Y0004934D01*
X0059055Y0004921D01*
X0060101Y0004934D01*
X0061147Y0004972D01*
X0062192Y0005035D01*
X0063235Y0005123D01*
X0064275Y0005237D01*
X0065312Y0005375D01*
X0066346Y0005539D01*
X0067375Y0005728D01*
X0068400Y0005941D01*
X0069419Y0006179D01*
X0070432Y0006442D01*
X0071438Y0006729D01*
X0072438Y0007041D01*
X0073429Y0007376D01*
X0074412Y0007735D01*
X0075386Y0008118D01*
X0076350Y0008524D01*
X0077305Y0008954D01*
X0078248Y0009406D01*
X0079181Y0009882D01*
X0080101Y0010379D01*
X0081010Y0010899D01*
X0081906Y0011440D01*
X0082788Y0012003D01*
X0083656Y0012587D01*
X0084510Y0013192D01*
X0085349Y0013817D01*
X0086173Y0014463D01*
X0086981Y0015128D01*
X0087773Y0015812D01*
X0088548Y0016516D01*
X0089305Y0017238D01*
X0090045Y0017978D01*
X0090767Y0018735D01*
X0091471Y0019510D01*
X0092155Y0020302D01*
X0092820Y0021110D01*
X0093466Y0021934D01*
X0094091Y0022773D01*
X0094696Y0023627D01*
X0095280Y0024495D01*
X0095843Y0025377D01*
X0096384Y0026273D01*
X0096904Y0027182D01*
X0097401Y0028102D01*
X0097877Y0029035D01*
X0098329Y0029978D01*
X0098759Y0030933D01*
X0099165Y0031897D01*
X0099548Y0032871D01*
X0099907Y0033854D01*
X0100242Y0034845D01*
X0100554Y0035845D01*
X0100841Y0036851D01*
X0101104Y0037864D01*
X0101342Y0038883D01*
X0101555Y0039908D01*
X0101744Y0040937D01*
X0101908Y0041971D01*
X0102046Y0043008D01*
X0102160Y0044048D01*
X0102248Y0045091D01*
X0102311Y0046136D01*
X0102349Y0047182D01*
X0102362Y0048228D01*
X0102362Y0054331D01*
X0102362Y0048228D02*
X0102362Y0042126D01*
X0015748Y0042126D02*
X0015748Y0048228D01*
X0015748Y0068898D02*
X0023622Y0076772D01*
X0023622Y0074803D01*
X0015748Y0066929D01*
X0015748Y0068898D01*
X0015748Y0067975D02*
X0016794Y0067975D01*
X0018824Y0071973D02*
X0020792Y0071973D01*
X0022822Y0075972D02*
X0023622Y0075972D01*
X0023622Y0082677D02*
X0021654Y0082677D01*
X0022638Y0082701D02*
X0012992Y0082939D01*
X0012992Y0082939D01*
X0023622Y0082677D01*
D22*
X0082677Y0137303D02*
X0077756Y0142224D01*
X0077756Y0160433D01*
D23*
X0062402Y0155512D02*
X0062500Y0159941D01*
X0062402Y0164370D01*
X0056594Y0150098D02*
X0056594Y0153543D01*
X0055709Y0155512D01*
X0056594Y0126969D02*
X0056594Y0130906D01*
X0053642Y0133858D01*
X0033957Y0166831D02*
X0030512Y0170276D01*
X0066555Y0146063D02*
X0066437Y0140748D01*
X0056594Y0130906D01*
X0061516Y0121063D02*
X0056594Y0116142D01*
X0054134Y0113189D01*
X0061516Y0121063D02*
X0061555Y0125591D01*
X0063976Y0113189D02*
X0066437Y0118110D01*
X0066437Y0121555D01*
X0063976Y0113189D02*
X0062402Y0104331D01*
X0066437Y0121555D02*
X0066555Y0125591D01*
X0051673Y0150591D02*
X0051181Y0151575D01*
X0051181Y0159941D01*
X0055709Y0164370D01*
D24*
X0059055Y0208661D03*
D25*
X0023622Y0082939D02*
X0023622Y0082677D01*
M02*
