%
M48
M72
T01C0.0197
T02C0.0236
T03C0.0360
T04C0.0394
T05C0.1260
%
T01
X5906Y9252
X6323Y9252
X5488Y9252
X2854Y10236
X7579Y10236
X6791Y17520
X7087Y17224
X2953Y12205
X2953Y11713
X4035Y15256
X5906Y22982
X3691Y15600
X1033Y24311
X4478Y12205
X4478Y11713
X7382Y10778
X7037Y11122
X10285Y20030
X8268Y21260
X9252Y21260
X11220Y2756
X11220Y2264
X7677Y18799
X7972Y18209
X9547Y17126
X10335Y16339
X10335Y16831
X9843Y12992
X7677Y13484
X3002Y20669
X3002Y21161
X11220Y15157
X11024Y9941
X8612Y8612
X8612Y9449
X9006Y10531
X9006Y10089
X8268Y13730
X7776Y16043
X11220Y8563
X10335Y14370
X9646Y14370
X10482Y11319
X6398Y22441
X2953Y12746
X1673Y6890
X1969Y7185
X2264Y7480
X9498Y11316
X8809Y12008
X4675Y18701
X4331Y19045
X3346Y18307
X4626Y22441
X5020Y19045
X5217Y22441
X5413Y19390
X10630Y10335
X8169Y9793
X7480Y12992
X9990Y11316
T02
X5906Y19587
T03
X5906Y20276
X5906Y21457
T04
X976Y22654
X1976Y22654
X976Y21654
X1976Y21654
X976Y20654
X1976Y20654
T05
X1378Y26181
X10433Y26181
M30
