G75*
%MOIN*%
%OFA0B0*%
%FSLAX25Y25*%
%IPPOS*%
%LPD*%
%AMOC8*
5,1,8,0,0,1.08239X$1,22.5*
%
%ADD10C,0.00394*%
%ADD11C,0.00000*%
D10*
X0011811Y0000000D02*
X0106299Y0000000D01*
X0106584Y0000003D01*
X0106870Y0000014D01*
X0107155Y0000031D01*
X0107439Y0000055D01*
X0107723Y0000086D01*
X0108006Y0000124D01*
X0108287Y0000169D01*
X0108568Y0000220D01*
X0108848Y0000278D01*
X0109126Y0000343D01*
X0109402Y0000415D01*
X0109676Y0000493D01*
X0109949Y0000578D01*
X0110219Y0000670D01*
X0110487Y0000768D01*
X0110753Y0000872D01*
X0111016Y0000983D01*
X0111276Y0001100D01*
X0111534Y0001223D01*
X0111788Y0001353D01*
X0112039Y0001489D01*
X0112287Y0001630D01*
X0112531Y0001778D01*
X0112772Y0001931D01*
X0113008Y0002091D01*
X0113241Y0002256D01*
X0113470Y0002426D01*
X0113695Y0002602D01*
X0113915Y0002784D01*
X0114131Y0002970D01*
X0114342Y0003162D01*
X0114549Y0003359D01*
X0114751Y0003561D01*
X0114948Y0003768D01*
X0115140Y0003979D01*
X0115326Y0004195D01*
X0115508Y0004415D01*
X0115684Y0004640D01*
X0115854Y0004869D01*
X0116019Y0005102D01*
X0116179Y0005338D01*
X0116332Y0005579D01*
X0116480Y0005823D01*
X0116621Y0006071D01*
X0116757Y0006322D01*
X0116887Y0006576D01*
X0117010Y0006834D01*
X0117127Y0007094D01*
X0117238Y0007357D01*
X0117342Y0007623D01*
X0117440Y0007891D01*
X0117532Y0008161D01*
X0117617Y0008434D01*
X0117695Y0008708D01*
X0117767Y0008984D01*
X0117832Y0009262D01*
X0117890Y0009542D01*
X0117941Y0009823D01*
X0117986Y0010104D01*
X0118024Y0010387D01*
X0118055Y0010671D01*
X0118079Y0010955D01*
X0118096Y0011240D01*
X0118107Y0011526D01*
X0118110Y0011811D01*
X0000000Y0011811D02*
X0000000Y0263780D01*
X0000003Y0264065D01*
X0000014Y0264351D01*
X0000031Y0264636D01*
X0000055Y0264920D01*
X0000086Y0265204D01*
X0000124Y0265487D01*
X0000169Y0265768D01*
X0000220Y0266049D01*
X0000278Y0266329D01*
X0000343Y0266607D01*
X0000415Y0266883D01*
X0000493Y0267157D01*
X0000578Y0267430D01*
X0000670Y0267700D01*
X0000768Y0267968D01*
X0000872Y0268234D01*
X0000983Y0268497D01*
X0001100Y0268757D01*
X0001223Y0269015D01*
X0001353Y0269269D01*
X0001489Y0269520D01*
X0001630Y0269768D01*
X0001778Y0270012D01*
X0001931Y0270253D01*
X0002091Y0270489D01*
X0002256Y0270722D01*
X0002426Y0270951D01*
X0002602Y0271176D01*
X0002784Y0271396D01*
X0002970Y0271612D01*
X0003162Y0271823D01*
X0003359Y0272030D01*
X0003561Y0272232D01*
X0003768Y0272429D01*
X0003979Y0272621D01*
X0004195Y0272807D01*
X0004415Y0272989D01*
X0004640Y0273165D01*
X0004869Y0273335D01*
X0005102Y0273500D01*
X0005338Y0273660D01*
X0005579Y0273813D01*
X0005823Y0273961D01*
X0006071Y0274102D01*
X0006322Y0274238D01*
X0006576Y0274368D01*
X0006834Y0274491D01*
X0007094Y0274608D01*
X0007357Y0274719D01*
X0007623Y0274823D01*
X0007891Y0274921D01*
X0008161Y0275013D01*
X0008434Y0275098D01*
X0008708Y0275176D01*
X0008984Y0275248D01*
X0009262Y0275313D01*
X0009542Y0275371D01*
X0009823Y0275422D01*
X0010104Y0275467D01*
X0010387Y0275505D01*
X0010671Y0275536D01*
X0010955Y0275560D01*
X0011240Y0275577D01*
X0011526Y0275588D01*
X0011811Y0275591D01*
X0106299Y0275591D01*
X0106584Y0275588D01*
X0106870Y0275577D01*
X0107155Y0275560D01*
X0107439Y0275536D01*
X0107723Y0275505D01*
X0108006Y0275467D01*
X0108287Y0275422D01*
X0108568Y0275371D01*
X0108848Y0275313D01*
X0109126Y0275248D01*
X0109402Y0275176D01*
X0109676Y0275098D01*
X0109949Y0275013D01*
X0110219Y0274921D01*
X0110487Y0274823D01*
X0110753Y0274719D01*
X0111016Y0274608D01*
X0111276Y0274491D01*
X0111534Y0274368D01*
X0111788Y0274238D01*
X0112039Y0274102D01*
X0112287Y0273961D01*
X0112531Y0273813D01*
X0112772Y0273660D01*
X0113008Y0273500D01*
X0113241Y0273335D01*
X0113470Y0273165D01*
X0113695Y0272989D01*
X0113915Y0272807D01*
X0114131Y0272621D01*
X0114342Y0272429D01*
X0114549Y0272232D01*
X0114751Y0272030D01*
X0114948Y0271823D01*
X0115140Y0271612D01*
X0115326Y0271396D01*
X0115508Y0271176D01*
X0115684Y0270951D01*
X0115854Y0270722D01*
X0116019Y0270489D01*
X0116179Y0270253D01*
X0116332Y0270012D01*
X0116480Y0269768D01*
X0116621Y0269520D01*
X0116757Y0269269D01*
X0116887Y0269015D01*
X0117010Y0268757D01*
X0117127Y0268497D01*
X0117238Y0268234D01*
X0117342Y0267968D01*
X0117440Y0267700D01*
X0117532Y0267430D01*
X0117617Y0267157D01*
X0117695Y0266883D01*
X0117767Y0266607D01*
X0117832Y0266329D01*
X0117890Y0266049D01*
X0117941Y0265768D01*
X0117986Y0265487D01*
X0118024Y0265204D01*
X0118055Y0264920D01*
X0118079Y0264636D01*
X0118096Y0264351D01*
X0118107Y0264065D01*
X0118110Y0263780D01*
X0118110Y0011811D01*
X0011811Y0000000D02*
X0011526Y0000003D01*
X0011240Y0000014D01*
X0010955Y0000031D01*
X0010671Y0000055D01*
X0010387Y0000086D01*
X0010104Y0000124D01*
X0009823Y0000169D01*
X0009542Y0000220D01*
X0009262Y0000278D01*
X0008984Y0000343D01*
X0008708Y0000415D01*
X0008434Y0000493D01*
X0008161Y0000578D01*
X0007891Y0000670D01*
X0007623Y0000768D01*
X0007357Y0000872D01*
X0007094Y0000983D01*
X0006834Y0001100D01*
X0006576Y0001223D01*
X0006322Y0001353D01*
X0006071Y0001489D01*
X0005823Y0001630D01*
X0005579Y0001778D01*
X0005338Y0001931D01*
X0005102Y0002091D01*
X0004869Y0002256D01*
X0004640Y0002426D01*
X0004415Y0002602D01*
X0004195Y0002784D01*
X0003979Y0002970D01*
X0003768Y0003162D01*
X0003561Y0003359D01*
X0003359Y0003561D01*
X0003162Y0003768D01*
X0002970Y0003979D01*
X0002784Y0004195D01*
X0002602Y0004415D01*
X0002426Y0004640D01*
X0002256Y0004869D01*
X0002091Y0005102D01*
X0001931Y0005338D01*
X0001778Y0005579D01*
X0001630Y0005823D01*
X0001489Y0006071D01*
X0001353Y0006322D01*
X0001223Y0006576D01*
X0001100Y0006834D01*
X0000983Y0007094D01*
X0000872Y0007357D01*
X0000768Y0007623D01*
X0000670Y0007891D01*
X0000578Y0008161D01*
X0000493Y0008434D01*
X0000415Y0008708D01*
X0000343Y0008984D01*
X0000278Y0009262D01*
X0000220Y0009542D01*
X0000169Y0009823D01*
X0000124Y0010104D01*
X0000086Y0010387D01*
X0000055Y0010671D01*
X0000031Y0010955D01*
X0000014Y0011240D01*
X0000003Y0011526D01*
X0000000Y0011811D01*
X0039370Y0265748D02*
X0078740Y0265748D01*
X0078740Y0265749D02*
X0078892Y0265747D01*
X0079044Y0265741D01*
X0079196Y0265731D01*
X0079347Y0265718D01*
X0079498Y0265700D01*
X0079649Y0265679D01*
X0079799Y0265653D01*
X0079948Y0265624D01*
X0080097Y0265591D01*
X0080244Y0265554D01*
X0080391Y0265514D01*
X0080536Y0265469D01*
X0080680Y0265421D01*
X0080823Y0265369D01*
X0080965Y0265314D01*
X0081105Y0265255D01*
X0081244Y0265192D01*
X0081381Y0265126D01*
X0081516Y0265056D01*
X0081649Y0264983D01*
X0081780Y0264906D01*
X0081910Y0264826D01*
X0082037Y0264743D01*
X0082162Y0264657D01*
X0082285Y0264567D01*
X0082405Y0264474D01*
X0082523Y0264378D01*
X0082639Y0264279D01*
X0082752Y0264177D01*
X0082862Y0264073D01*
X0082970Y0263965D01*
X0083074Y0263855D01*
X0083176Y0263742D01*
X0083275Y0263626D01*
X0083371Y0263508D01*
X0083464Y0263388D01*
X0083554Y0263265D01*
X0083640Y0263140D01*
X0083723Y0263013D01*
X0083803Y0262883D01*
X0083880Y0262752D01*
X0083953Y0262619D01*
X0084023Y0262484D01*
X0084089Y0262347D01*
X0084152Y0262208D01*
X0084211Y0262068D01*
X0084266Y0261926D01*
X0084318Y0261783D01*
X0084366Y0261639D01*
X0084411Y0261494D01*
X0084451Y0261347D01*
X0084488Y0261200D01*
X0084521Y0261051D01*
X0084550Y0260902D01*
X0084576Y0260752D01*
X0084597Y0260601D01*
X0084615Y0260450D01*
X0084628Y0260299D01*
X0084638Y0260147D01*
X0084644Y0259995D01*
X0084646Y0259843D01*
X0084644Y0259691D01*
X0084638Y0259539D01*
X0084628Y0259387D01*
X0084615Y0259236D01*
X0084597Y0259085D01*
X0084576Y0258934D01*
X0084550Y0258784D01*
X0084521Y0258635D01*
X0084488Y0258486D01*
X0084451Y0258339D01*
X0084411Y0258192D01*
X0084366Y0258047D01*
X0084318Y0257903D01*
X0084266Y0257760D01*
X0084211Y0257618D01*
X0084152Y0257478D01*
X0084089Y0257339D01*
X0084023Y0257202D01*
X0083953Y0257067D01*
X0083880Y0256934D01*
X0083803Y0256803D01*
X0083723Y0256673D01*
X0083640Y0256546D01*
X0083554Y0256421D01*
X0083464Y0256298D01*
X0083371Y0256178D01*
X0083275Y0256060D01*
X0083176Y0255944D01*
X0083074Y0255831D01*
X0082970Y0255721D01*
X0082862Y0255613D01*
X0082752Y0255509D01*
X0082639Y0255407D01*
X0082523Y0255308D01*
X0082405Y0255212D01*
X0082285Y0255119D01*
X0082162Y0255029D01*
X0082037Y0254943D01*
X0081910Y0254860D01*
X0081780Y0254780D01*
X0081649Y0254703D01*
X0081516Y0254630D01*
X0081381Y0254560D01*
X0081244Y0254494D01*
X0081105Y0254431D01*
X0080965Y0254372D01*
X0080823Y0254317D01*
X0080680Y0254265D01*
X0080536Y0254217D01*
X0080391Y0254172D01*
X0080244Y0254132D01*
X0080097Y0254095D01*
X0079948Y0254062D01*
X0079799Y0254033D01*
X0079649Y0254007D01*
X0079498Y0253986D01*
X0079347Y0253968D01*
X0079196Y0253955D01*
X0079044Y0253945D01*
X0078892Y0253939D01*
X0078740Y0253937D01*
X0039370Y0253937D01*
X0039218Y0253939D01*
X0039066Y0253945D01*
X0038914Y0253955D01*
X0038763Y0253968D01*
X0038612Y0253986D01*
X0038461Y0254007D01*
X0038311Y0254033D01*
X0038162Y0254062D01*
X0038013Y0254095D01*
X0037866Y0254132D01*
X0037719Y0254172D01*
X0037574Y0254217D01*
X0037430Y0254265D01*
X0037287Y0254317D01*
X0037145Y0254372D01*
X0037005Y0254431D01*
X0036866Y0254494D01*
X0036729Y0254560D01*
X0036594Y0254630D01*
X0036461Y0254703D01*
X0036330Y0254780D01*
X0036200Y0254860D01*
X0036073Y0254943D01*
X0035948Y0255029D01*
X0035825Y0255119D01*
X0035705Y0255212D01*
X0035587Y0255308D01*
X0035471Y0255407D01*
X0035358Y0255509D01*
X0035248Y0255613D01*
X0035140Y0255721D01*
X0035036Y0255831D01*
X0034934Y0255944D01*
X0034835Y0256060D01*
X0034739Y0256178D01*
X0034646Y0256298D01*
X0034556Y0256421D01*
X0034470Y0256546D01*
X0034387Y0256673D01*
X0034307Y0256803D01*
X0034230Y0256934D01*
X0034157Y0257067D01*
X0034087Y0257202D01*
X0034021Y0257339D01*
X0033958Y0257478D01*
X0033899Y0257618D01*
X0033844Y0257760D01*
X0033792Y0257903D01*
X0033744Y0258047D01*
X0033699Y0258192D01*
X0033659Y0258339D01*
X0033622Y0258486D01*
X0033589Y0258635D01*
X0033560Y0258784D01*
X0033534Y0258934D01*
X0033513Y0259085D01*
X0033495Y0259236D01*
X0033482Y0259387D01*
X0033472Y0259539D01*
X0033466Y0259691D01*
X0033464Y0259843D01*
X0033466Y0259995D01*
X0033472Y0260147D01*
X0033482Y0260299D01*
X0033495Y0260450D01*
X0033513Y0260601D01*
X0033534Y0260752D01*
X0033560Y0260902D01*
X0033589Y0261051D01*
X0033622Y0261200D01*
X0033659Y0261347D01*
X0033699Y0261494D01*
X0033744Y0261639D01*
X0033792Y0261783D01*
X0033844Y0261926D01*
X0033899Y0262068D01*
X0033958Y0262208D01*
X0034021Y0262347D01*
X0034087Y0262484D01*
X0034157Y0262619D01*
X0034230Y0262752D01*
X0034307Y0262883D01*
X0034387Y0263013D01*
X0034470Y0263140D01*
X0034556Y0263265D01*
X0034646Y0263388D01*
X0034739Y0263508D01*
X0034835Y0263626D01*
X0034934Y0263742D01*
X0035036Y0263855D01*
X0035140Y0263965D01*
X0035248Y0264073D01*
X0035358Y0264177D01*
X0035471Y0264279D01*
X0035587Y0264378D01*
X0035705Y0264474D01*
X0035825Y0264567D01*
X0035948Y0264657D01*
X0036073Y0264743D01*
X0036200Y0264826D01*
X0036330Y0264906D01*
X0036461Y0264983D01*
X0036594Y0265056D01*
X0036729Y0265126D01*
X0036866Y0265192D01*
X0037005Y0265255D01*
X0037145Y0265314D01*
X0037287Y0265369D01*
X0037430Y0265421D01*
X0037574Y0265469D01*
X0037719Y0265514D01*
X0037866Y0265554D01*
X0038013Y0265591D01*
X0038162Y0265624D01*
X0038311Y0265653D01*
X0038461Y0265679D01*
X0038612Y0265700D01*
X0038763Y0265718D01*
X0038914Y0265731D01*
X0039066Y0265741D01*
X0039218Y0265747D01*
X0039370Y0265749D01*
D11*
X0007481Y0261811D02*
X0007483Y0261969D01*
X0007489Y0262127D01*
X0007499Y0262285D01*
X0007513Y0262443D01*
X0007531Y0262600D01*
X0007552Y0262757D01*
X0007578Y0262913D01*
X0007608Y0263069D01*
X0007641Y0263224D01*
X0007679Y0263377D01*
X0007720Y0263530D01*
X0007765Y0263682D01*
X0007814Y0263833D01*
X0007867Y0263982D01*
X0007923Y0264130D01*
X0007983Y0264276D01*
X0008047Y0264421D01*
X0008115Y0264564D01*
X0008186Y0264706D01*
X0008260Y0264846D01*
X0008338Y0264983D01*
X0008420Y0265119D01*
X0008504Y0265253D01*
X0008593Y0265384D01*
X0008684Y0265513D01*
X0008779Y0265640D01*
X0008876Y0265765D01*
X0008977Y0265887D01*
X0009081Y0266006D01*
X0009188Y0266123D01*
X0009298Y0266237D01*
X0009411Y0266348D01*
X0009526Y0266457D01*
X0009644Y0266562D01*
X0009765Y0266664D01*
X0009888Y0266764D01*
X0010014Y0266860D01*
X0010142Y0266953D01*
X0010272Y0267043D01*
X0010405Y0267129D01*
X0010540Y0267213D01*
X0010676Y0267292D01*
X0010815Y0267369D01*
X0010956Y0267441D01*
X0011098Y0267511D01*
X0011242Y0267576D01*
X0011388Y0267638D01*
X0011535Y0267696D01*
X0011684Y0267751D01*
X0011834Y0267802D01*
X0011985Y0267849D01*
X0012137Y0267892D01*
X0012290Y0267931D01*
X0012445Y0267967D01*
X0012600Y0267998D01*
X0012756Y0268026D01*
X0012912Y0268050D01*
X0013069Y0268070D01*
X0013227Y0268086D01*
X0013384Y0268098D01*
X0013543Y0268106D01*
X0013701Y0268110D01*
X0013859Y0268110D01*
X0014017Y0268106D01*
X0014176Y0268098D01*
X0014333Y0268086D01*
X0014491Y0268070D01*
X0014648Y0268050D01*
X0014804Y0268026D01*
X0014960Y0267998D01*
X0015115Y0267967D01*
X0015270Y0267931D01*
X0015423Y0267892D01*
X0015575Y0267849D01*
X0015726Y0267802D01*
X0015876Y0267751D01*
X0016025Y0267696D01*
X0016172Y0267638D01*
X0016318Y0267576D01*
X0016462Y0267511D01*
X0016604Y0267441D01*
X0016745Y0267369D01*
X0016884Y0267292D01*
X0017020Y0267213D01*
X0017155Y0267129D01*
X0017288Y0267043D01*
X0017418Y0266953D01*
X0017546Y0266860D01*
X0017672Y0266764D01*
X0017795Y0266664D01*
X0017916Y0266562D01*
X0018034Y0266457D01*
X0018149Y0266348D01*
X0018262Y0266237D01*
X0018372Y0266123D01*
X0018479Y0266006D01*
X0018583Y0265887D01*
X0018684Y0265765D01*
X0018781Y0265640D01*
X0018876Y0265513D01*
X0018967Y0265384D01*
X0019056Y0265253D01*
X0019140Y0265119D01*
X0019222Y0264983D01*
X0019300Y0264846D01*
X0019374Y0264706D01*
X0019445Y0264564D01*
X0019513Y0264421D01*
X0019577Y0264276D01*
X0019637Y0264130D01*
X0019693Y0263982D01*
X0019746Y0263833D01*
X0019795Y0263682D01*
X0019840Y0263530D01*
X0019881Y0263377D01*
X0019919Y0263224D01*
X0019952Y0263069D01*
X0019982Y0262913D01*
X0020008Y0262757D01*
X0020029Y0262600D01*
X0020047Y0262443D01*
X0020061Y0262285D01*
X0020071Y0262127D01*
X0020077Y0261969D01*
X0020079Y0261811D01*
X0020077Y0261653D01*
X0020071Y0261495D01*
X0020061Y0261337D01*
X0020047Y0261179D01*
X0020029Y0261022D01*
X0020008Y0260865D01*
X0019982Y0260709D01*
X0019952Y0260553D01*
X0019919Y0260398D01*
X0019881Y0260245D01*
X0019840Y0260092D01*
X0019795Y0259940D01*
X0019746Y0259789D01*
X0019693Y0259640D01*
X0019637Y0259492D01*
X0019577Y0259346D01*
X0019513Y0259201D01*
X0019445Y0259058D01*
X0019374Y0258916D01*
X0019300Y0258776D01*
X0019222Y0258639D01*
X0019140Y0258503D01*
X0019056Y0258369D01*
X0018967Y0258238D01*
X0018876Y0258109D01*
X0018781Y0257982D01*
X0018684Y0257857D01*
X0018583Y0257735D01*
X0018479Y0257616D01*
X0018372Y0257499D01*
X0018262Y0257385D01*
X0018149Y0257274D01*
X0018034Y0257165D01*
X0017916Y0257060D01*
X0017795Y0256958D01*
X0017672Y0256858D01*
X0017546Y0256762D01*
X0017418Y0256669D01*
X0017288Y0256579D01*
X0017155Y0256493D01*
X0017020Y0256409D01*
X0016884Y0256330D01*
X0016745Y0256253D01*
X0016604Y0256181D01*
X0016462Y0256111D01*
X0016318Y0256046D01*
X0016172Y0255984D01*
X0016025Y0255926D01*
X0015876Y0255871D01*
X0015726Y0255820D01*
X0015575Y0255773D01*
X0015423Y0255730D01*
X0015270Y0255691D01*
X0015115Y0255655D01*
X0014960Y0255624D01*
X0014804Y0255596D01*
X0014648Y0255572D01*
X0014491Y0255552D01*
X0014333Y0255536D01*
X0014176Y0255524D01*
X0014017Y0255516D01*
X0013859Y0255512D01*
X0013701Y0255512D01*
X0013543Y0255516D01*
X0013384Y0255524D01*
X0013227Y0255536D01*
X0013069Y0255552D01*
X0012912Y0255572D01*
X0012756Y0255596D01*
X0012600Y0255624D01*
X0012445Y0255655D01*
X0012290Y0255691D01*
X0012137Y0255730D01*
X0011985Y0255773D01*
X0011834Y0255820D01*
X0011684Y0255871D01*
X0011535Y0255926D01*
X0011388Y0255984D01*
X0011242Y0256046D01*
X0011098Y0256111D01*
X0010956Y0256181D01*
X0010815Y0256253D01*
X0010676Y0256330D01*
X0010540Y0256409D01*
X0010405Y0256493D01*
X0010272Y0256579D01*
X0010142Y0256669D01*
X0010014Y0256762D01*
X0009888Y0256858D01*
X0009765Y0256958D01*
X0009644Y0257060D01*
X0009526Y0257165D01*
X0009411Y0257274D01*
X0009298Y0257385D01*
X0009188Y0257499D01*
X0009081Y0257616D01*
X0008977Y0257735D01*
X0008876Y0257857D01*
X0008779Y0257982D01*
X0008684Y0258109D01*
X0008593Y0258238D01*
X0008504Y0258369D01*
X0008420Y0258503D01*
X0008338Y0258639D01*
X0008260Y0258776D01*
X0008186Y0258916D01*
X0008115Y0259058D01*
X0008047Y0259201D01*
X0007983Y0259346D01*
X0007923Y0259492D01*
X0007867Y0259640D01*
X0007814Y0259789D01*
X0007765Y0259940D01*
X0007720Y0260092D01*
X0007679Y0260245D01*
X0007641Y0260398D01*
X0007608Y0260553D01*
X0007578Y0260709D01*
X0007552Y0260865D01*
X0007531Y0261022D01*
X0007513Y0261179D01*
X0007499Y0261337D01*
X0007489Y0261495D01*
X0007483Y0261653D01*
X0007481Y0261811D01*
X0098032Y0261811D02*
X0098034Y0261969D01*
X0098040Y0262127D01*
X0098050Y0262285D01*
X0098064Y0262443D01*
X0098082Y0262600D01*
X0098103Y0262757D01*
X0098129Y0262913D01*
X0098159Y0263069D01*
X0098192Y0263224D01*
X0098230Y0263377D01*
X0098271Y0263530D01*
X0098316Y0263682D01*
X0098365Y0263833D01*
X0098418Y0263982D01*
X0098474Y0264130D01*
X0098534Y0264276D01*
X0098598Y0264421D01*
X0098666Y0264564D01*
X0098737Y0264706D01*
X0098811Y0264846D01*
X0098889Y0264983D01*
X0098971Y0265119D01*
X0099055Y0265253D01*
X0099144Y0265384D01*
X0099235Y0265513D01*
X0099330Y0265640D01*
X0099427Y0265765D01*
X0099528Y0265887D01*
X0099632Y0266006D01*
X0099739Y0266123D01*
X0099849Y0266237D01*
X0099962Y0266348D01*
X0100077Y0266457D01*
X0100195Y0266562D01*
X0100316Y0266664D01*
X0100439Y0266764D01*
X0100565Y0266860D01*
X0100693Y0266953D01*
X0100823Y0267043D01*
X0100956Y0267129D01*
X0101091Y0267213D01*
X0101227Y0267292D01*
X0101366Y0267369D01*
X0101507Y0267441D01*
X0101649Y0267511D01*
X0101793Y0267576D01*
X0101939Y0267638D01*
X0102086Y0267696D01*
X0102235Y0267751D01*
X0102385Y0267802D01*
X0102536Y0267849D01*
X0102688Y0267892D01*
X0102841Y0267931D01*
X0102996Y0267967D01*
X0103151Y0267998D01*
X0103307Y0268026D01*
X0103463Y0268050D01*
X0103620Y0268070D01*
X0103778Y0268086D01*
X0103935Y0268098D01*
X0104094Y0268106D01*
X0104252Y0268110D01*
X0104410Y0268110D01*
X0104568Y0268106D01*
X0104727Y0268098D01*
X0104884Y0268086D01*
X0105042Y0268070D01*
X0105199Y0268050D01*
X0105355Y0268026D01*
X0105511Y0267998D01*
X0105666Y0267967D01*
X0105821Y0267931D01*
X0105974Y0267892D01*
X0106126Y0267849D01*
X0106277Y0267802D01*
X0106427Y0267751D01*
X0106576Y0267696D01*
X0106723Y0267638D01*
X0106869Y0267576D01*
X0107013Y0267511D01*
X0107155Y0267441D01*
X0107296Y0267369D01*
X0107435Y0267292D01*
X0107571Y0267213D01*
X0107706Y0267129D01*
X0107839Y0267043D01*
X0107969Y0266953D01*
X0108097Y0266860D01*
X0108223Y0266764D01*
X0108346Y0266664D01*
X0108467Y0266562D01*
X0108585Y0266457D01*
X0108700Y0266348D01*
X0108813Y0266237D01*
X0108923Y0266123D01*
X0109030Y0266006D01*
X0109134Y0265887D01*
X0109235Y0265765D01*
X0109332Y0265640D01*
X0109427Y0265513D01*
X0109518Y0265384D01*
X0109607Y0265253D01*
X0109691Y0265119D01*
X0109773Y0264983D01*
X0109851Y0264846D01*
X0109925Y0264706D01*
X0109996Y0264564D01*
X0110064Y0264421D01*
X0110128Y0264276D01*
X0110188Y0264130D01*
X0110244Y0263982D01*
X0110297Y0263833D01*
X0110346Y0263682D01*
X0110391Y0263530D01*
X0110432Y0263377D01*
X0110470Y0263224D01*
X0110503Y0263069D01*
X0110533Y0262913D01*
X0110559Y0262757D01*
X0110580Y0262600D01*
X0110598Y0262443D01*
X0110612Y0262285D01*
X0110622Y0262127D01*
X0110628Y0261969D01*
X0110630Y0261811D01*
X0110628Y0261653D01*
X0110622Y0261495D01*
X0110612Y0261337D01*
X0110598Y0261179D01*
X0110580Y0261022D01*
X0110559Y0260865D01*
X0110533Y0260709D01*
X0110503Y0260553D01*
X0110470Y0260398D01*
X0110432Y0260245D01*
X0110391Y0260092D01*
X0110346Y0259940D01*
X0110297Y0259789D01*
X0110244Y0259640D01*
X0110188Y0259492D01*
X0110128Y0259346D01*
X0110064Y0259201D01*
X0109996Y0259058D01*
X0109925Y0258916D01*
X0109851Y0258776D01*
X0109773Y0258639D01*
X0109691Y0258503D01*
X0109607Y0258369D01*
X0109518Y0258238D01*
X0109427Y0258109D01*
X0109332Y0257982D01*
X0109235Y0257857D01*
X0109134Y0257735D01*
X0109030Y0257616D01*
X0108923Y0257499D01*
X0108813Y0257385D01*
X0108700Y0257274D01*
X0108585Y0257165D01*
X0108467Y0257060D01*
X0108346Y0256958D01*
X0108223Y0256858D01*
X0108097Y0256762D01*
X0107969Y0256669D01*
X0107839Y0256579D01*
X0107706Y0256493D01*
X0107571Y0256409D01*
X0107435Y0256330D01*
X0107296Y0256253D01*
X0107155Y0256181D01*
X0107013Y0256111D01*
X0106869Y0256046D01*
X0106723Y0255984D01*
X0106576Y0255926D01*
X0106427Y0255871D01*
X0106277Y0255820D01*
X0106126Y0255773D01*
X0105974Y0255730D01*
X0105821Y0255691D01*
X0105666Y0255655D01*
X0105511Y0255624D01*
X0105355Y0255596D01*
X0105199Y0255572D01*
X0105042Y0255552D01*
X0104884Y0255536D01*
X0104727Y0255524D01*
X0104568Y0255516D01*
X0104410Y0255512D01*
X0104252Y0255512D01*
X0104094Y0255516D01*
X0103935Y0255524D01*
X0103778Y0255536D01*
X0103620Y0255552D01*
X0103463Y0255572D01*
X0103307Y0255596D01*
X0103151Y0255624D01*
X0102996Y0255655D01*
X0102841Y0255691D01*
X0102688Y0255730D01*
X0102536Y0255773D01*
X0102385Y0255820D01*
X0102235Y0255871D01*
X0102086Y0255926D01*
X0101939Y0255984D01*
X0101793Y0256046D01*
X0101649Y0256111D01*
X0101507Y0256181D01*
X0101366Y0256253D01*
X0101227Y0256330D01*
X0101091Y0256409D01*
X0100956Y0256493D01*
X0100823Y0256579D01*
X0100693Y0256669D01*
X0100565Y0256762D01*
X0100439Y0256858D01*
X0100316Y0256958D01*
X0100195Y0257060D01*
X0100077Y0257165D01*
X0099962Y0257274D01*
X0099849Y0257385D01*
X0099739Y0257499D01*
X0099632Y0257616D01*
X0099528Y0257735D01*
X0099427Y0257857D01*
X0099330Y0257982D01*
X0099235Y0258109D01*
X0099144Y0258238D01*
X0099055Y0258369D01*
X0098971Y0258503D01*
X0098889Y0258639D01*
X0098811Y0258776D01*
X0098737Y0258916D01*
X0098666Y0259058D01*
X0098598Y0259201D01*
X0098534Y0259346D01*
X0098474Y0259492D01*
X0098418Y0259640D01*
X0098365Y0259789D01*
X0098316Y0259940D01*
X0098271Y0260092D01*
X0098230Y0260245D01*
X0098192Y0260398D01*
X0098159Y0260553D01*
X0098129Y0260709D01*
X0098103Y0260865D01*
X0098082Y0261022D01*
X0098064Y0261179D01*
X0098050Y0261337D01*
X0098040Y0261495D01*
X0098034Y0261653D01*
X0098032Y0261811D01*
X0057255Y0202756D02*
X0057257Y0202840D01*
X0057263Y0202925D01*
X0057273Y0203008D01*
X0057287Y0203092D01*
X0057304Y0203174D01*
X0057326Y0203256D01*
X0057351Y0203336D01*
X0057380Y0203415D01*
X0057413Y0203493D01*
X0057449Y0203569D01*
X0057489Y0203644D01*
X0057533Y0203716D01*
X0057579Y0203787D01*
X0057629Y0203855D01*
X0057682Y0203920D01*
X0057738Y0203983D01*
X0057797Y0204044D01*
X0057859Y0204101D01*
X0057923Y0204156D01*
X0057990Y0204207D01*
X0058059Y0204256D01*
X0058131Y0204301D01*
X0058204Y0204342D01*
X0058279Y0204380D01*
X0058356Y0204415D01*
X0058435Y0204446D01*
X0058515Y0204473D01*
X0058596Y0204496D01*
X0058678Y0204516D01*
X0058761Y0204532D01*
X0058844Y0204544D01*
X0058929Y0204552D01*
X0059013Y0204556D01*
X0059097Y0204556D01*
X0059181Y0204552D01*
X0059266Y0204544D01*
X0059349Y0204532D01*
X0059432Y0204516D01*
X0059514Y0204496D01*
X0059595Y0204473D01*
X0059675Y0204446D01*
X0059754Y0204415D01*
X0059831Y0204380D01*
X0059906Y0204342D01*
X0059979Y0204301D01*
X0060051Y0204256D01*
X0060120Y0204207D01*
X0060187Y0204156D01*
X0060251Y0204101D01*
X0060313Y0204044D01*
X0060372Y0203983D01*
X0060428Y0203920D01*
X0060481Y0203855D01*
X0060531Y0203787D01*
X0060577Y0203716D01*
X0060621Y0203644D01*
X0060661Y0203569D01*
X0060697Y0203493D01*
X0060730Y0203415D01*
X0060759Y0203336D01*
X0060784Y0203256D01*
X0060806Y0203174D01*
X0060823Y0203092D01*
X0060837Y0203008D01*
X0060847Y0202925D01*
X0060853Y0202840D01*
X0060855Y0202756D01*
X0060853Y0202672D01*
X0060847Y0202587D01*
X0060837Y0202504D01*
X0060823Y0202420D01*
X0060806Y0202338D01*
X0060784Y0202256D01*
X0060759Y0202176D01*
X0060730Y0202097D01*
X0060697Y0202019D01*
X0060661Y0201943D01*
X0060621Y0201868D01*
X0060577Y0201796D01*
X0060531Y0201725D01*
X0060481Y0201657D01*
X0060428Y0201592D01*
X0060372Y0201529D01*
X0060313Y0201468D01*
X0060251Y0201411D01*
X0060187Y0201356D01*
X0060120Y0201305D01*
X0060051Y0201256D01*
X0059979Y0201211D01*
X0059906Y0201170D01*
X0059831Y0201132D01*
X0059754Y0201097D01*
X0059675Y0201066D01*
X0059595Y0201039D01*
X0059514Y0201016D01*
X0059432Y0200996D01*
X0059349Y0200980D01*
X0059266Y0200968D01*
X0059181Y0200960D01*
X0059097Y0200956D01*
X0059013Y0200956D01*
X0058929Y0200960D01*
X0058844Y0200968D01*
X0058761Y0200980D01*
X0058678Y0200996D01*
X0058596Y0201016D01*
X0058515Y0201039D01*
X0058435Y0201066D01*
X0058356Y0201097D01*
X0058279Y0201132D01*
X0058204Y0201170D01*
X0058131Y0201211D01*
X0058059Y0201256D01*
X0057990Y0201305D01*
X0057923Y0201356D01*
X0057859Y0201411D01*
X0057797Y0201468D01*
X0057738Y0201529D01*
X0057682Y0201592D01*
X0057629Y0201657D01*
X0057579Y0201725D01*
X0057533Y0201796D01*
X0057489Y0201868D01*
X0057449Y0201943D01*
X0057413Y0202019D01*
X0057380Y0202097D01*
X0057351Y0202176D01*
X0057326Y0202256D01*
X0057304Y0202338D01*
X0057287Y0202420D01*
X0057273Y0202504D01*
X0057263Y0202587D01*
X0057257Y0202672D01*
X0057255Y0202756D01*
X0057255Y0214567D02*
X0057257Y0214651D01*
X0057263Y0214736D01*
X0057273Y0214819D01*
X0057287Y0214903D01*
X0057304Y0214985D01*
X0057326Y0215067D01*
X0057351Y0215147D01*
X0057380Y0215226D01*
X0057413Y0215304D01*
X0057449Y0215380D01*
X0057489Y0215455D01*
X0057533Y0215527D01*
X0057579Y0215598D01*
X0057629Y0215666D01*
X0057682Y0215731D01*
X0057738Y0215794D01*
X0057797Y0215855D01*
X0057859Y0215912D01*
X0057923Y0215967D01*
X0057990Y0216018D01*
X0058059Y0216067D01*
X0058131Y0216112D01*
X0058204Y0216153D01*
X0058279Y0216191D01*
X0058356Y0216226D01*
X0058435Y0216257D01*
X0058515Y0216284D01*
X0058596Y0216307D01*
X0058678Y0216327D01*
X0058761Y0216343D01*
X0058844Y0216355D01*
X0058929Y0216363D01*
X0059013Y0216367D01*
X0059097Y0216367D01*
X0059181Y0216363D01*
X0059266Y0216355D01*
X0059349Y0216343D01*
X0059432Y0216327D01*
X0059514Y0216307D01*
X0059595Y0216284D01*
X0059675Y0216257D01*
X0059754Y0216226D01*
X0059831Y0216191D01*
X0059906Y0216153D01*
X0059979Y0216112D01*
X0060051Y0216067D01*
X0060120Y0216018D01*
X0060187Y0215967D01*
X0060251Y0215912D01*
X0060313Y0215855D01*
X0060372Y0215794D01*
X0060428Y0215731D01*
X0060481Y0215666D01*
X0060531Y0215598D01*
X0060577Y0215527D01*
X0060621Y0215455D01*
X0060661Y0215380D01*
X0060697Y0215304D01*
X0060730Y0215226D01*
X0060759Y0215147D01*
X0060784Y0215067D01*
X0060806Y0214985D01*
X0060823Y0214903D01*
X0060837Y0214819D01*
X0060847Y0214736D01*
X0060853Y0214651D01*
X0060855Y0214567D01*
X0060853Y0214483D01*
X0060847Y0214398D01*
X0060837Y0214315D01*
X0060823Y0214231D01*
X0060806Y0214149D01*
X0060784Y0214067D01*
X0060759Y0213987D01*
X0060730Y0213908D01*
X0060697Y0213830D01*
X0060661Y0213754D01*
X0060621Y0213679D01*
X0060577Y0213607D01*
X0060531Y0213536D01*
X0060481Y0213468D01*
X0060428Y0213403D01*
X0060372Y0213340D01*
X0060313Y0213279D01*
X0060251Y0213222D01*
X0060187Y0213167D01*
X0060120Y0213116D01*
X0060051Y0213067D01*
X0059979Y0213022D01*
X0059906Y0212981D01*
X0059831Y0212943D01*
X0059754Y0212908D01*
X0059675Y0212877D01*
X0059595Y0212850D01*
X0059514Y0212827D01*
X0059432Y0212807D01*
X0059349Y0212791D01*
X0059266Y0212779D01*
X0059181Y0212771D01*
X0059097Y0212767D01*
X0059013Y0212767D01*
X0058929Y0212771D01*
X0058844Y0212779D01*
X0058761Y0212791D01*
X0058678Y0212807D01*
X0058596Y0212827D01*
X0058515Y0212850D01*
X0058435Y0212877D01*
X0058356Y0212908D01*
X0058279Y0212943D01*
X0058204Y0212981D01*
X0058131Y0213022D01*
X0058059Y0213067D01*
X0057990Y0213116D01*
X0057923Y0213167D01*
X0057859Y0213222D01*
X0057797Y0213279D01*
X0057738Y0213340D01*
X0057682Y0213403D01*
X0057629Y0213468D01*
X0057579Y0213536D01*
X0057533Y0213607D01*
X0057489Y0213679D01*
X0057449Y0213754D01*
X0057413Y0213830D01*
X0057380Y0213908D01*
X0057351Y0213987D01*
X0057326Y0214067D01*
X0057304Y0214149D01*
X0057287Y0214231D01*
X0057273Y0214315D01*
X0057263Y0214398D01*
X0057257Y0214483D01*
X0057255Y0214567D01*
M02*
