G75*
%MOIN*%
%OFA0B0*%
%FSLAX25Y25*%
%IPPOS*%
%LPD*%
%AMOC8*
5,1,8,0,0,1.08239X$1,22.5*
%
%ADD10C,0.13398*%
%ADD11C,0.01421*%
%ADD12R,0.05131X0.04737*%
%ADD13R,0.07800X0.10800*%
%ADD14C,0.32296*%
%ADD15C,0.00500*%
%ADD16R,0.07099X0.07887*%
%ADD17R,0.04737X0.05131*%
%ADD18R,0.05524X0.02965*%
%ADD19R,0.05131X0.07493*%
%ADD20R,0.05800X0.03300*%
%ADD21R,0.04737X0.06706*%
%ADD22R,0.06706X0.04737*%
%ADD23R,0.04737X0.04737*%
%ADD24R,0.02965X0.05524*%
%ADD25C,0.03950*%
%ADD26R,0.07400X0.07400*%
%ADD27C,0.07400*%
%ADD28R,0.06706X0.05918*%
%ADD29R,0.10643X0.05524*%
%ADD30C,0.06800*%
%ADD31R,0.13398X0.17335*%
%ADD32R,0.09461X0.03162*%
D10*
X0034154Y0289177D03*
X0124705Y0289177D03*
D11*
X0039265Y0277056D02*
X0039265Y0273740D01*
X0035949Y0273740D01*
X0035949Y0277056D01*
X0039265Y0277056D01*
X0039265Y0275160D02*
X0035949Y0275160D01*
X0035949Y0276580D02*
X0039265Y0276580D01*
X0039265Y0267213D02*
X0039265Y0263897D01*
X0035949Y0263897D01*
X0035949Y0267213D01*
X0039265Y0267213D01*
X0039265Y0265317D02*
X0035949Y0265317D01*
X0035949Y0266737D02*
X0039265Y0266737D01*
X0032359Y0267213D02*
X0032359Y0263897D01*
X0029043Y0263897D01*
X0029043Y0267213D01*
X0032359Y0267213D01*
X0032359Y0265317D02*
X0029043Y0265317D01*
X0029043Y0266737D02*
X0032359Y0266737D01*
X0032359Y0273740D02*
X0032359Y0277056D01*
X0032359Y0273740D02*
X0029043Y0273740D01*
X0029043Y0277056D01*
X0032359Y0277056D01*
X0032359Y0275160D02*
X0029043Y0275160D01*
X0029043Y0276580D02*
X0032359Y0276580D01*
D12*
X0049902Y0268902D03*
X0049902Y0262209D03*
X0057776Y0262209D03*
X0057776Y0268902D03*
X0057776Y0221165D03*
X0057776Y0214472D03*
X0042028Y0214472D03*
X0042028Y0221165D03*
X0053445Y0129728D03*
X0060138Y0129728D03*
X0084941Y0129728D03*
X0091634Y0129728D03*
X0111516Y0152366D03*
X0118209Y0152366D03*
X0111319Y0198626D03*
X0111319Y0206500D03*
X0104626Y0206500D03*
X0104626Y0198626D03*
X0121359Y0259650D03*
X0128052Y0259650D03*
X0113288Y0267524D03*
X0106595Y0267524D03*
D13*
X0036122Y0069492D03*
X0036122Y0081697D03*
X0122737Y0081697D03*
X0122737Y0069492D03*
D14*
X0079430Y0075594D03*
D15*
X0042028Y0075594D01*
X0042028Y0063783D01*
X0043996Y0057878D01*
X0047933Y0051972D01*
X0051477Y0047642D01*
X0055807Y0044098D01*
X0061713Y0040161D01*
X0067619Y0038193D01*
X0075493Y0036224D01*
X0079430Y0036224D01*
X0079430Y0075594D01*
X0116831Y0075594D01*
X0116831Y0087406D01*
X0114863Y0093311D01*
X0110926Y0099217D01*
X0107382Y0103547D01*
X0103052Y0107091D01*
X0097146Y0111028D01*
X0091241Y0112996D01*
X0083367Y0114965D01*
X0079430Y0114965D01*
X0079430Y0075594D01*
X0079430Y0036224D01*
X0083367Y0036224D01*
X0091241Y0038193D01*
X0097146Y0040161D01*
X0103052Y0044098D01*
X0107382Y0047642D01*
X0110926Y0051972D01*
X0114863Y0057878D01*
X0116831Y0063783D01*
X0116831Y0075594D01*
X0079430Y0075594D01*
X0079430Y0114965D01*
X0075493Y0114965D01*
X0067619Y0112996D01*
X0061713Y0111028D01*
X0055807Y0107091D01*
X0051477Y0103547D01*
X0047933Y0099217D01*
X0043996Y0093311D01*
X0042028Y0087406D01*
X0042028Y0075594D01*
X0079430Y0075594D01*
X0079430Y0075722D02*
X0116831Y0075722D01*
X0116831Y0076220D02*
X0079430Y0076220D01*
X0042028Y0076220D01*
X0042028Y0075722D02*
X0079430Y0075722D01*
X0079430Y0075223D02*
X0042028Y0075223D01*
X0042028Y0074725D02*
X0079430Y0074725D01*
X0116831Y0074725D01*
X0116831Y0075223D02*
X0079430Y0075223D01*
X0079430Y0074226D02*
X0042028Y0074226D01*
X0042028Y0073728D02*
X0079430Y0073728D01*
X0116831Y0073728D01*
X0116831Y0074226D02*
X0079430Y0074226D01*
X0079430Y0073229D02*
X0042028Y0073229D01*
X0042028Y0072731D02*
X0079430Y0072731D01*
X0116831Y0072731D01*
X0116831Y0073229D02*
X0079430Y0073229D01*
X0079430Y0072232D02*
X0042028Y0072232D01*
X0042028Y0071734D02*
X0079430Y0071734D01*
X0116831Y0071734D01*
X0116831Y0072232D02*
X0079430Y0072232D01*
X0079430Y0071235D02*
X0042028Y0071235D01*
X0042028Y0070737D02*
X0079430Y0070737D01*
X0116831Y0070737D01*
X0116831Y0071235D02*
X0079430Y0071235D01*
X0079430Y0070238D02*
X0042028Y0070238D01*
X0042028Y0069740D02*
X0079430Y0069740D01*
X0116831Y0069740D01*
X0116831Y0070238D02*
X0079430Y0070238D01*
X0079430Y0069241D02*
X0042028Y0069241D01*
X0042028Y0068743D02*
X0079430Y0068743D01*
X0116831Y0068743D01*
X0116831Y0069241D02*
X0079430Y0069241D01*
X0079430Y0068244D02*
X0042028Y0068244D01*
X0042028Y0067746D02*
X0079430Y0067746D01*
X0116831Y0067746D01*
X0116831Y0068244D02*
X0079430Y0068244D01*
X0079430Y0067247D02*
X0042028Y0067247D01*
X0042028Y0066749D02*
X0079430Y0066749D01*
X0116831Y0066749D01*
X0116831Y0067247D02*
X0079430Y0067247D01*
X0079430Y0066250D02*
X0042028Y0066250D01*
X0042028Y0065752D02*
X0079430Y0065752D01*
X0116831Y0065752D01*
X0116831Y0066250D02*
X0079430Y0066250D01*
X0079430Y0065253D02*
X0042028Y0065253D01*
X0042028Y0064754D02*
X0079430Y0064754D01*
X0116831Y0064754D01*
X0116831Y0064256D02*
X0079430Y0064256D01*
X0042028Y0064256D01*
X0042037Y0063757D02*
X0079430Y0063757D01*
X0116822Y0063757D01*
X0116656Y0063259D02*
X0079430Y0063259D01*
X0042203Y0063259D01*
X0042369Y0062760D02*
X0079430Y0062760D01*
X0116490Y0062760D01*
X0116324Y0062262D02*
X0079430Y0062262D01*
X0042535Y0062262D01*
X0042701Y0061763D02*
X0079430Y0061763D01*
X0116158Y0061763D01*
X0115992Y0061265D02*
X0079430Y0061265D01*
X0042867Y0061265D01*
X0043034Y0060766D02*
X0079430Y0060766D01*
X0115825Y0060766D01*
X0115659Y0060268D02*
X0079430Y0060268D01*
X0043200Y0060268D01*
X0043366Y0059769D02*
X0079430Y0059769D01*
X0115493Y0059769D01*
X0115327Y0059271D02*
X0079430Y0059271D01*
X0043532Y0059271D01*
X0043698Y0058772D02*
X0079430Y0058772D01*
X0115161Y0058772D01*
X0114995Y0058274D02*
X0079430Y0058274D01*
X0043865Y0058274D01*
X0044065Y0057775D02*
X0079430Y0057775D01*
X0114794Y0057775D01*
X0114462Y0057277D02*
X0079430Y0057277D01*
X0044397Y0057277D01*
X0044730Y0056778D02*
X0079430Y0056778D01*
X0114130Y0056778D01*
X0113797Y0056280D02*
X0079430Y0056280D01*
X0045062Y0056280D01*
X0045394Y0055781D02*
X0079430Y0055781D01*
X0113465Y0055781D01*
X0113132Y0055283D02*
X0079430Y0055283D01*
X0045727Y0055283D01*
X0046059Y0054784D02*
X0079430Y0054784D01*
X0112800Y0054784D01*
X0112468Y0054286D02*
X0079430Y0054286D01*
X0046391Y0054286D01*
X0046724Y0053787D02*
X0079430Y0053787D01*
X0112135Y0053787D01*
X0111803Y0053289D02*
X0079430Y0053289D01*
X0047056Y0053289D01*
X0047388Y0052790D02*
X0079430Y0052790D01*
X0111471Y0052790D01*
X0111138Y0052292D02*
X0079430Y0052292D01*
X0047721Y0052292D01*
X0048080Y0051793D02*
X0079430Y0051793D01*
X0110779Y0051793D01*
X0110371Y0051295D02*
X0079430Y0051295D01*
X0048488Y0051295D01*
X0048896Y0050796D02*
X0079430Y0050796D01*
X0109963Y0050796D01*
X0109555Y0050298D02*
X0079430Y0050298D01*
X0049304Y0050298D01*
X0049712Y0049799D02*
X0079430Y0049799D01*
X0109147Y0049799D01*
X0108740Y0049301D02*
X0079430Y0049301D01*
X0050119Y0049301D01*
X0050527Y0048802D02*
X0079430Y0048802D01*
X0108332Y0048802D01*
X0107924Y0048304D02*
X0079430Y0048304D01*
X0050935Y0048304D01*
X0051343Y0047805D02*
X0079430Y0047805D01*
X0107516Y0047805D01*
X0106973Y0047307D02*
X0079430Y0047307D01*
X0051886Y0047307D01*
X0052496Y0046808D02*
X0079430Y0046808D01*
X0106363Y0046808D01*
X0105754Y0046310D02*
X0079430Y0046310D01*
X0053105Y0046310D01*
X0053714Y0045811D02*
X0079430Y0045811D01*
X0105145Y0045811D01*
X0104536Y0045313D02*
X0079430Y0045313D01*
X0054324Y0045313D01*
X0054933Y0044814D02*
X0079430Y0044814D01*
X0103926Y0044814D01*
X0103317Y0044316D02*
X0079430Y0044316D01*
X0055542Y0044316D01*
X0056230Y0043817D02*
X0079430Y0043817D01*
X0102629Y0043817D01*
X0101882Y0043319D02*
X0079430Y0043319D01*
X0056977Y0043319D01*
X0057725Y0042820D02*
X0079430Y0042820D01*
X0101134Y0042820D01*
X0100386Y0042321D02*
X0079430Y0042321D01*
X0058473Y0042321D01*
X0059221Y0041823D02*
X0079430Y0041823D01*
X0099638Y0041823D01*
X0098891Y0041324D02*
X0079430Y0041324D01*
X0059968Y0041324D01*
X0060716Y0040826D02*
X0079430Y0040826D01*
X0098143Y0040826D01*
X0097395Y0040327D02*
X0079430Y0040327D01*
X0061464Y0040327D01*
X0062710Y0039829D02*
X0079430Y0039829D01*
X0096149Y0039829D01*
X0094653Y0039330D02*
X0079430Y0039330D01*
X0064206Y0039330D01*
X0065702Y0038832D02*
X0079430Y0038832D01*
X0093158Y0038832D01*
X0091662Y0038333D02*
X0079430Y0038333D01*
X0067197Y0038333D01*
X0069051Y0037835D02*
X0079430Y0037835D01*
X0089808Y0037835D01*
X0087814Y0037336D02*
X0079430Y0037336D01*
X0071045Y0037336D01*
X0073039Y0036838D02*
X0079430Y0036838D01*
X0085820Y0036838D01*
X0083826Y0036339D02*
X0079430Y0036339D01*
X0075033Y0036339D01*
X0079430Y0065253D02*
X0116831Y0065253D01*
X0116831Y0076719D02*
X0079430Y0076719D01*
X0042028Y0076719D01*
X0042028Y0077217D02*
X0079430Y0077217D01*
X0116831Y0077217D01*
X0116831Y0077716D02*
X0079430Y0077716D01*
X0042028Y0077716D01*
X0042028Y0078214D02*
X0079430Y0078214D01*
X0116831Y0078214D01*
X0116831Y0078713D02*
X0079430Y0078713D01*
X0042028Y0078713D01*
X0042028Y0079211D02*
X0079430Y0079211D01*
X0116831Y0079211D01*
X0116831Y0079710D02*
X0079430Y0079710D01*
X0042028Y0079710D01*
X0042028Y0080208D02*
X0079430Y0080208D01*
X0116831Y0080208D01*
X0116831Y0080707D02*
X0079430Y0080707D01*
X0042028Y0080707D01*
X0042028Y0081205D02*
X0079430Y0081205D01*
X0116831Y0081205D01*
X0116831Y0081704D02*
X0079430Y0081704D01*
X0042028Y0081704D01*
X0042028Y0082202D02*
X0079430Y0082202D01*
X0116831Y0082202D01*
X0116831Y0082701D02*
X0079430Y0082701D01*
X0042028Y0082701D01*
X0042028Y0083199D02*
X0079430Y0083199D01*
X0116831Y0083199D01*
X0116831Y0083698D02*
X0079430Y0083698D01*
X0042028Y0083698D01*
X0042028Y0084196D02*
X0079430Y0084196D01*
X0116831Y0084196D01*
X0116831Y0084695D02*
X0079430Y0084695D01*
X0042028Y0084695D01*
X0042028Y0085193D02*
X0079430Y0085193D01*
X0116831Y0085193D01*
X0116831Y0085692D02*
X0079430Y0085692D01*
X0042028Y0085692D01*
X0042028Y0086190D02*
X0079430Y0086190D01*
X0116831Y0086190D01*
X0116831Y0086689D02*
X0079430Y0086689D01*
X0042028Y0086689D01*
X0042028Y0087187D02*
X0079430Y0087187D01*
X0116831Y0087187D01*
X0116738Y0087686D02*
X0079430Y0087686D01*
X0042121Y0087686D01*
X0042288Y0088185D02*
X0079430Y0088185D01*
X0116571Y0088185D01*
X0116405Y0088683D02*
X0079430Y0088683D01*
X0042454Y0088683D01*
X0042620Y0089182D02*
X0079430Y0089182D01*
X0116239Y0089182D01*
X0116073Y0089680D02*
X0079430Y0089680D01*
X0042786Y0089680D01*
X0042952Y0090179D02*
X0079430Y0090179D01*
X0115907Y0090179D01*
X0115741Y0090677D02*
X0079430Y0090677D01*
X0043118Y0090677D01*
X0043285Y0091176D02*
X0079430Y0091176D01*
X0115574Y0091176D01*
X0115408Y0091674D02*
X0079430Y0091674D01*
X0043451Y0091674D01*
X0043617Y0092173D02*
X0079430Y0092173D01*
X0115242Y0092173D01*
X0115076Y0092671D02*
X0079430Y0092671D01*
X0043783Y0092671D01*
X0043949Y0093170D02*
X0079430Y0093170D01*
X0114910Y0093170D01*
X0114625Y0093668D02*
X0079430Y0093668D01*
X0044235Y0093668D01*
X0044567Y0094167D02*
X0079430Y0094167D01*
X0114292Y0094167D01*
X0113960Y0094665D02*
X0079430Y0094665D01*
X0044899Y0094665D01*
X0045232Y0095164D02*
X0079430Y0095164D01*
X0113628Y0095164D01*
X0113295Y0095662D02*
X0079430Y0095662D01*
X0045564Y0095662D01*
X0045896Y0096161D02*
X0079430Y0096161D01*
X0112963Y0096161D01*
X0112630Y0096659D02*
X0079430Y0096659D01*
X0046229Y0096659D01*
X0046561Y0097158D02*
X0079430Y0097158D01*
X0112298Y0097158D01*
X0111966Y0097656D02*
X0079430Y0097656D01*
X0046893Y0097656D01*
X0047226Y0098155D02*
X0079430Y0098155D01*
X0111633Y0098155D01*
X0111301Y0098653D02*
X0079430Y0098653D01*
X0047558Y0098653D01*
X0047890Y0099152D02*
X0079430Y0099152D01*
X0110969Y0099152D01*
X0110571Y0099650D02*
X0079430Y0099650D01*
X0048288Y0099650D01*
X0048696Y0100149D02*
X0079430Y0100149D01*
X0110163Y0100149D01*
X0109755Y0100647D02*
X0079430Y0100647D01*
X0049104Y0100647D01*
X0049512Y0101146D02*
X0079430Y0101146D01*
X0109347Y0101146D01*
X0108939Y0101644D02*
X0079430Y0101644D01*
X0049920Y0101644D01*
X0050328Y0102143D02*
X0079430Y0102143D01*
X0108531Y0102143D01*
X0108123Y0102641D02*
X0079430Y0102641D01*
X0050736Y0102641D01*
X0051143Y0103140D02*
X0079430Y0103140D01*
X0107716Y0103140D01*
X0107271Y0103638D02*
X0079430Y0103638D01*
X0051588Y0103638D01*
X0052197Y0104137D02*
X0079430Y0104137D01*
X0106662Y0104137D01*
X0106052Y0104635D02*
X0079430Y0104635D01*
X0052807Y0104635D01*
X0053416Y0105134D02*
X0079430Y0105134D01*
X0105443Y0105134D01*
X0104834Y0105632D02*
X0079430Y0105632D01*
X0054025Y0105632D01*
X0054635Y0106131D02*
X0079430Y0106131D01*
X0104224Y0106131D01*
X0103615Y0106629D02*
X0079430Y0106629D01*
X0055244Y0106629D01*
X0055864Y0107128D02*
X0079430Y0107128D01*
X0102995Y0107128D01*
X0102248Y0107626D02*
X0079430Y0107626D01*
X0056611Y0107626D01*
X0057359Y0108125D02*
X0079430Y0108125D01*
X0101500Y0108125D01*
X0100752Y0108623D02*
X0079430Y0108623D01*
X0058107Y0108623D01*
X0058855Y0109122D02*
X0079430Y0109122D01*
X0100004Y0109122D01*
X0099257Y0109621D02*
X0079430Y0109621D01*
X0059602Y0109621D01*
X0060350Y0110119D02*
X0079430Y0110119D01*
X0098509Y0110119D01*
X0097761Y0110618D02*
X0079430Y0110618D01*
X0061098Y0110618D01*
X0061978Y0111116D02*
X0079430Y0111116D01*
X0096881Y0111116D01*
X0095385Y0111615D02*
X0079430Y0111615D01*
X0063474Y0111615D01*
X0064970Y0112113D02*
X0079430Y0112113D01*
X0093890Y0112113D01*
X0092394Y0112612D02*
X0079430Y0112612D01*
X0066465Y0112612D01*
X0068075Y0113110D02*
X0079430Y0113110D01*
X0090784Y0113110D01*
X0088790Y0113609D02*
X0079430Y0113609D01*
X0070069Y0113609D01*
X0072063Y0114107D02*
X0079430Y0114107D01*
X0086796Y0114107D01*
X0084802Y0114606D02*
X0079430Y0114606D01*
X0074057Y0114606D01*
D16*
X0105414Y0190752D03*
X0116437Y0190752D03*
D17*
X0121359Y0214374D03*
X0121359Y0222248D03*
X0128052Y0222248D03*
X0128052Y0214374D03*
X0112894Y0228744D03*
X0112894Y0235437D03*
X0121359Y0251776D03*
X0128052Y0251776D03*
X0128052Y0267524D03*
X0121359Y0267524D03*
X0103052Y0235437D03*
X0103052Y0228744D03*
X0065650Y0262209D03*
X0065650Y0268902D03*
X0049902Y0221165D03*
X0049902Y0214472D03*
X0102067Y0158665D03*
X0102067Y0151972D03*
D18*
X0102855Y0214571D03*
X0102855Y0218311D03*
X0102855Y0222051D03*
X0113091Y0222051D03*
X0113091Y0214571D03*
D19*
X0077461Y0129728D03*
X0067619Y0129728D03*
D20*
X0103052Y0247591D03*
X0103052Y0250791D03*
X0103052Y0253991D03*
D21*
X0081398Y0203547D03*
X0075493Y0203547D03*
X0069587Y0203547D03*
X0063682Y0203547D03*
X0057776Y0203547D03*
X0051870Y0203547D03*
X0045965Y0203547D03*
X0045965Y0138587D03*
X0040059Y0138587D03*
X0034154Y0138587D03*
X0028248Y0138587D03*
X0051870Y0138587D03*
X0057776Y0138587D03*
X0063682Y0138587D03*
X0069587Y0138587D03*
X0075493Y0138587D03*
X0081398Y0138587D03*
D22*
X0090256Y0147445D03*
X0090256Y0153350D03*
X0090256Y0159256D03*
X0090256Y0165161D03*
X0090256Y0171067D03*
X0090256Y0176972D03*
X0090256Y0182878D03*
X0090256Y0188783D03*
X0090256Y0194689D03*
D23*
X0081398Y0194689D03*
X0081398Y0147445D03*
D24*
X0120965Y0232878D03*
X0124705Y0232878D03*
X0128445Y0232878D03*
X0128445Y0243114D03*
X0120965Y0243114D03*
D25*
X0084272Y0262209D03*
X0084272Y0268902D03*
X0074587Y0268902D03*
X0074587Y0262209D03*
D26*
X0030138Y0253902D03*
D27*
X0030138Y0243902D03*
X0030138Y0233902D03*
X0040138Y0233902D03*
X0040138Y0243902D03*
X0040138Y0253902D03*
D28*
X0101280Y0137602D03*
X0101280Y0119886D03*
X0132382Y0119886D03*
X0132382Y0137602D03*
D29*
X0090256Y0226185D03*
X0090256Y0236028D03*
X0090256Y0245870D03*
X0068603Y0245870D03*
X0068603Y0236028D03*
X0068603Y0226185D03*
D30*
X0099115Y0271461D03*
X0112402Y0259650D03*
X0123229Y0203055D03*
D31*
G36*
X0125627Y0029931D02*
X0114928Y0037994D01*
X0125359Y0051837D01*
X0136058Y0043774D01*
X0125627Y0029931D01*
G37*
G36*
X0033500Y0099352D02*
X0022801Y0107415D01*
X0033232Y0121258D01*
X0043931Y0113195D01*
X0033500Y0099352D01*
G37*
D32*
X0110532Y0159630D03*
X0110532Y0164630D03*
X0110532Y0169630D03*
X0110532Y0174630D03*
X0131004Y0174630D03*
X0131004Y0169630D03*
X0131004Y0164630D03*
X0131004Y0159630D03*
M02*
