G75*
%MOIN*%
%OFA0B0*%
%FSLAX25Y25*%
%IPPOS*%
%LPD*%
%AMOC8*
5,1,8,0,0,1.08239X$1,22.5*
%
%ADD10R,0.00100X0.01100*%
%ADD11R,0.00100X0.01200*%
%ADD12R,0.00100X0.01300*%
%ADD13R,0.00100X0.01400*%
%ADD14R,0.00100X0.01500*%
%ADD15R,0.00100X0.01000*%
%ADD16R,0.00100X0.00400*%
%ADD17R,0.00100X0.00200*%
%ADD18R,0.00100X0.00800*%
%ADD19R,0.00100X0.00900*%
%ADD20R,0.00100X0.19900*%
%ADD21R,0.00100X0.02800*%
%ADD22R,0.00100X0.11400*%
%ADD23R,0.00100X0.01700*%
%ADD24R,0.00100X0.01600*%
%ADD25R,0.00100X0.02900*%
%ADD26R,0.00100X0.04200*%
%ADD27R,0.00100X0.04100*%
%ADD28R,0.00100X0.02000*%
%ADD29R,0.00100X0.01800*%
%ADD30R,0.00100X0.02500*%
%ADD31R,0.00100X0.02400*%
%ADD32R,0.00100X0.02200*%
%ADD33R,0.00100X0.02600*%
%ADD34R,0.00100X0.02300*%
%ADD35R,0.00100X0.02700*%
%ADD36R,0.00100X0.00700*%
%ADD37R,0.00100X0.02100*%
%ADD38R,0.00100X0.01900*%
%ADD39R,0.00100X0.04000*%
%ADD40R,0.00100X0.00600*%
%ADD41R,0.00100X0.00100*%
%ADD42R,0.00100X0.19700*%
%ADD43R,0.00100X0.11300*%
%ADD44R,0.00100X0.11000*%
%ADD45R,0.00100X0.19800*%
%ADD46R,0.00100X0.14300*%
%ADD47R,0.00100X0.14200*%
%ADD48C,0.00600*%
%ADD49R,0.00200X0.00800*%
%ADD50R,0.00200X0.01000*%
%ADD51R,0.00200X0.01200*%
%ADD52R,0.00200X0.01400*%
%ADD53R,0.00200X0.01600*%
%ADD54R,0.00200X0.00600*%
%ADD55R,0.00200X0.02000*%
%ADD56R,0.00200X0.01800*%
%ADD57R,0.00200X0.02800*%
%ADD58R,0.00200X0.02400*%
%ADD59R,0.00200X0.02600*%
%ADD60R,0.00200X0.03400*%
%ADD61R,0.00200X0.03000*%
%ADD62R,0.00200X0.03600*%
%ADD63R,0.00200X0.03200*%
%ADD64R,0.00200X0.04000*%
%ADD65R,0.00200X0.00400*%
%ADD66R,0.00200X0.00200*%
%ADD67R,0.00200X0.03800*%
%ADD68R,0.00200X0.02200*%
%ADD69R,0.00200X0.04200*%
%ADD70R,0.00200X0.06400*%
%ADD71R,0.00200X0.06600*%
%ADD72R,0.00200X0.06200*%
%ADD73R,0.00200X0.06000*%
%ADD74R,0.00200X0.05600*%
%ADD75R,0.00200X0.04600*%
%ADD76R,0.00200X0.04400*%
%ADD77R,0.00200X0.05000*%
%ADD78R,0.00200X0.05200*%
%ADD79R,0.00200X0.04800*%
%ADD80C,0.01200*%
%ADD81C,0.01600*%
%ADD82C,0.00800*%
%ADD83C,0.00500*%
%ADD84C,0.01000*%
D10*
X0123051Y0209130D03*
X0123051Y0210730D03*
X0127051Y0207630D03*
X0127151Y0209130D03*
X0129051Y0205430D03*
X0128351Y0201630D03*
X0127051Y0201630D03*
X0126451Y0202730D03*
X0127051Y0203230D03*
X0124851Y0204430D03*
X0127951Y0198930D03*
X0128551Y0199030D03*
X0132951Y0206630D03*
X0131633Y0165943D03*
X0131633Y0164343D03*
X0133233Y0162143D03*
X0133333Y0162143D03*
X0133433Y0162143D03*
X0134433Y0162743D03*
X0131633Y0158543D03*
X0133133Y0155743D03*
X0131633Y0154243D03*
X0131733Y0152743D03*
X0131633Y0151243D03*
X0127933Y0155543D03*
X0126433Y0157343D03*
X0127133Y0158543D03*
X0127033Y0160043D03*
X0128333Y0161543D03*
X0128933Y0162643D03*
X0128333Y0163043D03*
X0127033Y0164443D03*
X0127133Y0165943D03*
X0126433Y0151643D03*
X0127033Y0151243D03*
D11*
X0127033Y0152693D03*
X0128533Y0154193D03*
X0128933Y0155293D03*
X0131133Y0153193D03*
X0132533Y0157093D03*
X0133533Y0156793D03*
X0131633Y0159993D03*
X0133033Y0164393D03*
X0133533Y0165393D03*
X0133033Y0165893D03*
X0134333Y0162693D03*
X0127033Y0165893D03*
X0126533Y0158993D03*
X0133633Y0147793D03*
X0132633Y0144493D03*
X0128551Y0197580D03*
X0128951Y0202680D03*
X0131651Y0206580D03*
X0133051Y0205080D03*
X0133551Y0205480D03*
X0133151Y0208080D03*
X0132551Y0209380D03*
X0127051Y0210680D03*
X0122451Y0209580D03*
X0122451Y0207980D03*
X0124351Y0204580D03*
X0124751Y0204480D03*
D12*
X0124651Y0204530D03*
X0124551Y0204530D03*
X0124451Y0204530D03*
X0126451Y0205430D03*
X0126551Y0202730D03*
X0128951Y0198630D03*
X0133051Y0206530D03*
X0133551Y0209130D03*
X0126551Y0209630D03*
X0131133Y0165443D03*
X0133033Y0162143D03*
X0133133Y0162143D03*
X0134233Y0162643D03*
X0131133Y0158943D03*
X0132033Y0155843D03*
X0131133Y0151543D03*
X0131033Y0147843D03*
X0131933Y0145643D03*
X0133633Y0145043D03*
X0126533Y0151643D03*
X0126533Y0157343D03*
X0126533Y0164743D03*
D13*
X0126633Y0158993D03*
X0127033Y0158493D03*
X0127833Y0155393D03*
X0128833Y0155293D03*
X0131033Y0156393D03*
X0132433Y0156893D03*
X0131233Y0153193D03*
X0131633Y0152693D03*
X0131033Y0145093D03*
X0132933Y0162193D03*
X0134033Y0162593D03*
X0134133Y0162593D03*
X0128851Y0198680D03*
X0131151Y0205480D03*
X0132051Y0208180D03*
X0132451Y0209180D03*
X0131051Y0208680D03*
X0127051Y0209080D03*
X0126651Y0209580D03*
X0126551Y0207980D03*
X0122551Y0207980D03*
X0122551Y0209580D03*
D14*
X0126651Y0207930D03*
X0128951Y0205430D03*
X0128851Y0202730D03*
X0127851Y0198730D03*
X0127451Y0197730D03*
X0126451Y0198230D03*
X0133433Y0165443D03*
X0133933Y0162543D03*
X0132833Y0162143D03*
X0132733Y0162143D03*
X0131233Y0158943D03*
X0133433Y0156843D03*
X0131233Y0151543D03*
X0127433Y0154343D03*
X0126433Y0154843D03*
X0126633Y0157343D03*
X0126633Y0151643D03*
X0128833Y0162643D03*
D15*
X0128233Y0161493D03*
X0127133Y0160093D03*
X0126433Y0158993D03*
X0127033Y0156993D03*
X0128533Y0155693D03*
X0128433Y0154093D03*
X0128333Y0154093D03*
X0127333Y0154093D03*
X0127133Y0152793D03*
X0127133Y0151193D03*
X0131033Y0151593D03*
X0131033Y0153193D03*
X0131733Y0154293D03*
X0131533Y0155693D03*
X0131533Y0157093D03*
X0131733Y0158493D03*
X0131033Y0158893D03*
X0131733Y0160093D03*
X0131833Y0160093D03*
X0131133Y0163093D03*
X0131733Y0164293D03*
X0132833Y0164293D03*
X0132933Y0164293D03*
X0132933Y0165993D03*
X0132733Y0166093D03*
X0131733Y0165993D03*
X0131033Y0165393D03*
X0127233Y0165993D03*
X0126433Y0164793D03*
X0133133Y0157193D03*
X0133633Y0156793D03*
X0133733Y0162193D03*
X0133833Y0162293D03*
X0131633Y0148593D03*
X0133033Y0147093D03*
X0133133Y0145793D03*
X0128451Y0197480D03*
X0127351Y0197480D03*
X0126351Y0198180D03*
X0128051Y0199080D03*
X0128951Y0200280D03*
X0128251Y0201580D03*
X0127151Y0201580D03*
X0127151Y0203280D03*
X0127351Y0203380D03*
X0128051Y0203380D03*
X0128351Y0203280D03*
X0128451Y0204680D03*
X0128451Y0206180D03*
X0126951Y0206180D03*
X0126951Y0204780D03*
X0124951Y0204380D03*
X0123051Y0207580D03*
X0122351Y0207980D03*
X0123151Y0210780D03*
X0126451Y0209580D03*
X0127151Y0210780D03*
X0127251Y0210780D03*
X0126451Y0207980D03*
X0131051Y0205480D03*
X0131651Y0204980D03*
X0132851Y0204880D03*
X0132951Y0204980D03*
X0133651Y0205480D03*
X0132851Y0206680D03*
X0132751Y0206680D03*
X0131851Y0206680D03*
X0131751Y0206680D03*
X0131951Y0207980D03*
X0133051Y0207980D03*
X0133151Y0209580D03*
X0132651Y0209580D03*
X0125451Y0200280D03*
D16*
X0122251Y0207980D03*
X0122251Y0209580D03*
X0133733Y0147793D03*
X0133733Y0145093D03*
D17*
X0133733Y0165393D03*
D18*
X0133633Y0164193D03*
X0133533Y0164193D03*
X0133433Y0164193D03*
X0132533Y0164193D03*
X0132433Y0164193D03*
X0132333Y0164193D03*
X0132233Y0164193D03*
X0132133Y0164193D03*
X0131133Y0164193D03*
X0129933Y0164193D03*
X0129033Y0164293D03*
X0128833Y0164293D03*
X0128733Y0164293D03*
X0128633Y0164293D03*
X0128533Y0164293D03*
X0128433Y0164293D03*
X0128333Y0164293D03*
X0128233Y0164293D03*
X0128133Y0164293D03*
X0128033Y0164293D03*
X0127933Y0164293D03*
X0127833Y0164293D03*
X0127733Y0164293D03*
X0127633Y0164293D03*
X0127533Y0164293D03*
X0127433Y0164293D03*
X0127333Y0164293D03*
X0129033Y0165993D03*
X0131933Y0162793D03*
X0132033Y0162793D03*
X0132233Y0162693D03*
X0132333Y0162693D03*
X0132433Y0162593D03*
X0132533Y0162593D03*
X0132533Y0161693D03*
X0132433Y0161693D03*
X0132233Y0161593D03*
X0132133Y0161593D03*
X0132033Y0161593D03*
X0131933Y0161493D03*
X0131833Y0161493D03*
X0131733Y0161493D03*
X0131633Y0161393D03*
X0131533Y0161393D03*
X0131233Y0161293D03*
X0131233Y0160193D03*
X0131133Y0160193D03*
X0131033Y0160193D03*
X0129033Y0160193D03*
X0128933Y0160193D03*
X0128833Y0160193D03*
X0128733Y0160193D03*
X0128633Y0160193D03*
X0128533Y0160193D03*
X0128433Y0160193D03*
X0128333Y0160193D03*
X0128233Y0160193D03*
X0128133Y0160193D03*
X0128033Y0160193D03*
X0127933Y0160193D03*
X0127833Y0160193D03*
X0127733Y0160193D03*
X0127633Y0160193D03*
X0127533Y0160193D03*
X0127433Y0160193D03*
X0126633Y0160193D03*
X0126533Y0160193D03*
X0126433Y0160193D03*
X0127833Y0161393D03*
X0128833Y0161393D03*
X0128933Y0161393D03*
X0129033Y0161393D03*
X0129033Y0156893D03*
X0128933Y0156893D03*
X0128833Y0156893D03*
X0128733Y0156893D03*
X0128633Y0156893D03*
X0128533Y0156893D03*
X0128433Y0156893D03*
X0128333Y0156893D03*
X0128233Y0156893D03*
X0128133Y0156893D03*
X0128033Y0156893D03*
X0127933Y0156893D03*
X0127833Y0156893D03*
X0127733Y0156893D03*
X0127633Y0156893D03*
X0127533Y0156893D03*
X0127433Y0156893D03*
X0127333Y0156893D03*
X0127233Y0156893D03*
X0127133Y0155693D03*
X0128233Y0155793D03*
X0128333Y0155793D03*
X0128933Y0153993D03*
X0129033Y0153993D03*
X0131033Y0154393D03*
X0131133Y0154393D03*
X0131233Y0154393D03*
X0131933Y0154393D03*
X0132033Y0154393D03*
X0132133Y0154393D03*
X0132233Y0154393D03*
X0132333Y0154393D03*
X0132433Y0154393D03*
X0132533Y0154393D03*
X0132633Y0154393D03*
X0132733Y0154393D03*
X0132833Y0154393D03*
X0132933Y0154393D03*
X0133033Y0154393D03*
X0133133Y0154393D03*
X0133233Y0154393D03*
X0133333Y0154393D03*
X0133433Y0154393D03*
X0133533Y0154393D03*
X0133633Y0154393D03*
X0133633Y0155493D03*
X0133433Y0155593D03*
X0132833Y0155593D03*
X0132733Y0155593D03*
X0132633Y0155593D03*
X0132533Y0155593D03*
X0132433Y0155593D03*
X0131833Y0155593D03*
X0131733Y0155593D03*
X0130933Y0156393D03*
X0131733Y0157193D03*
X0132733Y0157293D03*
X0132833Y0157293D03*
X0132933Y0157293D03*
X0133033Y0157293D03*
X0133633Y0158393D03*
X0133633Y0160193D03*
X0133633Y0152793D03*
X0133633Y0151093D03*
X0133533Y0151093D03*
X0133433Y0151093D03*
X0133333Y0151093D03*
X0133233Y0151093D03*
X0133133Y0151093D03*
X0133033Y0151093D03*
X0132933Y0151093D03*
X0132833Y0151093D03*
X0132733Y0151093D03*
X0132633Y0151093D03*
X0132533Y0151093D03*
X0132433Y0151093D03*
X0132333Y0151093D03*
X0132233Y0151093D03*
X0132133Y0151093D03*
X0132033Y0151093D03*
X0131933Y0151093D03*
X0131933Y0149893D03*
X0132033Y0149893D03*
X0132133Y0149893D03*
X0132233Y0149893D03*
X0132333Y0149893D03*
X0132433Y0149893D03*
X0132533Y0149893D03*
X0132633Y0149893D03*
X0132733Y0149893D03*
X0132833Y0149893D03*
X0132933Y0149893D03*
X0133033Y0149893D03*
X0133133Y0149893D03*
X0133233Y0149893D03*
X0133333Y0149893D03*
X0133433Y0149893D03*
X0133533Y0149893D03*
X0133633Y0149893D03*
X0131833Y0149893D03*
X0131733Y0149893D03*
X0131633Y0149893D03*
X0131533Y0149893D03*
X0131433Y0149893D03*
X0131333Y0149893D03*
X0131233Y0149893D03*
X0131133Y0149893D03*
X0131033Y0149893D03*
X0130533Y0149893D03*
X0130433Y0149893D03*
X0130333Y0149893D03*
X0130233Y0149893D03*
X0130133Y0149893D03*
X0130033Y0149893D03*
X0129933Y0149893D03*
X0129033Y0151093D03*
X0128833Y0151093D03*
X0128733Y0151093D03*
X0128633Y0151093D03*
X0128533Y0151093D03*
X0128433Y0151093D03*
X0128333Y0151093D03*
X0128233Y0151093D03*
X0128133Y0151093D03*
X0128033Y0151093D03*
X0127933Y0151093D03*
X0127833Y0151093D03*
X0127733Y0151093D03*
X0127633Y0151093D03*
X0127533Y0151093D03*
X0127433Y0151093D03*
X0126633Y0152893D03*
X0126533Y0152893D03*
X0127033Y0154093D03*
X0131633Y0145893D03*
X0131733Y0145893D03*
X0132833Y0145993D03*
X0132833Y0144293D03*
X0132933Y0144293D03*
X0133033Y0144293D03*
X0131733Y0144293D03*
X0131633Y0144293D03*
X0131533Y0144393D03*
X0130933Y0145093D03*
X0129051Y0197380D03*
X0128951Y0197380D03*
X0128251Y0199180D03*
X0128251Y0200280D03*
X0128151Y0200280D03*
X0128051Y0200280D03*
X0127951Y0200280D03*
X0127851Y0200280D03*
X0127751Y0200280D03*
X0127651Y0200280D03*
X0127551Y0200280D03*
X0127451Y0200280D03*
X0127351Y0200280D03*
X0127251Y0200280D03*
X0127151Y0200280D03*
X0127051Y0200280D03*
X0126951Y0200280D03*
X0126851Y0200280D03*
X0126751Y0200280D03*
X0126651Y0200280D03*
X0126551Y0200280D03*
X0126451Y0200280D03*
X0125951Y0200280D03*
X0125851Y0200280D03*
X0125751Y0200280D03*
X0125651Y0200280D03*
X0125551Y0200280D03*
X0125351Y0200280D03*
X0125351Y0201480D03*
X0125551Y0201480D03*
X0125651Y0201480D03*
X0125751Y0201480D03*
X0125851Y0201480D03*
X0125951Y0201480D03*
X0126051Y0201480D03*
X0126151Y0201480D03*
X0126251Y0201480D03*
X0126351Y0201480D03*
X0126451Y0201480D03*
X0126551Y0201480D03*
X0127451Y0201480D03*
X0127551Y0201480D03*
X0127651Y0201480D03*
X0127751Y0201480D03*
X0127851Y0201480D03*
X0127951Y0201480D03*
X0128851Y0201480D03*
X0129051Y0201480D03*
X0129051Y0200280D03*
X0128851Y0200280D03*
X0128751Y0200280D03*
X0128651Y0200280D03*
X0128551Y0200280D03*
X0128451Y0200280D03*
X0128351Y0200280D03*
X0127051Y0197480D03*
X0126351Y0202680D03*
X0127251Y0204580D03*
X0126351Y0205480D03*
X0127351Y0206380D03*
X0127951Y0206380D03*
X0128051Y0206380D03*
X0127451Y0207480D03*
X0129051Y0207480D03*
X0129951Y0206680D03*
X0129051Y0209180D03*
X0129051Y0210780D03*
X0129951Y0210780D03*
X0131651Y0209480D03*
X0131751Y0209580D03*
X0132851Y0209680D03*
X0132951Y0209680D03*
X0133651Y0210780D03*
X0133651Y0207880D03*
X0133551Y0207880D03*
X0133651Y0206680D03*
X0132451Y0204780D03*
X0132351Y0204780D03*
X0132251Y0204780D03*
X0124951Y0207480D03*
X0124251Y0204780D03*
X0124151Y0204780D03*
X0124051Y0204780D03*
X0123951Y0204780D03*
X0123851Y0204780D03*
X0123751Y0204780D03*
X0123651Y0204780D03*
X0123551Y0204780D03*
X0123451Y0204780D03*
X0123351Y0204780D03*
X0123251Y0204780D03*
X0123151Y0204780D03*
X0123051Y0204780D03*
X0122951Y0204780D03*
X0122251Y0204780D03*
X0122151Y0204780D03*
X0122051Y0204780D03*
X0121951Y0204780D03*
X0121851Y0204780D03*
X0121751Y0204780D03*
X0121651Y0204780D03*
X0121551Y0204780D03*
X0121451Y0204780D03*
X0121951Y0206280D03*
X0122351Y0210780D03*
X0124951Y0210780D03*
D19*
X0124851Y0210830D03*
X0124751Y0210830D03*
X0124651Y0210830D03*
X0124551Y0210830D03*
X0124451Y0210830D03*
X0124351Y0210830D03*
X0124251Y0210830D03*
X0124151Y0210830D03*
X0124051Y0210830D03*
X0123951Y0210830D03*
X0123851Y0210830D03*
X0123751Y0210830D03*
X0123651Y0210830D03*
X0123551Y0210830D03*
X0123451Y0210830D03*
X0123351Y0210830D03*
X0123251Y0210830D03*
X0122551Y0210830D03*
X0122451Y0210830D03*
X0122351Y0209630D03*
X0123151Y0209130D03*
X0123251Y0209130D03*
X0123351Y0209130D03*
X0123451Y0209130D03*
X0123551Y0209130D03*
X0123651Y0209130D03*
X0123751Y0209130D03*
X0123851Y0209130D03*
X0123951Y0209130D03*
X0124051Y0209130D03*
X0124151Y0209130D03*
X0124251Y0209130D03*
X0124351Y0209130D03*
X0124451Y0209130D03*
X0124551Y0209130D03*
X0124651Y0209130D03*
X0124751Y0209130D03*
X0124851Y0209130D03*
X0124951Y0209130D03*
X0124851Y0207530D03*
X0124751Y0207530D03*
X0124651Y0207530D03*
X0124551Y0207530D03*
X0124451Y0207530D03*
X0124351Y0207530D03*
X0124251Y0207530D03*
X0124151Y0207530D03*
X0124051Y0207530D03*
X0123951Y0207530D03*
X0123851Y0207530D03*
X0123751Y0207530D03*
X0123651Y0207530D03*
X0123551Y0207530D03*
X0123451Y0207530D03*
X0123351Y0207530D03*
X0123251Y0207530D03*
X0123151Y0207530D03*
X0123151Y0206230D03*
X0123051Y0206230D03*
X0122951Y0206230D03*
X0122851Y0206230D03*
X0122751Y0206230D03*
X0122651Y0206230D03*
X0122551Y0206230D03*
X0122451Y0206230D03*
X0122351Y0206230D03*
X0121851Y0206230D03*
X0121751Y0206230D03*
X0121651Y0206230D03*
X0121551Y0206230D03*
X0121451Y0206230D03*
X0121351Y0206230D03*
X0123251Y0206230D03*
X0123351Y0206230D03*
X0123451Y0206230D03*
X0123551Y0206230D03*
X0123651Y0206230D03*
X0123751Y0206230D03*
X0123851Y0206230D03*
X0123951Y0206230D03*
X0124051Y0206230D03*
X0124151Y0206230D03*
X0124251Y0206230D03*
X0124351Y0206230D03*
X0124451Y0206230D03*
X0124551Y0206230D03*
X0124651Y0206230D03*
X0124751Y0206230D03*
X0124851Y0206230D03*
X0124951Y0206230D03*
X0127051Y0206230D03*
X0127151Y0206330D03*
X0127251Y0206330D03*
X0128151Y0206330D03*
X0128251Y0206330D03*
X0128351Y0206230D03*
X0128351Y0207530D03*
X0128251Y0207530D03*
X0128151Y0207530D03*
X0128051Y0207530D03*
X0127951Y0207530D03*
X0127851Y0207530D03*
X0127751Y0207530D03*
X0127651Y0207530D03*
X0127551Y0207530D03*
X0127351Y0207530D03*
X0127251Y0207530D03*
X0127151Y0207530D03*
X0128451Y0207530D03*
X0128551Y0207530D03*
X0128651Y0207530D03*
X0128751Y0207530D03*
X0128851Y0207530D03*
X0128951Y0207530D03*
X0130051Y0206730D03*
X0130151Y0206730D03*
X0130251Y0206730D03*
X0130351Y0206730D03*
X0130451Y0206730D03*
X0130551Y0206730D03*
X0130651Y0206730D03*
X0130751Y0206730D03*
X0130851Y0206730D03*
X0130951Y0206730D03*
X0131051Y0206730D03*
X0131151Y0206730D03*
X0131951Y0206730D03*
X0132051Y0206730D03*
X0132151Y0206730D03*
X0132251Y0206730D03*
X0132351Y0206730D03*
X0132451Y0206730D03*
X0132551Y0206730D03*
X0132651Y0206730D03*
X0133551Y0206730D03*
X0132951Y0207930D03*
X0132851Y0207930D03*
X0132751Y0207930D03*
X0132651Y0207930D03*
X0132551Y0207930D03*
X0132451Y0207930D03*
X0131851Y0207930D03*
X0131751Y0207930D03*
X0131651Y0207930D03*
X0131551Y0208030D03*
X0130951Y0208730D03*
X0131551Y0209430D03*
X0132751Y0209630D03*
X0133051Y0209630D03*
X0133651Y0209130D03*
X0133551Y0210830D03*
X0133451Y0210830D03*
X0133351Y0210830D03*
X0133251Y0210830D03*
X0133151Y0210830D03*
X0133051Y0210830D03*
X0132951Y0210830D03*
X0132851Y0210830D03*
X0132751Y0210830D03*
X0132651Y0210830D03*
X0132551Y0210830D03*
X0132451Y0210830D03*
X0132351Y0210830D03*
X0132251Y0210830D03*
X0132151Y0210830D03*
X0132051Y0210830D03*
X0131951Y0210830D03*
X0131851Y0210830D03*
X0131751Y0210830D03*
X0131651Y0210830D03*
X0131551Y0210830D03*
X0131451Y0210830D03*
X0131351Y0210830D03*
X0131251Y0210830D03*
X0131151Y0210830D03*
X0131051Y0210830D03*
X0130951Y0210830D03*
X0130851Y0210830D03*
X0130751Y0210830D03*
X0130651Y0210830D03*
X0130551Y0210830D03*
X0130451Y0210830D03*
X0130351Y0210830D03*
X0130251Y0210830D03*
X0130151Y0210830D03*
X0130051Y0210830D03*
X0128951Y0210830D03*
X0128851Y0210830D03*
X0128751Y0210830D03*
X0128651Y0210830D03*
X0128551Y0210830D03*
X0128451Y0210830D03*
X0128351Y0210830D03*
X0128251Y0210830D03*
X0128151Y0210830D03*
X0128051Y0210830D03*
X0127951Y0210830D03*
X0127851Y0210830D03*
X0127751Y0210830D03*
X0127651Y0210830D03*
X0127551Y0210830D03*
X0127451Y0210830D03*
X0127351Y0210830D03*
X0126651Y0210830D03*
X0126551Y0210830D03*
X0126451Y0210830D03*
X0127251Y0209130D03*
X0127351Y0209130D03*
X0127451Y0209130D03*
X0127551Y0209130D03*
X0127651Y0209130D03*
X0127751Y0209130D03*
X0127851Y0209130D03*
X0127951Y0209130D03*
X0128051Y0209130D03*
X0128151Y0209130D03*
X0128251Y0209130D03*
X0128351Y0209130D03*
X0128451Y0209130D03*
X0128551Y0209130D03*
X0128651Y0209130D03*
X0128751Y0209130D03*
X0128851Y0209130D03*
X0128951Y0209130D03*
X0128351Y0204530D03*
X0127351Y0204530D03*
X0127151Y0204630D03*
X0127051Y0204630D03*
X0127451Y0203430D03*
X0127551Y0203430D03*
X0127651Y0203430D03*
X0127751Y0203430D03*
X0127851Y0203430D03*
X0127951Y0203430D03*
X0128151Y0203330D03*
X0128251Y0203330D03*
X0127251Y0203330D03*
X0127251Y0201530D03*
X0127351Y0201530D03*
X0128051Y0201530D03*
X0128151Y0201530D03*
X0128951Y0201430D03*
X0129051Y0202730D03*
X0131751Y0204930D03*
X0131851Y0204830D03*
X0131951Y0204830D03*
X0132051Y0204830D03*
X0132151Y0204830D03*
X0132551Y0204830D03*
X0132651Y0204830D03*
X0132751Y0204830D03*
X0129051Y0198630D03*
X0128451Y0199130D03*
X0128351Y0199130D03*
X0128151Y0199130D03*
X0127151Y0199030D03*
X0127051Y0199030D03*
X0126951Y0198930D03*
X0126951Y0197530D03*
X0127151Y0197430D03*
X0127251Y0197430D03*
X0127851Y0197430D03*
X0127951Y0197430D03*
X0128051Y0197430D03*
X0128151Y0197430D03*
X0128251Y0197430D03*
X0128351Y0197430D03*
X0128851Y0197430D03*
X0125451Y0201430D03*
X0125433Y0166043D03*
X0125533Y0166043D03*
X0125633Y0166043D03*
X0125733Y0166043D03*
X0125833Y0166043D03*
X0125933Y0166043D03*
X0126033Y0166043D03*
X0126133Y0166043D03*
X0126233Y0166043D03*
X0126333Y0166043D03*
X0126433Y0166043D03*
X0126533Y0166043D03*
X0127333Y0166043D03*
X0127433Y0166043D03*
X0127533Y0166043D03*
X0127633Y0166043D03*
X0127733Y0166043D03*
X0127833Y0166043D03*
X0127933Y0166043D03*
X0128033Y0166043D03*
X0128133Y0166043D03*
X0128233Y0166043D03*
X0128333Y0166043D03*
X0128433Y0166043D03*
X0128533Y0166043D03*
X0128633Y0166043D03*
X0128733Y0166043D03*
X0128833Y0166043D03*
X0128933Y0166043D03*
X0128933Y0164243D03*
X0130033Y0164243D03*
X0130133Y0164243D03*
X0130233Y0164243D03*
X0130333Y0164243D03*
X0130433Y0164243D03*
X0130533Y0164243D03*
X0130633Y0164243D03*
X0130733Y0164243D03*
X0130833Y0164243D03*
X0130933Y0164243D03*
X0131033Y0164243D03*
X0131833Y0164243D03*
X0131933Y0164243D03*
X0132033Y0164243D03*
X0132633Y0164243D03*
X0132733Y0164243D03*
X0133633Y0165443D03*
X0132833Y0166043D03*
X0132633Y0166143D03*
X0132533Y0166143D03*
X0132433Y0166143D03*
X0132333Y0166143D03*
X0132233Y0166143D03*
X0132133Y0166143D03*
X0132033Y0166143D03*
X0131933Y0166143D03*
X0131833Y0166043D03*
X0131033Y0163143D03*
X0131233Y0163043D03*
X0131333Y0163043D03*
X0131433Y0162943D03*
X0131533Y0162943D03*
X0131633Y0162943D03*
X0131733Y0162843D03*
X0131833Y0162843D03*
X0132133Y0162743D03*
X0132333Y0161643D03*
X0131433Y0161343D03*
X0131333Y0161343D03*
X0131133Y0161243D03*
X0131033Y0161243D03*
X0131933Y0160143D03*
X0132033Y0160143D03*
X0132133Y0160143D03*
X0132233Y0160143D03*
X0132333Y0160143D03*
X0132433Y0160143D03*
X0132533Y0160143D03*
X0132633Y0160143D03*
X0132733Y0160143D03*
X0132833Y0160143D03*
X0132933Y0160143D03*
X0133033Y0160143D03*
X0133133Y0160143D03*
X0133233Y0160143D03*
X0133333Y0160143D03*
X0133433Y0160143D03*
X0133533Y0160143D03*
X0133533Y0158443D03*
X0133433Y0158443D03*
X0133333Y0158443D03*
X0133233Y0158443D03*
X0133133Y0158443D03*
X0133033Y0158443D03*
X0132933Y0158443D03*
X0132833Y0158443D03*
X0132733Y0158443D03*
X0132633Y0158443D03*
X0132533Y0158443D03*
X0132433Y0158443D03*
X0132333Y0158443D03*
X0132233Y0158443D03*
X0132133Y0158443D03*
X0132033Y0158443D03*
X0131933Y0158443D03*
X0131833Y0158443D03*
X0131633Y0157143D03*
X0132633Y0157243D03*
X0132933Y0155643D03*
X0133033Y0155643D03*
X0133533Y0155543D03*
X0131933Y0155643D03*
X0131633Y0155643D03*
X0131833Y0154343D03*
X0131833Y0152743D03*
X0131933Y0152743D03*
X0132033Y0152743D03*
X0132133Y0152743D03*
X0132233Y0152743D03*
X0132333Y0152743D03*
X0132433Y0152743D03*
X0132533Y0152743D03*
X0132633Y0152743D03*
X0132733Y0152743D03*
X0132833Y0152743D03*
X0132933Y0152743D03*
X0133033Y0152743D03*
X0133133Y0152743D03*
X0133233Y0152743D03*
X0133333Y0152743D03*
X0133433Y0152743D03*
X0133533Y0152743D03*
X0131833Y0151143D03*
X0131733Y0151143D03*
X0131833Y0148743D03*
X0131933Y0148743D03*
X0132033Y0148743D03*
X0132133Y0148743D03*
X0132233Y0148743D03*
X0132333Y0148743D03*
X0132433Y0148743D03*
X0132533Y0148743D03*
X0132633Y0148743D03*
X0132733Y0148743D03*
X0132833Y0148643D03*
X0132933Y0148643D03*
X0133033Y0148543D03*
X0131733Y0148643D03*
X0131733Y0147043D03*
X0131633Y0147043D03*
X0131833Y0146943D03*
X0132733Y0146943D03*
X0132833Y0146943D03*
X0132933Y0147043D03*
X0132933Y0145943D03*
X0133033Y0145843D03*
X0131833Y0145843D03*
X0131533Y0145843D03*
X0132733Y0144343D03*
X0133133Y0144343D03*
X0128933Y0151143D03*
X0127333Y0151143D03*
X0127233Y0151143D03*
X0127233Y0152843D03*
X0127333Y0152843D03*
X0127433Y0152843D03*
X0127533Y0152843D03*
X0127633Y0152843D03*
X0127733Y0152843D03*
X0127833Y0152843D03*
X0127933Y0152843D03*
X0128033Y0152843D03*
X0128133Y0152843D03*
X0128233Y0152843D03*
X0128333Y0152843D03*
X0128433Y0152843D03*
X0128533Y0152843D03*
X0128633Y0152843D03*
X0128733Y0152843D03*
X0128833Y0152843D03*
X0128933Y0152843D03*
X0128833Y0154043D03*
X0128233Y0154043D03*
X0128133Y0154043D03*
X0128033Y0154043D03*
X0127933Y0154043D03*
X0127833Y0154043D03*
X0127233Y0154043D03*
X0127133Y0154043D03*
X0126933Y0154143D03*
X0126333Y0154843D03*
X0126933Y0155543D03*
X0127033Y0155643D03*
X0128033Y0155743D03*
X0128133Y0155743D03*
X0128433Y0155743D03*
X0129033Y0155243D03*
X0127133Y0156943D03*
X0127233Y0158543D03*
X0127333Y0158543D03*
X0127433Y0158543D03*
X0127533Y0158543D03*
X0127633Y0158543D03*
X0127733Y0158543D03*
X0127833Y0158543D03*
X0127933Y0158543D03*
X0128033Y0158543D03*
X0128133Y0158543D03*
X0128233Y0158543D03*
X0128333Y0158543D03*
X0128433Y0158543D03*
X0128533Y0158543D03*
X0128633Y0158543D03*
X0128733Y0158543D03*
X0128833Y0158543D03*
X0128933Y0158543D03*
X0127333Y0160143D03*
X0127233Y0160143D03*
X0127233Y0161443D03*
X0127333Y0161443D03*
X0127433Y0161443D03*
X0127533Y0161443D03*
X0127633Y0161443D03*
X0127733Y0161443D03*
X0127933Y0161443D03*
X0128033Y0161443D03*
X0128133Y0161443D03*
X0127133Y0161443D03*
X0127033Y0161443D03*
X0126933Y0161443D03*
X0126833Y0161443D03*
X0126733Y0161443D03*
X0126633Y0161443D03*
X0126533Y0161443D03*
X0126433Y0161443D03*
X0126433Y0163143D03*
X0126533Y0163143D03*
X0126633Y0163143D03*
X0126733Y0163143D03*
X0126833Y0163143D03*
X0126933Y0163143D03*
X0127033Y0163143D03*
X0127133Y0163143D03*
X0127233Y0163143D03*
X0127333Y0163143D03*
X0127433Y0163143D03*
X0127533Y0163143D03*
X0127633Y0163143D03*
X0127733Y0163143D03*
X0127833Y0163143D03*
X0127933Y0163143D03*
X0128033Y0163143D03*
X0128133Y0163143D03*
X0128233Y0163143D03*
X0129033Y0162643D03*
X0127233Y0164343D03*
X0127133Y0164343D03*
X0125333Y0166043D03*
X0126433Y0152843D03*
X0133533Y0162143D03*
X0133633Y0162143D03*
D20*
X0133633Y0179243D03*
X0133533Y0179243D03*
X0133433Y0179243D03*
X0133333Y0179243D03*
X0133233Y0179243D03*
X0133133Y0179243D03*
X0133033Y0179243D03*
X0132933Y0179243D03*
X0132833Y0179243D03*
X0132733Y0179243D03*
X0132633Y0179243D03*
X0132533Y0179243D03*
X0132433Y0179243D03*
X0132333Y0179243D03*
X0132233Y0179243D03*
X0132133Y0179243D03*
X0132033Y0179243D03*
X0131933Y0179243D03*
X0131833Y0179243D03*
X0131733Y0179243D03*
X0131633Y0179243D03*
X0131533Y0179243D03*
X0131433Y0179243D03*
X0131333Y0179243D03*
X0131233Y0179243D03*
X0131133Y0179243D03*
X0131033Y0179243D03*
X0130933Y0179243D03*
X0130833Y0179243D03*
X0127933Y0179243D03*
X0127833Y0179243D03*
X0127733Y0179243D03*
X0127633Y0179243D03*
X0127533Y0179243D03*
X0127433Y0179243D03*
X0127333Y0179243D03*
X0127233Y0179243D03*
X0127133Y0179243D03*
X0127033Y0179243D03*
X0126933Y0179243D03*
X0126833Y0179243D03*
X0126733Y0179243D03*
X0126633Y0179243D03*
X0126533Y0179243D03*
X0126433Y0179243D03*
X0126333Y0179243D03*
X0126233Y0179243D03*
X0126133Y0179243D03*
X0126033Y0179243D03*
X0125933Y0179243D03*
X0125833Y0179243D03*
X0125733Y0179243D03*
X0125633Y0179243D03*
X0125533Y0179243D03*
X0125433Y0179243D03*
X0125333Y0179243D03*
X0125233Y0179243D03*
X0122233Y0179243D03*
X0122133Y0179243D03*
X0122033Y0179243D03*
X0121933Y0179243D03*
X0121833Y0179243D03*
X0121733Y0179243D03*
X0121633Y0179243D03*
X0121533Y0179243D03*
X0121433Y0179243D03*
X0121333Y0179243D03*
X0121233Y0179243D03*
X0121133Y0179243D03*
X0121033Y0179243D03*
X0120933Y0179243D03*
X0120833Y0179243D03*
X0120733Y0179243D03*
X0120633Y0179243D03*
X0120533Y0179243D03*
X0120433Y0179243D03*
X0120333Y0179243D03*
X0120233Y0179243D03*
X0120133Y0179243D03*
X0120033Y0179243D03*
X0119933Y0179243D03*
X0119833Y0179243D03*
X0119733Y0179243D03*
X0119633Y0179243D03*
X0119533Y0179243D03*
D21*
X0119333Y0170693D03*
X0119233Y0170693D03*
X0119133Y0170693D03*
X0119033Y0170693D03*
X0118933Y0170693D03*
X0118833Y0170693D03*
X0118733Y0170693D03*
X0118633Y0170693D03*
X0118533Y0170693D03*
X0118433Y0170693D03*
X0118333Y0170693D03*
X0118233Y0170693D03*
X0118133Y0170693D03*
X0118033Y0170693D03*
X0117933Y0170693D03*
X0117833Y0170693D03*
X0117733Y0170693D03*
X0117633Y0170693D03*
X0117533Y0170693D03*
X0117433Y0170693D03*
X0117333Y0170693D03*
X0117233Y0170693D03*
X0117133Y0170693D03*
X0117033Y0170693D03*
X0116933Y0170693D03*
X0116833Y0170693D03*
X0116733Y0170693D03*
X0116733Y0187780D03*
X0116833Y0187780D03*
X0116933Y0187780D03*
X0117033Y0187780D03*
X0117133Y0187780D03*
X0117233Y0187780D03*
X0117333Y0187780D03*
X0117433Y0187780D03*
X0117533Y0187780D03*
X0117633Y0187780D03*
X0117733Y0187780D03*
X0117833Y0187780D03*
X0117933Y0187780D03*
X0118033Y0187780D03*
X0118133Y0187780D03*
X0118233Y0187780D03*
X0118333Y0187780D03*
X0118433Y0187780D03*
X0118533Y0187780D03*
X0118633Y0187780D03*
X0118733Y0187780D03*
X0118833Y0187780D03*
X0118933Y0187780D03*
X0119033Y0187780D03*
X0119133Y0187780D03*
X0119233Y0187780D03*
X0119333Y0187780D03*
X0127551Y0205480D03*
X0127651Y0205480D03*
X0127751Y0205480D03*
X0127851Y0205480D03*
X0125251Y0215480D03*
X0116751Y0223980D03*
X0133651Y0215480D03*
D22*
X0133651Y0228280D03*
X0133551Y0228280D03*
X0133451Y0228280D03*
X0133351Y0228280D03*
X0133251Y0228280D03*
X0133151Y0228280D03*
X0133051Y0228280D03*
X0132951Y0228280D03*
X0132851Y0228280D03*
X0132751Y0228280D03*
X0132651Y0228280D03*
X0132551Y0228280D03*
X0132451Y0228280D03*
X0132351Y0228280D03*
X0132251Y0228280D03*
X0132151Y0228280D03*
X0132051Y0228280D03*
X0131951Y0228280D03*
X0131851Y0228280D03*
X0131751Y0228280D03*
X0131651Y0228280D03*
X0131551Y0228280D03*
X0131451Y0228280D03*
X0131351Y0228280D03*
X0131251Y0228280D03*
X0131151Y0228280D03*
X0131051Y0228280D03*
X0130951Y0228280D03*
X0130851Y0228280D03*
X0125051Y0219780D03*
X0124951Y0219780D03*
X0124851Y0219780D03*
X0124751Y0219780D03*
X0124651Y0219780D03*
X0124551Y0219780D03*
X0124451Y0219780D03*
X0124351Y0219780D03*
X0124251Y0219780D03*
X0124151Y0219780D03*
X0124051Y0219780D03*
X0123951Y0219780D03*
X0123851Y0219780D03*
X0123751Y0219780D03*
X0123651Y0219780D03*
X0123551Y0219780D03*
X0123451Y0219780D03*
X0123351Y0219780D03*
X0123251Y0219780D03*
X0123151Y0219780D03*
X0123051Y0219780D03*
X0122951Y0219780D03*
X0122851Y0219780D03*
X0122751Y0219780D03*
X0122651Y0219780D03*
X0122551Y0219780D03*
X0122451Y0219780D03*
X0122351Y0219780D03*
X0116551Y0228280D03*
X0116451Y0228280D03*
X0116351Y0228280D03*
X0116251Y0228280D03*
X0116151Y0228280D03*
X0116051Y0228280D03*
X0115951Y0228280D03*
X0115851Y0228280D03*
X0115751Y0228280D03*
X0115651Y0228280D03*
X0115551Y0228280D03*
X0115451Y0228280D03*
X0115351Y0228280D03*
X0115251Y0228280D03*
X0115151Y0228280D03*
X0115051Y0228280D03*
X0114951Y0228280D03*
X0114851Y0228280D03*
X0114751Y0228280D03*
X0114651Y0228280D03*
X0114551Y0228280D03*
X0114451Y0228280D03*
X0114351Y0228280D03*
X0114251Y0228280D03*
X0114151Y0228280D03*
X0114051Y0228280D03*
X0113951Y0228280D03*
X0113851Y0228280D03*
D23*
X0122351Y0204730D03*
X0122451Y0204730D03*
X0122551Y0204730D03*
X0122651Y0204730D03*
X0122751Y0204730D03*
X0122851Y0204730D03*
X0126551Y0205430D03*
X0131151Y0208730D03*
X0132633Y0162143D03*
X0131133Y0156343D03*
X0126533Y0154843D03*
X0131133Y0145143D03*
X0132533Y0144743D03*
X0133533Y0145043D03*
D24*
X0133533Y0147793D03*
X0131133Y0147793D03*
X0122651Y0207980D03*
D25*
X0125351Y0215530D03*
X0125451Y0215530D03*
X0125551Y0215530D03*
X0125651Y0215530D03*
X0125751Y0215530D03*
X0125851Y0215530D03*
X0125951Y0215530D03*
X0126051Y0215530D03*
X0126151Y0215530D03*
X0126251Y0215530D03*
X0126351Y0215530D03*
X0126451Y0215530D03*
X0126551Y0215530D03*
X0126651Y0215530D03*
X0126751Y0215530D03*
X0126851Y0215530D03*
X0126951Y0215530D03*
X0127051Y0215530D03*
X0127151Y0215530D03*
X0127251Y0215530D03*
X0127351Y0215530D03*
X0127451Y0215530D03*
X0127551Y0215530D03*
X0127651Y0215530D03*
X0127751Y0215530D03*
X0127851Y0215530D03*
X0127951Y0215530D03*
X0128051Y0215530D03*
X0128151Y0215530D03*
X0128251Y0215530D03*
X0128351Y0215530D03*
X0128451Y0215530D03*
X0128551Y0215530D03*
X0128651Y0215530D03*
X0128751Y0215530D03*
X0128851Y0215530D03*
X0128951Y0215530D03*
X0129051Y0215530D03*
X0129151Y0215530D03*
X0129251Y0215530D03*
X0129351Y0215530D03*
X0129451Y0215530D03*
X0129551Y0215530D03*
X0129651Y0215530D03*
X0129751Y0215530D03*
X0129851Y0215530D03*
X0129951Y0215530D03*
X0130051Y0215530D03*
X0130151Y0215530D03*
X0130251Y0215530D03*
X0130351Y0215530D03*
X0130451Y0215530D03*
X0130551Y0215530D03*
X0130651Y0215530D03*
X0130751Y0215530D03*
X0130851Y0215530D03*
X0130951Y0215530D03*
X0131051Y0215530D03*
X0131151Y0215530D03*
X0131251Y0215530D03*
X0131351Y0215530D03*
X0131451Y0215530D03*
X0131551Y0215530D03*
X0131651Y0215530D03*
X0131751Y0215530D03*
X0131851Y0215530D03*
X0131951Y0215530D03*
X0132051Y0215530D03*
X0132151Y0215530D03*
X0132251Y0215530D03*
X0132351Y0215530D03*
X0132451Y0215530D03*
X0132551Y0215530D03*
X0132651Y0215530D03*
X0132751Y0215530D03*
X0132851Y0215530D03*
X0132951Y0215530D03*
X0133051Y0215530D03*
X0133151Y0215530D03*
X0133251Y0215530D03*
X0133351Y0215530D03*
X0133451Y0215530D03*
X0133551Y0215530D03*
X0130751Y0232530D03*
X0130651Y0232530D03*
X0130551Y0232530D03*
X0130451Y0232530D03*
X0130351Y0232530D03*
X0130251Y0232530D03*
X0130151Y0232530D03*
X0130051Y0232530D03*
X0129951Y0232530D03*
X0129851Y0232530D03*
X0129751Y0232530D03*
X0129651Y0232530D03*
X0129551Y0232530D03*
X0129451Y0232530D03*
X0129351Y0232530D03*
X0129251Y0232530D03*
X0129151Y0232530D03*
X0129051Y0232530D03*
X0128951Y0232530D03*
X0128851Y0232530D03*
X0128751Y0232530D03*
X0128651Y0232530D03*
X0128551Y0232530D03*
X0128451Y0232530D03*
X0128351Y0232530D03*
X0128251Y0232530D03*
X0128151Y0232530D03*
X0128051Y0232530D03*
X0127951Y0232530D03*
X0127851Y0232530D03*
X0127751Y0232530D03*
X0127651Y0232530D03*
X0127551Y0232530D03*
X0127451Y0232530D03*
X0127351Y0232530D03*
X0127251Y0232530D03*
X0127151Y0232530D03*
X0127051Y0232530D03*
X0126951Y0232530D03*
X0126851Y0232530D03*
X0126751Y0232530D03*
X0126651Y0232530D03*
X0126551Y0232530D03*
X0126451Y0232530D03*
X0126351Y0232530D03*
X0126251Y0232530D03*
X0126151Y0232530D03*
X0126051Y0232530D03*
X0125951Y0232530D03*
X0125851Y0232530D03*
X0125751Y0232530D03*
X0125651Y0232530D03*
X0125551Y0232530D03*
X0125451Y0232530D03*
X0125351Y0232530D03*
X0125251Y0232530D03*
X0125151Y0232530D03*
X0125051Y0232530D03*
X0124951Y0232530D03*
X0124851Y0232530D03*
X0124751Y0232530D03*
X0124651Y0232530D03*
X0124551Y0232530D03*
X0124451Y0232530D03*
X0124351Y0232530D03*
X0124251Y0232530D03*
X0124151Y0232530D03*
X0124051Y0232530D03*
X0123951Y0232530D03*
X0123851Y0232530D03*
X0123751Y0232530D03*
X0123651Y0232530D03*
X0123551Y0232530D03*
X0123451Y0232530D03*
X0123351Y0232530D03*
X0123251Y0232530D03*
X0123151Y0232530D03*
X0123051Y0232530D03*
X0122951Y0232530D03*
X0122851Y0232530D03*
X0122751Y0232530D03*
X0122651Y0232530D03*
X0122551Y0232530D03*
X0122451Y0232530D03*
X0122351Y0232530D03*
X0122251Y0224030D03*
X0122151Y0224030D03*
X0122051Y0224030D03*
X0121951Y0224030D03*
X0121851Y0224030D03*
X0121751Y0224030D03*
X0121651Y0224030D03*
X0121551Y0224030D03*
X0121451Y0224030D03*
X0121351Y0224030D03*
X0121251Y0224030D03*
X0121151Y0224030D03*
X0121051Y0224030D03*
X0120951Y0224030D03*
X0120851Y0224030D03*
X0120751Y0224030D03*
X0120651Y0224030D03*
X0120551Y0224030D03*
X0120451Y0224030D03*
X0120351Y0224030D03*
X0120251Y0224030D03*
X0120151Y0224030D03*
X0120051Y0224030D03*
X0119951Y0224030D03*
X0119851Y0224030D03*
X0119751Y0224030D03*
X0119651Y0224030D03*
X0119551Y0224030D03*
X0119451Y0224030D03*
X0119351Y0224030D03*
X0119251Y0224030D03*
X0119151Y0224030D03*
X0119051Y0224030D03*
X0118951Y0224030D03*
X0118851Y0224030D03*
X0118751Y0224030D03*
X0118651Y0224030D03*
X0118551Y0224030D03*
X0118451Y0224030D03*
X0118351Y0224030D03*
X0118251Y0224030D03*
X0118151Y0224030D03*
X0118051Y0224030D03*
X0117951Y0224030D03*
X0117851Y0224030D03*
X0117751Y0224030D03*
X0117651Y0224030D03*
X0117551Y0224030D03*
X0117451Y0224030D03*
X0117351Y0224030D03*
X0117251Y0224030D03*
X0117151Y0224030D03*
X0117051Y0224030D03*
X0116951Y0224030D03*
X0116851Y0224030D03*
X0119433Y0187751D03*
X0128033Y0179243D03*
X0128133Y0179243D03*
X0128233Y0179243D03*
X0128333Y0179243D03*
X0128433Y0179243D03*
X0128533Y0179243D03*
X0128633Y0179243D03*
X0128733Y0179243D03*
X0128833Y0179243D03*
X0128933Y0179243D03*
X0129033Y0179243D03*
X0129133Y0179243D03*
X0129233Y0179243D03*
X0129333Y0179243D03*
X0129433Y0179243D03*
X0129533Y0179243D03*
X0129633Y0179243D03*
X0129733Y0179243D03*
X0129833Y0179243D03*
X0129933Y0179243D03*
X0130033Y0179243D03*
X0130133Y0179243D03*
X0130233Y0179243D03*
X0130333Y0179243D03*
X0130433Y0179243D03*
X0130533Y0179243D03*
X0130633Y0179243D03*
X0130733Y0179243D03*
X0119433Y0170743D03*
D26*
X0122851Y0209180D03*
X0122951Y0209180D03*
X0126851Y0209180D03*
X0126951Y0209180D03*
X0126951Y0249180D03*
X0126851Y0249180D03*
X0126751Y0249180D03*
X0126651Y0249180D03*
X0126551Y0249180D03*
X0126451Y0249180D03*
X0126351Y0249180D03*
X0126251Y0249180D03*
X0126151Y0249180D03*
X0126051Y0249180D03*
X0125951Y0249180D03*
X0125851Y0249180D03*
X0125751Y0249180D03*
X0125651Y0249180D03*
X0125551Y0249180D03*
X0125451Y0249180D03*
X0125351Y0249180D03*
X0125251Y0249180D03*
X0125151Y0249180D03*
X0125051Y0249180D03*
X0124951Y0249180D03*
X0124851Y0249180D03*
X0124751Y0249180D03*
X0124651Y0249180D03*
X0124551Y0249180D03*
X0124451Y0249180D03*
X0124351Y0249180D03*
X0124251Y0249180D03*
X0124151Y0249180D03*
X0124051Y0249180D03*
X0123951Y0249180D03*
X0123851Y0249180D03*
X0123751Y0249180D03*
X0123651Y0249180D03*
X0123551Y0249180D03*
X0123451Y0249180D03*
X0123351Y0249180D03*
X0123251Y0249180D03*
X0123151Y0249180D03*
X0123051Y0249180D03*
X0122951Y0249180D03*
X0122851Y0249180D03*
X0122751Y0249180D03*
X0122651Y0249180D03*
X0122551Y0249180D03*
X0122451Y0249180D03*
X0122351Y0249180D03*
X0122251Y0249180D03*
X0122151Y0249180D03*
X0122051Y0249180D03*
X0121951Y0249180D03*
X0121851Y0249180D03*
X0121751Y0249180D03*
X0121651Y0249180D03*
X0121551Y0249180D03*
X0121451Y0249180D03*
X0121351Y0249180D03*
X0121251Y0249180D03*
X0121151Y0249180D03*
X0121051Y0249180D03*
X0120951Y0249180D03*
X0120851Y0249180D03*
X0120751Y0249180D03*
X0120651Y0249180D03*
X0120551Y0249180D03*
X0120451Y0249180D03*
X0120351Y0249180D03*
X0120251Y0249180D03*
X0117651Y0256080D03*
X0117651Y0262880D03*
X0117551Y0262880D03*
X0117451Y0262880D03*
X0117351Y0262880D03*
X0117251Y0262880D03*
X0117151Y0262880D03*
X0117051Y0262880D03*
X0116951Y0262880D03*
X0116851Y0262880D03*
X0116751Y0262880D03*
X0116651Y0262880D03*
X0116551Y0262880D03*
X0116451Y0262880D03*
X0116351Y0262880D03*
X0116251Y0262880D03*
X0116151Y0262880D03*
X0116051Y0262880D03*
X0115951Y0262880D03*
X0115851Y0262880D03*
X0115751Y0262880D03*
X0115651Y0262880D03*
X0115551Y0262880D03*
X0115451Y0262880D03*
X0115351Y0262880D03*
X0115251Y0262880D03*
X0115151Y0262880D03*
X0115051Y0262880D03*
X0114951Y0262880D03*
X0114851Y0262880D03*
X0114751Y0262880D03*
X0114651Y0262880D03*
X0114551Y0262880D03*
X0114451Y0262880D03*
X0114351Y0262880D03*
X0114251Y0262880D03*
X0114151Y0262880D03*
X0114051Y0262880D03*
X0113951Y0262880D03*
X0113951Y0269680D03*
X0113851Y0269680D03*
X0114051Y0269680D03*
X0114151Y0269680D03*
X0114251Y0269680D03*
X0114351Y0269680D03*
X0114451Y0269680D03*
X0114551Y0269680D03*
X0114651Y0269680D03*
X0114751Y0269680D03*
X0114851Y0269680D03*
X0114951Y0269680D03*
X0115051Y0269680D03*
X0115151Y0269680D03*
X0115251Y0269680D03*
X0115351Y0269680D03*
X0115451Y0269680D03*
X0115551Y0269680D03*
X0115651Y0269680D03*
X0115751Y0269680D03*
X0115851Y0269680D03*
X0115951Y0269680D03*
X0116051Y0269680D03*
X0116151Y0269680D03*
X0116251Y0269680D03*
X0116351Y0269680D03*
X0116451Y0269680D03*
X0116551Y0269680D03*
X0116651Y0269680D03*
X0116751Y0269680D03*
X0116851Y0269680D03*
X0116951Y0269680D03*
X0117051Y0269680D03*
X0117151Y0269680D03*
X0117251Y0269680D03*
X0117351Y0269680D03*
X0117451Y0269680D03*
X0117551Y0269680D03*
X0117651Y0269680D03*
X0117751Y0269680D03*
X0117851Y0269680D03*
X0117951Y0269680D03*
X0118051Y0269680D03*
X0118151Y0269680D03*
X0118251Y0269680D03*
X0118351Y0269680D03*
X0118451Y0269680D03*
X0118551Y0269680D03*
X0118651Y0269680D03*
X0118751Y0269680D03*
X0118851Y0269680D03*
X0118951Y0269680D03*
X0119051Y0269680D03*
X0119151Y0269680D03*
X0119251Y0269680D03*
X0119351Y0269680D03*
X0119451Y0269680D03*
X0119551Y0269680D03*
X0119651Y0269680D03*
X0119751Y0269680D03*
X0119851Y0269680D03*
X0119951Y0269680D03*
X0120051Y0269680D03*
X0120151Y0269680D03*
X0120251Y0269680D03*
X0120351Y0269680D03*
X0120451Y0269680D03*
X0120551Y0269680D03*
X0120651Y0269680D03*
X0120751Y0269680D03*
X0120851Y0269680D03*
X0120951Y0269680D03*
X0121051Y0269680D03*
X0121151Y0269680D03*
X0121251Y0269680D03*
X0121351Y0269680D03*
X0121451Y0269680D03*
X0121551Y0269680D03*
X0121651Y0269680D03*
X0121751Y0269680D03*
X0121851Y0269680D03*
X0121951Y0269680D03*
X0122051Y0269680D03*
X0122151Y0269680D03*
X0122251Y0269680D03*
X0122351Y0269680D03*
X0122451Y0269680D03*
X0122551Y0269680D03*
X0122651Y0269680D03*
X0122751Y0269680D03*
X0122851Y0269680D03*
X0122951Y0269680D03*
X0123051Y0269680D03*
X0123151Y0269680D03*
X0123251Y0269680D03*
X0123351Y0269680D03*
X0123451Y0269680D03*
X0123551Y0269680D03*
X0123651Y0269680D03*
X0123751Y0269680D03*
X0123851Y0269680D03*
X0123951Y0269680D03*
X0124051Y0269680D03*
X0124151Y0269680D03*
X0124251Y0269680D03*
X0124351Y0269680D03*
X0124451Y0269680D03*
X0124551Y0269680D03*
X0124651Y0269680D03*
X0124751Y0269680D03*
X0124851Y0269680D03*
X0124951Y0269680D03*
X0125051Y0269680D03*
X0125151Y0269680D03*
X0125251Y0269680D03*
X0125351Y0269680D03*
X0125451Y0269680D03*
X0125551Y0269680D03*
X0125651Y0269680D03*
X0125751Y0269680D03*
X0125851Y0269680D03*
X0125951Y0269680D03*
X0126051Y0269680D03*
X0126151Y0269680D03*
X0126251Y0269680D03*
X0126351Y0269680D03*
X0126451Y0269680D03*
X0126551Y0269680D03*
X0126651Y0269680D03*
X0126751Y0269680D03*
X0126851Y0269680D03*
X0126951Y0269680D03*
X0127051Y0269680D03*
X0127151Y0269680D03*
X0127151Y0276480D03*
X0127051Y0276480D03*
X0126951Y0276480D03*
X0126851Y0276480D03*
X0126751Y0276480D03*
X0126651Y0276480D03*
X0126551Y0276480D03*
X0126451Y0276480D03*
X0126351Y0276480D03*
X0126251Y0276480D03*
X0126151Y0276480D03*
X0126051Y0276480D03*
X0125951Y0276480D03*
X0125851Y0276480D03*
X0125751Y0276480D03*
X0125651Y0276480D03*
X0125551Y0276480D03*
X0125451Y0276480D03*
X0125351Y0276480D03*
X0125251Y0276480D03*
X0125151Y0276480D03*
X0125051Y0276480D03*
X0124951Y0276480D03*
X0124851Y0276480D03*
X0124751Y0276480D03*
X0124651Y0276480D03*
X0124551Y0276480D03*
X0124451Y0276480D03*
X0124351Y0276480D03*
X0124251Y0276480D03*
X0124151Y0276480D03*
X0124051Y0276480D03*
X0123951Y0276480D03*
X0123851Y0276480D03*
X0123751Y0276480D03*
X0123651Y0276480D03*
X0123551Y0276480D03*
X0123451Y0276480D03*
X0123351Y0276480D03*
X0123251Y0276480D03*
X0123151Y0276480D03*
X0123051Y0276480D03*
X0122951Y0276480D03*
X0122851Y0276480D03*
X0122751Y0276480D03*
X0122651Y0276480D03*
X0122551Y0276480D03*
X0122451Y0276480D03*
X0122351Y0276480D03*
X0122251Y0276480D03*
X0122151Y0276480D03*
X0122051Y0276480D03*
X0121951Y0276480D03*
X0121851Y0276480D03*
X0121751Y0276480D03*
X0121651Y0276480D03*
X0121551Y0276480D03*
X0121451Y0276480D03*
X0121351Y0276480D03*
X0121251Y0276480D03*
X0121151Y0276480D03*
X0121051Y0276480D03*
X0120951Y0276480D03*
X0120851Y0276480D03*
X0120751Y0276480D03*
X0120651Y0276480D03*
X0120551Y0276480D03*
X0120451Y0276480D03*
X0120351Y0276480D03*
X0120251Y0276480D03*
X0120151Y0276480D03*
X0120051Y0276480D03*
X0119951Y0276480D03*
X0119851Y0276480D03*
X0119751Y0276480D03*
X0119651Y0276480D03*
X0119551Y0276480D03*
X0119451Y0276480D03*
X0119351Y0276480D03*
X0119251Y0276480D03*
X0119151Y0276480D03*
X0119051Y0276480D03*
X0118951Y0276480D03*
X0118851Y0276480D03*
X0118751Y0276480D03*
X0118651Y0276480D03*
X0118551Y0276480D03*
X0118451Y0276480D03*
X0118351Y0276480D03*
X0118251Y0276480D03*
X0118151Y0276480D03*
X0118051Y0276480D03*
X0117951Y0276480D03*
X0117851Y0276480D03*
X0117751Y0276480D03*
X0117651Y0276480D03*
X0117551Y0276480D03*
X0117451Y0276480D03*
X0117351Y0276480D03*
X0117251Y0276480D03*
X0117151Y0276480D03*
X0117051Y0276480D03*
X0116951Y0276480D03*
X0116851Y0276480D03*
X0116751Y0276480D03*
X0116651Y0276480D03*
X0116551Y0276480D03*
X0116451Y0276480D03*
X0116351Y0276480D03*
X0116251Y0276480D03*
X0116151Y0276480D03*
X0116051Y0276480D03*
X0115951Y0276480D03*
X0115851Y0276480D03*
X0115751Y0276480D03*
X0115651Y0276480D03*
X0115551Y0276480D03*
X0115451Y0276480D03*
X0115351Y0276480D03*
X0115251Y0276480D03*
X0115151Y0276480D03*
X0115051Y0276480D03*
X0114951Y0276480D03*
X0114851Y0276480D03*
X0114751Y0276480D03*
X0114651Y0276480D03*
X0114551Y0276480D03*
X0114451Y0276480D03*
X0114351Y0276480D03*
X0114251Y0276480D03*
X0114151Y0276480D03*
X0114051Y0276480D03*
X0113951Y0276480D03*
X0117751Y0262880D03*
X0117851Y0262880D03*
X0117951Y0262880D03*
X0118051Y0262880D03*
X0118151Y0262880D03*
X0118251Y0262880D03*
X0118351Y0262880D03*
X0118451Y0262880D03*
X0118551Y0262880D03*
X0118651Y0262880D03*
X0118751Y0262880D03*
X0118851Y0262880D03*
X0118951Y0262880D03*
X0119051Y0262880D03*
X0119151Y0262880D03*
X0119251Y0262880D03*
X0119351Y0262880D03*
X0119451Y0262880D03*
X0119551Y0262880D03*
X0119651Y0262880D03*
X0119751Y0262880D03*
X0119851Y0262880D03*
X0119951Y0262880D03*
X0120051Y0262880D03*
X0120151Y0262880D03*
X0120251Y0262880D03*
X0120351Y0262880D03*
X0120451Y0262880D03*
X0120551Y0262880D03*
X0120651Y0262880D03*
X0120751Y0262880D03*
X0120851Y0262880D03*
X0120951Y0262880D03*
X0121051Y0262880D03*
X0121151Y0262880D03*
X0121251Y0262880D03*
X0121351Y0262880D03*
X0121451Y0262880D03*
X0121551Y0262880D03*
X0121651Y0262880D03*
X0121751Y0262880D03*
X0121851Y0262880D03*
X0121951Y0262880D03*
X0122051Y0262880D03*
X0122151Y0262880D03*
X0122251Y0262880D03*
X0122351Y0262880D03*
X0122451Y0262880D03*
X0122551Y0262880D03*
X0122651Y0262880D03*
X0122751Y0262880D03*
X0122851Y0262880D03*
X0122951Y0262880D03*
X0123051Y0262880D03*
X0123151Y0262880D03*
X0123251Y0262880D03*
X0123351Y0262880D03*
X0123451Y0262880D03*
X0123551Y0262880D03*
X0123651Y0262880D03*
X0123751Y0262880D03*
X0123851Y0262880D03*
X0123951Y0262880D03*
X0124051Y0262880D03*
X0124151Y0262880D03*
X0124251Y0262880D03*
X0124351Y0262880D03*
X0124451Y0262880D03*
X0124551Y0262880D03*
X0124651Y0262880D03*
X0124751Y0262880D03*
X0124851Y0262880D03*
X0124951Y0262880D03*
X0125051Y0262880D03*
X0125151Y0262880D03*
X0125251Y0262880D03*
X0125351Y0262880D03*
X0125451Y0262880D03*
X0125551Y0262880D03*
X0125651Y0262880D03*
X0125751Y0262880D03*
X0125851Y0262880D03*
X0125951Y0262880D03*
X0126051Y0262880D03*
X0126151Y0262880D03*
X0126251Y0262880D03*
X0126351Y0262880D03*
X0126451Y0262880D03*
X0126551Y0262880D03*
X0126651Y0262880D03*
X0126751Y0262880D03*
X0126851Y0262880D03*
X0126951Y0262880D03*
X0127051Y0262880D03*
X0127151Y0262880D03*
X0127251Y0262880D03*
X0127351Y0262880D03*
X0127451Y0262880D03*
X0127551Y0262880D03*
X0127651Y0262880D03*
X0127751Y0262880D03*
X0127851Y0262880D03*
X0127951Y0262880D03*
X0128051Y0262880D03*
X0128151Y0262880D03*
X0128251Y0262880D03*
X0128351Y0262880D03*
X0128451Y0262880D03*
X0128551Y0262880D03*
X0128651Y0262880D03*
X0128751Y0262880D03*
X0128851Y0262880D03*
X0128951Y0262880D03*
X0129051Y0262880D03*
X0129151Y0262880D03*
X0129251Y0262880D03*
X0129351Y0262880D03*
X0129451Y0262880D03*
X0129551Y0262880D03*
X0129651Y0262880D03*
X0129751Y0262880D03*
X0129851Y0262880D03*
X0129951Y0262880D03*
X0130051Y0262880D03*
X0130151Y0262880D03*
X0130251Y0262880D03*
X0130351Y0262880D03*
X0130451Y0262880D03*
X0130551Y0262880D03*
X0130651Y0262880D03*
X0130751Y0262880D03*
X0130851Y0262880D03*
X0130951Y0262880D03*
X0131051Y0262880D03*
X0131151Y0262880D03*
X0131251Y0262880D03*
X0131351Y0262880D03*
X0131451Y0262880D03*
X0131551Y0262880D03*
X0131651Y0262880D03*
X0131751Y0262880D03*
X0131851Y0262880D03*
X0131951Y0262880D03*
X0132051Y0262880D03*
X0132151Y0262880D03*
X0132251Y0262880D03*
X0132351Y0262880D03*
X0132451Y0262880D03*
X0132551Y0262880D03*
X0132651Y0262880D03*
X0132751Y0262880D03*
X0132851Y0262880D03*
X0132951Y0262880D03*
X0133051Y0262880D03*
X0133151Y0262880D03*
X0133251Y0262880D03*
X0133351Y0262880D03*
X0133451Y0262880D03*
X0133551Y0262880D03*
X0133451Y0276480D03*
X0133351Y0276480D03*
X0133251Y0276480D03*
X0133151Y0276480D03*
X0133051Y0276480D03*
X0132951Y0276480D03*
X0132851Y0276480D03*
X0132751Y0276480D03*
X0132651Y0276480D03*
X0132551Y0276480D03*
X0132451Y0276480D03*
X0132351Y0276480D03*
X0132251Y0276480D03*
X0132151Y0276480D03*
X0132051Y0276480D03*
X0131951Y0276480D03*
X0131851Y0276480D03*
X0131751Y0276480D03*
X0131651Y0276480D03*
X0131551Y0276480D03*
X0131451Y0276480D03*
X0131351Y0276480D03*
X0131251Y0276480D03*
X0131151Y0276480D03*
X0131051Y0276480D03*
X0130951Y0276480D03*
X0130851Y0276480D03*
X0130751Y0276480D03*
X0130651Y0276480D03*
X0130551Y0276480D03*
X0130451Y0276480D03*
X0130351Y0276480D03*
X0130251Y0276480D03*
X0130151Y0276480D03*
X0130051Y0276480D03*
X0129951Y0276480D03*
X0129851Y0276480D03*
X0129751Y0276480D03*
X0129651Y0276480D03*
X0129551Y0276480D03*
X0129451Y0276480D03*
X0129351Y0276480D03*
X0129251Y0276480D03*
X0129151Y0276480D03*
X0129051Y0276480D03*
X0128951Y0276480D03*
X0128851Y0276480D03*
X0128751Y0276480D03*
X0128651Y0276480D03*
X0128551Y0276480D03*
X0128451Y0276480D03*
X0128351Y0276480D03*
X0128251Y0276480D03*
X0128151Y0276480D03*
X0128051Y0276480D03*
X0127951Y0276480D03*
X0127851Y0276480D03*
X0127751Y0276480D03*
X0127651Y0276480D03*
X0127551Y0276480D03*
X0127451Y0276480D03*
X0127351Y0276480D03*
X0127251Y0276480D03*
X0127251Y0249180D03*
X0127151Y0249180D03*
X0127051Y0249180D03*
X0127351Y0249180D03*
X0127451Y0249180D03*
X0127551Y0249180D03*
X0127651Y0249180D03*
X0127751Y0249180D03*
X0127851Y0249180D03*
X0127951Y0249180D03*
X0128051Y0249180D03*
X0128151Y0249180D03*
X0128251Y0249180D03*
X0128351Y0249180D03*
X0128451Y0249180D03*
X0128551Y0249180D03*
X0128651Y0249180D03*
X0128751Y0249180D03*
X0128851Y0249180D03*
X0128951Y0249180D03*
X0129051Y0249180D03*
X0129151Y0249180D03*
X0129251Y0249180D03*
X0129351Y0249180D03*
X0129451Y0249180D03*
X0129551Y0249180D03*
X0129651Y0249180D03*
X0129751Y0249180D03*
X0129851Y0249180D03*
X0129951Y0249180D03*
X0130051Y0249180D03*
X0130151Y0249180D03*
X0130251Y0249180D03*
X0130351Y0249180D03*
X0130451Y0249180D03*
X0130551Y0249180D03*
X0130651Y0249180D03*
X0130751Y0249180D03*
X0130851Y0249180D03*
X0130951Y0249180D03*
X0131051Y0249180D03*
X0131151Y0249180D03*
X0131251Y0249180D03*
X0131351Y0249180D03*
X0131451Y0249180D03*
X0131551Y0249180D03*
X0131651Y0249180D03*
X0131751Y0249180D03*
X0131851Y0249180D03*
X0131951Y0249180D03*
X0132051Y0249180D03*
X0132151Y0249180D03*
X0132251Y0249180D03*
X0132351Y0249180D03*
X0132451Y0249180D03*
X0132551Y0249180D03*
X0132651Y0249180D03*
X0132751Y0249180D03*
X0132851Y0249180D03*
X0132951Y0249180D03*
X0133051Y0249180D03*
X0133151Y0249180D03*
X0133251Y0249180D03*
X0133351Y0249180D03*
X0133451Y0249180D03*
X0133551Y0249180D03*
D27*
X0133551Y0256130D03*
X0133451Y0256130D03*
X0133351Y0256130D03*
X0133251Y0256130D03*
X0133151Y0256130D03*
X0133051Y0256130D03*
X0132951Y0256130D03*
X0132851Y0256130D03*
X0132751Y0256130D03*
X0132651Y0256130D03*
X0132551Y0256130D03*
X0132451Y0256130D03*
X0132351Y0256130D03*
X0132251Y0256130D03*
X0132151Y0256130D03*
X0132051Y0256130D03*
X0131951Y0256130D03*
X0131851Y0256130D03*
X0131751Y0256130D03*
X0131651Y0256130D03*
X0131551Y0256130D03*
X0131451Y0256130D03*
X0131351Y0256130D03*
X0131251Y0256130D03*
X0131151Y0256130D03*
X0131051Y0256130D03*
X0130951Y0256130D03*
X0130851Y0256130D03*
X0130751Y0256130D03*
X0130651Y0256130D03*
X0130551Y0256130D03*
X0130451Y0256130D03*
X0130351Y0256130D03*
X0130251Y0256130D03*
X0130151Y0256130D03*
X0130051Y0256130D03*
X0129951Y0256130D03*
X0129851Y0256130D03*
X0129751Y0256130D03*
X0129651Y0256130D03*
X0129551Y0256130D03*
X0129451Y0256130D03*
X0129351Y0256130D03*
X0129251Y0256130D03*
X0129151Y0256130D03*
X0129051Y0256130D03*
X0128951Y0256130D03*
X0128851Y0256130D03*
X0128751Y0256130D03*
X0128651Y0256130D03*
X0128551Y0256130D03*
X0128451Y0256130D03*
X0128351Y0256130D03*
X0128251Y0256130D03*
X0128151Y0256130D03*
X0128051Y0256130D03*
X0127951Y0256130D03*
X0127851Y0256130D03*
X0127751Y0256130D03*
X0127651Y0256130D03*
X0127551Y0256130D03*
X0127451Y0256130D03*
X0127351Y0256130D03*
X0127251Y0256130D03*
X0127151Y0256130D03*
X0127051Y0256130D03*
X0126951Y0256130D03*
X0126851Y0256130D03*
X0126751Y0256130D03*
X0126651Y0256130D03*
X0126551Y0256130D03*
X0126451Y0256130D03*
X0126351Y0256130D03*
X0126251Y0256130D03*
X0126151Y0256130D03*
X0126051Y0256130D03*
X0125951Y0256130D03*
X0125851Y0256130D03*
X0125751Y0256130D03*
X0125651Y0256130D03*
X0125551Y0256130D03*
X0125451Y0256130D03*
X0125351Y0256130D03*
X0125251Y0256130D03*
X0125151Y0256130D03*
X0125051Y0256130D03*
X0124951Y0256130D03*
X0124851Y0256130D03*
X0124751Y0256130D03*
X0124651Y0256130D03*
X0124551Y0256130D03*
X0124451Y0256130D03*
X0124351Y0256130D03*
X0124251Y0256130D03*
X0124151Y0256130D03*
X0124051Y0256130D03*
X0123951Y0256130D03*
X0123851Y0256130D03*
X0123751Y0256130D03*
X0123651Y0256130D03*
X0123551Y0256130D03*
X0123451Y0256130D03*
X0123351Y0256130D03*
X0123251Y0256130D03*
X0123151Y0256130D03*
X0123051Y0256130D03*
X0122951Y0256130D03*
X0122851Y0256130D03*
X0122751Y0256130D03*
X0122651Y0256130D03*
X0122551Y0256130D03*
X0122451Y0256130D03*
X0122351Y0256130D03*
X0122251Y0256130D03*
X0122151Y0256130D03*
X0122051Y0256130D03*
X0121951Y0256130D03*
X0121851Y0256130D03*
X0121751Y0256130D03*
X0121651Y0256130D03*
X0121551Y0256130D03*
X0121451Y0256130D03*
X0121351Y0256130D03*
X0121251Y0256130D03*
X0121151Y0256130D03*
X0121051Y0256130D03*
X0120951Y0256130D03*
X0120851Y0256130D03*
X0120751Y0256130D03*
X0120651Y0256130D03*
X0120551Y0256130D03*
X0120451Y0256130D03*
X0120351Y0256130D03*
X0120251Y0256130D03*
X0117551Y0256130D03*
X0117451Y0256130D03*
X0117351Y0256130D03*
X0117251Y0256130D03*
X0117151Y0256130D03*
X0117051Y0256130D03*
X0116951Y0256130D03*
X0116851Y0256130D03*
X0116751Y0256130D03*
X0116651Y0256130D03*
X0116551Y0256130D03*
X0116451Y0256130D03*
X0116351Y0256130D03*
X0116251Y0256130D03*
X0116151Y0256130D03*
X0116051Y0256130D03*
X0115951Y0256130D03*
X0115851Y0256130D03*
X0115751Y0256130D03*
X0115651Y0256130D03*
X0115551Y0256130D03*
X0115451Y0256130D03*
X0115351Y0256130D03*
X0115251Y0256130D03*
X0115151Y0256130D03*
X0115051Y0256130D03*
X0114951Y0256130D03*
X0114851Y0256130D03*
X0114751Y0256130D03*
X0114651Y0256130D03*
X0114551Y0256130D03*
X0114451Y0256130D03*
X0114351Y0256130D03*
X0114251Y0256130D03*
X0114151Y0256130D03*
X0114051Y0256130D03*
X0113951Y0256130D03*
X0113851Y0256130D03*
X0113851Y0262930D03*
X0113851Y0276530D03*
X0127251Y0269730D03*
X0133551Y0276530D03*
X0126751Y0209230D03*
X0122751Y0209230D03*
X0126833Y0158543D03*
X0126933Y0158543D03*
X0131433Y0152743D03*
X0131533Y0152743D03*
D28*
X0131233Y0156393D03*
X0127533Y0154593D03*
X0133333Y0147793D03*
X0133433Y0145093D03*
X0132433Y0144893D03*
X0132133Y0145193D03*
X0131233Y0145093D03*
X0127551Y0197980D03*
X0126651Y0198180D03*
X0131251Y0208680D03*
D29*
X0128851Y0205380D03*
X0126551Y0198180D03*
X0133433Y0147793D03*
X0132033Y0145393D03*
D30*
X0128733Y0154843D03*
X0128633Y0154843D03*
X0126833Y0152043D03*
X0126733Y0152043D03*
X0131333Y0159343D03*
X0131433Y0159343D03*
X0133233Y0156443D03*
X0128633Y0162243D03*
X0128533Y0162243D03*
X0126733Y0165243D03*
X0126633Y0165243D03*
X0131333Y0165043D03*
X0133333Y0165043D03*
X0128751Y0198230D03*
X0128651Y0198230D03*
X0128651Y0202330D03*
X0128751Y0202330D03*
X0131251Y0205930D03*
X0133251Y0208730D03*
X0133351Y0208730D03*
X0133451Y0205930D03*
X0126751Y0202330D03*
D31*
X0126651Y0202280D03*
X0128551Y0205380D03*
X0127751Y0198180D03*
X0132351Y0208680D03*
X0133451Y0208680D03*
X0122651Y0210080D03*
X0131233Y0164993D03*
X0128733Y0162193D03*
X0133333Y0156393D03*
X0127733Y0154793D03*
X0133133Y0147793D03*
D32*
X0133233Y0147793D03*
X0131433Y0147793D03*
X0131433Y0145093D03*
X0133333Y0145093D03*
X0127633Y0154693D03*
X0131333Y0156393D03*
X0131433Y0156393D03*
X0127651Y0198080D03*
X0128651Y0205380D03*
X0126851Y0205480D03*
X0132251Y0208580D03*
D33*
X0131451Y0205880D03*
X0131351Y0205880D03*
X0133251Y0205880D03*
X0133351Y0205880D03*
X0128551Y0202380D03*
X0128451Y0202380D03*
X0126951Y0202380D03*
X0126851Y0202380D03*
X0126833Y0165193D03*
X0126933Y0165193D03*
X0128433Y0162293D03*
X0131433Y0165093D03*
X0131533Y0165093D03*
X0133133Y0165093D03*
X0133233Y0165093D03*
X0131533Y0159293D03*
X0126933Y0151993D03*
D34*
X0126833Y0154843D03*
X0131533Y0147843D03*
X0133233Y0145043D03*
X0132333Y0156343D03*
X0126851Y0198230D03*
X0131451Y0208730D03*
D35*
X0131551Y0205830D03*
X0133151Y0205830D03*
X0127451Y0205430D03*
D36*
X0126351Y0207930D03*
X0129033Y0158543D03*
X0126333Y0157343D03*
X0129033Y0152843D03*
X0126333Y0151643D03*
X0130933Y0147843D03*
X0132633Y0146943D03*
D37*
X0131333Y0147843D03*
X0131333Y0145143D03*
X0132233Y0145143D03*
X0132333Y0145043D03*
X0132233Y0156243D03*
X0126733Y0154843D03*
X0126633Y0154843D03*
X0126751Y0198230D03*
X0126751Y0205430D03*
X0128751Y0205430D03*
X0131351Y0208730D03*
D38*
X0132151Y0208430D03*
X0126651Y0205430D03*
X0132133Y0156143D03*
X0131233Y0147843D03*
D39*
X0131333Y0152793D03*
X0126733Y0158593D03*
X0120151Y0249180D03*
D40*
X0126351Y0209580D03*
X0130951Y0205480D03*
X0130933Y0165393D03*
X0130933Y0158893D03*
X0130933Y0153193D03*
X0130933Y0151593D03*
X0126333Y0158993D03*
X0126333Y0164793D03*
D41*
X0129151Y0202630D03*
D42*
X0125133Y0179243D03*
D43*
X0125151Y0219730D03*
X0116651Y0228230D03*
D44*
X0116651Y0245780D03*
X0116551Y0245780D03*
X0116451Y0245780D03*
X0116351Y0245780D03*
X0116251Y0245780D03*
X0116151Y0245780D03*
X0116051Y0245780D03*
X0115951Y0245780D03*
X0115851Y0245780D03*
X0115751Y0245780D03*
X0115651Y0245780D03*
X0115551Y0245780D03*
X0115451Y0245780D03*
X0115351Y0245780D03*
X0115251Y0245780D03*
X0115151Y0245780D03*
X0115051Y0245780D03*
X0114951Y0245780D03*
X0114851Y0245780D03*
X0114751Y0245780D03*
X0114651Y0245780D03*
X0114551Y0245780D03*
X0114451Y0245780D03*
X0114351Y0245780D03*
X0114251Y0245780D03*
X0114151Y0245780D03*
X0114051Y0245780D03*
X0113951Y0245780D03*
X0113851Y0245780D03*
X0116751Y0245780D03*
X0116851Y0245780D03*
X0116951Y0245780D03*
X0117051Y0245780D03*
X0117151Y0245780D03*
X0117251Y0245780D03*
X0117351Y0245780D03*
X0117451Y0245780D03*
X0117551Y0245780D03*
X0117651Y0245780D03*
D45*
X0116633Y0179193D03*
D46*
X0116533Y0179243D03*
X0116433Y0179243D03*
X0116333Y0179243D03*
X0116233Y0179243D03*
X0116133Y0179243D03*
X0116033Y0179243D03*
X0115933Y0179243D03*
X0115833Y0179243D03*
X0115733Y0179243D03*
X0115633Y0179243D03*
X0115533Y0179243D03*
X0115433Y0179243D03*
X0115333Y0179243D03*
X0115233Y0179243D03*
X0115133Y0179243D03*
X0115033Y0179243D03*
X0114933Y0179243D03*
X0114833Y0179243D03*
X0114733Y0179243D03*
X0114633Y0179243D03*
X0114533Y0179243D03*
X0114433Y0179243D03*
X0114333Y0179243D03*
X0114233Y0179243D03*
X0114133Y0179243D03*
X0114033Y0179243D03*
X0113933Y0179243D03*
D47*
X0113833Y0179193D03*
D48*
X0072657Y0234359D02*
X0073224Y0234926D01*
X0073224Y0237195D01*
X0072657Y0237762D01*
X0071523Y0237762D01*
X0070955Y0237195D01*
X0070955Y0236061D02*
X0072090Y0236061D01*
X0070955Y0236061D02*
X0070955Y0234926D01*
X0071523Y0234359D01*
X0072657Y0234359D01*
X0069541Y0234359D02*
X0069541Y0237762D01*
X0067272Y0234359D01*
X0067272Y0237762D01*
X0065858Y0237762D02*
X0064156Y0237762D01*
X0063589Y0237195D01*
X0063589Y0234926D01*
X0064156Y0234359D01*
X0065858Y0234359D01*
X0065858Y0237762D01*
X0065796Y0240265D02*
X0068065Y0243667D01*
X0069479Y0243100D02*
X0069479Y0241966D01*
X0070046Y0241399D01*
X0071748Y0241399D01*
X0071748Y0240265D02*
X0071748Y0243667D01*
X0070046Y0243667D01*
X0069479Y0243100D01*
X0070613Y0241399D02*
X0069479Y0240265D01*
X0068065Y0240265D02*
X0065796Y0243667D01*
X0065291Y0246170D02*
X0064156Y0246170D01*
X0063589Y0246737D01*
X0065291Y0246170D02*
X0065858Y0246737D01*
X0065858Y0249006D01*
X0065291Y0249573D01*
X0064156Y0249573D01*
X0063589Y0249006D01*
X0060429Y0249573D02*
X0058160Y0249573D01*
X0059294Y0249573D02*
X0059294Y0246170D01*
X0059206Y0243667D02*
X0059206Y0240265D01*
X0056938Y0240265D01*
X0055523Y0240265D02*
X0055523Y0243667D01*
X0054956Y0241966D02*
X0053254Y0240265D01*
X0055523Y0241399D02*
X0053254Y0243667D01*
X0054477Y0246170D02*
X0056746Y0249573D01*
X0054477Y0249573D02*
X0056746Y0246170D01*
X0056272Y0237762D02*
X0055705Y0237195D01*
X0055705Y0234926D01*
X0056272Y0234359D01*
X0057406Y0234359D01*
X0057973Y0234926D01*
X0057973Y0237195D01*
X0057406Y0237762D01*
X0056272Y0237762D01*
X0059294Y0237762D02*
X0060429Y0237762D01*
X0059862Y0237762D02*
X0059862Y0234359D01*
X0060429Y0234359D02*
X0059294Y0234359D01*
X0061188Y0240265D02*
X0060621Y0240832D01*
X0061188Y0240265D02*
X0062322Y0240265D01*
X0062889Y0240832D01*
X0062889Y0243100D01*
X0062322Y0243667D01*
X0061188Y0243667D01*
X0060621Y0243100D01*
X0067272Y0246737D02*
X0067839Y0246170D01*
X0068974Y0246170D01*
X0069541Y0246737D01*
X0069541Y0249006D01*
X0068974Y0249573D01*
X0067839Y0249573D01*
X0067272Y0249006D01*
X0070955Y0249573D02*
X0070955Y0247304D01*
X0072090Y0246170D01*
X0073224Y0247304D01*
X0073224Y0249573D01*
X0038313Y0186819D02*
X0036611Y0186819D01*
X0038313Y0186819D02*
X0038880Y0186252D01*
X0038880Y0184550D01*
X0036611Y0184550D01*
X0037746Y0183136D02*
X0037746Y0180867D01*
X0037179Y0180867D02*
X0038313Y0180867D01*
X0038880Y0181434D01*
X0038880Y0182569D01*
X0038313Y0183136D01*
X0037746Y0183136D01*
X0036611Y0182569D02*
X0036611Y0181434D01*
X0037179Y0180867D01*
X0036611Y0179546D02*
X0036611Y0178412D01*
X0036611Y0178979D02*
X0040014Y0178979D01*
X0040014Y0178412D01*
X0040014Y0176523D02*
X0036611Y0176523D01*
X0036611Y0175956D02*
X0036611Y0177091D01*
X0036611Y0174542D02*
X0038880Y0174542D01*
X0040014Y0175956D02*
X0040014Y0176523D01*
X0042611Y0176997D02*
X0042611Y0175296D01*
X0043179Y0174729D01*
X0043746Y0175296D01*
X0043746Y0176997D01*
X0044313Y0176997D02*
X0042611Y0176997D01*
X0042611Y0178412D02*
X0044880Y0178412D01*
X0044880Y0180113D01*
X0044313Y0180680D01*
X0042611Y0180680D01*
X0044313Y0176997D02*
X0044880Y0176430D01*
X0044880Y0175296D01*
X0044313Y0173314D02*
X0042611Y0173314D01*
X0042611Y0172180D02*
X0044313Y0172180D01*
X0044880Y0172747D01*
X0044313Y0173314D01*
X0044313Y0172180D02*
X0044880Y0171613D01*
X0044880Y0171045D01*
X0042611Y0171045D01*
X0040014Y0170859D02*
X0036611Y0170859D01*
X0037179Y0172273D02*
X0036611Y0172840D01*
X0036611Y0174542D01*
X0037179Y0172273D02*
X0038880Y0172273D01*
X0040014Y0170859D02*
X0038880Y0169724D01*
X0040014Y0168590D01*
X0036611Y0168590D01*
X0036611Y0167175D02*
X0036611Y0165474D01*
X0037179Y0164907D01*
X0038313Y0164907D01*
X0038880Y0165474D01*
X0038880Y0167175D01*
X0038313Y0163492D02*
X0036611Y0163492D01*
X0036611Y0161791D01*
X0037179Y0161224D01*
X0037746Y0161791D01*
X0037746Y0163492D01*
X0038313Y0163492D02*
X0038880Y0162925D01*
X0038880Y0161791D01*
X0040014Y0159809D02*
X0036611Y0159809D01*
X0036611Y0157541D02*
X0040014Y0157541D01*
X0038880Y0158675D01*
X0040014Y0159809D01*
X0042611Y0158628D02*
X0042611Y0157494D01*
X0043179Y0156927D01*
X0044313Y0156927D01*
X0044880Y0157494D01*
X0044880Y0158628D01*
X0044313Y0159195D01*
X0043746Y0159195D01*
X0043746Y0156927D01*
X0042611Y0155512D02*
X0042611Y0153244D01*
X0046014Y0153244D01*
X0044313Y0148146D02*
X0042611Y0148146D01*
X0044313Y0148146D02*
X0044880Y0147579D01*
X0044880Y0145877D01*
X0042611Y0145877D01*
X0043746Y0144463D02*
X0043746Y0142194D01*
X0044313Y0142194D02*
X0044880Y0142761D01*
X0044880Y0143896D01*
X0044313Y0144463D01*
X0043746Y0144463D01*
X0042611Y0143896D02*
X0042611Y0142761D01*
X0043179Y0142194D01*
X0044313Y0142194D01*
X0044880Y0140826D02*
X0044880Y0140259D01*
X0043746Y0139125D01*
X0044880Y0139125D02*
X0042611Y0139125D01*
X0043179Y0137710D02*
X0042611Y0137143D01*
X0042611Y0136009D01*
X0043179Y0135442D01*
X0045447Y0135442D01*
X0046014Y0136009D01*
X0046014Y0137143D01*
X0045447Y0137710D01*
X0043179Y0137710D01*
X0040014Y0136576D02*
X0038880Y0137710D01*
X0036611Y0137710D01*
X0036611Y0139125D02*
X0038880Y0139125D01*
X0038880Y0140826D01*
X0038313Y0141393D01*
X0036611Y0141393D01*
X0037179Y0142808D02*
X0036611Y0143375D01*
X0036611Y0145077D01*
X0036044Y0145077D02*
X0038880Y0145077D01*
X0038880Y0143375D01*
X0038313Y0142808D01*
X0037179Y0142808D01*
X0035477Y0143942D02*
X0035477Y0144509D01*
X0036044Y0145077D01*
X0037179Y0146491D02*
X0036611Y0147058D01*
X0036611Y0148760D01*
X0038880Y0148760D01*
X0038313Y0150174D02*
X0037746Y0150741D01*
X0037746Y0151876D01*
X0037179Y0152443D01*
X0036611Y0151876D01*
X0036611Y0150174D01*
X0038313Y0150174D02*
X0038880Y0150741D01*
X0038880Y0152443D01*
X0038880Y0146491D02*
X0037179Y0146491D01*
X0034014Y0148947D02*
X0032880Y0150081D01*
X0034014Y0151215D01*
X0030611Y0151215D01*
X0031179Y0152630D02*
X0032313Y0152630D01*
X0032880Y0153197D01*
X0032880Y0154331D01*
X0032313Y0154898D01*
X0031746Y0154898D01*
X0031746Y0152630D01*
X0031179Y0152630D02*
X0030611Y0153197D01*
X0030611Y0154331D01*
X0031179Y0156313D02*
X0032313Y0156313D01*
X0032880Y0156880D01*
X0032880Y0158581D01*
X0034014Y0158581D02*
X0030611Y0158581D01*
X0030611Y0156880D01*
X0031179Y0156313D01*
X0030611Y0159996D02*
X0030611Y0161130D01*
X0030611Y0160563D02*
X0032880Y0160563D01*
X0032880Y0159996D01*
X0034014Y0160563D02*
X0034581Y0160563D01*
X0032880Y0163019D02*
X0032880Y0164153D01*
X0032313Y0164720D01*
X0030611Y0164720D01*
X0030611Y0163019D01*
X0031179Y0162451D01*
X0031746Y0163019D01*
X0031746Y0164720D01*
X0030611Y0169818D02*
X0030611Y0172086D01*
X0031179Y0173501D02*
X0031746Y0174068D01*
X0031746Y0175769D01*
X0032313Y0175769D02*
X0030611Y0175769D01*
X0030611Y0174068D01*
X0031179Y0173501D01*
X0032880Y0174068D02*
X0032880Y0175202D01*
X0032313Y0175769D01*
X0032880Y0177184D02*
X0032880Y0178885D01*
X0032313Y0179453D01*
X0031179Y0179453D01*
X0030611Y0178885D01*
X0030611Y0177184D01*
X0034014Y0177184D01*
X0034014Y0169818D02*
X0030611Y0169818D01*
X0028014Y0172700D02*
X0024611Y0172700D01*
X0024611Y0170999D01*
X0025179Y0170432D01*
X0026313Y0170432D01*
X0026880Y0170999D01*
X0026880Y0172700D01*
X0026880Y0174115D02*
X0026880Y0174682D01*
X0024611Y0174682D01*
X0024611Y0174115D02*
X0024611Y0175249D01*
X0025179Y0176570D02*
X0025746Y0177137D01*
X0025746Y0178839D01*
X0026313Y0178839D02*
X0024611Y0178839D01*
X0024611Y0177137D01*
X0025179Y0176570D01*
X0026880Y0177137D02*
X0026880Y0178272D01*
X0026313Y0178839D01*
X0025179Y0180253D02*
X0025179Y0180820D01*
X0024611Y0180820D01*
X0024611Y0180253D01*
X0025179Y0180253D01*
X0024611Y0182095D02*
X0026880Y0182095D01*
X0026880Y0182662D01*
X0026313Y0183229D01*
X0026880Y0183796D01*
X0026313Y0184363D01*
X0024611Y0184363D01*
X0024611Y0183229D02*
X0026313Y0183229D01*
X0026880Y0185778D02*
X0026880Y0186345D01*
X0024611Y0186345D01*
X0024611Y0185778D02*
X0024611Y0186912D01*
X0025179Y0188801D02*
X0024611Y0189368D01*
X0025179Y0188801D02*
X0027447Y0188801D01*
X0026880Y0189368D02*
X0026880Y0188233D01*
X0028014Y0186345D02*
X0028581Y0186345D01*
X0025179Y0190689D02*
X0025179Y0191256D01*
X0024611Y0191256D01*
X0024611Y0190689D01*
X0025179Y0190689D01*
X0025179Y0192530D02*
X0026313Y0192530D01*
X0026880Y0193098D01*
X0026880Y0194232D01*
X0026313Y0194799D01*
X0025746Y0194799D01*
X0025746Y0192530D01*
X0025179Y0192530D02*
X0024611Y0193098D01*
X0024611Y0194232D01*
X0025179Y0196214D02*
X0026313Y0196214D01*
X0026880Y0196781D01*
X0026880Y0198482D01*
X0028014Y0198482D02*
X0024611Y0198482D01*
X0024611Y0196781D01*
X0025179Y0196214D01*
X0025179Y0199897D02*
X0024611Y0200464D01*
X0024611Y0202165D01*
X0026880Y0202165D01*
X0026880Y0199897D02*
X0025179Y0199897D01*
X0028014Y0174682D02*
X0028581Y0174682D01*
X0026313Y0169017D02*
X0025746Y0169017D01*
X0025746Y0166748D01*
X0026313Y0166748D02*
X0026880Y0167316D01*
X0026880Y0168450D01*
X0026313Y0169017D01*
X0024611Y0168450D02*
X0024611Y0167316D01*
X0025179Y0166748D01*
X0026313Y0166748D01*
X0026313Y0165334D02*
X0024611Y0165334D01*
X0024611Y0164200D02*
X0026313Y0164200D01*
X0026880Y0164767D01*
X0026313Y0165334D01*
X0026313Y0164200D02*
X0026880Y0163632D01*
X0026880Y0163065D01*
X0024611Y0163065D01*
X0025179Y0161651D02*
X0024611Y0161084D01*
X0024611Y0159949D01*
X0025179Y0159382D01*
X0027447Y0159382D01*
X0028014Y0159949D01*
X0028014Y0161084D01*
X0027447Y0161651D01*
X0026313Y0161651D01*
X0025746Y0161084D01*
X0026880Y0161084D01*
X0026880Y0159949D01*
X0025746Y0159949D01*
X0025746Y0161084D01*
X0026880Y0157968D02*
X0026880Y0156266D01*
X0026313Y0155699D01*
X0025179Y0155699D01*
X0024611Y0156266D01*
X0024611Y0157968D01*
X0028014Y0157968D01*
X0026313Y0154284D02*
X0025746Y0154284D01*
X0025746Y0152016D01*
X0026313Y0152016D02*
X0026880Y0152583D01*
X0026880Y0153717D01*
X0026313Y0154284D01*
X0024611Y0153717D02*
X0024611Y0152583D01*
X0025179Y0152016D01*
X0026313Y0152016D01*
X0024611Y0150695D02*
X0024611Y0149560D01*
X0024611Y0150128D02*
X0028014Y0150128D01*
X0028014Y0149560D01*
X0026313Y0148146D02*
X0024611Y0148146D01*
X0026313Y0148146D02*
X0026880Y0147579D01*
X0026880Y0145877D01*
X0024611Y0145877D01*
X0025746Y0144463D02*
X0025746Y0142194D01*
X0026313Y0142194D02*
X0026880Y0142761D01*
X0026880Y0143896D01*
X0026313Y0144463D01*
X0025746Y0144463D01*
X0024611Y0143896D02*
X0024611Y0142761D01*
X0025179Y0142194D01*
X0026313Y0142194D01*
X0026880Y0140826D02*
X0026880Y0140259D01*
X0025746Y0139125D01*
X0026880Y0139125D02*
X0024611Y0139125D01*
X0025179Y0137710D02*
X0026313Y0137710D01*
X0026880Y0137143D01*
X0026880Y0136009D01*
X0026313Y0135442D01*
X0025179Y0135442D01*
X0024611Y0136009D01*
X0024611Y0137143D01*
X0025179Y0137710D01*
X0030611Y0137710D02*
X0034014Y0137710D01*
X0032880Y0136576D01*
X0034014Y0135442D01*
X0030611Y0135442D01*
X0030611Y0139125D02*
X0030611Y0140259D01*
X0030611Y0139692D02*
X0034014Y0139692D01*
X0034014Y0139125D02*
X0034014Y0140259D01*
X0034014Y0141580D02*
X0034014Y0143849D01*
X0034014Y0142715D02*
X0030611Y0142715D01*
X0030611Y0148947D02*
X0034014Y0148947D01*
X0038313Y0137710D02*
X0038313Y0135442D01*
X0038880Y0135442D02*
X0040014Y0136576D01*
X0038880Y0135442D02*
X0036611Y0135442D01*
X0043179Y0160610D02*
X0042611Y0161177D01*
X0042611Y0162878D01*
X0046014Y0162878D01*
X0044880Y0162878D02*
X0044880Y0161177D01*
X0044313Y0160610D01*
X0043179Y0160610D01*
X0043179Y0164293D02*
X0044313Y0164293D01*
X0044880Y0164860D01*
X0044880Y0165994D01*
X0044313Y0166562D01*
X0043746Y0166562D01*
X0043746Y0164293D01*
X0043179Y0164293D02*
X0042611Y0164860D01*
X0042611Y0165994D01*
X0042611Y0167976D02*
X0044880Y0167976D01*
X0043746Y0167976D02*
X0044880Y0169110D01*
X0044880Y0169678D01*
D49*
X0089790Y0245668D03*
X0093790Y0255268D03*
X0093990Y0255268D03*
X0094190Y0255268D03*
X0094390Y0255268D03*
X0094590Y0255268D03*
X0094790Y0255268D03*
X0094990Y0255268D03*
X0095190Y0255268D03*
X0095390Y0255268D03*
X0095590Y0255268D03*
X0095790Y0255268D03*
X0095990Y0255268D03*
X0096190Y0255268D03*
X0096390Y0255268D03*
X0096590Y0255268D03*
X0096790Y0255268D03*
X0096990Y0255268D03*
X0097190Y0255268D03*
X0097390Y0255268D03*
X0097590Y0255268D03*
X0097590Y0259068D03*
X0097390Y0259068D03*
X0097190Y0259068D03*
X0096990Y0259068D03*
X0096790Y0259068D03*
X0096590Y0259068D03*
X0096390Y0259068D03*
X0096190Y0259068D03*
X0095990Y0259068D03*
X0095790Y0259068D03*
X0095590Y0259068D03*
X0095390Y0259068D03*
X0095190Y0259068D03*
X0094990Y0259068D03*
X0094790Y0259068D03*
X0094590Y0259068D03*
X0094390Y0259068D03*
X0094190Y0259068D03*
X0093990Y0259068D03*
X0093790Y0259068D03*
X0091790Y0257268D03*
X0090990Y0258868D03*
X0090790Y0258868D03*
X0090590Y0258868D03*
X0089790Y0256268D03*
X0089590Y0256268D03*
X0088990Y0256268D03*
X0088790Y0256268D03*
X0088590Y0256268D03*
X0086590Y0258068D03*
X0085790Y0256468D03*
X0084590Y0259268D03*
X0084190Y0259868D03*
X0083990Y0260268D03*
X0085790Y0260668D03*
X0085790Y0267868D03*
X0085190Y0268268D03*
X0085390Y0268668D03*
X0087190Y0267868D03*
X0087590Y0270868D03*
X0087790Y0271268D03*
X0087990Y0271468D03*
X0088590Y0272468D03*
X0088990Y0272868D03*
X0089190Y0272868D03*
X0091590Y0268468D03*
X0091790Y0268468D03*
X0091990Y0268468D03*
X0092190Y0268468D03*
X0092390Y0268468D03*
X0093190Y0268468D03*
X0093390Y0268468D03*
X0093590Y0268468D03*
X0093790Y0268468D03*
X0093990Y0268468D03*
X0094190Y0268468D03*
X0094390Y0268468D03*
X0094590Y0268468D03*
X0094790Y0268468D03*
X0094990Y0268468D03*
X0095190Y0268468D03*
X0095390Y0268468D03*
X0095590Y0268468D03*
X0095790Y0268468D03*
X0095790Y0270868D03*
X0095590Y0270868D03*
X0095390Y0270868D03*
X0095190Y0270868D03*
X0094990Y0270868D03*
X0094790Y0270868D03*
X0094590Y0270868D03*
X0095990Y0270868D03*
X0096190Y0270868D03*
X0096390Y0270868D03*
X0096590Y0270868D03*
X0096790Y0270868D03*
X0096990Y0270868D03*
X0097190Y0270868D03*
X0097390Y0270868D03*
X0097590Y0270868D03*
X0097790Y0270868D03*
X0097990Y0270868D03*
X0098190Y0270868D03*
X0098390Y0270868D03*
X0098390Y0274668D03*
X0098190Y0274668D03*
X0097990Y0274668D03*
X0097790Y0274668D03*
X0097590Y0274668D03*
X0097390Y0274668D03*
X0097190Y0274668D03*
X0096990Y0274668D03*
X0096790Y0274668D03*
X0096590Y0274668D03*
X0096390Y0274668D03*
X0096190Y0274668D03*
X0095990Y0274668D03*
X0095790Y0274668D03*
X0095590Y0274668D03*
X0095390Y0274668D03*
X0095190Y0274668D03*
X0094990Y0274668D03*
X0094790Y0274668D03*
X0094590Y0274668D03*
X0103990Y0273468D03*
X0103990Y0272068D03*
X0110190Y0265468D03*
X0103190Y0257868D03*
X0103190Y0256668D03*
X0106390Y0248068D03*
X0107790Y0246668D03*
X0103390Y0239668D03*
X0102390Y0239668D03*
X0098990Y0241868D03*
X0107790Y0227668D03*
X0098990Y0220468D03*
X0097990Y0223268D03*
X0095190Y0218468D03*
X0095190Y0212068D03*
X0098990Y0215268D03*
D50*
X0097390Y0216768D03*
X0097190Y0216768D03*
X0096990Y0216768D03*
X0096790Y0216768D03*
X0096790Y0218368D03*
X0096590Y0218368D03*
X0096390Y0218368D03*
X0096190Y0218368D03*
X0095990Y0218368D03*
X0095790Y0218368D03*
X0095590Y0218368D03*
X0095390Y0218368D03*
X0094590Y0218568D03*
X0093790Y0218568D03*
X0094190Y0221168D03*
X0094390Y0221168D03*
X0094590Y0221168D03*
X0094790Y0221168D03*
X0096190Y0221168D03*
X0096390Y0221168D03*
X0096590Y0221168D03*
X0096790Y0221168D03*
X0096990Y0221168D03*
X0097190Y0221168D03*
X0097390Y0221168D03*
X0097590Y0221168D03*
X0097790Y0221168D03*
X0097990Y0221168D03*
X0097990Y0218368D03*
X0097790Y0218368D03*
X0097590Y0218368D03*
X0097390Y0218368D03*
X0097190Y0218368D03*
X0096990Y0218368D03*
X0098190Y0218368D03*
X0098390Y0218368D03*
X0098590Y0218368D03*
X0098790Y0218368D03*
X0098790Y0212168D03*
X0098590Y0212168D03*
X0098390Y0212168D03*
X0098190Y0212168D03*
X0097990Y0212168D03*
X0097790Y0212168D03*
X0097590Y0212168D03*
X0097390Y0212168D03*
X0097190Y0212168D03*
X0096990Y0212168D03*
X0096790Y0212168D03*
X0095390Y0212168D03*
X0096590Y0209568D03*
X0096790Y0209568D03*
X0096990Y0209568D03*
X0097190Y0209568D03*
X0097390Y0209568D03*
X0097590Y0209568D03*
X0097790Y0209568D03*
X0097990Y0209568D03*
X0098190Y0209568D03*
X0098390Y0209568D03*
X0098590Y0209568D03*
X0098790Y0209568D03*
X0105190Y0222368D03*
X0106790Y0222968D03*
X0105190Y0225168D03*
X0104790Y0226768D03*
X0105390Y0229168D03*
X0105590Y0229168D03*
X0105790Y0229168D03*
X0105990Y0229168D03*
X0105990Y0230768D03*
X0105790Y0230768D03*
X0105590Y0230768D03*
X0105390Y0230768D03*
X0106190Y0230768D03*
X0106390Y0230768D03*
X0106590Y0230768D03*
X0106790Y0230768D03*
X0106990Y0230768D03*
X0107190Y0230768D03*
X0107390Y0230768D03*
X0107590Y0230768D03*
X0107590Y0233368D03*
X0107390Y0233368D03*
X0107190Y0233368D03*
X0106990Y0233368D03*
X0106790Y0233368D03*
X0106590Y0233368D03*
X0106390Y0233368D03*
X0106190Y0233368D03*
X0105990Y0233368D03*
X0105790Y0233368D03*
X0105590Y0233368D03*
X0105390Y0233368D03*
X0105190Y0233368D03*
X0103990Y0233368D03*
X0106790Y0235568D03*
X0106390Y0237768D03*
X0105190Y0237768D03*
X0104990Y0237768D03*
X0104990Y0239568D03*
X0104790Y0239568D03*
X0104590Y0239568D03*
X0104390Y0239568D03*
X0104190Y0239568D03*
X0103990Y0239568D03*
X0105190Y0239568D03*
X0105390Y0239568D03*
X0105590Y0239568D03*
X0105790Y0239568D03*
X0105990Y0239568D03*
X0106190Y0239568D03*
X0106390Y0239568D03*
X0106590Y0239568D03*
X0106790Y0239568D03*
X0106990Y0239568D03*
X0107190Y0239568D03*
X0107390Y0239568D03*
X0107590Y0239568D03*
X0106190Y0243768D03*
X0105990Y0243768D03*
X0105790Y0243768D03*
X0105590Y0243768D03*
X0105390Y0243768D03*
X0104790Y0241568D03*
X0098990Y0245968D03*
X0097790Y0244768D03*
X0097590Y0243168D03*
X0097390Y0243168D03*
X0097190Y0243168D03*
X0096990Y0243168D03*
X0096790Y0243168D03*
X0096590Y0243168D03*
X0095190Y0244768D03*
X0096590Y0240368D03*
X0096790Y0240368D03*
X0096990Y0240368D03*
X0097190Y0240368D03*
X0097390Y0240368D03*
X0097390Y0235968D03*
X0097190Y0235968D03*
X0096990Y0235968D03*
X0096790Y0235968D03*
X0097590Y0235968D03*
X0097790Y0235968D03*
X0097990Y0235968D03*
X0098190Y0235968D03*
X0098390Y0235968D03*
X0098590Y0235968D03*
X0098790Y0235968D03*
X0098790Y0234168D03*
X0098590Y0234168D03*
X0098390Y0234168D03*
X0098190Y0234168D03*
X0097990Y0234168D03*
X0097790Y0234168D03*
X0097590Y0234168D03*
X0097390Y0234168D03*
X0097190Y0234168D03*
X0096990Y0234168D03*
X0096790Y0234168D03*
X0096590Y0234168D03*
X0095390Y0234168D03*
X0095190Y0234168D03*
X0096990Y0231568D03*
X0097190Y0231568D03*
X0097390Y0231568D03*
X0097590Y0231568D03*
X0097790Y0231568D03*
X0097990Y0231568D03*
X0098190Y0231568D03*
X0098390Y0231568D03*
X0098590Y0231568D03*
X0098790Y0231568D03*
X0097590Y0229968D03*
X0098990Y0228568D03*
X0096590Y0227168D03*
X0095190Y0238568D03*
X0090190Y0241168D03*
X0089990Y0241168D03*
X0089790Y0241168D03*
X0089590Y0241168D03*
X0089390Y0241168D03*
X0089190Y0241168D03*
X0088990Y0241168D03*
X0088790Y0241168D03*
X0088590Y0241168D03*
X0088390Y0241168D03*
X0088190Y0241168D03*
X0087990Y0241168D03*
X0087790Y0241168D03*
X0087590Y0241168D03*
X0087390Y0241168D03*
X0087190Y0241168D03*
X0086990Y0241168D03*
X0086790Y0241168D03*
X0086590Y0241168D03*
X0086390Y0241168D03*
X0086190Y0241168D03*
X0085990Y0241168D03*
X0085790Y0241168D03*
X0085590Y0241168D03*
X0085390Y0241168D03*
X0089590Y0245568D03*
X0089390Y0256168D03*
X0090190Y0258768D03*
X0090390Y0258768D03*
X0090390Y0259968D03*
X0090190Y0259968D03*
X0089990Y0259968D03*
X0089790Y0259968D03*
X0089590Y0259968D03*
X0089390Y0259968D03*
X0089190Y0259968D03*
X0088990Y0259968D03*
X0088790Y0259968D03*
X0088590Y0259968D03*
X0085990Y0256168D03*
X0083790Y0260568D03*
X0082790Y0260368D03*
X0083790Y0264568D03*
X0083990Y0264968D03*
X0084190Y0265168D03*
X0083790Y0269768D03*
X0086990Y0269568D03*
X0087390Y0270568D03*
X0088190Y0271768D03*
X0089390Y0272968D03*
X0089590Y0272968D03*
X0090790Y0272768D03*
X0092590Y0272768D03*
X0092390Y0267368D03*
X0092190Y0267368D03*
X0091990Y0267368D03*
X0091790Y0267368D03*
X0093190Y0267368D03*
X0093390Y0267368D03*
X0093590Y0267368D03*
X0093790Y0267368D03*
X0093990Y0267368D03*
X0094190Y0267368D03*
X0094390Y0267368D03*
X0091390Y0264568D03*
X0090990Y0259968D03*
X0090790Y0259968D03*
X0090590Y0259968D03*
X0091990Y0259968D03*
X0092190Y0259968D03*
X0092390Y0259968D03*
X0097590Y0256568D03*
X0097790Y0256568D03*
X0097990Y0256568D03*
X0098190Y0256568D03*
X0098390Y0256568D03*
X0098590Y0256568D03*
X0098790Y0256568D03*
X0098990Y0256568D03*
X0099190Y0256568D03*
X0099390Y0256568D03*
X0099590Y0256568D03*
X0099790Y0256568D03*
X0099990Y0256568D03*
X0100190Y0256568D03*
X0100390Y0256568D03*
X0100590Y0256568D03*
X0100790Y0256568D03*
X0100990Y0256568D03*
X0101190Y0256568D03*
X0101390Y0256568D03*
X0101590Y0256568D03*
X0101790Y0256568D03*
X0101990Y0256568D03*
X0102190Y0256568D03*
X0102390Y0256568D03*
X0102590Y0256568D03*
X0102790Y0256568D03*
X0102990Y0256568D03*
X0102990Y0257968D03*
X0102390Y0261768D03*
X0102390Y0267168D03*
X0102390Y0271968D03*
X0102190Y0271968D03*
X0101990Y0271968D03*
X0101790Y0271968D03*
X0101590Y0271968D03*
X0101390Y0271968D03*
X0101190Y0271968D03*
X0100990Y0271968D03*
X0100790Y0271968D03*
X0100590Y0271968D03*
X0100390Y0271968D03*
X0100190Y0271968D03*
X0099990Y0271968D03*
X0099790Y0271968D03*
X0099590Y0271968D03*
X0099390Y0271968D03*
X0099190Y0271968D03*
X0098990Y0271968D03*
X0098790Y0271968D03*
X0098590Y0271968D03*
X0098390Y0271968D03*
X0098390Y0273368D03*
X0098590Y0273368D03*
X0098790Y0273368D03*
X0098990Y0273368D03*
X0099190Y0273368D03*
X0099390Y0273368D03*
X0099590Y0273368D03*
X0099790Y0273368D03*
X0099990Y0273368D03*
X0100190Y0273368D03*
X0100390Y0273368D03*
X0100590Y0273368D03*
X0100790Y0273368D03*
X0100990Y0273368D03*
X0101190Y0273368D03*
X0101390Y0273368D03*
X0101590Y0273368D03*
X0101790Y0273368D03*
X0101990Y0273368D03*
X0102190Y0273368D03*
X0102390Y0273368D03*
X0102590Y0273368D03*
X0102790Y0273368D03*
X0102990Y0273368D03*
X0103190Y0273368D03*
X0103390Y0273368D03*
X0103590Y0273368D03*
X0103790Y0273368D03*
X0103790Y0271968D03*
X0103590Y0271968D03*
X0103390Y0271968D03*
X0103190Y0271968D03*
X0102990Y0271968D03*
X0102790Y0271968D03*
X0102590Y0271968D03*
X0110190Y0263568D03*
D51*
X0109990Y0265468D03*
X0102190Y0267068D03*
X0101990Y0267068D03*
X0101790Y0267068D03*
X0101590Y0267068D03*
X0101390Y0267068D03*
X0101190Y0267068D03*
X0100990Y0267068D03*
X0100790Y0267068D03*
X0100590Y0267068D03*
X0100390Y0267068D03*
X0100190Y0267068D03*
X0099990Y0267068D03*
X0099790Y0267068D03*
X0099590Y0267068D03*
X0099390Y0267068D03*
X0099190Y0267068D03*
X0098990Y0267068D03*
X0098790Y0267068D03*
X0098590Y0267068D03*
X0098390Y0267068D03*
X0098190Y0267068D03*
X0097990Y0267068D03*
X0097790Y0267068D03*
X0097590Y0267068D03*
X0097390Y0267068D03*
X0097190Y0267068D03*
X0096990Y0267068D03*
X0096790Y0267068D03*
X0096790Y0261868D03*
X0096990Y0261868D03*
X0097190Y0261868D03*
X0097390Y0261868D03*
X0097590Y0261868D03*
X0097790Y0261868D03*
X0097990Y0261868D03*
X0098190Y0261868D03*
X0098390Y0261868D03*
X0098590Y0261868D03*
X0098790Y0261868D03*
X0098990Y0261868D03*
X0099190Y0261868D03*
X0099390Y0261868D03*
X0099590Y0261868D03*
X0099790Y0261868D03*
X0099990Y0261868D03*
X0100190Y0261868D03*
X0100390Y0261868D03*
X0100590Y0261868D03*
X0100790Y0261868D03*
X0100990Y0261868D03*
X0101190Y0261868D03*
X0101390Y0261868D03*
X0101590Y0261868D03*
X0101790Y0261868D03*
X0101990Y0261868D03*
X0102190Y0261868D03*
X0102190Y0257868D03*
X0101990Y0257868D03*
X0101790Y0257868D03*
X0101590Y0257868D03*
X0101390Y0257868D03*
X0101190Y0257868D03*
X0100990Y0257868D03*
X0100790Y0257868D03*
X0100590Y0257868D03*
X0100390Y0257868D03*
X0100190Y0257868D03*
X0099990Y0257868D03*
X0099790Y0257868D03*
X0099590Y0257868D03*
X0099390Y0257868D03*
X0099190Y0257868D03*
X0098990Y0257868D03*
X0098790Y0257868D03*
X0098590Y0257868D03*
X0098390Y0257868D03*
X0098190Y0257868D03*
X0097990Y0257868D03*
X0097790Y0257868D03*
X0097590Y0257868D03*
X0102390Y0257868D03*
X0102590Y0257868D03*
X0102790Y0257868D03*
X0103990Y0248068D03*
X0103790Y0247868D03*
X0105990Y0245468D03*
X0106190Y0245468D03*
X0106390Y0245468D03*
X0106390Y0243668D03*
X0105190Y0243668D03*
X0105390Y0237868D03*
X0106590Y0237668D03*
X0105390Y0235068D03*
X0105190Y0235068D03*
X0104990Y0235268D03*
X0104790Y0235268D03*
X0104990Y0233268D03*
X0104990Y0230868D03*
X0105190Y0230868D03*
X0105190Y0229068D03*
X0106190Y0229068D03*
X0106390Y0229068D03*
X0106390Y0225068D03*
X0106190Y0225068D03*
X0105390Y0225068D03*
X0104990Y0225068D03*
X0104990Y0222468D03*
X0105390Y0222468D03*
X0097790Y0225468D03*
X0097590Y0225668D03*
X0097390Y0225668D03*
X0097190Y0225668D03*
X0096990Y0225668D03*
X0096790Y0225668D03*
X0096590Y0225668D03*
X0096390Y0225468D03*
X0096390Y0227268D03*
X0096190Y0227468D03*
X0096190Y0229668D03*
X0096390Y0229868D03*
X0096590Y0229868D03*
X0097790Y0229868D03*
X0097990Y0229668D03*
X0096790Y0231668D03*
X0096590Y0231668D03*
X0096390Y0231668D03*
X0096190Y0231668D03*
X0095190Y0232468D03*
X0096390Y0234068D03*
X0096390Y0236068D03*
X0096190Y0236068D03*
X0096590Y0236068D03*
X0095190Y0236868D03*
X0095390Y0238668D03*
X0096590Y0238668D03*
X0096790Y0238668D03*
X0096990Y0238668D03*
X0097190Y0238668D03*
X0097390Y0238668D03*
X0097590Y0238668D03*
X0097790Y0238668D03*
X0097990Y0238668D03*
X0098190Y0238668D03*
X0098390Y0238668D03*
X0098590Y0238668D03*
X0098790Y0238668D03*
X0097790Y0240468D03*
X0097590Y0240468D03*
X0096390Y0240468D03*
X0096390Y0243068D03*
X0097790Y0243068D03*
X0097590Y0247868D03*
X0097190Y0248068D03*
X0096990Y0248068D03*
X0096590Y0248268D03*
X0096390Y0248268D03*
X0095990Y0248068D03*
X0095790Y0248068D03*
X0093990Y0246068D03*
X0090190Y0247868D03*
X0089990Y0247868D03*
X0089790Y0247868D03*
X0089590Y0247868D03*
X0089390Y0247868D03*
X0089190Y0247868D03*
X0088990Y0247868D03*
X0088790Y0247868D03*
X0088590Y0247868D03*
X0088390Y0247868D03*
X0088190Y0247868D03*
X0087990Y0247868D03*
X0087790Y0247868D03*
X0087590Y0247868D03*
X0087590Y0246468D03*
X0087790Y0244868D03*
X0087790Y0243268D03*
X0087590Y0243268D03*
X0087990Y0243268D03*
X0088190Y0243268D03*
X0088390Y0243268D03*
X0088590Y0243268D03*
X0088790Y0243268D03*
X0088990Y0243268D03*
X0089190Y0243268D03*
X0089390Y0243268D03*
X0089590Y0243268D03*
X0089790Y0243268D03*
X0089990Y0243268D03*
X0090190Y0243268D03*
X0089390Y0245668D03*
X0089390Y0238068D03*
X0089190Y0238068D03*
X0088990Y0238068D03*
X0088790Y0238068D03*
X0088590Y0238068D03*
X0088390Y0238068D03*
X0088190Y0238068D03*
X0087990Y0238068D03*
X0087790Y0238068D03*
X0087590Y0238068D03*
X0087390Y0238068D03*
X0087190Y0238068D03*
X0086990Y0238068D03*
X0086790Y0238068D03*
X0086590Y0238068D03*
X0089590Y0238068D03*
X0089790Y0238068D03*
X0089990Y0238068D03*
X0090190Y0238068D03*
X0094990Y0221268D03*
X0095990Y0221268D03*
X0094390Y0218468D03*
X0094190Y0218468D03*
X0093990Y0218468D03*
X0096390Y0216668D03*
X0096590Y0216668D03*
X0097590Y0216668D03*
X0097590Y0213868D03*
X0097390Y0213868D03*
X0097190Y0213868D03*
X0096990Y0213868D03*
X0096790Y0213868D03*
X0096590Y0213868D03*
X0096190Y0214068D03*
X0096390Y0212068D03*
X0096590Y0212068D03*
X0095190Y0210468D03*
X0096190Y0209668D03*
X0096390Y0209668D03*
X0102590Y0239668D03*
X0103190Y0239668D03*
X0091590Y0258668D03*
X0089990Y0258668D03*
X0089990Y0257268D03*
X0089190Y0256068D03*
X0092190Y0262268D03*
X0086990Y0267868D03*
X0085990Y0267868D03*
X0084990Y0267868D03*
X0084790Y0267268D03*
X0084790Y0262668D03*
X0084790Y0258068D03*
D52*
X0086390Y0258168D03*
X0089790Y0258568D03*
X0091790Y0258568D03*
X0091590Y0257168D03*
X0091590Y0260168D03*
X0093990Y0264568D03*
X0092390Y0272768D03*
X0086190Y0267768D03*
X0085990Y0266368D03*
X0084990Y0262368D03*
X0083590Y0263968D03*
X0087790Y0246368D03*
X0087590Y0244768D03*
X0089190Y0245568D03*
X0086390Y0237968D03*
X0085390Y0243568D03*
X0095190Y0241768D03*
X0096190Y0242968D03*
X0097990Y0242968D03*
X0097990Y0240568D03*
X0096190Y0240568D03*
X0096190Y0238568D03*
X0096390Y0238568D03*
X0095990Y0236368D03*
X0096190Y0233968D03*
X0095990Y0231968D03*
X0096190Y0225368D03*
X0095190Y0224168D03*
X0097990Y0225368D03*
X0097790Y0216568D03*
X0096190Y0216568D03*
X0096390Y0213968D03*
X0097790Y0213968D03*
X0097990Y0214168D03*
X0096190Y0211968D03*
X0095990Y0209768D03*
X0104790Y0224768D03*
X0106590Y0224968D03*
X0106790Y0224768D03*
X0106590Y0228968D03*
X0104990Y0228968D03*
X0104790Y0228768D03*
X0104790Y0230968D03*
X0103990Y0231768D03*
X0104790Y0233168D03*
X0104790Y0237568D03*
X0106190Y0237768D03*
X0106590Y0243568D03*
X0104990Y0243568D03*
X0106590Y0245568D03*
X0106590Y0247968D03*
X0104190Y0247968D03*
X0102990Y0239568D03*
X0102790Y0239568D03*
X0097390Y0247968D03*
X0096790Y0248168D03*
X0096190Y0248168D03*
X0095590Y0247968D03*
X0095390Y0247768D03*
X0101990Y0263568D03*
X0102190Y0263568D03*
X0102390Y0263568D03*
X0102590Y0263568D03*
X0102790Y0263568D03*
X0102990Y0263568D03*
X0103190Y0263568D03*
X0103390Y0263568D03*
X0103590Y0263568D03*
X0103790Y0263568D03*
X0103990Y0263568D03*
X0104190Y0263568D03*
X0104390Y0263568D03*
X0104590Y0263568D03*
X0104790Y0263568D03*
X0104990Y0263568D03*
X0105190Y0263568D03*
X0105390Y0263568D03*
X0105590Y0263568D03*
X0105790Y0263568D03*
X0105990Y0263568D03*
X0106190Y0263568D03*
X0106390Y0263568D03*
X0106590Y0263568D03*
X0106790Y0263568D03*
X0106990Y0263568D03*
X0107190Y0263568D03*
X0107390Y0263568D03*
X0107590Y0263568D03*
X0107790Y0263568D03*
X0107990Y0263568D03*
X0108190Y0263568D03*
X0108390Y0263568D03*
X0108590Y0263568D03*
X0108790Y0263568D03*
X0108990Y0263568D03*
X0109190Y0263568D03*
X0109390Y0263568D03*
X0109590Y0263568D03*
X0109790Y0263568D03*
X0109990Y0263568D03*
D53*
X0109790Y0265468D03*
X0109590Y0265468D03*
X0109390Y0265468D03*
X0109190Y0265468D03*
X0108990Y0265468D03*
X0108790Y0265468D03*
X0108590Y0265468D03*
X0108390Y0265468D03*
X0108190Y0265468D03*
X0107990Y0265468D03*
X0107790Y0265468D03*
X0107590Y0265468D03*
X0107390Y0265468D03*
X0107190Y0265468D03*
X0106990Y0265468D03*
X0106790Y0265468D03*
X0106590Y0265468D03*
X0106390Y0265468D03*
X0106190Y0265468D03*
X0105990Y0265468D03*
X0105790Y0265468D03*
X0105590Y0265468D03*
X0105390Y0265468D03*
X0105190Y0265468D03*
X0104990Y0265468D03*
X0104790Y0265468D03*
X0104590Y0265468D03*
X0104390Y0265468D03*
X0104190Y0265468D03*
X0103990Y0265468D03*
X0103790Y0265468D03*
X0103590Y0265468D03*
X0103390Y0265468D03*
X0103190Y0265468D03*
X0102990Y0265468D03*
X0102790Y0265468D03*
X0102590Y0265468D03*
X0102390Y0265468D03*
X0102190Y0265468D03*
X0092190Y0272668D03*
X0090990Y0272668D03*
X0088390Y0272068D03*
X0087190Y0270268D03*
X0086590Y0267868D03*
X0086390Y0267868D03*
X0085790Y0265668D03*
X0091590Y0264468D03*
X0091990Y0261868D03*
X0090190Y0257268D03*
X0084990Y0258068D03*
X0085390Y0247668D03*
X0088990Y0245668D03*
X0095190Y0247668D03*
X0097790Y0247668D03*
X0103590Y0247668D03*
X0104390Y0247868D03*
X0103590Y0245868D03*
X0105790Y0245668D03*
X0104790Y0243468D03*
X0107590Y0242268D03*
X0106790Y0237468D03*
X0107590Y0227668D03*
X0104790Y0222668D03*
X0098790Y0220468D03*
X0097990Y0216468D03*
X0095190Y0215268D03*
X0095190Y0228468D03*
X0095990Y0233868D03*
D54*
X0097990Y0227568D03*
X0098990Y0224168D03*
X0096190Y0223168D03*
X0094790Y0218568D03*
X0107790Y0223768D03*
X0106590Y0226768D03*
X0107790Y0230968D03*
X0107790Y0233368D03*
X0107790Y0236368D03*
X0107790Y0239568D03*
X0106590Y0241368D03*
X0107790Y0242368D03*
X0103790Y0245568D03*
X0097790Y0255368D03*
X0092590Y0259968D03*
X0091790Y0256168D03*
X0089990Y0256168D03*
X0088390Y0254968D03*
X0087990Y0254768D03*
X0087190Y0254768D03*
X0086790Y0254968D03*
X0086390Y0255568D03*
X0086190Y0255768D03*
X0084190Y0258568D03*
X0084390Y0259568D03*
X0083390Y0259368D03*
X0083190Y0259568D03*
X0083190Y0261368D03*
X0083190Y0262568D03*
X0084390Y0262568D03*
X0085590Y0260968D03*
X0086190Y0260168D03*
X0086390Y0259968D03*
X0086590Y0259768D03*
X0087190Y0263768D03*
X0087390Y0263768D03*
X0090190Y0264368D03*
X0090390Y0264368D03*
X0090590Y0264368D03*
X0091790Y0266368D03*
X0091590Y0269368D03*
X0091390Y0269368D03*
X0091190Y0269368D03*
X0090990Y0269368D03*
X0090790Y0269368D03*
X0090590Y0269368D03*
X0090390Y0269368D03*
X0090190Y0269368D03*
X0089990Y0269368D03*
X0089790Y0269368D03*
X0089590Y0269368D03*
X0089390Y0269368D03*
X0089190Y0269368D03*
X0088990Y0269368D03*
X0088790Y0269368D03*
X0085990Y0269368D03*
X0085790Y0269168D03*
X0085590Y0268968D03*
X0084390Y0268768D03*
X0084190Y0268968D03*
X0084190Y0270568D03*
X0084390Y0270768D03*
X0084990Y0271368D03*
X0085590Y0266968D03*
X0085190Y0266568D03*
X0084990Y0266368D03*
X0084790Y0266168D03*
X0086190Y0266568D03*
X0095990Y0268368D03*
X0098590Y0274568D03*
X0102590Y0267168D03*
X0102590Y0261768D03*
D55*
X0104590Y0247468D03*
X0107590Y0246668D03*
X0103990Y0236468D03*
X0103990Y0227668D03*
X0098790Y0228468D03*
X0098790Y0224268D03*
X0098190Y0220668D03*
X0095390Y0210468D03*
X0085990Y0243668D03*
X0085790Y0243668D03*
X0088590Y0245668D03*
X0086390Y0247468D03*
X0086190Y0247468D03*
X0085990Y0247468D03*
X0085990Y0258068D03*
X0085790Y0258068D03*
X0085590Y0258068D03*
X0085390Y0258068D03*
X0087390Y0267868D03*
X0091790Y0264468D03*
X0092990Y0267868D03*
X0092390Y0270668D03*
X0091990Y0272668D03*
X0091790Y0272668D03*
X0091590Y0272668D03*
X0091390Y0272668D03*
X0093790Y0264468D03*
X0091190Y0259468D03*
X0090990Y0257268D03*
X0090790Y0257268D03*
X0090590Y0257268D03*
D56*
X0090390Y0257168D03*
X0091190Y0257168D03*
X0091390Y0257168D03*
X0089590Y0258368D03*
X0086190Y0258168D03*
X0085190Y0258168D03*
X0082990Y0260368D03*
X0083590Y0261368D03*
X0083990Y0269768D03*
X0091190Y0272768D03*
X0091590Y0266968D03*
X0085790Y0247568D03*
X0085590Y0247568D03*
X0088790Y0245568D03*
X0085590Y0243568D03*
X0095990Y0238368D03*
X0095390Y0236968D03*
X0095390Y0232568D03*
X0098590Y0220568D03*
X0103990Y0223768D03*
X0107590Y0223768D03*
X0107590Y0236368D03*
X0103990Y0242368D03*
X0101990Y0265368D03*
X0095990Y0211768D03*
D57*
X0095590Y0215268D03*
X0098590Y0215268D03*
X0098590Y0224268D03*
X0095590Y0224068D03*
X0104190Y0227668D03*
X0104390Y0236468D03*
X0098590Y0241868D03*
X0104990Y0246868D03*
X0105190Y0246668D03*
X0107390Y0246668D03*
X0093190Y0264468D03*
X0092990Y0264468D03*
X0092790Y0264468D03*
X0092590Y0264468D03*
X0092390Y0264468D03*
X0091390Y0267468D03*
X0091190Y0267468D03*
X0090990Y0267468D03*
X0090790Y0267468D03*
X0090590Y0267468D03*
X0090390Y0267468D03*
X0090190Y0267468D03*
X0089990Y0267468D03*
X0089790Y0267468D03*
X0089590Y0267468D03*
X0089390Y0267468D03*
X0089190Y0267468D03*
X0088990Y0267468D03*
X0088790Y0267468D03*
X0087590Y0267868D03*
D58*
X0091990Y0264468D03*
X0093390Y0264468D03*
X0093590Y0264468D03*
X0093790Y0257268D03*
X0093990Y0257268D03*
X0094190Y0257268D03*
X0094390Y0257268D03*
X0094590Y0257268D03*
X0094790Y0257268D03*
X0094990Y0257268D03*
X0095190Y0257268D03*
X0095390Y0257268D03*
X0095590Y0257268D03*
X0095790Y0257268D03*
X0095990Y0257268D03*
X0096190Y0257268D03*
X0096390Y0257268D03*
X0096590Y0257268D03*
X0096790Y0257268D03*
X0096990Y0257268D03*
X0097190Y0257268D03*
X0097390Y0257268D03*
X0089390Y0258068D03*
X0089190Y0258068D03*
X0088990Y0258068D03*
X0088790Y0258068D03*
X0088590Y0258068D03*
X0087190Y0247268D03*
X0086990Y0247268D03*
X0088190Y0245668D03*
X0086990Y0243868D03*
X0086790Y0243868D03*
X0094590Y0272668D03*
X0094790Y0272668D03*
X0094990Y0272668D03*
X0095190Y0272668D03*
X0095390Y0272668D03*
X0095590Y0272668D03*
X0095790Y0272668D03*
X0095990Y0272668D03*
X0096190Y0272668D03*
X0096390Y0272668D03*
X0096590Y0272668D03*
X0096790Y0272668D03*
X0096990Y0272668D03*
X0097190Y0272668D03*
X0097390Y0272668D03*
X0097590Y0272668D03*
X0097790Y0272668D03*
X0097990Y0272668D03*
X0098190Y0272668D03*
X0105590Y0246068D03*
X0107390Y0242268D03*
X0104190Y0236468D03*
X0107390Y0227668D03*
X0107390Y0223668D03*
X0095390Y0215268D03*
D59*
X0095390Y0220968D03*
X0095590Y0220968D03*
X0095790Y0220968D03*
X0095590Y0228568D03*
X0098590Y0228568D03*
X0104190Y0223768D03*
X0107390Y0236368D03*
X0104190Y0242368D03*
X0105390Y0246368D03*
X0104790Y0247168D03*
X0098790Y0246168D03*
X0094190Y0246168D03*
X0087990Y0245568D03*
X0087390Y0247168D03*
X0087390Y0243968D03*
X0087190Y0243968D03*
X0083390Y0262568D03*
X0085590Y0264168D03*
X0086790Y0268368D03*
X0092190Y0264568D03*
D60*
X0092190Y0257168D03*
X0096990Y0264568D03*
X0097190Y0264568D03*
X0097390Y0264568D03*
X0097590Y0264568D03*
X0097790Y0264568D03*
X0097990Y0264568D03*
X0098190Y0264568D03*
X0098390Y0264568D03*
X0098590Y0264568D03*
X0098790Y0264568D03*
X0098990Y0264568D03*
X0099190Y0264568D03*
X0099390Y0264568D03*
X0099590Y0264568D03*
X0099790Y0264568D03*
X0099990Y0264568D03*
X0100190Y0264568D03*
X0100390Y0264568D03*
X0100590Y0264568D03*
X0100790Y0264568D03*
X0100990Y0264568D03*
X0101190Y0264568D03*
X0101390Y0264568D03*
X0101590Y0264568D03*
X0101790Y0264568D03*
X0092990Y0272768D03*
X0087790Y0267768D03*
X0086990Y0258168D03*
X0095990Y0241768D03*
X0098190Y0241768D03*
X0095590Y0237568D03*
X0095790Y0232968D03*
X0095990Y0228568D03*
X0104590Y0232168D03*
X0104590Y0223768D03*
X0098190Y0215368D03*
X0095790Y0210968D03*
X0095590Y0210968D03*
X0104590Y0242368D03*
X0107190Y0246768D03*
D61*
X0107190Y0242368D03*
X0107190Y0236368D03*
X0104190Y0232368D03*
X0104390Y0227768D03*
X0104390Y0223768D03*
X0106990Y0223768D03*
X0107190Y0223768D03*
X0107190Y0227768D03*
X0098390Y0228568D03*
X0098190Y0228768D03*
X0095790Y0228568D03*
X0095990Y0224368D03*
X0095590Y0241768D03*
X0098590Y0246168D03*
X0102990Y0246568D03*
X0084390Y0264968D03*
D62*
X0087990Y0267868D03*
X0088190Y0267868D03*
X0088390Y0267868D03*
X0088590Y0267868D03*
X0096790Y0264468D03*
X0103390Y0246668D03*
X0106990Y0246868D03*
X0095790Y0237468D03*
X0095990Y0215268D03*
D63*
X0095790Y0215268D03*
X0098390Y0215268D03*
X0098390Y0224268D03*
X0098190Y0224268D03*
X0095790Y0224268D03*
X0095590Y0233068D03*
X0095790Y0241868D03*
X0098390Y0241868D03*
X0094390Y0246068D03*
X0103190Y0246668D03*
X0104390Y0242268D03*
X0106790Y0242468D03*
X0106990Y0242268D03*
X0106990Y0236468D03*
X0104590Y0236468D03*
X0104390Y0232268D03*
X0104590Y0227868D03*
X0106790Y0227868D03*
X0106990Y0227668D03*
D64*
X0105790Y0223668D03*
X0105590Y0223668D03*
X0105590Y0236468D03*
X0105790Y0236468D03*
X0105990Y0236468D03*
X0106790Y0246868D03*
X0098190Y0246068D03*
X0094790Y0246068D03*
X0092390Y0257268D03*
X0087190Y0258068D03*
X0085990Y0237868D03*
X0085790Y0237868D03*
X0085590Y0237868D03*
D65*
X0087390Y0254668D03*
X0087590Y0254668D03*
X0087790Y0254668D03*
X0088190Y0254868D03*
X0088590Y0255068D03*
X0088790Y0255268D03*
X0088990Y0255468D03*
X0090190Y0256068D03*
X0089790Y0257268D03*
X0091590Y0256068D03*
X0089990Y0264268D03*
X0089790Y0264268D03*
X0089590Y0264268D03*
X0089390Y0264268D03*
X0089190Y0264268D03*
X0088790Y0264068D03*
X0088590Y0264068D03*
X0088390Y0264068D03*
X0088190Y0264068D03*
X0087990Y0263868D03*
X0087790Y0263868D03*
X0087590Y0263868D03*
X0086990Y0263668D03*
X0086790Y0263668D03*
X0086390Y0263468D03*
X0086190Y0263468D03*
X0085990Y0263268D03*
X0085790Y0263268D03*
X0085990Y0260468D03*
X0086790Y0259468D03*
X0084790Y0259068D03*
X0084390Y0258468D03*
X0083990Y0258668D03*
X0083790Y0258868D03*
X0083590Y0259068D03*
X0083790Y0262068D03*
X0083990Y0262268D03*
X0084190Y0262468D03*
X0085390Y0266668D03*
X0085790Y0267068D03*
X0085390Y0267868D03*
X0084790Y0268268D03*
X0084590Y0268468D03*
X0086190Y0269668D03*
X0086390Y0269868D03*
X0086590Y0270068D03*
X0086790Y0270268D03*
X0086990Y0270468D03*
X0086390Y0272068D03*
X0086190Y0272068D03*
X0085990Y0271868D03*
X0085790Y0271868D03*
X0085390Y0271668D03*
X0085190Y0271468D03*
X0084790Y0271268D03*
X0084590Y0271068D03*
X0086590Y0272268D03*
X0086790Y0272268D03*
X0086990Y0272268D03*
X0087390Y0272468D03*
X0087590Y0272468D03*
X0087790Y0272468D03*
X0088190Y0272668D03*
X0088790Y0272668D03*
X0088990Y0271868D03*
X0089190Y0271868D03*
X0089390Y0272068D03*
X0089590Y0272068D03*
X0089790Y0272068D03*
X0089990Y0272268D03*
X0090190Y0272268D03*
X0090390Y0272268D03*
X0090190Y0272868D03*
X0089990Y0272868D03*
X0089790Y0272868D03*
X0089790Y0273468D03*
X0089990Y0273468D03*
X0088790Y0271668D03*
X0088590Y0271668D03*
X0091790Y0269268D03*
X0092190Y0271468D03*
X0090990Y0264468D03*
X0090790Y0264468D03*
X0086590Y0255268D03*
X0086990Y0254868D03*
X0095390Y0244668D03*
X0097590Y0244668D03*
X0104990Y0241268D03*
X0106390Y0241268D03*
X0106590Y0235468D03*
X0106390Y0226668D03*
X0104990Y0226668D03*
X0106590Y0222868D03*
X0097790Y0223268D03*
X0097990Y0219868D03*
X0093590Y0218468D03*
X0097790Y0259068D03*
X0098590Y0270868D03*
D66*
X0096190Y0268368D03*
X0090590Y0272168D03*
X0090390Y0272768D03*
X0090390Y0273568D03*
X0090190Y0273568D03*
X0090590Y0273568D03*
X0087990Y0272568D03*
X0087190Y0272368D03*
X0085590Y0271768D03*
X0086590Y0268968D03*
X0088990Y0264168D03*
X0091990Y0259168D03*
X0091390Y0255968D03*
X0091190Y0255968D03*
X0090990Y0255968D03*
X0090790Y0255968D03*
X0090590Y0255968D03*
X0090390Y0255968D03*
X0085590Y0256768D03*
X0086590Y0263568D03*
X0095590Y0244768D03*
X0103990Y0245568D03*
X0106190Y0248168D03*
X0103390Y0256568D03*
X0104190Y0271968D03*
X0104190Y0273368D03*
X0097590Y0223168D03*
X0096390Y0223168D03*
D67*
X0096790Y0228568D03*
X0096990Y0228568D03*
X0097190Y0228568D03*
X0097390Y0228568D03*
X0105990Y0223768D03*
X0098390Y0246168D03*
X0094590Y0246168D03*
X0086190Y0237968D03*
X0085390Y0237968D03*
D68*
X0086190Y0243768D03*
X0086390Y0243768D03*
X0086590Y0243768D03*
X0088390Y0245568D03*
X0086790Y0247368D03*
X0086590Y0247368D03*
X0091390Y0259368D03*
X0091790Y0260568D03*
X0095390Y0241768D03*
X0098790Y0241768D03*
X0102790Y0246768D03*
X0095390Y0228568D03*
X0095390Y0224168D03*
X0095190Y0220968D03*
X0098390Y0220568D03*
X0098790Y0215368D03*
D69*
X0097990Y0246168D03*
X0094990Y0246168D03*
X0085190Y0261368D03*
X0092790Y0268168D03*
X0093190Y0272768D03*
D70*
X0095190Y0264668D03*
X0095390Y0264668D03*
X0095990Y0264468D03*
X0096190Y0264468D03*
X0096390Y0264468D03*
X0096590Y0264468D03*
D71*
X0095790Y0264568D03*
X0095590Y0264568D03*
D72*
X0094990Y0264768D03*
D73*
X0094790Y0264868D03*
D74*
X0094590Y0265068D03*
D75*
X0093590Y0257168D03*
X0093390Y0257168D03*
X0093190Y0257168D03*
X0092990Y0257168D03*
X0092790Y0257168D03*
X0088390Y0258168D03*
X0088190Y0258168D03*
X0087990Y0258168D03*
X0087790Y0258168D03*
X0087590Y0258168D03*
X0093590Y0272768D03*
X0093790Y0272768D03*
X0093990Y0272768D03*
X0094190Y0272768D03*
X0094390Y0272768D03*
D76*
X0093390Y0272668D03*
X0092590Y0257268D03*
X0087390Y0258068D03*
D77*
X0092590Y0268568D03*
D78*
X0085390Y0261868D03*
D79*
X0084590Y0264868D03*
D80*
X0061896Y0196000D02*
X0060828Y0196000D01*
X0060828Y0191729D01*
X0059761Y0191729D02*
X0061896Y0191729D01*
X0062964Y0192797D01*
X0062964Y0194932D01*
X0061896Y0196000D01*
X0058693Y0194932D02*
X0058693Y0192797D01*
X0059761Y0191729D01*
X0058693Y0189002D02*
X0058693Y0185799D01*
X0059761Y0184731D01*
X0061896Y0184731D01*
X0062964Y0185799D01*
X0062964Y0189002D01*
X0057626Y0189002D01*
X0056558Y0187934D01*
X0056558Y0186867D01*
X0055256Y0185041D02*
X0052054Y0181838D01*
X0052054Y0186108D01*
X0055256Y0185041D02*
X0048851Y0185041D01*
X0053121Y0179110D02*
X0048851Y0176975D01*
X0053121Y0174840D01*
X0053121Y0172112D02*
X0052054Y0171045D01*
X0050986Y0172112D01*
X0049918Y0172112D01*
X0048851Y0171045D01*
X0048851Y0168910D01*
X0049918Y0167842D01*
X0049918Y0165114D02*
X0048851Y0164047D01*
X0048851Y0161912D01*
X0049918Y0160844D01*
X0054189Y0165114D01*
X0049918Y0165114D01*
X0052054Y0169977D02*
X0052054Y0171045D01*
X0053121Y0172112D02*
X0054189Y0172112D01*
X0055256Y0171045D01*
X0055256Y0168910D01*
X0054189Y0167842D01*
X0054189Y0165114D02*
X0055256Y0164047D01*
X0055256Y0161912D01*
X0054189Y0160844D01*
X0049918Y0160844D01*
X0058693Y0161010D02*
X0061896Y0161010D01*
X0062964Y0159942D01*
X0062964Y0156740D01*
X0058693Y0156740D01*
X0058693Y0152944D02*
X0058693Y0150809D01*
X0059761Y0149742D01*
X0061896Y0149742D01*
X0062964Y0150809D01*
X0062964Y0152944D01*
X0061896Y0154012D01*
X0060828Y0154012D01*
X0060828Y0149742D01*
X0059761Y0147014D02*
X0058693Y0145946D01*
X0058693Y0142744D01*
X0056558Y0142744D02*
X0062964Y0142744D01*
X0062964Y0145946D01*
X0061896Y0147014D01*
X0059761Y0147014D01*
X0059761Y0140016D02*
X0058693Y0138948D01*
X0058693Y0136813D01*
X0059761Y0135746D01*
X0064031Y0135746D01*
X0065099Y0136813D01*
X0065099Y0138948D01*
X0064031Y0140016D01*
X0059761Y0140016D01*
X0053564Y0122577D02*
X0050030Y0117887D01*
X0054142Y0118465D02*
X0049452Y0121999D01*
X0058693Y0163738D02*
X0058693Y0166940D01*
X0059761Y0168008D01*
X0060828Y0168008D01*
X0061896Y0166940D01*
X0061896Y0163738D01*
X0061896Y0166940D02*
X0062964Y0168008D01*
X0064031Y0168008D01*
X0065099Y0166940D01*
X0065099Y0163738D01*
X0058693Y0163738D01*
X0059761Y0170736D02*
X0058693Y0171803D01*
X0058693Y0175006D01*
X0061896Y0175006D01*
X0062964Y0173938D01*
X0062964Y0171803D01*
X0060828Y0171803D02*
X0060828Y0175006D01*
X0059761Y0177733D02*
X0061896Y0177733D01*
X0062964Y0178801D01*
X0062964Y0182004D01*
X0065099Y0182004D02*
X0058693Y0182004D01*
X0058693Y0178801D01*
X0059761Y0177733D01*
X0060828Y0171803D02*
X0059761Y0170736D01*
X0079430Y0142524D02*
X0079430Y0138587D01*
X0129934Y0060119D02*
X0134623Y0056585D01*
D81*
X0120965Y0055181D02*
X0120965Y0062996D01*
X0120965Y0055181D02*
X0114430Y0048094D01*
X0111930Y0050594D01*
X0120965Y0088193D02*
X0120965Y0093902D01*
X0108957Y0104531D01*
X0049902Y0104531D02*
X0037894Y0093902D01*
X0037894Y0088193D01*
X0037894Y0062996D02*
X0037894Y0055181D01*
X0044430Y0048094D01*
X0046930Y0050594D01*
D82*
X0035321Y0069395D02*
X0032177Y0071765D01*
X0038465Y0067026D02*
X0041609Y0064657D01*
X0034978Y0091837D02*
X0031834Y0094207D01*
X0028690Y0096576D02*
X0025545Y0098945D01*
X0027915Y0102089D01*
X0039762Y0117811D02*
X0042131Y0120955D01*
X0045275Y0118586D01*
X0048419Y0116216D02*
X0051564Y0113847D01*
X0070086Y0122073D02*
X0073230Y0119703D01*
X0076375Y0117334D02*
X0079519Y0114964D01*
X0081103Y0137602D02*
X0081103Y0143508D01*
X0077756Y0143508D02*
X0077756Y0137602D01*
X0070680Y0155693D02*
X0069430Y0155693D01*
X0069430Y0170693D01*
X0070680Y0170693D01*
X0088180Y0170693D02*
X0089430Y0170693D01*
X0089430Y0155693D01*
X0088180Y0155693D01*
X0117250Y0086532D02*
X0120394Y0084163D01*
X0123538Y0081794D02*
X0126682Y0079424D01*
X0123881Y0059352D02*
X0127025Y0056982D01*
X0130169Y0054613D02*
X0133314Y0052244D01*
X0130944Y0049099D01*
X0119098Y0033378D02*
X0116728Y0030234D01*
X0113584Y0032603D01*
X0110440Y0034973D02*
X0107296Y0037342D01*
X0088773Y0029116D02*
X0085629Y0031486D01*
X0082484Y0033855D02*
X0079340Y0036225D01*
X0032177Y0071765D02*
X0032108Y0072808D01*
X0032062Y0073853D01*
X0032040Y0074899D01*
X0032040Y0075945D01*
X0088773Y0029117D02*
X0089795Y0029339D01*
X0090812Y0029583D01*
X0091824Y0029849D01*
X0092829Y0030138D01*
X0032248Y0079875D02*
X0032359Y0080915D01*
X0032492Y0081953D01*
X0032648Y0082987D01*
X0032827Y0084017D01*
X0096550Y0031421D02*
X0097519Y0031814D01*
X0098480Y0032228D01*
X0099431Y0032663D01*
X0100372Y0033119D01*
X0033702Y0087854D02*
X0033988Y0088860D01*
X0034296Y0089860D01*
X0034627Y0090852D01*
X0034979Y0091837D01*
X0103819Y0035018D02*
X0104707Y0035570D01*
X0105583Y0036142D01*
X0106446Y0036733D01*
X0107296Y0037343D01*
X0062310Y0119768D02*
X0061341Y0119375D01*
X0060380Y0118961D01*
X0059429Y0118526D01*
X0058488Y0118070D01*
X0126682Y0079424D02*
X0126751Y0078381D01*
X0126797Y0077336D01*
X0126819Y0076290D01*
X0126819Y0075244D01*
X0070087Y0122072D02*
X0069065Y0121850D01*
X0068048Y0121606D01*
X0067036Y0121340D01*
X0066031Y0121051D01*
X0126611Y0071314D02*
X0126500Y0070274D01*
X0126367Y0069236D01*
X0126211Y0068202D01*
X0126032Y0067172D01*
X0055041Y0116171D02*
X0054153Y0115619D01*
X0053277Y0115047D01*
X0052414Y0114456D01*
X0051564Y0113846D01*
X0125157Y0063335D02*
X0124871Y0062329D01*
X0124563Y0061329D01*
X0124232Y0060337D01*
X0123880Y0059352D01*
D83*
X0083156Y0122478D02*
X0081354Y0122478D01*
X0082255Y0122478D02*
X0082255Y0125181D01*
X0083156Y0124280D01*
X0082706Y0126081D02*
X0081805Y0126081D01*
X0081354Y0126531D01*
X0080209Y0126081D02*
X0078408Y0126081D01*
X0079309Y0126081D02*
X0079309Y0128783D01*
X0080209Y0127882D01*
X0081354Y0128333D02*
X0081805Y0128783D01*
X0082706Y0128783D01*
X0083156Y0128333D01*
X0083156Y0126531D01*
X0082706Y0126081D01*
X0080209Y0124730D02*
X0079759Y0125181D01*
X0078858Y0125181D01*
X0078408Y0124730D01*
X0078408Y0124280D01*
X0080209Y0122478D01*
X0078408Y0122478D01*
X0077263Y0122478D02*
X0075912Y0122478D01*
X0075461Y0122929D01*
X0075461Y0123829D01*
X0075912Y0124280D01*
X0077263Y0124280D01*
X0077263Y0121578D01*
X0076813Y0126081D02*
X0075912Y0126081D01*
X0075461Y0126531D01*
X0075461Y0126981D01*
X0075912Y0127432D01*
X0076362Y0127432D01*
X0075912Y0127432D02*
X0075461Y0127882D01*
X0075461Y0128333D01*
X0075912Y0128783D01*
X0076813Y0128783D01*
X0077263Y0128333D01*
X0077263Y0126531D02*
X0076813Y0126081D01*
X0087227Y0141789D02*
X0089028Y0141789D01*
X0087227Y0143591D01*
X0087227Y0144041D01*
X0087677Y0144492D01*
X0088578Y0144492D01*
X0089028Y0144041D01*
X0090173Y0144041D02*
X0090173Y0144492D01*
X0090173Y0144041D02*
X0091074Y0143141D01*
X0091074Y0141789D01*
X0091074Y0143141D02*
X0091975Y0144041D01*
X0091975Y0144492D01*
X0091899Y0152616D02*
X0091899Y0153967D01*
X0092350Y0154418D01*
X0093250Y0154418D01*
X0093701Y0153967D01*
X0093701Y0152616D01*
X0090998Y0152616D01*
X0091449Y0155563D02*
X0090998Y0156013D01*
X0090998Y0156914D01*
X0091449Y0157364D01*
X0090998Y0158509D02*
X0093701Y0158509D01*
X0093701Y0160311D01*
X0093250Y0161456D02*
X0092800Y0161456D01*
X0092350Y0161906D01*
X0092350Y0162807D01*
X0091899Y0163257D01*
X0091449Y0163257D01*
X0090998Y0162807D01*
X0090998Y0161906D01*
X0091449Y0161456D01*
X0091899Y0161456D01*
X0092350Y0161906D01*
X0092350Y0162807D02*
X0092800Y0163257D01*
X0093250Y0163257D01*
X0093701Y0162807D01*
X0093701Y0161906D01*
X0093250Y0161456D01*
X0092350Y0159410D02*
X0092350Y0158509D01*
X0093250Y0157364D02*
X0093701Y0156914D01*
X0093701Y0156013D01*
X0093250Y0155563D01*
X0091449Y0155563D01*
X0086430Y0160193D02*
X0086432Y0160256D01*
X0086438Y0160318D01*
X0086448Y0160380D01*
X0086461Y0160442D01*
X0086479Y0160502D01*
X0086500Y0160561D01*
X0086525Y0160619D01*
X0086554Y0160675D01*
X0086586Y0160729D01*
X0086621Y0160781D01*
X0086659Y0160830D01*
X0086701Y0160878D01*
X0086745Y0160922D01*
X0086793Y0160964D01*
X0086842Y0161002D01*
X0086894Y0161037D01*
X0086948Y0161069D01*
X0087004Y0161098D01*
X0087062Y0161123D01*
X0087121Y0161144D01*
X0087181Y0161162D01*
X0087243Y0161175D01*
X0087305Y0161185D01*
X0087367Y0161191D01*
X0087430Y0161193D01*
X0087493Y0161191D01*
X0087555Y0161185D01*
X0087617Y0161175D01*
X0087679Y0161162D01*
X0087739Y0161144D01*
X0087798Y0161123D01*
X0087856Y0161098D01*
X0087912Y0161069D01*
X0087966Y0161037D01*
X0088018Y0161002D01*
X0088067Y0160964D01*
X0088115Y0160922D01*
X0088159Y0160878D01*
X0088201Y0160830D01*
X0088239Y0160781D01*
X0088274Y0160729D01*
X0088306Y0160675D01*
X0088335Y0160619D01*
X0088360Y0160561D01*
X0088381Y0160502D01*
X0088399Y0160442D01*
X0088412Y0160380D01*
X0088422Y0160318D01*
X0088428Y0160256D01*
X0088430Y0160193D01*
X0088428Y0160130D01*
X0088422Y0160068D01*
X0088412Y0160006D01*
X0088399Y0159944D01*
X0088381Y0159884D01*
X0088360Y0159825D01*
X0088335Y0159767D01*
X0088306Y0159711D01*
X0088274Y0159657D01*
X0088239Y0159605D01*
X0088201Y0159556D01*
X0088159Y0159508D01*
X0088115Y0159464D01*
X0088067Y0159422D01*
X0088018Y0159384D01*
X0087966Y0159349D01*
X0087912Y0159317D01*
X0087856Y0159288D01*
X0087798Y0159263D01*
X0087739Y0159242D01*
X0087679Y0159224D01*
X0087617Y0159211D01*
X0087555Y0159201D01*
X0087493Y0159195D01*
X0087430Y0159193D01*
X0087367Y0159195D01*
X0087305Y0159201D01*
X0087243Y0159211D01*
X0087181Y0159224D01*
X0087121Y0159242D01*
X0087062Y0159263D01*
X0087004Y0159288D01*
X0086948Y0159317D01*
X0086894Y0159349D01*
X0086842Y0159384D01*
X0086793Y0159422D01*
X0086745Y0159464D01*
X0086701Y0159508D01*
X0086659Y0159556D01*
X0086621Y0159605D01*
X0086586Y0159657D01*
X0086554Y0159711D01*
X0086525Y0159767D01*
X0086500Y0159825D01*
X0086479Y0159884D01*
X0086461Y0159944D01*
X0086448Y0160006D01*
X0086438Y0160068D01*
X0086432Y0160130D01*
X0086430Y0160193D01*
X0090998Y0164853D02*
X0091449Y0164402D01*
X0090998Y0164853D02*
X0090998Y0165753D01*
X0091449Y0166204D01*
X0092350Y0166204D01*
X0092800Y0165753D01*
X0092800Y0165303D01*
X0092350Y0164402D01*
X0093701Y0164402D01*
X0093701Y0166204D01*
X0093250Y0167349D02*
X0093701Y0167799D01*
X0093701Y0168700D01*
X0093250Y0169150D01*
X0092800Y0169150D01*
X0090998Y0167349D01*
X0090998Y0169150D01*
X0091449Y0170295D02*
X0090998Y0170746D01*
X0090998Y0171646D01*
X0091449Y0172097D01*
X0091899Y0172097D01*
X0092350Y0171646D01*
X0092350Y0170295D01*
X0091449Y0170295D01*
X0092350Y0170295D02*
X0093250Y0171196D01*
X0093701Y0172097D01*
X0093250Y0173242D02*
X0093701Y0173692D01*
X0093701Y0174593D01*
X0093250Y0175043D01*
X0092800Y0175043D01*
X0092350Y0174593D01*
X0091899Y0175043D01*
X0091449Y0175043D01*
X0090998Y0174593D01*
X0090998Y0173692D01*
X0091449Y0173242D01*
X0092350Y0174143D02*
X0092350Y0174593D01*
X0092716Y0179191D02*
X0092716Y0180542D01*
X0092266Y0180992D01*
X0091365Y0180992D01*
X0090915Y0180542D01*
X0090915Y0179191D01*
X0090915Y0180092D02*
X0090014Y0180992D01*
X0090014Y0182137D02*
X0090014Y0183939D01*
X0090014Y0183038D02*
X0092716Y0183038D01*
X0091816Y0182137D01*
X0092266Y0185084D02*
X0090465Y0185084D01*
X0092266Y0186886D01*
X0090465Y0186886D01*
X0090014Y0186435D01*
X0090014Y0185534D01*
X0090465Y0185084D01*
X0088661Y0183082D02*
X0085959Y0183082D01*
X0086860Y0183082D02*
X0087761Y0184433D01*
X0086860Y0183082D02*
X0085959Y0184433D01*
X0085959Y0181937D02*
X0085959Y0180136D01*
X0085959Y0181037D02*
X0088661Y0181037D01*
X0087761Y0180136D01*
X0090014Y0179191D02*
X0092716Y0179191D01*
X0092266Y0185084D02*
X0092716Y0185534D01*
X0092716Y0186435D01*
X0092266Y0186886D01*
X0092716Y0190018D02*
X0092716Y0191369D01*
X0092266Y0191819D01*
X0091365Y0191819D01*
X0090915Y0191369D01*
X0090915Y0190018D01*
X0090915Y0190918D02*
X0090014Y0191819D01*
X0090465Y0192964D02*
X0090014Y0193415D01*
X0090014Y0194315D01*
X0090465Y0194766D01*
X0092266Y0194766D01*
X0092716Y0194315D01*
X0092716Y0193415D01*
X0092266Y0192964D01*
X0091816Y0192964D01*
X0091365Y0193415D01*
X0091365Y0194766D01*
X0090014Y0190018D02*
X0092716Y0190018D01*
X0088661Y0189895D02*
X0085959Y0189895D01*
X0085959Y0188994D02*
X0085959Y0190796D01*
X0085959Y0191941D02*
X0088661Y0191941D01*
X0087761Y0193292D02*
X0086860Y0191941D01*
X0085959Y0193292D01*
X0088661Y0189895D02*
X0087761Y0188994D01*
X0094935Y0170201D02*
X0097638Y0170201D01*
X0096287Y0168850D01*
X0096287Y0170652D01*
X0095386Y0167705D02*
X0097638Y0167705D01*
X0097638Y0165904D02*
X0095386Y0165904D01*
X0094935Y0166354D01*
X0094935Y0167255D01*
X0095386Y0167705D01*
D84*
X0088430Y0158193D02*
X0070430Y0158193D01*
X0079430Y0181628D02*
X0079430Y0184128D01*
X0079430Y0190486D02*
X0079430Y0192986D01*
X0079430Y0132947D02*
X0079430Y0130447D01*
M02*
