G75*
%MOIN*%
%OFA0B0*%
%FSLAX25Y25*%
%IPPOS*%
%LPD*%
%AMOC8*
5,1,8,0,0,1.08239X$1,22.5*
%
%ADD10C,0.00394*%
%ADD11C,0.00000*%
D10*
X0020374Y0039177D02*
X0020374Y0291146D01*
X0020377Y0291431D01*
X0020388Y0291717D01*
X0020405Y0292002D01*
X0020429Y0292286D01*
X0020460Y0292570D01*
X0020498Y0292853D01*
X0020543Y0293134D01*
X0020594Y0293415D01*
X0020652Y0293695D01*
X0020717Y0293973D01*
X0020789Y0294249D01*
X0020867Y0294523D01*
X0020952Y0294796D01*
X0021044Y0295066D01*
X0021142Y0295334D01*
X0021246Y0295600D01*
X0021357Y0295863D01*
X0021474Y0296123D01*
X0021597Y0296381D01*
X0021727Y0296635D01*
X0021863Y0296886D01*
X0022004Y0297134D01*
X0022152Y0297378D01*
X0022305Y0297619D01*
X0022465Y0297855D01*
X0022630Y0298088D01*
X0022800Y0298317D01*
X0022976Y0298542D01*
X0023158Y0298762D01*
X0023344Y0298978D01*
X0023536Y0299189D01*
X0023733Y0299396D01*
X0023935Y0299598D01*
X0024142Y0299795D01*
X0024353Y0299987D01*
X0024569Y0300173D01*
X0024789Y0300355D01*
X0025014Y0300531D01*
X0025243Y0300701D01*
X0025476Y0300866D01*
X0025712Y0301026D01*
X0025953Y0301179D01*
X0026197Y0301327D01*
X0026445Y0301468D01*
X0026696Y0301604D01*
X0026950Y0301734D01*
X0027208Y0301857D01*
X0027468Y0301974D01*
X0027731Y0302085D01*
X0027997Y0302189D01*
X0028265Y0302287D01*
X0028535Y0302379D01*
X0028808Y0302464D01*
X0029082Y0302542D01*
X0029358Y0302614D01*
X0029636Y0302679D01*
X0029916Y0302737D01*
X0030197Y0302788D01*
X0030478Y0302833D01*
X0030761Y0302871D01*
X0031045Y0302902D01*
X0031329Y0302926D01*
X0031614Y0302943D01*
X0031900Y0302954D01*
X0032185Y0302957D01*
X0126674Y0302957D01*
X0126959Y0302954D01*
X0127245Y0302943D01*
X0127530Y0302926D01*
X0127814Y0302902D01*
X0128098Y0302871D01*
X0128381Y0302833D01*
X0128662Y0302788D01*
X0128943Y0302737D01*
X0129223Y0302679D01*
X0129501Y0302614D01*
X0129777Y0302542D01*
X0130051Y0302464D01*
X0130324Y0302379D01*
X0130594Y0302287D01*
X0130862Y0302189D01*
X0131128Y0302085D01*
X0131391Y0301974D01*
X0131651Y0301857D01*
X0131909Y0301734D01*
X0132163Y0301604D01*
X0132414Y0301468D01*
X0132662Y0301327D01*
X0132906Y0301179D01*
X0133147Y0301026D01*
X0133383Y0300866D01*
X0133616Y0300701D01*
X0133845Y0300531D01*
X0134070Y0300355D01*
X0134290Y0300173D01*
X0134506Y0299987D01*
X0134717Y0299795D01*
X0134924Y0299598D01*
X0135126Y0299396D01*
X0135323Y0299189D01*
X0135515Y0298978D01*
X0135701Y0298762D01*
X0135883Y0298542D01*
X0136059Y0298317D01*
X0136229Y0298088D01*
X0136394Y0297855D01*
X0136554Y0297619D01*
X0136707Y0297378D01*
X0136855Y0297134D01*
X0136996Y0296886D01*
X0137132Y0296635D01*
X0137262Y0296381D01*
X0137385Y0296123D01*
X0137502Y0295863D01*
X0137613Y0295600D01*
X0137717Y0295334D01*
X0137815Y0295066D01*
X0137907Y0294796D01*
X0137992Y0294523D01*
X0138070Y0294249D01*
X0138142Y0293973D01*
X0138207Y0293695D01*
X0138265Y0293415D01*
X0138316Y0293134D01*
X0138361Y0292853D01*
X0138399Y0292570D01*
X0138430Y0292286D01*
X0138454Y0292002D01*
X0138471Y0291717D01*
X0138482Y0291431D01*
X0138485Y0291146D01*
X0138485Y0039177D01*
X0138482Y0038892D01*
X0138471Y0038606D01*
X0138454Y0038321D01*
X0138430Y0038037D01*
X0138399Y0037753D01*
X0138361Y0037470D01*
X0138316Y0037189D01*
X0138265Y0036908D01*
X0138207Y0036628D01*
X0138142Y0036350D01*
X0138070Y0036074D01*
X0137992Y0035800D01*
X0137907Y0035527D01*
X0137815Y0035257D01*
X0137717Y0034989D01*
X0137613Y0034723D01*
X0137502Y0034460D01*
X0137385Y0034200D01*
X0137262Y0033942D01*
X0137132Y0033688D01*
X0136996Y0033437D01*
X0136855Y0033189D01*
X0136707Y0032945D01*
X0136554Y0032704D01*
X0136394Y0032468D01*
X0136229Y0032235D01*
X0136059Y0032006D01*
X0135883Y0031781D01*
X0135701Y0031561D01*
X0135515Y0031345D01*
X0135323Y0031134D01*
X0135126Y0030927D01*
X0134924Y0030725D01*
X0134717Y0030528D01*
X0134506Y0030336D01*
X0134290Y0030150D01*
X0134070Y0029968D01*
X0133845Y0029792D01*
X0133616Y0029622D01*
X0133383Y0029457D01*
X0133147Y0029297D01*
X0132906Y0029144D01*
X0132662Y0028996D01*
X0132414Y0028855D01*
X0132163Y0028719D01*
X0131909Y0028589D01*
X0131651Y0028466D01*
X0131391Y0028349D01*
X0131128Y0028238D01*
X0130862Y0028134D01*
X0130594Y0028036D01*
X0130324Y0027944D01*
X0130051Y0027859D01*
X0129777Y0027781D01*
X0129501Y0027709D01*
X0129223Y0027644D01*
X0128943Y0027586D01*
X0128662Y0027535D01*
X0128381Y0027490D01*
X0128098Y0027452D01*
X0127814Y0027421D01*
X0127530Y0027397D01*
X0127245Y0027380D01*
X0126959Y0027369D01*
X0126674Y0027366D01*
X0032185Y0027366D01*
X0031900Y0027369D01*
X0031614Y0027380D01*
X0031329Y0027397D01*
X0031045Y0027421D01*
X0030761Y0027452D01*
X0030478Y0027490D01*
X0030197Y0027535D01*
X0029916Y0027586D01*
X0029636Y0027644D01*
X0029358Y0027709D01*
X0029082Y0027781D01*
X0028808Y0027859D01*
X0028535Y0027944D01*
X0028265Y0028036D01*
X0027997Y0028134D01*
X0027731Y0028238D01*
X0027468Y0028349D01*
X0027208Y0028466D01*
X0026950Y0028589D01*
X0026696Y0028719D01*
X0026445Y0028855D01*
X0026197Y0028996D01*
X0025953Y0029144D01*
X0025712Y0029297D01*
X0025476Y0029457D01*
X0025243Y0029622D01*
X0025014Y0029792D01*
X0024789Y0029968D01*
X0024569Y0030150D01*
X0024353Y0030336D01*
X0024142Y0030528D01*
X0023935Y0030725D01*
X0023733Y0030927D01*
X0023536Y0031134D01*
X0023344Y0031345D01*
X0023158Y0031561D01*
X0022976Y0031781D01*
X0022800Y0032006D01*
X0022630Y0032235D01*
X0022465Y0032468D01*
X0022305Y0032704D01*
X0022152Y0032945D01*
X0022004Y0033189D01*
X0021863Y0033437D01*
X0021727Y0033688D01*
X0021597Y0033942D01*
X0021474Y0034200D01*
X0021357Y0034460D01*
X0021246Y0034723D01*
X0021142Y0034989D01*
X0021044Y0035257D01*
X0020952Y0035527D01*
X0020867Y0035800D01*
X0020789Y0036074D01*
X0020717Y0036350D01*
X0020652Y0036628D01*
X0020594Y0036908D01*
X0020543Y0037189D01*
X0020498Y0037470D01*
X0020460Y0037753D01*
X0020429Y0038037D01*
X0020405Y0038321D01*
X0020388Y0038606D01*
X0020377Y0038892D01*
X0020374Y0039177D01*
X0059745Y0281303D02*
X0099115Y0281303D01*
X0099267Y0281305D01*
X0099419Y0281311D01*
X0099571Y0281321D01*
X0099722Y0281334D01*
X0099873Y0281352D01*
X0100024Y0281373D01*
X0100174Y0281399D01*
X0100323Y0281428D01*
X0100472Y0281461D01*
X0100619Y0281498D01*
X0100766Y0281538D01*
X0100911Y0281583D01*
X0101055Y0281631D01*
X0101198Y0281683D01*
X0101340Y0281738D01*
X0101480Y0281797D01*
X0101619Y0281860D01*
X0101756Y0281926D01*
X0101891Y0281996D01*
X0102024Y0282069D01*
X0102155Y0282146D01*
X0102285Y0282226D01*
X0102412Y0282309D01*
X0102537Y0282395D01*
X0102660Y0282485D01*
X0102780Y0282578D01*
X0102898Y0282674D01*
X0103014Y0282773D01*
X0103127Y0282875D01*
X0103237Y0282979D01*
X0103345Y0283087D01*
X0103449Y0283197D01*
X0103551Y0283310D01*
X0103650Y0283426D01*
X0103746Y0283544D01*
X0103839Y0283664D01*
X0103929Y0283787D01*
X0104015Y0283912D01*
X0104098Y0284039D01*
X0104178Y0284169D01*
X0104255Y0284300D01*
X0104328Y0284433D01*
X0104398Y0284568D01*
X0104464Y0284705D01*
X0104527Y0284844D01*
X0104586Y0284984D01*
X0104641Y0285126D01*
X0104693Y0285269D01*
X0104741Y0285413D01*
X0104786Y0285558D01*
X0104826Y0285705D01*
X0104863Y0285852D01*
X0104896Y0286001D01*
X0104925Y0286150D01*
X0104951Y0286300D01*
X0104972Y0286451D01*
X0104990Y0286602D01*
X0105003Y0286753D01*
X0105013Y0286905D01*
X0105019Y0287057D01*
X0105021Y0287209D01*
X0105019Y0287361D01*
X0105013Y0287513D01*
X0105003Y0287665D01*
X0104990Y0287816D01*
X0104972Y0287967D01*
X0104951Y0288118D01*
X0104925Y0288268D01*
X0104896Y0288417D01*
X0104863Y0288566D01*
X0104826Y0288713D01*
X0104786Y0288860D01*
X0104741Y0289005D01*
X0104693Y0289149D01*
X0104641Y0289292D01*
X0104586Y0289434D01*
X0104527Y0289574D01*
X0104464Y0289713D01*
X0104398Y0289850D01*
X0104328Y0289985D01*
X0104255Y0290118D01*
X0104178Y0290249D01*
X0104098Y0290379D01*
X0104015Y0290506D01*
X0103929Y0290631D01*
X0103839Y0290754D01*
X0103746Y0290874D01*
X0103650Y0290992D01*
X0103551Y0291108D01*
X0103449Y0291221D01*
X0103345Y0291331D01*
X0103237Y0291439D01*
X0103127Y0291543D01*
X0103014Y0291645D01*
X0102898Y0291744D01*
X0102780Y0291840D01*
X0102660Y0291933D01*
X0102537Y0292023D01*
X0102412Y0292109D01*
X0102285Y0292192D01*
X0102155Y0292272D01*
X0102024Y0292349D01*
X0101891Y0292422D01*
X0101756Y0292492D01*
X0101619Y0292558D01*
X0101480Y0292621D01*
X0101340Y0292680D01*
X0101198Y0292735D01*
X0101055Y0292787D01*
X0100911Y0292835D01*
X0100766Y0292880D01*
X0100619Y0292920D01*
X0100472Y0292957D01*
X0100323Y0292990D01*
X0100174Y0293019D01*
X0100024Y0293045D01*
X0099873Y0293066D01*
X0099722Y0293084D01*
X0099571Y0293097D01*
X0099419Y0293107D01*
X0099267Y0293113D01*
X0099115Y0293115D01*
X0099115Y0293114D02*
X0059745Y0293114D01*
X0059745Y0293115D02*
X0059593Y0293113D01*
X0059441Y0293107D01*
X0059289Y0293097D01*
X0059138Y0293084D01*
X0058987Y0293066D01*
X0058836Y0293045D01*
X0058686Y0293019D01*
X0058537Y0292990D01*
X0058388Y0292957D01*
X0058241Y0292920D01*
X0058094Y0292880D01*
X0057949Y0292835D01*
X0057805Y0292787D01*
X0057662Y0292735D01*
X0057520Y0292680D01*
X0057380Y0292621D01*
X0057241Y0292558D01*
X0057104Y0292492D01*
X0056969Y0292422D01*
X0056836Y0292349D01*
X0056705Y0292272D01*
X0056575Y0292192D01*
X0056448Y0292109D01*
X0056323Y0292023D01*
X0056200Y0291933D01*
X0056080Y0291840D01*
X0055962Y0291744D01*
X0055846Y0291645D01*
X0055733Y0291543D01*
X0055623Y0291439D01*
X0055515Y0291331D01*
X0055411Y0291221D01*
X0055309Y0291108D01*
X0055210Y0290992D01*
X0055114Y0290874D01*
X0055021Y0290754D01*
X0054931Y0290631D01*
X0054845Y0290506D01*
X0054762Y0290379D01*
X0054682Y0290249D01*
X0054605Y0290118D01*
X0054532Y0289985D01*
X0054462Y0289850D01*
X0054396Y0289713D01*
X0054333Y0289574D01*
X0054274Y0289434D01*
X0054219Y0289292D01*
X0054167Y0289149D01*
X0054119Y0289005D01*
X0054074Y0288860D01*
X0054034Y0288713D01*
X0053997Y0288566D01*
X0053964Y0288417D01*
X0053935Y0288268D01*
X0053909Y0288118D01*
X0053888Y0287967D01*
X0053870Y0287816D01*
X0053857Y0287665D01*
X0053847Y0287513D01*
X0053841Y0287361D01*
X0053839Y0287209D01*
X0053841Y0287057D01*
X0053847Y0286905D01*
X0053857Y0286753D01*
X0053870Y0286602D01*
X0053888Y0286451D01*
X0053909Y0286300D01*
X0053935Y0286150D01*
X0053964Y0286001D01*
X0053997Y0285852D01*
X0054034Y0285705D01*
X0054074Y0285558D01*
X0054119Y0285413D01*
X0054167Y0285269D01*
X0054219Y0285126D01*
X0054274Y0284984D01*
X0054333Y0284844D01*
X0054396Y0284705D01*
X0054462Y0284568D01*
X0054532Y0284433D01*
X0054605Y0284300D01*
X0054682Y0284169D01*
X0054762Y0284039D01*
X0054845Y0283912D01*
X0054931Y0283787D01*
X0055021Y0283664D01*
X0055114Y0283544D01*
X0055210Y0283426D01*
X0055309Y0283310D01*
X0055411Y0283197D01*
X0055515Y0283087D01*
X0055623Y0282979D01*
X0055733Y0282875D01*
X0055846Y0282773D01*
X0055962Y0282674D01*
X0056080Y0282578D01*
X0056200Y0282485D01*
X0056323Y0282395D01*
X0056448Y0282309D01*
X0056575Y0282226D01*
X0056705Y0282146D01*
X0056836Y0282069D01*
X0056969Y0281996D01*
X0057104Y0281926D01*
X0057241Y0281860D01*
X0057380Y0281797D01*
X0057520Y0281738D01*
X0057662Y0281683D01*
X0057805Y0281631D01*
X0057949Y0281583D01*
X0058094Y0281538D01*
X0058241Y0281498D01*
X0058388Y0281461D01*
X0058537Y0281428D01*
X0058686Y0281399D01*
X0058836Y0281373D01*
X0058987Y0281352D01*
X0059138Y0281334D01*
X0059289Y0281321D01*
X0059441Y0281311D01*
X0059593Y0281305D01*
X0059745Y0281303D01*
D11*
X0027855Y0289177D02*
X0027857Y0289335D01*
X0027863Y0289493D01*
X0027873Y0289651D01*
X0027887Y0289809D01*
X0027905Y0289966D01*
X0027926Y0290123D01*
X0027952Y0290279D01*
X0027982Y0290435D01*
X0028015Y0290590D01*
X0028053Y0290743D01*
X0028094Y0290896D01*
X0028139Y0291048D01*
X0028188Y0291199D01*
X0028241Y0291348D01*
X0028297Y0291496D01*
X0028357Y0291642D01*
X0028421Y0291787D01*
X0028489Y0291930D01*
X0028560Y0292072D01*
X0028634Y0292212D01*
X0028712Y0292349D01*
X0028794Y0292485D01*
X0028878Y0292619D01*
X0028967Y0292750D01*
X0029058Y0292879D01*
X0029153Y0293006D01*
X0029250Y0293131D01*
X0029351Y0293253D01*
X0029455Y0293372D01*
X0029562Y0293489D01*
X0029672Y0293603D01*
X0029785Y0293714D01*
X0029900Y0293823D01*
X0030018Y0293928D01*
X0030139Y0294030D01*
X0030262Y0294130D01*
X0030388Y0294226D01*
X0030516Y0294319D01*
X0030646Y0294409D01*
X0030779Y0294495D01*
X0030914Y0294579D01*
X0031050Y0294658D01*
X0031189Y0294735D01*
X0031330Y0294807D01*
X0031472Y0294877D01*
X0031616Y0294942D01*
X0031762Y0295004D01*
X0031909Y0295062D01*
X0032058Y0295117D01*
X0032208Y0295168D01*
X0032359Y0295215D01*
X0032511Y0295258D01*
X0032664Y0295297D01*
X0032819Y0295333D01*
X0032974Y0295364D01*
X0033130Y0295392D01*
X0033286Y0295416D01*
X0033443Y0295436D01*
X0033601Y0295452D01*
X0033758Y0295464D01*
X0033917Y0295472D01*
X0034075Y0295476D01*
X0034233Y0295476D01*
X0034391Y0295472D01*
X0034550Y0295464D01*
X0034707Y0295452D01*
X0034865Y0295436D01*
X0035022Y0295416D01*
X0035178Y0295392D01*
X0035334Y0295364D01*
X0035489Y0295333D01*
X0035644Y0295297D01*
X0035797Y0295258D01*
X0035949Y0295215D01*
X0036100Y0295168D01*
X0036250Y0295117D01*
X0036399Y0295062D01*
X0036546Y0295004D01*
X0036692Y0294942D01*
X0036836Y0294877D01*
X0036978Y0294807D01*
X0037119Y0294735D01*
X0037258Y0294658D01*
X0037394Y0294579D01*
X0037529Y0294495D01*
X0037662Y0294409D01*
X0037792Y0294319D01*
X0037920Y0294226D01*
X0038046Y0294130D01*
X0038169Y0294030D01*
X0038290Y0293928D01*
X0038408Y0293823D01*
X0038523Y0293714D01*
X0038636Y0293603D01*
X0038746Y0293489D01*
X0038853Y0293372D01*
X0038957Y0293253D01*
X0039058Y0293131D01*
X0039155Y0293006D01*
X0039250Y0292879D01*
X0039341Y0292750D01*
X0039430Y0292619D01*
X0039514Y0292485D01*
X0039596Y0292349D01*
X0039674Y0292212D01*
X0039748Y0292072D01*
X0039819Y0291930D01*
X0039887Y0291787D01*
X0039951Y0291642D01*
X0040011Y0291496D01*
X0040067Y0291348D01*
X0040120Y0291199D01*
X0040169Y0291048D01*
X0040214Y0290896D01*
X0040255Y0290743D01*
X0040293Y0290590D01*
X0040326Y0290435D01*
X0040356Y0290279D01*
X0040382Y0290123D01*
X0040403Y0289966D01*
X0040421Y0289809D01*
X0040435Y0289651D01*
X0040445Y0289493D01*
X0040451Y0289335D01*
X0040453Y0289177D01*
X0040451Y0289019D01*
X0040445Y0288861D01*
X0040435Y0288703D01*
X0040421Y0288545D01*
X0040403Y0288388D01*
X0040382Y0288231D01*
X0040356Y0288075D01*
X0040326Y0287919D01*
X0040293Y0287764D01*
X0040255Y0287611D01*
X0040214Y0287458D01*
X0040169Y0287306D01*
X0040120Y0287155D01*
X0040067Y0287006D01*
X0040011Y0286858D01*
X0039951Y0286712D01*
X0039887Y0286567D01*
X0039819Y0286424D01*
X0039748Y0286282D01*
X0039674Y0286142D01*
X0039596Y0286005D01*
X0039514Y0285869D01*
X0039430Y0285735D01*
X0039341Y0285604D01*
X0039250Y0285475D01*
X0039155Y0285348D01*
X0039058Y0285223D01*
X0038957Y0285101D01*
X0038853Y0284982D01*
X0038746Y0284865D01*
X0038636Y0284751D01*
X0038523Y0284640D01*
X0038408Y0284531D01*
X0038290Y0284426D01*
X0038169Y0284324D01*
X0038046Y0284224D01*
X0037920Y0284128D01*
X0037792Y0284035D01*
X0037662Y0283945D01*
X0037529Y0283859D01*
X0037394Y0283775D01*
X0037258Y0283696D01*
X0037119Y0283619D01*
X0036978Y0283547D01*
X0036836Y0283477D01*
X0036692Y0283412D01*
X0036546Y0283350D01*
X0036399Y0283292D01*
X0036250Y0283237D01*
X0036100Y0283186D01*
X0035949Y0283139D01*
X0035797Y0283096D01*
X0035644Y0283057D01*
X0035489Y0283021D01*
X0035334Y0282990D01*
X0035178Y0282962D01*
X0035022Y0282938D01*
X0034865Y0282918D01*
X0034707Y0282902D01*
X0034550Y0282890D01*
X0034391Y0282882D01*
X0034233Y0282878D01*
X0034075Y0282878D01*
X0033917Y0282882D01*
X0033758Y0282890D01*
X0033601Y0282902D01*
X0033443Y0282918D01*
X0033286Y0282938D01*
X0033130Y0282962D01*
X0032974Y0282990D01*
X0032819Y0283021D01*
X0032664Y0283057D01*
X0032511Y0283096D01*
X0032359Y0283139D01*
X0032208Y0283186D01*
X0032058Y0283237D01*
X0031909Y0283292D01*
X0031762Y0283350D01*
X0031616Y0283412D01*
X0031472Y0283477D01*
X0031330Y0283547D01*
X0031189Y0283619D01*
X0031050Y0283696D01*
X0030914Y0283775D01*
X0030779Y0283859D01*
X0030646Y0283945D01*
X0030516Y0284035D01*
X0030388Y0284128D01*
X0030262Y0284224D01*
X0030139Y0284324D01*
X0030018Y0284426D01*
X0029900Y0284531D01*
X0029785Y0284640D01*
X0029672Y0284751D01*
X0029562Y0284865D01*
X0029455Y0284982D01*
X0029351Y0285101D01*
X0029250Y0285223D01*
X0029153Y0285348D01*
X0029058Y0285475D01*
X0028967Y0285604D01*
X0028878Y0285735D01*
X0028794Y0285869D01*
X0028712Y0286005D01*
X0028634Y0286142D01*
X0028560Y0286282D01*
X0028489Y0286424D01*
X0028421Y0286567D01*
X0028357Y0286712D01*
X0028297Y0286858D01*
X0028241Y0287006D01*
X0028188Y0287155D01*
X0028139Y0287306D01*
X0028094Y0287458D01*
X0028053Y0287611D01*
X0028015Y0287764D01*
X0027982Y0287919D01*
X0027952Y0288075D01*
X0027926Y0288231D01*
X0027905Y0288388D01*
X0027887Y0288545D01*
X0027873Y0288703D01*
X0027863Y0288861D01*
X0027857Y0289019D01*
X0027855Y0289177D01*
X0118406Y0289177D02*
X0118408Y0289335D01*
X0118414Y0289493D01*
X0118424Y0289651D01*
X0118438Y0289809D01*
X0118456Y0289966D01*
X0118477Y0290123D01*
X0118503Y0290279D01*
X0118533Y0290435D01*
X0118566Y0290590D01*
X0118604Y0290743D01*
X0118645Y0290896D01*
X0118690Y0291048D01*
X0118739Y0291199D01*
X0118792Y0291348D01*
X0118848Y0291496D01*
X0118908Y0291642D01*
X0118972Y0291787D01*
X0119040Y0291930D01*
X0119111Y0292072D01*
X0119185Y0292212D01*
X0119263Y0292349D01*
X0119345Y0292485D01*
X0119429Y0292619D01*
X0119518Y0292750D01*
X0119609Y0292879D01*
X0119704Y0293006D01*
X0119801Y0293131D01*
X0119902Y0293253D01*
X0120006Y0293372D01*
X0120113Y0293489D01*
X0120223Y0293603D01*
X0120336Y0293714D01*
X0120451Y0293823D01*
X0120569Y0293928D01*
X0120690Y0294030D01*
X0120813Y0294130D01*
X0120939Y0294226D01*
X0121067Y0294319D01*
X0121197Y0294409D01*
X0121330Y0294495D01*
X0121465Y0294579D01*
X0121601Y0294658D01*
X0121740Y0294735D01*
X0121881Y0294807D01*
X0122023Y0294877D01*
X0122167Y0294942D01*
X0122313Y0295004D01*
X0122460Y0295062D01*
X0122609Y0295117D01*
X0122759Y0295168D01*
X0122910Y0295215D01*
X0123062Y0295258D01*
X0123215Y0295297D01*
X0123370Y0295333D01*
X0123525Y0295364D01*
X0123681Y0295392D01*
X0123837Y0295416D01*
X0123994Y0295436D01*
X0124152Y0295452D01*
X0124309Y0295464D01*
X0124468Y0295472D01*
X0124626Y0295476D01*
X0124784Y0295476D01*
X0124942Y0295472D01*
X0125101Y0295464D01*
X0125258Y0295452D01*
X0125416Y0295436D01*
X0125573Y0295416D01*
X0125729Y0295392D01*
X0125885Y0295364D01*
X0126040Y0295333D01*
X0126195Y0295297D01*
X0126348Y0295258D01*
X0126500Y0295215D01*
X0126651Y0295168D01*
X0126801Y0295117D01*
X0126950Y0295062D01*
X0127097Y0295004D01*
X0127243Y0294942D01*
X0127387Y0294877D01*
X0127529Y0294807D01*
X0127670Y0294735D01*
X0127809Y0294658D01*
X0127945Y0294579D01*
X0128080Y0294495D01*
X0128213Y0294409D01*
X0128343Y0294319D01*
X0128471Y0294226D01*
X0128597Y0294130D01*
X0128720Y0294030D01*
X0128841Y0293928D01*
X0128959Y0293823D01*
X0129074Y0293714D01*
X0129187Y0293603D01*
X0129297Y0293489D01*
X0129404Y0293372D01*
X0129508Y0293253D01*
X0129609Y0293131D01*
X0129706Y0293006D01*
X0129801Y0292879D01*
X0129892Y0292750D01*
X0129981Y0292619D01*
X0130065Y0292485D01*
X0130147Y0292349D01*
X0130225Y0292212D01*
X0130299Y0292072D01*
X0130370Y0291930D01*
X0130438Y0291787D01*
X0130502Y0291642D01*
X0130562Y0291496D01*
X0130618Y0291348D01*
X0130671Y0291199D01*
X0130720Y0291048D01*
X0130765Y0290896D01*
X0130806Y0290743D01*
X0130844Y0290590D01*
X0130877Y0290435D01*
X0130907Y0290279D01*
X0130933Y0290123D01*
X0130954Y0289966D01*
X0130972Y0289809D01*
X0130986Y0289651D01*
X0130996Y0289493D01*
X0131002Y0289335D01*
X0131004Y0289177D01*
X0131002Y0289019D01*
X0130996Y0288861D01*
X0130986Y0288703D01*
X0130972Y0288545D01*
X0130954Y0288388D01*
X0130933Y0288231D01*
X0130907Y0288075D01*
X0130877Y0287919D01*
X0130844Y0287764D01*
X0130806Y0287611D01*
X0130765Y0287458D01*
X0130720Y0287306D01*
X0130671Y0287155D01*
X0130618Y0287006D01*
X0130562Y0286858D01*
X0130502Y0286712D01*
X0130438Y0286567D01*
X0130370Y0286424D01*
X0130299Y0286282D01*
X0130225Y0286142D01*
X0130147Y0286005D01*
X0130065Y0285869D01*
X0129981Y0285735D01*
X0129892Y0285604D01*
X0129801Y0285475D01*
X0129706Y0285348D01*
X0129609Y0285223D01*
X0129508Y0285101D01*
X0129404Y0284982D01*
X0129297Y0284865D01*
X0129187Y0284751D01*
X0129074Y0284640D01*
X0128959Y0284531D01*
X0128841Y0284426D01*
X0128720Y0284324D01*
X0128597Y0284224D01*
X0128471Y0284128D01*
X0128343Y0284035D01*
X0128213Y0283945D01*
X0128080Y0283859D01*
X0127945Y0283775D01*
X0127809Y0283696D01*
X0127670Y0283619D01*
X0127529Y0283547D01*
X0127387Y0283477D01*
X0127243Y0283412D01*
X0127097Y0283350D01*
X0126950Y0283292D01*
X0126801Y0283237D01*
X0126651Y0283186D01*
X0126500Y0283139D01*
X0126348Y0283096D01*
X0126195Y0283057D01*
X0126040Y0283021D01*
X0125885Y0282990D01*
X0125729Y0282962D01*
X0125573Y0282938D01*
X0125416Y0282918D01*
X0125258Y0282902D01*
X0125101Y0282890D01*
X0124942Y0282882D01*
X0124784Y0282878D01*
X0124626Y0282878D01*
X0124468Y0282882D01*
X0124309Y0282890D01*
X0124152Y0282902D01*
X0123994Y0282918D01*
X0123837Y0282938D01*
X0123681Y0282962D01*
X0123525Y0282990D01*
X0123370Y0283021D01*
X0123215Y0283057D01*
X0123062Y0283096D01*
X0122910Y0283139D01*
X0122759Y0283186D01*
X0122609Y0283237D01*
X0122460Y0283292D01*
X0122313Y0283350D01*
X0122167Y0283412D01*
X0122023Y0283477D01*
X0121881Y0283547D01*
X0121740Y0283619D01*
X0121601Y0283696D01*
X0121465Y0283775D01*
X0121330Y0283859D01*
X0121197Y0283945D01*
X0121067Y0284035D01*
X0120939Y0284128D01*
X0120813Y0284224D01*
X0120690Y0284324D01*
X0120569Y0284426D01*
X0120451Y0284531D01*
X0120336Y0284640D01*
X0120223Y0284751D01*
X0120113Y0284865D01*
X0120006Y0284982D01*
X0119902Y0285101D01*
X0119801Y0285223D01*
X0119704Y0285348D01*
X0119609Y0285475D01*
X0119518Y0285604D01*
X0119429Y0285735D01*
X0119345Y0285869D01*
X0119263Y0286005D01*
X0119185Y0286142D01*
X0119111Y0286282D01*
X0119040Y0286424D01*
X0118972Y0286567D01*
X0118908Y0286712D01*
X0118848Y0286858D01*
X0118792Y0287006D01*
X0118739Y0287155D01*
X0118690Y0287306D01*
X0118645Y0287458D01*
X0118604Y0287611D01*
X0118566Y0287764D01*
X0118533Y0287919D01*
X0118503Y0288075D01*
X0118477Y0288231D01*
X0118456Y0288388D01*
X0118438Y0288545D01*
X0118424Y0288703D01*
X0118414Y0288861D01*
X0118408Y0289019D01*
X0118406Y0289177D01*
M02*
