G75*
%MOIN*%
%OFA0B0*%
%FSLAX25Y25*%
%IPPOS*%
%LPD*%
%AMOC8*
5,1,8,0,0,1.08239X$1,22.5*
%
%ADD10C,0.00000*%
%ADD11R,0.06600X0.06600*%
%ADD12C,0.06600*%
%ADD13R,0.07400X0.07400*%
%ADD14C,0.07400*%
%ADD15C,0.03200*%
%ADD16C,0.03562*%
%ADD17C,0.01600*%
D10*
X0051000Y0001000D02*
X0121000Y0001000D01*
X0136000Y0016000D01*
X0136000Y0166000D01*
X0151000Y0181000D01*
X0266000Y0181000D01*
X0286000Y0201000D01*
X0286000Y0221000D01*
X0266000Y0241000D01*
X0041000Y0241000D01*
X0001000Y0201000D01*
X0001000Y0051000D01*
X0051000Y0001000D01*
D11*
X0041000Y0221000D03*
D12*
X0051000Y0221000D03*
X0051000Y0211000D03*
X0041000Y0211000D03*
X0041000Y0201000D03*
X0051000Y0201000D03*
D13*
X0011000Y0171000D03*
X0116000Y0021000D03*
X0206000Y0211000D03*
D14*
X0046000Y0021000D03*
X0056000Y0021000D03*
X0066000Y0021000D03*
X0076000Y0021000D03*
X0086000Y0021000D03*
X0096000Y0021000D03*
X0106000Y0021000D03*
X0081000Y0171000D03*
X0071000Y0171000D03*
X0061000Y0171000D03*
X0051000Y0171000D03*
X0041000Y0171000D03*
X0031000Y0171000D03*
X0021000Y0171000D03*
X0216000Y0211000D03*
X0226000Y0211000D03*
X0236000Y0211000D03*
X0246000Y0211000D03*
X0256000Y0211000D03*
X0266000Y0211000D03*
X0276000Y0211000D03*
D15*
X0126000Y0216000D02*
X0126000Y0076000D01*
X0126000Y0016000D01*
X0051000Y0171000D02*
X0051000Y0181000D01*
X0041000Y0191000D01*
X0031000Y0191000D01*
X0026000Y0196000D01*
X0026000Y0206000D01*
X0031000Y0211000D01*
X0041000Y0211000D01*
X0051000Y0221000D02*
X0121000Y0221000D01*
X0126000Y0216000D01*
D16*
X0111000Y0071000D03*
X0126000Y0016000D03*
D17*
X0121000Y0071000D02*
X0111000Y0071000D01*
X0121000Y0071000D02*
X0126000Y0076000D01*
M02*
