%
M48
M72
T01C0.02362
T02C0.03937
T03C0.04000
%
T01
X125000Y15000
X110000Y70000
T02
X40000Y220000
X50000Y220000
X40000Y210000
X50000Y210000
X40000Y200000
X50000Y200000
T03
X115000Y20000
X105000Y20000
X95000Y20000
X85000Y20000
X75000Y20000
X65000Y20000
X55000Y20000
X45000Y20000
X205000Y210000
X215000Y210000
X225000Y210000
X235000Y210000
X245000Y210000
X255000Y210000
X265000Y210000
X275000Y210000
X10000Y170000
X20000Y170000
X30000Y170000
X40000Y170000
X50000Y170000
X60000Y170000
X70000Y170000
X80000Y170000
M30
