G75*
%MOIN*%
%OFA0B0*%
%FSLAX25Y25*%
%IPPOS*%
%LPD*%
%AMOC8*
5,1,8,0,0,1.08239X$1,22.5*
%
%ADD10C,0.00394*%
%ADD11C,0.00000*%
D10*
X0001881Y0013611D02*
X0001881Y0265580D01*
X0001884Y0265865D01*
X0001895Y0266151D01*
X0001912Y0266436D01*
X0001936Y0266720D01*
X0001967Y0267004D01*
X0002005Y0267287D01*
X0002050Y0267568D01*
X0002101Y0267849D01*
X0002159Y0268129D01*
X0002224Y0268407D01*
X0002296Y0268683D01*
X0002374Y0268957D01*
X0002459Y0269230D01*
X0002551Y0269500D01*
X0002649Y0269768D01*
X0002753Y0270034D01*
X0002864Y0270297D01*
X0002981Y0270557D01*
X0003104Y0270815D01*
X0003234Y0271069D01*
X0003370Y0271320D01*
X0003511Y0271568D01*
X0003659Y0271812D01*
X0003812Y0272053D01*
X0003972Y0272289D01*
X0004137Y0272522D01*
X0004307Y0272751D01*
X0004483Y0272976D01*
X0004665Y0273196D01*
X0004851Y0273412D01*
X0005043Y0273623D01*
X0005240Y0273830D01*
X0005442Y0274032D01*
X0005649Y0274229D01*
X0005860Y0274421D01*
X0006076Y0274607D01*
X0006296Y0274789D01*
X0006521Y0274965D01*
X0006750Y0275135D01*
X0006983Y0275300D01*
X0007219Y0275460D01*
X0007460Y0275613D01*
X0007704Y0275761D01*
X0007952Y0275902D01*
X0008203Y0276038D01*
X0008457Y0276168D01*
X0008715Y0276291D01*
X0008975Y0276408D01*
X0009238Y0276519D01*
X0009504Y0276623D01*
X0009772Y0276721D01*
X0010042Y0276813D01*
X0010315Y0276898D01*
X0010589Y0276976D01*
X0010865Y0277048D01*
X0011143Y0277113D01*
X0011423Y0277171D01*
X0011704Y0277222D01*
X0011985Y0277267D01*
X0012268Y0277305D01*
X0012552Y0277336D01*
X0012836Y0277360D01*
X0013121Y0277377D01*
X0013407Y0277388D01*
X0013692Y0277391D01*
X0108180Y0277391D01*
X0108465Y0277388D01*
X0108751Y0277377D01*
X0109036Y0277360D01*
X0109320Y0277336D01*
X0109604Y0277305D01*
X0109887Y0277267D01*
X0110168Y0277222D01*
X0110449Y0277171D01*
X0110729Y0277113D01*
X0111007Y0277048D01*
X0111283Y0276976D01*
X0111557Y0276898D01*
X0111830Y0276813D01*
X0112100Y0276721D01*
X0112368Y0276623D01*
X0112634Y0276519D01*
X0112897Y0276408D01*
X0113157Y0276291D01*
X0113415Y0276168D01*
X0113669Y0276038D01*
X0113920Y0275902D01*
X0114168Y0275761D01*
X0114412Y0275613D01*
X0114653Y0275460D01*
X0114889Y0275300D01*
X0115122Y0275135D01*
X0115351Y0274965D01*
X0115576Y0274789D01*
X0115796Y0274607D01*
X0116012Y0274421D01*
X0116223Y0274229D01*
X0116430Y0274032D01*
X0116632Y0273830D01*
X0116829Y0273623D01*
X0117021Y0273412D01*
X0117207Y0273196D01*
X0117389Y0272976D01*
X0117565Y0272751D01*
X0117735Y0272522D01*
X0117900Y0272289D01*
X0118060Y0272053D01*
X0118213Y0271812D01*
X0118361Y0271568D01*
X0118502Y0271320D01*
X0118638Y0271069D01*
X0118768Y0270815D01*
X0118891Y0270557D01*
X0119008Y0270297D01*
X0119119Y0270034D01*
X0119223Y0269768D01*
X0119321Y0269500D01*
X0119413Y0269230D01*
X0119498Y0268957D01*
X0119576Y0268683D01*
X0119648Y0268407D01*
X0119713Y0268129D01*
X0119771Y0267849D01*
X0119822Y0267568D01*
X0119867Y0267287D01*
X0119905Y0267004D01*
X0119936Y0266720D01*
X0119960Y0266436D01*
X0119977Y0266151D01*
X0119988Y0265865D01*
X0119991Y0265580D01*
X0119991Y0013611D01*
X0119988Y0013326D01*
X0119977Y0013040D01*
X0119960Y0012755D01*
X0119936Y0012471D01*
X0119905Y0012187D01*
X0119867Y0011904D01*
X0119822Y0011623D01*
X0119771Y0011342D01*
X0119713Y0011062D01*
X0119648Y0010784D01*
X0119576Y0010508D01*
X0119498Y0010234D01*
X0119413Y0009961D01*
X0119321Y0009691D01*
X0119223Y0009423D01*
X0119119Y0009157D01*
X0119008Y0008894D01*
X0118891Y0008634D01*
X0118768Y0008376D01*
X0118638Y0008122D01*
X0118502Y0007871D01*
X0118361Y0007623D01*
X0118213Y0007379D01*
X0118060Y0007138D01*
X0117900Y0006902D01*
X0117735Y0006669D01*
X0117565Y0006440D01*
X0117389Y0006215D01*
X0117207Y0005995D01*
X0117021Y0005779D01*
X0116829Y0005568D01*
X0116632Y0005361D01*
X0116430Y0005159D01*
X0116223Y0004962D01*
X0116012Y0004770D01*
X0115796Y0004584D01*
X0115576Y0004402D01*
X0115351Y0004226D01*
X0115122Y0004056D01*
X0114889Y0003891D01*
X0114653Y0003731D01*
X0114412Y0003578D01*
X0114168Y0003430D01*
X0113920Y0003289D01*
X0113669Y0003153D01*
X0113415Y0003023D01*
X0113157Y0002900D01*
X0112897Y0002783D01*
X0112634Y0002672D01*
X0112368Y0002568D01*
X0112100Y0002470D01*
X0111830Y0002378D01*
X0111557Y0002293D01*
X0111283Y0002215D01*
X0111007Y0002143D01*
X0110729Y0002078D01*
X0110449Y0002020D01*
X0110168Y0001969D01*
X0109887Y0001924D01*
X0109604Y0001886D01*
X0109320Y0001855D01*
X0109036Y0001831D01*
X0108751Y0001814D01*
X0108465Y0001803D01*
X0108180Y0001800D01*
X0013692Y0001800D01*
X0013407Y0001803D01*
X0013121Y0001814D01*
X0012836Y0001831D01*
X0012552Y0001855D01*
X0012268Y0001886D01*
X0011985Y0001924D01*
X0011704Y0001969D01*
X0011423Y0002020D01*
X0011143Y0002078D01*
X0010865Y0002143D01*
X0010589Y0002215D01*
X0010315Y0002293D01*
X0010042Y0002378D01*
X0009772Y0002470D01*
X0009504Y0002568D01*
X0009238Y0002672D01*
X0008975Y0002783D01*
X0008715Y0002900D01*
X0008457Y0003023D01*
X0008203Y0003153D01*
X0007952Y0003289D01*
X0007704Y0003430D01*
X0007460Y0003578D01*
X0007219Y0003731D01*
X0006983Y0003891D01*
X0006750Y0004056D01*
X0006521Y0004226D01*
X0006296Y0004402D01*
X0006076Y0004584D01*
X0005860Y0004770D01*
X0005649Y0004962D01*
X0005442Y0005159D01*
X0005240Y0005361D01*
X0005043Y0005568D01*
X0004851Y0005779D01*
X0004665Y0005995D01*
X0004483Y0006215D01*
X0004307Y0006440D01*
X0004137Y0006669D01*
X0003972Y0006902D01*
X0003812Y0007138D01*
X0003659Y0007379D01*
X0003511Y0007623D01*
X0003370Y0007871D01*
X0003234Y0008122D01*
X0003104Y0008376D01*
X0002981Y0008634D01*
X0002864Y0008894D01*
X0002753Y0009157D01*
X0002649Y0009423D01*
X0002551Y0009691D01*
X0002459Y0009961D01*
X0002374Y0010234D01*
X0002296Y0010508D01*
X0002224Y0010784D01*
X0002159Y0011062D01*
X0002101Y0011342D01*
X0002050Y0011623D01*
X0002005Y0011904D01*
X0001967Y0012187D01*
X0001936Y0012471D01*
X0001912Y0012755D01*
X0001895Y0013040D01*
X0001884Y0013326D01*
X0001881Y0013611D01*
X0037314Y0251800D02*
X0084558Y0251800D01*
X0084710Y0251802D01*
X0084862Y0251808D01*
X0085014Y0251818D01*
X0085165Y0251831D01*
X0085316Y0251849D01*
X0085467Y0251870D01*
X0085617Y0251896D01*
X0085766Y0251925D01*
X0085915Y0251958D01*
X0086062Y0251995D01*
X0086209Y0252035D01*
X0086354Y0252080D01*
X0086498Y0252128D01*
X0086641Y0252180D01*
X0086783Y0252235D01*
X0086923Y0252294D01*
X0087062Y0252357D01*
X0087199Y0252423D01*
X0087334Y0252493D01*
X0087467Y0252566D01*
X0087598Y0252643D01*
X0087728Y0252723D01*
X0087855Y0252806D01*
X0087980Y0252892D01*
X0088103Y0252982D01*
X0088223Y0253075D01*
X0088341Y0253171D01*
X0088457Y0253270D01*
X0088570Y0253372D01*
X0088680Y0253476D01*
X0088788Y0253584D01*
X0088892Y0253694D01*
X0088994Y0253807D01*
X0089093Y0253923D01*
X0089189Y0254041D01*
X0089282Y0254161D01*
X0089372Y0254284D01*
X0089458Y0254409D01*
X0089541Y0254536D01*
X0089621Y0254666D01*
X0089698Y0254797D01*
X0089771Y0254930D01*
X0089841Y0255065D01*
X0089907Y0255202D01*
X0089970Y0255341D01*
X0090029Y0255481D01*
X0090084Y0255623D01*
X0090136Y0255766D01*
X0090184Y0255910D01*
X0090229Y0256055D01*
X0090269Y0256202D01*
X0090306Y0256349D01*
X0090339Y0256498D01*
X0090368Y0256647D01*
X0090394Y0256797D01*
X0090415Y0256948D01*
X0090433Y0257099D01*
X0090446Y0257250D01*
X0090456Y0257402D01*
X0090462Y0257554D01*
X0090464Y0257706D01*
X0090463Y0257706D02*
X0090463Y0261643D01*
X0090464Y0261643D02*
X0090462Y0261795D01*
X0090456Y0261947D01*
X0090446Y0262099D01*
X0090433Y0262250D01*
X0090415Y0262401D01*
X0090394Y0262552D01*
X0090368Y0262702D01*
X0090339Y0262851D01*
X0090306Y0263000D01*
X0090269Y0263147D01*
X0090229Y0263294D01*
X0090184Y0263439D01*
X0090136Y0263583D01*
X0090084Y0263726D01*
X0090029Y0263868D01*
X0089970Y0264008D01*
X0089907Y0264147D01*
X0089841Y0264284D01*
X0089771Y0264419D01*
X0089698Y0264552D01*
X0089621Y0264683D01*
X0089541Y0264813D01*
X0089458Y0264940D01*
X0089372Y0265065D01*
X0089282Y0265188D01*
X0089189Y0265308D01*
X0089093Y0265426D01*
X0088994Y0265542D01*
X0088892Y0265655D01*
X0088788Y0265765D01*
X0088680Y0265873D01*
X0088570Y0265977D01*
X0088457Y0266079D01*
X0088341Y0266178D01*
X0088223Y0266274D01*
X0088103Y0266367D01*
X0087980Y0266457D01*
X0087855Y0266543D01*
X0087728Y0266626D01*
X0087598Y0266706D01*
X0087467Y0266783D01*
X0087334Y0266856D01*
X0087199Y0266926D01*
X0087062Y0266992D01*
X0086923Y0267055D01*
X0086783Y0267114D01*
X0086641Y0267169D01*
X0086498Y0267221D01*
X0086354Y0267269D01*
X0086209Y0267314D01*
X0086062Y0267354D01*
X0085915Y0267391D01*
X0085766Y0267424D01*
X0085617Y0267453D01*
X0085467Y0267479D01*
X0085316Y0267500D01*
X0085165Y0267518D01*
X0085014Y0267531D01*
X0084862Y0267541D01*
X0084710Y0267547D01*
X0084558Y0267549D01*
X0084558Y0267548D02*
X0037314Y0267548D01*
X0037314Y0267549D02*
X0037162Y0267547D01*
X0037010Y0267541D01*
X0036858Y0267531D01*
X0036707Y0267518D01*
X0036556Y0267500D01*
X0036405Y0267479D01*
X0036255Y0267453D01*
X0036106Y0267424D01*
X0035957Y0267391D01*
X0035810Y0267354D01*
X0035663Y0267314D01*
X0035518Y0267269D01*
X0035374Y0267221D01*
X0035231Y0267169D01*
X0035089Y0267114D01*
X0034949Y0267055D01*
X0034810Y0266992D01*
X0034673Y0266926D01*
X0034538Y0266856D01*
X0034405Y0266783D01*
X0034274Y0266706D01*
X0034144Y0266626D01*
X0034017Y0266543D01*
X0033892Y0266457D01*
X0033769Y0266367D01*
X0033649Y0266274D01*
X0033531Y0266178D01*
X0033415Y0266079D01*
X0033302Y0265977D01*
X0033192Y0265873D01*
X0033084Y0265765D01*
X0032980Y0265655D01*
X0032878Y0265542D01*
X0032779Y0265426D01*
X0032683Y0265308D01*
X0032590Y0265188D01*
X0032500Y0265065D01*
X0032414Y0264940D01*
X0032331Y0264813D01*
X0032251Y0264683D01*
X0032174Y0264552D01*
X0032101Y0264419D01*
X0032031Y0264284D01*
X0031965Y0264147D01*
X0031902Y0264008D01*
X0031843Y0263868D01*
X0031788Y0263726D01*
X0031736Y0263583D01*
X0031688Y0263439D01*
X0031643Y0263294D01*
X0031603Y0263147D01*
X0031566Y0263000D01*
X0031533Y0262851D01*
X0031504Y0262702D01*
X0031478Y0262552D01*
X0031457Y0262401D01*
X0031439Y0262250D01*
X0031426Y0262099D01*
X0031416Y0261947D01*
X0031410Y0261795D01*
X0031408Y0261643D01*
X0031408Y0257706D01*
X0031410Y0257554D01*
X0031416Y0257402D01*
X0031426Y0257250D01*
X0031439Y0257099D01*
X0031457Y0256948D01*
X0031478Y0256797D01*
X0031504Y0256647D01*
X0031533Y0256498D01*
X0031566Y0256349D01*
X0031603Y0256202D01*
X0031643Y0256055D01*
X0031688Y0255910D01*
X0031736Y0255766D01*
X0031788Y0255623D01*
X0031843Y0255481D01*
X0031902Y0255341D01*
X0031965Y0255202D01*
X0032031Y0255065D01*
X0032101Y0254930D01*
X0032174Y0254797D01*
X0032251Y0254666D01*
X0032331Y0254536D01*
X0032414Y0254409D01*
X0032500Y0254284D01*
X0032590Y0254161D01*
X0032683Y0254041D01*
X0032779Y0253923D01*
X0032878Y0253807D01*
X0032980Y0253694D01*
X0033084Y0253584D01*
X0033192Y0253476D01*
X0033302Y0253372D01*
X0033415Y0253270D01*
X0033531Y0253171D01*
X0033649Y0253075D01*
X0033769Y0252982D01*
X0033892Y0252892D01*
X0034017Y0252806D01*
X0034144Y0252723D01*
X0034274Y0252643D01*
X0034405Y0252566D01*
X0034538Y0252493D01*
X0034673Y0252423D01*
X0034810Y0252357D01*
X0034949Y0252294D01*
X0035089Y0252235D01*
X0035231Y0252180D01*
X0035374Y0252128D01*
X0035518Y0252080D01*
X0035663Y0252035D01*
X0035810Y0251995D01*
X0035957Y0251958D01*
X0036106Y0251925D01*
X0036255Y0251896D01*
X0036405Y0251870D01*
X0036556Y0251849D01*
X0036707Y0251831D01*
X0036858Y0251818D01*
X0037010Y0251808D01*
X0037162Y0251802D01*
X0037314Y0251800D01*
D11*
X0009361Y0263611D02*
X0009363Y0263769D01*
X0009369Y0263927D01*
X0009379Y0264085D01*
X0009393Y0264243D01*
X0009411Y0264400D01*
X0009432Y0264557D01*
X0009458Y0264713D01*
X0009488Y0264869D01*
X0009521Y0265024D01*
X0009559Y0265177D01*
X0009600Y0265330D01*
X0009645Y0265482D01*
X0009694Y0265633D01*
X0009747Y0265782D01*
X0009803Y0265930D01*
X0009863Y0266076D01*
X0009927Y0266221D01*
X0009995Y0266364D01*
X0010066Y0266506D01*
X0010140Y0266646D01*
X0010218Y0266783D01*
X0010300Y0266919D01*
X0010384Y0267053D01*
X0010473Y0267184D01*
X0010564Y0267313D01*
X0010659Y0267440D01*
X0010756Y0267565D01*
X0010857Y0267687D01*
X0010961Y0267806D01*
X0011068Y0267923D01*
X0011178Y0268037D01*
X0011291Y0268148D01*
X0011406Y0268257D01*
X0011524Y0268362D01*
X0011645Y0268464D01*
X0011768Y0268564D01*
X0011894Y0268660D01*
X0012022Y0268753D01*
X0012152Y0268843D01*
X0012285Y0268929D01*
X0012420Y0269013D01*
X0012556Y0269092D01*
X0012695Y0269169D01*
X0012836Y0269241D01*
X0012978Y0269311D01*
X0013122Y0269376D01*
X0013268Y0269438D01*
X0013415Y0269496D01*
X0013564Y0269551D01*
X0013714Y0269602D01*
X0013865Y0269649D01*
X0014017Y0269692D01*
X0014170Y0269731D01*
X0014325Y0269767D01*
X0014480Y0269798D01*
X0014636Y0269826D01*
X0014792Y0269850D01*
X0014949Y0269870D01*
X0015107Y0269886D01*
X0015264Y0269898D01*
X0015423Y0269906D01*
X0015581Y0269910D01*
X0015739Y0269910D01*
X0015897Y0269906D01*
X0016056Y0269898D01*
X0016213Y0269886D01*
X0016371Y0269870D01*
X0016528Y0269850D01*
X0016684Y0269826D01*
X0016840Y0269798D01*
X0016995Y0269767D01*
X0017150Y0269731D01*
X0017303Y0269692D01*
X0017455Y0269649D01*
X0017606Y0269602D01*
X0017756Y0269551D01*
X0017905Y0269496D01*
X0018052Y0269438D01*
X0018198Y0269376D01*
X0018342Y0269311D01*
X0018484Y0269241D01*
X0018625Y0269169D01*
X0018764Y0269092D01*
X0018900Y0269013D01*
X0019035Y0268929D01*
X0019168Y0268843D01*
X0019298Y0268753D01*
X0019426Y0268660D01*
X0019552Y0268564D01*
X0019675Y0268464D01*
X0019796Y0268362D01*
X0019914Y0268257D01*
X0020029Y0268148D01*
X0020142Y0268037D01*
X0020252Y0267923D01*
X0020359Y0267806D01*
X0020463Y0267687D01*
X0020564Y0267565D01*
X0020661Y0267440D01*
X0020756Y0267313D01*
X0020847Y0267184D01*
X0020936Y0267053D01*
X0021020Y0266919D01*
X0021102Y0266783D01*
X0021180Y0266646D01*
X0021254Y0266506D01*
X0021325Y0266364D01*
X0021393Y0266221D01*
X0021457Y0266076D01*
X0021517Y0265930D01*
X0021573Y0265782D01*
X0021626Y0265633D01*
X0021675Y0265482D01*
X0021720Y0265330D01*
X0021761Y0265177D01*
X0021799Y0265024D01*
X0021832Y0264869D01*
X0021862Y0264713D01*
X0021888Y0264557D01*
X0021909Y0264400D01*
X0021927Y0264243D01*
X0021941Y0264085D01*
X0021951Y0263927D01*
X0021957Y0263769D01*
X0021959Y0263611D01*
X0021957Y0263453D01*
X0021951Y0263295D01*
X0021941Y0263137D01*
X0021927Y0262979D01*
X0021909Y0262822D01*
X0021888Y0262665D01*
X0021862Y0262509D01*
X0021832Y0262353D01*
X0021799Y0262198D01*
X0021761Y0262045D01*
X0021720Y0261892D01*
X0021675Y0261740D01*
X0021626Y0261589D01*
X0021573Y0261440D01*
X0021517Y0261292D01*
X0021457Y0261146D01*
X0021393Y0261001D01*
X0021325Y0260858D01*
X0021254Y0260716D01*
X0021180Y0260576D01*
X0021102Y0260439D01*
X0021020Y0260303D01*
X0020936Y0260169D01*
X0020847Y0260038D01*
X0020756Y0259909D01*
X0020661Y0259782D01*
X0020564Y0259657D01*
X0020463Y0259535D01*
X0020359Y0259416D01*
X0020252Y0259299D01*
X0020142Y0259185D01*
X0020029Y0259074D01*
X0019914Y0258965D01*
X0019796Y0258860D01*
X0019675Y0258758D01*
X0019552Y0258658D01*
X0019426Y0258562D01*
X0019298Y0258469D01*
X0019168Y0258379D01*
X0019035Y0258293D01*
X0018900Y0258209D01*
X0018764Y0258130D01*
X0018625Y0258053D01*
X0018484Y0257981D01*
X0018342Y0257911D01*
X0018198Y0257846D01*
X0018052Y0257784D01*
X0017905Y0257726D01*
X0017756Y0257671D01*
X0017606Y0257620D01*
X0017455Y0257573D01*
X0017303Y0257530D01*
X0017150Y0257491D01*
X0016995Y0257455D01*
X0016840Y0257424D01*
X0016684Y0257396D01*
X0016528Y0257372D01*
X0016371Y0257352D01*
X0016213Y0257336D01*
X0016056Y0257324D01*
X0015897Y0257316D01*
X0015739Y0257312D01*
X0015581Y0257312D01*
X0015423Y0257316D01*
X0015264Y0257324D01*
X0015107Y0257336D01*
X0014949Y0257352D01*
X0014792Y0257372D01*
X0014636Y0257396D01*
X0014480Y0257424D01*
X0014325Y0257455D01*
X0014170Y0257491D01*
X0014017Y0257530D01*
X0013865Y0257573D01*
X0013714Y0257620D01*
X0013564Y0257671D01*
X0013415Y0257726D01*
X0013268Y0257784D01*
X0013122Y0257846D01*
X0012978Y0257911D01*
X0012836Y0257981D01*
X0012695Y0258053D01*
X0012556Y0258130D01*
X0012420Y0258209D01*
X0012285Y0258293D01*
X0012152Y0258379D01*
X0012022Y0258469D01*
X0011894Y0258562D01*
X0011768Y0258658D01*
X0011645Y0258758D01*
X0011524Y0258860D01*
X0011406Y0258965D01*
X0011291Y0259074D01*
X0011178Y0259185D01*
X0011068Y0259299D01*
X0010961Y0259416D01*
X0010857Y0259535D01*
X0010756Y0259657D01*
X0010659Y0259782D01*
X0010564Y0259909D01*
X0010473Y0260038D01*
X0010384Y0260169D01*
X0010300Y0260303D01*
X0010218Y0260439D01*
X0010140Y0260576D01*
X0010066Y0260716D01*
X0009995Y0260858D01*
X0009927Y0261001D01*
X0009863Y0261146D01*
X0009803Y0261292D01*
X0009747Y0261440D01*
X0009694Y0261589D01*
X0009645Y0261740D01*
X0009600Y0261892D01*
X0009559Y0262045D01*
X0009521Y0262198D01*
X0009488Y0262353D01*
X0009458Y0262509D01*
X0009432Y0262665D01*
X0009411Y0262822D01*
X0009393Y0262979D01*
X0009379Y0263137D01*
X0009369Y0263295D01*
X0009363Y0263453D01*
X0009361Y0263611D01*
X0099912Y0263611D02*
X0099914Y0263769D01*
X0099920Y0263927D01*
X0099930Y0264085D01*
X0099944Y0264243D01*
X0099962Y0264400D01*
X0099983Y0264557D01*
X0100009Y0264713D01*
X0100039Y0264869D01*
X0100072Y0265024D01*
X0100110Y0265177D01*
X0100151Y0265330D01*
X0100196Y0265482D01*
X0100245Y0265633D01*
X0100298Y0265782D01*
X0100354Y0265930D01*
X0100414Y0266076D01*
X0100478Y0266221D01*
X0100546Y0266364D01*
X0100617Y0266506D01*
X0100691Y0266646D01*
X0100769Y0266783D01*
X0100851Y0266919D01*
X0100935Y0267053D01*
X0101024Y0267184D01*
X0101115Y0267313D01*
X0101210Y0267440D01*
X0101307Y0267565D01*
X0101408Y0267687D01*
X0101512Y0267806D01*
X0101619Y0267923D01*
X0101729Y0268037D01*
X0101842Y0268148D01*
X0101957Y0268257D01*
X0102075Y0268362D01*
X0102196Y0268464D01*
X0102319Y0268564D01*
X0102445Y0268660D01*
X0102573Y0268753D01*
X0102703Y0268843D01*
X0102836Y0268929D01*
X0102971Y0269013D01*
X0103107Y0269092D01*
X0103246Y0269169D01*
X0103387Y0269241D01*
X0103529Y0269311D01*
X0103673Y0269376D01*
X0103819Y0269438D01*
X0103966Y0269496D01*
X0104115Y0269551D01*
X0104265Y0269602D01*
X0104416Y0269649D01*
X0104568Y0269692D01*
X0104721Y0269731D01*
X0104876Y0269767D01*
X0105031Y0269798D01*
X0105187Y0269826D01*
X0105343Y0269850D01*
X0105500Y0269870D01*
X0105658Y0269886D01*
X0105815Y0269898D01*
X0105974Y0269906D01*
X0106132Y0269910D01*
X0106290Y0269910D01*
X0106448Y0269906D01*
X0106607Y0269898D01*
X0106764Y0269886D01*
X0106922Y0269870D01*
X0107079Y0269850D01*
X0107235Y0269826D01*
X0107391Y0269798D01*
X0107546Y0269767D01*
X0107701Y0269731D01*
X0107854Y0269692D01*
X0108006Y0269649D01*
X0108157Y0269602D01*
X0108307Y0269551D01*
X0108456Y0269496D01*
X0108603Y0269438D01*
X0108749Y0269376D01*
X0108893Y0269311D01*
X0109035Y0269241D01*
X0109176Y0269169D01*
X0109315Y0269092D01*
X0109451Y0269013D01*
X0109586Y0268929D01*
X0109719Y0268843D01*
X0109849Y0268753D01*
X0109977Y0268660D01*
X0110103Y0268564D01*
X0110226Y0268464D01*
X0110347Y0268362D01*
X0110465Y0268257D01*
X0110580Y0268148D01*
X0110693Y0268037D01*
X0110803Y0267923D01*
X0110910Y0267806D01*
X0111014Y0267687D01*
X0111115Y0267565D01*
X0111212Y0267440D01*
X0111307Y0267313D01*
X0111398Y0267184D01*
X0111487Y0267053D01*
X0111571Y0266919D01*
X0111653Y0266783D01*
X0111731Y0266646D01*
X0111805Y0266506D01*
X0111876Y0266364D01*
X0111944Y0266221D01*
X0112008Y0266076D01*
X0112068Y0265930D01*
X0112124Y0265782D01*
X0112177Y0265633D01*
X0112226Y0265482D01*
X0112271Y0265330D01*
X0112312Y0265177D01*
X0112350Y0265024D01*
X0112383Y0264869D01*
X0112413Y0264713D01*
X0112439Y0264557D01*
X0112460Y0264400D01*
X0112478Y0264243D01*
X0112492Y0264085D01*
X0112502Y0263927D01*
X0112508Y0263769D01*
X0112510Y0263611D01*
X0112508Y0263453D01*
X0112502Y0263295D01*
X0112492Y0263137D01*
X0112478Y0262979D01*
X0112460Y0262822D01*
X0112439Y0262665D01*
X0112413Y0262509D01*
X0112383Y0262353D01*
X0112350Y0262198D01*
X0112312Y0262045D01*
X0112271Y0261892D01*
X0112226Y0261740D01*
X0112177Y0261589D01*
X0112124Y0261440D01*
X0112068Y0261292D01*
X0112008Y0261146D01*
X0111944Y0261001D01*
X0111876Y0260858D01*
X0111805Y0260716D01*
X0111731Y0260576D01*
X0111653Y0260439D01*
X0111571Y0260303D01*
X0111487Y0260169D01*
X0111398Y0260038D01*
X0111307Y0259909D01*
X0111212Y0259782D01*
X0111115Y0259657D01*
X0111014Y0259535D01*
X0110910Y0259416D01*
X0110803Y0259299D01*
X0110693Y0259185D01*
X0110580Y0259074D01*
X0110465Y0258965D01*
X0110347Y0258860D01*
X0110226Y0258758D01*
X0110103Y0258658D01*
X0109977Y0258562D01*
X0109849Y0258469D01*
X0109719Y0258379D01*
X0109586Y0258293D01*
X0109451Y0258209D01*
X0109315Y0258130D01*
X0109176Y0258053D01*
X0109035Y0257981D01*
X0108893Y0257911D01*
X0108749Y0257846D01*
X0108603Y0257784D01*
X0108456Y0257726D01*
X0108307Y0257671D01*
X0108157Y0257620D01*
X0108006Y0257573D01*
X0107854Y0257530D01*
X0107701Y0257491D01*
X0107546Y0257455D01*
X0107391Y0257424D01*
X0107235Y0257396D01*
X0107079Y0257372D01*
X0106922Y0257352D01*
X0106764Y0257336D01*
X0106607Y0257324D01*
X0106448Y0257316D01*
X0106290Y0257312D01*
X0106132Y0257312D01*
X0105974Y0257316D01*
X0105815Y0257324D01*
X0105658Y0257336D01*
X0105500Y0257352D01*
X0105343Y0257372D01*
X0105187Y0257396D01*
X0105031Y0257424D01*
X0104876Y0257455D01*
X0104721Y0257491D01*
X0104568Y0257530D01*
X0104416Y0257573D01*
X0104265Y0257620D01*
X0104115Y0257671D01*
X0103966Y0257726D01*
X0103819Y0257784D01*
X0103673Y0257846D01*
X0103529Y0257911D01*
X0103387Y0257981D01*
X0103246Y0258053D01*
X0103107Y0258130D01*
X0102971Y0258209D01*
X0102836Y0258293D01*
X0102703Y0258379D01*
X0102573Y0258469D01*
X0102445Y0258562D01*
X0102319Y0258658D01*
X0102196Y0258758D01*
X0102075Y0258860D01*
X0101957Y0258965D01*
X0101842Y0259074D01*
X0101729Y0259185D01*
X0101619Y0259299D01*
X0101512Y0259416D01*
X0101408Y0259535D01*
X0101307Y0259657D01*
X0101210Y0259782D01*
X0101115Y0259909D01*
X0101024Y0260038D01*
X0100935Y0260169D01*
X0100851Y0260303D01*
X0100769Y0260439D01*
X0100691Y0260576D01*
X0100617Y0260716D01*
X0100546Y0260858D01*
X0100478Y0261001D01*
X0100414Y0261146D01*
X0100354Y0261292D01*
X0100298Y0261440D01*
X0100245Y0261589D01*
X0100196Y0261740D01*
X0100151Y0261892D01*
X0100110Y0262045D01*
X0100072Y0262198D01*
X0100039Y0262353D01*
X0100009Y0262509D01*
X0099983Y0262665D01*
X0099962Y0262822D01*
X0099944Y0262979D01*
X0099930Y0263137D01*
X0099920Y0263295D01*
X0099914Y0263453D01*
X0099912Y0263611D01*
M02*
