G75*
%MOIN*%
%OFA0B0*%
%FSLAX25Y25*%
%IPPOS*%
%LPD*%
%AMOC8*
5,1,8,0,0,1.08239X$1,22.5*
%
%ADD10C,0.12998*%
%ADD11R,0.07400X0.10400*%
%ADD12C,0.31896*%
%ADD13C,0.00500*%
%ADD14R,0.07000X0.07000*%
%ADD15C,0.07000*%
D10*
X0015660Y0263611D03*
X0106211Y0263611D03*
D11*
X0017629Y0043926D03*
X0017629Y0056131D03*
X0104243Y0056131D03*
X0104243Y0043926D03*
D12*
X0060936Y0050028D03*
D13*
X0098337Y0050028D01*
X0098337Y0038217D01*
X0096369Y0032312D01*
X0092432Y0026406D01*
X0088889Y0022076D01*
X0084558Y0018532D01*
X0078652Y0014595D01*
X0072747Y0012627D01*
X0064873Y0010658D01*
X0060936Y0010658D01*
X0060936Y0050028D01*
X0023534Y0050028D01*
X0023534Y0061839D01*
X0025503Y0067745D01*
X0029440Y0073650D01*
X0032983Y0077981D01*
X0037314Y0081524D01*
X0043219Y0085461D01*
X0049125Y0087430D01*
X0056999Y0089398D01*
X0060936Y0089398D01*
X0060936Y0050028D01*
X0060936Y0010658D01*
X0056999Y0010658D01*
X0049125Y0012627D01*
X0043219Y0014595D01*
X0037314Y0018532D01*
X0032983Y0022076D01*
X0029440Y0026406D01*
X0025503Y0032312D01*
X0023534Y0038217D01*
X0023534Y0050028D01*
X0060936Y0050028D01*
X0060936Y0089398D01*
X0064873Y0089398D01*
X0072747Y0087430D01*
X0078652Y0085461D01*
X0084558Y0081524D01*
X0088889Y0077981D01*
X0092432Y0073650D01*
X0096369Y0067745D01*
X0098337Y0061839D01*
X0098337Y0050028D01*
X0060936Y0050028D01*
X0060936Y0050156D02*
X0023534Y0050156D01*
X0023534Y0050654D02*
X0060936Y0050654D01*
X0098337Y0050654D01*
X0098337Y0050156D02*
X0060936Y0050156D01*
X0060936Y0049657D02*
X0098337Y0049657D01*
X0098337Y0049159D02*
X0060936Y0049159D01*
X0023534Y0049159D01*
X0023534Y0049657D02*
X0060936Y0049657D01*
X0060936Y0048660D02*
X0098337Y0048660D01*
X0098337Y0048162D02*
X0060936Y0048162D01*
X0023534Y0048162D01*
X0023534Y0048660D02*
X0060936Y0048660D01*
X0060936Y0047663D02*
X0098337Y0047663D01*
X0098337Y0047165D02*
X0060936Y0047165D01*
X0023534Y0047165D01*
X0023534Y0047663D02*
X0060936Y0047663D01*
X0060936Y0046666D02*
X0098337Y0046666D01*
X0098337Y0046168D02*
X0060936Y0046168D01*
X0023534Y0046168D01*
X0023534Y0046666D02*
X0060936Y0046666D01*
X0060936Y0045669D02*
X0098337Y0045669D01*
X0098337Y0045170D02*
X0060936Y0045170D01*
X0023534Y0045170D01*
X0023534Y0044672D02*
X0060936Y0044672D01*
X0098337Y0044672D01*
X0098337Y0044173D02*
X0060936Y0044173D01*
X0023534Y0044173D01*
X0023534Y0043675D02*
X0060936Y0043675D01*
X0098337Y0043675D01*
X0098337Y0043176D02*
X0060936Y0043176D01*
X0023534Y0043176D01*
X0023534Y0042678D02*
X0060936Y0042678D01*
X0098337Y0042678D01*
X0098337Y0042179D02*
X0060936Y0042179D01*
X0023534Y0042179D01*
X0023534Y0041681D02*
X0060936Y0041681D01*
X0098337Y0041681D01*
X0098337Y0041182D02*
X0060936Y0041182D01*
X0023534Y0041182D01*
X0023534Y0040684D02*
X0060936Y0040684D01*
X0098337Y0040684D01*
X0098337Y0040185D02*
X0060936Y0040185D01*
X0023534Y0040185D01*
X0023534Y0039687D02*
X0060936Y0039687D01*
X0098337Y0039687D01*
X0098337Y0039188D02*
X0060936Y0039188D01*
X0023534Y0039188D01*
X0023534Y0038690D02*
X0060936Y0038690D01*
X0098337Y0038690D01*
X0098329Y0038191D02*
X0060936Y0038191D01*
X0023543Y0038191D01*
X0023709Y0037693D02*
X0060936Y0037693D01*
X0098163Y0037693D01*
X0097996Y0037194D02*
X0060936Y0037194D01*
X0023875Y0037194D01*
X0024041Y0036696D02*
X0060936Y0036696D01*
X0097830Y0036696D01*
X0097664Y0036197D02*
X0060936Y0036197D01*
X0024208Y0036197D01*
X0024374Y0035699D02*
X0060936Y0035699D01*
X0097498Y0035699D01*
X0097332Y0035200D02*
X0060936Y0035200D01*
X0024540Y0035200D01*
X0024706Y0034702D02*
X0060936Y0034702D01*
X0097166Y0034702D01*
X0096999Y0034203D02*
X0060936Y0034203D01*
X0024872Y0034203D01*
X0025038Y0033705D02*
X0060936Y0033705D01*
X0096833Y0033705D01*
X0096667Y0033206D02*
X0060936Y0033206D01*
X0025205Y0033206D01*
X0025371Y0032708D02*
X0060936Y0032708D01*
X0096501Y0032708D01*
X0096301Y0032209D02*
X0060936Y0032209D01*
X0025571Y0032209D01*
X0025904Y0031711D02*
X0060936Y0031711D01*
X0095968Y0031711D01*
X0095636Y0031212D02*
X0060936Y0031212D01*
X0026236Y0031212D01*
X0026568Y0030714D02*
X0060936Y0030714D01*
X0095303Y0030714D01*
X0094971Y0030215D02*
X0060936Y0030215D01*
X0026901Y0030215D01*
X0027233Y0029717D02*
X0060936Y0029717D01*
X0094639Y0029717D01*
X0094306Y0029218D02*
X0060936Y0029218D01*
X0027565Y0029218D01*
X0027898Y0028720D02*
X0060936Y0028720D01*
X0093974Y0028720D01*
X0093642Y0028221D02*
X0060936Y0028221D01*
X0028230Y0028221D01*
X0028562Y0027723D02*
X0060936Y0027723D01*
X0093309Y0027723D01*
X0092977Y0027224D02*
X0060936Y0027224D01*
X0028895Y0027224D01*
X0029227Y0026726D02*
X0060936Y0026726D01*
X0092645Y0026726D01*
X0092285Y0026227D02*
X0060936Y0026227D01*
X0029586Y0026227D01*
X0029994Y0025729D02*
X0060936Y0025729D01*
X0091877Y0025729D01*
X0091470Y0025230D02*
X0060936Y0025230D01*
X0030402Y0025230D01*
X0030810Y0024732D02*
X0060936Y0024732D01*
X0091062Y0024732D01*
X0090654Y0024233D02*
X0060936Y0024233D01*
X0031218Y0024233D01*
X0031626Y0023734D02*
X0060936Y0023734D01*
X0090246Y0023734D01*
X0089838Y0023236D02*
X0060936Y0023236D01*
X0032034Y0023236D01*
X0032442Y0022737D02*
X0060936Y0022737D01*
X0089430Y0022737D01*
X0089022Y0022239D02*
X0060936Y0022239D01*
X0032849Y0022239D01*
X0033393Y0021740D02*
X0060936Y0021740D01*
X0088479Y0021740D01*
X0087870Y0021242D02*
X0060936Y0021242D01*
X0034002Y0021242D01*
X0034611Y0020743D02*
X0060936Y0020743D01*
X0087260Y0020743D01*
X0086651Y0020245D02*
X0060936Y0020245D01*
X0035221Y0020245D01*
X0035830Y0019746D02*
X0060936Y0019746D01*
X0086042Y0019746D01*
X0085433Y0019248D02*
X0060936Y0019248D01*
X0036439Y0019248D01*
X0037048Y0018749D02*
X0060936Y0018749D01*
X0084823Y0018749D01*
X0084136Y0018251D02*
X0060936Y0018251D01*
X0037736Y0018251D01*
X0038484Y0017752D02*
X0060936Y0017752D01*
X0083388Y0017752D01*
X0082640Y0017254D02*
X0060936Y0017254D01*
X0039231Y0017254D01*
X0039979Y0016755D02*
X0060936Y0016755D01*
X0081892Y0016755D01*
X0081145Y0016257D02*
X0060936Y0016257D01*
X0040727Y0016257D01*
X0041475Y0015758D02*
X0060936Y0015758D01*
X0080397Y0015758D01*
X0079649Y0015260D02*
X0060936Y0015260D01*
X0042223Y0015260D01*
X0042970Y0014761D02*
X0060936Y0014761D01*
X0078901Y0014761D01*
X0077655Y0014263D02*
X0060936Y0014263D01*
X0044217Y0014263D01*
X0045712Y0013764D02*
X0060936Y0013764D01*
X0076159Y0013764D01*
X0074664Y0013266D02*
X0060936Y0013266D01*
X0047208Y0013266D01*
X0048703Y0012767D02*
X0060936Y0012767D01*
X0073168Y0012767D01*
X0071315Y0012269D02*
X0060936Y0012269D01*
X0050557Y0012269D01*
X0052551Y0011770D02*
X0060936Y0011770D01*
X0069321Y0011770D01*
X0067327Y0011272D02*
X0060936Y0011272D01*
X0054545Y0011272D01*
X0056539Y0010773D02*
X0060936Y0010773D01*
X0065333Y0010773D01*
X0060936Y0045669D02*
X0023534Y0045669D01*
X0023534Y0051153D02*
X0060936Y0051153D01*
X0098337Y0051153D01*
X0098337Y0051651D02*
X0060936Y0051651D01*
X0023534Y0051651D01*
X0023534Y0052150D02*
X0060936Y0052150D01*
X0098337Y0052150D01*
X0098337Y0052648D02*
X0060936Y0052648D01*
X0023534Y0052648D01*
X0023534Y0053147D02*
X0060936Y0053147D01*
X0098337Y0053147D01*
X0098337Y0053645D02*
X0060936Y0053645D01*
X0023534Y0053645D01*
X0023534Y0054144D02*
X0060936Y0054144D01*
X0098337Y0054144D01*
X0098337Y0054642D02*
X0060936Y0054642D01*
X0023534Y0054642D01*
X0023534Y0055141D02*
X0060936Y0055141D01*
X0098337Y0055141D01*
X0098337Y0055639D02*
X0060936Y0055639D01*
X0023534Y0055639D01*
X0023534Y0056138D02*
X0060936Y0056138D01*
X0098337Y0056138D01*
X0098337Y0056636D02*
X0060936Y0056636D01*
X0023534Y0056636D01*
X0023534Y0057135D02*
X0060936Y0057135D01*
X0098337Y0057135D01*
X0098337Y0057633D02*
X0060936Y0057633D01*
X0023534Y0057633D01*
X0023534Y0058132D02*
X0060936Y0058132D01*
X0098337Y0058132D01*
X0098337Y0058630D02*
X0060936Y0058630D01*
X0023534Y0058630D01*
X0023534Y0059129D02*
X0060936Y0059129D01*
X0098337Y0059129D01*
X0098337Y0059627D02*
X0060936Y0059627D01*
X0023534Y0059627D01*
X0023534Y0060126D02*
X0060936Y0060126D01*
X0098337Y0060126D01*
X0098337Y0060624D02*
X0060936Y0060624D01*
X0023534Y0060624D01*
X0023534Y0061123D02*
X0060936Y0061123D01*
X0098337Y0061123D01*
X0098337Y0061621D02*
X0060936Y0061621D01*
X0023534Y0061621D01*
X0023628Y0062120D02*
X0060936Y0062120D01*
X0098244Y0062120D01*
X0098078Y0062618D02*
X0060936Y0062618D01*
X0023794Y0062618D01*
X0023960Y0063117D02*
X0060936Y0063117D01*
X0097912Y0063117D01*
X0097745Y0063615D02*
X0060936Y0063615D01*
X0024126Y0063615D01*
X0024292Y0064114D02*
X0060936Y0064114D01*
X0097579Y0064114D01*
X0097413Y0064612D02*
X0060936Y0064612D01*
X0024459Y0064612D01*
X0024625Y0065111D02*
X0060936Y0065111D01*
X0097247Y0065111D01*
X0097081Y0065609D02*
X0060936Y0065609D01*
X0024791Y0065609D01*
X0024957Y0066108D02*
X0060936Y0066108D01*
X0096915Y0066108D01*
X0096748Y0066606D02*
X0060936Y0066606D01*
X0025123Y0066606D01*
X0025289Y0067105D02*
X0060936Y0067105D01*
X0096582Y0067105D01*
X0096416Y0067603D02*
X0060936Y0067603D01*
X0025456Y0067603D01*
X0025741Y0068102D02*
X0060936Y0068102D01*
X0096131Y0068102D01*
X0095798Y0068601D02*
X0060936Y0068601D01*
X0026073Y0068601D01*
X0026406Y0069099D02*
X0060936Y0069099D01*
X0095466Y0069099D01*
X0095134Y0069598D02*
X0060936Y0069598D01*
X0026738Y0069598D01*
X0027070Y0070096D02*
X0060936Y0070096D01*
X0094801Y0070096D01*
X0094469Y0070595D02*
X0060936Y0070595D01*
X0027403Y0070595D01*
X0027735Y0071093D02*
X0060936Y0071093D01*
X0094137Y0071093D01*
X0093804Y0071592D02*
X0060936Y0071592D01*
X0028067Y0071592D01*
X0028400Y0072090D02*
X0060936Y0072090D01*
X0093472Y0072090D01*
X0093140Y0072589D02*
X0060936Y0072589D01*
X0028732Y0072589D01*
X0029064Y0073087D02*
X0060936Y0073087D01*
X0092807Y0073087D01*
X0092475Y0073586D02*
X0060936Y0073586D01*
X0029397Y0073586D01*
X0029795Y0074084D02*
X0060936Y0074084D01*
X0092077Y0074084D01*
X0091669Y0074583D02*
X0060936Y0074583D01*
X0030203Y0074583D01*
X0030610Y0075081D02*
X0060936Y0075081D01*
X0091261Y0075081D01*
X0090853Y0075580D02*
X0060936Y0075580D01*
X0031018Y0075580D01*
X0031426Y0076078D02*
X0060936Y0076078D01*
X0090446Y0076078D01*
X0090038Y0076577D02*
X0060936Y0076577D01*
X0031834Y0076577D01*
X0032242Y0077075D02*
X0060936Y0077075D01*
X0089630Y0077075D01*
X0089222Y0077574D02*
X0060936Y0077574D01*
X0032650Y0077574D01*
X0033094Y0078072D02*
X0060936Y0078072D01*
X0088777Y0078072D01*
X0088168Y0078571D02*
X0060936Y0078571D01*
X0033704Y0078571D01*
X0034313Y0079069D02*
X0060936Y0079069D01*
X0087559Y0079069D01*
X0086949Y0079568D02*
X0060936Y0079568D01*
X0034922Y0079568D01*
X0035532Y0080066D02*
X0060936Y0080066D01*
X0086340Y0080066D01*
X0085731Y0080565D02*
X0060936Y0080565D01*
X0036141Y0080565D01*
X0036750Y0081063D02*
X0060936Y0081063D01*
X0085121Y0081063D01*
X0084502Y0081562D02*
X0060936Y0081562D01*
X0037370Y0081562D01*
X0038118Y0082060D02*
X0060936Y0082060D01*
X0083754Y0082060D01*
X0083006Y0082559D02*
X0060936Y0082559D01*
X0038865Y0082559D01*
X0039613Y0083057D02*
X0060936Y0083057D01*
X0082258Y0083057D01*
X0081511Y0083556D02*
X0060936Y0083556D01*
X0040361Y0083556D01*
X0041109Y0084054D02*
X0060936Y0084054D01*
X0080763Y0084054D01*
X0080015Y0084553D02*
X0060936Y0084553D01*
X0041857Y0084553D01*
X0042604Y0085051D02*
X0060936Y0085051D01*
X0079267Y0085051D01*
X0078387Y0085550D02*
X0060936Y0085550D01*
X0043485Y0085550D01*
X0044980Y0086048D02*
X0060936Y0086048D01*
X0076891Y0086048D01*
X0075396Y0086547D02*
X0060936Y0086547D01*
X0046476Y0086547D01*
X0047971Y0087045D02*
X0060936Y0087045D01*
X0073900Y0087045D01*
X0072291Y0087544D02*
X0060936Y0087544D01*
X0049581Y0087544D01*
X0051575Y0088042D02*
X0060936Y0088042D01*
X0070297Y0088042D01*
X0068303Y0088541D02*
X0060936Y0088541D01*
X0053569Y0088541D01*
X0055563Y0089039D02*
X0060936Y0089039D01*
X0066309Y0089039D01*
D14*
X0011645Y0228335D03*
D15*
X0011645Y0218335D03*
X0011645Y0208335D03*
X0021645Y0208335D03*
X0021645Y0218335D03*
X0021645Y0228335D03*
M02*
