%
M48
M72
T01C0.01969
T02C0.02362
T03C0.03937
T04C0.12598
%
T01
X111133Y190776
X60936Y94320
X65112Y94320
X56760Y94320
X30424Y104162
X77668Y104162
X99322Y156820
X69794Y176997
X72747Y174044
X35345Y118926
X30424Y118926
X42235Y160265
X81605Y205540
X90956Y205540
X75700Y182902
X60936Y239989
X99322Y128769
X112117Y151406
X98337Y93335
X39282Y163217
X85542Y176013
X27471Y197666
X7786Y244910
X45188Y123847
X45188Y118926
X72747Y113020
X67826Y113020
X82589Y136643
X76684Y190284
X78652Y215383
X77668Y161249
X80621Y223749
X58967Y164202
X18613Y70698
X21566Y73650
X24519Y76603
X46172Y185855
X37314Y215383
X58475Y183394
X57983Y224241
X63889Y183394
X63889Y224241
T02
X60936Y210461
T03
X11645Y228335
X21645Y228335
X11645Y218335
X21645Y218335
X11645Y208335
X21645Y208335
T04
X15660Y263611
X106211Y263611
M30
