G75*
%MOIN*%
%OFA0B0*%
%FSLAX25Y25*%
%IPPOS*%
%LPD*%
%AMOC8*
5,1,8,0,0,1.08239X$1,22.5*
%
%ADD10C,0.01181*%
%ADD11R,0.03937X0.04331*%
%ADD12R,0.07000X0.10000*%
%ADD13R,0.16000X0.24000*%
%ADD14R,0.15748X0.15748*%
%ADD15R,0.04331X0.03937*%
%ADD16R,0.04724X0.02165*%
%ADD17R,0.08661X0.02362*%
%ADD18R,0.04331X0.06693*%
%ADD19R,0.03937X0.05906*%
%ADD20R,0.05906X0.03937*%
%ADD21R,0.03937X0.03937*%
%ADD22C,0.03150*%
%ADD23R,0.05906X0.05118*%
%ADD24R,0.09843X0.04724*%
D10*
X0013586Y0238611D02*
X0013586Y0241367D01*
X0013586Y0238611D02*
X0010830Y0238611D01*
X0010830Y0241367D01*
X0013586Y0241367D01*
X0013586Y0239791D02*
X0010830Y0239791D01*
X0010830Y0240971D02*
X0013586Y0240971D01*
X0013586Y0248453D02*
X0013586Y0251209D01*
X0013586Y0248453D02*
X0010830Y0248453D01*
X0010830Y0251209D01*
X0013586Y0251209D01*
X0013586Y0249633D02*
X0010830Y0249633D01*
X0010830Y0250813D02*
X0013586Y0250813D01*
X0020491Y0251209D02*
X0020491Y0248453D01*
X0017735Y0248453D01*
X0017735Y0251209D01*
X0020491Y0251209D01*
X0020491Y0249633D02*
X0017735Y0249633D01*
X0017735Y0250813D02*
X0020491Y0250813D01*
X0020491Y0241367D02*
X0020491Y0238611D01*
X0017735Y0238611D01*
X0017735Y0241367D01*
X0020491Y0241367D01*
X0020491Y0239791D02*
X0017735Y0239791D01*
X0017735Y0240971D02*
X0020491Y0240971D01*
D11*
X0031015Y0243926D03*
X0031015Y0236052D03*
X0037708Y0236052D03*
X0037708Y0243926D03*
X0047156Y0243335D03*
X0047156Y0236643D03*
X0081605Y0201013D03*
X0081605Y0194320D03*
X0090956Y0194320D03*
X0090956Y0201013D03*
X0099912Y0194713D03*
X0106605Y0194713D03*
X0106605Y0210461D03*
X0099912Y0210461D03*
X0099912Y0171091D03*
X0099912Y0163217D03*
X0106605Y0163217D03*
X0106605Y0171091D03*
D12*
X0017629Y0043926D03*
X0017629Y0056131D03*
X0104243Y0056131D03*
X0104243Y0043926D03*
D13*
X0107936Y0050028D03*
X0013936Y0050028D03*
D14*
X0060936Y0050028D03*
D15*
X0066448Y0104162D03*
X0073141Y0104162D03*
X0092038Y0123847D03*
X0098731Y0123847D03*
X0088889Y0163217D03*
X0088889Y0171091D03*
X0082196Y0171091D03*
X0082196Y0163217D03*
X0099912Y0202587D03*
X0106605Y0202587D03*
X0106605Y0218335D03*
X0099912Y0218335D03*
X0041645Y0104162D03*
X0034952Y0104162D03*
X0037314Y0186446D03*
X0037314Y0193139D03*
X0027471Y0193139D03*
X0027471Y0186446D03*
D16*
X0080424Y0186643D03*
X0080424Y0182902D03*
X0080424Y0179162D03*
X0090660Y0179162D03*
X0090660Y0186643D03*
X0098141Y0186643D03*
X0098141Y0179162D03*
X0108377Y0179162D03*
X0108377Y0182902D03*
X0108377Y0186643D03*
D17*
X0112511Y0147095D03*
X0112511Y0142095D03*
X0112511Y0137095D03*
X0112511Y0132095D03*
X0092038Y0132095D03*
X0092038Y0137095D03*
X0092038Y0142095D03*
X0092038Y0147095D03*
D18*
X0058967Y0104162D03*
X0049125Y0104162D03*
D19*
X0051093Y0113020D03*
X0045188Y0113020D03*
X0039282Y0113020D03*
X0033377Y0113020D03*
X0027471Y0113020D03*
X0021566Y0113020D03*
X0015660Y0113020D03*
X0009755Y0113020D03*
X0027471Y0177981D03*
X0033377Y0177981D03*
X0039282Y0177981D03*
X0045188Y0177981D03*
X0051093Y0177981D03*
X0056999Y0177981D03*
X0062904Y0177981D03*
X0062904Y0113020D03*
X0056999Y0113020D03*
D20*
X0071763Y0121879D03*
X0071763Y0127784D03*
X0071763Y0133690D03*
X0071763Y0139595D03*
X0071763Y0145501D03*
X0071763Y0151406D03*
X0071763Y0157312D03*
X0071763Y0163217D03*
X0071763Y0169123D03*
D21*
X0062904Y0169123D03*
X0062904Y0121879D03*
D22*
X0065778Y0236643D03*
X0065778Y0243335D03*
X0056093Y0243335D03*
X0056093Y0236643D03*
D23*
X0082786Y0111052D03*
X0082786Y0093335D03*
X0113889Y0093335D03*
X0113889Y0111052D03*
D24*
X0071763Y0200619D03*
X0071763Y0210461D03*
X0071763Y0220304D03*
X0050109Y0220304D03*
X0050109Y0210461D03*
X0050109Y0200619D03*
M02*
