G75*
%MOIN*%
%OFA0B0*%
%FSLAX25Y25*%
%IPPOS*%
%LPD*%
%AMOC8*
5,1,8,0,0,1.08239X$1,22.5*
%
%ADD10C,0.00600*%
%ADD11C,0.00900*%
%ADD12C,0.00800*%
%ADD13C,0.00500*%
%ADD14C,0.01000*%
%ADD15C,0.01600*%
%ADD16C,0.01181*%
D10*
X0082353Y0177304D02*
X0082353Y0177674D01*
X0082353Y0177304D02*
X0088731Y0177304D01*
X0088731Y0177674D01*
X0088731Y0180847D02*
X0088731Y0184957D01*
X0088731Y0188131D02*
X0088731Y0188501D01*
X0082353Y0188501D01*
X0082353Y0188131D01*
X0082353Y0184957D02*
X0082353Y0184587D01*
X0082353Y0181217D02*
X0082353Y0180847D01*
X0083913Y0209511D02*
X0079670Y0213753D01*
X0079670Y0213754D02*
X0079628Y0213798D01*
X0079590Y0213844D01*
X0079554Y0213893D01*
X0079521Y0213944D01*
X0079492Y0213996D01*
X0079465Y0214051D01*
X0079442Y0214106D01*
X0079422Y0214163D01*
X0079406Y0214222D01*
X0079393Y0214281D01*
X0079384Y0214340D01*
X0079379Y0214401D01*
X0079377Y0214461D01*
X0079379Y0214521D01*
X0079384Y0214582D01*
X0079393Y0214641D01*
X0079406Y0214700D01*
X0079422Y0214759D01*
X0079442Y0214816D01*
X0079465Y0214871D01*
X0079492Y0214926D01*
X0079521Y0214978D01*
X0079554Y0215029D01*
X0079590Y0215078D01*
X0079628Y0215124D01*
X0079670Y0215168D01*
X0086741Y0222239D01*
X0086785Y0222281D01*
X0086831Y0222319D01*
X0086880Y0222355D01*
X0086931Y0222388D01*
X0086983Y0222417D01*
X0087038Y0222444D01*
X0087093Y0222467D01*
X0087150Y0222487D01*
X0087209Y0222503D01*
X0087268Y0222516D01*
X0087327Y0222525D01*
X0087388Y0222530D01*
X0087448Y0222532D01*
X0087508Y0222530D01*
X0087569Y0222525D01*
X0087628Y0222516D01*
X0087687Y0222503D01*
X0087746Y0222487D01*
X0087803Y0222467D01*
X0087858Y0222444D01*
X0087913Y0222417D01*
X0087965Y0222388D01*
X0088016Y0222355D01*
X0088065Y0222319D01*
X0088111Y0222281D01*
X0088155Y0222239D01*
X0088156Y0222239D02*
X0092398Y0217996D01*
X0092440Y0217952D01*
X0092478Y0217906D01*
X0092514Y0217857D01*
X0092547Y0217806D01*
X0092576Y0217754D01*
X0092603Y0217699D01*
X0092626Y0217644D01*
X0092646Y0217587D01*
X0092662Y0217528D01*
X0092675Y0217469D01*
X0092684Y0217410D01*
X0092689Y0217349D01*
X0092691Y0217289D01*
X0092689Y0217229D01*
X0092684Y0217168D01*
X0092675Y0217109D01*
X0092662Y0217050D01*
X0092646Y0216991D01*
X0092626Y0216934D01*
X0092603Y0216879D01*
X0092576Y0216824D01*
X0092547Y0216772D01*
X0092514Y0216721D01*
X0092478Y0216672D01*
X0092440Y0216626D01*
X0092398Y0216582D01*
X0085327Y0209511D01*
X0085283Y0209469D01*
X0085237Y0209431D01*
X0085188Y0209395D01*
X0085137Y0209362D01*
X0085085Y0209333D01*
X0085030Y0209306D01*
X0084975Y0209283D01*
X0084918Y0209263D01*
X0084859Y0209247D01*
X0084800Y0209234D01*
X0084741Y0209225D01*
X0084680Y0209220D01*
X0084620Y0209218D01*
X0084560Y0209220D01*
X0084499Y0209225D01*
X0084440Y0209234D01*
X0084381Y0209247D01*
X0084322Y0209263D01*
X0084265Y0209283D01*
X0084210Y0209306D01*
X0084155Y0209333D01*
X0084103Y0209362D01*
X0084052Y0209395D01*
X0084003Y0209431D01*
X0083957Y0209469D01*
X0083913Y0209511D01*
X0100070Y0188501D02*
X0100070Y0188131D01*
X0100070Y0188501D02*
X0106448Y0188501D01*
X0106448Y0188131D01*
X0106448Y0184957D02*
X0106448Y0184587D01*
X0106448Y0181217D02*
X0106448Y0180847D01*
X0106448Y0177674D02*
X0106448Y0177304D01*
X0100070Y0177304D01*
X0100070Y0177674D01*
X0100070Y0180847D02*
X0100070Y0184957D01*
X0037406Y0205423D02*
X0037406Y0207692D01*
X0036839Y0208259D01*
X0035138Y0208259D01*
X0035138Y0204856D01*
X0036839Y0204856D01*
X0037406Y0205423D01*
X0033723Y0204856D02*
X0033723Y0208259D01*
X0031454Y0208259D02*
X0033723Y0204856D01*
X0031454Y0204856D02*
X0031454Y0208259D01*
X0030040Y0207692D02*
X0029473Y0208259D01*
X0028338Y0208259D01*
X0027771Y0207692D01*
X0027771Y0205423D01*
X0028338Y0204856D01*
X0029473Y0204856D01*
X0030040Y0205423D01*
X0030040Y0206557D01*
X0028906Y0206557D01*
X0030040Y0214698D02*
X0028906Y0215833D01*
X0029473Y0215833D02*
X0027771Y0215833D01*
X0027771Y0214698D02*
X0027771Y0218101D01*
X0029473Y0218101D01*
X0030040Y0217534D01*
X0030040Y0216400D01*
X0029473Y0215833D01*
X0031454Y0214698D02*
X0033723Y0218101D01*
X0033156Y0222572D02*
X0032022Y0222572D01*
X0031454Y0223140D01*
X0031454Y0225408D01*
X0032022Y0225975D01*
X0033156Y0225975D01*
X0033723Y0225408D01*
X0035138Y0225408D02*
X0035138Y0223140D01*
X0035705Y0222572D01*
X0036839Y0222572D01*
X0037406Y0223140D01*
X0037406Y0225408D02*
X0036839Y0225975D01*
X0035705Y0225975D01*
X0035138Y0225408D01*
X0033723Y0223140D02*
X0033156Y0222572D01*
X0031454Y0218101D02*
X0033723Y0214698D01*
X0028906Y0222572D02*
X0030040Y0223707D01*
X0030040Y0225975D01*
X0027771Y0223707D02*
X0028906Y0222572D01*
X0027771Y0223707D02*
X0027771Y0225975D01*
X0020340Y0201369D02*
X0019205Y0201369D01*
X0018638Y0200802D01*
X0018638Y0198533D01*
X0019205Y0197966D01*
X0020340Y0197966D01*
X0020907Y0198533D01*
X0020907Y0200802D01*
X0020340Y0201369D01*
X0017317Y0201369D02*
X0016183Y0201369D01*
X0016750Y0201369D02*
X0016750Y0197966D01*
X0016183Y0197966D02*
X0017317Y0197966D01*
X0014768Y0198533D02*
X0014768Y0200802D01*
X0014201Y0201369D01*
X0012500Y0201369D01*
X0012500Y0197966D01*
X0014201Y0197966D01*
X0014768Y0198533D01*
X0011085Y0197966D02*
X0011085Y0201369D01*
X0009951Y0199100D02*
X0011085Y0197966D01*
X0009951Y0199100D02*
X0008817Y0197966D01*
X0008817Y0201369D01*
X0007402Y0200802D02*
X0006835Y0201369D01*
X0005701Y0201369D01*
X0005133Y0200802D01*
X0005133Y0200235D01*
X0005701Y0199668D01*
X0006835Y0199668D01*
X0007402Y0199100D01*
X0007402Y0198533D01*
X0006835Y0197966D01*
X0005701Y0197966D01*
X0005133Y0198533D01*
X0006620Y0232357D02*
X0004214Y0234763D01*
X0003412Y0233961D02*
X0005016Y0235565D01*
X0006016Y0236566D02*
X0010026Y0235763D01*
X0008422Y0234159D02*
X0007620Y0238170D01*
D11*
X0055280Y0190517D02*
X0054496Y0189733D01*
X0054496Y0186597D01*
X0055280Y0185813D01*
X0056848Y0185813D01*
X0057632Y0186597D01*
X0057632Y0189733D01*
X0056848Y0190517D01*
X0055280Y0190517D01*
X0059652Y0190517D02*
X0059652Y0185813D01*
X0059652Y0188165D02*
X0061220Y0188165D01*
X0059652Y0190517D02*
X0062788Y0190517D01*
X0064809Y0190517D02*
X0064809Y0185813D01*
X0064809Y0188165D02*
X0066377Y0188165D01*
X0064809Y0190517D02*
X0067945Y0190517D01*
X0071028Y0226167D02*
X0070244Y0226951D01*
X0070244Y0230087D01*
X0071028Y0230871D01*
X0072596Y0230871D01*
X0073380Y0230087D01*
X0073380Y0226951D01*
X0072596Y0226167D01*
X0071028Y0226167D01*
X0075401Y0226167D02*
X0075401Y0230871D01*
X0078537Y0226167D01*
X0078537Y0230871D01*
D12*
X0019400Y0029615D02*
X0025936Y0022528D01*
X0028436Y0025028D01*
X0019400Y0029615D02*
X0019400Y0037430D01*
X0019400Y0062627D02*
X0019400Y0068335D01*
X0031408Y0078965D01*
X0090463Y0078965D02*
X0102471Y0068335D01*
X0102471Y0062627D01*
X0102471Y0037430D02*
X0102471Y0029615D01*
X0095936Y0022528D01*
X0093436Y0025028D01*
X0094774Y0129595D02*
X0109774Y0129595D01*
X0109774Y0130845D01*
X0109774Y0148345D02*
X0109774Y0149595D01*
X0094774Y0149595D01*
X0094774Y0148345D01*
X0094774Y0130845D02*
X0094774Y0129595D01*
X0019105Y0235560D02*
X0017137Y0235560D01*
X0017137Y0234083D01*
X0014184Y0235560D01*
X0012215Y0235560D01*
X0014184Y0235560D02*
X0014184Y0234083D01*
X0014184Y0235560D02*
X0014184Y0237036D01*
X0014184Y0235560D02*
X0017137Y0237036D01*
X0017137Y0235560D01*
X0017137Y0243926D02*
X0014184Y0245402D01*
X0012215Y0245402D01*
X0014184Y0245402D02*
X0014184Y0246879D01*
X0014184Y0245402D02*
X0014184Y0243926D01*
X0014184Y0245402D02*
X0017137Y0246879D01*
X0017137Y0245402D01*
X0019105Y0245402D01*
X0017137Y0245402D02*
X0017137Y0243926D01*
D13*
X0022308Y0241465D02*
X0022308Y0238763D01*
X0023659Y0238763D01*
X0024109Y0239213D01*
X0024109Y0241015D01*
X0023659Y0241465D01*
X0022308Y0241465D01*
X0025254Y0241015D02*
X0025705Y0241465D01*
X0026606Y0241465D01*
X0027056Y0241015D01*
X0027056Y0240564D01*
X0025254Y0238763D01*
X0027056Y0238763D01*
X0028226Y0232852D02*
X0029577Y0232852D01*
X0030027Y0232401D01*
X0030027Y0231500D01*
X0029577Y0231050D01*
X0028226Y0231050D01*
X0029127Y0231050D02*
X0030027Y0230149D01*
X0031172Y0230600D02*
X0031623Y0230149D01*
X0032524Y0230149D01*
X0032974Y0230600D01*
X0032974Y0231050D01*
X0032524Y0231500D01*
X0032073Y0231500D01*
X0032524Y0231500D02*
X0032974Y0231951D01*
X0032974Y0232401D01*
X0032524Y0232852D01*
X0031623Y0232852D01*
X0031172Y0232401D01*
X0028226Y0232852D02*
X0028226Y0230149D01*
X0026645Y0230835D02*
X0024145Y0233335D01*
X0009145Y0233335D01*
X0006645Y0230835D01*
X0006645Y0205835D01*
X0009145Y0203335D01*
X0024145Y0203335D01*
X0026645Y0205835D01*
X0026645Y0230835D01*
X0028226Y0246881D02*
X0028226Y0249584D01*
X0029577Y0249584D01*
X0030027Y0249133D01*
X0030027Y0248233D01*
X0029577Y0247782D01*
X0028226Y0247782D01*
X0029127Y0247782D02*
X0030027Y0246881D01*
X0031172Y0246881D02*
X0032974Y0248683D01*
X0032974Y0249133D01*
X0032524Y0249584D01*
X0031623Y0249584D01*
X0031172Y0249133D01*
X0031172Y0246881D02*
X0032974Y0246881D01*
X0036099Y0246881D02*
X0037900Y0246881D01*
X0037000Y0246881D02*
X0037000Y0249584D01*
X0036099Y0248683D01*
X0039045Y0247782D02*
X0040397Y0248683D01*
X0039045Y0247782D02*
X0040397Y0246881D01*
X0039045Y0246881D02*
X0039045Y0249584D01*
X0039045Y0232852D02*
X0039045Y0230149D01*
X0039045Y0231050D02*
X0040397Y0231951D01*
X0039045Y0231050D02*
X0040397Y0230149D01*
X0037900Y0230149D02*
X0036099Y0230149D01*
X0037000Y0230149D02*
X0037000Y0232852D01*
X0036099Y0231951D01*
X0044454Y0232648D02*
X0044454Y0230847D01*
X0044904Y0230396D01*
X0045805Y0230396D01*
X0046255Y0230847D01*
X0047400Y0230847D02*
X0047850Y0230396D01*
X0048751Y0230396D01*
X0049202Y0230847D01*
X0049202Y0232648D01*
X0048751Y0233099D01*
X0047850Y0233099D01*
X0047400Y0232648D01*
X0047400Y0232198D01*
X0047850Y0231748D01*
X0049202Y0231748D01*
X0049202Y0228261D02*
X0049202Y0226459D01*
X0047850Y0226459D01*
X0047400Y0226910D01*
X0047400Y0228261D01*
X0046255Y0226459D02*
X0044454Y0226459D01*
X0045354Y0226459D02*
X0045354Y0229162D01*
X0044454Y0228261D01*
X0044454Y0232648D02*
X0044904Y0233099D01*
X0045805Y0233099D01*
X0046255Y0232648D01*
X0053062Y0233690D02*
X0053062Y0236052D01*
X0053534Y0234083D02*
X0053534Y0245894D01*
X0068337Y0245894D01*
X0068337Y0234083D01*
X0053534Y0234083D01*
X0053062Y0233690D02*
X0056605Y0233690D01*
X0055647Y0232115D02*
X0056098Y0231664D01*
X0055647Y0232115D02*
X0054746Y0232115D01*
X0054296Y0231664D01*
X0054296Y0231214D01*
X0054746Y0230763D01*
X0055647Y0230763D01*
X0056098Y0230313D01*
X0056098Y0229863D01*
X0055647Y0229412D01*
X0054746Y0229412D01*
X0054296Y0229863D01*
X0054046Y0228178D02*
X0054046Y0224241D01*
X0054046Y0228178D02*
X0067826Y0228178D01*
X0067826Y0224241D01*
X0064873Y0217351D02*
X0064873Y0203572D01*
X0056999Y0203572D01*
X0056999Y0217351D01*
X0064873Y0217351D01*
X0063889Y0216367D02*
X0057983Y0216367D01*
X0057983Y0210461D01*
X0063889Y0210461D01*
X0063889Y0216367D01*
X0059044Y0229412D02*
X0057243Y0229412D01*
X0058143Y0229412D02*
X0058143Y0232115D01*
X0057243Y0231214D01*
X0064282Y0232706D02*
X0067235Y0232706D01*
X0068810Y0233690D02*
X0068810Y0236052D01*
X0070536Y0234826D02*
X0070536Y0237528D01*
X0071437Y0236627D01*
X0072338Y0237528D01*
X0072338Y0234826D01*
X0073483Y0234826D02*
X0073483Y0237528D01*
X0073933Y0236177D02*
X0075284Y0234826D01*
X0076429Y0234826D02*
X0078231Y0234826D01*
X0077330Y0234826D02*
X0077330Y0237528D01*
X0076429Y0236627D01*
X0075284Y0237528D02*
X0073483Y0235726D01*
X0068810Y0233690D02*
X0065267Y0233690D01*
X0062497Y0239989D02*
X0062499Y0240063D01*
X0062505Y0240137D01*
X0062515Y0240210D01*
X0062528Y0240283D01*
X0062546Y0240355D01*
X0062567Y0240426D01*
X0062593Y0240496D01*
X0062621Y0240564D01*
X0062654Y0240631D01*
X0062690Y0240696D01*
X0062729Y0240758D01*
X0062772Y0240819D01*
X0062817Y0240877D01*
X0062866Y0240933D01*
X0062918Y0240986D01*
X0062972Y0241037D01*
X0063029Y0241084D01*
X0063089Y0241128D01*
X0063151Y0241169D01*
X0063215Y0241207D01*
X0063280Y0241241D01*
X0063348Y0241271D01*
X0063417Y0241298D01*
X0063487Y0241322D01*
X0063559Y0241341D01*
X0063631Y0241357D01*
X0063704Y0241369D01*
X0063778Y0241377D01*
X0063852Y0241381D01*
X0063926Y0241381D01*
X0064000Y0241377D01*
X0064074Y0241369D01*
X0064147Y0241357D01*
X0064219Y0241341D01*
X0064291Y0241322D01*
X0064361Y0241298D01*
X0064430Y0241271D01*
X0064498Y0241241D01*
X0064563Y0241207D01*
X0064627Y0241169D01*
X0064689Y0241128D01*
X0064749Y0241084D01*
X0064806Y0241037D01*
X0064860Y0240986D01*
X0064912Y0240933D01*
X0064961Y0240877D01*
X0065006Y0240819D01*
X0065049Y0240758D01*
X0065088Y0240696D01*
X0065124Y0240631D01*
X0065157Y0240564D01*
X0065185Y0240496D01*
X0065211Y0240426D01*
X0065232Y0240355D01*
X0065250Y0240283D01*
X0065263Y0240210D01*
X0065273Y0240137D01*
X0065279Y0240063D01*
X0065281Y0239989D01*
X0065279Y0239915D01*
X0065273Y0239841D01*
X0065263Y0239768D01*
X0065250Y0239695D01*
X0065232Y0239623D01*
X0065211Y0239552D01*
X0065185Y0239482D01*
X0065157Y0239414D01*
X0065124Y0239347D01*
X0065088Y0239282D01*
X0065049Y0239220D01*
X0065006Y0239159D01*
X0064961Y0239101D01*
X0064912Y0239045D01*
X0064860Y0238992D01*
X0064806Y0238941D01*
X0064749Y0238894D01*
X0064689Y0238850D01*
X0064627Y0238809D01*
X0064563Y0238771D01*
X0064498Y0238737D01*
X0064430Y0238707D01*
X0064361Y0238680D01*
X0064291Y0238656D01*
X0064219Y0238637D01*
X0064147Y0238621D01*
X0064074Y0238609D01*
X0064000Y0238601D01*
X0063926Y0238597D01*
X0063852Y0238597D01*
X0063778Y0238601D01*
X0063704Y0238609D01*
X0063631Y0238621D01*
X0063559Y0238637D01*
X0063487Y0238656D01*
X0063417Y0238680D01*
X0063348Y0238707D01*
X0063280Y0238737D01*
X0063215Y0238771D01*
X0063151Y0238809D01*
X0063089Y0238850D01*
X0063029Y0238894D01*
X0062972Y0238941D01*
X0062918Y0238992D01*
X0062866Y0239045D01*
X0062817Y0239101D01*
X0062772Y0239159D01*
X0062729Y0239220D01*
X0062690Y0239282D01*
X0062654Y0239347D01*
X0062621Y0239414D01*
X0062593Y0239482D01*
X0062567Y0239552D01*
X0062546Y0239623D01*
X0062528Y0239695D01*
X0062515Y0239768D01*
X0062505Y0239841D01*
X0062499Y0239915D01*
X0062497Y0239989D01*
X0065267Y0246288D02*
X0068810Y0246288D01*
X0068810Y0243926D01*
X0056605Y0246288D02*
X0053062Y0246288D01*
X0053062Y0243926D01*
X0054046Y0196682D02*
X0054046Y0192745D01*
X0067826Y0192745D01*
X0067826Y0196682D01*
X0072517Y0188068D02*
X0072517Y0185816D01*
X0072968Y0185366D01*
X0073868Y0185366D01*
X0074319Y0185816D01*
X0074319Y0188068D01*
X0075464Y0187618D02*
X0075914Y0188068D01*
X0076815Y0188068D01*
X0077265Y0187618D01*
X0077265Y0187167D01*
X0075464Y0185366D01*
X0077265Y0185366D01*
X0077543Y0175099D02*
X0078895Y0175099D01*
X0077543Y0175099D02*
X0077093Y0174649D01*
X0077093Y0173297D01*
X0078895Y0173297D01*
X0078444Y0172152D02*
X0078895Y0171702D01*
X0078895Y0170801D01*
X0078444Y0170351D01*
X0076643Y0172152D01*
X0078444Y0172152D01*
X0078444Y0170351D02*
X0076643Y0170351D01*
X0076192Y0170801D01*
X0076192Y0171702D01*
X0076643Y0172152D01*
X0076192Y0168305D02*
X0078895Y0168305D01*
X0078895Y0167404D02*
X0078895Y0169206D01*
X0077093Y0167404D02*
X0076192Y0168305D01*
X0084066Y0148013D02*
X0084066Y0146212D01*
X0086769Y0146212D01*
X0086769Y0148013D01*
X0085417Y0147112D02*
X0085417Y0146212D01*
X0084066Y0145067D02*
X0086769Y0143265D01*
X0086318Y0142120D02*
X0086769Y0141670D01*
X0086769Y0140769D01*
X0086318Y0140319D01*
X0085417Y0140319D02*
X0084967Y0141219D01*
X0084967Y0141670D01*
X0085417Y0142120D01*
X0086318Y0142120D01*
X0085417Y0140319D02*
X0084066Y0140319D01*
X0084066Y0142120D01*
X0084066Y0143265D02*
X0086769Y0145067D01*
X0086769Y0139174D02*
X0086769Y0137372D01*
X0084967Y0139174D01*
X0084517Y0139174D01*
X0084066Y0138723D01*
X0084066Y0137823D01*
X0084517Y0137372D01*
X0084066Y0136227D02*
X0084066Y0134426D01*
X0084066Y0135326D02*
X0086769Y0135326D01*
X0086769Y0133281D02*
X0084967Y0133281D01*
X0084066Y0132380D01*
X0084967Y0131479D01*
X0086769Y0131479D01*
X0085417Y0131479D02*
X0085417Y0133281D01*
X0085175Y0124831D02*
X0084274Y0124831D01*
X0083824Y0124381D01*
X0083824Y0122579D01*
X0084274Y0122129D01*
X0085175Y0122129D01*
X0085625Y0122579D01*
X0086770Y0122579D02*
X0087221Y0122129D01*
X0088121Y0122129D01*
X0088572Y0122579D01*
X0088572Y0123480D01*
X0088121Y0123930D01*
X0087671Y0123930D01*
X0086770Y0123480D01*
X0086770Y0124831D01*
X0088572Y0124831D01*
X0085625Y0124381D02*
X0085175Y0124831D01*
X0086526Y0114005D02*
X0086526Y0090383D01*
X0110148Y0090383D01*
X0110148Y0114005D01*
X0086526Y0114005D01*
X0091716Y0117944D02*
X0093518Y0117944D01*
X0092617Y0117944D02*
X0092617Y0120647D01*
X0091716Y0119746D01*
X0094663Y0120196D02*
X0094663Y0118395D01*
X0096464Y0120196D01*
X0096464Y0118395D01*
X0096014Y0117944D01*
X0095113Y0117944D01*
X0094663Y0118395D01*
X0094663Y0120196D02*
X0095113Y0120647D01*
X0096014Y0120647D01*
X0096464Y0120196D01*
X0097609Y0119746D02*
X0097609Y0118395D01*
X0098060Y0117944D01*
X0099411Y0117944D01*
X0099411Y0119746D01*
X0104274Y0131595D02*
X0104276Y0131658D01*
X0104282Y0131720D01*
X0104292Y0131782D01*
X0104305Y0131844D01*
X0104323Y0131904D01*
X0104344Y0131963D01*
X0104369Y0132021D01*
X0104398Y0132077D01*
X0104430Y0132131D01*
X0104465Y0132183D01*
X0104503Y0132232D01*
X0104545Y0132280D01*
X0104589Y0132324D01*
X0104637Y0132366D01*
X0104686Y0132404D01*
X0104738Y0132439D01*
X0104792Y0132471D01*
X0104848Y0132500D01*
X0104906Y0132525D01*
X0104965Y0132546D01*
X0105025Y0132564D01*
X0105087Y0132577D01*
X0105149Y0132587D01*
X0105211Y0132593D01*
X0105274Y0132595D01*
X0105337Y0132593D01*
X0105399Y0132587D01*
X0105461Y0132577D01*
X0105523Y0132564D01*
X0105583Y0132546D01*
X0105642Y0132525D01*
X0105700Y0132500D01*
X0105756Y0132471D01*
X0105810Y0132439D01*
X0105862Y0132404D01*
X0105911Y0132366D01*
X0105959Y0132324D01*
X0106003Y0132280D01*
X0106045Y0132232D01*
X0106083Y0132183D01*
X0106118Y0132131D01*
X0106150Y0132077D01*
X0106179Y0132021D01*
X0106204Y0131963D01*
X0106225Y0131904D01*
X0106243Y0131844D01*
X0106256Y0131782D01*
X0106266Y0131720D01*
X0106272Y0131658D01*
X0106274Y0131595D01*
X0106272Y0131532D01*
X0106266Y0131470D01*
X0106256Y0131408D01*
X0106243Y0131346D01*
X0106225Y0131286D01*
X0106204Y0131227D01*
X0106179Y0131169D01*
X0106150Y0131113D01*
X0106118Y0131059D01*
X0106083Y0131007D01*
X0106045Y0130958D01*
X0106003Y0130910D01*
X0105959Y0130866D01*
X0105911Y0130824D01*
X0105862Y0130786D01*
X0105810Y0130751D01*
X0105756Y0130719D01*
X0105700Y0130690D01*
X0105642Y0130665D01*
X0105583Y0130644D01*
X0105523Y0130626D01*
X0105461Y0130613D01*
X0105399Y0130603D01*
X0105337Y0130597D01*
X0105274Y0130595D01*
X0105211Y0130597D01*
X0105149Y0130603D01*
X0105087Y0130613D01*
X0105025Y0130626D01*
X0104965Y0130644D01*
X0104906Y0130665D01*
X0104848Y0130690D01*
X0104792Y0130719D01*
X0104738Y0130751D01*
X0104686Y0130786D01*
X0104637Y0130824D01*
X0104589Y0130866D01*
X0104545Y0130910D01*
X0104503Y0130958D01*
X0104465Y0131007D01*
X0104430Y0131059D01*
X0104398Y0131113D01*
X0104369Y0131169D01*
X0104344Y0131227D01*
X0104323Y0131286D01*
X0104305Y0131346D01*
X0104292Y0131408D01*
X0104282Y0131470D01*
X0104276Y0131532D01*
X0104274Y0131595D01*
X0099398Y0150672D02*
X0097597Y0150672D01*
X0098498Y0150672D02*
X0098498Y0153374D01*
X0097597Y0152474D01*
X0096452Y0153374D02*
X0096452Y0151122D01*
X0096002Y0150672D01*
X0095101Y0150672D01*
X0094650Y0151122D01*
X0094650Y0153374D01*
X0090461Y0153477D02*
X0090461Y0151675D01*
X0090461Y0152576D02*
X0087758Y0152576D01*
X0088659Y0151675D01*
X0088209Y0154622D02*
X0087758Y0155072D01*
X0087758Y0155973D01*
X0088209Y0156423D01*
X0090010Y0154622D01*
X0090461Y0155072D01*
X0090461Y0155973D01*
X0090010Y0156423D01*
X0088209Y0156423D01*
X0088659Y0157568D02*
X0090010Y0157568D01*
X0090461Y0158018D01*
X0090461Y0159370D01*
X0088659Y0159370D01*
X0088209Y0154622D02*
X0090010Y0154622D01*
X0092883Y0160515D02*
X0092432Y0160965D01*
X0092432Y0161866D01*
X0092883Y0162316D01*
X0093333Y0163461D02*
X0092432Y0164362D01*
X0095135Y0164362D01*
X0095135Y0163461D02*
X0095135Y0165263D01*
X0094684Y0162316D02*
X0095135Y0161866D01*
X0095135Y0160965D01*
X0094684Y0160515D01*
X0092883Y0160515D01*
X0092883Y0168389D02*
X0092432Y0168839D01*
X0092432Y0169740D01*
X0092883Y0170190D01*
X0092432Y0171335D02*
X0092432Y0173137D01*
X0092883Y0173137D01*
X0094684Y0171335D01*
X0095135Y0171335D01*
X0094684Y0170190D02*
X0095135Y0169740D01*
X0095135Y0168839D01*
X0094684Y0168389D01*
X0092883Y0168389D01*
X0094359Y0192011D02*
X0096161Y0192011D01*
X0096611Y0192461D01*
X0096611Y0193362D01*
X0096161Y0193812D01*
X0096161Y0194957D02*
X0095710Y0194957D01*
X0095260Y0195408D01*
X0095260Y0196308D01*
X0095710Y0196759D01*
X0096161Y0196759D01*
X0096611Y0196308D01*
X0096611Y0195408D01*
X0096161Y0194957D01*
X0095260Y0195408D02*
X0094810Y0194957D01*
X0094359Y0194957D01*
X0093909Y0195408D01*
X0093909Y0196308D01*
X0094359Y0196759D01*
X0094810Y0196759D01*
X0095260Y0196308D01*
X0094359Y0193812D02*
X0093909Y0193362D01*
X0093909Y0192461D01*
X0094359Y0192011D01*
X0095260Y0199885D02*
X0095260Y0201686D01*
X0096611Y0201236D02*
X0093909Y0201236D01*
X0095260Y0199885D01*
X0096161Y0202831D02*
X0096161Y0203282D01*
X0096611Y0203282D01*
X0096611Y0202831D01*
X0096161Y0202831D01*
X0096161Y0204304D02*
X0094359Y0206106D01*
X0093909Y0206106D01*
X0093909Y0204304D01*
X0096161Y0204304D02*
X0096611Y0204304D01*
X0096161Y0207251D02*
X0096611Y0207701D01*
X0096611Y0209052D01*
X0094810Y0209052D01*
X0094810Y0207251D02*
X0096161Y0207251D01*
X0093434Y0221163D02*
X0090732Y0221163D01*
X0091632Y0222064D01*
X0090732Y0222965D01*
X0093434Y0222965D01*
X0093434Y0224109D02*
X0093434Y0225010D01*
X0093434Y0224560D02*
X0090732Y0224560D01*
X0090732Y0225010D02*
X0090732Y0224109D01*
X0091182Y0226074D02*
X0092984Y0226074D01*
X0093434Y0226524D01*
X0093434Y0227425D01*
X0092984Y0227875D01*
X0093884Y0229020D02*
X0093884Y0230822D01*
X0093434Y0231967D02*
X0093434Y0233768D01*
X0093434Y0234913D02*
X0090732Y0234913D01*
X0093434Y0236715D01*
X0090732Y0236715D01*
X0091632Y0237860D02*
X0090732Y0238761D01*
X0091632Y0239661D01*
X0093434Y0239661D01*
X0092083Y0239661D02*
X0092083Y0237860D01*
X0091632Y0237860D02*
X0093434Y0237860D01*
X0090732Y0233768D02*
X0090732Y0231967D01*
X0093434Y0231967D01*
X0092083Y0231967D02*
X0092083Y0232868D01*
X0091182Y0227875D02*
X0090732Y0227425D01*
X0090732Y0226524D01*
X0091182Y0226074D01*
X0087261Y0204633D02*
X0085459Y0204633D01*
X0087261Y0204633D02*
X0087261Y0203282D01*
X0086810Y0202831D01*
X0085459Y0202831D01*
X0087261Y0201686D02*
X0087261Y0199885D01*
X0087261Y0200785D02*
X0084558Y0200785D01*
X0085459Y0199885D01*
X0084558Y0196759D02*
X0085009Y0195858D01*
X0085910Y0194957D01*
X0085910Y0196308D01*
X0086360Y0196759D01*
X0086810Y0196759D01*
X0087261Y0196308D01*
X0087261Y0195408D01*
X0086810Y0194957D01*
X0085910Y0194957D01*
X0086810Y0193812D02*
X0087261Y0193362D01*
X0087261Y0192461D01*
X0086810Y0192011D01*
X0085009Y0192011D01*
X0084558Y0192461D01*
X0084558Y0193362D01*
X0085009Y0193812D01*
X0110149Y0194346D02*
X0110599Y0194796D01*
X0111500Y0194796D01*
X0111950Y0194346D01*
X0111950Y0192995D01*
X0111950Y0193896D02*
X0112851Y0194796D01*
X0112851Y0195941D02*
X0112401Y0195941D01*
X0110599Y0197743D01*
X0110149Y0197743D01*
X0110149Y0195941D01*
X0110149Y0194346D02*
X0110149Y0192995D01*
X0112851Y0192995D01*
X0114086Y0193433D02*
X0114086Y0194334D01*
X0114536Y0194784D01*
X0116338Y0192982D01*
X0116788Y0193433D01*
X0116788Y0194334D01*
X0116338Y0194784D01*
X0114536Y0194784D01*
X0114086Y0195929D02*
X0116788Y0195929D01*
X0115887Y0195929D02*
X0114987Y0197280D01*
X0115887Y0195929D02*
X0116788Y0197280D01*
X0116788Y0199885D02*
X0116788Y0201686D01*
X0116788Y0200785D02*
X0114086Y0200785D01*
X0114987Y0199885D01*
X0114987Y0202831D02*
X0114987Y0204182D01*
X0115437Y0204633D01*
X0116788Y0204633D01*
X0116788Y0202831D02*
X0114987Y0202831D01*
X0112851Y0202831D02*
X0112851Y0204633D01*
X0112851Y0203732D02*
X0110149Y0203732D01*
X0111050Y0202831D01*
X0110599Y0201686D02*
X0110149Y0201236D01*
X0110149Y0200335D01*
X0110599Y0199885D01*
X0112401Y0199885D01*
X0112851Y0200335D01*
X0112851Y0201236D01*
X0112401Y0201686D01*
X0112851Y0205778D02*
X0112851Y0207579D01*
X0112851Y0206678D02*
X0110149Y0206678D01*
X0111050Y0205778D01*
X0114086Y0208167D02*
X0116788Y0208167D01*
X0116788Y0207267D02*
X0116788Y0209068D01*
X0116338Y0210213D02*
X0114536Y0212015D01*
X0116338Y0212015D01*
X0116788Y0211564D01*
X0116788Y0210663D01*
X0116338Y0210213D01*
X0114536Y0210213D01*
X0114086Y0210663D01*
X0114086Y0211564D01*
X0114536Y0212015D01*
X0114086Y0213160D02*
X0116788Y0213160D01*
X0115887Y0213160D02*
X0114987Y0214511D01*
X0115887Y0213160D02*
X0116788Y0214511D01*
X0116788Y0216617D02*
X0116788Y0218418D01*
X0116788Y0217518D02*
X0114086Y0217518D01*
X0114987Y0216617D01*
X0114987Y0219563D02*
X0116338Y0219563D01*
X0116788Y0220014D01*
X0116788Y0221365D01*
X0114987Y0221365D01*
X0112851Y0221365D02*
X0112851Y0219563D01*
X0112851Y0220464D02*
X0110149Y0220464D01*
X0111050Y0219563D01*
X0110599Y0218418D02*
X0110149Y0217968D01*
X0110149Y0217067D01*
X0110599Y0216617D01*
X0112401Y0216617D01*
X0112851Y0217067D01*
X0112851Y0217968D01*
X0112401Y0218418D01*
X0112401Y0222510D02*
X0110599Y0224312D01*
X0112401Y0224312D01*
X0112851Y0223861D01*
X0112851Y0222960D01*
X0112401Y0222510D01*
X0110599Y0222510D01*
X0110149Y0222960D01*
X0110149Y0223861D01*
X0110599Y0224312D01*
X0111500Y0214475D02*
X0111500Y0212674D01*
X0110149Y0214025D01*
X0112851Y0214025D01*
X0112851Y0211529D02*
X0111950Y0210628D01*
X0111950Y0211078D02*
X0111950Y0209727D01*
X0112851Y0209727D02*
X0110149Y0209727D01*
X0110149Y0211078D01*
X0110599Y0211529D01*
X0111500Y0211529D01*
X0111950Y0211078D01*
X0114086Y0208167D02*
X0114987Y0207267D01*
X0114086Y0193433D02*
X0114536Y0192982D01*
X0116338Y0192982D01*
X0116338Y0191837D02*
X0114536Y0191837D01*
X0116338Y0190036D01*
X0116788Y0190486D01*
X0116788Y0191387D01*
X0116338Y0191837D01*
X0116338Y0190036D02*
X0114536Y0190036D01*
X0114086Y0190486D01*
X0114086Y0191387D01*
X0114536Y0191837D01*
X0116788Y0188891D02*
X0116788Y0187089D01*
X0116788Y0187990D02*
X0114086Y0187990D01*
X0114987Y0187089D01*
X0115272Y0184378D02*
X0116172Y0184378D01*
X0116623Y0183928D01*
X0116623Y0183478D01*
X0116172Y0183027D01*
X0116623Y0182577D01*
X0116623Y0182126D01*
X0116172Y0181676D01*
X0115272Y0181676D01*
X0114821Y0182126D01*
X0113676Y0182126D02*
X0113676Y0184378D01*
X0114821Y0183928D02*
X0115272Y0184378D01*
X0115722Y0183027D02*
X0116172Y0183027D01*
X0116788Y0179564D02*
X0115887Y0178212D01*
X0114987Y0179564D01*
X0114086Y0178212D02*
X0116788Y0178212D01*
X0116338Y0177067D02*
X0116788Y0176617D01*
X0116788Y0175716D01*
X0116338Y0175266D01*
X0114536Y0177067D01*
X0116338Y0177067D01*
X0116338Y0175266D02*
X0114536Y0175266D01*
X0114086Y0175716D01*
X0114086Y0176617D01*
X0114536Y0177067D01*
X0114536Y0174121D02*
X0114086Y0173670D01*
X0114086Y0172770D01*
X0114536Y0172319D01*
X0116338Y0172319D01*
X0114536Y0174121D01*
X0116338Y0174121D01*
X0116788Y0173670D01*
X0116788Y0172770D01*
X0116338Y0172319D01*
X0116788Y0171174D02*
X0116788Y0169373D01*
X0116788Y0170274D02*
X0114086Y0170274D01*
X0114987Y0169373D01*
X0114987Y0166276D02*
X0115887Y0164925D01*
X0116788Y0166276D01*
X0116788Y0164925D02*
X0114086Y0164925D01*
X0114536Y0163780D02*
X0114086Y0163330D01*
X0114086Y0162429D01*
X0114536Y0161978D01*
X0116338Y0161978D01*
X0114536Y0163780D01*
X0116338Y0163780D01*
X0116788Y0163330D01*
X0116788Y0162429D01*
X0116338Y0161978D01*
X0116338Y0160833D02*
X0114536Y0160833D01*
X0116338Y0159032D01*
X0116788Y0159482D01*
X0116788Y0160383D01*
X0116338Y0160833D01*
X0116338Y0159032D02*
X0114536Y0159032D01*
X0114086Y0159482D01*
X0114086Y0160383D01*
X0114536Y0160833D01*
X0116788Y0157887D02*
X0116788Y0156085D01*
X0116788Y0156986D02*
X0114086Y0156986D01*
X0114987Y0156085D01*
X0112851Y0161499D02*
X0110149Y0161499D01*
X0110149Y0162850D01*
X0110599Y0163300D01*
X0111500Y0163300D01*
X0111950Y0162850D01*
X0111950Y0161499D01*
X0111950Y0162400D02*
X0112851Y0163300D01*
X0112401Y0164445D02*
X0112851Y0164896D01*
X0112851Y0165796D01*
X0112401Y0166247D01*
X0111950Y0166247D01*
X0111500Y0165796D01*
X0111500Y0164445D01*
X0112401Y0164445D01*
X0111500Y0164445D02*
X0110599Y0165346D01*
X0110149Y0166247D01*
X0110149Y0169373D02*
X0110149Y0170724D01*
X0110599Y0171174D01*
X0111500Y0171174D01*
X0111950Y0170724D01*
X0111950Y0169373D01*
X0111950Y0170274D02*
X0112851Y0171174D01*
X0112401Y0172319D02*
X0112851Y0172770D01*
X0112851Y0173670D01*
X0112401Y0174121D01*
X0111500Y0174121D01*
X0111050Y0173670D01*
X0111050Y0173220D01*
X0111500Y0172319D01*
X0110149Y0172319D01*
X0110149Y0174121D01*
X0110149Y0169373D02*
X0112851Y0169373D01*
X0113226Y0181676D02*
X0113676Y0182126D01*
X0113226Y0181676D02*
X0112325Y0181676D01*
X0111875Y0182126D01*
X0111875Y0184378D01*
X0091447Y0102194D02*
X0091449Y0102363D01*
X0091455Y0102532D01*
X0091466Y0102701D01*
X0091480Y0102869D01*
X0091499Y0103037D01*
X0091522Y0103205D01*
X0091548Y0103372D01*
X0091579Y0103538D01*
X0091614Y0103704D01*
X0091653Y0103868D01*
X0091697Y0104032D01*
X0091744Y0104194D01*
X0091795Y0104355D01*
X0091850Y0104515D01*
X0091909Y0104674D01*
X0091971Y0104831D01*
X0092038Y0104986D01*
X0092109Y0105140D01*
X0092183Y0105292D01*
X0092261Y0105442D01*
X0092342Y0105590D01*
X0092427Y0105736D01*
X0092516Y0105880D01*
X0092608Y0106022D01*
X0092704Y0106161D01*
X0092803Y0106298D01*
X0092905Y0106433D01*
X0093011Y0106565D01*
X0093120Y0106694D01*
X0093232Y0106821D01*
X0093347Y0106945D01*
X0093465Y0107066D01*
X0093586Y0107184D01*
X0093710Y0107299D01*
X0093837Y0107411D01*
X0093966Y0107520D01*
X0094098Y0107626D01*
X0094233Y0107728D01*
X0094370Y0107827D01*
X0094509Y0107923D01*
X0094651Y0108015D01*
X0094795Y0108104D01*
X0094941Y0108189D01*
X0095089Y0108270D01*
X0095239Y0108348D01*
X0095391Y0108422D01*
X0095545Y0108493D01*
X0095700Y0108560D01*
X0095857Y0108622D01*
X0096016Y0108681D01*
X0096176Y0108736D01*
X0096337Y0108787D01*
X0096499Y0108834D01*
X0096663Y0108878D01*
X0096827Y0108917D01*
X0096993Y0108952D01*
X0097159Y0108983D01*
X0097326Y0109009D01*
X0097494Y0109032D01*
X0097662Y0109051D01*
X0097830Y0109065D01*
X0097999Y0109076D01*
X0098168Y0109082D01*
X0098337Y0109084D01*
X0098506Y0109082D01*
X0098675Y0109076D01*
X0098844Y0109065D01*
X0099012Y0109051D01*
X0099180Y0109032D01*
X0099348Y0109009D01*
X0099515Y0108983D01*
X0099681Y0108952D01*
X0099847Y0108917D01*
X0100011Y0108878D01*
X0100175Y0108834D01*
X0100337Y0108787D01*
X0100498Y0108736D01*
X0100658Y0108681D01*
X0100817Y0108622D01*
X0100974Y0108560D01*
X0101129Y0108493D01*
X0101283Y0108422D01*
X0101435Y0108348D01*
X0101585Y0108270D01*
X0101733Y0108189D01*
X0101879Y0108104D01*
X0102023Y0108015D01*
X0102165Y0107923D01*
X0102304Y0107827D01*
X0102441Y0107728D01*
X0102576Y0107626D01*
X0102708Y0107520D01*
X0102837Y0107411D01*
X0102964Y0107299D01*
X0103088Y0107184D01*
X0103209Y0107066D01*
X0103327Y0106945D01*
X0103442Y0106821D01*
X0103554Y0106694D01*
X0103663Y0106565D01*
X0103769Y0106433D01*
X0103871Y0106298D01*
X0103970Y0106161D01*
X0104066Y0106022D01*
X0104158Y0105880D01*
X0104247Y0105736D01*
X0104332Y0105590D01*
X0104413Y0105442D01*
X0104491Y0105292D01*
X0104565Y0105140D01*
X0104636Y0104986D01*
X0104703Y0104831D01*
X0104765Y0104674D01*
X0104824Y0104515D01*
X0104879Y0104355D01*
X0104930Y0104194D01*
X0104977Y0104032D01*
X0105021Y0103868D01*
X0105060Y0103704D01*
X0105095Y0103538D01*
X0105126Y0103372D01*
X0105152Y0103205D01*
X0105175Y0103037D01*
X0105194Y0102869D01*
X0105208Y0102701D01*
X0105219Y0102532D01*
X0105225Y0102363D01*
X0105227Y0102194D01*
X0105225Y0102025D01*
X0105219Y0101856D01*
X0105208Y0101687D01*
X0105194Y0101519D01*
X0105175Y0101351D01*
X0105152Y0101183D01*
X0105126Y0101016D01*
X0105095Y0100850D01*
X0105060Y0100684D01*
X0105021Y0100520D01*
X0104977Y0100356D01*
X0104930Y0100194D01*
X0104879Y0100033D01*
X0104824Y0099873D01*
X0104765Y0099714D01*
X0104703Y0099557D01*
X0104636Y0099402D01*
X0104565Y0099248D01*
X0104491Y0099096D01*
X0104413Y0098946D01*
X0104332Y0098798D01*
X0104247Y0098652D01*
X0104158Y0098508D01*
X0104066Y0098366D01*
X0103970Y0098227D01*
X0103871Y0098090D01*
X0103769Y0097955D01*
X0103663Y0097823D01*
X0103554Y0097694D01*
X0103442Y0097567D01*
X0103327Y0097443D01*
X0103209Y0097322D01*
X0103088Y0097204D01*
X0102964Y0097089D01*
X0102837Y0096977D01*
X0102708Y0096868D01*
X0102576Y0096762D01*
X0102441Y0096660D01*
X0102304Y0096561D01*
X0102165Y0096465D01*
X0102023Y0096373D01*
X0101879Y0096284D01*
X0101733Y0096199D01*
X0101585Y0096118D01*
X0101435Y0096040D01*
X0101283Y0095966D01*
X0101129Y0095895D01*
X0100974Y0095828D01*
X0100817Y0095766D01*
X0100658Y0095707D01*
X0100498Y0095652D01*
X0100337Y0095601D01*
X0100175Y0095554D01*
X0100011Y0095510D01*
X0099847Y0095471D01*
X0099681Y0095436D01*
X0099515Y0095405D01*
X0099348Y0095379D01*
X0099180Y0095356D01*
X0099012Y0095337D01*
X0098844Y0095323D01*
X0098675Y0095312D01*
X0098506Y0095306D01*
X0098337Y0095304D01*
X0098168Y0095306D01*
X0097999Y0095312D01*
X0097830Y0095323D01*
X0097662Y0095337D01*
X0097494Y0095356D01*
X0097326Y0095379D01*
X0097159Y0095405D01*
X0096993Y0095436D01*
X0096827Y0095471D01*
X0096663Y0095510D01*
X0096499Y0095554D01*
X0096337Y0095601D01*
X0096176Y0095652D01*
X0096016Y0095707D01*
X0095857Y0095766D01*
X0095700Y0095828D01*
X0095545Y0095895D01*
X0095391Y0095966D01*
X0095239Y0096040D01*
X0095089Y0096118D01*
X0094941Y0096199D01*
X0094795Y0096284D01*
X0094651Y0096373D01*
X0094509Y0096465D01*
X0094370Y0096561D01*
X0094233Y0096660D01*
X0094098Y0096762D01*
X0093966Y0096868D01*
X0093837Y0096977D01*
X0093710Y0097089D01*
X0093586Y0097204D01*
X0093465Y0097322D01*
X0093347Y0097443D01*
X0093232Y0097567D01*
X0093120Y0097694D01*
X0093011Y0097823D01*
X0092905Y0097955D01*
X0092803Y0098090D01*
X0092704Y0098227D01*
X0092608Y0098366D01*
X0092516Y0098508D01*
X0092427Y0098652D01*
X0092342Y0098798D01*
X0092261Y0098946D01*
X0092183Y0099096D01*
X0092109Y0099248D01*
X0092038Y0099402D01*
X0091971Y0099557D01*
X0091909Y0099714D01*
X0091850Y0099873D01*
X0091795Y0100033D01*
X0091744Y0100194D01*
X0091697Y0100356D01*
X0091653Y0100520D01*
X0091614Y0100684D01*
X0091579Y0100850D01*
X0091548Y0101016D01*
X0091522Y0101183D01*
X0091499Y0101351D01*
X0091480Y0101519D01*
X0091466Y0101687D01*
X0091455Y0101856D01*
X0091449Y0102025D01*
X0091447Y0102194D01*
X0096619Y0079555D02*
X0097970Y0079555D01*
X0098420Y0079105D01*
X0098420Y0078655D01*
X0097970Y0078204D01*
X0096619Y0078204D01*
X0096619Y0076853D02*
X0096619Y0079555D01*
X0097970Y0078204D02*
X0098420Y0077754D01*
X0098420Y0077304D01*
X0097970Y0076853D01*
X0096619Y0076853D01*
X0099565Y0076853D02*
X0099565Y0078655D01*
X0100466Y0079555D01*
X0101367Y0078655D01*
X0101367Y0076853D01*
X0101367Y0078204D02*
X0099565Y0078204D01*
X0102512Y0079555D02*
X0104313Y0079555D01*
X0103413Y0079555D02*
X0103413Y0076853D01*
X0105458Y0076853D02*
X0107260Y0076853D01*
X0106359Y0076853D02*
X0106359Y0079555D01*
X0105458Y0078655D01*
X0105857Y0085711D02*
X0104956Y0085711D01*
X0104505Y0086162D01*
X0104956Y0087063D02*
X0104505Y0087513D01*
X0104505Y0087963D01*
X0104956Y0088414D01*
X0105857Y0088414D01*
X0106307Y0087963D01*
X0105857Y0087063D02*
X0106307Y0086612D01*
X0106307Y0086162D01*
X0105857Y0085711D01*
X0105857Y0087063D02*
X0104956Y0087063D01*
X0107452Y0087963D02*
X0107902Y0088414D01*
X0108803Y0088414D01*
X0109253Y0087963D01*
X0109253Y0087513D01*
X0107452Y0085711D01*
X0109253Y0085711D01*
X0077739Y0095020D02*
X0077288Y0094570D01*
X0075937Y0094570D01*
X0075937Y0093669D02*
X0075937Y0096371D01*
X0077288Y0096371D01*
X0077739Y0095921D01*
X0077739Y0095020D01*
X0074792Y0094570D02*
X0072991Y0094570D01*
X0074792Y0096371D01*
X0074792Y0096822D01*
X0074342Y0097272D01*
X0073441Y0097272D01*
X0072991Y0096822D01*
X0070945Y0097272D02*
X0070945Y0094570D01*
X0070044Y0094570D02*
X0071846Y0094570D01*
X0070044Y0096371D02*
X0070945Y0097272D01*
X0070495Y0098507D02*
X0071395Y0098507D01*
X0071846Y0098957D01*
X0070495Y0098507D02*
X0070044Y0098957D01*
X0070044Y0100759D01*
X0070495Y0101209D01*
X0071395Y0101209D01*
X0071846Y0100759D01*
X0072991Y0099858D02*
X0074792Y0099858D01*
X0074342Y0098507D02*
X0074342Y0101209D01*
X0072991Y0099858D01*
X0056091Y0096538D02*
X0054290Y0096538D01*
X0055191Y0096538D02*
X0055191Y0099240D01*
X0054290Y0098340D01*
X0053145Y0098790D02*
X0053145Y0099240D01*
X0053145Y0098790D02*
X0052244Y0097889D01*
X0052244Y0096538D01*
X0052244Y0097889D02*
X0051343Y0098790D01*
X0051343Y0099240D01*
X0040343Y0099407D02*
X0040343Y0098957D01*
X0039893Y0098507D01*
X0038992Y0098507D01*
X0038542Y0098957D01*
X0037397Y0098957D02*
X0036946Y0098507D01*
X0036046Y0098507D01*
X0035595Y0098957D01*
X0035595Y0100759D01*
X0036046Y0101209D01*
X0036946Y0101209D01*
X0037397Y0100759D01*
X0038542Y0100759D02*
X0038992Y0101209D01*
X0039893Y0101209D01*
X0040343Y0100759D01*
X0040343Y0100308D01*
X0039893Y0099858D01*
X0040343Y0099407D01*
X0039893Y0099858D02*
X0039443Y0099858D01*
X0039887Y0096371D02*
X0038536Y0096371D01*
X0038536Y0093669D01*
X0038536Y0094570D02*
X0039887Y0094570D01*
X0040337Y0095020D01*
X0040337Y0095921D01*
X0039887Y0096371D01*
X0037391Y0096371D02*
X0037391Y0096822D01*
X0036940Y0097272D01*
X0036039Y0097272D01*
X0035589Y0096822D01*
X0037391Y0096371D02*
X0035589Y0094570D01*
X0037391Y0094570D01*
X0034444Y0094570D02*
X0032643Y0094570D01*
X0033543Y0094570D02*
X0033543Y0097272D01*
X0032643Y0096371D01*
X0017954Y0103889D02*
X0016153Y0103889D01*
X0017053Y0103889D02*
X0017053Y0106592D01*
X0016153Y0105691D01*
X0015008Y0105691D02*
X0015008Y0103889D01*
X0015008Y0105241D02*
X0013206Y0105241D01*
X0013206Y0105691D02*
X0014107Y0106592D01*
X0015008Y0105691D01*
X0013206Y0105691D02*
X0013206Y0103889D01*
X0016782Y0145501D02*
X0009282Y0145501D01*
X0009282Y0170501D01*
X0016782Y0170501D01*
X0016782Y0145501D01*
X0030711Y0184188D02*
X0030711Y0185540D01*
X0031161Y0185990D01*
X0032062Y0185990D01*
X0032513Y0185540D01*
X0032513Y0184188D01*
X0033413Y0184188D02*
X0030711Y0184188D01*
X0032513Y0185089D02*
X0033413Y0185990D01*
X0032963Y0187135D02*
X0032513Y0187135D01*
X0032062Y0187585D01*
X0032062Y0188486D01*
X0032513Y0188937D01*
X0032963Y0188937D01*
X0033413Y0188486D01*
X0033413Y0187585D01*
X0032963Y0187135D01*
X0032062Y0187585D02*
X0031612Y0187135D01*
X0031161Y0187135D01*
X0030711Y0187585D01*
X0030711Y0188486D01*
X0031161Y0188937D01*
X0031612Y0188937D01*
X0032062Y0188486D01*
X0031454Y0192061D02*
X0030554Y0192962D01*
X0033256Y0192962D01*
X0033256Y0192061D02*
X0033256Y0193863D01*
X0033256Y0195008D02*
X0030554Y0195008D01*
X0031454Y0196359D02*
X0032355Y0195008D01*
X0033256Y0196359D01*
X0040514Y0194476D02*
X0043217Y0194476D01*
X0042316Y0194476D02*
X0041415Y0195828D01*
X0042316Y0194476D02*
X0043217Y0195828D01*
X0043217Y0193331D02*
X0043217Y0191530D01*
X0043217Y0192431D02*
X0040514Y0192431D01*
X0041415Y0191530D01*
X0043217Y0188897D02*
X0043217Y0187096D01*
X0043217Y0187996D02*
X0040514Y0187996D01*
X0041415Y0187096D01*
X0040965Y0185951D02*
X0041865Y0185951D01*
X0042316Y0185500D01*
X0042316Y0184149D01*
X0043217Y0184149D02*
X0040514Y0184149D01*
X0040514Y0185500D01*
X0040965Y0185951D01*
X0042316Y0185050D02*
X0043217Y0185951D01*
X0027056Y0248605D02*
X0025254Y0248605D01*
X0026155Y0248605D02*
X0026155Y0251307D01*
X0025254Y0250407D01*
X0024109Y0250857D02*
X0023659Y0251307D01*
X0022308Y0251307D01*
X0022308Y0248605D01*
X0023659Y0248605D01*
X0024109Y0249055D01*
X0024109Y0250857D01*
X0009339Y0250857D02*
X0009339Y0249956D01*
X0008889Y0249506D01*
X0007538Y0249506D01*
X0008439Y0249506D02*
X0009339Y0248605D01*
X0007538Y0248605D02*
X0007538Y0251307D01*
X0008889Y0251307D01*
X0009339Y0250857D01*
X0006393Y0250857D02*
X0005943Y0251307D01*
X0005042Y0251307D01*
X0004591Y0250857D01*
X0004591Y0249055D01*
X0005042Y0248605D01*
X0005943Y0248605D01*
X0006393Y0249055D01*
X0006393Y0249956D01*
X0005492Y0249956D01*
X0004591Y0241465D02*
X0004591Y0241015D01*
X0005492Y0240114D01*
X0005492Y0238763D01*
X0005492Y0240114D02*
X0006393Y0241015D01*
X0006393Y0241465D01*
X0007538Y0241465D02*
X0007538Y0238763D01*
X0009339Y0238763D01*
D14*
X0026221Y0189792D02*
X0028721Y0189792D01*
X0036064Y0189792D02*
X0038564Y0189792D01*
X0034361Y0234802D02*
X0034361Y0237302D01*
X0034361Y0242676D02*
X0034361Y0245176D01*
X0045906Y0239989D02*
X0048406Y0239989D01*
X0080355Y0197666D02*
X0082855Y0197666D01*
X0089706Y0197666D02*
X0092206Y0197666D01*
X0103259Y0195963D02*
X0103259Y0193463D01*
X0103259Y0201337D02*
X0103259Y0203837D01*
X0103259Y0209211D02*
X0103259Y0211711D01*
X0103259Y0217085D02*
X0103259Y0219585D01*
X0103259Y0172341D02*
X0103259Y0169841D01*
X0103259Y0164467D02*
X0103259Y0161967D01*
X0107274Y0148595D02*
X0107274Y0130595D01*
X0095385Y0125097D02*
X0095385Y0122597D01*
X0085542Y0161967D02*
X0085542Y0164467D01*
X0085542Y0169841D02*
X0085542Y0172341D01*
X0069794Y0105412D02*
X0069794Y0102912D01*
X0056015Y0101209D02*
X0056015Y0107115D01*
X0052078Y0107115D02*
X0052078Y0101209D01*
X0038298Y0102912D02*
X0038298Y0105412D01*
D15*
X0054046Y0106131D02*
X0054046Y0102194D01*
D16*
X0065660Y0111249D02*
X0073534Y0111249D01*
X0073534Y0119123D01*
X0073534Y0171879D02*
X0073534Y0179753D01*
X0065660Y0179753D01*
X0012904Y0179753D02*
X0005030Y0179753D01*
X0005030Y0171879D01*
X0005030Y0119123D02*
X0005030Y0111249D01*
X0006999Y0111249D01*
M02*
