G75*
%MOIN*%
%OFA0B0*%
%FSLAX25Y25*%
%IPPOS*%
%LPD*%
%AMOC8*
5,1,8,0,0,1.08239X$1,22.5*
%
%ADD10R,0.00100X0.01100*%
%ADD11R,0.00100X0.01200*%
%ADD12R,0.00100X0.01300*%
%ADD13R,0.00100X0.01400*%
%ADD14R,0.00100X0.01500*%
%ADD15R,0.00100X0.01000*%
%ADD16R,0.00100X0.00400*%
%ADD17R,0.00100X0.00200*%
%ADD18R,0.00100X0.00800*%
%ADD19R,0.00100X0.00900*%
%ADD20R,0.00100X0.19900*%
%ADD21R,0.00100X0.02800*%
%ADD22R,0.00100X0.11400*%
%ADD23R,0.00100X0.01700*%
%ADD24R,0.00100X0.01600*%
%ADD25R,0.00100X0.02900*%
%ADD26R,0.00100X0.04200*%
%ADD27R,0.00100X0.04100*%
%ADD28R,0.00100X0.02000*%
%ADD29R,0.00100X0.01800*%
%ADD30R,0.00100X0.02500*%
%ADD31R,0.00100X0.02400*%
%ADD32R,0.00100X0.02200*%
%ADD33R,0.00100X0.02600*%
%ADD34R,0.00100X0.02300*%
%ADD35R,0.00100X0.02700*%
%ADD36R,0.00100X0.00700*%
%ADD37R,0.00100X0.02100*%
%ADD38R,0.00100X0.01900*%
%ADD39R,0.00100X0.04000*%
%ADD40R,0.00100X0.00600*%
%ADD41R,0.00100X0.00100*%
%ADD42R,0.00100X0.19700*%
%ADD43R,0.00100X0.11300*%
%ADD44R,0.00100X0.11000*%
%ADD45R,0.00100X0.19800*%
%ADD46R,0.00100X0.14300*%
%ADD47R,0.00100X0.14200*%
%ADD48C,0.00600*%
%ADD49R,0.00200X0.00800*%
%ADD50R,0.00200X0.01000*%
%ADD51R,0.00200X0.01200*%
%ADD52R,0.00200X0.01400*%
%ADD53R,0.00200X0.01600*%
%ADD54R,0.00200X0.00600*%
%ADD55R,0.00200X0.02000*%
%ADD56R,0.00200X0.01800*%
%ADD57R,0.00200X0.02800*%
%ADD58R,0.00200X0.02400*%
%ADD59R,0.00200X0.02600*%
%ADD60R,0.00200X0.03400*%
%ADD61R,0.00200X0.03000*%
%ADD62R,0.00200X0.03600*%
%ADD63R,0.00200X0.03200*%
%ADD64R,0.00200X0.04000*%
%ADD65R,0.00200X0.00400*%
%ADD66R,0.00200X0.00200*%
%ADD67R,0.00200X0.03800*%
%ADD68R,0.00200X0.02200*%
%ADD69R,0.00200X0.04200*%
%ADD70R,0.00200X0.06400*%
%ADD71R,0.00200X0.06600*%
%ADD72R,0.00200X0.06200*%
%ADD73R,0.00200X0.06000*%
%ADD74R,0.00200X0.05600*%
%ADD75R,0.00200X0.04600*%
%ADD76R,0.00200X0.04400*%
%ADD77R,0.00200X0.05000*%
%ADD78R,0.00200X0.05200*%
%ADD79R,0.00200X0.04800*%
%ADD80C,0.01200*%
%ADD81C,0.00800*%
D10*
X0104558Y0179135D03*
X0104558Y0180735D03*
X0106358Y0174435D03*
X0107958Y0172735D03*
X0108558Y0173235D03*
X0108558Y0171635D03*
X0109858Y0171635D03*
X0110058Y0169035D03*
X0109458Y0168935D03*
X0110558Y0175435D03*
X0108558Y0177635D03*
X0108658Y0179135D03*
X0114458Y0176635D03*
X0113139Y0135456D03*
X0113139Y0133856D03*
X0114739Y0131656D03*
X0114839Y0131656D03*
X0114939Y0131656D03*
X0115939Y0132256D03*
X0113139Y0128056D03*
X0113139Y0123756D03*
X0113239Y0122256D03*
X0113139Y0120756D03*
X0114639Y0125256D03*
X0109839Y0131056D03*
X0110439Y0132156D03*
X0109839Y0132556D03*
X0108539Y0133956D03*
X0108639Y0135456D03*
X0108539Y0129556D03*
X0108639Y0128056D03*
X0107939Y0126856D03*
X0109439Y0125056D03*
X0107939Y0121156D03*
X0108539Y0120756D03*
D11*
X0108539Y0122206D03*
X0110039Y0123706D03*
X0110439Y0124806D03*
X0112639Y0122706D03*
X0114039Y0126606D03*
X0115039Y0126306D03*
X0113139Y0129506D03*
X0114539Y0133906D03*
X0115039Y0134906D03*
X0114539Y0135406D03*
X0115839Y0132206D03*
X0115139Y0117306D03*
X0114139Y0114006D03*
X0108039Y0128506D03*
X0108539Y0135406D03*
X0110058Y0167585D03*
X0110458Y0172685D03*
X0113158Y0176585D03*
X0114058Y0179385D03*
X0114658Y0178085D03*
X0115058Y0175485D03*
X0114558Y0175085D03*
X0108558Y0180685D03*
X0106258Y0174485D03*
X0105858Y0174585D03*
X0103958Y0177985D03*
X0103958Y0179585D03*
D12*
X0105958Y0174535D03*
X0106058Y0174535D03*
X0106158Y0174535D03*
X0107958Y0175435D03*
X0108058Y0172735D03*
X0110458Y0168635D03*
X0114558Y0176535D03*
X0115058Y0179135D03*
X0108058Y0179635D03*
X0112639Y0134956D03*
X0114539Y0131656D03*
X0114639Y0131656D03*
X0115739Y0132156D03*
X0112639Y0128456D03*
X0113539Y0125356D03*
X0112639Y0121056D03*
X0112539Y0117356D03*
X0113439Y0115156D03*
X0115139Y0114556D03*
X0108039Y0121156D03*
X0108039Y0126856D03*
X0108039Y0134256D03*
D13*
X0108139Y0128506D03*
X0108539Y0128006D03*
X0109339Y0124906D03*
X0110339Y0124806D03*
X0112539Y0125906D03*
X0113939Y0126406D03*
X0112739Y0122706D03*
X0113139Y0122206D03*
X0112539Y0114606D03*
X0114439Y0131706D03*
X0115539Y0132106D03*
X0115639Y0132106D03*
X0110358Y0168685D03*
X0112658Y0175485D03*
X0113558Y0178185D03*
X0113958Y0179185D03*
X0112558Y0178685D03*
X0108558Y0179085D03*
X0108158Y0179585D03*
X0108058Y0177985D03*
X0104058Y0177985D03*
X0104058Y0179585D03*
D14*
X0108158Y0177935D03*
X0110458Y0175435D03*
X0110358Y0172735D03*
X0109358Y0168735D03*
X0108958Y0167735D03*
X0107958Y0168235D03*
X0114939Y0134956D03*
X0115439Y0132056D03*
X0114339Y0131656D03*
X0114239Y0131656D03*
X0112739Y0128456D03*
X0114939Y0126356D03*
X0112739Y0121056D03*
X0108939Y0123856D03*
X0107939Y0124356D03*
X0108139Y0126856D03*
X0108139Y0121156D03*
X0110339Y0132156D03*
D15*
X0109739Y0131006D03*
X0108639Y0129606D03*
X0107939Y0128506D03*
X0108539Y0126506D03*
X0110039Y0125206D03*
X0109939Y0123606D03*
X0109839Y0123606D03*
X0108839Y0123606D03*
X0108639Y0122306D03*
X0108639Y0120706D03*
X0112539Y0121106D03*
X0112539Y0122706D03*
X0113239Y0123806D03*
X0113039Y0125206D03*
X0113039Y0126606D03*
X0113239Y0128006D03*
X0112539Y0128406D03*
X0113239Y0129606D03*
X0113339Y0129606D03*
X0115239Y0131706D03*
X0115339Y0131806D03*
X0114439Y0133806D03*
X0114339Y0133806D03*
X0113239Y0133806D03*
X0112539Y0134906D03*
X0113239Y0135506D03*
X0114239Y0135606D03*
X0114439Y0135506D03*
X0112639Y0132606D03*
X0114639Y0126706D03*
X0115139Y0126306D03*
X0113139Y0118106D03*
X0114539Y0116606D03*
X0114639Y0115306D03*
X0107939Y0134306D03*
X0108739Y0135506D03*
X0108858Y0167485D03*
X0109958Y0167485D03*
X0109558Y0169085D03*
X0110458Y0170285D03*
X0109758Y0171585D03*
X0108658Y0171585D03*
X0108658Y0173285D03*
X0108858Y0173385D03*
X0109558Y0173385D03*
X0109858Y0173285D03*
X0109958Y0174685D03*
X0109958Y0176185D03*
X0108458Y0176185D03*
X0108458Y0174785D03*
X0107958Y0177985D03*
X0107958Y0179585D03*
X0108658Y0180785D03*
X0108758Y0180785D03*
X0106458Y0174385D03*
X0104558Y0177585D03*
X0103858Y0177985D03*
X0104658Y0180785D03*
X0106958Y0170285D03*
X0107858Y0168185D03*
X0113158Y0174985D03*
X0112558Y0175485D03*
X0113258Y0176685D03*
X0113358Y0176685D03*
X0114258Y0176685D03*
X0114358Y0176685D03*
X0114558Y0177985D03*
X0113458Y0177985D03*
X0114158Y0179585D03*
X0114658Y0179585D03*
X0115158Y0175485D03*
X0114458Y0174985D03*
X0114358Y0174885D03*
D16*
X0103758Y0177985D03*
X0103758Y0179585D03*
X0115239Y0117306D03*
X0115239Y0114606D03*
D17*
X0115239Y0134906D03*
D18*
X0115139Y0133706D03*
X0115039Y0133706D03*
X0114939Y0133706D03*
X0114039Y0133706D03*
X0113939Y0133706D03*
X0113839Y0133706D03*
X0113739Y0133706D03*
X0113639Y0133706D03*
X0112639Y0133706D03*
X0111439Y0133706D03*
X0110539Y0133806D03*
X0110339Y0133806D03*
X0110239Y0133806D03*
X0110139Y0133806D03*
X0110039Y0133806D03*
X0109939Y0133806D03*
X0109839Y0133806D03*
X0109739Y0133806D03*
X0109639Y0133806D03*
X0109539Y0133806D03*
X0109439Y0133806D03*
X0109339Y0133806D03*
X0109239Y0133806D03*
X0109139Y0133806D03*
X0109039Y0133806D03*
X0108939Y0133806D03*
X0108839Y0133806D03*
X0110539Y0135506D03*
X0110539Y0130906D03*
X0110439Y0130906D03*
X0110339Y0130906D03*
X0109339Y0130906D03*
X0109339Y0129706D03*
X0109239Y0129706D03*
X0109139Y0129706D03*
X0109039Y0129706D03*
X0108939Y0129706D03*
X0109439Y0129706D03*
X0109539Y0129706D03*
X0109639Y0129706D03*
X0109739Y0129706D03*
X0109839Y0129706D03*
X0109939Y0129706D03*
X0110039Y0129706D03*
X0110139Y0129706D03*
X0110239Y0129706D03*
X0110339Y0129706D03*
X0110439Y0129706D03*
X0110539Y0129706D03*
X0110539Y0126406D03*
X0110439Y0126406D03*
X0110339Y0126406D03*
X0110239Y0126406D03*
X0110139Y0126406D03*
X0110039Y0126406D03*
X0109939Y0126406D03*
X0109839Y0126406D03*
X0109739Y0126406D03*
X0109639Y0126406D03*
X0109539Y0126406D03*
X0109439Y0126406D03*
X0109339Y0126406D03*
X0109239Y0126406D03*
X0109139Y0126406D03*
X0109039Y0126406D03*
X0108939Y0126406D03*
X0108839Y0126406D03*
X0108739Y0126406D03*
X0108639Y0125206D03*
X0109739Y0125306D03*
X0109839Y0125306D03*
X0110439Y0123506D03*
X0110539Y0123506D03*
X0108539Y0123606D03*
X0108139Y0122406D03*
X0108039Y0122406D03*
X0108939Y0120606D03*
X0109039Y0120606D03*
X0109139Y0120606D03*
X0109239Y0120606D03*
X0109339Y0120606D03*
X0109439Y0120606D03*
X0109539Y0120606D03*
X0109639Y0120606D03*
X0109739Y0120606D03*
X0109839Y0120606D03*
X0109939Y0120606D03*
X0110039Y0120606D03*
X0110139Y0120606D03*
X0110239Y0120606D03*
X0110339Y0120606D03*
X0110539Y0120606D03*
X0111439Y0119406D03*
X0111539Y0119406D03*
X0111639Y0119406D03*
X0111739Y0119406D03*
X0111839Y0119406D03*
X0111939Y0119406D03*
X0112039Y0119406D03*
X0112539Y0119406D03*
X0112639Y0119406D03*
X0112739Y0119406D03*
X0112839Y0119406D03*
X0112939Y0119406D03*
X0113039Y0119406D03*
X0113139Y0119406D03*
X0113239Y0119406D03*
X0113339Y0119406D03*
X0113439Y0119406D03*
X0113539Y0119406D03*
X0113639Y0119406D03*
X0113739Y0119406D03*
X0113839Y0119406D03*
X0113939Y0119406D03*
X0114039Y0119406D03*
X0114139Y0119406D03*
X0114239Y0119406D03*
X0114339Y0119406D03*
X0114439Y0119406D03*
X0114539Y0119406D03*
X0114639Y0119406D03*
X0114739Y0119406D03*
X0114839Y0119406D03*
X0114939Y0119406D03*
X0115039Y0119406D03*
X0115139Y0119406D03*
X0115139Y0120606D03*
X0115039Y0120606D03*
X0114939Y0120606D03*
X0114839Y0120606D03*
X0114739Y0120606D03*
X0114639Y0120606D03*
X0114539Y0120606D03*
X0114439Y0120606D03*
X0114339Y0120606D03*
X0114239Y0120606D03*
X0114139Y0120606D03*
X0114039Y0120606D03*
X0113939Y0120606D03*
X0113839Y0120606D03*
X0113739Y0120606D03*
X0113639Y0120606D03*
X0113539Y0120606D03*
X0113439Y0120606D03*
X0115139Y0122306D03*
X0115139Y0123906D03*
X0115039Y0123906D03*
X0114939Y0123906D03*
X0114839Y0123906D03*
X0114739Y0123906D03*
X0114639Y0123906D03*
X0114539Y0123906D03*
X0114439Y0123906D03*
X0114339Y0123906D03*
X0114239Y0123906D03*
X0114139Y0123906D03*
X0114039Y0123906D03*
X0113939Y0123906D03*
X0113839Y0123906D03*
X0113739Y0123906D03*
X0113639Y0123906D03*
X0113539Y0123906D03*
X0113439Y0123906D03*
X0112739Y0123906D03*
X0112639Y0123906D03*
X0112539Y0123906D03*
X0113239Y0125106D03*
X0113339Y0125106D03*
X0113939Y0125106D03*
X0114039Y0125106D03*
X0114139Y0125106D03*
X0114239Y0125106D03*
X0114339Y0125106D03*
X0114939Y0125106D03*
X0115139Y0125006D03*
X0114539Y0126806D03*
X0114439Y0126806D03*
X0114339Y0126806D03*
X0114239Y0126806D03*
X0113239Y0126706D03*
X0112439Y0125906D03*
X0112539Y0129706D03*
X0112639Y0129706D03*
X0112739Y0129706D03*
X0112739Y0130806D03*
X0113039Y0130906D03*
X0113139Y0130906D03*
X0113239Y0131006D03*
X0113339Y0131006D03*
X0113439Y0131006D03*
X0113539Y0131106D03*
X0113639Y0131106D03*
X0113739Y0131106D03*
X0113939Y0131206D03*
X0114039Y0131206D03*
X0114039Y0132106D03*
X0113939Y0132106D03*
X0113839Y0132206D03*
X0113739Y0132206D03*
X0113539Y0132306D03*
X0113439Y0132306D03*
X0115139Y0129706D03*
X0115139Y0127906D03*
X0114339Y0115506D03*
X0113239Y0115406D03*
X0113139Y0115406D03*
X0112439Y0114606D03*
X0113039Y0113906D03*
X0113139Y0113806D03*
X0113239Y0113806D03*
X0114339Y0113806D03*
X0114439Y0113806D03*
X0114539Y0113806D03*
X0108139Y0129706D03*
X0108039Y0129706D03*
X0107939Y0129706D03*
X0110458Y0167385D03*
X0110558Y0167385D03*
X0109758Y0169185D03*
X0109758Y0170285D03*
X0109858Y0170285D03*
X0109958Y0170285D03*
X0110058Y0170285D03*
X0110158Y0170285D03*
X0110258Y0170285D03*
X0110358Y0170285D03*
X0110558Y0170285D03*
X0109658Y0170285D03*
X0109558Y0170285D03*
X0109458Y0170285D03*
X0109358Y0170285D03*
X0109258Y0170285D03*
X0109158Y0170285D03*
X0109058Y0170285D03*
X0108958Y0170285D03*
X0108858Y0170285D03*
X0108758Y0170285D03*
X0108658Y0170285D03*
X0108558Y0170285D03*
X0108458Y0170285D03*
X0108358Y0170285D03*
X0108258Y0170285D03*
X0108158Y0170285D03*
X0108058Y0170285D03*
X0107958Y0170285D03*
X0107458Y0170285D03*
X0107358Y0170285D03*
X0107258Y0170285D03*
X0107158Y0170285D03*
X0107058Y0170285D03*
X0106858Y0170285D03*
X0106858Y0171485D03*
X0107058Y0171485D03*
X0107158Y0171485D03*
X0107258Y0171485D03*
X0107358Y0171485D03*
X0107458Y0171485D03*
X0107558Y0171485D03*
X0107658Y0171485D03*
X0107758Y0171485D03*
X0107858Y0171485D03*
X0107958Y0171485D03*
X0108058Y0171485D03*
X0108958Y0171485D03*
X0109058Y0171485D03*
X0109158Y0171485D03*
X0109258Y0171485D03*
X0109358Y0171485D03*
X0109458Y0171485D03*
X0110358Y0171485D03*
X0110558Y0171485D03*
X0108758Y0174585D03*
X0107858Y0175485D03*
X0108858Y0176385D03*
X0109458Y0176385D03*
X0109558Y0176385D03*
X0108958Y0177485D03*
X0110558Y0177485D03*
X0111458Y0176685D03*
X0110558Y0179185D03*
X0110558Y0180785D03*
X0111458Y0180785D03*
X0113158Y0179485D03*
X0113258Y0179585D03*
X0114358Y0179685D03*
X0114458Y0179685D03*
X0115158Y0180785D03*
X0115158Y0177885D03*
X0115058Y0177885D03*
X0115158Y0176685D03*
X0113958Y0174785D03*
X0113858Y0174785D03*
X0113758Y0174785D03*
X0108558Y0167485D03*
X0107858Y0172685D03*
X0105758Y0174785D03*
X0105658Y0174785D03*
X0105558Y0174785D03*
X0105458Y0174785D03*
X0105358Y0174785D03*
X0105258Y0174785D03*
X0105158Y0174785D03*
X0105058Y0174785D03*
X0104958Y0174785D03*
X0104858Y0174785D03*
X0104758Y0174785D03*
X0104658Y0174785D03*
X0104558Y0174785D03*
X0104458Y0174785D03*
X0103758Y0174785D03*
X0103658Y0174785D03*
X0103558Y0174785D03*
X0103458Y0174785D03*
X0103358Y0174785D03*
X0103258Y0174785D03*
X0103158Y0174785D03*
X0103058Y0174785D03*
X0102958Y0174785D03*
X0103458Y0176285D03*
X0103858Y0180785D03*
X0106458Y0180785D03*
X0106458Y0177485D03*
D19*
X0106358Y0177535D03*
X0106258Y0177535D03*
X0106158Y0177535D03*
X0106058Y0177535D03*
X0105958Y0177535D03*
X0105858Y0177535D03*
X0105758Y0177535D03*
X0105658Y0177535D03*
X0105558Y0177535D03*
X0105458Y0177535D03*
X0105358Y0177535D03*
X0105258Y0177535D03*
X0105158Y0177535D03*
X0105058Y0177535D03*
X0104958Y0177535D03*
X0104858Y0177535D03*
X0104758Y0177535D03*
X0104658Y0177535D03*
X0104658Y0176235D03*
X0104758Y0176235D03*
X0104858Y0176235D03*
X0104958Y0176235D03*
X0105058Y0176235D03*
X0105158Y0176235D03*
X0105258Y0176235D03*
X0105358Y0176235D03*
X0105458Y0176235D03*
X0105558Y0176235D03*
X0105658Y0176235D03*
X0105758Y0176235D03*
X0105858Y0176235D03*
X0105958Y0176235D03*
X0106058Y0176235D03*
X0106158Y0176235D03*
X0106258Y0176235D03*
X0106358Y0176235D03*
X0106458Y0176235D03*
X0106458Y0179135D03*
X0106358Y0179135D03*
X0106258Y0179135D03*
X0106158Y0179135D03*
X0106058Y0179135D03*
X0105958Y0179135D03*
X0105858Y0179135D03*
X0105758Y0179135D03*
X0105658Y0179135D03*
X0105558Y0179135D03*
X0105458Y0179135D03*
X0105358Y0179135D03*
X0105258Y0179135D03*
X0105158Y0179135D03*
X0105058Y0179135D03*
X0104958Y0179135D03*
X0104858Y0179135D03*
X0104758Y0179135D03*
X0104658Y0179135D03*
X0103858Y0179635D03*
X0103958Y0180835D03*
X0104058Y0180835D03*
X0104758Y0180835D03*
X0104858Y0180835D03*
X0104958Y0180835D03*
X0105058Y0180835D03*
X0105158Y0180835D03*
X0105258Y0180835D03*
X0105358Y0180835D03*
X0105458Y0180835D03*
X0105558Y0180835D03*
X0105658Y0180835D03*
X0105758Y0180835D03*
X0105858Y0180835D03*
X0105958Y0180835D03*
X0106058Y0180835D03*
X0106158Y0180835D03*
X0106258Y0180835D03*
X0106358Y0180835D03*
X0107958Y0180835D03*
X0108058Y0180835D03*
X0108158Y0180835D03*
X0108858Y0180835D03*
X0108958Y0180835D03*
X0109058Y0180835D03*
X0109158Y0180835D03*
X0109258Y0180835D03*
X0109358Y0180835D03*
X0109458Y0180835D03*
X0109558Y0180835D03*
X0109658Y0180835D03*
X0109758Y0180835D03*
X0109858Y0180835D03*
X0109958Y0180835D03*
X0110058Y0180835D03*
X0110158Y0180835D03*
X0110258Y0180835D03*
X0110358Y0180835D03*
X0110458Y0180835D03*
X0111558Y0180835D03*
X0111658Y0180835D03*
X0111758Y0180835D03*
X0111858Y0180835D03*
X0111958Y0180835D03*
X0112058Y0180835D03*
X0112158Y0180835D03*
X0112258Y0180835D03*
X0112358Y0180835D03*
X0112458Y0180835D03*
X0112558Y0180835D03*
X0112658Y0180835D03*
X0112758Y0180835D03*
X0112858Y0180835D03*
X0112958Y0180835D03*
X0113058Y0180835D03*
X0113158Y0180835D03*
X0113258Y0180835D03*
X0113358Y0180835D03*
X0113458Y0180835D03*
X0113558Y0180835D03*
X0113658Y0180835D03*
X0113758Y0180835D03*
X0113858Y0180835D03*
X0113958Y0180835D03*
X0114058Y0180835D03*
X0114158Y0180835D03*
X0114258Y0180835D03*
X0114358Y0180835D03*
X0114458Y0180835D03*
X0114558Y0180835D03*
X0114658Y0180835D03*
X0114758Y0180835D03*
X0114858Y0180835D03*
X0114958Y0180835D03*
X0115058Y0180835D03*
X0114558Y0179635D03*
X0114258Y0179635D03*
X0115158Y0179135D03*
X0114458Y0177935D03*
X0114358Y0177935D03*
X0114258Y0177935D03*
X0114158Y0177935D03*
X0114058Y0177935D03*
X0113958Y0177935D03*
X0113358Y0177935D03*
X0113258Y0177935D03*
X0113158Y0177935D03*
X0113058Y0178035D03*
X0112458Y0178735D03*
X0113058Y0179435D03*
X0113458Y0176735D03*
X0113558Y0176735D03*
X0113658Y0176735D03*
X0113758Y0176735D03*
X0113858Y0176735D03*
X0113958Y0176735D03*
X0114058Y0176735D03*
X0114158Y0176735D03*
X0115058Y0176735D03*
X0114258Y0174835D03*
X0114158Y0174835D03*
X0114058Y0174835D03*
X0113658Y0174835D03*
X0113558Y0174835D03*
X0113458Y0174835D03*
X0113358Y0174835D03*
X0113258Y0174935D03*
X0112658Y0176735D03*
X0112558Y0176735D03*
X0112458Y0176735D03*
X0112358Y0176735D03*
X0112258Y0176735D03*
X0112158Y0176735D03*
X0112058Y0176735D03*
X0111958Y0176735D03*
X0111858Y0176735D03*
X0111758Y0176735D03*
X0111658Y0176735D03*
X0111558Y0176735D03*
X0110458Y0177535D03*
X0110358Y0177535D03*
X0110258Y0177535D03*
X0110158Y0177535D03*
X0110058Y0177535D03*
X0109958Y0177535D03*
X0109858Y0177535D03*
X0109758Y0177535D03*
X0109658Y0177535D03*
X0109558Y0177535D03*
X0109458Y0177535D03*
X0109358Y0177535D03*
X0109258Y0177535D03*
X0109158Y0177535D03*
X0109058Y0177535D03*
X0108858Y0177535D03*
X0108758Y0177535D03*
X0108658Y0177535D03*
X0108658Y0176335D03*
X0108758Y0176335D03*
X0108558Y0176235D03*
X0109658Y0176335D03*
X0109758Y0176335D03*
X0109858Y0176235D03*
X0109858Y0174535D03*
X0108858Y0174535D03*
X0108658Y0174635D03*
X0108558Y0174635D03*
X0108958Y0173435D03*
X0109058Y0173435D03*
X0109158Y0173435D03*
X0109258Y0173435D03*
X0109358Y0173435D03*
X0109458Y0173435D03*
X0109658Y0173335D03*
X0109758Y0173335D03*
X0110558Y0172735D03*
X0110458Y0171435D03*
X0109658Y0171535D03*
X0109558Y0171535D03*
X0108858Y0171535D03*
X0108758Y0171535D03*
X0108758Y0173335D03*
X0106958Y0171435D03*
X0108558Y0169035D03*
X0108658Y0169035D03*
X0108458Y0168935D03*
X0109658Y0169135D03*
X0109858Y0169135D03*
X0109958Y0169135D03*
X0110558Y0168635D03*
X0110358Y0167435D03*
X0109858Y0167435D03*
X0109758Y0167435D03*
X0109658Y0167435D03*
X0109558Y0167435D03*
X0109458Y0167435D03*
X0109358Y0167435D03*
X0108758Y0167435D03*
X0108658Y0167435D03*
X0108458Y0167535D03*
X0104558Y0176235D03*
X0104458Y0176235D03*
X0104358Y0176235D03*
X0104258Y0176235D03*
X0104158Y0176235D03*
X0104058Y0176235D03*
X0103958Y0176235D03*
X0103858Y0176235D03*
X0103358Y0176235D03*
X0103258Y0176235D03*
X0103158Y0176235D03*
X0103058Y0176235D03*
X0102958Y0176235D03*
X0102858Y0176235D03*
X0108758Y0179135D03*
X0108858Y0179135D03*
X0108958Y0179135D03*
X0109058Y0179135D03*
X0109158Y0179135D03*
X0109258Y0179135D03*
X0109358Y0179135D03*
X0109458Y0179135D03*
X0109558Y0179135D03*
X0109658Y0179135D03*
X0109758Y0179135D03*
X0109858Y0179135D03*
X0109958Y0179135D03*
X0110058Y0179135D03*
X0110158Y0179135D03*
X0110258Y0179135D03*
X0110358Y0179135D03*
X0110458Y0179135D03*
X0110439Y0135556D03*
X0110339Y0135556D03*
X0110239Y0135556D03*
X0110139Y0135556D03*
X0110039Y0135556D03*
X0109939Y0135556D03*
X0109839Y0135556D03*
X0109739Y0135556D03*
X0109639Y0135556D03*
X0109539Y0135556D03*
X0109439Y0135556D03*
X0109339Y0135556D03*
X0109239Y0135556D03*
X0109139Y0135556D03*
X0109039Y0135556D03*
X0108939Y0135556D03*
X0108839Y0135556D03*
X0108039Y0135556D03*
X0107939Y0135556D03*
X0107839Y0135556D03*
X0107739Y0135556D03*
X0107639Y0135556D03*
X0107539Y0135556D03*
X0107439Y0135556D03*
X0107339Y0135556D03*
X0107239Y0135556D03*
X0107139Y0135556D03*
X0107039Y0135556D03*
X0106939Y0135556D03*
X0106839Y0135556D03*
X0107939Y0132656D03*
X0108039Y0132656D03*
X0108139Y0132656D03*
X0108239Y0132656D03*
X0108339Y0132656D03*
X0108439Y0132656D03*
X0108539Y0132656D03*
X0108639Y0132656D03*
X0108739Y0132656D03*
X0108839Y0132656D03*
X0108939Y0132656D03*
X0109039Y0132656D03*
X0109139Y0132656D03*
X0109239Y0132656D03*
X0109339Y0132656D03*
X0109439Y0132656D03*
X0109539Y0132656D03*
X0109639Y0132656D03*
X0109739Y0132656D03*
X0110539Y0132156D03*
X0109639Y0130956D03*
X0109539Y0130956D03*
X0109439Y0130956D03*
X0109239Y0130956D03*
X0109139Y0130956D03*
X0109039Y0130956D03*
X0108939Y0130956D03*
X0108839Y0130956D03*
X0108739Y0130956D03*
X0108639Y0130956D03*
X0108539Y0130956D03*
X0108439Y0130956D03*
X0108339Y0130956D03*
X0108239Y0130956D03*
X0108139Y0130956D03*
X0108039Y0130956D03*
X0107939Y0130956D03*
X0108739Y0129656D03*
X0108839Y0129656D03*
X0108839Y0128056D03*
X0108739Y0128056D03*
X0108939Y0128056D03*
X0109039Y0128056D03*
X0109139Y0128056D03*
X0109239Y0128056D03*
X0109339Y0128056D03*
X0109439Y0128056D03*
X0109539Y0128056D03*
X0109639Y0128056D03*
X0109739Y0128056D03*
X0109839Y0128056D03*
X0109939Y0128056D03*
X0110039Y0128056D03*
X0110139Y0128056D03*
X0110239Y0128056D03*
X0110339Y0128056D03*
X0110439Y0128056D03*
X0108639Y0126456D03*
X0108539Y0125156D03*
X0108439Y0125056D03*
X0107839Y0124356D03*
X0108439Y0123656D03*
X0108639Y0123556D03*
X0108739Y0123556D03*
X0109339Y0123556D03*
X0109439Y0123556D03*
X0109539Y0123556D03*
X0109639Y0123556D03*
X0109739Y0123556D03*
X0110339Y0123556D03*
X0110339Y0122356D03*
X0110239Y0122356D03*
X0110139Y0122356D03*
X0110039Y0122356D03*
X0109939Y0122356D03*
X0109839Y0122356D03*
X0109739Y0122356D03*
X0109639Y0122356D03*
X0109539Y0122356D03*
X0109439Y0122356D03*
X0109339Y0122356D03*
X0109239Y0122356D03*
X0109139Y0122356D03*
X0109039Y0122356D03*
X0108939Y0122356D03*
X0108839Y0122356D03*
X0108739Y0122356D03*
X0107939Y0122356D03*
X0108739Y0120656D03*
X0108839Y0120656D03*
X0110439Y0120656D03*
X0110439Y0122356D03*
X0110539Y0124756D03*
X0109939Y0125256D03*
X0109639Y0125256D03*
X0109539Y0125256D03*
X0113139Y0125156D03*
X0113439Y0125156D03*
X0114439Y0125156D03*
X0114539Y0125156D03*
X0115039Y0125056D03*
X0114139Y0126756D03*
X0113139Y0126656D03*
X0113339Y0127956D03*
X0113439Y0127956D03*
X0113539Y0127956D03*
X0113639Y0127956D03*
X0113739Y0127956D03*
X0113839Y0127956D03*
X0113939Y0127956D03*
X0114039Y0127956D03*
X0114139Y0127956D03*
X0114239Y0127956D03*
X0114339Y0127956D03*
X0114439Y0127956D03*
X0114539Y0127956D03*
X0114639Y0127956D03*
X0114739Y0127956D03*
X0114839Y0127956D03*
X0114939Y0127956D03*
X0115039Y0127956D03*
X0115039Y0129656D03*
X0114939Y0129656D03*
X0114839Y0129656D03*
X0114739Y0129656D03*
X0114639Y0129656D03*
X0114539Y0129656D03*
X0114439Y0129656D03*
X0114339Y0129656D03*
X0114239Y0129656D03*
X0114139Y0129656D03*
X0114039Y0129656D03*
X0113939Y0129656D03*
X0113839Y0129656D03*
X0113739Y0129656D03*
X0113639Y0129656D03*
X0113539Y0129656D03*
X0113439Y0129656D03*
X0112939Y0130856D03*
X0112839Y0130856D03*
X0112639Y0130756D03*
X0112539Y0130756D03*
X0113839Y0131156D03*
X0113639Y0132256D03*
X0113339Y0132356D03*
X0113239Y0132356D03*
X0113139Y0132456D03*
X0113039Y0132456D03*
X0112939Y0132456D03*
X0112839Y0132556D03*
X0112739Y0132556D03*
X0112539Y0132656D03*
X0112539Y0133756D03*
X0112439Y0133756D03*
X0112339Y0133756D03*
X0112239Y0133756D03*
X0112139Y0133756D03*
X0112039Y0133756D03*
X0111939Y0133756D03*
X0111839Y0133756D03*
X0111739Y0133756D03*
X0111639Y0133756D03*
X0111539Y0133756D03*
X0110439Y0133756D03*
X0108739Y0133856D03*
X0108639Y0133856D03*
X0113339Y0133756D03*
X0113439Y0133756D03*
X0113539Y0133756D03*
X0114139Y0133756D03*
X0114239Y0133756D03*
X0115139Y0134956D03*
X0114339Y0135556D03*
X0114139Y0135656D03*
X0114039Y0135656D03*
X0113939Y0135656D03*
X0113839Y0135656D03*
X0113739Y0135656D03*
X0113639Y0135656D03*
X0113539Y0135656D03*
X0113439Y0135656D03*
X0113339Y0135556D03*
X0115039Y0131656D03*
X0115139Y0131656D03*
X0113339Y0123856D03*
X0113339Y0122256D03*
X0113439Y0122256D03*
X0113539Y0122256D03*
X0113639Y0122256D03*
X0113739Y0122256D03*
X0113839Y0122256D03*
X0113939Y0122256D03*
X0114039Y0122256D03*
X0114139Y0122256D03*
X0114239Y0122256D03*
X0114339Y0122256D03*
X0114439Y0122256D03*
X0114539Y0122256D03*
X0114639Y0122256D03*
X0114739Y0122256D03*
X0114839Y0122256D03*
X0114939Y0122256D03*
X0115039Y0122256D03*
X0113339Y0120656D03*
X0113239Y0120656D03*
X0113339Y0118256D03*
X0113439Y0118256D03*
X0113539Y0118256D03*
X0113639Y0118256D03*
X0113739Y0118256D03*
X0113839Y0118256D03*
X0113939Y0118256D03*
X0114039Y0118256D03*
X0114139Y0118256D03*
X0114239Y0118256D03*
X0114339Y0118156D03*
X0114439Y0118156D03*
X0114539Y0118056D03*
X0114439Y0116556D03*
X0114339Y0116456D03*
X0114239Y0116456D03*
X0113339Y0116456D03*
X0113239Y0116556D03*
X0113139Y0116556D03*
X0113039Y0115356D03*
X0113339Y0115356D03*
X0114439Y0115456D03*
X0114539Y0115356D03*
X0114639Y0113856D03*
X0114239Y0113856D03*
X0113239Y0118156D03*
D20*
X0113239Y0148756D03*
X0113139Y0148756D03*
X0113039Y0148756D03*
X0112939Y0148756D03*
X0112839Y0148756D03*
X0112739Y0148756D03*
X0112639Y0148756D03*
X0112539Y0148756D03*
X0112439Y0148756D03*
X0112339Y0148756D03*
X0113339Y0148756D03*
X0113439Y0148756D03*
X0113539Y0148756D03*
X0113639Y0148756D03*
X0113739Y0148756D03*
X0113839Y0148756D03*
X0113939Y0148756D03*
X0114039Y0148756D03*
X0114139Y0148756D03*
X0114239Y0148756D03*
X0114339Y0148756D03*
X0114439Y0148756D03*
X0114539Y0148756D03*
X0114639Y0148756D03*
X0114739Y0148756D03*
X0114839Y0148756D03*
X0114939Y0148756D03*
X0115039Y0148756D03*
X0115139Y0148756D03*
X0109439Y0148756D03*
X0109339Y0148756D03*
X0109239Y0148756D03*
X0109139Y0148756D03*
X0109039Y0148756D03*
X0108939Y0148756D03*
X0108839Y0148756D03*
X0108739Y0148756D03*
X0108639Y0148756D03*
X0108539Y0148756D03*
X0108439Y0148756D03*
X0108339Y0148756D03*
X0108239Y0148756D03*
X0108139Y0148756D03*
X0108039Y0148756D03*
X0107939Y0148756D03*
X0107839Y0148756D03*
X0107739Y0148756D03*
X0107639Y0148756D03*
X0107539Y0148756D03*
X0107439Y0148756D03*
X0107339Y0148756D03*
X0107239Y0148756D03*
X0107139Y0148756D03*
X0107039Y0148756D03*
X0106939Y0148756D03*
X0106839Y0148756D03*
X0106739Y0148756D03*
X0103739Y0148756D03*
X0103639Y0148756D03*
X0103539Y0148756D03*
X0103439Y0148756D03*
X0103339Y0148756D03*
X0103239Y0148756D03*
X0103139Y0148756D03*
X0103039Y0148756D03*
X0102939Y0148756D03*
X0102839Y0148756D03*
X0102739Y0148756D03*
X0102639Y0148756D03*
X0102539Y0148756D03*
X0102439Y0148756D03*
X0102339Y0148756D03*
X0102239Y0148756D03*
X0102139Y0148756D03*
X0102039Y0148756D03*
X0101939Y0148756D03*
X0101839Y0148756D03*
X0101739Y0148756D03*
X0101639Y0148756D03*
X0101539Y0148756D03*
X0101439Y0148756D03*
X0101339Y0148756D03*
X0101239Y0148756D03*
X0101139Y0148756D03*
X0101039Y0148756D03*
D21*
X0100839Y0157293D03*
X0100739Y0157293D03*
X0100639Y0157293D03*
X0100539Y0157293D03*
X0100439Y0157293D03*
X0100339Y0157293D03*
X0100239Y0157293D03*
X0100139Y0157293D03*
X0100039Y0157293D03*
X0099939Y0157293D03*
X0099839Y0157293D03*
X0099739Y0157293D03*
X0099639Y0157293D03*
X0099539Y0157293D03*
X0099439Y0157293D03*
X0099339Y0157293D03*
X0099239Y0157293D03*
X0099139Y0157293D03*
X0099039Y0157293D03*
X0098939Y0157293D03*
X0098839Y0157293D03*
X0098739Y0157293D03*
X0098639Y0157293D03*
X0098539Y0157293D03*
X0098439Y0157293D03*
X0098339Y0157293D03*
X0098239Y0157293D03*
X0098239Y0140206D03*
X0098339Y0140206D03*
X0098439Y0140206D03*
X0098539Y0140206D03*
X0098639Y0140206D03*
X0098739Y0140206D03*
X0098839Y0140206D03*
X0098939Y0140206D03*
X0099039Y0140206D03*
X0099139Y0140206D03*
X0099239Y0140206D03*
X0099339Y0140206D03*
X0099439Y0140206D03*
X0099539Y0140206D03*
X0099639Y0140206D03*
X0099739Y0140206D03*
X0099839Y0140206D03*
X0099939Y0140206D03*
X0100039Y0140206D03*
X0100139Y0140206D03*
X0100239Y0140206D03*
X0100339Y0140206D03*
X0100439Y0140206D03*
X0100539Y0140206D03*
X0100639Y0140206D03*
X0100739Y0140206D03*
X0100839Y0140206D03*
X0109058Y0175485D03*
X0109158Y0175485D03*
X0109258Y0175485D03*
X0109358Y0175485D03*
X0106758Y0185485D03*
X0115158Y0185485D03*
X0098258Y0193985D03*
D22*
X0098058Y0198285D03*
X0097958Y0198285D03*
X0097858Y0198285D03*
X0097758Y0198285D03*
X0097658Y0198285D03*
X0097558Y0198285D03*
X0097458Y0198285D03*
X0097358Y0198285D03*
X0097258Y0198285D03*
X0097158Y0198285D03*
X0097058Y0198285D03*
X0096958Y0198285D03*
X0096858Y0198285D03*
X0096758Y0198285D03*
X0096658Y0198285D03*
X0096558Y0198285D03*
X0096458Y0198285D03*
X0096358Y0198285D03*
X0096258Y0198285D03*
X0096158Y0198285D03*
X0096058Y0198285D03*
X0095958Y0198285D03*
X0095858Y0198285D03*
X0095758Y0198285D03*
X0095658Y0198285D03*
X0095558Y0198285D03*
X0095458Y0198285D03*
X0095358Y0198285D03*
X0103858Y0189785D03*
X0103958Y0189785D03*
X0104058Y0189785D03*
X0104158Y0189785D03*
X0104258Y0189785D03*
X0104358Y0189785D03*
X0104458Y0189785D03*
X0104558Y0189785D03*
X0104658Y0189785D03*
X0104758Y0189785D03*
X0104858Y0189785D03*
X0104958Y0189785D03*
X0105058Y0189785D03*
X0105158Y0189785D03*
X0105258Y0189785D03*
X0105358Y0189785D03*
X0105458Y0189785D03*
X0105558Y0189785D03*
X0105658Y0189785D03*
X0105758Y0189785D03*
X0105858Y0189785D03*
X0105958Y0189785D03*
X0106058Y0189785D03*
X0106158Y0189785D03*
X0106258Y0189785D03*
X0106358Y0189785D03*
X0106458Y0189785D03*
X0106558Y0189785D03*
X0112358Y0198285D03*
X0112458Y0198285D03*
X0112558Y0198285D03*
X0112658Y0198285D03*
X0112758Y0198285D03*
X0112858Y0198285D03*
X0112958Y0198285D03*
X0113058Y0198285D03*
X0113158Y0198285D03*
X0113258Y0198285D03*
X0113358Y0198285D03*
X0113458Y0198285D03*
X0113558Y0198285D03*
X0113658Y0198285D03*
X0113758Y0198285D03*
X0113858Y0198285D03*
X0113958Y0198285D03*
X0114058Y0198285D03*
X0114158Y0198285D03*
X0114258Y0198285D03*
X0114358Y0198285D03*
X0114458Y0198285D03*
X0114558Y0198285D03*
X0114658Y0198285D03*
X0114758Y0198285D03*
X0114858Y0198285D03*
X0114958Y0198285D03*
X0115058Y0198285D03*
X0115158Y0198285D03*
D23*
X0112658Y0178735D03*
X0108058Y0175435D03*
X0104358Y0174735D03*
X0104258Y0174735D03*
X0104158Y0174735D03*
X0104058Y0174735D03*
X0103958Y0174735D03*
X0103858Y0174735D03*
X0114139Y0131656D03*
X0112639Y0125856D03*
X0108039Y0124356D03*
X0112639Y0114656D03*
X0114039Y0114256D03*
X0115039Y0114556D03*
D24*
X0115039Y0117306D03*
X0112639Y0117306D03*
X0104158Y0177985D03*
D25*
X0106858Y0185535D03*
X0106958Y0185535D03*
X0107058Y0185535D03*
X0107158Y0185535D03*
X0107258Y0185535D03*
X0107358Y0185535D03*
X0107458Y0185535D03*
X0107558Y0185535D03*
X0107658Y0185535D03*
X0107758Y0185535D03*
X0107858Y0185535D03*
X0107958Y0185535D03*
X0108058Y0185535D03*
X0108158Y0185535D03*
X0108258Y0185535D03*
X0108358Y0185535D03*
X0108458Y0185535D03*
X0108558Y0185535D03*
X0108658Y0185535D03*
X0108758Y0185535D03*
X0108858Y0185535D03*
X0108958Y0185535D03*
X0109058Y0185535D03*
X0109158Y0185535D03*
X0109258Y0185535D03*
X0109358Y0185535D03*
X0109458Y0185535D03*
X0109558Y0185535D03*
X0109658Y0185535D03*
X0109758Y0185535D03*
X0109858Y0185535D03*
X0109958Y0185535D03*
X0110058Y0185535D03*
X0110158Y0185535D03*
X0110258Y0185535D03*
X0110358Y0185535D03*
X0110458Y0185535D03*
X0110558Y0185535D03*
X0110658Y0185535D03*
X0110758Y0185535D03*
X0110858Y0185535D03*
X0110958Y0185535D03*
X0111058Y0185535D03*
X0111158Y0185535D03*
X0111258Y0185535D03*
X0111358Y0185535D03*
X0111458Y0185535D03*
X0111558Y0185535D03*
X0111658Y0185535D03*
X0111758Y0185535D03*
X0111858Y0185535D03*
X0111958Y0185535D03*
X0112058Y0185535D03*
X0112158Y0185535D03*
X0112258Y0185535D03*
X0112358Y0185535D03*
X0112458Y0185535D03*
X0112558Y0185535D03*
X0112658Y0185535D03*
X0112758Y0185535D03*
X0112858Y0185535D03*
X0112958Y0185535D03*
X0113058Y0185535D03*
X0113158Y0185535D03*
X0113258Y0185535D03*
X0113358Y0185535D03*
X0113458Y0185535D03*
X0113558Y0185535D03*
X0113658Y0185535D03*
X0113758Y0185535D03*
X0113858Y0185535D03*
X0113958Y0185535D03*
X0114058Y0185535D03*
X0114158Y0185535D03*
X0114258Y0185535D03*
X0114358Y0185535D03*
X0114458Y0185535D03*
X0114558Y0185535D03*
X0114658Y0185535D03*
X0114758Y0185535D03*
X0114858Y0185535D03*
X0114958Y0185535D03*
X0115058Y0185535D03*
X0112258Y0202535D03*
X0112158Y0202535D03*
X0112058Y0202535D03*
X0111958Y0202535D03*
X0111858Y0202535D03*
X0111758Y0202535D03*
X0111658Y0202535D03*
X0111558Y0202535D03*
X0111458Y0202535D03*
X0111358Y0202535D03*
X0111258Y0202535D03*
X0111158Y0202535D03*
X0111058Y0202535D03*
X0110958Y0202535D03*
X0110858Y0202535D03*
X0110758Y0202535D03*
X0110658Y0202535D03*
X0110558Y0202535D03*
X0110458Y0202535D03*
X0110358Y0202535D03*
X0110258Y0202535D03*
X0110158Y0202535D03*
X0110058Y0202535D03*
X0109958Y0202535D03*
X0109858Y0202535D03*
X0109758Y0202535D03*
X0109658Y0202535D03*
X0109558Y0202535D03*
X0109458Y0202535D03*
X0109358Y0202535D03*
X0109258Y0202535D03*
X0109158Y0202535D03*
X0109058Y0202535D03*
X0108958Y0202535D03*
X0108858Y0202535D03*
X0108758Y0202535D03*
X0108658Y0202535D03*
X0108558Y0202535D03*
X0108458Y0202535D03*
X0108358Y0202535D03*
X0108258Y0202535D03*
X0108158Y0202535D03*
X0108058Y0202535D03*
X0107958Y0202535D03*
X0107858Y0202535D03*
X0107758Y0202535D03*
X0107658Y0202535D03*
X0107558Y0202535D03*
X0107458Y0202535D03*
X0107358Y0202535D03*
X0107258Y0202535D03*
X0107158Y0202535D03*
X0107058Y0202535D03*
X0106958Y0202535D03*
X0106858Y0202535D03*
X0106758Y0202535D03*
X0106658Y0202535D03*
X0106558Y0202535D03*
X0106458Y0202535D03*
X0106358Y0202535D03*
X0106258Y0202535D03*
X0106158Y0202535D03*
X0106058Y0202535D03*
X0105958Y0202535D03*
X0105858Y0202535D03*
X0105758Y0202535D03*
X0105658Y0202535D03*
X0105558Y0202535D03*
X0105458Y0202535D03*
X0105358Y0202535D03*
X0105258Y0202535D03*
X0105158Y0202535D03*
X0105058Y0202535D03*
X0104958Y0202535D03*
X0104858Y0202535D03*
X0104758Y0202535D03*
X0104658Y0202535D03*
X0104558Y0202535D03*
X0104458Y0202535D03*
X0104358Y0202535D03*
X0104258Y0202535D03*
X0104158Y0202535D03*
X0104058Y0202535D03*
X0103958Y0202535D03*
X0103858Y0202535D03*
X0103758Y0194035D03*
X0103658Y0194035D03*
X0103558Y0194035D03*
X0103458Y0194035D03*
X0103358Y0194035D03*
X0103258Y0194035D03*
X0103158Y0194035D03*
X0103058Y0194035D03*
X0102958Y0194035D03*
X0102858Y0194035D03*
X0102758Y0194035D03*
X0102658Y0194035D03*
X0102558Y0194035D03*
X0102458Y0194035D03*
X0102358Y0194035D03*
X0102258Y0194035D03*
X0102158Y0194035D03*
X0102058Y0194035D03*
X0101958Y0194035D03*
X0101858Y0194035D03*
X0101758Y0194035D03*
X0101658Y0194035D03*
X0101558Y0194035D03*
X0101458Y0194035D03*
X0101358Y0194035D03*
X0101258Y0194035D03*
X0101158Y0194035D03*
X0101058Y0194035D03*
X0100958Y0194035D03*
X0100858Y0194035D03*
X0100758Y0194035D03*
X0100658Y0194035D03*
X0100558Y0194035D03*
X0100458Y0194035D03*
X0100358Y0194035D03*
X0100258Y0194035D03*
X0100158Y0194035D03*
X0100058Y0194035D03*
X0099958Y0194035D03*
X0099858Y0194035D03*
X0099758Y0194035D03*
X0099658Y0194035D03*
X0099558Y0194035D03*
X0099458Y0194035D03*
X0099358Y0194035D03*
X0099258Y0194035D03*
X0099158Y0194035D03*
X0099058Y0194035D03*
X0098958Y0194035D03*
X0098858Y0194035D03*
X0098758Y0194035D03*
X0098658Y0194035D03*
X0098558Y0194035D03*
X0098458Y0194035D03*
X0098358Y0194035D03*
X0100939Y0157264D03*
X0100939Y0140256D03*
X0109539Y0148756D03*
X0109639Y0148756D03*
X0109739Y0148756D03*
X0109839Y0148756D03*
X0109939Y0148756D03*
X0110039Y0148756D03*
X0110139Y0148756D03*
X0110239Y0148756D03*
X0110339Y0148756D03*
X0110439Y0148756D03*
X0110539Y0148756D03*
X0110639Y0148756D03*
X0110739Y0148756D03*
X0110839Y0148756D03*
X0110939Y0148756D03*
X0111039Y0148756D03*
X0111139Y0148756D03*
X0111239Y0148756D03*
X0111339Y0148756D03*
X0111439Y0148756D03*
X0111539Y0148756D03*
X0111639Y0148756D03*
X0111739Y0148756D03*
X0111839Y0148756D03*
X0111939Y0148756D03*
X0112039Y0148756D03*
X0112139Y0148756D03*
X0112239Y0148756D03*
D26*
X0108458Y0179185D03*
X0108358Y0179185D03*
X0104458Y0179185D03*
X0104358Y0179185D03*
X0104358Y0219185D03*
X0104458Y0219185D03*
X0104558Y0219185D03*
X0104658Y0219185D03*
X0104758Y0219185D03*
X0104858Y0219185D03*
X0104958Y0219185D03*
X0105058Y0219185D03*
X0105158Y0219185D03*
X0105258Y0219185D03*
X0105358Y0219185D03*
X0105458Y0219185D03*
X0105558Y0219185D03*
X0105658Y0219185D03*
X0105758Y0219185D03*
X0105858Y0219185D03*
X0105958Y0219185D03*
X0106058Y0219185D03*
X0106158Y0219185D03*
X0106258Y0219185D03*
X0106358Y0219185D03*
X0106458Y0219185D03*
X0106558Y0219185D03*
X0106658Y0219185D03*
X0106758Y0219185D03*
X0106858Y0219185D03*
X0106958Y0219185D03*
X0107058Y0219185D03*
X0107158Y0219185D03*
X0107258Y0219185D03*
X0107358Y0219185D03*
X0107458Y0219185D03*
X0107558Y0219185D03*
X0107658Y0219185D03*
X0107758Y0219185D03*
X0107858Y0219185D03*
X0107958Y0219185D03*
X0108058Y0219185D03*
X0108158Y0219185D03*
X0108258Y0219185D03*
X0108358Y0219185D03*
X0108458Y0219185D03*
X0108558Y0219185D03*
X0108658Y0219185D03*
X0108758Y0219185D03*
X0108858Y0219185D03*
X0108958Y0219185D03*
X0109058Y0219185D03*
X0109158Y0219185D03*
X0109258Y0219185D03*
X0109358Y0219185D03*
X0109458Y0219185D03*
X0109558Y0219185D03*
X0109658Y0219185D03*
X0109758Y0219185D03*
X0109858Y0219185D03*
X0109958Y0219185D03*
X0110058Y0219185D03*
X0110158Y0219185D03*
X0110258Y0219185D03*
X0110358Y0219185D03*
X0110458Y0219185D03*
X0110558Y0219185D03*
X0110658Y0219185D03*
X0110758Y0219185D03*
X0110858Y0219185D03*
X0110958Y0219185D03*
X0111058Y0219185D03*
X0111158Y0219185D03*
X0111258Y0219185D03*
X0111358Y0219185D03*
X0111458Y0219185D03*
X0111558Y0219185D03*
X0111658Y0219185D03*
X0111758Y0219185D03*
X0111858Y0219185D03*
X0111958Y0219185D03*
X0112058Y0219185D03*
X0112158Y0219185D03*
X0112258Y0219185D03*
X0112358Y0219185D03*
X0112458Y0219185D03*
X0112558Y0219185D03*
X0112658Y0219185D03*
X0112758Y0219185D03*
X0112858Y0219185D03*
X0112958Y0219185D03*
X0113058Y0219185D03*
X0113158Y0219185D03*
X0113258Y0219185D03*
X0113358Y0219185D03*
X0113458Y0219185D03*
X0113558Y0219185D03*
X0113658Y0219185D03*
X0113758Y0219185D03*
X0113858Y0219185D03*
X0113958Y0219185D03*
X0114058Y0219185D03*
X0114158Y0219185D03*
X0114258Y0219185D03*
X0114358Y0219185D03*
X0114458Y0219185D03*
X0114558Y0219185D03*
X0114658Y0219185D03*
X0114758Y0219185D03*
X0114858Y0219185D03*
X0114958Y0219185D03*
X0115058Y0219185D03*
X0115058Y0232885D03*
X0114958Y0232885D03*
X0114858Y0232885D03*
X0114758Y0232885D03*
X0114658Y0232885D03*
X0114558Y0232885D03*
X0114458Y0232885D03*
X0114358Y0232885D03*
X0114258Y0232885D03*
X0114158Y0232885D03*
X0114058Y0232885D03*
X0113958Y0232885D03*
X0113858Y0232885D03*
X0113758Y0232885D03*
X0113658Y0232885D03*
X0113558Y0232885D03*
X0113458Y0232885D03*
X0113358Y0232885D03*
X0113258Y0232885D03*
X0113158Y0232885D03*
X0113058Y0232885D03*
X0112958Y0232885D03*
X0112858Y0232885D03*
X0112758Y0232885D03*
X0112658Y0232885D03*
X0112558Y0232885D03*
X0112458Y0232885D03*
X0112358Y0232885D03*
X0112258Y0232885D03*
X0112158Y0232885D03*
X0112058Y0232885D03*
X0111958Y0232885D03*
X0111858Y0232885D03*
X0111758Y0232885D03*
X0111658Y0232885D03*
X0111558Y0232885D03*
X0111458Y0232885D03*
X0111358Y0232885D03*
X0111258Y0232885D03*
X0111158Y0232885D03*
X0111058Y0232885D03*
X0110958Y0232885D03*
X0110858Y0232885D03*
X0110758Y0232885D03*
X0110658Y0232885D03*
X0110558Y0232885D03*
X0110458Y0232885D03*
X0110358Y0232885D03*
X0110258Y0232885D03*
X0110158Y0232885D03*
X0110058Y0232885D03*
X0109958Y0232885D03*
X0109858Y0232885D03*
X0109758Y0232885D03*
X0109658Y0232885D03*
X0109558Y0232885D03*
X0109458Y0232885D03*
X0109358Y0232885D03*
X0109258Y0232885D03*
X0109158Y0232885D03*
X0109058Y0232885D03*
X0108958Y0232885D03*
X0108858Y0232885D03*
X0108758Y0232885D03*
X0108658Y0232885D03*
X0108558Y0232885D03*
X0108458Y0232885D03*
X0108358Y0232885D03*
X0108258Y0232885D03*
X0108158Y0232885D03*
X0108058Y0232885D03*
X0107958Y0232885D03*
X0107858Y0232885D03*
X0107758Y0232885D03*
X0107658Y0232885D03*
X0107558Y0232885D03*
X0107458Y0232885D03*
X0107358Y0232885D03*
X0107258Y0232885D03*
X0107158Y0232885D03*
X0107058Y0232885D03*
X0106958Y0232885D03*
X0106858Y0232885D03*
X0106758Y0232885D03*
X0106658Y0232885D03*
X0106558Y0232885D03*
X0106458Y0232885D03*
X0106358Y0232885D03*
X0106258Y0232885D03*
X0106158Y0232885D03*
X0106058Y0232885D03*
X0105958Y0232885D03*
X0105858Y0232885D03*
X0105758Y0232885D03*
X0105658Y0232885D03*
X0105558Y0232885D03*
X0105458Y0232885D03*
X0105358Y0232885D03*
X0105258Y0232885D03*
X0105158Y0232885D03*
X0105058Y0232885D03*
X0104958Y0232885D03*
X0104858Y0232885D03*
X0104758Y0232885D03*
X0104658Y0232885D03*
X0104558Y0232885D03*
X0104458Y0232885D03*
X0104358Y0232885D03*
X0104258Y0232885D03*
X0104158Y0232885D03*
X0104058Y0232885D03*
X0103958Y0232885D03*
X0103858Y0232885D03*
X0103758Y0232885D03*
X0103658Y0232885D03*
X0103558Y0232885D03*
X0103458Y0232885D03*
X0103358Y0232885D03*
X0103258Y0232885D03*
X0103158Y0232885D03*
X0103058Y0232885D03*
X0102958Y0232885D03*
X0102858Y0232885D03*
X0102758Y0232885D03*
X0102658Y0232885D03*
X0102558Y0232885D03*
X0102458Y0232885D03*
X0102358Y0232885D03*
X0102258Y0232885D03*
X0102158Y0232885D03*
X0102058Y0232885D03*
X0101958Y0232885D03*
X0101858Y0232885D03*
X0101758Y0232885D03*
X0101658Y0232885D03*
X0101558Y0232885D03*
X0101458Y0232885D03*
X0101358Y0232885D03*
X0101258Y0232885D03*
X0101158Y0232885D03*
X0101058Y0232885D03*
X0100958Y0232885D03*
X0100858Y0232885D03*
X0100758Y0232885D03*
X0100658Y0232885D03*
X0100558Y0232885D03*
X0100458Y0232885D03*
X0100358Y0232885D03*
X0100258Y0232885D03*
X0100158Y0232885D03*
X0100058Y0232885D03*
X0099958Y0232885D03*
X0099858Y0232885D03*
X0099758Y0232885D03*
X0099658Y0232885D03*
X0099558Y0232885D03*
X0099458Y0232885D03*
X0099358Y0232885D03*
X0099258Y0232885D03*
X0099158Y0232885D03*
X0099058Y0232885D03*
X0098958Y0232885D03*
X0098858Y0232885D03*
X0098758Y0232885D03*
X0098658Y0232885D03*
X0098558Y0232885D03*
X0098458Y0232885D03*
X0098358Y0232885D03*
X0098258Y0232885D03*
X0098158Y0232885D03*
X0098058Y0232885D03*
X0097958Y0232885D03*
X0097858Y0232885D03*
X0097758Y0232885D03*
X0097658Y0232885D03*
X0097558Y0232885D03*
X0097458Y0232885D03*
X0097358Y0232885D03*
X0097258Y0232885D03*
X0097158Y0232885D03*
X0097058Y0232885D03*
X0096958Y0232885D03*
X0096858Y0232885D03*
X0096758Y0232885D03*
X0096658Y0232885D03*
X0096558Y0232885D03*
X0096458Y0232885D03*
X0096358Y0232885D03*
X0096258Y0232885D03*
X0096158Y0232885D03*
X0096058Y0232885D03*
X0095958Y0232885D03*
X0095858Y0232885D03*
X0095758Y0232885D03*
X0095658Y0232885D03*
X0095558Y0232885D03*
X0095458Y0232885D03*
X0095458Y0239685D03*
X0095558Y0239685D03*
X0095658Y0239685D03*
X0095758Y0239685D03*
X0095858Y0239685D03*
X0095958Y0239685D03*
X0096058Y0239685D03*
X0096158Y0239685D03*
X0096258Y0239685D03*
X0096358Y0239685D03*
X0096458Y0239685D03*
X0096558Y0239685D03*
X0096658Y0239685D03*
X0096758Y0239685D03*
X0096858Y0239685D03*
X0096958Y0239685D03*
X0097058Y0239685D03*
X0097158Y0239685D03*
X0097258Y0239685D03*
X0097358Y0239685D03*
X0097458Y0239685D03*
X0097558Y0239685D03*
X0097658Y0239685D03*
X0097758Y0239685D03*
X0097858Y0239685D03*
X0097958Y0239685D03*
X0098058Y0239685D03*
X0098158Y0239685D03*
X0098258Y0239685D03*
X0098358Y0239685D03*
X0098458Y0239685D03*
X0098558Y0239685D03*
X0098658Y0239685D03*
X0098758Y0239685D03*
X0098858Y0239685D03*
X0098958Y0239685D03*
X0099058Y0239685D03*
X0099158Y0239685D03*
X0099258Y0239685D03*
X0099358Y0239685D03*
X0099458Y0239685D03*
X0099558Y0239685D03*
X0099658Y0239685D03*
X0099758Y0239685D03*
X0099858Y0239685D03*
X0099958Y0239685D03*
X0100058Y0239685D03*
X0100158Y0239685D03*
X0100258Y0239685D03*
X0100358Y0239685D03*
X0100458Y0239685D03*
X0100558Y0239685D03*
X0100658Y0239685D03*
X0100758Y0239685D03*
X0100858Y0239685D03*
X0100958Y0239685D03*
X0101058Y0239685D03*
X0101158Y0239685D03*
X0101258Y0239685D03*
X0101358Y0239685D03*
X0101458Y0239685D03*
X0101558Y0239685D03*
X0101658Y0239685D03*
X0101758Y0239685D03*
X0101858Y0239685D03*
X0101958Y0239685D03*
X0102058Y0239685D03*
X0102158Y0239685D03*
X0102258Y0239685D03*
X0102358Y0239685D03*
X0102458Y0239685D03*
X0102558Y0239685D03*
X0102658Y0239685D03*
X0102758Y0239685D03*
X0102858Y0239685D03*
X0102958Y0239685D03*
X0103058Y0239685D03*
X0103158Y0239685D03*
X0103258Y0239685D03*
X0103358Y0239685D03*
X0103458Y0239685D03*
X0103558Y0239685D03*
X0103658Y0239685D03*
X0103758Y0239685D03*
X0103858Y0239685D03*
X0103958Y0239685D03*
X0104058Y0239685D03*
X0104158Y0239685D03*
X0104258Y0239685D03*
X0104358Y0239685D03*
X0104458Y0239685D03*
X0104558Y0239685D03*
X0104658Y0239685D03*
X0104758Y0239685D03*
X0104858Y0239685D03*
X0104958Y0239685D03*
X0105058Y0239685D03*
X0105158Y0239685D03*
X0105258Y0239685D03*
X0105358Y0239685D03*
X0105458Y0239685D03*
X0105558Y0239685D03*
X0105658Y0239685D03*
X0105758Y0239685D03*
X0105858Y0239685D03*
X0105958Y0239685D03*
X0106058Y0239685D03*
X0106158Y0239685D03*
X0106258Y0239685D03*
X0106358Y0239685D03*
X0106458Y0239685D03*
X0106558Y0239685D03*
X0106658Y0239685D03*
X0106758Y0239685D03*
X0106858Y0239685D03*
X0106958Y0239685D03*
X0107058Y0239685D03*
X0107158Y0239685D03*
X0107258Y0239685D03*
X0107358Y0239685D03*
X0107458Y0239685D03*
X0107558Y0239685D03*
X0107658Y0239685D03*
X0107758Y0239685D03*
X0107858Y0239685D03*
X0107958Y0239685D03*
X0108058Y0239685D03*
X0108158Y0239685D03*
X0108258Y0239685D03*
X0108358Y0239685D03*
X0108458Y0239685D03*
X0108558Y0239685D03*
X0108658Y0239685D03*
X0108658Y0246485D03*
X0108758Y0246485D03*
X0108858Y0246485D03*
X0108958Y0246485D03*
X0109058Y0246485D03*
X0109158Y0246485D03*
X0109258Y0246485D03*
X0109358Y0246485D03*
X0109458Y0246485D03*
X0109558Y0246485D03*
X0109658Y0246485D03*
X0109758Y0246485D03*
X0109858Y0246485D03*
X0109958Y0246485D03*
X0110058Y0246485D03*
X0110158Y0246485D03*
X0110258Y0246485D03*
X0110358Y0246485D03*
X0110458Y0246485D03*
X0110558Y0246485D03*
X0110658Y0246485D03*
X0110758Y0246485D03*
X0110858Y0246485D03*
X0110958Y0246485D03*
X0111058Y0246485D03*
X0111158Y0246485D03*
X0111258Y0246485D03*
X0111358Y0246485D03*
X0111458Y0246485D03*
X0111558Y0246485D03*
X0111658Y0246485D03*
X0111758Y0246485D03*
X0111858Y0246485D03*
X0111958Y0246485D03*
X0112058Y0246485D03*
X0112158Y0246485D03*
X0112258Y0246485D03*
X0112358Y0246485D03*
X0112458Y0246485D03*
X0112558Y0246485D03*
X0112658Y0246485D03*
X0112758Y0246485D03*
X0112858Y0246485D03*
X0112958Y0246485D03*
X0113058Y0246485D03*
X0113158Y0246485D03*
X0113258Y0246485D03*
X0113358Y0246485D03*
X0113458Y0246485D03*
X0113558Y0246485D03*
X0113658Y0246485D03*
X0113758Y0246485D03*
X0113858Y0246485D03*
X0113958Y0246485D03*
X0114058Y0246485D03*
X0114158Y0246485D03*
X0114258Y0246485D03*
X0114358Y0246485D03*
X0114458Y0246485D03*
X0114558Y0246485D03*
X0114658Y0246485D03*
X0114758Y0246485D03*
X0114858Y0246485D03*
X0114958Y0246485D03*
X0108558Y0246485D03*
X0108458Y0246485D03*
X0108358Y0246485D03*
X0108258Y0246485D03*
X0108158Y0246485D03*
X0108058Y0246485D03*
X0107958Y0246485D03*
X0107858Y0246485D03*
X0107758Y0246485D03*
X0107658Y0246485D03*
X0107558Y0246485D03*
X0107458Y0246485D03*
X0107358Y0246485D03*
X0107258Y0246485D03*
X0107158Y0246485D03*
X0107058Y0246485D03*
X0106958Y0246485D03*
X0106858Y0246485D03*
X0106758Y0246485D03*
X0106658Y0246485D03*
X0106558Y0246485D03*
X0106458Y0246485D03*
X0106358Y0246485D03*
X0106258Y0246485D03*
X0106158Y0246485D03*
X0106058Y0246485D03*
X0105958Y0246485D03*
X0105858Y0246485D03*
X0105758Y0246485D03*
X0105658Y0246485D03*
X0105558Y0246485D03*
X0105458Y0246485D03*
X0105358Y0246485D03*
X0105258Y0246485D03*
X0105158Y0246485D03*
X0105058Y0246485D03*
X0104958Y0246485D03*
X0104858Y0246485D03*
X0104758Y0246485D03*
X0104658Y0246485D03*
X0104558Y0246485D03*
X0104458Y0246485D03*
X0104358Y0246485D03*
X0104258Y0246485D03*
X0104158Y0246485D03*
X0104058Y0246485D03*
X0103958Y0246485D03*
X0103858Y0246485D03*
X0103758Y0246485D03*
X0103658Y0246485D03*
X0103558Y0246485D03*
X0103458Y0246485D03*
X0103358Y0246485D03*
X0103258Y0246485D03*
X0103158Y0246485D03*
X0103058Y0246485D03*
X0102958Y0246485D03*
X0102858Y0246485D03*
X0102758Y0246485D03*
X0102658Y0246485D03*
X0102558Y0246485D03*
X0102458Y0246485D03*
X0102358Y0246485D03*
X0102258Y0246485D03*
X0102158Y0246485D03*
X0102058Y0246485D03*
X0101958Y0246485D03*
X0101858Y0246485D03*
X0101758Y0246485D03*
X0101658Y0246485D03*
X0101558Y0246485D03*
X0101458Y0246485D03*
X0101358Y0246485D03*
X0101258Y0246485D03*
X0101158Y0246485D03*
X0101058Y0246485D03*
X0100958Y0246485D03*
X0100858Y0246485D03*
X0100758Y0246485D03*
X0100658Y0246485D03*
X0100558Y0246485D03*
X0100458Y0246485D03*
X0100358Y0246485D03*
X0100258Y0246485D03*
X0100158Y0246485D03*
X0100058Y0246485D03*
X0099958Y0246485D03*
X0099858Y0246485D03*
X0099758Y0246485D03*
X0099658Y0246485D03*
X0099558Y0246485D03*
X0099458Y0246485D03*
X0099358Y0246485D03*
X0099258Y0246485D03*
X0099158Y0246485D03*
X0099058Y0246485D03*
X0098958Y0246485D03*
X0098858Y0246485D03*
X0098758Y0246485D03*
X0098658Y0246485D03*
X0098558Y0246485D03*
X0098458Y0246485D03*
X0098358Y0246485D03*
X0098258Y0246485D03*
X0098158Y0246485D03*
X0098058Y0246485D03*
X0097958Y0246485D03*
X0097858Y0246485D03*
X0097758Y0246485D03*
X0097658Y0246485D03*
X0097558Y0246485D03*
X0097458Y0246485D03*
X0097358Y0246485D03*
X0097258Y0246485D03*
X0097158Y0246485D03*
X0097058Y0246485D03*
X0096958Y0246485D03*
X0096858Y0246485D03*
X0096758Y0246485D03*
X0096658Y0246485D03*
X0096558Y0246485D03*
X0096458Y0246485D03*
X0096358Y0246485D03*
X0096258Y0246485D03*
X0096158Y0246485D03*
X0096058Y0246485D03*
X0095958Y0246485D03*
X0095858Y0246485D03*
X0095758Y0246485D03*
X0095658Y0246485D03*
X0095558Y0246485D03*
X0095458Y0246485D03*
X0095358Y0239685D03*
X0099158Y0226085D03*
X0101758Y0219185D03*
X0101858Y0219185D03*
X0101958Y0219185D03*
X0102058Y0219185D03*
X0102158Y0219185D03*
X0102258Y0219185D03*
X0102358Y0219185D03*
X0102458Y0219185D03*
X0102558Y0219185D03*
X0102658Y0219185D03*
X0102758Y0219185D03*
X0102858Y0219185D03*
X0102958Y0219185D03*
X0103058Y0219185D03*
X0103158Y0219185D03*
X0103258Y0219185D03*
X0103358Y0219185D03*
X0103458Y0219185D03*
X0103558Y0219185D03*
X0103658Y0219185D03*
X0103758Y0219185D03*
X0103858Y0219185D03*
X0103958Y0219185D03*
X0104058Y0219185D03*
X0104158Y0219185D03*
X0104258Y0219185D03*
D27*
X0104258Y0226135D03*
X0104358Y0226135D03*
X0104458Y0226135D03*
X0104558Y0226135D03*
X0104658Y0226135D03*
X0104758Y0226135D03*
X0104858Y0226135D03*
X0104958Y0226135D03*
X0105058Y0226135D03*
X0105158Y0226135D03*
X0105258Y0226135D03*
X0105358Y0226135D03*
X0105458Y0226135D03*
X0105558Y0226135D03*
X0105658Y0226135D03*
X0105758Y0226135D03*
X0105858Y0226135D03*
X0105958Y0226135D03*
X0106058Y0226135D03*
X0106158Y0226135D03*
X0106258Y0226135D03*
X0106358Y0226135D03*
X0106458Y0226135D03*
X0106558Y0226135D03*
X0106658Y0226135D03*
X0106758Y0226135D03*
X0106858Y0226135D03*
X0106958Y0226135D03*
X0107058Y0226135D03*
X0107158Y0226135D03*
X0107258Y0226135D03*
X0107358Y0226135D03*
X0107458Y0226135D03*
X0107558Y0226135D03*
X0107658Y0226135D03*
X0107758Y0226135D03*
X0107858Y0226135D03*
X0107958Y0226135D03*
X0108058Y0226135D03*
X0108158Y0226135D03*
X0108258Y0226135D03*
X0108358Y0226135D03*
X0108458Y0226135D03*
X0108558Y0226135D03*
X0108658Y0226135D03*
X0108758Y0226135D03*
X0108858Y0226135D03*
X0108958Y0226135D03*
X0109058Y0226135D03*
X0109158Y0226135D03*
X0109258Y0226135D03*
X0109358Y0226135D03*
X0109458Y0226135D03*
X0109558Y0226135D03*
X0109658Y0226135D03*
X0109758Y0226135D03*
X0109858Y0226135D03*
X0109958Y0226135D03*
X0110058Y0226135D03*
X0110158Y0226135D03*
X0110258Y0226135D03*
X0110358Y0226135D03*
X0110458Y0226135D03*
X0110558Y0226135D03*
X0110658Y0226135D03*
X0110758Y0226135D03*
X0110858Y0226135D03*
X0110958Y0226135D03*
X0111058Y0226135D03*
X0111158Y0226135D03*
X0111258Y0226135D03*
X0111358Y0226135D03*
X0111458Y0226135D03*
X0111558Y0226135D03*
X0111658Y0226135D03*
X0111758Y0226135D03*
X0111858Y0226135D03*
X0111958Y0226135D03*
X0112058Y0226135D03*
X0112158Y0226135D03*
X0112258Y0226135D03*
X0112358Y0226135D03*
X0112458Y0226135D03*
X0112558Y0226135D03*
X0112658Y0226135D03*
X0112758Y0226135D03*
X0112858Y0226135D03*
X0112958Y0226135D03*
X0113058Y0226135D03*
X0113158Y0226135D03*
X0113258Y0226135D03*
X0113358Y0226135D03*
X0113458Y0226135D03*
X0113558Y0226135D03*
X0113658Y0226135D03*
X0113758Y0226135D03*
X0113858Y0226135D03*
X0113958Y0226135D03*
X0114058Y0226135D03*
X0114158Y0226135D03*
X0114258Y0226135D03*
X0114358Y0226135D03*
X0114458Y0226135D03*
X0114558Y0226135D03*
X0114658Y0226135D03*
X0114758Y0226135D03*
X0114858Y0226135D03*
X0114958Y0226135D03*
X0115058Y0226135D03*
X0108758Y0239735D03*
X0115058Y0246535D03*
X0104158Y0226135D03*
X0104058Y0226135D03*
X0103958Y0226135D03*
X0103858Y0226135D03*
X0103758Y0226135D03*
X0103658Y0226135D03*
X0103558Y0226135D03*
X0103458Y0226135D03*
X0103358Y0226135D03*
X0103258Y0226135D03*
X0103158Y0226135D03*
X0103058Y0226135D03*
X0102958Y0226135D03*
X0102858Y0226135D03*
X0102758Y0226135D03*
X0102658Y0226135D03*
X0102558Y0226135D03*
X0102458Y0226135D03*
X0102358Y0226135D03*
X0102258Y0226135D03*
X0102158Y0226135D03*
X0102058Y0226135D03*
X0101958Y0226135D03*
X0101858Y0226135D03*
X0101758Y0226135D03*
X0099058Y0226135D03*
X0098958Y0226135D03*
X0098858Y0226135D03*
X0098758Y0226135D03*
X0098658Y0226135D03*
X0098558Y0226135D03*
X0098458Y0226135D03*
X0098358Y0226135D03*
X0098258Y0226135D03*
X0098158Y0226135D03*
X0098058Y0226135D03*
X0097958Y0226135D03*
X0097858Y0226135D03*
X0097758Y0226135D03*
X0097658Y0226135D03*
X0097558Y0226135D03*
X0097458Y0226135D03*
X0097358Y0226135D03*
X0097258Y0226135D03*
X0097158Y0226135D03*
X0097058Y0226135D03*
X0096958Y0226135D03*
X0096858Y0226135D03*
X0096758Y0226135D03*
X0096658Y0226135D03*
X0096558Y0226135D03*
X0096458Y0226135D03*
X0096358Y0226135D03*
X0096258Y0226135D03*
X0096158Y0226135D03*
X0096058Y0226135D03*
X0095958Y0226135D03*
X0095858Y0226135D03*
X0095758Y0226135D03*
X0095658Y0226135D03*
X0095558Y0226135D03*
X0095458Y0226135D03*
X0095358Y0226135D03*
X0095358Y0232935D03*
X0095358Y0246535D03*
X0104258Y0179235D03*
X0108258Y0179235D03*
X0108339Y0128056D03*
X0108439Y0128056D03*
X0112939Y0122256D03*
X0113039Y0122256D03*
D28*
X0112739Y0125906D03*
X0109039Y0124106D03*
X0112739Y0114606D03*
X0113639Y0114706D03*
X0113939Y0114406D03*
X0114939Y0114606D03*
X0114839Y0117306D03*
X0109058Y0167985D03*
X0108158Y0168185D03*
X0112758Y0178685D03*
D29*
X0110358Y0175385D03*
X0108058Y0168185D03*
X0114939Y0117306D03*
X0113539Y0114906D03*
D30*
X0110239Y0124356D03*
X0110139Y0124356D03*
X0108339Y0121556D03*
X0108239Y0121556D03*
X0112839Y0128856D03*
X0112939Y0128856D03*
X0114739Y0125956D03*
X0114839Y0134556D03*
X0112839Y0134556D03*
X0110139Y0131756D03*
X0110039Y0131756D03*
X0108239Y0134756D03*
X0108139Y0134756D03*
X0110158Y0168235D03*
X0110258Y0168235D03*
X0110258Y0172335D03*
X0110158Y0172335D03*
X0108258Y0172335D03*
X0112758Y0175935D03*
X0114958Y0175935D03*
X0114858Y0178735D03*
X0114758Y0178735D03*
D31*
X0114958Y0178685D03*
X0113858Y0178685D03*
X0110058Y0175385D03*
X0108158Y0172285D03*
X0109258Y0168185D03*
X0104158Y0180085D03*
X0112739Y0134506D03*
X0110239Y0131706D03*
X0109239Y0124306D03*
X0114839Y0125906D03*
X0114639Y0117306D03*
D32*
X0114739Y0117306D03*
X0114839Y0114606D03*
X0112939Y0114606D03*
X0112939Y0117306D03*
X0109139Y0124206D03*
X0112839Y0125906D03*
X0112939Y0125906D03*
X0109158Y0168085D03*
X0110158Y0175385D03*
X0108358Y0175485D03*
X0113758Y0178585D03*
D33*
X0112958Y0175885D03*
X0112858Y0175885D03*
X0114758Y0175885D03*
X0114858Y0175885D03*
X0110058Y0172385D03*
X0109958Y0172385D03*
X0108458Y0172385D03*
X0108358Y0172385D03*
X0108339Y0134706D03*
X0108439Y0134706D03*
X0109939Y0131806D03*
X0112939Y0134606D03*
X0113039Y0134606D03*
X0114639Y0134606D03*
X0114739Y0134606D03*
X0113039Y0128806D03*
X0108439Y0121506D03*
D34*
X0108339Y0124356D03*
X0113039Y0117356D03*
X0114739Y0114556D03*
X0113839Y0125856D03*
X0108358Y0168235D03*
X0112958Y0178735D03*
D35*
X0113058Y0175835D03*
X0114658Y0175835D03*
X0108958Y0175435D03*
D36*
X0107858Y0177935D03*
X0110539Y0128056D03*
X0107839Y0126856D03*
X0110539Y0122356D03*
X0107839Y0121156D03*
X0112439Y0117356D03*
X0114139Y0116456D03*
D37*
X0112839Y0117356D03*
X0112839Y0114656D03*
X0113739Y0114656D03*
X0113839Y0114556D03*
X0113739Y0125756D03*
X0108239Y0124356D03*
X0108139Y0124356D03*
X0108258Y0168235D03*
X0108258Y0175435D03*
X0110258Y0175435D03*
X0112858Y0178735D03*
D38*
X0113658Y0178435D03*
X0108158Y0175435D03*
X0113639Y0125656D03*
X0112739Y0117356D03*
D39*
X0112839Y0122306D03*
X0108239Y0128106D03*
X0101658Y0219185D03*
D40*
X0107858Y0179585D03*
X0112458Y0175485D03*
X0112439Y0134906D03*
X0112439Y0128406D03*
X0112439Y0122706D03*
X0112439Y0121106D03*
X0107839Y0128506D03*
X0107839Y0134306D03*
D41*
X0110658Y0172635D03*
D42*
X0106639Y0148756D03*
D43*
X0106658Y0189735D03*
X0098158Y0198235D03*
D44*
X0098158Y0215785D03*
X0098258Y0215785D03*
X0098358Y0215785D03*
X0098458Y0215785D03*
X0098558Y0215785D03*
X0098658Y0215785D03*
X0098758Y0215785D03*
X0098858Y0215785D03*
X0098958Y0215785D03*
X0099058Y0215785D03*
X0099158Y0215785D03*
X0098058Y0215785D03*
X0097958Y0215785D03*
X0097858Y0215785D03*
X0097758Y0215785D03*
X0097658Y0215785D03*
X0097558Y0215785D03*
X0097458Y0215785D03*
X0097358Y0215785D03*
X0097258Y0215785D03*
X0097158Y0215785D03*
X0097058Y0215785D03*
X0096958Y0215785D03*
X0096858Y0215785D03*
X0096758Y0215785D03*
X0096658Y0215785D03*
X0096558Y0215785D03*
X0096458Y0215785D03*
X0096358Y0215785D03*
X0096258Y0215785D03*
X0096158Y0215785D03*
X0096058Y0215785D03*
X0095958Y0215785D03*
X0095858Y0215785D03*
X0095758Y0215785D03*
X0095658Y0215785D03*
X0095558Y0215785D03*
X0095458Y0215785D03*
X0095358Y0215785D03*
D45*
X0098139Y0148706D03*
D46*
X0098039Y0148756D03*
X0097939Y0148756D03*
X0097839Y0148756D03*
X0097739Y0148756D03*
X0097639Y0148756D03*
X0097539Y0148756D03*
X0097439Y0148756D03*
X0097339Y0148756D03*
X0097239Y0148756D03*
X0097139Y0148756D03*
X0097039Y0148756D03*
X0096939Y0148756D03*
X0096839Y0148756D03*
X0096739Y0148756D03*
X0096639Y0148756D03*
X0096539Y0148756D03*
X0096439Y0148756D03*
X0096339Y0148756D03*
X0096239Y0148756D03*
X0096139Y0148756D03*
X0096039Y0148756D03*
X0095939Y0148756D03*
X0095839Y0148756D03*
X0095739Y0148756D03*
X0095639Y0148756D03*
X0095539Y0148756D03*
X0095439Y0148756D03*
D47*
X0095339Y0148706D03*
D48*
X0056132Y0203872D02*
X0054997Y0203872D01*
X0054430Y0204439D01*
X0054430Y0205573D01*
X0055565Y0205573D01*
X0056699Y0206707D02*
X0056699Y0204439D01*
X0056132Y0203872D01*
X0056699Y0206707D02*
X0056132Y0207275D01*
X0054997Y0207275D01*
X0054430Y0206707D01*
X0053016Y0207275D02*
X0053016Y0203872D01*
X0050747Y0203872D02*
X0053016Y0207275D01*
X0050747Y0207275D02*
X0050747Y0203872D01*
X0049333Y0203872D02*
X0049333Y0207275D01*
X0047631Y0207275D01*
X0047064Y0206707D01*
X0047064Y0204439D01*
X0047631Y0203872D01*
X0049333Y0203872D01*
X0043904Y0204439D02*
X0043336Y0203872D01*
X0042202Y0203872D01*
X0041635Y0204439D01*
X0041635Y0205006D01*
X0042202Y0205573D01*
X0043336Y0205573D01*
X0043904Y0206140D01*
X0043904Y0206707D01*
X0043336Y0207275D01*
X0042202Y0207275D01*
X0041635Y0206707D01*
X0040220Y0207275D02*
X0040220Y0203872D01*
X0039086Y0205006D01*
X0037952Y0203872D01*
X0037952Y0207275D01*
X0036537Y0207275D02*
X0036537Y0203872D01*
X0034836Y0203872D01*
X0034269Y0204439D01*
X0034269Y0206707D01*
X0034836Y0207275D01*
X0036537Y0207275D01*
X0035970Y0214698D02*
X0034836Y0214698D01*
X0034269Y0215266D01*
X0035970Y0214698D02*
X0036537Y0215266D01*
X0036537Y0217534D01*
X0035970Y0218101D01*
X0034836Y0218101D01*
X0034269Y0217534D01*
X0032854Y0218101D02*
X0032854Y0214698D01*
X0030586Y0214698D01*
X0029171Y0214698D02*
X0029171Y0218101D01*
X0028604Y0216400D02*
X0026902Y0214698D01*
X0029171Y0215833D02*
X0026902Y0218101D01*
X0028697Y0207275D02*
X0028130Y0206707D01*
X0028130Y0204439D01*
X0028697Y0203872D01*
X0029832Y0203872D01*
X0030399Y0204439D01*
X0030399Y0206707D01*
X0029832Y0207275D01*
X0028697Y0207275D01*
X0031720Y0207275D02*
X0032854Y0207275D01*
X0032287Y0207275D02*
X0032287Y0203872D01*
X0032854Y0203872D02*
X0031720Y0203872D01*
X0037952Y0214698D02*
X0037952Y0218101D01*
X0039086Y0215833D02*
X0037952Y0214698D01*
X0039086Y0215833D02*
X0040220Y0214698D01*
X0040220Y0218101D01*
X0041635Y0217534D02*
X0042202Y0218101D01*
X0043336Y0218101D01*
X0043904Y0217534D01*
X0043904Y0216967D01*
X0043336Y0216400D01*
X0042202Y0216400D01*
X0041635Y0215833D01*
X0041635Y0215266D01*
X0042202Y0214698D01*
X0043336Y0214698D01*
X0043904Y0215266D01*
X0042769Y0227494D02*
X0042769Y0230897D01*
X0041635Y0230897D02*
X0043904Y0230897D01*
X0046080Y0230329D02*
X0046647Y0230897D01*
X0047781Y0230897D01*
X0048348Y0230329D01*
X0048348Y0228061D01*
X0047781Y0227494D01*
X0046647Y0227494D01*
X0046080Y0228061D01*
X0049763Y0228061D02*
X0050330Y0227494D01*
X0051464Y0227494D01*
X0052031Y0228061D01*
X0052031Y0230329D01*
X0051464Y0230897D01*
X0050330Y0230897D01*
X0049763Y0230329D01*
X0053446Y0230897D02*
X0053446Y0228628D01*
X0054580Y0227494D01*
X0055715Y0228628D01*
X0055715Y0230897D01*
X0054997Y0220070D02*
X0054430Y0219503D01*
X0054430Y0218368D01*
X0054997Y0217801D01*
X0056699Y0217801D01*
X0056699Y0216667D02*
X0056699Y0220070D01*
X0054997Y0220070D01*
X0055565Y0217801D02*
X0054430Y0216667D01*
X0053016Y0216667D02*
X0050747Y0220070D01*
X0053016Y0220070D02*
X0050747Y0216667D01*
X0040220Y0227494D02*
X0037952Y0230897D01*
X0040220Y0230897D02*
X0037952Y0227494D01*
X0008386Y0153469D02*
X0006118Y0153469D01*
X0006118Y0151768D01*
X0006685Y0151201D01*
X0008386Y0151201D01*
X0008386Y0149786D02*
X0008386Y0148085D01*
X0007819Y0147518D01*
X0006685Y0147518D01*
X0006118Y0148085D01*
X0006118Y0149786D01*
X0009521Y0149786D01*
X0007819Y0146103D02*
X0007252Y0146103D01*
X0007252Y0143834D01*
X0006685Y0143834D02*
X0007819Y0143834D01*
X0008386Y0144402D01*
X0008386Y0145536D01*
X0007819Y0146103D01*
X0006118Y0145536D02*
X0006118Y0144402D01*
X0006685Y0143834D01*
X0006685Y0142560D02*
X0006118Y0142560D01*
X0006118Y0141993D01*
X0006685Y0141993D01*
X0006685Y0142560D01*
X0006118Y0140672D02*
X0006685Y0140105D01*
X0008953Y0140105D01*
X0008386Y0140672D02*
X0008386Y0139537D01*
X0008386Y0137649D02*
X0006118Y0137649D01*
X0006118Y0137082D02*
X0006118Y0138216D01*
X0008386Y0137649D02*
X0008386Y0137082D01*
X0009521Y0137649D02*
X0010088Y0137649D01*
X0007819Y0135667D02*
X0006118Y0135667D01*
X0006118Y0134533D02*
X0007819Y0134533D01*
X0008386Y0135100D01*
X0007819Y0135667D01*
X0007819Y0134533D02*
X0008386Y0133966D01*
X0008386Y0133399D01*
X0006118Y0133399D01*
X0006118Y0132124D02*
X0006118Y0131557D01*
X0006685Y0131557D01*
X0006685Y0132124D01*
X0006118Y0132124D01*
X0006118Y0130143D02*
X0006118Y0128441D01*
X0006685Y0127874D01*
X0007252Y0128441D01*
X0007252Y0130143D01*
X0007819Y0130143D02*
X0006118Y0130143D01*
X0007819Y0130143D02*
X0008386Y0129576D01*
X0008386Y0128441D01*
X0008386Y0125986D02*
X0006118Y0125986D01*
X0006118Y0125419D02*
X0006118Y0126553D01*
X0008386Y0125986D02*
X0008386Y0125419D01*
X0009521Y0125986D02*
X0010088Y0125986D01*
X0009521Y0124004D02*
X0006118Y0124004D01*
X0006118Y0122303D01*
X0006685Y0121736D01*
X0007819Y0121736D01*
X0008386Y0122303D01*
X0008386Y0124004D01*
X0007819Y0120321D02*
X0007252Y0120321D01*
X0007252Y0118052D01*
X0006685Y0118052D02*
X0007819Y0118052D01*
X0008386Y0118620D01*
X0008386Y0119754D01*
X0007819Y0120321D01*
X0006118Y0119754D02*
X0006118Y0118620D01*
X0006685Y0118052D01*
X0006118Y0116638D02*
X0007819Y0116638D01*
X0008386Y0116071D01*
X0007819Y0115504D01*
X0006118Y0115504D01*
X0006118Y0114369D02*
X0008386Y0114369D01*
X0008386Y0114936D01*
X0007819Y0115504D01*
X0007819Y0112955D02*
X0007252Y0112388D01*
X0008386Y0112388D01*
X0008386Y0111253D01*
X0007252Y0111253D01*
X0007252Y0112388D01*
X0006685Y0112955D02*
X0006118Y0112388D01*
X0006118Y0111253D01*
X0006685Y0110686D01*
X0008953Y0110686D01*
X0009521Y0111253D01*
X0009521Y0112388D01*
X0008953Y0112955D01*
X0007819Y0112955D01*
X0008386Y0109272D02*
X0008386Y0107570D01*
X0007819Y0107003D01*
X0006685Y0107003D01*
X0006118Y0107570D01*
X0006118Y0109272D01*
X0009521Y0109272D01*
X0012118Y0109885D02*
X0012118Y0108184D01*
X0012685Y0107617D01*
X0013819Y0107617D01*
X0014386Y0108184D01*
X0014386Y0109885D01*
X0015521Y0109885D02*
X0012118Y0109885D01*
X0012118Y0111300D02*
X0012118Y0112434D01*
X0012118Y0111867D02*
X0014386Y0111867D01*
X0014386Y0111300D01*
X0015521Y0111867D02*
X0016088Y0111867D01*
X0018118Y0111113D02*
X0021521Y0111113D01*
X0020386Y0109979D01*
X0021521Y0108845D01*
X0018118Y0108845D01*
X0018685Y0103747D02*
X0019252Y0103180D01*
X0019252Y0102045D01*
X0019819Y0101478D01*
X0020386Y0102045D01*
X0020386Y0103747D01*
X0018685Y0103747D02*
X0018118Y0103180D01*
X0018118Y0101478D01*
X0018118Y0100064D02*
X0020386Y0100064D01*
X0020386Y0097795D02*
X0018685Y0097795D01*
X0018118Y0098362D01*
X0018118Y0100064D01*
X0018118Y0096381D02*
X0018118Y0094679D01*
X0018685Y0094112D01*
X0019819Y0094112D01*
X0020386Y0094679D01*
X0020386Y0096381D01*
X0017551Y0096381D01*
X0016983Y0095813D01*
X0016983Y0095246D01*
X0015521Y0095153D02*
X0015521Y0092884D01*
X0015521Y0094019D02*
X0012118Y0094019D01*
X0012118Y0091563D02*
X0012118Y0090429D01*
X0012118Y0090996D02*
X0015521Y0090996D01*
X0015521Y0090429D02*
X0015521Y0091563D01*
X0015521Y0089014D02*
X0014386Y0087880D01*
X0015521Y0086746D01*
X0012118Y0086746D01*
X0012118Y0089014D02*
X0015521Y0089014D01*
X0018118Y0089014D02*
X0020386Y0089014D01*
X0021521Y0087880D01*
X0020386Y0086746D01*
X0018118Y0086746D01*
X0018118Y0090429D02*
X0020386Y0090429D01*
X0020386Y0092130D01*
X0019819Y0092697D01*
X0018118Y0092697D01*
X0019819Y0089014D02*
X0019819Y0086746D01*
X0024118Y0087313D02*
X0024118Y0088447D01*
X0024685Y0089014D01*
X0026953Y0089014D01*
X0027521Y0088447D01*
X0027521Y0087313D01*
X0026953Y0086746D01*
X0024685Y0086746D01*
X0024118Y0087313D01*
X0024118Y0090429D02*
X0026386Y0090429D01*
X0025252Y0090429D02*
X0026386Y0091563D01*
X0026386Y0092130D01*
X0025819Y0093498D02*
X0024685Y0093498D01*
X0024118Y0094065D01*
X0024118Y0095200D01*
X0025252Y0095767D02*
X0025252Y0093498D01*
X0025819Y0093498D02*
X0026386Y0094065D01*
X0026386Y0095200D01*
X0025819Y0095767D01*
X0025252Y0095767D01*
X0024118Y0097181D02*
X0026386Y0097181D01*
X0026386Y0098883D01*
X0025819Y0099450D01*
X0024118Y0099450D01*
X0024118Y0104548D02*
X0024118Y0106816D01*
X0024685Y0108231D02*
X0024118Y0108798D01*
X0024118Y0109932D01*
X0025252Y0110499D02*
X0025252Y0108231D01*
X0024685Y0108231D02*
X0025819Y0108231D01*
X0026386Y0108798D01*
X0026386Y0109932D01*
X0025819Y0110499D01*
X0025252Y0110499D01*
X0024685Y0111914D02*
X0024118Y0112481D01*
X0024118Y0114182D01*
X0027521Y0114182D01*
X0026386Y0114182D02*
X0026386Y0112481D01*
X0025819Y0111914D01*
X0024685Y0111914D01*
X0024685Y0115597D02*
X0024118Y0116164D01*
X0024118Y0117298D01*
X0025252Y0117866D02*
X0025252Y0115597D01*
X0024685Y0115597D02*
X0025819Y0115597D01*
X0026386Y0116164D01*
X0026386Y0117298D01*
X0025819Y0117866D01*
X0025252Y0117866D01*
X0025252Y0119280D02*
X0026386Y0120414D01*
X0026386Y0120982D01*
X0026386Y0122349D02*
X0026386Y0122917D01*
X0025819Y0123484D01*
X0026386Y0124051D01*
X0025819Y0124618D01*
X0024118Y0124618D01*
X0024118Y0123484D02*
X0025819Y0123484D01*
X0026386Y0122349D02*
X0024118Y0122349D01*
X0024118Y0119280D02*
X0026386Y0119280D01*
X0024685Y0126033D02*
X0024118Y0126600D01*
X0024118Y0128301D01*
X0025819Y0128301D01*
X0026386Y0127734D01*
X0026386Y0126600D01*
X0025252Y0126600D02*
X0025252Y0128301D01*
X0025252Y0126600D02*
X0024685Y0126033D01*
X0024118Y0129716D02*
X0026386Y0129716D01*
X0026386Y0131417D01*
X0025819Y0131984D01*
X0024118Y0131984D01*
X0021521Y0130283D02*
X0018118Y0130283D01*
X0018118Y0129716D02*
X0018118Y0130850D01*
X0018685Y0132171D02*
X0018118Y0132738D01*
X0018118Y0133873D01*
X0019252Y0134440D02*
X0019252Y0132171D01*
X0018685Y0132171D02*
X0019819Y0132171D01*
X0020386Y0132738D01*
X0020386Y0133873D01*
X0019819Y0134440D01*
X0019252Y0134440D01*
X0018118Y0135854D02*
X0020386Y0135854D01*
X0020386Y0137556D01*
X0019819Y0138123D01*
X0018118Y0138123D01*
X0013819Y0130757D02*
X0014386Y0130189D01*
X0014386Y0128488D01*
X0015521Y0128488D02*
X0012118Y0128488D01*
X0012118Y0130189D01*
X0012685Y0130757D01*
X0013819Y0130757D01*
X0013819Y0127073D02*
X0012118Y0127073D01*
X0012118Y0125372D01*
X0012685Y0124805D01*
X0013252Y0125372D01*
X0013252Y0127073D01*
X0013819Y0127073D02*
X0014386Y0126506D01*
X0014386Y0125372D01*
X0015521Y0121122D02*
X0012118Y0121122D01*
X0012118Y0123390D01*
X0012118Y0116024D02*
X0012118Y0114323D01*
X0012685Y0113755D01*
X0013252Y0114323D01*
X0013252Y0116024D01*
X0013819Y0116024D02*
X0012118Y0116024D01*
X0013819Y0116024D02*
X0014386Y0115457D01*
X0014386Y0114323D01*
X0013819Y0106202D02*
X0013252Y0106202D01*
X0013252Y0103934D01*
X0012685Y0103934D02*
X0013819Y0103934D01*
X0014386Y0104501D01*
X0014386Y0105635D01*
X0013819Y0106202D01*
X0012118Y0104501D02*
X0012685Y0103934D01*
X0012118Y0104501D02*
X0012118Y0105635D01*
X0012118Y0102519D02*
X0015521Y0102519D01*
X0014386Y0101385D01*
X0015521Y0100251D01*
X0012118Y0100251D01*
X0009521Y0100864D02*
X0009521Y0101432D01*
X0006118Y0101432D01*
X0006118Y0101999D02*
X0006118Y0100864D01*
X0006118Y0099450D02*
X0007819Y0099450D01*
X0008386Y0098883D01*
X0008386Y0097181D01*
X0006118Y0097181D01*
X0007252Y0095767D02*
X0007252Y0093498D01*
X0006685Y0093498D02*
X0007819Y0093498D01*
X0008386Y0094065D01*
X0008386Y0095200D01*
X0007819Y0095767D01*
X0007252Y0095767D01*
X0006118Y0095200D02*
X0006118Y0094065D01*
X0006685Y0093498D01*
X0008386Y0092130D02*
X0008386Y0091563D01*
X0007252Y0090429D01*
X0006118Y0090429D02*
X0008386Y0090429D01*
X0007819Y0089014D02*
X0006685Y0089014D01*
X0006118Y0088447D01*
X0006118Y0087313D01*
X0006685Y0086746D01*
X0007819Y0086746D01*
X0008386Y0087313D01*
X0008386Y0088447D01*
X0007819Y0089014D01*
X0007819Y0103320D02*
X0006685Y0103320D01*
X0006118Y0103887D01*
X0006118Y0105021D01*
X0007252Y0105588D02*
X0007252Y0103320D01*
X0007819Y0103320D02*
X0008386Y0103887D01*
X0008386Y0105021D01*
X0007819Y0105588D01*
X0007252Y0105588D01*
X0018118Y0113095D02*
X0018685Y0112528D01*
X0019252Y0113095D01*
X0019252Y0114796D01*
X0019819Y0114796D02*
X0020386Y0114229D01*
X0020386Y0113095D01*
X0019819Y0114796D02*
X0018118Y0114796D01*
X0018118Y0113095D01*
X0018685Y0116211D02*
X0018118Y0116778D01*
X0018118Y0118479D01*
X0018118Y0119894D02*
X0021521Y0119894D01*
X0020386Y0121028D01*
X0021521Y0122163D01*
X0018118Y0122163D01*
X0018685Y0123577D02*
X0018118Y0124144D01*
X0018118Y0125846D01*
X0020386Y0125846D01*
X0021521Y0127260D02*
X0021521Y0127827D01*
X0018118Y0127827D01*
X0018118Y0127260D02*
X0018118Y0128395D01*
X0018685Y0123577D02*
X0020386Y0123577D01*
X0020386Y0118479D02*
X0020386Y0116778D01*
X0019819Y0116211D01*
X0018685Y0116211D01*
X0024118Y0104548D02*
X0027521Y0104548D01*
X0021521Y0129716D02*
X0021521Y0130283D01*
D49*
X0066681Y0196900D03*
X0066481Y0197300D03*
X0067081Y0196300D03*
X0068281Y0197700D03*
X0069081Y0195100D03*
X0068281Y0193500D03*
X0071081Y0193300D03*
X0071281Y0193300D03*
X0071481Y0193300D03*
X0072081Y0193300D03*
X0072281Y0193300D03*
X0074281Y0194300D03*
X0073481Y0195900D03*
X0073281Y0195900D03*
X0073081Y0195900D03*
X0076281Y0196100D03*
X0076481Y0196100D03*
X0076681Y0196100D03*
X0076881Y0196100D03*
X0077081Y0196100D03*
X0077281Y0196100D03*
X0077481Y0196100D03*
X0077681Y0196100D03*
X0077881Y0196100D03*
X0078081Y0196100D03*
X0078281Y0196100D03*
X0078481Y0196100D03*
X0078681Y0196100D03*
X0078881Y0196100D03*
X0079081Y0196100D03*
X0079281Y0196100D03*
X0079481Y0196100D03*
X0079681Y0196100D03*
X0079881Y0196100D03*
X0080081Y0196100D03*
X0080081Y0192300D03*
X0079881Y0192300D03*
X0079681Y0192300D03*
X0079481Y0192300D03*
X0079281Y0192300D03*
X0079081Y0192300D03*
X0078881Y0192300D03*
X0078681Y0192300D03*
X0078481Y0192300D03*
X0078281Y0192300D03*
X0078081Y0192300D03*
X0077881Y0192300D03*
X0077681Y0192300D03*
X0077481Y0192300D03*
X0077281Y0192300D03*
X0077081Y0192300D03*
X0076881Y0192300D03*
X0076681Y0192300D03*
X0076481Y0192300D03*
X0076281Y0192300D03*
X0072281Y0182700D03*
X0081481Y0178900D03*
X0084881Y0176700D03*
X0085881Y0176700D03*
X0088881Y0185100D03*
X0090281Y0183700D03*
X0085681Y0193700D03*
X0085681Y0194900D03*
X0080881Y0207900D03*
X0080681Y0207900D03*
X0080481Y0207900D03*
X0080281Y0207900D03*
X0080081Y0207900D03*
X0079881Y0207900D03*
X0079681Y0207900D03*
X0079481Y0207900D03*
X0079281Y0207900D03*
X0079081Y0207900D03*
X0078881Y0207900D03*
X0078681Y0207900D03*
X0078481Y0207900D03*
X0078281Y0207900D03*
X0078081Y0207900D03*
X0077881Y0207900D03*
X0077681Y0207900D03*
X0077481Y0207900D03*
X0077281Y0207900D03*
X0077081Y0207900D03*
X0077081Y0205500D03*
X0077281Y0205500D03*
X0077481Y0205500D03*
X0077681Y0205500D03*
X0077881Y0205500D03*
X0078081Y0205500D03*
X0078281Y0205500D03*
X0076881Y0205500D03*
X0076681Y0205500D03*
X0076481Y0205500D03*
X0076281Y0205500D03*
X0076081Y0205500D03*
X0075881Y0205500D03*
X0075681Y0205500D03*
X0074881Y0205500D03*
X0074681Y0205500D03*
X0074481Y0205500D03*
X0074281Y0205500D03*
X0074081Y0205500D03*
X0071081Y0209500D03*
X0071481Y0209900D03*
X0071681Y0209900D03*
X0070481Y0208500D03*
X0070281Y0208300D03*
X0070081Y0207900D03*
X0069681Y0204900D03*
X0068281Y0204900D03*
X0067681Y0205300D03*
X0067881Y0205700D03*
X0077081Y0211700D03*
X0077281Y0211700D03*
X0077481Y0211700D03*
X0077681Y0211700D03*
X0077881Y0211700D03*
X0078081Y0211700D03*
X0078281Y0211700D03*
X0078481Y0211700D03*
X0078681Y0211700D03*
X0078881Y0211700D03*
X0079081Y0211700D03*
X0079281Y0211700D03*
X0079481Y0211700D03*
X0079681Y0211700D03*
X0079881Y0211700D03*
X0080081Y0211700D03*
X0080281Y0211700D03*
X0080481Y0211700D03*
X0080681Y0211700D03*
X0080881Y0211700D03*
X0086481Y0210500D03*
X0086481Y0209100D03*
X0092681Y0202500D03*
X0090281Y0164700D03*
X0080481Y0160300D03*
X0081481Y0157500D03*
X0081481Y0152300D03*
X0077681Y0149100D03*
X0077681Y0155500D03*
D50*
X0077881Y0155400D03*
X0078081Y0155400D03*
X0078281Y0155400D03*
X0078481Y0155400D03*
X0078681Y0155400D03*
X0078881Y0155400D03*
X0079081Y0155400D03*
X0079281Y0155400D03*
X0079481Y0155400D03*
X0079681Y0155400D03*
X0079881Y0155400D03*
X0080081Y0155400D03*
X0080281Y0155400D03*
X0080481Y0155400D03*
X0080681Y0155400D03*
X0080881Y0155400D03*
X0081081Y0155400D03*
X0081281Y0155400D03*
X0079881Y0153800D03*
X0079681Y0153800D03*
X0079481Y0153800D03*
X0079281Y0153800D03*
X0079281Y0158200D03*
X0079481Y0158200D03*
X0079681Y0158200D03*
X0079881Y0158200D03*
X0080081Y0158200D03*
X0080281Y0158200D03*
X0080481Y0158200D03*
X0079081Y0158200D03*
X0078881Y0158200D03*
X0078681Y0158200D03*
X0077281Y0158200D03*
X0077081Y0158200D03*
X0076881Y0158200D03*
X0076681Y0158200D03*
X0077081Y0155600D03*
X0076281Y0155600D03*
X0077881Y0149200D03*
X0079081Y0146600D03*
X0079281Y0146600D03*
X0079481Y0146600D03*
X0079681Y0146600D03*
X0079881Y0146600D03*
X0080081Y0146600D03*
X0080281Y0146600D03*
X0080481Y0146600D03*
X0080681Y0146600D03*
X0080881Y0146600D03*
X0081081Y0146600D03*
X0081281Y0146600D03*
X0081281Y0149200D03*
X0081081Y0149200D03*
X0080881Y0149200D03*
X0080681Y0149200D03*
X0080481Y0149200D03*
X0080281Y0149200D03*
X0080081Y0149200D03*
X0079881Y0149200D03*
X0079681Y0149200D03*
X0079481Y0149200D03*
X0079281Y0149200D03*
X0079081Y0164200D03*
X0080081Y0167000D03*
X0080081Y0168600D03*
X0080281Y0168600D03*
X0080481Y0168600D03*
X0080681Y0168600D03*
X0080881Y0168600D03*
X0081081Y0168600D03*
X0081281Y0168600D03*
X0079881Y0168600D03*
X0079681Y0168600D03*
X0079481Y0168600D03*
X0079481Y0171200D03*
X0079681Y0171200D03*
X0079881Y0171200D03*
X0080081Y0171200D03*
X0080281Y0171200D03*
X0080481Y0171200D03*
X0080681Y0171200D03*
X0080881Y0171200D03*
X0081081Y0171200D03*
X0081281Y0171200D03*
X0081281Y0173000D03*
X0081081Y0173000D03*
X0080881Y0173000D03*
X0080681Y0173000D03*
X0080481Y0173000D03*
X0080281Y0173000D03*
X0080081Y0173000D03*
X0079881Y0173000D03*
X0079681Y0173000D03*
X0079481Y0173000D03*
X0079281Y0173000D03*
X0079281Y0171200D03*
X0079081Y0171200D03*
X0077881Y0171200D03*
X0077681Y0171200D03*
X0077681Y0175600D03*
X0079081Y0177400D03*
X0079281Y0177400D03*
X0079481Y0177400D03*
X0079681Y0177400D03*
X0079881Y0177400D03*
X0079881Y0180200D03*
X0080081Y0180200D03*
X0079681Y0180200D03*
X0079481Y0180200D03*
X0079281Y0180200D03*
X0079081Y0180200D03*
X0080281Y0181800D03*
X0081481Y0183000D03*
X0077681Y0181800D03*
X0072081Y0182600D03*
X0072081Y0178200D03*
X0072281Y0178200D03*
X0072481Y0178200D03*
X0072681Y0178200D03*
X0071881Y0178200D03*
X0071681Y0178200D03*
X0071481Y0178200D03*
X0071281Y0178200D03*
X0071081Y0178200D03*
X0070881Y0178200D03*
X0070681Y0178200D03*
X0070481Y0178200D03*
X0070281Y0178200D03*
X0070081Y0178200D03*
X0069881Y0178200D03*
X0069681Y0178200D03*
X0069481Y0178200D03*
X0069281Y0178200D03*
X0069081Y0178200D03*
X0068881Y0178200D03*
X0068681Y0178200D03*
X0068481Y0178200D03*
X0068281Y0178200D03*
X0068081Y0178200D03*
X0067881Y0178200D03*
X0068481Y0193200D03*
X0071081Y0197000D03*
X0071281Y0197000D03*
X0071481Y0197000D03*
X0071681Y0197000D03*
X0071881Y0197000D03*
X0072081Y0197000D03*
X0072281Y0197000D03*
X0072481Y0197000D03*
X0072681Y0197000D03*
X0072881Y0197000D03*
X0073081Y0197000D03*
X0073281Y0197000D03*
X0073481Y0197000D03*
X0074481Y0197000D03*
X0074681Y0197000D03*
X0074881Y0197000D03*
X0072881Y0195800D03*
X0072681Y0195800D03*
X0071881Y0193200D03*
X0073881Y0201600D03*
X0074281Y0204400D03*
X0074481Y0204400D03*
X0074681Y0204400D03*
X0074881Y0204400D03*
X0075681Y0204400D03*
X0075881Y0204400D03*
X0076081Y0204400D03*
X0076281Y0204400D03*
X0076481Y0204400D03*
X0076681Y0204400D03*
X0076881Y0204400D03*
X0075081Y0209800D03*
X0073281Y0209800D03*
X0072081Y0210000D03*
X0071881Y0210000D03*
X0070681Y0208800D03*
X0069881Y0207600D03*
X0069481Y0206600D03*
X0066281Y0206800D03*
X0066681Y0202200D03*
X0066481Y0202000D03*
X0066281Y0201600D03*
X0066281Y0197600D03*
X0065281Y0197400D03*
X0080081Y0193600D03*
X0080281Y0193600D03*
X0080481Y0193600D03*
X0080681Y0193600D03*
X0080881Y0193600D03*
X0081081Y0193600D03*
X0081281Y0193600D03*
X0081481Y0193600D03*
X0081681Y0193600D03*
X0081881Y0193600D03*
X0082081Y0193600D03*
X0082281Y0193600D03*
X0082481Y0193600D03*
X0082681Y0193600D03*
X0082881Y0193600D03*
X0083081Y0193600D03*
X0083281Y0193600D03*
X0083481Y0193600D03*
X0083681Y0193600D03*
X0083881Y0193600D03*
X0084081Y0193600D03*
X0084281Y0193600D03*
X0084481Y0193600D03*
X0084681Y0193600D03*
X0084881Y0193600D03*
X0085081Y0193600D03*
X0085281Y0193600D03*
X0085481Y0193600D03*
X0085481Y0195000D03*
X0084881Y0198800D03*
X0084881Y0204200D03*
X0084881Y0209000D03*
X0085081Y0209000D03*
X0085281Y0209000D03*
X0085481Y0209000D03*
X0085681Y0209000D03*
X0085881Y0209000D03*
X0086081Y0209000D03*
X0086281Y0209000D03*
X0086281Y0210400D03*
X0086081Y0210400D03*
X0085881Y0210400D03*
X0085681Y0210400D03*
X0085481Y0210400D03*
X0085281Y0210400D03*
X0085081Y0210400D03*
X0084881Y0210400D03*
X0084681Y0210400D03*
X0084481Y0210400D03*
X0084281Y0210400D03*
X0084081Y0210400D03*
X0083881Y0210400D03*
X0083681Y0210400D03*
X0083481Y0210400D03*
X0083281Y0210400D03*
X0083081Y0210400D03*
X0082881Y0210400D03*
X0082681Y0210400D03*
X0082481Y0210400D03*
X0082281Y0210400D03*
X0082081Y0210400D03*
X0081881Y0210400D03*
X0081681Y0210400D03*
X0081481Y0210400D03*
X0081281Y0210400D03*
X0081081Y0210400D03*
X0080881Y0210400D03*
X0080881Y0209000D03*
X0081081Y0209000D03*
X0081281Y0209000D03*
X0081481Y0209000D03*
X0081681Y0209000D03*
X0081881Y0209000D03*
X0082081Y0209000D03*
X0082281Y0209000D03*
X0082481Y0209000D03*
X0082681Y0209000D03*
X0082881Y0209000D03*
X0083081Y0209000D03*
X0083281Y0209000D03*
X0083481Y0209000D03*
X0083681Y0209000D03*
X0083881Y0209000D03*
X0084081Y0209000D03*
X0084281Y0209000D03*
X0084481Y0209000D03*
X0084681Y0209000D03*
X0092681Y0200600D03*
X0088681Y0180800D03*
X0088481Y0180800D03*
X0088281Y0180800D03*
X0088081Y0180800D03*
X0087881Y0180800D03*
X0087281Y0178600D03*
X0087281Y0176600D03*
X0087481Y0176600D03*
X0087681Y0176600D03*
X0087881Y0176600D03*
X0088081Y0176600D03*
X0088281Y0176600D03*
X0088481Y0176600D03*
X0088681Y0176600D03*
X0088881Y0176600D03*
X0089081Y0176600D03*
X0089281Y0176600D03*
X0089481Y0176600D03*
X0089681Y0176600D03*
X0089881Y0176600D03*
X0090081Y0176600D03*
X0088881Y0174800D03*
X0087681Y0174800D03*
X0087481Y0174800D03*
X0087081Y0176600D03*
X0086881Y0176600D03*
X0086681Y0176600D03*
X0086481Y0176600D03*
X0089281Y0172600D03*
X0089281Y0170400D03*
X0089481Y0170400D03*
X0089681Y0170400D03*
X0089881Y0170400D03*
X0090081Y0170400D03*
X0089081Y0170400D03*
X0088881Y0170400D03*
X0088681Y0170400D03*
X0088481Y0170400D03*
X0088281Y0170400D03*
X0088081Y0170400D03*
X0087881Y0170400D03*
X0087681Y0170400D03*
X0086481Y0170400D03*
X0087881Y0167800D03*
X0088081Y0167800D03*
X0088281Y0167800D03*
X0088481Y0167800D03*
X0088681Y0167800D03*
X0088881Y0167800D03*
X0089081Y0167800D03*
X0089281Y0167800D03*
X0089481Y0167800D03*
X0089681Y0167800D03*
X0089881Y0167800D03*
X0090081Y0167800D03*
X0088481Y0166200D03*
X0088281Y0166200D03*
X0088081Y0166200D03*
X0087881Y0166200D03*
X0087281Y0163800D03*
X0087681Y0162200D03*
X0087681Y0159400D03*
X0089281Y0160000D03*
X0081481Y0165600D03*
D51*
X0080481Y0166700D03*
X0080281Y0166900D03*
X0079081Y0166900D03*
X0078881Y0166900D03*
X0078681Y0166700D03*
X0078681Y0168700D03*
X0078881Y0168700D03*
X0079081Y0168700D03*
X0079281Y0168700D03*
X0078881Y0171100D03*
X0078881Y0173100D03*
X0079081Y0173100D03*
X0078681Y0173100D03*
X0077681Y0173900D03*
X0077881Y0175700D03*
X0079081Y0175700D03*
X0079281Y0175700D03*
X0079481Y0175700D03*
X0079681Y0175700D03*
X0079881Y0175700D03*
X0080081Y0175700D03*
X0080281Y0175700D03*
X0080481Y0175700D03*
X0080681Y0175700D03*
X0080881Y0175700D03*
X0081081Y0175700D03*
X0081281Y0175700D03*
X0080281Y0177500D03*
X0080081Y0177500D03*
X0078881Y0177500D03*
X0078881Y0180100D03*
X0080281Y0180100D03*
X0080081Y0184900D03*
X0079681Y0185100D03*
X0079481Y0185100D03*
X0079081Y0185300D03*
X0078881Y0185300D03*
X0078481Y0185100D03*
X0078281Y0185100D03*
X0076481Y0183100D03*
X0072681Y0184900D03*
X0072481Y0184900D03*
X0072281Y0184900D03*
X0072081Y0184900D03*
X0071881Y0184900D03*
X0071681Y0184900D03*
X0071481Y0184900D03*
X0071281Y0184900D03*
X0071081Y0184900D03*
X0070881Y0184900D03*
X0070681Y0184900D03*
X0070481Y0184900D03*
X0070281Y0184900D03*
X0070081Y0184900D03*
X0070081Y0183500D03*
X0070281Y0181900D03*
X0070281Y0180300D03*
X0070481Y0180300D03*
X0070681Y0180300D03*
X0070881Y0180300D03*
X0071081Y0180300D03*
X0071281Y0180300D03*
X0071481Y0180300D03*
X0071681Y0180300D03*
X0071881Y0180300D03*
X0072081Y0180300D03*
X0072281Y0180300D03*
X0072481Y0180300D03*
X0072681Y0180300D03*
X0071881Y0182700D03*
X0070081Y0180300D03*
X0070081Y0175100D03*
X0070281Y0175100D03*
X0070481Y0175100D03*
X0070681Y0175100D03*
X0070881Y0175100D03*
X0071081Y0175100D03*
X0071281Y0175100D03*
X0071481Y0175100D03*
X0071681Y0175100D03*
X0071881Y0175100D03*
X0072081Y0175100D03*
X0072281Y0175100D03*
X0072481Y0175100D03*
X0072681Y0175100D03*
X0069881Y0175100D03*
X0069681Y0175100D03*
X0069481Y0175100D03*
X0069281Y0175100D03*
X0069081Y0175100D03*
X0077681Y0169500D03*
X0078681Y0164500D03*
X0078881Y0164300D03*
X0079081Y0162700D03*
X0079281Y0162700D03*
X0079481Y0162700D03*
X0079681Y0162700D03*
X0079881Y0162700D03*
X0080081Y0162700D03*
X0080281Y0162500D03*
X0078881Y0162500D03*
X0078481Y0158300D03*
X0077481Y0158300D03*
X0076881Y0155500D03*
X0076681Y0155500D03*
X0076481Y0155500D03*
X0078881Y0153700D03*
X0079081Y0153700D03*
X0080081Y0153700D03*
X0080081Y0150900D03*
X0079881Y0150900D03*
X0079681Y0150900D03*
X0079481Y0150900D03*
X0079281Y0150900D03*
X0079081Y0150900D03*
X0078681Y0151100D03*
X0078881Y0149100D03*
X0079081Y0149100D03*
X0077681Y0147500D03*
X0078681Y0146700D03*
X0078881Y0146700D03*
X0087481Y0159500D03*
X0087881Y0159500D03*
X0087881Y0162100D03*
X0087481Y0162100D03*
X0088681Y0162100D03*
X0088881Y0162100D03*
X0088881Y0166100D03*
X0088681Y0166100D03*
X0087681Y0166100D03*
X0087681Y0167900D03*
X0087481Y0167900D03*
X0087481Y0170300D03*
X0087681Y0172100D03*
X0087881Y0172100D03*
X0087481Y0172300D03*
X0087281Y0172300D03*
X0087881Y0174900D03*
X0089081Y0174700D03*
X0088881Y0180700D03*
X0087681Y0180700D03*
X0088481Y0182500D03*
X0088681Y0182500D03*
X0088881Y0182500D03*
X0086481Y0185100D03*
X0086281Y0184900D03*
X0085681Y0176700D03*
X0085081Y0176700D03*
X0085081Y0194900D03*
X0085281Y0194900D03*
X0084881Y0194900D03*
X0084681Y0194900D03*
X0084481Y0194900D03*
X0084281Y0194900D03*
X0084081Y0194900D03*
X0083881Y0194900D03*
X0083681Y0194900D03*
X0083481Y0194900D03*
X0083281Y0194900D03*
X0083081Y0194900D03*
X0082881Y0194900D03*
X0082681Y0194900D03*
X0082481Y0194900D03*
X0082281Y0194900D03*
X0082081Y0194900D03*
X0081881Y0194900D03*
X0081681Y0194900D03*
X0081481Y0194900D03*
X0081281Y0194900D03*
X0081081Y0194900D03*
X0080881Y0194900D03*
X0080681Y0194900D03*
X0080481Y0194900D03*
X0080281Y0194900D03*
X0080081Y0194900D03*
X0080081Y0198900D03*
X0080281Y0198900D03*
X0080481Y0198900D03*
X0080681Y0198900D03*
X0080881Y0198900D03*
X0081081Y0198900D03*
X0081281Y0198900D03*
X0081481Y0198900D03*
X0081681Y0198900D03*
X0081881Y0198900D03*
X0082081Y0198900D03*
X0082281Y0198900D03*
X0082481Y0198900D03*
X0082681Y0198900D03*
X0082881Y0198900D03*
X0083081Y0198900D03*
X0083281Y0198900D03*
X0083481Y0198900D03*
X0083681Y0198900D03*
X0083881Y0198900D03*
X0084081Y0198900D03*
X0084281Y0198900D03*
X0084481Y0198900D03*
X0084681Y0198900D03*
X0084681Y0204100D03*
X0084481Y0204100D03*
X0084281Y0204100D03*
X0084081Y0204100D03*
X0083881Y0204100D03*
X0083681Y0204100D03*
X0083481Y0204100D03*
X0083281Y0204100D03*
X0083081Y0204100D03*
X0082881Y0204100D03*
X0082681Y0204100D03*
X0082481Y0204100D03*
X0082281Y0204100D03*
X0082081Y0204100D03*
X0081881Y0204100D03*
X0081681Y0204100D03*
X0081481Y0204100D03*
X0081281Y0204100D03*
X0081081Y0204100D03*
X0080881Y0204100D03*
X0080681Y0204100D03*
X0080481Y0204100D03*
X0080281Y0204100D03*
X0080081Y0204100D03*
X0079881Y0204100D03*
X0079681Y0204100D03*
X0079481Y0204100D03*
X0079281Y0204100D03*
X0079281Y0198900D03*
X0079481Y0198900D03*
X0079681Y0198900D03*
X0079881Y0198900D03*
X0074681Y0199300D03*
X0074081Y0195700D03*
X0072481Y0195700D03*
X0072481Y0194300D03*
X0071681Y0193100D03*
X0067281Y0195100D03*
X0067281Y0199700D03*
X0067281Y0204300D03*
X0067481Y0204900D03*
X0068481Y0204900D03*
X0069481Y0204900D03*
X0092481Y0202500D03*
D52*
X0092481Y0200600D03*
X0092281Y0200600D03*
X0092081Y0200600D03*
X0091881Y0200600D03*
X0091681Y0200600D03*
X0091481Y0200600D03*
X0091281Y0200600D03*
X0091081Y0200600D03*
X0090881Y0200600D03*
X0090681Y0200600D03*
X0090481Y0200600D03*
X0090281Y0200600D03*
X0090081Y0200600D03*
X0089881Y0200600D03*
X0089681Y0200600D03*
X0089481Y0200600D03*
X0089281Y0200600D03*
X0089081Y0200600D03*
X0088881Y0200600D03*
X0088681Y0200600D03*
X0088481Y0200600D03*
X0088281Y0200600D03*
X0088081Y0200600D03*
X0087881Y0200600D03*
X0087681Y0200600D03*
X0087481Y0200600D03*
X0087281Y0200600D03*
X0087081Y0200600D03*
X0086881Y0200600D03*
X0086681Y0200600D03*
X0086481Y0200600D03*
X0086281Y0200600D03*
X0086081Y0200600D03*
X0085881Y0200600D03*
X0085681Y0200600D03*
X0085481Y0200600D03*
X0085281Y0200600D03*
X0085081Y0200600D03*
X0084881Y0200600D03*
X0084681Y0200600D03*
X0084481Y0200600D03*
X0086681Y0185000D03*
X0089081Y0185000D03*
X0089081Y0182600D03*
X0089081Y0180600D03*
X0087481Y0180600D03*
X0085481Y0176600D03*
X0085281Y0176600D03*
X0087281Y0174600D03*
X0088681Y0174800D03*
X0087281Y0170200D03*
X0086481Y0168800D03*
X0087281Y0168000D03*
X0087481Y0166000D03*
X0087281Y0165800D03*
X0089081Y0166000D03*
X0089081Y0162000D03*
X0089281Y0161800D03*
X0087281Y0161800D03*
X0080481Y0162400D03*
X0078681Y0162400D03*
X0077681Y0161200D03*
X0078681Y0153600D03*
X0080281Y0153600D03*
X0080481Y0151200D03*
X0080281Y0151000D03*
X0078881Y0151000D03*
X0078681Y0149000D03*
X0078481Y0146800D03*
X0078481Y0169000D03*
X0078681Y0171000D03*
X0078481Y0173400D03*
X0078681Y0175600D03*
X0078881Y0175600D03*
X0078681Y0177600D03*
X0077681Y0178800D03*
X0078681Y0180000D03*
X0080481Y0180000D03*
X0080481Y0177600D03*
X0079881Y0185000D03*
X0079281Y0185200D03*
X0078681Y0185200D03*
X0078081Y0185000D03*
X0077881Y0184800D03*
X0074081Y0194200D03*
X0074281Y0195600D03*
X0074081Y0197200D03*
X0072281Y0195600D03*
X0068881Y0195200D03*
X0067481Y0199400D03*
X0066081Y0201000D03*
X0068481Y0203400D03*
X0068681Y0204800D03*
X0074881Y0209800D03*
X0076481Y0201600D03*
X0070281Y0183400D03*
X0071681Y0182600D03*
X0070081Y0181800D03*
X0067881Y0180600D03*
X0068881Y0175000D03*
D53*
X0071481Y0182700D03*
X0067881Y0184700D03*
X0067481Y0195100D03*
X0068281Y0202700D03*
X0068881Y0204900D03*
X0069081Y0204900D03*
X0069681Y0207300D03*
X0070881Y0209100D03*
X0073481Y0209700D03*
X0074681Y0209700D03*
X0074081Y0201500D03*
X0074481Y0198900D03*
X0072681Y0194300D03*
X0077681Y0184700D03*
X0080281Y0184700D03*
X0086081Y0184700D03*
X0086881Y0184900D03*
X0086081Y0182900D03*
X0087281Y0180500D03*
X0088281Y0182700D03*
X0090081Y0179300D03*
X0089281Y0174500D03*
X0090081Y0164700D03*
X0087281Y0159700D03*
X0081281Y0157500D03*
X0080481Y0153500D03*
X0077681Y0152300D03*
X0077681Y0165500D03*
X0078481Y0170900D03*
X0084681Y0202500D03*
X0084881Y0202500D03*
X0085081Y0202500D03*
X0085281Y0202500D03*
X0085481Y0202500D03*
X0085681Y0202500D03*
X0085881Y0202500D03*
X0086081Y0202500D03*
X0086281Y0202500D03*
X0086481Y0202500D03*
X0086681Y0202500D03*
X0086881Y0202500D03*
X0087081Y0202500D03*
X0087281Y0202500D03*
X0087481Y0202500D03*
X0087681Y0202500D03*
X0087881Y0202500D03*
X0088081Y0202500D03*
X0088281Y0202500D03*
X0088481Y0202500D03*
X0088681Y0202500D03*
X0088881Y0202500D03*
X0089081Y0202500D03*
X0089281Y0202500D03*
X0089481Y0202500D03*
X0089681Y0202500D03*
X0089881Y0202500D03*
X0090081Y0202500D03*
X0090281Y0202500D03*
X0090481Y0202500D03*
X0090681Y0202500D03*
X0090881Y0202500D03*
X0091081Y0202500D03*
X0091281Y0202500D03*
X0091481Y0202500D03*
X0091681Y0202500D03*
X0091881Y0202500D03*
X0092081Y0202500D03*
X0092281Y0202500D03*
D54*
X0085081Y0204200D03*
X0085081Y0198800D03*
X0080281Y0192400D03*
X0075081Y0197000D03*
X0074281Y0193200D03*
X0072481Y0193200D03*
X0070881Y0192000D03*
X0070481Y0191800D03*
X0069681Y0191800D03*
X0069281Y0192000D03*
X0068881Y0192600D03*
X0068681Y0192800D03*
X0069081Y0196800D03*
X0068881Y0197000D03*
X0068681Y0197200D03*
X0068081Y0198000D03*
X0066881Y0196600D03*
X0066681Y0195600D03*
X0065881Y0196400D03*
X0065681Y0196600D03*
X0065681Y0198400D03*
X0065681Y0199600D03*
X0066881Y0199600D03*
X0067281Y0203200D03*
X0067481Y0203400D03*
X0067681Y0203600D03*
X0068081Y0204000D03*
X0068681Y0203600D03*
X0068081Y0206000D03*
X0068281Y0206200D03*
X0068481Y0206400D03*
X0067481Y0208400D03*
X0066881Y0207800D03*
X0066681Y0207600D03*
X0066681Y0206000D03*
X0066881Y0205800D03*
X0069681Y0200800D03*
X0069881Y0200800D03*
X0072681Y0201400D03*
X0072881Y0201400D03*
X0073081Y0201400D03*
X0074281Y0203400D03*
X0074081Y0206400D03*
X0073881Y0206400D03*
X0073681Y0206400D03*
X0073481Y0206400D03*
X0073281Y0206400D03*
X0073081Y0206400D03*
X0072881Y0206400D03*
X0072681Y0206400D03*
X0072481Y0206400D03*
X0072281Y0206400D03*
X0072081Y0206400D03*
X0071881Y0206400D03*
X0071681Y0206400D03*
X0071481Y0206400D03*
X0071281Y0206400D03*
X0078481Y0205400D03*
X0081081Y0211600D03*
X0086281Y0182600D03*
X0089081Y0178400D03*
X0090281Y0179400D03*
X0090281Y0176600D03*
X0090281Y0173400D03*
X0090281Y0170400D03*
X0090281Y0168000D03*
X0089081Y0163800D03*
X0090281Y0160800D03*
X0081481Y0161200D03*
X0080481Y0164600D03*
X0078681Y0160200D03*
X0077281Y0155600D03*
D55*
X0080681Y0157700D03*
X0081281Y0161300D03*
X0081281Y0165500D03*
X0086481Y0164700D03*
X0086481Y0173500D03*
X0090081Y0183700D03*
X0087081Y0184500D03*
X0076281Y0201500D03*
X0075481Y0204900D03*
X0074881Y0207700D03*
X0074481Y0209700D03*
X0074281Y0209700D03*
X0074081Y0209700D03*
X0073881Y0209700D03*
X0069881Y0204900D03*
X0074281Y0201500D03*
X0073681Y0196500D03*
X0073481Y0194300D03*
X0073281Y0194300D03*
X0073081Y0194300D03*
X0068481Y0195100D03*
X0068281Y0195100D03*
X0068081Y0195100D03*
X0067881Y0195100D03*
X0068481Y0184500D03*
X0068681Y0184500D03*
X0068881Y0184500D03*
X0071081Y0182700D03*
X0068481Y0180700D03*
X0068281Y0180700D03*
X0077881Y0147500D03*
D56*
X0078481Y0148800D03*
X0081081Y0157600D03*
X0077881Y0169600D03*
X0077881Y0174000D03*
X0078481Y0175400D03*
X0071281Y0182600D03*
X0068281Y0184600D03*
X0068081Y0184600D03*
X0068081Y0180600D03*
X0072881Y0194200D03*
X0073681Y0194200D03*
X0073881Y0194200D03*
X0072081Y0195400D03*
X0068681Y0195200D03*
X0067681Y0195200D03*
X0065481Y0197400D03*
X0066081Y0198400D03*
X0066481Y0206800D03*
X0073681Y0209800D03*
X0074081Y0204000D03*
X0084481Y0202400D03*
X0086481Y0179400D03*
X0090081Y0173400D03*
X0090081Y0160800D03*
X0086481Y0160800D03*
D57*
X0086681Y0164700D03*
X0086881Y0173500D03*
X0087681Y0183700D03*
X0087481Y0183900D03*
X0089881Y0183700D03*
X0081081Y0178900D03*
X0081081Y0161300D03*
X0078081Y0161100D03*
X0078081Y0152300D03*
X0081081Y0152300D03*
X0075681Y0201500D03*
X0075481Y0201500D03*
X0075281Y0201500D03*
X0075081Y0201500D03*
X0074881Y0201500D03*
X0073881Y0204500D03*
X0073681Y0204500D03*
X0073481Y0204500D03*
X0073281Y0204500D03*
X0073081Y0204500D03*
X0072881Y0204500D03*
X0072681Y0204500D03*
X0072481Y0204500D03*
X0072281Y0204500D03*
X0072081Y0204500D03*
X0071881Y0204500D03*
X0071681Y0204500D03*
X0071481Y0204500D03*
X0071281Y0204500D03*
X0070081Y0204900D03*
D58*
X0074481Y0201500D03*
X0075881Y0201500D03*
X0076081Y0201500D03*
X0076281Y0194300D03*
X0076481Y0194300D03*
X0076681Y0194300D03*
X0076881Y0194300D03*
X0077081Y0194300D03*
X0077281Y0194300D03*
X0077481Y0194300D03*
X0077681Y0194300D03*
X0077881Y0194300D03*
X0078081Y0194300D03*
X0078281Y0194300D03*
X0078481Y0194300D03*
X0078681Y0194300D03*
X0078881Y0194300D03*
X0079081Y0194300D03*
X0079281Y0194300D03*
X0079481Y0194300D03*
X0079681Y0194300D03*
X0079881Y0194300D03*
X0071881Y0195100D03*
X0071681Y0195100D03*
X0071481Y0195100D03*
X0071281Y0195100D03*
X0071081Y0195100D03*
X0069681Y0184300D03*
X0069481Y0184300D03*
X0070681Y0182700D03*
X0069481Y0180900D03*
X0069281Y0180900D03*
X0077881Y0152300D03*
X0086681Y0173500D03*
X0089881Y0179300D03*
X0088081Y0183100D03*
X0089881Y0164700D03*
X0089881Y0160700D03*
X0080681Y0209700D03*
X0080481Y0209700D03*
X0080281Y0209700D03*
X0080081Y0209700D03*
X0079881Y0209700D03*
X0079681Y0209700D03*
X0079481Y0209700D03*
X0079281Y0209700D03*
X0079081Y0209700D03*
X0078881Y0209700D03*
X0078681Y0209700D03*
X0078481Y0209700D03*
X0078281Y0209700D03*
X0078081Y0209700D03*
X0077881Y0209700D03*
X0077681Y0209700D03*
X0077481Y0209700D03*
X0077281Y0209700D03*
X0077081Y0209700D03*
D59*
X0074681Y0201600D03*
X0069281Y0205400D03*
X0068081Y0201200D03*
X0065881Y0199600D03*
X0069881Y0184200D03*
X0070481Y0182600D03*
X0069881Y0181000D03*
X0069681Y0181000D03*
X0076681Y0183200D03*
X0081281Y0183200D03*
X0087281Y0184200D03*
X0087881Y0183400D03*
X0086681Y0179400D03*
X0089881Y0173400D03*
X0086681Y0160800D03*
X0081081Y0165600D03*
X0078081Y0165600D03*
X0078081Y0158000D03*
X0078281Y0158000D03*
X0077881Y0158000D03*
D60*
X0080681Y0152400D03*
X0078281Y0148000D03*
X0078081Y0148000D03*
X0078481Y0165600D03*
X0078281Y0170000D03*
X0078081Y0174600D03*
X0078481Y0178800D03*
X0080681Y0178800D03*
X0087081Y0179400D03*
X0089681Y0183800D03*
X0087081Y0169200D03*
X0087081Y0160800D03*
X0074681Y0194200D03*
X0069481Y0195200D03*
X0070281Y0204800D03*
X0075481Y0209800D03*
X0079481Y0201600D03*
X0079681Y0201600D03*
X0079881Y0201600D03*
X0080081Y0201600D03*
X0080281Y0201600D03*
X0080481Y0201600D03*
X0080681Y0201600D03*
X0080881Y0201600D03*
X0081081Y0201600D03*
X0081281Y0201600D03*
X0081481Y0201600D03*
X0081681Y0201600D03*
X0081881Y0201600D03*
X0082081Y0201600D03*
X0082281Y0201600D03*
X0082481Y0201600D03*
X0082681Y0201600D03*
X0082881Y0201600D03*
X0083081Y0201600D03*
X0083281Y0201600D03*
X0083481Y0201600D03*
X0083681Y0201600D03*
X0083881Y0201600D03*
X0084081Y0201600D03*
X0084281Y0201600D03*
D61*
X0085481Y0183600D03*
X0089681Y0179400D03*
X0089681Y0173400D03*
X0086681Y0169400D03*
X0086881Y0164800D03*
X0089681Y0164800D03*
X0089681Y0160800D03*
X0089481Y0160800D03*
X0086881Y0160800D03*
X0080881Y0165600D03*
X0080681Y0165800D03*
X0078281Y0165600D03*
X0078481Y0161400D03*
X0078081Y0178800D03*
X0081081Y0183200D03*
X0066881Y0202000D03*
D62*
X0070481Y0204900D03*
X0070681Y0204900D03*
X0070881Y0204900D03*
X0071081Y0204900D03*
X0079281Y0201500D03*
X0085881Y0183700D03*
X0089481Y0183900D03*
X0078281Y0174500D03*
X0078481Y0152300D03*
D63*
X0078281Y0152300D03*
X0080881Y0152300D03*
X0080881Y0161300D03*
X0080681Y0161300D03*
X0078281Y0161300D03*
X0078081Y0170100D03*
X0078281Y0178900D03*
X0076881Y0183100D03*
X0080881Y0178900D03*
X0085681Y0183700D03*
X0086881Y0179300D03*
X0089281Y0179500D03*
X0089481Y0179300D03*
X0089481Y0173500D03*
X0087081Y0173500D03*
X0086881Y0169300D03*
X0087081Y0164900D03*
X0089281Y0164900D03*
X0089481Y0164700D03*
D64*
X0088281Y0160700D03*
X0088081Y0160700D03*
X0088081Y0173500D03*
X0088281Y0173500D03*
X0088481Y0173500D03*
X0089281Y0183900D03*
X0080681Y0183100D03*
X0077281Y0183100D03*
X0074881Y0194300D03*
X0069681Y0195100D03*
X0068481Y0174900D03*
X0068281Y0174900D03*
X0068081Y0174900D03*
D65*
X0069881Y0191700D03*
X0070081Y0191700D03*
X0070281Y0191700D03*
X0070681Y0191900D03*
X0071081Y0192100D03*
X0071281Y0192300D03*
X0071481Y0192500D03*
X0072681Y0193100D03*
X0072281Y0194300D03*
X0074081Y0193100D03*
X0069481Y0191900D03*
X0069081Y0192300D03*
X0066881Y0195500D03*
X0066481Y0195700D03*
X0066281Y0195900D03*
X0066081Y0196100D03*
X0067281Y0196100D03*
X0068481Y0197500D03*
X0069281Y0196500D03*
X0068481Y0200300D03*
X0068281Y0200300D03*
X0068681Y0200500D03*
X0068881Y0200500D03*
X0069281Y0200700D03*
X0069481Y0200700D03*
X0070081Y0200900D03*
X0070281Y0200900D03*
X0070481Y0200900D03*
X0070681Y0201100D03*
X0070881Y0201100D03*
X0071081Y0201100D03*
X0071281Y0201100D03*
X0071681Y0201300D03*
X0071881Y0201300D03*
X0072081Y0201300D03*
X0072281Y0201300D03*
X0072481Y0201300D03*
X0073281Y0201500D03*
X0073481Y0201500D03*
X0074281Y0206300D03*
X0074681Y0208500D03*
X0072881Y0209300D03*
X0072681Y0209300D03*
X0072481Y0209300D03*
X0072281Y0209100D03*
X0072081Y0209100D03*
X0071881Y0209100D03*
X0071681Y0208900D03*
X0071481Y0208900D03*
X0071281Y0208700D03*
X0071081Y0208700D03*
X0071281Y0209700D03*
X0070681Y0209700D03*
X0070281Y0209500D03*
X0070081Y0209500D03*
X0069881Y0209500D03*
X0069481Y0209300D03*
X0069281Y0209300D03*
X0069081Y0209300D03*
X0068881Y0209100D03*
X0068681Y0209100D03*
X0068481Y0208900D03*
X0068281Y0208900D03*
X0067881Y0208700D03*
X0067681Y0208500D03*
X0067281Y0208300D03*
X0067081Y0208100D03*
X0068681Y0206700D03*
X0068881Y0206900D03*
X0069081Y0207100D03*
X0069281Y0207300D03*
X0069481Y0207500D03*
X0068281Y0204100D03*
X0067881Y0203700D03*
X0067881Y0204900D03*
X0067281Y0205300D03*
X0067081Y0205500D03*
X0066681Y0199500D03*
X0066481Y0199300D03*
X0066281Y0199100D03*
X0072281Y0209900D03*
X0072481Y0209900D03*
X0072681Y0209900D03*
X0072481Y0210500D03*
X0072281Y0210500D03*
X0080281Y0196100D03*
X0081081Y0207900D03*
X0080081Y0181700D03*
X0077881Y0181700D03*
X0087481Y0178300D03*
X0088881Y0178300D03*
X0089081Y0172500D03*
X0088881Y0163700D03*
X0087481Y0163700D03*
X0089081Y0159900D03*
X0080481Y0156900D03*
X0080281Y0160300D03*
X0076081Y0155500D03*
D66*
X0078881Y0160200D03*
X0080081Y0160200D03*
X0078081Y0181800D03*
X0073881Y0193000D03*
X0073681Y0193000D03*
X0073481Y0193000D03*
X0073281Y0193000D03*
X0073081Y0193000D03*
X0072881Y0193000D03*
X0074481Y0196200D03*
X0071481Y0201200D03*
X0069081Y0200600D03*
X0069081Y0206000D03*
X0068081Y0208800D03*
X0069681Y0209400D03*
X0070481Y0209600D03*
X0072881Y0209800D03*
X0073081Y0209200D03*
X0073081Y0210600D03*
X0072881Y0210600D03*
X0072681Y0210600D03*
X0078681Y0205400D03*
X0085881Y0193600D03*
X0088681Y0185200D03*
X0086481Y0182600D03*
X0086681Y0209000D03*
X0086681Y0210400D03*
X0068081Y0193800D03*
D67*
X0067881Y0175000D03*
X0068681Y0175000D03*
X0077081Y0183200D03*
X0080881Y0183200D03*
X0079881Y0165600D03*
X0079681Y0165600D03*
X0079481Y0165600D03*
X0079281Y0165600D03*
X0088481Y0160800D03*
D68*
X0080881Y0157600D03*
X0081281Y0152400D03*
X0077681Y0158000D03*
X0077881Y0161200D03*
X0077881Y0165600D03*
X0077881Y0178800D03*
X0081281Y0178800D03*
X0085281Y0183800D03*
X0073881Y0196400D03*
X0074281Y0197600D03*
X0069281Y0184400D03*
X0069081Y0184400D03*
X0070881Y0182600D03*
X0069081Y0180800D03*
X0068881Y0180800D03*
X0068681Y0180800D03*
D69*
X0077481Y0183200D03*
X0080481Y0183200D03*
X0075281Y0205200D03*
X0075681Y0209800D03*
X0067681Y0198400D03*
D70*
X0077681Y0201700D03*
X0077881Y0201700D03*
X0078481Y0201500D03*
X0078681Y0201500D03*
X0078881Y0201500D03*
X0079081Y0201500D03*
D71*
X0078281Y0201600D03*
X0078081Y0201600D03*
D72*
X0077481Y0201800D03*
D73*
X0077281Y0201900D03*
D74*
X0077081Y0202100D03*
D75*
X0076881Y0209800D03*
X0076681Y0209800D03*
X0076481Y0209800D03*
X0076281Y0209800D03*
X0076081Y0209800D03*
X0070881Y0195200D03*
X0070681Y0195200D03*
X0070481Y0195200D03*
X0070281Y0195200D03*
X0070081Y0195200D03*
X0075281Y0194200D03*
X0075481Y0194200D03*
X0075681Y0194200D03*
X0075881Y0194200D03*
X0076081Y0194200D03*
D76*
X0075081Y0194300D03*
X0069881Y0195100D03*
X0075881Y0209700D03*
D77*
X0075081Y0205600D03*
D78*
X0067881Y0198900D03*
D79*
X0067081Y0201900D03*
D80*
X0051083Y0156654D02*
X0050016Y0156654D01*
X0050016Y0152384D01*
X0051083Y0152384D02*
X0052151Y0153451D01*
X0052151Y0155586D01*
X0051083Y0156654D01*
X0047881Y0155586D02*
X0047881Y0153451D01*
X0048948Y0152384D01*
X0051083Y0152384D01*
X0052151Y0149656D02*
X0052151Y0146453D01*
X0051083Y0145386D01*
X0048948Y0145386D01*
X0047881Y0146453D01*
X0047881Y0149656D01*
X0046813Y0149656D02*
X0052151Y0149656D01*
X0052151Y0142658D02*
X0052151Y0139455D01*
X0051083Y0138388D01*
X0048948Y0138388D01*
X0047881Y0139455D01*
X0047881Y0142658D01*
X0054286Y0142658D01*
X0051083Y0135660D02*
X0047881Y0135660D01*
X0047881Y0132457D01*
X0048948Y0131390D01*
X0050016Y0132457D01*
X0050016Y0135660D01*
X0051083Y0135660D02*
X0052151Y0134593D01*
X0052151Y0132457D01*
X0052151Y0128662D02*
X0051083Y0127595D01*
X0051083Y0124392D01*
X0051083Y0121664D02*
X0047881Y0121664D01*
X0047881Y0124392D02*
X0047881Y0127595D01*
X0048948Y0128662D01*
X0050016Y0128662D01*
X0051083Y0127595D01*
X0052151Y0128662D02*
X0053219Y0128662D01*
X0054286Y0127595D01*
X0054286Y0124392D01*
X0047881Y0124392D01*
X0051083Y0121664D02*
X0052151Y0120597D01*
X0052151Y0117394D01*
X0047881Y0117394D01*
X0050016Y0114666D02*
X0050016Y0110396D01*
X0051083Y0110396D02*
X0052151Y0111464D01*
X0052151Y0113599D01*
X0051083Y0114666D01*
X0050016Y0114666D01*
X0047881Y0113599D02*
X0047881Y0111464D01*
X0048948Y0110396D01*
X0051083Y0110396D01*
X0051083Y0107668D02*
X0048948Y0107668D01*
X0047881Y0106601D01*
X0047881Y0103398D01*
X0048948Y0100670D02*
X0053219Y0100670D01*
X0054286Y0099603D01*
X0054286Y0097468D01*
X0053219Y0096400D01*
X0048948Y0096400D01*
X0047881Y0097468D01*
X0047881Y0099603D01*
X0048948Y0100670D01*
X0045746Y0103398D02*
X0052151Y0103398D01*
X0052151Y0106601D01*
X0051083Y0107668D01*
X0041819Y0124392D02*
X0042886Y0125459D01*
X0042886Y0127595D01*
X0041819Y0128662D01*
X0037548Y0124392D01*
X0036481Y0125459D01*
X0036481Y0127595D01*
X0037548Y0128662D01*
X0041819Y0128662D01*
X0041819Y0131390D02*
X0042886Y0132457D01*
X0042886Y0134593D01*
X0041819Y0135660D01*
X0040751Y0135660D01*
X0039683Y0134593D01*
X0038616Y0135660D01*
X0037548Y0135660D01*
X0036481Y0134593D01*
X0036481Y0132457D01*
X0037548Y0131390D01*
X0039683Y0133525D02*
X0039683Y0134593D01*
X0040751Y0138388D02*
X0036481Y0140523D01*
X0040751Y0142658D01*
X0041819Y0145386D02*
X0042886Y0146453D01*
X0042886Y0148589D01*
X0041819Y0149656D01*
X0040751Y0149656D01*
X0039683Y0148589D01*
X0038616Y0149656D01*
X0037548Y0149656D01*
X0036481Y0148589D01*
X0036481Y0146453D01*
X0037548Y0145386D01*
X0039683Y0147521D02*
X0039683Y0148589D01*
X0045746Y0148589D02*
X0045746Y0147521D01*
X0045746Y0148589D02*
X0046813Y0149656D01*
X0041819Y0124392D02*
X0037548Y0124392D01*
D81*
X0019400Y0029615D02*
X0025936Y0022528D01*
X0028436Y0025028D01*
X0019400Y0029615D02*
X0019400Y0037430D01*
X0019400Y0062627D02*
X0019400Y0068335D01*
X0031408Y0078965D01*
X0090463Y0078965D02*
X0102471Y0068335D01*
X0102471Y0062627D01*
X0102471Y0037430D02*
X0102471Y0029615D01*
X0095936Y0022528D01*
X0093436Y0025028D01*
M02*
