G75*
%MOIN*%
%OFA0B0*%
%FSLAX25Y25*%
%IPPOS*%
%LPD*%
%AMOC8*
5,1,8,0,0,1.08239X$1,22.5*
%
%ADD10C,0.00500*%
%ADD11C,0.01000*%
%ADD12R,0.01378X0.01378*%
%ADD13C,0.00800*%
D10*
X0011077Y0049704D02*
X0011077Y0047903D01*
X0011978Y0047002D01*
X0012878Y0047903D01*
X0012878Y0049704D01*
X0015825Y0049254D02*
X0015374Y0049704D01*
X0014474Y0049704D01*
X0014023Y0049254D01*
X0014023Y0047452D01*
X0014474Y0047002D01*
X0015374Y0047002D01*
X0015825Y0047452D01*
X0018771Y0049254D02*
X0018321Y0049704D01*
X0017420Y0049704D01*
X0016970Y0049254D01*
X0016970Y0047452D01*
X0017420Y0047002D01*
X0018321Y0047002D01*
X0018771Y0047452D01*
X0012386Y0037443D02*
X0011936Y0037893D01*
X0011035Y0037893D01*
X0010585Y0037443D01*
X0010585Y0035641D01*
X0011035Y0035191D01*
X0011936Y0035191D01*
X0012386Y0035641D01*
X0012386Y0036542D01*
X0011485Y0036542D01*
X0013531Y0035191D02*
X0013531Y0037893D01*
X0015333Y0035191D01*
X0015333Y0037893D01*
X0016478Y0037893D02*
X0016478Y0035191D01*
X0017829Y0035191D01*
X0018279Y0035641D01*
X0018279Y0037443D01*
X0017829Y0037893D01*
X0016478Y0037893D01*
X0011485Y0025348D02*
X0010585Y0025348D01*
X0011035Y0025348D02*
X0011035Y0028051D01*
X0010585Y0028051D02*
X0011485Y0028051D01*
X0012549Y0025348D02*
X0012549Y0028051D01*
X0014351Y0025348D01*
X0014351Y0028051D01*
X0016396Y0028051D02*
X0016396Y0025348D01*
X0015496Y0028051D02*
X0017297Y0028051D01*
X0018442Y0027150D02*
X0019343Y0028051D01*
X0019343Y0025348D01*
X0018442Y0025348D02*
X0020244Y0025348D01*
X0012386Y0023171D02*
X0011936Y0023622D01*
X0011035Y0023622D01*
X0010585Y0023171D01*
X0010585Y0022721D01*
X0011035Y0022270D01*
X0011936Y0022270D01*
X0012386Y0021820D01*
X0012386Y0021370D01*
X0011936Y0020919D01*
X0011035Y0020919D01*
X0010585Y0021370D01*
X0015333Y0023171D02*
X0014882Y0023622D01*
X0013982Y0023622D01*
X0013531Y0023171D01*
X0013531Y0021370D01*
X0013982Y0020919D01*
X0014882Y0020919D01*
X0015333Y0021370D01*
X0016478Y0020919D02*
X0016478Y0023622D01*
X0018279Y0023622D02*
X0016478Y0021820D01*
X0016928Y0022270D02*
X0018279Y0020919D01*
X0012878Y0017758D02*
X0012428Y0018208D01*
X0011527Y0018208D01*
X0011077Y0017758D01*
X0011077Y0017307D01*
X0011527Y0016857D01*
X0012428Y0016857D01*
X0012878Y0016407D01*
X0012878Y0015956D01*
X0012428Y0015506D01*
X0011527Y0015506D01*
X0011077Y0015956D01*
X0014023Y0018208D02*
X0014023Y0015506D01*
X0015374Y0015506D01*
X0015825Y0015956D01*
X0015825Y0017758D01*
X0015374Y0018208D01*
X0014023Y0018208D01*
X0016970Y0015506D02*
X0016970Y0017307D01*
X0017871Y0018208D01*
X0018771Y0017307D01*
X0018771Y0015506D01*
X0018771Y0016857D02*
X0016970Y0016857D01*
X0036461Y0037974D02*
X0036011Y0038425D01*
X0035110Y0038425D01*
X0034659Y0037974D01*
X0034659Y0036173D01*
X0035110Y0035722D01*
X0036011Y0035722D01*
X0036461Y0036173D01*
X0037606Y0037524D02*
X0038507Y0038425D01*
X0038507Y0035722D01*
X0037606Y0035722D02*
X0039408Y0035722D01*
X0042354Y0038425D02*
X0040552Y0038425D01*
X0040552Y0037074D01*
X0041453Y0037524D01*
X0041904Y0037524D01*
X0042354Y0037074D01*
X0042354Y0036173D01*
X0041904Y0035722D01*
X0041003Y0035722D01*
X0040552Y0036173D01*
X0040756Y0026785D02*
X0038955Y0026785D01*
X0038504Y0027236D01*
X0038504Y0028137D01*
X0038955Y0028587D01*
X0040756Y0028587D01*
X0041207Y0028137D01*
X0041207Y0027236D01*
X0040756Y0026785D01*
X0038955Y0028587D01*
X0039405Y0029732D02*
X0040756Y0029732D01*
X0041207Y0030182D01*
X0041207Y0031533D01*
X0039405Y0031533D01*
X0039405Y0032678D02*
X0038504Y0033579D01*
X0041207Y0033579D01*
X0041207Y0032678D02*
X0041207Y0034480D01*
X0023666Y0046341D02*
X0023215Y0046791D01*
X0022315Y0046791D01*
X0021864Y0046341D01*
X0021864Y0044539D01*
X0022315Y0044089D01*
X0023215Y0044089D01*
X0023666Y0044539D01*
X0024811Y0045890D02*
X0025711Y0046791D01*
X0025711Y0044089D01*
X0024811Y0044089D02*
X0026612Y0044089D01*
X0029559Y0046791D02*
X0028658Y0046341D01*
X0027757Y0045440D01*
X0027757Y0044539D01*
X0028208Y0044089D01*
X0029108Y0044089D01*
X0029559Y0044539D01*
X0029559Y0044989D01*
X0029108Y0045440D01*
X0027757Y0045440D01*
X0032691Y0045733D02*
X0033592Y0046633D01*
X0033592Y0043931D01*
X0034492Y0043931D02*
X0032691Y0043931D01*
X0035637Y0044381D02*
X0035637Y0046183D01*
X0036088Y0046633D01*
X0036989Y0046633D01*
X0037439Y0046183D01*
X0037439Y0044381D01*
X0036989Y0043931D01*
X0036088Y0043931D01*
X0035637Y0044381D01*
X0037439Y0046183D01*
X0038584Y0045733D02*
X0038584Y0044381D01*
X0039034Y0043931D01*
X0040386Y0043931D01*
X0040386Y0045733D01*
X0021795Y0035680D02*
X0021344Y0036130D01*
X0020444Y0036130D01*
X0019993Y0035680D01*
X0019993Y0033878D01*
X0020444Y0033428D01*
X0021344Y0033428D01*
X0021795Y0033878D01*
X0022940Y0035229D02*
X0023840Y0036130D01*
X0023840Y0033428D01*
X0022940Y0033428D02*
X0024741Y0033428D01*
X0025886Y0036130D02*
X0027688Y0036130D01*
X0027688Y0035680D01*
X0025886Y0033878D01*
X0025886Y0033428D01*
X0041541Y0008085D02*
X0038839Y0008085D01*
X0038839Y0009436D01*
X0039289Y0009886D01*
X0040190Y0009886D01*
X0040641Y0009436D01*
X0040641Y0008085D01*
X0040641Y0008985D02*
X0041541Y0009886D01*
X0039740Y0011031D02*
X0038839Y0011932D01*
X0041541Y0011932D01*
X0041541Y0011031D02*
X0041541Y0012833D01*
X0039740Y0013978D02*
X0038839Y0014878D01*
X0041541Y0014878D01*
X0041541Y0013978D02*
X0041541Y0015779D01*
X0030230Y0005870D02*
X0031131Y0006771D01*
X0031131Y0004069D01*
X0030230Y0004069D02*
X0032032Y0004069D01*
X0033177Y0004069D02*
X0033177Y0006771D01*
X0034528Y0004069D02*
X0033177Y0004970D01*
X0034528Y0005870D01*
X0014974Y0006195D02*
X0014974Y0008897D01*
X0016326Y0008897D01*
X0016776Y0008447D01*
X0016776Y0007546D01*
X0016326Y0007096D01*
X0014974Y0007096D01*
X0015875Y0007096D02*
X0016776Y0006195D01*
X0017921Y0007996D02*
X0018822Y0008897D01*
X0018822Y0006195D01*
X0019722Y0006195D02*
X0017921Y0006195D01*
X0022669Y0006195D02*
X0020867Y0006195D01*
X0022669Y0007996D01*
X0022669Y0008447D01*
X0022219Y0008897D01*
X0021318Y0008897D01*
X0020867Y0008447D01*
X0024415Y0005859D02*
X0025316Y0006760D01*
X0025316Y0004058D01*
X0024415Y0004058D02*
X0026217Y0004058D01*
X0027362Y0004058D02*
X0027362Y0006760D01*
X0028713Y0004058D02*
X0027362Y0004959D01*
X0028713Y0005859D01*
X0032238Y0022834D02*
X0032238Y0020582D01*
X0032689Y0020132D01*
X0033589Y0020132D01*
X0034040Y0020582D01*
X0034040Y0022834D01*
X0035185Y0021933D02*
X0036085Y0022834D01*
X0036085Y0020132D01*
X0035185Y0020132D02*
X0036986Y0020132D01*
D11*
X0031988Y0029754D02*
X0031988Y0032254D01*
X0027067Y0038120D02*
X0027067Y0040620D01*
X0020177Y0032254D02*
X0020177Y0029754D01*
X0032480Y0013061D02*
X0032480Y0010561D01*
X0020669Y0010561D02*
X0020669Y0013061D01*
D12*
X0021752Y0017421D03*
D13*
X0022047Y0017126D02*
X0022047Y0019291D01*
X0022047Y0024016D02*
X0022047Y0026181D01*
X0031102Y0026181D02*
X0031102Y0024016D01*
X0031102Y0019291D02*
X0031102Y0017126D01*
X0030906Y0017126D01*
X0030906Y0026181D02*
X0031102Y0026181D01*
X0022244Y0026181D02*
X0022047Y0026181D01*
X0022047Y0017126D02*
X0022244Y0017126D01*
M02*
