G75*
%MOIN*%
%OFA0B0*%
%FSLAX25Y25*%
%IPPOS*%
%LPD*%
%AMOC8*
5,1,8,0,0,1.08239X$1,22.5*
%
%ADD10R,0.04331X0.03937*%
%ADD11R,0.03937X0.04331*%
%ADD12R,0.00984X0.01969*%
%ADD13R,0.01969X0.00984*%
%ADD14C,0.07400*%
%ADD15C,0.01000*%
%ADD16C,0.02578*%
%ADD17C,0.02400*%
%ADD18C,0.01600*%
D10*
X0028642Y0031004D03*
X0035335Y0031004D03*
X0023720Y0039370D03*
X0030413Y0039370D03*
X0023524Y0031004D03*
X0016831Y0031004D03*
D11*
X0029134Y0011811D03*
X0035827Y0011811D03*
X0024016Y0011811D03*
X0017323Y0011811D03*
D12*
X0023622Y0018209D03*
X0025591Y0018209D03*
X0027559Y0018209D03*
X0029528Y0018209D03*
X0029528Y0025098D03*
X0027559Y0025098D03*
X0025591Y0025098D03*
X0023622Y0025098D03*
D13*
X0030020Y0020669D03*
X0023130Y0022638D03*
X0023130Y0020669D03*
X0030020Y0022638D03*
D14*
X0006398Y0005906D03*
X0006398Y0015906D03*
X0006398Y0025906D03*
X0006398Y0035906D03*
X0006398Y0045906D03*
D15*
X0027559Y0025098D02*
X0029528Y0025098D01*
X0030020Y0022638D02*
X0030020Y0020669D01*
X0029528Y0025098D02*
X0030020Y0024606D01*
X0030020Y0022638D01*
X0030413Y0039370D02*
X0035335Y0034449D01*
X0035335Y0031004D01*
X0035335Y0025984D01*
X0033957Y0024606D02*
X0030020Y0024606D01*
X0016831Y0031004D02*
X0014370Y0033465D01*
X0012303Y0033465D01*
X0033957Y0024606D02*
X0035335Y0025984D01*
X0027559Y0018209D02*
X0025591Y0018209D01*
X0024016Y0011811D02*
X0024016Y0014173D01*
X0025591Y0015748D01*
X0025591Y0018209D01*
X0027559Y0018209D02*
X0027559Y0015748D01*
X0029035Y0014272D01*
X0029035Y0011909D01*
X0029134Y0011811D01*
X0023524Y0031004D02*
X0023524Y0025197D01*
X0023622Y0025098D01*
X0025591Y0025098D02*
X0025959Y0025467D01*
X0028642Y0031004D02*
X0028642Y0029213D01*
X0025959Y0026530D01*
X0025959Y0025467D01*
X0023524Y0031004D02*
X0023524Y0039173D01*
X0023720Y0039370D01*
X0028642Y0031004D02*
X0028642Y0034449D01*
X0023720Y0039370D01*
X0023622Y0018209D02*
X0021654Y0018209D01*
X0017717Y0014272D01*
X0017717Y0012205D01*
X0017323Y0011811D01*
X0006398Y0015906D02*
X0010492Y0011811D01*
X0017323Y0011811D01*
X0029528Y0018209D02*
X0031988Y0018209D01*
X0035925Y0014272D01*
X0035925Y0011909D01*
X0035827Y0011811D01*
X0034823Y0011811D01*
X0035827Y0011811D02*
X0035827Y0008268D01*
X0031496Y0003937D01*
X0008366Y0003937D01*
X0006398Y0005906D01*
X0006398Y0025906D02*
X0011634Y0020669D01*
X0023130Y0020669D01*
D16*
X0012303Y0033465D03*
X0035335Y0025984D03*
X0016732Y0039370D03*
X0022146Y0006398D03*
D17*
X0023720Y0039370D02*
X0016732Y0039370D01*
X0024016Y0011811D02*
X0029134Y0011811D01*
D18*
X0024016Y0011811D02*
X0024016Y0008268D01*
X0022146Y0006398D01*
X0006398Y0045906D02*
X0010197Y0045906D01*
X0016732Y0039370D01*
M02*
