G75*
%MOIN*%
%OFA0B0*%
%FSLAX25Y25*%
%IPPOS*%
%LPD*%
%AMOC8*
5,1,8,0,0,1.08239X$1,22.5*
%
%ADD10C,0.01181*%
%ADD11R,0.04331X0.03937*%
%ADD12R,0.07000X0.10000*%
%ADD13C,0.31496*%
%ADD14R,0.06299X0.07087*%
%ADD15R,0.03937X0.04331*%
%ADD16R,0.04724X0.02165*%
%ADD17R,0.04331X0.06693*%
%ADD18R,0.05000X0.02500*%
%ADD19C,0.01600*%
%ADD20R,0.03937X0.05906*%
%ADD21R,0.05906X0.03937*%
%ADD22R,0.03937X0.03937*%
%ADD23R,0.02165X0.04724*%
%ADD24C,0.03150*%
%ADD25R,0.06600X0.06600*%
%ADD26C,0.06600*%
%ADD27C,0.06000*%
%ADD28R,0.12598X0.16535*%
%ADD29R,0.08661X0.02362*%
%ADD30R,0.04528X0.03937*%
%ADD31R,0.00984X0.01969*%
%ADD32R,0.01969X0.00984*%
%ADD33C,0.04000*%
%ADD34C,0.03169*%
%ADD35C,0.02400*%
%ADD36C,0.02000*%
%ADD37C,0.01000*%
%ADD38C,0.02578*%
%ADD39C,0.03562*%
D10*
X0011705Y0239567D02*
X0011705Y0236811D01*
X0008949Y0236811D01*
X0008949Y0239567D01*
X0011705Y0239567D01*
X0011705Y0237991D02*
X0008949Y0237991D01*
X0008949Y0239171D02*
X0011705Y0239171D01*
X0018610Y0239567D02*
X0018610Y0236811D01*
X0015854Y0236811D01*
X0015854Y0239567D01*
X0018610Y0239567D01*
X0018610Y0237991D02*
X0015854Y0237991D01*
X0015854Y0239171D02*
X0018610Y0239171D01*
X0011705Y0249409D02*
X0011705Y0246653D01*
X0008949Y0246653D01*
X0008949Y0249409D01*
X0011705Y0249409D01*
X0011705Y0247833D02*
X0008949Y0247833D01*
X0008949Y0249013D02*
X0011705Y0249013D01*
X0018610Y0249409D02*
X0018610Y0246653D01*
X0015854Y0246653D01*
X0015854Y0249409D01*
X0018610Y0249409D01*
X0018610Y0247833D02*
X0015854Y0247833D01*
X0015854Y0249013D02*
X0018610Y0249013D01*
D11*
X0029528Y0241535D03*
X0029528Y0234843D03*
X0037402Y0241535D03*
X0037402Y0234843D03*
X0107677Y0232283D03*
X0100984Y0232283D03*
X0091142Y0125000D03*
X0097835Y0125000D03*
X0039764Y0102362D03*
X0033071Y0102362D03*
X0064567Y0102362D03*
X0071260Y0102362D03*
X0084252Y0179134D03*
X0090945Y0179134D03*
X0086220Y0240157D03*
X0092913Y0240157D03*
X0021654Y0187106D03*
X0021654Y0193799D03*
X0084252Y0171260D03*
X0090945Y0171260D03*
X0037402Y0187106D03*
X0037402Y0193799D03*
X0103937Y0102362D03*
X0110630Y0102362D03*
X0099016Y0110728D03*
X0105709Y0110728D03*
X0098819Y0102362D03*
X0092126Y0102362D03*
D12*
X0015748Y0054331D03*
X0102362Y0054331D03*
X0015748Y0042126D03*
X0102362Y0042126D03*
D13*
X0059055Y0048228D03*
D14*
X0085039Y0163386D03*
X0096063Y0163386D03*
D15*
X0082677Y0201378D03*
X0082677Y0208071D03*
X0092520Y0201378D03*
X0092520Y0208071D03*
X0100984Y0187008D03*
X0107677Y0187008D03*
X0045276Y0234843D03*
X0045276Y0241535D03*
X0100984Y0194882D03*
X0107677Y0194882D03*
X0107677Y0240157D03*
X0100984Y0240157D03*
X0107677Y0224409D03*
X0100984Y0224409D03*
X0029528Y0193799D03*
X0029528Y0187106D03*
X0081693Y0124606D03*
X0081693Y0131299D03*
X0104921Y0083169D03*
X0111614Y0083169D03*
X0099311Y0083169D03*
X0092618Y0083169D03*
D16*
X0082480Y0194685D03*
X0082480Y0190945D03*
X0082480Y0187205D03*
X0092717Y0187205D03*
X0092717Y0194685D03*
D17*
X0057087Y0102362D03*
X0047244Y0102362D03*
D18*
X0082677Y0226625D03*
X0082677Y0223425D03*
X0082677Y0220225D03*
D19*
X0082677Y0220925D02*
X0082677Y0223425D01*
X0052791Y0094608D02*
X0065319Y0094608D01*
X0065319Y0090432D01*
X0052791Y0090432D01*
X0052791Y0094608D01*
X0052791Y0091115D02*
X0065319Y0091115D01*
X0065319Y0092714D02*
X0052791Y0092714D01*
X0052791Y0094312D02*
X0065319Y0094312D01*
X0069882Y0167323D02*
X0070866Y0169291D01*
X0104331Y0205512D02*
X0104331Y0201772D01*
X0102854Y0200295D01*
X0101378Y0198819D01*
X0101378Y0196850D01*
X0100984Y0194882D01*
X0082677Y0220225D02*
X0080709Y0220472D01*
X0070177Y0218504D02*
X0072146Y0220472D01*
X0080709Y0220472D01*
X0099311Y0083169D02*
X0099311Y0079626D01*
X0097441Y0077756D01*
X0069882Y0137795D02*
X0073819Y0138780D01*
X0076772Y0141732D01*
X0090157Y0142264D02*
X0089626Y0141732D01*
X0076772Y0141732D01*
X0100984Y0224409D02*
X0100984Y0232283D01*
X0069882Y0149606D02*
X0076772Y0152067D01*
X0104331Y0152067D01*
X0112205Y0159941D01*
X0112205Y0208661D01*
X0100984Y0224409D02*
X0103346Y0221457D01*
X0104331Y0219488D01*
X0104331Y0212598D01*
X0101378Y0209646D01*
X0100591Y0205512D01*
X0112205Y0208661D02*
X0110236Y0210630D01*
X0106299Y0210630D01*
X0104331Y0212598D01*
X0100984Y0232283D02*
X0092028Y0232283D01*
X0037402Y0241535D02*
X0036417Y0243602D01*
X0036417Y0245079D01*
X0033465Y0248031D01*
X0017232Y0248031D01*
X0017232Y0238189D02*
X0021654Y0238189D01*
X0025098Y0241634D01*
X0027067Y0241634D01*
X0029528Y0241535D01*
X0087598Y0222441D02*
X0087598Y0188976D01*
X0082480Y0187205D02*
X0085630Y0187008D01*
X0087598Y0188976D01*
X0087598Y0222441D02*
X0086614Y0223425D01*
X0082677Y0223425D01*
X0029528Y0127461D02*
X0033465Y0123524D01*
X0063976Y0224409D02*
X0065945Y0226378D01*
X0079724Y0226378D01*
X0082677Y0226625D01*
X0033465Y0123524D02*
X0033465Y0116142D01*
X0031496Y0111220D01*
X0069882Y0143701D02*
X0073819Y0144685D01*
X0076772Y0147638D01*
X0084646Y0147638D01*
X0085630Y0147638D01*
X0084646Y0147638D02*
X0089783Y0147638D01*
X0090157Y0147264D01*
X0072343Y0125984D02*
X0078248Y0120079D01*
X0103346Y0123031D02*
X0103346Y0134843D01*
X0104577Y0136073D01*
X0105315Y0136811D01*
X0103346Y0123031D02*
X0100394Y0120079D01*
X0078248Y0120079D01*
X0072343Y0125984D02*
X0069882Y0125984D01*
X0104577Y0136073D02*
X0105768Y0137264D01*
X0110630Y0137264D01*
X0046752Y0187008D02*
X0049213Y0184547D01*
X0049213Y0176181D01*
X0009764Y0216535D02*
X0003937Y0210630D01*
X0003937Y0202756D01*
X0030512Y0180118D02*
X0031496Y0176181D01*
X0003937Y0202756D02*
X0019685Y0187008D01*
X0021654Y0187106D01*
X0024606Y0182087D02*
X0028543Y0182087D01*
X0030512Y0180118D01*
X0021654Y0187106D02*
X0021161Y0185531D01*
X0024606Y0182087D01*
X0043307Y0190453D02*
X0042323Y0188976D01*
X0042323Y0177657D01*
X0043307Y0176181D01*
X0033465Y0183071D02*
X0037402Y0179134D01*
X0037402Y0176181D01*
X0037402Y0187106D02*
X0033465Y0183071D01*
X0029528Y0187106D01*
X0092717Y0187205D02*
X0092520Y0186024D01*
X0092520Y0181102D01*
X0090945Y0179134D01*
X0054213Y0241535D02*
X0045276Y0241535D01*
X0108071Y0205512D02*
X0108268Y0202756D01*
X0108268Y0196850D01*
X0107677Y0194882D01*
X0107677Y0187008D01*
X0063898Y0241535D02*
X0064961Y0240157D01*
X0078740Y0240157D01*
X0082677Y0240157D01*
X0083661Y0241142D01*
X0086220Y0240157D01*
X0078740Y0240157D02*
X0078740Y0244094D01*
X0092913Y0240157D02*
X0100984Y0240157D01*
X0107677Y0240157D02*
X0107677Y0232283D01*
X0107677Y0224409D01*
X0108071Y0215748D02*
X0108268Y0216535D01*
X0108268Y0222441D01*
X0107677Y0224409D01*
X0055118Y0176181D02*
X0055118Y0185531D01*
X0050197Y0190453D01*
X0046260Y0224409D02*
X0035433Y0224409D01*
X0029528Y0230315D01*
X0029528Y0234843D01*
X0041339Y0229331D02*
X0047244Y0229331D01*
X0052165Y0224409D01*
X0061024Y0176181D02*
X0061024Y0187008D01*
X0054134Y0193898D01*
X0041339Y0229331D02*
X0037894Y0232776D01*
X0037402Y0234843D01*
X0073327Y0120079D02*
X0077264Y0116142D01*
X0107283Y0130906D02*
X0107283Y0121063D01*
X0102362Y0116142D01*
X0077264Y0116142D01*
X0073327Y0120079D02*
X0069882Y0120079D01*
X0110630Y0132264D02*
X0108642Y0132264D01*
X0107283Y0130906D01*
D20*
X0007874Y0111220D03*
X0013780Y0111220D03*
X0019685Y0111220D03*
X0025591Y0111220D03*
X0031496Y0111220D03*
X0037402Y0111220D03*
X0043307Y0111220D03*
X0049213Y0111220D03*
X0055118Y0111220D03*
X0061024Y0111220D03*
X0061024Y0176181D03*
X0055118Y0176181D03*
X0049213Y0176181D03*
X0043307Y0176181D03*
X0037402Y0176181D03*
X0031496Y0176181D03*
X0025591Y0176181D03*
D21*
X0069882Y0120079D03*
X0069882Y0125984D03*
X0069882Y0131890D03*
X0069882Y0137795D03*
X0069882Y0143701D03*
X0069882Y0149606D03*
X0069882Y0155512D03*
X0069882Y0161417D03*
X0069882Y0167323D03*
D22*
X0061024Y0120079D03*
X0061024Y0167323D03*
D23*
X0100591Y0205512D03*
X0104331Y0205512D03*
X0108071Y0205512D03*
X0108071Y0215748D03*
X0100591Y0215748D03*
D24*
X0063898Y0241535D03*
X0063898Y0234843D03*
X0054213Y0241535D03*
X0054213Y0234843D03*
D25*
X0009764Y0226535D03*
D26*
X0019764Y0226535D03*
X0009764Y0216535D03*
X0019764Y0216535D03*
X0009764Y0206535D03*
X0019764Y0206535D03*
D27*
X0078740Y0244094D03*
X0092028Y0232283D03*
X0102854Y0175689D03*
D28*
G36*
X0013047Y0072546D02*
X0002987Y0080128D01*
X0012937Y0093332D01*
X0022997Y0085750D01*
X0013047Y0072546D01*
G37*
G36*
X0105173Y0003124D02*
X0095113Y0010706D01*
X0105063Y0023910D01*
X0115123Y0016328D01*
X0105173Y0003124D01*
G37*
D29*
X0110630Y0137264D03*
X0090157Y0137264D03*
X0110630Y0132264D03*
X0110630Y0142264D03*
X0110630Y0147264D03*
X0090157Y0132264D03*
X0090157Y0142264D03*
X0090157Y0147264D03*
D30*
X0070177Y0198819D03*
X0070177Y0208661D03*
X0070177Y0218504D03*
X0047933Y0198819D03*
X0047933Y0208661D03*
X0047933Y0218504D03*
D31*
X0098917Y0089567D03*
X0100886Y0089567D03*
X0102854Y0089567D03*
X0104823Y0089567D03*
X0104823Y0096457D03*
X0102854Y0096457D03*
X0100886Y0096457D03*
X0098917Y0096457D03*
D32*
X0105315Y0092028D03*
X0098425Y0093996D03*
X0098425Y0092028D03*
X0105315Y0093996D03*
D33*
X0059055Y0092520D02*
X0059055Y0048228D01*
X0105118Y0013517D02*
X0112205Y0022638D01*
X0112205Y0027559D01*
X0015748Y0068898D02*
X0023622Y0076772D01*
X0023622Y0074803D01*
X0015748Y0066929D01*
X0015748Y0068898D01*
X0015748Y0067975D02*
X0016794Y0067975D01*
X0018824Y0071973D02*
X0020792Y0071973D01*
X0022822Y0075972D02*
X0023622Y0075972D01*
X0015748Y0054331D02*
X0015748Y0048228D01*
X0015761Y0047182D01*
X0015799Y0046136D01*
X0015862Y0045091D01*
X0015950Y0044048D01*
X0016064Y0043008D01*
X0016202Y0041971D01*
X0016366Y0040937D01*
X0016555Y0039908D01*
X0016768Y0038883D01*
X0017006Y0037864D01*
X0017269Y0036851D01*
X0017556Y0035845D01*
X0017868Y0034845D01*
X0018203Y0033854D01*
X0018562Y0032871D01*
X0018945Y0031897D01*
X0019351Y0030933D01*
X0019781Y0029978D01*
X0020233Y0029035D01*
X0020709Y0028102D01*
X0021206Y0027182D01*
X0021726Y0026273D01*
X0022267Y0025377D01*
X0022830Y0024495D01*
X0023414Y0023627D01*
X0024019Y0022773D01*
X0024644Y0021934D01*
X0025290Y0021110D01*
X0025955Y0020302D01*
X0026639Y0019510D01*
X0027343Y0018735D01*
X0028065Y0017978D01*
X0028805Y0017238D01*
X0029562Y0016516D01*
X0030337Y0015812D01*
X0031129Y0015128D01*
X0031937Y0014463D01*
X0032761Y0013817D01*
X0033600Y0013192D01*
X0034454Y0012587D01*
X0035322Y0012003D01*
X0036204Y0011440D01*
X0037100Y0010899D01*
X0038009Y0010379D01*
X0038929Y0009882D01*
X0039862Y0009406D01*
X0040805Y0008954D01*
X0041760Y0008524D01*
X0042724Y0008118D01*
X0043698Y0007735D01*
X0044681Y0007376D01*
X0045672Y0007041D01*
X0046672Y0006729D01*
X0047678Y0006442D01*
X0048691Y0006179D01*
X0049710Y0005941D01*
X0050735Y0005728D01*
X0051764Y0005539D01*
X0052798Y0005375D01*
X0053835Y0005237D01*
X0054875Y0005123D01*
X0055918Y0005035D01*
X0056963Y0004972D01*
X0058009Y0004934D01*
X0059055Y0004921D01*
X0060101Y0004934D01*
X0061147Y0004972D01*
X0062192Y0005035D01*
X0063235Y0005123D01*
X0064275Y0005237D01*
X0065312Y0005375D01*
X0066346Y0005539D01*
X0067375Y0005728D01*
X0068400Y0005941D01*
X0069419Y0006179D01*
X0070432Y0006442D01*
X0071438Y0006729D01*
X0072438Y0007041D01*
X0073429Y0007376D01*
X0074412Y0007735D01*
X0075386Y0008118D01*
X0076350Y0008524D01*
X0077305Y0008954D01*
X0078248Y0009406D01*
X0079181Y0009882D01*
X0080101Y0010379D01*
X0081010Y0010899D01*
X0081906Y0011440D01*
X0082788Y0012003D01*
X0083656Y0012587D01*
X0084510Y0013192D01*
X0085349Y0013817D01*
X0086173Y0014463D01*
X0086981Y0015128D01*
X0087773Y0015812D01*
X0088548Y0016516D01*
X0089305Y0017238D01*
X0090045Y0017978D01*
X0090767Y0018735D01*
X0091471Y0019510D01*
X0092155Y0020302D01*
X0092820Y0021110D01*
X0093466Y0021934D01*
X0094091Y0022773D01*
X0094696Y0023627D01*
X0095280Y0024495D01*
X0095843Y0025377D01*
X0096384Y0026273D01*
X0096904Y0027182D01*
X0097401Y0028102D01*
X0097877Y0029035D01*
X0098329Y0029978D01*
X0098759Y0030933D01*
X0099165Y0031897D01*
X0099548Y0032871D01*
X0099907Y0033854D01*
X0100242Y0034845D01*
X0100554Y0035845D01*
X0100841Y0036851D01*
X0101104Y0037864D01*
X0101342Y0038883D01*
X0101555Y0039908D01*
X0101744Y0040937D01*
X0101908Y0041971D01*
X0102046Y0043008D01*
X0102160Y0044048D01*
X0102248Y0045091D01*
X0102311Y0046136D01*
X0102349Y0047182D01*
X0102362Y0048228D01*
X0102362Y0054331D01*
X0102362Y0048228D02*
X0102362Y0042126D01*
X0015748Y0054331D02*
X0015748Y0067913D01*
X0015748Y0067914D02*
X0015810Y0067916D01*
X0015871Y0067922D01*
X0015932Y0067931D01*
X0015993Y0067945D01*
X0016052Y0067962D01*
X0016110Y0067983D01*
X0016167Y0068008D01*
X0016222Y0068036D01*
X0016275Y0068067D01*
X0016326Y0068102D01*
X0016375Y0068140D01*
X0016422Y0068181D01*
X0016465Y0068224D01*
X0016506Y0068271D01*
X0016544Y0068320D01*
X0016579Y0068371D01*
X0016610Y0068424D01*
X0016638Y0068479D01*
X0016663Y0068536D01*
X0016684Y0068594D01*
X0016701Y0068653D01*
X0016715Y0068714D01*
X0016724Y0068775D01*
X0016730Y0068836D01*
X0016732Y0068898D01*
X0015748Y0054331D02*
X0015748Y0042126D01*
X0015748Y0067913D02*
X0016732Y0068898D01*
X0012992Y0082939D02*
X0023622Y0082677D01*
X0023622Y0076772D01*
D34*
X0059055Y0092520D03*
X0063231Y0092520D03*
X0054879Y0092520D03*
X0028543Y0102362D03*
X0075787Y0102362D03*
X0067913Y0175197D03*
X0070866Y0172244D03*
X0029528Y0122047D03*
X0029528Y0117126D03*
X0040354Y0152559D03*
X0059055Y0229823D03*
X0036909Y0156004D03*
X0010335Y0243110D03*
X0044783Y0122047D03*
X0044783Y0117126D03*
X0073819Y0107776D03*
X0070374Y0111220D03*
X0102854Y0200295D03*
X0082677Y0212598D03*
X0092520Y0212598D03*
X0112205Y0027559D03*
X0112205Y0022638D03*
X0076772Y0187992D03*
X0079724Y0182087D03*
X0095472Y0171260D03*
X0103346Y0163386D03*
X0103346Y0168307D03*
X0098425Y0129921D03*
X0076772Y0134843D03*
X0030020Y0206693D03*
X0030020Y0211614D03*
X0102362Y0147146D03*
X0082677Y0137303D03*
X0077756Y0160433D03*
X0063976Y0224409D03*
X0029528Y0127461D03*
X0016732Y0068898D03*
X0019685Y0071850D03*
X0022638Y0074803D03*
X0046752Y0187008D03*
X0043307Y0190453D03*
X0033465Y0183071D03*
X0046260Y0224409D03*
X0050197Y0190453D03*
X0052165Y0224409D03*
X0054134Y0193898D03*
D35*
X0033071Y0102362D02*
X0028543Y0102362D01*
X0043307Y0111220D02*
X0043307Y0115650D01*
X0044783Y0117126D01*
X0044783Y0122047D01*
X0071260Y0102362D02*
X0075787Y0102362D01*
X0025591Y0111220D02*
X0019685Y0111220D01*
X0007874Y0111220D02*
X0013780Y0111220D01*
X0019685Y0111220D01*
X0070866Y0169291D02*
X0070866Y0172244D01*
X0067913Y0175197D01*
X0025591Y0111220D02*
X0025591Y0115157D01*
X0027559Y0117126D01*
X0029528Y0117126D01*
X0029528Y0122047D01*
X0025591Y0176181D02*
X0025591Y0167323D01*
X0036909Y0156004D01*
X0040354Y0152559D01*
X0059055Y0229823D02*
X0054213Y0234843D01*
X0045276Y0234843D01*
X0010327Y0248031D02*
X0010327Y0243110D01*
X0010327Y0238189D01*
X0010335Y0243110D02*
X0010327Y0243110D01*
X0061024Y0111220D02*
X0070374Y0111220D01*
X0073819Y0107776D01*
X0082677Y0208071D02*
X0082677Y0212598D01*
X0092520Y0212598D02*
X0092520Y0208071D01*
X0096063Y0163386D02*
X0103346Y0163386D01*
X0103346Y0168307D01*
X0095472Y0171260D02*
X0090945Y0171260D01*
X0098425Y0129921D02*
X0097835Y0125000D01*
X0030020Y0206693D02*
X0030020Y0211614D01*
X0019764Y0206535D02*
X0021654Y0206693D01*
X0030020Y0206693D01*
X0110630Y0147264D02*
X0110630Y0147146D01*
X0102362Y0147146D01*
X0072835Y0181102D02*
X0072835Y0189961D01*
X0077756Y0194882D02*
X0077756Y0213091D01*
X0022638Y0226378D02*
X0019764Y0226535D01*
X0037402Y0218504D02*
X0030512Y0218504D01*
X0022638Y0226378D01*
X0072835Y0189961D02*
X0077756Y0194882D01*
X0072835Y0181102D02*
X0082677Y0171260D01*
X0084252Y0171260D01*
X0084646Y0168307D01*
X0084646Y0163386D01*
X0085039Y0163386D01*
X0069882Y0161417D02*
X0072835Y0161417D01*
X0076772Y0163386D01*
X0077756Y0163386D01*
X0085039Y0163386D01*
X0077756Y0163386D02*
X0077756Y0160433D01*
X0091142Y0125000D02*
X0083169Y0125000D01*
X0081693Y0124606D01*
X0037402Y0193799D02*
X0037402Y0218504D01*
X0047933Y0218504D01*
X0070177Y0218504D02*
X0072343Y0218504D01*
X0077756Y0213091D01*
X0047933Y0218504D02*
X0056100Y0218504D01*
X0057037Y0219440D01*
X0061074Y0219440D01*
X0062010Y0218504D01*
X0070177Y0218504D01*
X0092028Y0110728D02*
X0099016Y0110728D01*
X0099311Y0083169D02*
X0104921Y0083169D01*
X0070177Y0208661D02*
X0047933Y0208661D01*
X0059055Y0196850D02*
X0060087Y0197883D01*
X0061074Y0197883D01*
X0070177Y0206986D01*
X0070177Y0208661D01*
X0049213Y0111220D02*
X0047244Y0102362D01*
X0039764Y0102362D01*
X0055118Y0111220D02*
X0057087Y0102362D01*
X0064567Y0102362D01*
D36*
X0082480Y0190945D02*
X0079724Y0190945D01*
X0076772Y0187992D01*
X0079724Y0182087D02*
X0084252Y0179134D01*
X0081693Y0131299D02*
X0079724Y0131890D01*
X0076772Y0134843D01*
X0030020Y0206693D02*
X0030020Y0200787D01*
X0029528Y0193799D01*
X0021654Y0193799D01*
X0082677Y0201378D02*
X0082480Y0194685D01*
X0077756Y0194882D01*
X0091142Y0125000D02*
X0090157Y0132264D01*
X0090157Y0137264D01*
X0082677Y0137303D01*
X0090157Y0137264D02*
X0097894Y0137264D01*
X0102854Y0142224D01*
X0110591Y0142224D01*
X0110630Y0142264D01*
X0100394Y0216535D02*
X0082677Y0234252D01*
X0064961Y0234252D01*
X0063898Y0234843D01*
X0108268Y0177165D02*
X0108268Y0161909D01*
X0102362Y0156004D01*
X0076772Y0156004D01*
X0069882Y0155512D01*
X0096949Y0202756D02*
X0096949Y0210138D01*
X0092717Y0194685D02*
X0100984Y0187008D01*
X0102362Y0183071D01*
X0106299Y0179134D01*
X0108268Y0177165D01*
X0092717Y0194685D02*
X0092520Y0201378D01*
X0096949Y0202756D01*
X0096949Y0210138D02*
X0100394Y0213583D01*
X0100394Y0216535D02*
X0100591Y0215748D01*
X0100394Y0213583D01*
X0106299Y0179134D02*
X0102854Y0175689D01*
D37*
X0102854Y0096457D02*
X0104823Y0096457D01*
X0105315Y0093996D02*
X0105315Y0092028D01*
X0104823Y0096457D02*
X0105315Y0095965D01*
X0105315Y0093996D01*
X0105709Y0110728D02*
X0110630Y0105807D01*
X0110630Y0102362D01*
X0110630Y0097343D01*
X0109252Y0095965D02*
X0105315Y0095965D01*
X0092126Y0102362D02*
X0089665Y0104823D01*
X0087598Y0104823D01*
X0109252Y0095965D02*
X0110630Y0097343D01*
X0102854Y0089567D02*
X0100886Y0089567D01*
X0099311Y0083169D02*
X0099311Y0085531D01*
X0100886Y0087106D01*
X0100886Y0089567D01*
X0102854Y0089567D02*
X0102854Y0087106D01*
X0104331Y0085630D01*
X0104331Y0083268D01*
X0104921Y0083169D01*
X0098819Y0102362D02*
X0098819Y0096555D01*
X0098917Y0096457D01*
X0100886Y0096457D02*
X0101254Y0096825D01*
X0103937Y0102362D02*
X0103937Y0100571D01*
X0101254Y0097889D01*
X0101254Y0096825D01*
X0098819Y0102362D02*
X0098819Y0110531D01*
X0099016Y0110728D01*
X0103937Y0102362D02*
X0103937Y0105807D01*
X0099016Y0110728D01*
X0069882Y0137795D02*
X0065945Y0137795D01*
X0064961Y0136811D01*
X0064961Y0116634D01*
X0066929Y0114665D01*
X0073327Y0114665D01*
X0081693Y0105315D01*
X0098917Y0089567D02*
X0096949Y0089567D01*
X0093012Y0085630D01*
X0093012Y0083563D01*
X0092618Y0083169D01*
X0081693Y0091535D02*
X0090059Y0083169D01*
X0092618Y0083169D01*
X0093012Y0083563D01*
X0081693Y0091535D02*
X0081693Y0105315D01*
X0038878Y0117126D02*
X0038386Y0117126D01*
X0037402Y0116142D01*
X0037402Y0111220D01*
X0104823Y0089567D02*
X0107283Y0089567D01*
X0111220Y0085630D01*
X0111220Y0083268D01*
X0111614Y0083169D01*
X0110119Y0083169D01*
X0111614Y0083169D02*
X0111614Y0079626D01*
X0043891Y0097532D02*
X0044474Y0096949D01*
X0072343Y0096949D01*
X0107283Y0075295D02*
X0093996Y0075295D01*
X0072343Y0096949D01*
X0107283Y0075295D02*
X0111614Y0079626D01*
X0098425Y0092028D02*
X0092028Y0092028D01*
X0069882Y0131890D02*
X0071850Y0131890D01*
X0075787Y0127953D01*
D38*
X0087598Y0104823D03*
X0110630Y0097343D03*
X0092028Y0110728D03*
X0097441Y0077756D03*
X0043891Y0097532D03*
X0038878Y0117126D03*
X0092028Y0092028D03*
X0075787Y0127953D03*
D39*
X0059055Y0196850D03*
M02*
