G75*
%MOIN*%
%OFA0B0*%
%FSLAX25Y25*%
%IPPOS*%
%LPD*%
%AMOC8*
5,1,8,0,0,1.08239X$1,22.5*
%
%ADD10C,0.01181*%
%ADD11R,0.04331X0.03937*%
%ADD12R,0.06299X0.07087*%
%ADD13R,0.03937X0.04331*%
%ADD14R,0.04724X0.02165*%
%ADD15R,0.04331X0.06693*%
%ADD16R,0.03937X0.05906*%
%ADD17R,0.05906X0.03937*%
%ADD18R,0.03937X0.03937*%
%ADD19R,0.02165X0.04724*%
%ADD20C,0.03150*%
%ADD21R,0.12598X0.16535*%
%ADD22R,0.08661X0.02362*%
%ADD23R,0.04528X0.03937*%
%ADD24R,0.00984X0.01969*%
%ADD25R,0.01969X0.00984*%
D10*
X0011705Y0239567D02*
X0011705Y0236811D01*
X0008949Y0236811D01*
X0008949Y0239567D01*
X0011705Y0239567D01*
X0011705Y0237991D02*
X0008949Y0237991D01*
X0008949Y0239171D02*
X0011705Y0239171D01*
X0018610Y0239567D02*
X0018610Y0236811D01*
X0015854Y0236811D01*
X0015854Y0239567D01*
X0018610Y0239567D01*
X0018610Y0237991D02*
X0015854Y0237991D01*
X0015854Y0239171D02*
X0018610Y0239171D01*
X0011705Y0249409D02*
X0011705Y0246653D01*
X0008949Y0246653D01*
X0008949Y0249409D01*
X0011705Y0249409D01*
X0011705Y0247833D02*
X0008949Y0247833D01*
X0008949Y0249013D02*
X0011705Y0249013D01*
X0018610Y0249409D02*
X0018610Y0246653D01*
X0015854Y0246653D01*
X0015854Y0249409D01*
X0018610Y0249409D01*
X0018610Y0247833D02*
X0015854Y0247833D01*
X0015854Y0249013D02*
X0018610Y0249013D01*
D11*
X0029528Y0241535D03*
X0029528Y0234843D03*
X0037402Y0241535D03*
X0037402Y0234843D03*
X0107677Y0232283D03*
X0100984Y0232283D03*
X0091142Y0125000D03*
X0097835Y0125000D03*
X0039764Y0102362D03*
X0033071Y0102362D03*
X0064567Y0102362D03*
X0071260Y0102362D03*
X0084252Y0179134D03*
X0090945Y0179134D03*
X0086220Y0240157D03*
X0092913Y0240157D03*
X0021654Y0187106D03*
X0021654Y0193799D03*
X0084252Y0171260D03*
X0090945Y0171260D03*
X0037402Y0187106D03*
X0037402Y0193799D03*
X0103937Y0102362D03*
X0110630Y0102362D03*
X0099016Y0110728D03*
X0105709Y0110728D03*
X0098819Y0102362D03*
X0092126Y0102362D03*
D12*
X0085039Y0163386D03*
X0096063Y0163386D03*
D13*
X0082677Y0201378D03*
X0082677Y0208071D03*
X0092520Y0201378D03*
X0092520Y0208071D03*
X0100984Y0187008D03*
X0107677Y0187008D03*
X0045276Y0234843D03*
X0045276Y0241535D03*
X0100984Y0194882D03*
X0107677Y0194882D03*
X0107677Y0240157D03*
X0100984Y0240157D03*
X0107677Y0224409D03*
X0100984Y0224409D03*
X0029528Y0193799D03*
X0029528Y0187106D03*
X0081693Y0124606D03*
X0081693Y0131299D03*
X0104921Y0083169D03*
X0111614Y0083169D03*
X0099311Y0083169D03*
X0092618Y0083169D03*
D14*
X0082480Y0194685D03*
X0082480Y0190945D03*
X0082480Y0187205D03*
X0092717Y0187205D03*
X0092717Y0194685D03*
D15*
X0057087Y0102362D03*
X0047244Y0102362D03*
D16*
X0007874Y0111220D03*
X0013780Y0111220D03*
X0019685Y0111220D03*
X0025591Y0111220D03*
X0031496Y0111220D03*
X0037402Y0111220D03*
X0043307Y0111220D03*
X0049213Y0111220D03*
X0055118Y0111220D03*
X0061024Y0111220D03*
X0061024Y0176181D03*
X0055118Y0176181D03*
X0049213Y0176181D03*
X0043307Y0176181D03*
X0037402Y0176181D03*
X0031496Y0176181D03*
X0025591Y0176181D03*
D17*
X0069882Y0120079D03*
X0069882Y0125984D03*
X0069882Y0131890D03*
X0069882Y0137795D03*
X0069882Y0143701D03*
X0069882Y0149606D03*
X0069882Y0155512D03*
X0069882Y0161417D03*
X0069882Y0167323D03*
D18*
X0061024Y0120079D03*
X0061024Y0167323D03*
D19*
X0100591Y0205512D03*
X0104331Y0205512D03*
X0108071Y0205512D03*
X0108071Y0215748D03*
X0100591Y0215748D03*
D20*
X0063898Y0241535D03*
X0063898Y0234843D03*
X0054213Y0241535D03*
X0054213Y0234843D03*
D21*
G36*
X0013047Y0072546D02*
X0002987Y0080128D01*
X0012937Y0093332D01*
X0022997Y0085750D01*
X0013047Y0072546D01*
G37*
G36*
X0105173Y0003124D02*
X0095113Y0010706D01*
X0105063Y0023910D01*
X0115123Y0016328D01*
X0105173Y0003124D01*
G37*
D22*
X0110630Y0137264D03*
X0090157Y0137264D03*
X0110630Y0132264D03*
X0110630Y0142264D03*
X0110630Y0147264D03*
X0090157Y0132264D03*
X0090157Y0142264D03*
X0090157Y0147264D03*
D23*
X0070177Y0198819D03*
X0070177Y0208661D03*
X0070177Y0218504D03*
X0047933Y0198819D03*
X0047933Y0208661D03*
X0047933Y0218504D03*
D24*
X0098917Y0089567D03*
X0100886Y0089567D03*
X0102854Y0089567D03*
X0104823Y0089567D03*
X0104823Y0096457D03*
X0102854Y0096457D03*
X0100886Y0096457D03*
X0098917Y0096457D03*
D25*
X0105315Y0092028D03*
X0098425Y0093996D03*
X0098425Y0092028D03*
X0105315Y0093996D03*
M02*
