%
M48
M72
T01C0.01969
T02C0.02362
T03C0.03937
T04C0.12598
%
T01
X59055Y92520
X63231Y92520
X54879Y92520
X28543Y102362
X75787Y102362
X67913Y175197
X70866Y172244
X29528Y122047
X29528Y117126
X40354Y152559
X59055Y229823
X96457Y92520
X36909Y156004
X10335Y243110
X44783Y122047
X44783Y117126
X73819Y107776
X70374Y111220
X102854Y200295
X82677Y212598
X92520Y212598
X112205Y27559
X112205Y22638
X76772Y187992
X79724Y182087
X95472Y171260
X103346Y163386
X103346Y168307
X98425Y129921
X76772Y134843
X30020Y206693
X30020Y211614
X103346Y147146
X82677Y137303
X77756Y160433
X62500Y159941
X58071Y138780
X61516Y221457
X29528Y127461
X16732Y68898
X19685Y71850
X22638Y74803
X53642Y133858
X30512Y170276
X46752Y187008
X43307Y190453
X33465Y183071
X46260Y224409
X50197Y190453
X52165Y224409
X54134Y193898
X75295Y112697
X75787Y127953
X49213Y138780
T02
X59055Y208661
T03
X9764Y226535
X19764Y226535
X9764Y216535
X19764Y216535
X9764Y206535
X19764Y206535
T04
X13780Y261811
X104331Y261811
M30
